<svg width="319" height="86" viewBox="0 0 319 86" fill="none" xmlns="http://www.w3.org/2000/svg">
<g filter="url(#filter0_d_89_14589)">
<rect x="0.922852" width="318" height="82" rx="20" fill="#ED2B2B"/>
</g>
<g filter="url(#filter1_d_89_14589)">
<rect x="4.92285" y="4" width="310" height="68" rx="20" fill="#EF3349"/>
</g>
<path d="M12.9229 16.6924C12.9229 10.7871 17.71 6 23.6152 6L295.231 6C301.136 6 305.923 10.7869 305.923 16.6919C305.923 22.8321 300.776 27.7159 294.644 27.4001C268.899 26.074 204.584 23.0093 159.871 23C114.841 22.9906 50.0516 26.0717 24.1979 27.4012C18.0659 27.7166 12.9229 22.8325 12.9229 16.6924Z" fill="#ED2B2B"/>
<path d="M80.7972 24.264C82.5892 24.264 83.9866 24.6907 84.9892 25.544C85.9919 26.376 86.4932 27.432 86.4932 28.712C86.4932 29.8213 85.9599 30.376 84.8932 30.376C84.5519 30.376 84.2746 30.216 84.0612 29.896C83.8479 29.5547 83.6239 29.192 83.3892 28.808C83.1759 28.4027 82.9092 28.04 82.5892 27.72C82.2692 27.3787 81.8212 27.208 81.2452 27.208C80.4346 27.208 79.8052 27.4853 79.3572 28.04C78.9092 28.5733 78.6852 29.2347 78.6852 30.024C78.6852 30.6 78.8986 31.1013 79.3252 31.528C79.7519 31.9547 80.2852 32.3707 80.9252 32.776C81.5652 33.16 82.2586 33.5653 83.0052 33.992C83.7519 34.3973 84.4452 34.888 85.0852 35.464C85.7252 36.04 86.2586 36.7227 86.6852 37.512C87.1119 38.28 87.3252 39.2187 87.3252 40.328C87.3252 41.0747 87.1439 41.7787 86.7812 42.44C86.4186 43.08 85.9279 43.6453 85.3092 44.136C84.7119 44.6267 84.0186 45.0107 83.2292 45.288C82.4399 45.5653 81.6079 45.704 80.7332 45.704C79.8372 45.704 79.0372 45.5653 78.3332 45.288C77.6292 45.032 77.0319 44.7013 76.5412 44.296C76.0719 43.8907 75.7092 43.4533 75.4532 42.984C75.1972 42.5147 75.0692 42.0773 75.0692 41.672C75.0692 40.8613 75.1866 40.3067 75.4212 40.008C75.6772 39.688 76.0186 39.528 76.4452 39.528C76.7226 39.528 76.9999 39.688 77.2772 40.008C77.5759 40.328 77.8959 40.6907 78.2372 41.096C78.5999 41.48 78.9839 41.832 79.3892 42.152C79.7946 42.472 80.2426 42.632 80.7332 42.632C81.6719 42.632 82.4292 42.4187 83.0052 41.992C83.5812 41.544 83.8692 40.9893 83.8692 40.328C83.8692 39.688 83.6559 39.1333 83.2292 38.664C82.8026 38.1733 82.2692 37.7147 81.6292 37.288C80.9892 36.8613 80.2959 36.4453 79.5492 36.04C78.8026 35.6133 78.1092 35.1333 77.4692 34.6C76.8292 34.0667 76.2959 33.4587 75.8692 32.776C75.4426 32.072 75.2292 31.2293 75.2292 30.248C75.2292 29.3947 75.3466 28.6053 75.5812 27.88C75.8372 27.1333 76.1999 26.4933 76.6692 25.96C77.1386 25.4267 77.7146 25.0107 78.3972 24.712C79.1012 24.4133 79.9012 24.264 80.7972 24.264ZM94.2622 24.04C94.4969 24.04 94.6249 24.1467 94.6462 24.36C94.6889 24.552 94.7102 24.7333 94.7102 24.904V25.288L94.6462 26.088V26.472C94.6462 26.856 94.6462 27.1867 94.6462 27.464C94.6462 27.7413 94.6782 27.9653 94.7422 28.136C94.8062 28.3067 94.9129 28.4347 95.0622 28.52C95.2329 28.584 95.4782 28.616 95.7982 28.616C96.0969 28.616 96.3849 28.6053 96.6622 28.584C96.9609 28.5413 97.2276 28.552 97.4622 28.616C97.6969 28.6587 97.8889 28.7653 98.0382 28.936C98.1876 29.1067 98.2622 29.3947 98.2622 29.8C98.2622 30.3547 98.1556 30.7387 97.9422 30.952C97.7289 31.1653 97.3342 31.272 96.7582 31.272H95.2222C94.9236 31.272 94.7529 31.624 94.7102 32.328C94.6676 33.032 94.6462 33.9707 94.6462 35.144V35.976L94.6142 37.608V38.44C94.6142 38.7173 94.6142 39.08 94.6142 39.528C94.6356 39.9547 94.6889 40.3813 94.7742 40.808C94.8809 41.2133 95.0409 41.5653 95.2542 41.864C95.4889 42.1413 95.8196 42.28 96.2462 42.28C96.5449 42.28 96.8116 42.2267 97.0462 42.12C97.2809 41.992 97.4942 41.864 97.6862 41.736C97.8782 41.608 98.0596 41.4907 98.2302 41.384C98.4222 41.256 98.6036 41.192 98.7742 41.192C99.0089 41.192 99.1369 41.3093 99.1582 41.544C99.2009 41.7573 99.2222 41.9493 99.2222 42.12C99.2222 42.5893 99.0942 43.0267 98.8382 43.432C98.6036 43.8373 98.2942 44.1893 97.9102 44.488C97.5262 44.7653 97.0996 44.9787 96.6302 45.128C96.1822 45.2987 95.7342 45.384 95.2862 45.384C94.5182 45.384 93.8889 45.16 93.3982 44.712C92.9076 44.264 92.5236 43.688 92.2462 42.984C91.9902 42.2587 91.8089 41.448 91.7022 40.552C91.5956 39.656 91.5316 38.76 91.5102 37.864C91.4889 36.968 91.4889 36.1147 91.5102 35.304C91.5529 34.4933 91.5742 33.8107 91.5742 33.256C91.5742 32.5307 91.5529 32.04 91.5102 31.784C91.4889 31.528 91.3289 31.4 91.0302 31.4C90.9236 31.4 90.8062 31.3893 90.6782 31.368C90.5716 31.3467 90.4649 31.2827 90.3582 31.176C90.2729 31.0693 90.1982 30.92 90.1342 30.728C90.0702 30.5147 90.0382 30.2267 90.0382 29.864C90.0382 29.5227 90.0702 29.2667 90.1342 29.096C90.1982 28.904 90.2836 28.776 90.3902 28.712C90.5182 28.6267 90.6462 28.584 90.7742 28.584C90.9022 28.5627 91.0302 28.552 91.1582 28.552C91.4996 28.552 91.6916 28.4773 91.7342 28.328C91.7982 28.1573 91.8302 27.8053 91.8302 27.272C91.8302 27.1867 91.8302 27.0693 91.8302 26.92C91.8302 26.7707 91.8196 26.6213 91.7982 26.472C91.7982 26.3013 91.7982 26.1413 91.7982 25.992C91.7982 25.8213 91.7982 25.6933 91.7982 25.608C91.7982 25.352 91.8729 25.128 92.0222 24.936C92.1929 24.7227 92.3956 24.552 92.6302 24.424C92.8862 24.296 93.1529 24.2 93.4302 24.136C93.7289 24.072 94.0062 24.04 94.2622 24.04ZM101.837 41.256C101.837 40.36 102.008 39.592 102.349 38.952C102.712 38.312 103.149 37.7573 103.661 37.288C104.173 36.8187 104.738 36.4133 105.357 36.072C105.976 35.7093 106.541 35.368 107.053 35.048C107.565 34.7067 107.992 34.376 108.333 34.056C108.696 33.7147 108.877 33.32 108.877 32.872C108.877 32.4453 108.728 32.0507 108.429 31.688C108.13 31.3253 107.768 31.144 107.341 31.144C106.893 31.144 106.53 31.272 106.253 31.528C105.976 31.7627 105.73 32.04 105.517 32.36C105.325 32.6587 105.133 32.936 104.941 33.192C104.749 33.4267 104.514 33.544 104.237 33.544C103.81 33.544 103.437 33.4053 103.117 33.128C102.797 32.8507 102.637 32.4987 102.637 32.072C102.637 31.5173 102.797 31.016 103.117 30.568C103.458 30.12 103.885 29.7253 104.397 29.384C104.909 29.0427 105.464 28.7867 106.061 28.616C106.658 28.424 107.213 28.328 107.725 28.328C108.749 28.328 109.549 28.5307 110.125 28.936C110.722 29.32 111.17 29.832 111.469 30.472C111.789 31.112 111.992 31.8373 112.077 32.648C112.162 33.4373 112.205 34.248 112.205 35.08V36.68L112.141 39.784V41.384C112.141 41.768 112.152 42.184 112.173 42.632C112.194 43.08 112.184 43.496 112.141 43.88C112.098 44.2427 111.992 44.552 111.821 44.808C111.65 45.064 111.384 45.192 111.021 45.192C110.616 45.192 110.306 45.1173 110.093 44.968C109.88 44.8187 109.709 44.6587 109.581 44.488C109.474 44.296 109.389 44.1253 109.325 43.976C109.282 43.8267 109.197 43.752 109.069 43.752C108.941 43.752 108.77 43.8267 108.557 43.976C108.365 44.1253 108.12 44.296 107.821 44.488C107.544 44.68 107.213 44.8507 106.829 45C106.466 45.1493 106.061 45.224 105.613 45.224C105.037 45.224 104.514 45.1173 104.045 44.904C103.576 44.6693 103.17 44.3707 102.829 44.008C102.509 43.6453 102.264 43.2293 102.093 42.76C101.922 42.2693 101.837 41.768 101.837 41.256ZM104.909 40.68C104.909 41.2133 105.069 41.608 105.389 41.864C105.73 42.0987 106.146 42.216 106.637 42.216C107.128 42.216 107.522 42.12 107.821 41.928C108.141 41.7147 108.386 41.4373 108.557 41.096C108.749 40.7547 108.877 40.3813 108.941 39.976C109.026 39.5493 109.069 39.1333 109.069 38.728C109.069 38.4293 109.016 38.1627 108.909 37.928C108.802 37.6933 108.568 37.576 108.205 37.576C107.885 37.576 107.533 37.672 107.149 37.864C106.765 38.056 106.402 38.312 106.061 38.632C105.741 38.9307 105.464 39.2613 105.229 39.624C105.016 39.9867 104.909 40.3387 104.909 40.68ZM122.9 30.088C122.9 30.2587 122.878 30.4827 122.836 30.76C122.814 31.0373 122.686 31.176 122.452 31.176L122.164 31.144C121.566 31.144 121.065 31.2827 120.66 31.56C120.254 31.816 119.924 32.1573 119.668 32.584C119.412 33.0107 119.23 33.4907 119.124 34.024C119.017 34.536 118.964 35.048 118.964 35.56V37.064L118.868 40.584V42.12C118.868 42.376 118.868 42.6747 118.868 43.016C118.889 43.3573 118.868 43.688 118.804 44.008C118.74 44.3067 118.612 44.5733 118.42 44.808C118.228 45.0213 117.94 45.128 117.556 45.128C116.916 45.128 116.446 44.968 116.148 44.648C115.849 44.328 115.7 43.8907 115.7 43.336V40.264L115.732 33.928V30.856C115.732 30.6213 115.742 30.3653 115.764 30.088C115.785 29.8107 115.838 29.5547 115.924 29.32C116.009 29.0853 116.137 28.8933 116.308 28.744C116.5 28.5947 116.756 28.52 117.076 28.52C117.374 28.52 117.63 28.5733 117.844 28.68C118.057 28.7867 118.185 29 118.228 29.32C118.27 29.6187 118.313 29.832 118.356 29.96C118.398 30.0667 118.452 30.12 118.516 30.12C118.58 30.12 118.686 30.024 118.836 29.832C118.985 29.64 119.177 29.4267 119.412 29.192C119.668 28.9573 119.956 28.744 120.276 28.552C120.617 28.36 121.012 28.264 121.46 28.264C121.972 28.264 122.334 28.456 122.548 28.84C122.782 29.224 122.9 29.64 122.9 30.088ZM129.522 24.04C129.757 24.04 129.885 24.1467 129.906 24.36C129.949 24.552 129.97 24.7333 129.97 24.904V25.288L129.906 26.088V26.472C129.906 26.856 129.906 27.1867 129.906 27.464C129.906 27.7413 129.938 27.9653 130.002 28.136C130.066 28.3067 130.173 28.4347 130.322 28.52C130.493 28.584 130.738 28.616 131.058 28.616C131.357 28.616 131.645 28.6053 131.922 28.584C132.221 28.5413 132.488 28.552 132.722 28.616C132.957 28.6587 133.149 28.7653 133.298 28.936C133.448 29.1067 133.522 29.3947 133.522 29.8C133.522 30.3547 133.416 30.7387 133.202 30.952C132.989 31.1653 132.594 31.272 132.018 31.272H130.482C130.184 31.272 130.013 31.624 129.97 32.328C129.928 33.032 129.906 33.9707 129.906 35.144V35.976L129.874 37.608V38.44C129.874 38.7173 129.874 39.08 129.874 39.528C129.896 39.9547 129.949 40.3813 130.034 40.808C130.141 41.2133 130.301 41.5653 130.514 41.864C130.749 42.1413 131.08 42.28 131.506 42.28C131.805 42.28 132.072 42.2267 132.306 42.12C132.541 41.992 132.754 41.864 132.946 41.736C133.138 41.608 133.32 41.4907 133.49 41.384C133.682 41.256 133.864 41.192 134.034 41.192C134.269 41.192 134.397 41.3093 134.418 41.544C134.461 41.7573 134.482 41.9493 134.482 42.12C134.482 42.5893 134.354 43.0267 134.098 43.432C133.864 43.8373 133.554 44.1893 133.17 44.488C132.786 44.7653 132.36 44.9787 131.89 45.128C131.442 45.2987 130.994 45.384 130.546 45.384C129.778 45.384 129.149 45.16 128.658 44.712C128.168 44.264 127.784 43.688 127.506 42.984C127.25 42.2587 127.069 41.448 126.962 40.552C126.856 39.656 126.792 38.76 126.77 37.864C126.749 36.968 126.749 36.1147 126.77 35.304C126.813 34.4933 126.834 33.8107 126.834 33.256C126.834 32.5307 126.813 32.04 126.77 31.784C126.749 31.528 126.589 31.4 126.29 31.4C126.184 31.4 126.066 31.3893 125.938 31.368C125.832 31.3467 125.725 31.2827 125.618 31.176C125.533 31.0693 125.458 30.92 125.394 30.728C125.33 30.5147 125.298 30.2267 125.298 29.864C125.298 29.5227 125.33 29.2667 125.394 29.096C125.458 28.904 125.544 28.776 125.65 28.712C125.778 28.6267 125.906 28.584 126.034 28.584C126.162 28.5627 126.29 28.552 126.418 28.552C126.76 28.552 126.952 28.4773 126.994 28.328C127.058 28.1573 127.09 27.8053 127.09 27.272C127.09 27.1867 127.09 27.0693 127.09 26.92C127.09 26.7707 127.08 26.6213 127.058 26.472C127.058 26.3013 127.058 26.1413 127.058 25.992C127.058 25.8213 127.058 25.6933 127.058 25.608C127.058 25.352 127.133 25.128 127.282 24.936C127.453 24.7227 127.656 24.552 127.89 24.424C128.146 24.296 128.413 24.2 128.69 24.136C128.989 24.072 129.266 24.04 129.522 24.04ZM148.082 44.072C148.082 43.8587 148.146 43.432 148.274 42.792C148.402 42.1307 148.562 41.352 148.754 40.456C148.967 39.5387 149.191 38.568 149.426 37.544C149.682 36.52 149.927 35.5387 150.162 34.6C150.396 33.64 150.61 32.7973 150.802 32.072C151.015 31.3253 151.164 30.7813 151.25 30.44C151.506 29.5867 151.751 28.808 151.986 28.104C152.22 27.3787 152.476 26.76 152.754 26.248C153.031 25.7147 153.33 25.3093 153.65 25.032C153.97 24.7333 154.332 24.584 154.738 24.584C155.122 24.584 155.495 24.808 155.858 25.256C156.242 25.6827 156.604 26.2373 156.946 26.92C157.308 27.5813 157.639 28.328 157.938 29.16C158.258 29.9707 158.535 30.7707 158.77 31.56C159.026 32.328 159.239 33.032 159.41 33.672C159.58 34.2907 159.698 34.7493 159.762 35.048C159.868 35.496 160.028 36.1147 160.242 36.904C160.455 37.672 160.658 38.4827 160.85 39.336C161.063 40.1893 161.244 41.0213 161.394 41.832C161.564 42.6427 161.65 43.304 161.65 43.816C161.65 44.1147 161.596 44.392 161.49 44.648C161.404 44.8827 161.18 45 160.818 45C160.05 45 159.484 44.7867 159.122 44.36C158.78 43.912 158.492 43.3787 158.258 42.76C158.108 42.3547 157.959 41.9387 157.81 41.512C157.682 41.0853 157.5 40.7013 157.266 40.36C157.052 40.0187 156.764 39.7413 156.402 39.528C156.06 39.3147 155.602 39.208 155.026 39.208C154.258 39.208 153.639 39.3253 153.17 39.56C152.722 39.7947 152.359 40.0933 152.082 40.456C151.826 40.7973 151.634 41.192 151.506 41.64C151.378 42.0667 151.26 42.4933 151.154 42.92C151.004 43.496 150.802 43.9973 150.546 44.424C150.29 44.8293 149.82 45.032 149.138 45.032C148.796 45.032 148.53 44.968 148.338 44.84C148.167 44.6907 148.082 44.4347 148.082 44.072ZM154.738 30.312C154.503 30.312 154.29 30.568 154.098 31.08C153.927 31.592 153.778 32.1787 153.65 32.84C153.522 33.48 153.426 34.0987 153.362 34.696C153.298 35.272 153.266 35.6347 153.266 35.784C153.266 36.1467 153.426 36.424 153.746 36.616C154.066 36.808 154.396 36.904 154.738 36.904C154.93 36.904 155.122 36.904 155.314 36.904C155.506 36.8827 155.676 36.84 155.826 36.776C155.996 36.712 156.135 36.616 156.242 36.488C156.348 36.3387 156.402 36.1253 156.402 35.848C156.402 35.656 156.359 35.2613 156.274 34.664C156.188 34.0667 156.071 33.448 155.922 32.808C155.772 32.1467 155.591 31.5707 155.378 31.08C155.186 30.568 154.972 30.312 154.738 30.312ZM170.263 28.104C170.818 28.104 171.351 28.2427 171.863 28.52C172.397 28.7973 172.866 29.16 173.271 29.608C173.677 30.0347 174.007 30.5147 174.263 31.048C174.519 31.5813 174.647 32.1147 174.647 32.648C174.647 33.0747 174.519 33.4373 174.263 33.736C174.007 34.0133 173.655 34.152 173.207 34.152C172.909 34.152 172.663 33.992 172.471 33.672C172.301 33.352 172.119 33 171.927 32.616C171.735 32.232 171.511 31.88 171.255 31.56C171.021 31.24 170.69 31.08 170.263 31.08C169.879 31.08 169.517 31.2293 169.175 31.528C168.834 31.8267 168.535 32.2427 168.279 32.776C168.023 33.3093 167.821 33.9387 167.671 34.664C167.543 35.3893 167.479 36.1787 167.479 37.032C167.479 37.8853 167.511 38.664 167.575 39.368C167.661 40.072 167.799 40.68 167.991 41.192C168.183 41.6827 168.439 42.0667 168.759 42.344C169.079 42.6213 169.485 42.76 169.975 42.76C170.551 42.76 171.01 42.5467 171.351 42.12C171.714 41.6933 172.013 41.224 172.247 40.712C172.503 40.2 172.727 39.7307 172.919 39.304C173.133 38.8773 173.378 38.664 173.655 38.664C174.679 38.664 175.191 39.1013 175.191 39.976C175.191 40.616 175.042 41.2667 174.743 41.928C174.445 42.568 174.05 43.1547 173.559 43.688C173.09 44.2 172.535 44.6267 171.895 44.968C171.277 45.288 170.637 45.448 169.975 45.448C167.927 45.448 166.466 44.712 165.591 43.24C164.717 41.768 164.279 39.6773 164.279 36.968C164.279 35.6027 164.407 34.376 164.663 33.288C164.919 32.2 165.293 31.272 165.783 30.504C166.295 29.736 166.925 29.1493 167.671 28.744C168.418 28.3173 169.282 28.104 170.263 28.104ZM182.077 24.04C182.312 24.04 182.44 24.1467 182.461 24.36C182.504 24.552 182.525 24.7333 182.525 24.904V25.288L182.461 26.088V26.472C182.461 26.856 182.461 27.1867 182.461 27.464C182.461 27.7413 182.493 27.9653 182.557 28.136C182.621 28.3067 182.728 28.4347 182.877 28.52C183.048 28.584 183.293 28.616 183.613 28.616C183.912 28.616 184.2 28.6053 184.477 28.584C184.776 28.5413 185.043 28.552 185.277 28.616C185.512 28.6587 185.704 28.7653 185.853 28.936C186.003 29.1067 186.077 29.3947 186.077 29.8C186.077 30.3547 185.971 30.7387 185.757 30.952C185.544 31.1653 185.149 31.272 184.573 31.272H183.037C182.739 31.272 182.568 31.624 182.525 32.328C182.483 33.032 182.461 33.9707 182.461 35.144V35.976L182.429 37.608V38.44C182.429 38.7173 182.429 39.08 182.429 39.528C182.451 39.9547 182.504 40.3813 182.589 40.808C182.696 41.2133 182.856 41.5653 183.069 41.864C183.304 42.1413 183.635 42.28 184.061 42.28C184.36 42.28 184.627 42.2267 184.861 42.12C185.096 41.992 185.309 41.864 185.501 41.736C185.693 41.608 185.875 41.4907 186.045 41.384C186.237 41.256 186.419 41.192 186.589 41.192C186.824 41.192 186.952 41.3093 186.973 41.544C187.016 41.7573 187.037 41.9493 187.037 42.12C187.037 42.5893 186.909 43.0267 186.653 43.432C186.419 43.8373 186.109 44.1893 185.725 44.488C185.341 44.7653 184.915 44.9787 184.445 45.128C183.997 45.2987 183.549 45.384 183.101 45.384C182.333 45.384 181.704 45.16 181.213 44.712C180.723 44.264 180.339 43.688 180.061 42.984C179.805 42.2587 179.624 41.448 179.517 40.552C179.411 39.656 179.347 38.76 179.325 37.864C179.304 36.968 179.304 36.1147 179.325 35.304C179.368 34.4933 179.389 33.8107 179.389 33.256C179.389 32.5307 179.368 32.04 179.325 31.784C179.304 31.528 179.144 31.4 178.845 31.4C178.739 31.4 178.621 31.3893 178.493 31.368C178.387 31.3467 178.28 31.2827 178.173 31.176C178.088 31.0693 178.013 30.92 177.949 30.728C177.885 30.5147 177.853 30.2267 177.853 29.864C177.853 29.5227 177.885 29.2667 177.949 29.096C178.013 28.904 178.099 28.776 178.205 28.712C178.333 28.6267 178.461 28.584 178.589 28.584C178.717 28.5627 178.845 28.552 178.973 28.552C179.315 28.552 179.507 28.4773 179.549 28.328C179.613 28.1573 179.645 27.8053 179.645 27.272C179.645 27.1867 179.645 27.0693 179.645 26.92C179.645 26.7707 179.635 26.6213 179.613 26.472C179.613 26.3013 179.613 26.1413 179.613 25.992C179.613 25.8213 179.613 25.6933 179.613 25.608C179.613 25.352 179.688 25.128 179.837 24.936C180.008 24.7227 180.211 24.552 180.445 24.424C180.701 24.296 180.968 24.2 181.245 24.136C181.544 24.072 181.821 24.04 182.077 24.04ZM190.228 24.584C190.228 24.0507 190.399 23.5707 190.74 23.144C191.081 22.7173 191.54 22.504 192.116 22.504C192.671 22.504 193.119 22.7173 193.46 23.144C193.823 23.5707 194.004 24.0507 194.004 24.584C194.004 25.1173 193.823 25.5973 193.46 26.024C193.119 26.4293 192.671 26.632 192.116 26.632C191.561 26.632 191.103 26.4293 190.74 26.024C190.399 25.5973 190.228 25.1173 190.228 24.584ZM192.372 44.968C191.903 44.968 191.54 44.8507 191.284 44.616C191.028 44.36 190.836 44.0613 190.708 43.72C190.601 43.3573 190.537 42.984 190.516 42.6C190.495 42.216 190.473 41.8853 190.452 41.608C190.431 41.3307 190.409 40.7973 190.388 40.008C190.388 39.1973 190.377 38.3013 190.356 37.32C190.356 36.3387 190.356 35.3467 190.356 34.344C190.356 33.3413 190.356 32.5093 190.356 31.848C190.356 31.5067 190.367 31.144 190.388 30.76C190.409 30.376 190.473 30.024 190.58 29.704C190.708 29.3627 190.889 29.0853 191.124 28.872C191.359 28.6587 191.689 28.552 192.116 28.552C192.735 28.552 193.151 28.6907 193.364 28.968C193.577 29.2453 193.684 29.6933 193.684 30.312V33.16L193.652 39.528V42.376C193.652 42.6107 193.641 42.8773 193.62 43.176C193.62 43.4747 193.577 43.7627 193.492 44.04C193.428 44.296 193.3 44.52 193.108 44.712C192.937 44.8827 192.692 44.968 192.372 44.968ZM202.545 45.256C201.969 45.256 201.575 45.1493 201.361 44.936C201.169 44.7227 200.967 44.4027 200.753 43.976C200.54 43.5493 200.295 42.984 200.017 42.28C199.74 41.576 199.452 40.7973 199.153 39.944C198.876 39.0693 198.588 38.1627 198.289 37.224C198.012 36.2853 197.767 35.3787 197.553 34.504C197.34 33.6293 197.159 32.8187 197.009 32.072C196.881 31.3253 196.817 30.7173 196.817 30.248C196.817 30.0773 196.839 29.896 196.881 29.704C196.924 29.512 196.988 29.3307 197.073 29.16C197.18 28.9893 197.308 28.8507 197.457 28.744C197.607 28.616 197.799 28.552 198.033 28.552C198.289 28.552 198.545 28.6907 198.801 28.968C199.057 29.224 199.26 29.5973 199.409 30.088C199.58 30.664 199.761 31.3467 199.953 32.136C200.167 32.904 200.369 33.6933 200.561 34.504C200.775 35.3147 200.988 36.1253 201.201 36.936C201.415 37.7253 201.607 38.4293 201.777 39.048C201.948 39.6667 202.097 40.168 202.225 40.552C202.353 40.936 202.449 41.128 202.513 41.128C202.577 41.128 202.673 40.9253 202.801 40.52C202.951 40.1147 203.121 39.5813 203.313 38.92C203.505 38.2587 203.708 37.512 203.921 36.68C204.135 35.848 204.359 35.016 204.593 34.184C204.828 33.3307 205.052 32.5093 205.265 31.72C205.5 30.9093 205.713 30.216 205.905 29.64C206.076 29.1493 206.268 28.8507 206.481 28.744C206.716 28.616 206.983 28.552 207.281 28.552C207.601 28.552 207.847 28.68 208.017 28.936C208.209 29.1707 208.305 29.416 208.305 29.672C208.305 30.0987 208.241 30.6853 208.113 31.432C207.985 32.1573 207.804 32.968 207.569 33.864C207.356 34.76 207.111 35.6987 206.833 36.68C206.577 37.64 206.3 38.5787 206.001 39.496C205.724 40.392 205.457 41.2133 205.201 41.96C204.945 42.6853 204.721 43.2613 204.529 43.688C204.252 44.2853 203.932 44.7013 203.569 44.936C203.207 45.1493 202.865 45.256 202.545 45.256ZM211.068 24.584C211.068 24.0507 211.239 23.5707 211.58 23.144C211.921 22.7173 212.38 22.504 212.956 22.504C213.511 22.504 213.959 22.7173 214.3 23.144C214.663 23.5707 214.844 24.0507 214.844 24.584C214.844 25.1173 214.663 25.5973 214.3 26.024C213.959 26.4293 213.511 26.632 212.956 26.632C212.401 26.632 211.943 26.4293 211.58 26.024C211.239 25.5973 211.068 25.1173 211.068 24.584ZM213.212 44.968C212.743 44.968 212.38 44.8507 212.124 44.616C211.868 44.36 211.676 44.0613 211.548 43.72C211.441 43.3573 211.377 42.984 211.356 42.6C211.335 42.216 211.313 41.8853 211.292 41.608C211.271 41.3307 211.249 40.7973 211.228 40.008C211.228 39.1973 211.217 38.3013 211.196 37.32C211.196 36.3387 211.196 35.3467 211.196 34.344C211.196 33.3413 211.196 32.5093 211.196 31.848C211.196 31.5067 211.207 31.144 211.228 30.76C211.249 30.376 211.313 30.024 211.42 29.704C211.548 29.3627 211.729 29.0853 211.964 28.872C212.199 28.6587 212.529 28.552 212.956 28.552C213.575 28.552 213.991 28.6907 214.204 28.968C214.417 29.2453 214.524 29.6933 214.524 30.312V33.16L214.492 39.528V42.376C214.492 42.6107 214.481 42.8773 214.46 43.176C214.46 43.4747 214.417 43.7627 214.332 44.04C214.268 44.296 214.14 44.52 213.948 44.712C213.777 44.8827 213.532 44.968 213.212 44.968ZM221.913 24.04C222.148 24.04 222.276 24.1467 222.297 24.36C222.34 24.552 222.361 24.7333 222.361 24.904V25.288L222.297 26.088V26.472C222.297 26.856 222.297 27.1867 222.297 27.464C222.297 27.7413 222.329 27.9653 222.393 28.136C222.457 28.3067 222.564 28.4347 222.713 28.52C222.884 28.584 223.129 28.616 223.449 28.616C223.748 28.616 224.036 28.6053 224.313 28.584C224.612 28.5413 224.879 28.552 225.113 28.616C225.348 28.6587 225.54 28.7653 225.689 28.936C225.839 29.1067 225.913 29.3947 225.913 29.8C225.913 30.3547 225.807 30.7387 225.593 30.952C225.38 31.1653 224.985 31.272 224.409 31.272H222.873C222.575 31.272 222.404 31.624 222.361 32.328C222.319 33.032 222.297 33.9707 222.297 35.144V35.976L222.265 37.608V38.44C222.265 38.7173 222.265 39.08 222.265 39.528C222.287 39.9547 222.34 40.3813 222.425 40.808C222.532 41.2133 222.692 41.5653 222.905 41.864C223.14 42.1413 223.471 42.28 223.897 42.28C224.196 42.28 224.463 42.2267 224.697 42.12C224.932 41.992 225.145 41.864 225.337 41.736C225.529 41.608 225.711 41.4907 225.881 41.384C226.073 41.256 226.255 41.192 226.425 41.192C226.66 41.192 226.788 41.3093 226.809 41.544C226.852 41.7573 226.873 41.9493 226.873 42.12C226.873 42.5893 226.745 43.0267 226.489 43.432C226.255 43.8373 225.945 44.1893 225.561 44.488C225.177 44.7653 224.751 44.9787 224.281 45.128C223.833 45.2987 223.385 45.384 222.937 45.384C222.169 45.384 221.54 45.16 221.049 44.712C220.559 44.264 220.175 43.688 219.897 42.984C219.641 42.2587 219.46 41.448 219.353 40.552C219.247 39.656 219.183 38.76 219.161 37.864C219.14 36.968 219.14 36.1147 219.161 35.304C219.204 34.4933 219.225 33.8107 219.225 33.256C219.225 32.5307 219.204 32.04 219.161 31.784C219.14 31.528 218.98 31.4 218.681 31.4C218.575 31.4 218.457 31.3893 218.329 31.368C218.223 31.3467 218.116 31.2827 218.009 31.176C217.924 31.0693 217.849 30.92 217.785 30.728C217.721 30.5147 217.689 30.2267 217.689 29.864C217.689 29.5227 217.721 29.2667 217.785 29.096C217.849 28.904 217.935 28.776 218.041 28.712C218.169 28.6267 218.297 28.584 218.425 28.584C218.553 28.5627 218.681 28.552 218.809 28.552C219.151 28.552 219.343 28.4773 219.385 28.328C219.449 28.1573 219.481 27.8053 219.481 27.272C219.481 27.1867 219.481 27.0693 219.481 26.92C219.481 26.7707 219.471 26.6213 219.449 26.472C219.449 26.3013 219.449 26.1413 219.449 25.992C219.449 25.8213 219.449 25.6933 219.449 25.608C219.449 25.352 219.524 25.128 219.673 24.936C219.844 24.7227 220.047 24.552 220.281 24.424C220.537 24.296 220.804 24.2 221.081 24.136C221.38 24.072 221.657 24.04 221.913 24.04ZM234.096 45.224C233.456 45.224 232.902 45.0747 232.432 44.776C231.984 44.4773 231.6 44.0827 231.28 43.592C230.96 43.1013 230.704 42.5467 230.512 41.928C230.342 41.3093 230.203 40.68 230.096 40.04C230.011 39.4 229.947 38.7813 229.904 38.184C229.883 37.5867 229.872 37.064 229.872 36.616V35.304L229.808 32.296V30.984C229.808 30.7067 229.808 30.4293 229.808 30.152C229.808 29.8533 229.851 29.5867 229.936 29.352C230.022 29.1173 230.16 28.9253 230.352 28.776C230.566 28.6267 230.875 28.552 231.28 28.552C231.75 28.552 232.091 28.648 232.304 28.84C232.539 29.032 232.699 29.2773 232.784 29.576C232.891 29.8747 232.944 30.2053 232.944 30.568C232.944 30.9093 232.944 31.24 232.944 31.56C232.944 31.816 232.944 32.1253 232.944 32.488C232.966 32.8507 232.976 33.224 232.976 33.608C232.998 33.9707 233.008 34.3333 233.008 34.696C233.008 35.0587 233.008 35.368 233.008 35.624C233.008 35.9013 232.987 36.2747 232.944 36.744C232.923 37.2133 232.912 37.7253 232.912 38.28C232.912 38.7067 232.934 39.1333 232.976 39.56C233.019 39.9653 233.094 40.3387 233.2 40.68C233.328 41 233.499 41.2667 233.712 41.48C233.947 41.672 234.235 41.768 234.576 41.768C235.174 41.768 235.654 41.5547 236.016 41.128C236.4 40.68 236.699 40.1573 236.912 39.56C237.126 38.9413 237.264 38.312 237.328 37.672C237.414 37.032 237.456 36.4987 237.456 36.072C237.456 35.6027 237.446 35.1013 237.424 34.568C237.424 34.0133 237.414 33.48 237.392 32.968C237.392 32.4347 237.382 31.9547 237.36 31.528C237.36 31.08 237.36 30.7173 237.36 30.44C237.36 30.2267 237.382 30.0133 237.424 29.8C237.467 29.5653 237.531 29.3627 237.616 29.192C237.723 29 237.862 28.8507 238.032 28.744C238.224 28.616 238.459 28.552 238.736 28.552C239.227 28.552 239.6 28.6267 239.856 28.776C240.112 28.904 240.294 29.0853 240.4 29.32C240.507 29.5333 240.56 29.7893 240.56 30.088C240.56 30.3653 240.56 30.664 240.56 30.984C240.56 31.624 240.571 32.4453 240.592 33.448C240.614 34.4293 240.635 35.4427 240.656 36.488C240.678 37.5333 240.699 38.536 240.72 39.496C240.742 40.456 240.752 41.2347 240.752 41.832C240.752 42.3867 240.742 43.08 240.72 43.912C240.72 44.744 240.678 45.6187 240.592 46.536C240.528 47.4533 240.39 48.36 240.176 49.256C239.984 50.1733 239.696 50.9947 239.312 51.72C238.95 52.4667 238.47 53.064 237.872 53.512C237.296 53.9813 236.571 54.216 235.696 54.216C234.992 54.216 234.363 54.0667 233.808 53.768C233.254 53.4693 232.784 53.0747 232.4 52.584C232.016 52.0933 231.718 51.528 231.504 50.888C231.312 50.2693 231.216 49.6293 231.216 48.968C231.216 48.776 231.227 48.5627 231.248 48.328C231.27 48.1147 231.312 47.912 231.376 47.72C231.462 47.5493 231.579 47.4 231.728 47.272C231.878 47.144 232.08 47.08 232.336 47.08C232.635 47.08 232.944 47.144 233.264 47.272C233.584 47.4 233.744 47.6773 233.744 48.104C233.744 48.36 233.755 48.6693 233.776 49.032C233.819 49.416 233.904 49.7787 234.032 50.12C234.16 50.4827 234.342 50.7813 234.576 51.016C234.832 51.272 235.184 51.4 235.632 51.4C236.144 51.4 236.539 51.0907 236.816 50.472C237.115 49.8747 237.328 49.1707 237.456 48.36C237.606 47.5493 237.691 46.7493 237.712 45.96C237.755 45.1707 237.776 44.5947 237.776 44.232C237.776 44.0827 237.755 43.9013 237.712 43.688C237.691 43.4747 237.574 43.368 237.36 43.368C237.19 43.368 237.03 43.464 236.88 43.656C236.731 43.848 236.539 44.0613 236.304 44.296C236.091 44.5307 235.803 44.744 235.44 44.936C235.099 45.128 234.651 45.224 234.096 45.224Z" fill="white"/>
<path d="M27.5617 8.26071C29.4766 10.5195 27.8067 15.0824 24.9432 17.5099C22.0797 19.9375 17.305 20.838 15.3901 18.5792C13.4752 16.3204 14.6476 12.1794 18.0086 9.33001C21.3697 6.48063 25.6468 6.00189 27.5617 8.26071Z" fill="#FF6779"/>
<defs>
<filter id="filter0_d_89_14589" x="0.922852" y="0" width="318" height="86" filterUnits="userSpaceOnUse" color-interpolation-filters="sRGB">
<feFlood flood-opacity="0" result="BackgroundImageFix"/>
<feColorMatrix in="SourceAlpha" type="matrix" values="0 0 0 0 0 0 0 0 0 0 0 0 0 0 0 0 0 0 127 0" result="hardAlpha"/>
<feOffset dy="4"/>
<feComposite in2="hardAlpha" operator="out"/>
<feColorMatrix type="matrix" values="0 0 0 0 0.866667 0 0 0 0 0.137255 0 0 0 0 0.231373 0 0 0 1 0"/>
<feBlend mode="normal" in2="BackgroundImageFix" result="effect1_dropShadow_89_14589"/>
<feBlend mode="normal" in="SourceGraphic" in2="effect1_dropShadow_89_14589" result="shape"/>
</filter>
<filter id="filter1_d_89_14589" x="4.92285" y="4" width="310" height="72" filterUnits="userSpaceOnUse" color-interpolation-filters="sRGB">
<feFlood flood-opacity="0" result="BackgroundImageFix"/>
<feColorMatrix in="SourceAlpha" type="matrix" values="0 0 0 0 0 0 0 0 0 0 0 0 0 0 0 0 0 0 127 0" result="hardAlpha"/>
<feOffset dy="4"/>
<feComposite in2="hardAlpha" operator="out"/>
<feColorMatrix type="matrix" values="0 0 0 0 0.807843 0 0 0 0 0.0784314 0 0 0 0 0.164706 0 0 0 1 0"/>
<feBlend mode="normal" in2="BackgroundImageFix" result="effect1_dropShadow_89_14589"/>
<feBlend mode="normal" in="SourceGraphic" in2="effect1_dropShadow_89_14589" result="shape"/>
</filter>
</defs>
</svg>
