<svg width="246" height="99" viewBox="0 0 246 99" fill="none" xmlns="http://www.w3.org/2000/svg">
<g filter="url(#filter0_d_154_22338)">
<rect x="21" width="225" height="96" rx="14.1313" fill="white"/>
</g>
<path d="M37.3739 79.848L0.294922 82.0617C7.67382 79.1101 22.7637 71.5468 21.8782 64.9058L23.5385 72.6536L37.3739 79.848Z" fill="white"/>
<g filter="url(#filter1_d_154_22338)">
<rect x="27" y="9" width="212" height="80" rx="14.1313" fill="#F6F6F6"/>
</g>
<path d="M49.3247 26.8895C49.3247 26.7663 49.3308 26.5939 49.3432 26.3722C49.3555 26.1382 49.3739 25.8857 49.3986 25.6147C49.4355 25.3314 49.4786 25.042 49.5279 24.7464C49.5895 24.4508 49.6634 24.186 49.7496 23.952C49.8358 23.7056 49.9344 23.5086 50.0452 23.3608C50.1684 23.2006 50.31 23.1206 50.4701 23.1206C51.0736 23.1206 51.3754 23.4039 51.3754 23.9704C51.3754 24.4015 51.3385 24.888 51.2646 25.43C51.203 25.9596 51.1722 26.4399 51.1722 26.871C51.1722 27.0681 51.1845 27.2713 51.2091 27.4807C51.2461 27.6901 51.3015 27.881 51.3754 28.0534C51.4616 28.2135 51.5786 28.349 51.7264 28.4599C51.8865 28.5584 52.0898 28.6077 52.3361 28.6077C52.6317 28.6077 52.8719 28.4845 53.0566 28.2382C53.2537 27.9795 53.4077 27.6777 53.5185 27.3329C53.6294 26.9757 53.7033 26.6185 53.7402 26.2613C53.7895 25.9041 53.8141 25.6147 53.8141 25.393C53.8141 24.9866 53.8141 24.6417 53.8141 24.3584C53.8141 24.0751 53.8387 23.8411 53.888 23.6564C53.9496 23.4716 54.0543 23.3361 54.2021 23.2499C54.3499 23.1637 54.5716 23.1206 54.8672 23.1206C55.1012 23.1206 55.2798 23.2622 55.4029 23.5455C55.5261 23.8288 55.6123 24.1613 55.6616 24.5432C55.7232 24.9127 55.7601 25.2883 55.7724 25.6701C55.7848 26.0519 55.7971 26.3414 55.8094 26.5385C55.834 27.339 55.8525 28.1335 55.8648 28.9217C55.8895 29.6977 55.9018 30.4859 55.9018 31.2865C55.9018 31.8161 55.834 32.315 55.6985 32.783C55.5754 33.251 55.3722 33.6636 55.0889 34.0208C54.8179 34.3657 54.4669 34.6428 54.0358 34.8522C53.617 35.0493 53.1121 35.1478 52.5209 35.1478C52.2253 35.1478 51.905 35.0924 51.5602 34.9815C51.2153 34.8584 50.8951 34.6982 50.5995 34.5012C50.3039 34.2918 50.0575 34.0455 49.8605 33.7622C49.6634 33.4666 49.5649 33.1463 49.5649 32.8015C49.5649 32.5551 49.6264 32.3396 49.7496 32.1549C49.8728 31.9578 50.0575 31.8593 50.3039 31.8593C50.4763 31.8593 50.6364 31.9578 50.7842 32.1549C50.932 32.3396 51.086 32.5428 51.2461 32.7645C51.4185 32.9862 51.6094 33.1956 51.8188 33.3927C52.0282 33.5774 52.2807 33.6698 52.5763 33.6698C52.9211 33.6698 53.1983 33.5528 53.4077 33.3188C53.617 33.0724 53.7772 32.783 53.888 32.4505C54.0112 32.1179 54.0912 31.773 54.1282 31.4159C54.1774 31.0464 54.2021 30.7384 54.2021 30.4921C54.2021 30.4305 54.2021 30.3197 54.2021 30.1596C54.2021 29.9871 54.1959 29.8085 54.1836 29.6238C54.1713 29.439 54.1528 29.2789 54.1282 29.1434C54.1035 28.9956 54.0604 28.9217 53.9989 28.9217C53.9126 28.9217 53.8264 28.9956 53.7402 29.1434C53.6663 29.2789 53.5493 29.439 53.3892 29.6238C53.2414 29.7962 53.032 29.9563 52.761 30.1041C52.5024 30.2396 52.1452 30.3074 51.6895 30.3074C51.2461 30.3074 50.8704 30.1965 50.5625 29.9748C50.2669 29.7531 50.0267 29.476 49.842 29.1434C49.6572 28.8109 49.5217 28.4475 49.4355 28.0534C49.3616 27.647 49.3247 27.259 49.3247 26.8895ZM56.6643 30.3443C56.6643 29.6053 56.7444 28.934 56.9045 28.3305C57.0769 27.727 57.3109 27.2097 57.6065 26.7786C57.9144 26.3475 58.2778 26.015 58.6965 25.781C59.1153 25.547 59.5833 25.43 60.1006 25.43C60.6179 25.43 61.086 25.547 61.5047 25.781C61.9358 26.015 62.3053 26.3475 62.6132 26.7786C62.9335 27.1974 63.1798 27.7024 63.3522 28.2936C63.5247 28.8848 63.6109 29.5314 63.6109 30.2335C63.6109 30.9478 63.5185 31.6068 63.3338 32.2103C63.1613 32.8138 62.915 33.3373 62.5948 33.7807C62.2745 34.2117 61.8927 34.5504 61.4493 34.7968C61.0059 35.0431 60.5256 35.1663 60.0083 35.1663C59.5156 35.1663 59.0599 35.0493 58.6411 34.8153C58.2347 34.5812 57.8836 34.2548 57.588 33.8361C57.2924 33.4173 57.0646 32.9123 56.9045 32.3211C56.7444 31.7176 56.6643 31.0587 56.6643 30.3443ZM58.5487 30.2335C58.5487 31.1942 58.6781 31.9578 58.9367 32.5244C59.2077 33.0909 59.5649 33.3742 60.0083 33.3742C60.2546 33.3742 60.4763 33.2941 60.6734 33.134C60.8828 32.9616 61.0675 32.7337 61.2276 32.4505C61.3877 32.1549 61.5109 31.81 61.5971 31.4159C61.6833 31.0217 61.7264 30.603 61.7264 30.1596C61.7264 29.7162 61.6833 29.3097 61.5971 28.9402C61.5109 28.5584 61.3877 28.232 61.2276 27.961C61.0798 27.6777 60.9012 27.456 60.6918 27.2959C60.4948 27.1358 60.2792 27.0558 60.0452 27.0558C59.5895 27.0558 59.2262 27.3452 58.9552 27.9241C58.6842 28.4906 58.5487 29.2604 58.5487 30.2335ZM68.9535 27.0003C68.9535 26.8279 68.9535 26.6493 68.9535 26.4646C68.9535 26.2798 68.9781 26.1074 69.0274 25.9473C69.0767 25.7871 69.1629 25.6578 69.286 25.5593C69.4092 25.4484 69.6001 25.393 69.8588 25.393C70.1174 25.393 70.3083 25.4669 70.4315 25.6147C70.5546 25.7625 70.6409 25.9411 70.6901 26.1505C70.7394 26.3599 70.7579 26.5816 70.7456 26.8156C70.7456 27.0373 70.7456 27.2343 70.7456 27.4068C70.7579 27.8379 70.764 28.3244 70.764 28.8663C70.764 29.3959 70.764 29.9379 70.764 30.4921C70.764 31.034 70.7579 31.576 70.7456 32.1179C70.7456 32.6475 70.7456 33.1279 70.7456 33.559C70.7456 33.7191 70.7456 33.8853 70.7456 34.0578C70.7456 34.2302 70.7209 34.3903 70.6717 34.5381C70.6224 34.6736 70.5423 34.7906 70.4315 34.8892C70.3206 34.9754 70.1605 35.0185 69.9511 35.0185C69.6802 35.0185 69.4831 34.9692 69.3599 34.8707C69.2491 34.7598 69.1752 34.6428 69.1382 34.5197C69.1013 34.3965 69.0767 34.2856 69.0643 34.1871C69.0643 34.0763 69.0274 34.0208 68.9535 34.0208C68.9042 34.0208 68.8242 34.0824 68.7133 34.2056C68.6025 34.3164 68.4608 34.4396 68.2884 34.5751C68.116 34.7106 67.9066 34.8399 67.6602 34.9631C67.4262 35.0739 67.1429 35.1293 66.8104 35.1293C66.2438 35.1293 65.7943 34.9754 65.4617 34.6675C65.1292 34.3595 64.8828 33.9777 64.7227 33.522C64.5626 33.0663 64.4579 32.5859 64.4086 32.081C64.3717 31.576 64.3532 31.1203 64.3532 30.7138V29.827L64.3347 27.5731V26.6863C64.3347 26.5261 64.3347 26.3783 64.3347 26.2429C64.3347 26.0951 64.3532 25.9657 64.3902 25.8549C64.4394 25.744 64.5195 25.6578 64.6303 25.5962C64.7535 25.5346 64.9321 25.5039 65.1661 25.5039C65.4371 25.5039 65.6403 25.547 65.7758 25.6332C65.9113 25.7071 66.0036 25.8118 66.0529 25.9473C66.1145 26.0827 66.1453 26.2367 66.1453 26.4091C66.1576 26.5816 66.1638 26.7602 66.1638 26.9449C66.1638 27.0927 66.1638 27.2898 66.1638 27.5361C66.1638 27.7701 66.1638 28.0226 66.1638 28.2936C66.1638 28.5522 66.1638 28.8047 66.1638 29.0511C66.1638 29.2851 66.1638 29.476 66.1638 29.6238C66.1638 29.8332 66.1576 30.1349 66.1453 30.5291C66.1453 30.9109 66.1699 31.2988 66.2192 31.693C66.2808 32.0748 66.3855 32.4135 66.5333 32.7091C66.6811 32.9924 66.9089 33.134 67.2168 33.134C67.5863 33.134 67.8758 32.9862 68.0852 32.6906C68.3069 32.3827 68.4731 32.0255 68.584 31.6191C68.6948 31.2126 68.7626 30.8 68.7872 30.3813C68.8242 29.9502 68.8488 29.6115 68.8611 29.3651L68.9535 27.0003ZM75.6886 26.3907C75.6886 26.4892 75.6763 26.6185 75.6517 26.7786C75.6394 26.9387 75.5655 27.0188 75.43 27.0188L75.2637 27.0003C74.9188 27.0003 74.6294 27.0804 74.3954 27.2405C74.1614 27.3883 73.9705 27.5854 73.8227 27.8317C73.6749 28.078 73.5702 28.3552 73.5086 28.6631C73.447 28.9587 73.4162 29.2543 73.4162 29.5499V30.4182L73.3608 32.4505V33.3373C73.3608 33.4851 73.3608 33.6575 73.3608 33.8546C73.3731 34.0516 73.3608 34.2425 73.3238 34.4273C73.2869 34.5997 73.213 34.7537 73.1021 34.8892C72.9913 35.0123 72.825 35.0739 72.6033 35.0739C72.2338 35.0739 71.9628 34.9815 71.7904 34.7968C71.618 34.612 71.5318 34.3595 71.5318 34.0393V32.2657L71.5502 28.6077V26.8341C71.5502 26.6986 71.5564 26.5508 71.5687 26.3907C71.581 26.2305 71.6118 26.0827 71.6611 25.9473C71.7103 25.8118 71.7842 25.7009 71.8828 25.6147C71.9936 25.5285 72.1414 25.4854 72.3262 25.4854C72.4986 25.4854 72.6464 25.5162 72.7696 25.5778C72.8927 25.6393 72.9666 25.7625 72.9913 25.9473C73.0159 26.1197 73.0405 26.2429 73.0652 26.3168C73.0898 26.3783 73.1206 26.4091 73.1576 26.4091C73.1945 26.4091 73.2561 26.3537 73.3423 26.2429C73.4285 26.132 73.5394 26.0088 73.6749 25.8734C73.8227 25.7379 73.9889 25.6147 74.1737 25.5039C74.3707 25.393 74.5986 25.3376 74.8573 25.3376C75.1529 25.3376 75.3622 25.4484 75.4854 25.6701C75.6209 25.8918 75.6886 26.132 75.6886 26.3907ZM84.3022 25.2452C84.647 25.2452 84.9673 25.2945 85.2629 25.393C85.5708 25.4792 85.8356 25.6024 86.0573 25.7625C86.2913 25.9226 86.4699 26.1074 86.5931 26.3168C86.7285 26.5261 86.7963 26.7478 86.7963 26.9819C86.7963 27.142 86.7285 27.3021 86.5931 27.4622C86.4576 27.61 86.3036 27.6839 86.1312 27.6839C86.0326 27.6839 85.9403 27.647 85.8541 27.5731C85.7802 27.4868 85.6878 27.4006 85.5769 27.3144C85.4661 27.2159 85.3306 27.1297 85.1705 27.0558C85.0104 26.9819 84.7887 26.9449 84.5054 26.9449C84.0497 26.9449 83.7417 27.0434 83.5816 27.2405C83.4338 27.4376 83.3599 27.6223 83.3599 27.7948C83.3599 28.0288 83.4523 28.232 83.6371 28.4044C83.8341 28.5645 84.0743 28.7247 84.3576 28.8848C84.6409 29.0449 84.9488 29.2173 85.2813 29.4021C85.6139 29.5745 85.9218 29.7901 86.2051 30.0487C86.4884 30.295 86.7224 30.5968 86.9071 30.954C87.1042 31.2988 87.2027 31.7299 87.2027 32.2472C87.2027 32.6414 87.135 33.0232 86.9995 33.3927C86.8763 33.7622 86.6854 34.0947 86.4268 34.3903C86.1681 34.6736 85.8479 34.9015 85.4661 35.0739C85.0843 35.2463 84.6409 35.3325 84.1359 35.3325C83.7541 35.3325 83.3846 35.2648 83.0274 35.1293C82.6702 34.9938 82.3561 34.8214 82.0852 34.612C81.8142 34.4026 81.5986 34.1686 81.4385 33.91C81.2784 33.639 81.1984 33.3742 81.1984 33.1156C81.1984 32.9308 81.2661 32.7399 81.4016 32.5428C81.5494 32.3458 81.728 32.2472 81.9374 32.2472C82.0482 32.2472 82.1714 32.315 82.3069 32.4505C82.4423 32.5736 82.5963 32.7153 82.7687 32.8754C82.9535 33.0355 83.1567 33.1833 83.3784 33.3188C83.6124 33.4419 83.8711 33.5035 84.1544 33.5035C84.4992 33.5035 84.7825 33.3927 85.0042 33.171C85.2382 32.937 85.3552 32.6722 85.3552 32.3766C85.3552 32.0933 85.2567 31.8654 85.0596 31.693C84.8626 31.5082 84.6162 31.342 84.3206 31.1942C84.025 31.034 83.7048 30.8739 83.3599 30.7138C83.0151 30.5537 82.6948 30.3628 82.3992 30.1411C82.1036 29.9194 81.8573 29.6484 81.6602 29.3282C81.4632 28.9956 81.3646 28.5892 81.3646 28.1088C81.3646 27.7147 81.4324 27.3452 81.5679 27.0003C81.7157 26.6431 81.9127 26.3352 82.1591 26.0766C82.4177 25.8179 82.7256 25.6147 83.0828 25.4669C83.4523 25.3191 83.8588 25.2452 84.3022 25.2452ZM89.9324 22.8989C90.0679 22.8989 90.1418 22.9605 90.1541 23.0836C90.1787 23.1945 90.1911 23.2992 90.1911 23.3977V23.6194L90.1541 24.0813V24.303C90.1541 24.5247 90.1541 24.7156 90.1541 24.8757C90.1541 25.0358 90.1726 25.1651 90.2095 25.2637C90.2465 25.3622 90.3081 25.4361 90.3943 25.4854C90.4928 25.5223 90.6345 25.5408 90.8192 25.5408C90.9916 25.5408 91.1579 25.5346 91.318 25.5223C91.4905 25.4977 91.6444 25.5039 91.7799 25.5408C91.9154 25.5654 92.0262 25.627 92.1125 25.7256C92.1987 25.8241 92.2418 25.9904 92.2418 26.2244C92.2418 26.5446 92.1802 26.7663 92.057 26.8895C91.9339 27.0126 91.706 27.0742 91.3735 27.0742H90.4867C90.3142 27.0742 90.2157 27.2775 90.1911 27.6839C90.1664 28.0904 90.1541 28.6323 90.1541 29.3097V29.7901L90.1356 30.7323V31.2126C90.1356 31.3727 90.1356 31.5821 90.1356 31.8408C90.1479 32.0871 90.1787 32.3334 90.228 32.5798C90.2896 32.8138 90.382 33.017 90.5051 33.1895C90.6406 33.3496 90.8315 33.4296 91.0779 33.4296C91.2503 33.4296 91.4042 33.3988 91.5397 33.3373C91.6752 33.2634 91.7984 33.1895 91.9092 33.1156C92.0201 33.0417 92.1248 32.9739 92.2233 32.9123C92.3342 32.8384 92.4388 32.8015 92.5374 32.8015C92.6729 32.8015 92.7468 32.8692 92.7591 33.0047C92.7837 33.1279 92.796 33.2387 92.796 33.3373C92.796 33.6082 92.7221 33.8607 92.5743 34.0947C92.4388 34.3287 92.2603 34.532 92.0386 34.7044C91.8169 34.8645 91.5705 34.9877 91.2996 35.0739C91.0409 35.1724 90.7823 35.2217 90.5236 35.2217C90.0802 35.2217 89.7169 35.0924 89.4336 34.8337C89.1503 34.5751 88.9286 34.2425 88.7685 33.8361C88.6207 33.4173 88.516 32.9493 88.4544 32.432C88.3928 31.9147 88.3559 31.3974 88.3436 30.8801C88.3312 30.3628 88.3312 29.8701 88.3436 29.4021C88.3682 28.934 88.3805 28.5399 88.3805 28.2197C88.3805 27.8009 88.3682 27.5176 88.3436 27.3698C88.3312 27.222 88.2389 27.1481 88.0664 27.1481C88.0048 27.1481 87.9371 27.142 87.8632 27.1297C87.8016 27.1173 87.74 27.0804 87.6785 27.0188C87.6292 26.9572 87.5861 26.871 87.5491 26.7602C87.5122 26.637 87.4937 26.4707 87.4937 26.2613C87.4937 26.0643 87.5122 25.9165 87.5491 25.8179C87.5861 25.7071 87.6353 25.6332 87.6969 25.5962C87.7708 25.547 87.8447 25.5223 87.9186 25.5223C87.9925 25.51 88.0664 25.5039 88.1403 25.5039C88.3374 25.5039 88.4482 25.4607 88.4729 25.3745C88.5098 25.276 88.5283 25.0728 88.5283 24.7649C88.5283 24.7156 88.5283 24.6478 88.5283 24.5616C88.5283 24.4754 88.5221 24.3892 88.5098 24.303C88.5098 24.2044 88.5098 24.1121 88.5098 24.0259C88.5098 23.9273 88.5098 23.8534 88.5098 23.8042C88.5098 23.6564 88.5529 23.527 88.6392 23.4162C88.7377 23.293 88.8547 23.1945 88.9902 23.1206C89.138 23.0467 89.2919 22.9913 89.4521 22.9543C89.6245 22.9174 89.7846 22.8989 89.9324 22.8989ZM92.8745 30.3443C92.8745 29.6053 92.9546 28.934 93.1147 28.3305C93.2872 27.727 93.5212 27.2097 93.8168 26.7786C94.1247 26.3475 94.488 26.015 94.9068 25.781C95.3256 25.547 95.7936 25.43 96.3109 25.43C96.8282 25.43 97.2962 25.547 97.715 25.781C98.1461 26.015 98.5156 26.3475 98.8235 26.7786C99.1437 27.1974 99.3901 27.7024 99.5625 28.2936C99.7349 28.8848 99.8211 29.5314 99.8211 30.2335C99.8211 30.9478 99.7288 31.6068 99.544 32.2103C99.3716 32.8138 99.1253 33.3373 98.805 33.7807C98.4848 34.2117 98.103 34.5504 97.6596 34.7968C97.2162 35.0431 96.7358 35.1663 96.2185 35.1663C95.7259 35.1663 95.2701 35.0493 94.8514 34.8153C94.4449 34.5812 94.0939 34.2548 93.7983 33.8361C93.5027 33.4173 93.2748 32.9123 93.1147 32.3211C92.9546 31.7176 92.8745 31.0587 92.8745 30.3443ZM94.759 30.2335C94.759 31.1942 94.8883 31.9578 95.147 32.5244C95.4179 33.0909 95.7751 33.3742 96.2185 33.3742C96.4649 33.3742 96.6866 33.2941 96.8836 33.134C97.093 32.9616 97.2778 32.7337 97.4379 32.4505C97.598 32.1549 97.7212 31.81 97.8074 31.4159C97.8936 31.0217 97.9367 30.603 97.9367 30.1596C97.9367 29.7162 97.8936 29.3097 97.8074 28.9402C97.7212 28.5584 97.598 28.232 97.4379 27.961C97.2901 27.6777 97.1115 27.456 96.9021 27.2959C96.705 27.1358 96.4895 27.0558 96.2555 27.0558C95.7998 27.0558 95.4364 27.3452 95.1654 27.9241C94.8945 28.4906 94.759 29.2604 94.759 30.2335ZM104.628 26.3907C104.628 26.4892 104.616 26.6185 104.591 26.7786C104.579 26.9387 104.505 27.0188 104.369 27.0188L104.203 27.0003C103.858 27.0003 103.569 27.0804 103.335 27.2405C103.101 27.3883 102.91 27.5854 102.762 27.8317C102.614 28.078 102.509 28.3552 102.448 28.6631C102.386 28.9587 102.356 29.2543 102.356 29.5499V30.4182L102.3 32.4505V33.3373C102.3 33.4851 102.3 33.6575 102.3 33.8546C102.312 34.0516 102.3 34.2425 102.263 34.4273C102.226 34.5997 102.152 34.7537 102.041 34.8892C101.931 35.0123 101.764 35.0739 101.543 35.0739C101.173 35.0739 100.902 34.9815 100.73 34.7968C100.557 34.612 100.471 34.3595 100.471 34.0393V32.2657L100.49 28.6077V26.8341C100.49 26.6986 100.496 26.5508 100.508 26.3907C100.52 26.2305 100.551 26.0827 100.6 25.9473C100.65 25.8118 100.724 25.7009 100.822 25.6147C100.933 25.5285 101.081 25.4854 101.266 25.4854C101.438 25.4854 101.586 25.5162 101.709 25.5778C101.832 25.6393 101.906 25.7625 101.931 25.9473C101.955 26.1197 101.98 26.2429 102.005 26.3168C102.029 26.3783 102.06 26.4091 102.097 26.4091C102.134 26.4091 102.195 26.3537 102.282 26.2429C102.368 26.132 102.479 26.0088 102.614 25.8734C102.762 25.7379 102.928 25.6147 103.113 25.5039C103.31 25.393 103.538 25.3376 103.797 25.3376C104.092 25.3376 104.302 25.4484 104.425 25.6701C104.56 25.8918 104.628 26.132 104.628 26.3907ZM107.657 35.1293C107.287 35.1293 106.967 35.0431 106.696 34.8707C106.438 34.6982 106.216 34.4704 106.031 34.1871C105.846 33.9038 105.699 33.5836 105.588 33.2264C105.489 32.8692 105.409 32.5059 105.348 32.1364C105.298 31.7669 105.261 31.4097 105.237 31.0648C105.224 30.72 105.218 30.4182 105.218 30.1596V29.4021L105.181 27.6654V26.908C105.181 26.7478 105.181 26.5877 105.181 26.4276C105.181 26.2552 105.206 26.1012 105.255 25.9657C105.305 25.8302 105.385 25.7194 105.495 25.6332C105.619 25.547 105.797 25.5039 106.031 25.5039C106.302 25.5039 106.499 25.5593 106.622 25.6701C106.758 25.781 106.85 25.9226 106.9 26.0951C106.961 26.2675 106.992 26.4584 106.992 26.6678C106.992 26.8648 106.992 27.0558 106.992 27.2405C106.992 27.3883 106.992 27.5669 106.992 27.7763C107.004 27.9857 107.01 28.2012 107.01 28.4229C107.023 28.6323 107.029 28.8417 107.029 29.0511C107.029 29.2604 107.029 29.439 107.029 29.5868C107.029 29.7469 107.017 29.9625 106.992 30.2335C106.98 30.5044 106.973 30.8 106.973 31.1203C106.973 31.3666 106.986 31.6129 107.01 31.8593C107.035 32.0933 107.078 32.3088 107.14 32.5059C107.214 32.6906 107.312 32.8446 107.435 32.9678C107.571 33.0786 107.737 33.134 107.934 33.134C108.279 33.134 108.556 33.0109 108.765 32.7645C108.987 32.5059 109.16 32.2041 109.283 31.8593C109.406 31.5021 109.486 31.1387 109.523 30.7692C109.572 30.3997 109.597 30.0918 109.597 29.8455C109.597 29.5745 109.591 29.2851 109.578 28.9772C109.578 28.6569 109.572 28.349 109.56 28.0534C109.56 27.7455 109.554 27.4684 109.541 27.222C109.541 26.9634 109.541 26.754 109.541 26.5939C109.541 26.4707 109.554 26.3475 109.578 26.2244C109.603 26.0889 109.64 25.9719 109.689 25.8734C109.751 25.7625 109.831 25.6763 109.929 25.6147C110.04 25.5408 110.176 25.5039 110.336 25.5039C110.619 25.5039 110.835 25.547 110.982 25.6332C111.13 25.7071 111.235 25.8118 111.297 25.9473C111.358 26.0704 111.389 26.2182 111.389 26.3907C111.389 26.5508 111.389 26.7232 111.389 26.908C111.389 27.2775 111.395 27.7516 111.407 28.3305C111.42 28.8971 111.432 29.4821 111.444 30.0857C111.457 30.6892 111.469 31.2681 111.481 31.8223C111.494 32.3766 111.5 32.8261 111.5 33.171C111.5 33.4912 111.494 33.8915 111.481 34.3719C111.481 34.8522 111.457 35.3572 111.407 35.8868C111.37 36.4164 111.29 36.9399 111.167 37.4572C111.056 37.9868 110.89 38.461 110.668 38.8797C110.459 39.3108 110.182 39.6557 109.837 39.9143C109.504 40.1853 109.086 40.3208 108.581 40.3208C108.174 40.3208 107.811 40.2346 107.491 40.0621C107.17 39.8897 106.9 39.6619 106.678 39.3786C106.456 39.0953 106.284 38.7689 106.161 38.3994C106.05 38.0422 105.994 37.6727 105.994 37.2909C105.994 37.18 106 37.0569 106.013 36.9214C106.025 36.7982 106.05 36.6812 106.087 36.5704C106.136 36.4718 106.204 36.3856 106.29 36.3117C106.376 36.2378 106.493 36.2009 106.641 36.2009C106.813 36.2009 106.992 36.2378 107.177 36.3117C107.361 36.3856 107.454 36.5457 107.454 36.7921C107.454 36.9399 107.46 37.1185 107.472 37.3278C107.497 37.5495 107.546 37.7589 107.62 37.956C107.694 38.1654 107.799 38.3378 107.934 38.4733C108.082 38.6211 108.285 38.695 108.544 38.695C108.839 38.695 109.067 38.5164 109.227 38.1592C109.4 37.8144 109.523 37.4079 109.597 36.9399C109.683 36.4718 109.732 36.01 109.745 35.5542C109.769 35.0985 109.782 34.766 109.782 34.5566C109.782 34.4704 109.769 34.3657 109.745 34.2425C109.732 34.1194 109.665 34.0578 109.541 34.0578C109.443 34.0578 109.351 34.1132 109.264 34.2241C109.178 34.3349 109.067 34.4581 108.932 34.5936C108.809 34.729 108.642 34.8522 108.433 34.9631C108.236 35.0739 107.977 35.1293 107.657 35.1293ZM117.76 23.213C117.76 22.905 117.859 22.6279 118.056 22.3816C118.253 22.1353 118.518 22.0121 118.85 22.0121C119.17 22.0121 119.429 22.1353 119.626 22.3816C119.835 22.6279 119.94 22.905 119.94 23.213C119.94 23.5209 119.835 23.798 119.626 24.0443C119.429 24.2783 119.17 24.3954 118.85 24.3954C118.53 24.3954 118.265 24.2783 118.056 24.0443C117.859 23.798 117.76 23.5209 117.76 23.213ZM118.998 34.9815C118.727 34.9815 118.518 34.9138 118.37 34.7783C118.222 34.6305 118.111 34.4581 118.037 34.261C117.976 34.0516 117.939 33.8361 117.926 33.6144C117.914 33.3927 117.902 33.2018 117.889 33.0417C117.877 32.8815 117.865 32.5736 117.852 32.1179C117.852 31.6499 117.846 31.1326 117.834 30.566C117.834 29.9994 117.834 29.4267 117.834 28.8478C117.834 28.2689 117.834 27.7886 117.834 27.4068C117.834 27.2097 117.84 27.0003 117.852 26.7786C117.865 26.5569 117.902 26.3537 117.963 26.169C118.037 25.9719 118.142 25.8118 118.277 25.6886C118.413 25.5654 118.604 25.5039 118.85 25.5039C119.207 25.5039 119.447 25.5839 119.571 25.744C119.694 25.9041 119.755 26.1628 119.755 26.52V28.1643L119.737 31.8408V33.4851C119.737 33.6205 119.731 33.7745 119.718 33.9469C119.718 34.1194 119.694 34.2856 119.645 34.4458C119.608 34.5936 119.534 34.7229 119.423 34.8337C119.324 34.9323 119.183 34.9815 118.998 34.9815ZM123.634 25.2452C123.979 25.2452 124.299 25.2945 124.594 25.393C124.902 25.4792 125.167 25.6024 125.389 25.7625C125.623 25.9226 125.801 26.1074 125.925 26.3168C126.06 26.5261 126.128 26.7478 126.128 26.9819C126.128 27.142 126.06 27.3021 125.925 27.4622C125.789 27.61 125.635 27.6839 125.463 27.6839C125.364 27.6839 125.272 27.647 125.186 27.5731C125.112 27.4868 125.019 27.4006 124.908 27.3144C124.798 27.2159 124.662 27.1297 124.502 27.0558C124.342 26.9819 124.12 26.9449 123.837 26.9449C123.381 26.9449 123.073 27.0434 122.913 27.2405C122.765 27.4376 122.691 27.6223 122.691 27.7948C122.691 28.0288 122.784 28.232 122.969 28.4044C123.166 28.5645 123.406 28.7247 123.689 28.8848C123.972 29.0449 124.28 29.2173 124.613 29.4021C124.945 29.5745 125.253 29.7901 125.537 30.0487C125.82 30.295 126.054 30.5968 126.239 30.954C126.436 31.2988 126.534 31.7299 126.534 32.2472C126.534 32.6414 126.466 33.0232 126.331 33.3927C126.208 33.7622 126.017 34.0947 125.758 34.3903C125.5 34.6736 125.179 34.9015 124.798 35.0739C124.416 35.2463 123.972 35.3325 123.467 35.3325C123.086 35.3325 122.716 35.2648 122.359 35.1293C122.002 34.9938 121.688 34.8214 121.417 34.612C121.146 34.4026 120.93 34.1686 120.77 33.91C120.61 33.639 120.53 33.3742 120.53 33.1156C120.53 32.9308 120.598 32.7399 120.733 32.5428C120.881 32.3458 121.059 32.2472 121.269 32.2472C121.38 32.2472 121.503 32.315 121.638 32.4505C121.774 32.5736 121.928 32.7153 122.1 32.8754C122.285 33.0355 122.488 33.1833 122.71 33.3188C122.944 33.4419 123.203 33.5035 123.486 33.5035C123.831 33.5035 124.114 33.3927 124.336 33.171C124.57 32.937 124.687 32.6722 124.687 32.3766C124.687 32.0933 124.588 31.8654 124.391 31.693C124.194 31.5082 123.948 31.342 123.652 31.1942C123.357 31.034 123.036 30.8739 122.691 30.7138C122.347 30.5537 122.026 30.3628 121.731 30.1411C121.435 29.9194 121.189 29.6484 120.992 29.3282C120.795 28.9956 120.696 28.5892 120.696 28.1088C120.696 27.7147 120.764 27.3452 120.899 27.0003C121.047 26.6431 121.244 26.3352 121.491 26.0766C121.749 25.8179 122.057 25.6147 122.414 25.4669C122.784 25.3191 123.19 25.2452 123.634 25.2452ZM132.41 26.7602C132.422 26.132 132.422 25.51 132.41 24.8942C132.41 24.2783 132.422 23.6564 132.447 23.0282C132.459 22.8311 132.465 22.6464 132.465 22.474C132.465 22.2892 132.484 22.1291 132.521 21.9936C132.57 21.8581 132.656 21.7534 132.779 21.6795C132.915 21.5933 133.118 21.5502 133.389 21.5502C133.623 21.5502 133.801 21.5995 133.925 21.698C134.048 21.7842 134.134 21.8951 134.183 22.0306C134.245 22.166 134.276 22.32 134.276 22.4924C134.288 22.6649 134.294 22.8311 134.294 22.9913C134.294 23.0405 134.288 23.1329 134.276 23.2684C134.276 23.4039 134.276 23.564 134.276 23.7487C134.276 23.9212 134.27 24.1121 134.257 24.3215C134.257 24.5185 134.257 24.7156 134.257 24.9127C134.257 25.7502 134.319 26.169 134.442 26.169C134.504 26.169 134.584 26.132 134.682 26.0581C134.781 25.9719 134.898 25.8795 135.033 25.781C135.181 25.6824 135.353 25.5962 135.55 25.5223C135.76 25.4361 136 25.393 136.271 25.393C137.33 25.393 138.082 25.7995 138.525 26.6124C138.968 27.4253 139.19 28.6015 139.19 30.1411C139.19 30.917 139.128 31.6191 139.005 32.2472C138.882 32.8631 138.691 33.3927 138.433 33.8361C138.174 34.2672 137.841 34.5997 137.435 34.8337C137.041 35.0677 136.573 35.1847 136.031 35.1847C135.735 35.1847 135.483 35.1293 135.273 35.0185C135.064 34.9076 134.885 34.7845 134.738 34.649C134.59 34.5012 134.467 34.3719 134.368 34.261C134.282 34.1502 134.208 34.0947 134.146 34.0947C134.085 34.0947 134.036 34.1502 133.999 34.261C133.974 34.3719 133.931 34.5012 133.869 34.649C133.808 34.7845 133.721 34.9076 133.611 35.0185C133.5 35.1293 133.333 35.1847 133.112 35.1847C132.902 35.1847 132.742 35.1108 132.631 34.9631C132.533 34.8153 132.465 34.6305 132.428 34.4088C132.391 34.1871 132.373 33.9531 132.373 33.7068C132.373 33.4481 132.373 33.2141 132.373 33.0047V31.3974L132.41 26.7602ZM135.883 27.2775C135.563 27.2775 135.298 27.3821 135.089 27.5915C134.879 27.7886 134.713 28.0349 134.59 28.3305C134.467 28.6261 134.38 28.9402 134.331 29.2728C134.282 29.593 134.257 29.8763 134.257 30.1226L134.276 30.4367C134.276 30.683 134.306 30.9786 134.368 31.3235C134.43 31.656 134.528 31.9763 134.664 32.2842C134.811 32.5798 134.996 32.8384 135.218 33.0601C135.44 33.2695 135.704 33.3742 136.012 33.3742C136.296 33.3742 136.523 33.2449 136.696 32.9862C136.881 32.7153 137.022 32.4073 137.121 32.0625C137.219 31.7053 137.287 31.3481 137.324 30.9909C137.361 30.6214 137.379 30.3381 137.379 30.1411C137.379 29.9194 137.355 29.6484 137.306 29.3282C137.269 28.9956 137.195 28.6816 137.084 28.386C136.973 28.078 136.819 27.8194 136.622 27.61C136.437 27.3883 136.191 27.2775 135.883 27.2775ZM142.985 35.2956C142.382 35.2956 141.864 35.1663 141.433 34.9076C141.002 34.6367 140.651 34.2918 140.38 33.873C140.121 33.4543 139.931 32.9862 139.807 32.4689C139.684 31.9393 139.623 31.4159 139.623 30.8986C139.623 30.098 139.69 29.359 139.826 28.6816C139.961 28.0041 140.165 27.4129 140.436 26.908C140.706 26.403 141.051 26.0088 141.47 25.7256C141.901 25.4423 142.4 25.3006 142.967 25.3006C143.435 25.3006 143.835 25.4238 144.167 25.6701C144.512 25.9165 144.802 26.2305 145.036 26.6124C145.27 26.9819 145.442 27.3883 145.553 27.8317C145.664 28.2628 145.719 28.6692 145.719 29.0511C145.719 29.1126 145.719 29.1989 145.719 29.3097C145.719 29.4206 145.713 29.5068 145.701 29.5684C145.689 29.7162 145.578 29.8455 145.368 29.9563C145.159 30.0549 144.9 30.1472 144.592 30.2335C144.297 30.3197 143.977 30.412 143.632 30.5106C143.287 30.5968 142.967 30.7076 142.671 30.8431C142.375 30.9786 142.129 31.1449 141.932 31.342C141.735 31.539 141.636 31.7854 141.636 32.081C141.636 32.2411 141.673 32.4073 141.747 32.5798C141.821 32.7399 141.914 32.8877 142.024 33.0232C142.148 33.1587 142.289 33.2695 142.449 33.3557C142.609 33.4296 142.782 33.4666 142.967 33.4666C143.188 33.4666 143.361 33.4235 143.484 33.3373C143.619 33.2387 143.73 33.1217 143.816 32.9862C143.915 32.8507 143.995 32.7029 144.057 32.5428C144.118 32.3704 144.18 32.2164 144.241 32.081C144.315 31.9455 144.401 31.8346 144.5 31.7484C144.611 31.6499 144.752 31.6006 144.925 31.6006C145.196 31.6006 145.399 31.7053 145.535 31.9147C145.682 32.1241 145.756 32.3519 145.756 32.5983C145.756 32.9185 145.676 33.2326 145.516 33.5405C145.368 33.8484 145.202 34.1255 145.017 34.3719C144.771 34.6921 144.469 34.9261 144.112 35.0739C143.755 35.2217 143.379 35.2956 142.985 35.2956ZM142.967 27.1666C142.831 27.1666 142.696 27.2097 142.56 27.2959C142.437 27.3821 142.32 27.493 142.209 27.6285C142.111 27.7516 142.031 27.8933 141.969 28.0534C141.907 28.2135 141.877 28.3675 141.877 28.5153C141.877 28.7616 141.926 28.9156 142.024 28.9772C142.135 29.0387 142.277 29.0695 142.449 29.0695C142.56 29.0695 142.689 29.0572 142.837 29.0326C142.997 28.9956 143.145 28.9464 143.281 28.8848C143.428 28.8109 143.545 28.7247 143.632 28.6261C143.73 28.5153 143.779 28.386 143.779 28.2382C143.779 28.1396 143.761 28.0288 143.724 27.9056C143.699 27.7824 143.65 27.6654 143.576 27.5546C143.515 27.4437 143.428 27.3514 143.318 27.2775C143.219 27.2036 143.102 27.1666 142.967 27.1666ZM146.735 23.213C146.735 22.905 146.834 22.6279 147.031 22.3816C147.228 22.1353 147.493 22.0121 147.826 22.0121C148.146 22.0121 148.404 22.1353 148.601 22.3816C148.811 22.6279 148.916 22.905 148.916 23.213C148.916 23.5209 148.811 23.798 148.601 24.0443C148.404 24.2783 148.146 24.3954 147.826 24.3954C147.505 24.3954 147.24 24.2783 147.031 24.0443C146.834 23.798 146.735 23.5209 146.735 23.213ZM147.973 34.9815C147.702 34.9815 147.493 34.9138 147.345 34.7783C147.197 34.6305 147.087 34.4581 147.013 34.261C146.951 34.0516 146.914 33.8361 146.902 33.6144C146.889 33.3927 146.877 33.2018 146.865 33.0417C146.852 32.8815 146.84 32.5736 146.828 32.1179C146.828 31.6499 146.822 31.1326 146.809 30.566C146.809 29.9994 146.809 29.4267 146.809 28.8478C146.809 28.2689 146.809 27.7886 146.809 27.4068C146.809 27.2097 146.816 27.0003 146.828 26.7786C146.84 26.5569 146.877 26.3537 146.939 26.169C147.013 25.9719 147.117 25.8118 147.253 25.6886C147.388 25.5654 147.579 25.5039 147.826 25.5039C148.183 25.5039 148.423 25.5839 148.546 25.744C148.669 25.9041 148.731 26.1628 148.731 26.52V28.1643L148.712 31.8408V33.4851C148.712 33.6205 148.706 33.7745 148.694 33.9469C148.694 34.1194 148.669 34.2856 148.62 34.4458C148.583 34.5936 148.509 34.7229 148.398 34.8337C148.3 34.9323 148.158 34.9815 147.973 34.9815ZM151.648 33.8915C151.648 34.0639 151.648 34.2179 151.648 34.3534C151.648 34.4889 151.624 34.6059 151.574 34.7044C151.538 34.7906 151.47 34.8584 151.371 34.9076C151.273 34.9569 151.125 34.9815 150.928 34.9815C150.657 34.9815 150.448 34.9323 150.3 34.8337C150.152 34.7352 150.041 34.612 149.967 34.4642C149.906 34.3041 149.869 34.1317 149.856 33.9469C149.844 33.7622 149.832 33.5897 149.819 33.4296C149.819 33.3188 149.813 33.1032 149.801 32.783C149.801 32.4505 149.795 32.0686 149.782 31.6376C149.782 31.1942 149.782 30.7261 149.782 30.2335C149.782 29.7408 149.776 29.2789 149.764 28.8478C149.764 28.4044 149.764 28.0226 149.764 27.7024C149.764 27.3698 149.764 27.1481 149.764 27.0373C149.764 26.9018 149.764 26.7478 149.764 26.5754C149.764 26.3907 149.789 26.2182 149.838 26.0581C149.899 25.8857 149.992 25.744 150.115 25.6332C150.238 25.5223 150.423 25.4669 150.669 25.4669C150.916 25.4669 151.088 25.51 151.187 25.5962C151.285 25.6701 151.353 25.7625 151.39 25.8734C151.439 25.9719 151.476 26.0643 151.501 26.1505C151.525 26.2244 151.581 26.2613 151.667 26.2613C151.753 26.2613 151.852 26.2182 151.962 26.132C152.073 26.0335 152.209 25.9349 152.369 25.8364C152.529 25.7256 152.72 25.627 152.942 25.5408C153.176 25.4423 153.459 25.393 153.791 25.393C154.321 25.393 154.752 25.4977 155.085 25.7071C155.43 25.9165 155.694 26.2121 155.879 26.5939C156.076 26.9757 156.212 27.4376 156.286 27.9795C156.36 28.5091 156.396 29.1003 156.396 29.7531C156.396 30.2458 156.396 30.7631 156.396 31.305C156.396 31.8469 156.39 32.4135 156.378 33.0047C156.378 33.1648 156.378 33.3619 156.378 33.5959C156.378 33.8176 156.353 34.0331 156.304 34.2425C156.255 34.4519 156.169 34.6305 156.045 34.7783C155.935 34.9261 155.762 35 155.528 35C155.257 35 155.054 34.9138 154.918 34.7414C154.795 34.5566 154.703 34.3411 154.641 34.0947C154.592 33.8361 154.567 33.5713 154.567 33.3003C154.567 33.0293 154.567 32.8015 154.567 32.6167C154.555 32.2595 154.543 31.9024 154.53 31.5452C154.53 31.1757 154.53 30.8123 154.53 30.4552C154.53 30.2458 154.524 29.9686 154.512 29.6238C154.512 29.2666 154.475 28.9217 154.401 28.5892C154.34 28.2566 154.229 27.9733 154.069 27.7393C153.908 27.493 153.668 27.3698 153.348 27.3698C152.72 27.3698 152.277 27.6285 152.018 28.1458C151.772 28.6508 151.648 29.3467 151.648 30.2335V33.8915ZM160.466 25.393C160.897 25.393 161.23 25.4423 161.464 25.5408C161.71 25.6393 161.901 25.7502 162.036 25.8734C162.172 25.9965 162.264 26.1074 162.314 26.2059C162.375 26.3044 162.437 26.3537 162.498 26.3537C162.56 26.3537 162.597 26.3106 162.609 26.2244C162.634 26.1258 162.665 26.0212 162.701 25.9103C162.751 25.7871 162.831 25.6824 162.942 25.5962C163.065 25.4977 163.25 25.4484 163.496 25.4484C163.718 25.4484 163.884 25.5962 163.995 25.8918C164.106 26.1751 164.186 26.5077 164.235 26.8895C164.284 27.2713 164.309 27.6531 164.309 28.0349C164.321 28.4044 164.327 28.6754 164.327 28.8478V33.3003C164.327 34.1871 164.303 35.0493 164.253 35.8868C164.204 36.7366 164.069 37.488 163.847 38.1407C163.638 38.8058 163.305 39.3355 162.849 39.7296C162.406 40.1237 161.778 40.3208 160.965 40.3208C160.546 40.3208 160.177 40.2346 159.856 40.0621C159.536 39.8897 159.265 39.6619 159.043 39.3786C158.822 39.0953 158.649 38.7689 158.526 38.3994C158.415 38.0422 158.36 37.6727 158.36 37.2909C158.36 37.18 158.372 37.063 158.397 36.9399C158.434 36.829 158.477 36.7243 158.526 36.6258C158.588 36.5273 158.668 36.441 158.766 36.3671C158.865 36.3056 158.976 36.2748 159.099 36.2748C159.333 36.2748 159.511 36.2932 159.635 36.3302C159.77 36.3795 159.869 36.4534 159.93 36.5519C160.004 36.6627 160.047 36.7921 160.06 36.9399C160.084 37.1 160.097 37.2909 160.097 37.5126C160.097 37.7712 160.164 38.0299 160.3 38.2885C160.448 38.5595 160.675 38.695 160.983 38.695C161.402 38.695 161.716 38.5472 161.926 38.2516C162.147 37.956 162.301 37.605 162.387 37.1985C162.486 36.8044 162.535 36.3979 162.535 35.9792C162.548 35.5727 162.554 35.2463 162.554 35C162.554 34.9138 162.535 34.8029 162.498 34.6675C162.474 34.532 162.418 34.4642 162.332 34.4642C162.283 34.4642 162.203 34.5135 162.092 34.612C161.993 34.6982 161.864 34.7968 161.704 34.9076C161.556 35.0062 161.377 35.0985 161.168 35.1847C160.959 35.2833 160.712 35.3325 160.429 35.3325C159.752 35.3325 159.204 35.1847 158.785 34.8892C158.366 34.5812 158.033 34.1871 157.787 33.7068C157.553 33.2264 157.393 32.6845 157.307 32.081C157.221 31.4651 157.177 30.8431 157.177 30.215C157.177 29.5868 157.239 28.9833 157.362 28.4044C157.485 27.8255 157.682 27.3144 157.953 26.871C158.224 26.4276 158.563 26.0704 158.97 25.7995C159.388 25.5285 159.887 25.393 160.466 25.393ZM160.558 33.5774C160.866 33.5774 161.137 33.4604 161.371 33.2264C161.605 32.9924 161.802 32.7091 161.962 32.3766C162.123 32.044 162.24 31.6991 162.314 31.342C162.4 30.9848 162.443 30.683 162.443 30.4367L162.461 30.1226C162.461 29.864 162.431 29.5807 162.369 29.2728C162.307 28.9525 162.209 28.6508 162.073 28.3675C161.938 28.0842 161.759 27.8502 161.538 27.6654C161.316 27.4684 161.045 27.3698 160.725 27.3698C160.417 27.3698 160.152 27.4622 159.93 27.647C159.721 27.8194 159.542 28.0534 159.394 28.349C159.259 28.6323 159.154 28.9587 159.08 29.3282C159.019 29.6977 158.988 30.0733 158.988 30.4552C158.988 30.837 159.013 31.2188 159.062 31.6006C159.123 31.9701 159.216 32.3027 159.339 32.5983C159.462 32.8939 159.622 33.134 159.819 33.3188C160.016 33.4912 160.263 33.5774 160.558 33.5774ZM173.546 25.2452C173.866 25.2452 174.174 25.3253 174.47 25.4854C174.778 25.6455 175.049 25.8549 175.283 26.1135C175.517 26.3599 175.708 26.637 175.855 26.9449C176.003 27.2528 176.077 27.5607 176.077 27.8687C176.077 28.115 176.003 28.3244 175.855 28.4968C175.708 28.6569 175.504 28.737 175.246 28.737C175.073 28.737 174.932 28.6446 174.821 28.4599C174.722 28.2751 174.618 28.0719 174.507 27.8502C174.396 27.6285 174.267 27.4253 174.119 27.2405C173.983 27.0558 173.792 26.9634 173.546 26.9634C173.324 26.9634 173.115 27.0496 172.918 27.222C172.721 27.3945 172.548 27.6346 172.401 27.9426C172.253 28.2505 172.136 28.6138 172.05 29.0326C171.976 29.4513 171.939 29.9071 171.939 30.3997C171.939 30.8924 171.957 31.342 171.994 31.7484C172.043 32.1549 172.123 32.5059 172.234 32.8015C172.345 33.0848 172.493 33.3065 172.678 33.4666C172.862 33.6267 173.096 33.7068 173.38 33.7068C173.712 33.7068 173.977 33.5836 174.174 33.3373C174.384 33.0909 174.556 32.82 174.691 32.5244C174.839 32.2288 174.969 31.9578 175.079 31.7115C175.203 31.4651 175.344 31.342 175.504 31.342C176.096 31.342 176.391 31.5944 176.391 32.0994C176.391 32.4689 176.305 32.8446 176.132 33.2264C175.96 33.5959 175.732 33.9346 175.449 34.2425C175.178 34.5381 174.858 34.7845 174.488 34.9815C174.131 35.1663 173.762 35.2586 173.38 35.2586C172.197 35.2586 171.354 34.8337 170.849 33.9839C170.344 33.134 170.091 31.927 170.091 30.3628C170.091 29.5745 170.165 28.8663 170.313 28.2382C170.461 27.61 170.676 27.0742 170.959 26.6308C171.255 26.1874 171.618 25.8487 172.05 25.6147C172.481 25.3684 172.979 25.2452 173.546 25.2452ZM181.198 26.3907C181.198 26.4892 181.186 26.6185 181.161 26.7786C181.149 26.9387 181.075 27.0188 180.939 27.0188L180.773 27.0003C180.428 27.0003 180.139 27.0804 179.905 27.2405C179.671 27.3883 179.48 27.5854 179.332 27.8317C179.184 28.078 179.08 28.3552 179.018 28.6631C178.956 28.9587 178.926 29.2543 178.926 29.5499V30.4182L178.87 32.4505V33.3373C178.87 33.4851 178.87 33.6575 178.87 33.8546C178.883 34.0516 178.87 34.2425 178.833 34.4273C178.796 34.5997 178.722 34.7537 178.612 34.8892C178.501 35.0123 178.334 35.0739 178.113 35.0739C177.743 35.0739 177.472 34.9815 177.3 34.7968C177.127 34.612 177.041 34.3595 177.041 34.0393V32.2657L177.06 28.6077V26.8341C177.06 26.6986 177.066 26.5508 177.078 26.3907C177.091 26.2305 177.121 26.0827 177.171 25.9473C177.22 25.8118 177.294 25.7009 177.392 25.6147C177.503 25.5285 177.651 25.4854 177.836 25.4854C178.008 25.4854 178.156 25.5162 178.279 25.5778C178.402 25.6393 178.476 25.7625 178.501 25.9473C178.525 26.1197 178.55 26.2429 178.575 26.3168C178.599 26.3783 178.63 26.4091 178.667 26.4091C178.704 26.4091 178.766 26.3537 178.852 26.2429C178.938 26.132 179.049 26.0088 179.184 25.8734C179.332 25.7379 179.498 25.6147 179.683 25.5039C179.88 25.393 180.108 25.3376 180.367 25.3376C180.662 25.3376 180.872 25.4484 180.995 25.6701C181.13 25.8918 181.198 26.132 181.198 26.3907ZM184.373 35.2956C183.77 35.2956 183.253 35.1663 182.821 34.9076C182.39 34.6367 182.039 34.2918 181.768 33.873C181.51 33.4543 181.319 32.9862 181.196 32.4689C181.072 31.9393 181.011 31.4159 181.011 30.8986C181.011 30.098 181.079 29.359 181.214 28.6816C181.35 28.0041 181.553 27.4129 181.824 26.908C182.095 26.403 182.44 26.0088 182.858 25.7256C183.289 25.4423 183.788 25.3006 184.355 25.3006C184.823 25.3006 185.223 25.4238 185.556 25.6701C185.901 25.9165 186.19 26.2305 186.424 26.6124C186.658 26.9819 186.831 27.3883 186.941 27.8317C187.052 28.2628 187.108 28.6692 187.108 29.0511C187.108 29.1126 187.108 29.1989 187.108 29.3097C187.108 29.4206 187.101 29.5068 187.089 29.5684C187.077 29.7162 186.966 29.8455 186.757 29.9563C186.547 30.0549 186.289 30.1472 185.981 30.2335C185.685 30.3197 185.365 30.412 185.02 30.5106C184.675 30.5968 184.355 30.7076 184.059 30.8431C183.764 30.9786 183.517 31.1449 183.32 31.342C183.123 31.539 183.025 31.7854 183.025 32.081C183.025 32.2411 183.062 32.4073 183.136 32.5798C183.209 32.7399 183.302 32.8877 183.413 33.0232C183.536 33.1587 183.677 33.2695 183.838 33.3557C183.998 33.4296 184.17 33.4666 184.355 33.4666C184.577 33.4666 184.749 33.4235 184.872 33.3373C185.008 33.2387 185.119 33.1217 185.205 32.9862C185.303 32.8507 185.383 32.7029 185.445 32.5428C185.506 32.3704 185.568 32.2164 185.63 32.081C185.704 31.9455 185.79 31.8346 185.888 31.7484C185.999 31.6499 186.141 31.6006 186.313 31.6006C186.584 31.6006 186.787 31.7053 186.923 31.9147C187.071 32.1241 187.145 32.3519 187.145 32.5983C187.145 32.9185 187.065 33.2326 186.904 33.5405C186.757 33.8484 186.59 34.1255 186.406 34.3719C186.159 34.6921 185.858 34.9261 185.5 35.0739C185.143 35.2217 184.767 35.2956 184.373 35.2956ZM184.355 27.1666C184.219 27.1666 184.084 27.2097 183.948 27.2959C183.825 27.3821 183.708 27.493 183.597 27.6285C183.499 27.7516 183.419 27.8933 183.357 28.0534C183.296 28.2135 183.265 28.3675 183.265 28.5153C183.265 28.7616 183.314 28.9156 183.413 28.9772C183.524 29.0387 183.665 29.0695 183.838 29.0695C183.948 29.0695 184.078 29.0572 184.226 29.0326C184.386 28.9956 184.533 28.9464 184.669 28.8848C184.817 28.8109 184.934 28.7247 185.02 28.6261C185.119 28.5153 185.168 28.386 185.168 28.2382C185.168 28.1396 185.149 28.0288 185.112 27.9056C185.088 27.7824 185.038 27.6654 184.965 27.5546C184.903 27.4437 184.817 27.3514 184.706 27.2775C184.607 27.2036 184.49 27.1666 184.355 27.1666ZM187.791 32.8384C187.791 32.3211 187.89 31.8777 188.087 31.5082C188.296 31.1387 188.549 30.8185 188.844 30.5475C189.14 30.2766 189.466 30.0425 189.823 29.8455C190.181 29.6361 190.507 29.439 190.803 29.2543C191.098 29.0572 191.345 28.8663 191.542 28.6816C191.751 28.4845 191.856 28.2566 191.856 27.998C191.856 27.7516 191.77 27.5238 191.597 27.3144C191.425 27.105 191.215 27.0003 190.969 27.0003C190.71 27.0003 190.501 27.0742 190.341 27.222C190.181 27.3575 190.039 27.5176 189.916 27.7024C189.805 27.8748 189.694 28.0349 189.583 28.1827C189.472 28.3182 189.337 28.386 189.177 28.386C188.931 28.386 188.715 28.3059 188.53 28.1458C188.345 27.9857 188.253 27.7824 188.253 27.5361C188.253 27.2159 188.345 26.9264 188.53 26.6678C188.727 26.4091 188.974 26.1813 189.269 25.9842C189.565 25.7871 189.885 25.6393 190.23 25.5408C190.575 25.43 190.895 25.3745 191.191 25.3745C191.782 25.3745 192.244 25.4915 192.576 25.7256C192.921 25.9473 193.18 26.2429 193.352 26.6124C193.537 26.9819 193.654 27.4006 193.703 27.8687C193.752 28.3244 193.777 28.7924 193.777 29.2728V30.1965L193.74 31.9886V32.9123C193.74 33.134 193.746 33.3742 193.759 33.6329C193.771 33.8915 193.765 34.1317 193.74 34.3534C193.716 34.5628 193.654 34.7414 193.555 34.8892C193.457 35.0369 193.303 35.1108 193.094 35.1108C192.86 35.1108 192.681 35.0677 192.558 34.9815C192.435 34.8953 192.336 34.8029 192.262 34.7044C192.201 34.5936 192.151 34.495 192.114 34.4088C192.09 34.3226 192.04 34.2795 191.967 34.2795C191.893 34.2795 191.794 34.3226 191.671 34.4088C191.56 34.495 191.418 34.5936 191.246 34.7044C191.086 34.8153 190.895 34.9138 190.673 35C190.464 35.0862 190.23 35.1293 189.971 35.1293C189.639 35.1293 189.337 35.0677 189.066 34.9446C188.795 34.8091 188.561 34.6367 188.364 34.4273C188.179 34.2179 188.038 33.9777 187.939 33.7068C187.841 33.4235 187.791 33.134 187.791 32.8384ZM189.565 32.5059C189.565 32.8138 189.657 33.0417 189.842 33.1895C190.039 33.3249 190.279 33.3927 190.562 33.3927C190.846 33.3927 191.074 33.3373 191.246 33.2264C191.431 33.1032 191.572 32.9431 191.671 32.7461C191.782 32.549 191.856 32.3334 191.893 32.0994C191.942 31.8531 191.967 31.6129 191.967 31.3789C191.967 31.2065 191.936 31.0525 191.874 30.917C191.813 30.7815 191.677 30.7138 191.468 30.7138C191.283 30.7138 191.08 30.7692 190.858 30.8801C190.636 30.9909 190.427 31.1387 190.23 31.3235C190.045 31.4959 189.885 31.6868 189.75 31.8962C189.626 32.1056 189.565 32.3088 189.565 32.5059ZM196.903 22.8989C197.039 22.8989 197.113 22.9605 197.125 23.0836C197.15 23.1945 197.162 23.2992 197.162 23.3977V23.6194L197.125 24.0813V24.303C197.125 24.5247 197.125 24.7156 197.125 24.8757C197.125 25.0358 197.143 25.1651 197.18 25.2637C197.217 25.3622 197.279 25.4361 197.365 25.4854C197.464 25.5223 197.605 25.5408 197.79 25.5408C197.963 25.5408 198.129 25.5346 198.289 25.5223C198.461 25.4977 198.615 25.5039 198.751 25.5408C198.886 25.5654 198.997 25.627 199.083 25.7256C199.17 25.8241 199.213 25.9904 199.213 26.2244C199.213 26.5446 199.151 26.7663 199.028 26.8895C198.905 27.0126 198.677 27.0742 198.344 27.0742H197.458C197.285 27.0742 197.187 27.2775 197.162 27.6839C197.137 28.0904 197.125 28.6323 197.125 29.3097V29.7901L197.107 30.7323V31.2126C197.107 31.3727 197.107 31.5821 197.107 31.8408C197.119 32.0871 197.15 32.3334 197.199 32.5798C197.26 32.8138 197.353 33.017 197.476 33.1895C197.612 33.3496 197.802 33.4296 198.049 33.4296C198.221 33.4296 198.375 33.3988 198.511 33.3373C198.646 33.2634 198.769 33.1895 198.88 33.1156C198.991 33.0417 199.096 32.9739 199.194 32.9123C199.305 32.8384 199.41 32.8015 199.508 32.8015C199.644 32.8015 199.718 32.8692 199.73 33.0047C199.755 33.1279 199.767 33.2387 199.767 33.3373C199.767 33.6082 199.693 33.8607 199.545 34.0947C199.41 34.3287 199.231 34.532 199.009 34.7044C198.788 34.8645 198.541 34.9877 198.27 35.0739C198.012 35.1724 197.753 35.2217 197.495 35.2217C197.051 35.2217 196.688 35.0924 196.404 34.8337C196.121 34.5751 195.9 34.2425 195.739 33.8361C195.592 33.4173 195.487 32.9493 195.425 32.432C195.364 31.9147 195.327 31.3974 195.314 30.8801C195.302 30.3628 195.302 29.8701 195.314 29.4021C195.339 28.934 195.351 28.5399 195.351 28.2197C195.351 27.8009 195.339 27.5176 195.314 27.3698C195.302 27.222 195.21 27.1481 195.037 27.1481C194.976 27.1481 194.908 27.142 194.834 27.1297C194.773 27.1173 194.711 27.0804 194.649 27.0188C194.6 26.9572 194.557 26.871 194.52 26.7602C194.483 26.637 194.465 26.4707 194.465 26.2613C194.465 26.0643 194.483 25.9165 194.52 25.8179C194.557 25.7071 194.606 25.6332 194.668 25.5962C194.742 25.547 194.816 25.5223 194.89 25.5223C194.963 25.51 195.037 25.5039 195.111 25.5039C195.308 25.5039 195.419 25.4607 195.444 25.3745C195.481 25.276 195.499 25.0728 195.499 24.7649C195.499 24.7156 195.499 24.6478 195.499 24.5616C195.499 24.4754 195.493 24.3892 195.481 24.303C195.481 24.2044 195.481 24.1121 195.481 24.0259C195.481 23.9273 195.481 23.8534 195.481 23.8042C195.481 23.6564 195.524 23.527 195.61 23.4162C195.709 23.293 195.826 23.1945 195.961 23.1206C196.109 23.0467 196.263 22.9913 196.423 22.9543C196.595 22.9174 196.756 22.8989 196.903 22.8989ZM203.678 35.2956C203.075 35.2956 202.557 35.1663 202.126 34.9076C201.695 34.6367 201.344 34.2918 201.073 33.873C200.815 33.4543 200.624 32.9862 200.501 32.4689C200.377 31.9393 200.316 31.4159 200.316 30.8986C200.316 30.098 200.384 29.359 200.519 28.6816C200.655 28.0041 200.858 27.4129 201.129 26.908C201.4 26.403 201.745 26.0088 202.163 25.7256C202.594 25.4423 203.093 25.3006 203.66 25.3006C204.128 25.3006 204.528 25.4238 204.861 25.6701C205.206 25.9165 205.495 26.2305 205.729 26.6124C205.963 26.9819 206.135 27.3883 206.246 27.8317C206.357 28.2628 206.413 28.6692 206.413 29.0511C206.413 29.1126 206.413 29.1989 206.413 29.3097C206.413 29.4206 206.406 29.5068 206.394 29.5684C206.382 29.7162 206.271 29.8455 206.062 29.9563C205.852 30.0549 205.594 30.1472 205.286 30.2335C204.99 30.3197 204.67 30.412 204.325 30.5106C203.98 30.5968 203.66 30.7076 203.364 30.8431C203.069 30.9786 202.822 31.1449 202.625 31.342C202.428 31.539 202.33 31.7854 202.33 32.081C202.33 32.2411 202.367 32.4073 202.44 32.5798C202.514 32.7399 202.607 32.8877 202.718 33.0232C202.841 33.1587 202.982 33.2695 203.143 33.3557C203.303 33.4296 203.475 33.4666 203.66 33.4666C203.882 33.4666 204.054 33.4235 204.177 33.3373C204.313 33.2387 204.423 33.1217 204.51 32.9862C204.608 32.8507 204.688 32.7029 204.75 32.5428C204.811 32.3704 204.873 32.2164 204.935 32.081C205.008 31.9455 205.095 31.8346 205.193 31.7484C205.304 31.6499 205.446 31.6006 205.618 31.6006C205.889 31.6006 206.092 31.7053 206.228 31.9147C206.376 32.1241 206.45 32.3519 206.45 32.5983C206.45 32.9185 206.369 33.2326 206.209 33.5405C206.062 33.8484 205.895 34.1255 205.711 34.3719C205.464 34.6921 205.162 34.9261 204.805 35.0739C204.448 35.2217 204.072 35.2956 203.678 35.2956ZM203.66 27.1666C203.524 27.1666 203.389 27.2097 203.253 27.2959C203.13 27.3821 203.013 27.493 202.902 27.6285C202.804 27.7516 202.724 27.8933 202.662 28.0534C202.601 28.2135 202.57 28.3675 202.57 28.5153C202.57 28.7616 202.619 28.9156 202.718 28.9772C202.828 29.0387 202.97 29.0695 203.143 29.0695C203.253 29.0695 203.383 29.0572 203.53 29.0326C203.691 28.9956 203.838 28.9464 203.974 28.8848C204.122 28.8109 204.239 28.7247 204.325 28.6261C204.423 28.5153 204.473 28.386 204.473 28.2382C204.473 28.1396 204.454 28.0288 204.417 27.9056C204.393 27.7824 204.343 27.6654 204.269 27.5546C204.208 27.4437 204.122 27.3514 204.011 27.2775C203.912 27.2036 203.795 27.1666 203.66 27.1666ZM214.154 31.3974V33.0047C214.154 33.2141 214.154 33.4481 214.154 33.7068C214.154 33.9531 214.135 34.1871 214.098 34.4088C214.061 34.6305 213.987 34.8153 213.876 34.9631C213.778 35.1108 213.624 35.1847 213.415 35.1847C213.193 35.1847 213.027 35.1293 212.916 35.0185C212.805 34.9076 212.719 34.7845 212.657 34.649C212.596 34.5012 212.546 34.3719 212.509 34.261C212.485 34.1502 212.442 34.0947 212.38 34.0947C212.318 34.0947 212.238 34.1502 212.14 34.261C212.054 34.3719 211.937 34.5012 211.789 34.649C211.641 34.7845 211.462 34.9076 211.253 35.0185C211.044 35.1293 210.791 35.1847 210.496 35.1847C209.412 35.1847 208.611 34.7229 208.094 33.7991C207.589 32.8754 207.336 31.6006 207.336 29.9748C207.336 28.5091 207.583 27.3821 208.075 26.5939C208.568 25.7933 209.295 25.393 210.255 25.393C210.526 25.393 210.76 25.4361 210.957 25.5223C211.167 25.5962 211.339 25.6824 211.475 25.781C211.623 25.8795 211.746 25.9719 211.844 26.0581C211.943 26.132 212.023 26.169 212.084 26.169C212.208 26.169 212.269 25.7502 212.269 24.9127C212.269 24.7156 212.263 24.5185 212.251 24.3215C212.251 24.1121 212.251 23.9212 212.251 23.7487C212.251 23.564 212.245 23.4039 212.232 23.2684C212.232 23.1329 212.232 23.0405 212.232 22.9913C212.232 22.8311 212.232 22.6649 212.232 22.4924C212.245 22.32 212.275 22.166 212.325 22.0306C212.386 21.8951 212.479 21.7842 212.602 21.698C212.725 21.5995 212.903 21.5502 213.137 21.5502C213.408 21.5502 213.605 21.5933 213.729 21.6795C213.864 21.7534 213.95 21.8581 213.987 21.9936C214.037 22.1291 214.061 22.2892 214.061 22.474C214.061 22.6464 214.067 22.8311 214.08 23.0282C214.104 23.6564 214.11 24.2783 214.098 24.8942C214.098 25.51 214.104 26.132 214.117 26.7602L214.154 31.3974ZM212.269 30.1226C212.269 29.8763 212.245 29.593 212.195 29.2728C212.146 28.9402 212.06 28.6261 211.937 28.3305C211.813 28.0349 211.647 27.7886 211.438 27.5915C211.228 27.3821 210.964 27.2775 210.643 27.2775C210.335 27.2775 210.083 27.3883 209.886 27.61C209.701 27.8194 209.553 28.078 209.442 28.386C209.332 28.6816 209.252 28.9956 209.202 29.3282C209.165 29.6484 209.147 29.9194 209.147 30.1411C209.147 30.3381 209.165 30.6214 209.202 30.9909C209.239 31.3481 209.307 31.7053 209.406 32.0625C209.504 32.4073 209.64 32.7153 209.812 32.9862C209.997 33.2449 210.231 33.3742 210.514 33.3742C210.834 33.3742 211.099 33.2695 211.308 33.0601C211.53 32.8384 211.709 32.5798 211.844 32.2842C211.992 31.9763 212.097 31.656 212.158 31.3235C212.22 30.9786 212.251 30.683 212.251 30.4367L212.269 30.1226ZM216.48 29.9563C216.48 29.7223 216.48 29.3651 216.48 28.8848C216.48 28.4044 216.48 27.8994 216.48 27.3698C216.492 26.8279 216.498 26.3168 216.498 25.8364C216.51 25.3561 216.523 24.9989 216.535 24.7649C216.547 24.6047 216.547 24.4138 216.535 24.1921C216.535 23.9704 216.56 23.7549 216.609 23.5455C216.658 23.3361 216.738 23.1575 216.849 23.0097C216.972 22.8619 217.157 22.788 217.403 22.788C217.613 22.788 217.767 22.825 217.865 22.8989C217.976 22.9605 218.056 23.0467 218.105 23.1575C218.155 23.2684 218.179 23.3916 218.179 23.527C218.192 23.6625 218.198 23.798 218.198 23.9335C218.198 24.1306 218.198 24.3954 218.198 24.7279C218.198 25.0481 218.192 25.3992 218.179 25.781C218.179 26.1505 218.173 26.5446 218.161 26.9634C218.161 27.3698 218.155 27.764 218.142 28.1458C218.142 28.5153 218.142 28.8601 218.142 29.1804C218.142 29.5006 218.142 29.7593 218.142 29.9563C218.142 30.1657 218.136 30.4367 218.124 30.7692C218.112 31.0895 218.075 31.4035 218.013 31.7115C217.951 32.0194 217.859 32.2842 217.736 32.5059C217.613 32.7276 217.44 32.8384 217.219 32.8384C217.021 32.8384 216.868 32.7214 216.757 32.4874C216.658 32.2411 216.584 31.9639 216.535 31.656C216.498 31.3358 216.48 31.0156 216.48 30.6953C216.48 30.3628 216.48 30.1164 216.48 29.9563ZM216.387 34.3534C216.387 34.107 216.461 33.9038 216.609 33.7437C216.769 33.5836 216.972 33.5035 217.219 33.5035C217.465 33.5035 217.662 33.5836 217.81 33.7437C217.97 33.9038 218.05 34.107 218.05 34.3534C218.05 34.5997 217.97 34.8029 217.81 34.9631C217.662 35.1232 217.465 35.2032 217.219 35.2032C216.972 35.2032 216.769 35.1232 216.609 34.9631C216.461 34.8029 216.387 34.5997 216.387 34.3534Z" fill="#282828"/>
<path d="M40.5058 52.0655H38.5444V50.7507H43.9329V52.0655H41.993V58.0791H40.5058V52.0655ZM46.1893 54.0269V58.0791H44.7452V50.5351H46.1893V52.9492C46.685 52.6906 47.1305 52.5612 47.5256 52.5612C47.8849 52.5612 48.183 52.6151 48.4201 52.7229C48.6644 52.8235 48.8584 52.9815 49.0021 53.1971C49.153 53.4126 49.2607 53.6821 49.3254 54.0054C49.3901 54.3287 49.4224 54.7131 49.4224 55.1585V58.0791H47.9783V55.1908C47.9783 54.7382 47.9244 54.4041 47.8166 54.1886C47.7088 53.9659 47.4933 53.8545 47.17 53.8545C46.8898 53.8545 46.6096 53.8976 46.3294 53.9838L46.1893 54.0269ZM52.1461 58.0791H50.702V52.6906H52.1461V58.0791ZM52.1461 52.0008H50.702V50.5351H52.1461V52.0008ZM57.371 52.8414L57.3494 54.0377C56.8968 53.9802 56.516 53.9371 56.2071 53.9084C55.9053 53.8796 55.6646 53.8653 55.485 53.8653C55.1258 53.8653 54.8959 53.8976 54.7953 53.9623C54.6875 54.0269 54.6336 54.1275 54.6336 54.264C54.6336 54.4005 54.7055 54.4975 54.8492 54.555C54.921 54.5837 55.0432 54.6197 55.2156 54.6628C55.3952 54.6987 55.6323 54.7418 55.9269 54.7921C56.2143 54.8424 56.4585 54.9106 56.6597 54.9969C56.8609 55.0759 57.0261 55.1801 57.1555 55.3094C57.2848 55.4387 57.3782 55.5968 57.4357 55.7836C57.4931 55.9704 57.5219 56.1967 57.5219 56.4625C57.5219 57.6265 56.7998 58.2084 55.3557 58.2084C54.8887 58.2084 54.3139 58.1438 53.6314 58.0144L53.2865 57.9498L53.3296 56.7427C53.7822 56.8002 54.1594 56.8433 54.4612 56.8721C54.7701 56.9008 55.0144 56.9152 55.194 56.9152C55.5461 56.9152 55.7832 56.8793 55.9053 56.8074C56.0275 56.7427 56.0885 56.6422 56.0885 56.5056C56.0885 56.3691 56.0239 56.2686 55.8945 56.2039C55.7652 56.1464 55.4203 56.0674 54.8599 55.9668C54.5797 55.9237 54.3355 55.8662 54.1271 55.7944C53.9187 55.7153 53.7463 55.6147 53.6098 55.4926C53.4733 55.3633 53.3691 55.2052 53.2973 55.0184C53.2326 54.8244 53.2003 54.5837 53.2003 54.2963C53.2003 54.009 53.2506 53.7575 53.3511 53.542C53.4589 53.3264 53.6026 53.1468 53.7822 53.0031C53.969 52.8594 54.1882 52.7516 54.4396 52.6798C54.6983 52.6079 54.9785 52.572 55.2802 52.572C55.4886 52.572 55.7365 52.59 56.0239 52.6259C56.3184 52.6546 56.6489 52.7049 57.0154 52.7768L57.371 52.8414ZM62.4837 50.7507V55.6327C62.4837 56.4877 62.9184 56.9152 63.7877 56.9152C64.6571 56.9152 65.0918 56.4877 65.0918 55.6327V50.7507H66.579V55.6004C66.579 56.5056 66.3491 57.1666 65.8893 57.5834C65.4294 58.0001 64.7289 58.2084 63.7877 58.2084C62.8465 58.2084 62.146 58.0001 61.6862 57.5834C61.2264 57.1666 60.9965 56.5056 60.9965 55.6004V50.7507H62.4837ZM71.8737 52.8414L71.8522 54.0377C71.3995 53.9802 71.0188 53.9371 70.7098 53.9084C70.4081 53.8796 70.1674 53.8653 69.9878 53.8653C69.6285 53.8653 69.3986 53.8976 69.298 53.9623C69.1902 54.0269 69.1364 54.1275 69.1364 54.264C69.1364 54.4005 69.2082 54.4975 69.3519 54.555C69.4238 54.5837 69.5459 54.6197 69.7183 54.6628C69.8979 54.6987 70.135 54.7418 70.4296 54.7921C70.717 54.8424 70.9613 54.9106 71.1625 54.9969C71.3636 55.0759 71.5289 55.1801 71.6582 55.3094C71.7875 55.4387 71.8809 55.5968 71.9384 55.7836C71.9959 55.9704 72.0246 56.1967 72.0246 56.4625C72.0246 57.6265 71.3026 58.2084 69.8584 58.2084C69.3914 58.2084 68.8166 58.1438 68.1341 58.0144L67.7892 57.9498L67.8323 56.7427C68.285 56.8002 68.6622 56.8433 68.9639 56.8721C69.2729 56.9008 69.5172 56.9152 69.6968 56.9152C70.0488 56.9152 70.2859 56.8793 70.4081 56.8074C70.5302 56.7427 70.5913 56.6422 70.5913 56.5056C70.5913 56.3691 70.5266 56.2686 70.3973 56.2039C70.268 56.1464 69.9231 56.0674 69.3627 55.9668C69.0825 55.9237 68.8382 55.8662 68.6298 55.7944C68.4215 55.7153 68.249 55.6147 68.1125 55.4926C67.976 55.3633 67.8719 55.2052 67.8 55.0184C67.7353 54.8244 67.703 54.5837 67.703 54.2963C67.703 54.009 67.7533 53.7575 67.8539 53.542C67.9617 53.3264 68.1054 53.1468 68.285 53.0031C68.4718 52.8594 68.6909 52.7516 68.9424 52.6798C69.201 52.6079 69.4812 52.572 69.783 52.572C69.9913 52.572 70.2392 52.59 70.5266 52.6259C70.8212 52.6546 71.1517 52.7049 71.5181 52.7768L71.8737 52.8414ZM76.2458 56.7212V52.6906H77.6899V58.0791H76.2566V57.7773C75.7464 58.0647 75.2974 58.2084 74.9094 58.2084C74.5358 58.2084 74.2269 58.1581 73.9826 58.0575C73.7383 57.957 73.5443 57.7989 73.4006 57.5834C73.2569 57.3678 73.1564 57.0912 73.0989 56.7535C73.0414 56.4087 73.0127 55.9955 73.0127 55.5142V52.6906H74.4568V55.5357C74.4568 55.8015 74.464 56.0243 74.4783 56.2039C74.4999 56.3763 74.5358 56.5164 74.5861 56.6242C74.6436 56.732 74.719 56.8074 74.8124 56.8505C74.913 56.8936 75.0459 56.9152 75.2112 56.9152C75.5201 56.9152 75.8183 56.8649 76.1057 56.7643L76.2458 56.7212ZM83.151 54.3718V56.6134C83.1654 56.7859 83.1941 56.908 83.2372 56.9798C83.2803 57.0445 83.3702 57.0912 83.5067 57.1199L83.4636 58.2084C83.0971 58.2084 82.8026 58.1833 82.5798 58.133C82.3643 58.0827 82.1452 57.9821 81.9224 57.8312C81.398 58.0827 80.8699 58.2084 80.3382 58.2084C79.2246 58.2084 78.6678 57.6193 78.6678 56.441C78.6678 55.8662 78.8222 55.4603 79.1312 55.2232C79.4401 54.9789 79.9143 54.8352 80.5537 54.7921L81.7069 54.7059V54.3718C81.7069 54.1491 81.6566 53.9982 81.556 53.9192C81.4554 53.8329 81.2938 53.7898 81.071 53.7898L79.045 53.876L79.0018 52.8738C79.7778 52.6654 80.5106 52.5612 81.2004 52.5612C81.8973 52.5612 82.3966 52.7049 82.6984 52.9923C83.0001 53.2797 83.151 53.7395 83.151 54.3718ZM81.7069 55.7081L80.7262 55.7944C80.3238 55.8303 80.1227 56.0458 80.1227 56.441C80.1227 56.8361 80.2987 57.0337 80.6507 57.0337C80.9238 57.0337 81.2219 56.9906 81.5452 56.9044L81.7069 56.8613V55.7081ZM86.0365 58.0791H84.5924V50.5351H86.0365V58.0791ZM88.9413 58.0791H87.4971V50.5351H88.9413V58.0791ZM91.1671 58.0791L89.8415 52.6906H91.2641L92.2448 56.8505H92.4926L93.4734 52.6906H94.8959L92.9992 60.3423H91.5874L92.1801 58.0791H91.1671ZM99.5271 52.0655H97.5657V50.7507H102.954V52.0655H101.014V58.0791H99.5271V52.0655ZM107.894 54.3718V56.6134C107.908 56.7859 107.937 56.908 107.98 56.9798C108.023 57.0445 108.113 57.0912 108.25 57.1199L108.207 58.2084C107.84 58.2084 107.546 58.1833 107.323 58.133C107.107 58.0827 106.888 57.9821 106.666 57.8312C106.141 58.0827 105.613 58.2084 105.081 58.2084C103.968 58.2084 103.411 57.6193 103.411 56.441C103.411 55.8662 103.565 55.4603 103.874 55.2232C104.183 54.9789 104.657 54.8352 105.297 54.7921L106.45 54.7059V54.3718C106.45 54.1491 106.4 53.9982 106.299 53.9192C106.198 53.8329 106.037 53.7898 105.814 53.7898L103.788 53.876L103.745 52.8738C104.521 52.6654 105.254 52.5612 105.943 52.5612C106.64 52.5612 107.14 52.7049 107.441 52.9923C107.743 53.2797 107.894 53.7395 107.894 54.3718ZM106.45 55.7081L105.469 55.7944C105.067 55.8303 104.866 56.0458 104.866 56.441C104.866 56.8361 105.042 57.0337 105.394 57.0337C105.667 57.0337 105.965 56.9906 106.288 56.9044L106.45 56.8613V55.7081ZM110.715 56.0746V58.0791H109.271V50.5351H110.715V54.8244L111.265 54.7274L112.331 52.6906H113.948L112.547 55.2447L114.023 58.0791H112.396L111.308 55.9776L110.715 56.0746ZM119.171 55.9991H116.003C116.01 56.3296 116.096 56.5703 116.261 56.7212C116.427 56.8649 116.671 56.9367 116.994 56.9367C117.662 56.9367 118.259 56.9152 118.783 56.8721L119.085 56.8397L119.106 57.9067C118.295 58.1078 117.547 58.2084 116.865 58.2084C116.053 58.2084 115.464 57.9929 115.097 57.5618C114.731 57.1307 114.548 56.4302 114.548 55.4603C114.548 53.5276 115.342 52.5612 116.929 52.5612C118.496 52.5612 119.279 53.3731 119.279 54.9969L119.171 55.9991ZM115.992 54.8999H117.856C117.856 54.4688 117.788 54.1706 117.652 54.0054C117.522 53.8329 117.285 53.7467 116.94 53.7467C116.595 53.7467 116.351 53.8365 116.207 54.0161C116.071 54.1886 115.999 54.4832 115.992 54.8999ZM124.201 52.8414L124.18 54.0377C123.727 53.9802 123.347 53.9371 123.038 53.9084C122.736 53.8796 122.495 53.8653 122.315 53.8653C121.956 53.8653 121.726 53.8976 121.626 53.9623C121.518 54.0269 121.464 54.1275 121.464 54.264C121.464 54.4005 121.536 54.4975 121.68 54.555C121.751 54.5837 121.874 54.6197 122.046 54.6628C122.226 54.6987 122.463 54.7418 122.757 54.7921C123.045 54.8424 123.289 54.9106 123.49 54.9969C123.691 55.0759 123.857 55.1801 123.986 55.3094C124.115 55.4387 124.209 55.5968 124.266 55.7836C124.324 55.9704 124.352 56.1967 124.352 56.4625C124.352 57.6265 123.63 58.2084 122.186 58.2084C121.719 58.2084 121.144 58.1438 120.462 58.0144L120.117 57.9498L120.16 56.7427C120.613 56.8002 120.99 56.8433 121.292 56.8721C121.601 56.9008 121.845 56.9152 122.025 56.9152C122.377 56.9152 122.614 56.8793 122.736 56.8074C122.858 56.7427 122.919 56.6422 122.919 56.5056C122.919 56.3691 122.854 56.2686 122.725 56.2039C122.596 56.1464 122.251 56.0674 121.69 55.9668C121.41 55.9237 121.166 55.8662 120.958 55.7944C120.749 55.7153 120.577 55.6147 120.44 55.4926C120.304 55.3633 120.2 55.2052 120.128 55.0184C120.063 54.8244 120.031 54.5837 120.031 54.2963C120.031 54.009 120.081 53.7575 120.182 53.542C120.289 53.3264 120.433 53.1468 120.613 53.0031C120.8 52.8594 121.019 52.7516 121.27 52.6798C121.529 52.6079 121.809 52.572 122.111 52.572C122.319 52.572 122.567 52.59 122.854 52.6259C123.149 52.6546 123.479 52.7049 123.846 52.7768L124.201 52.8414ZM127.892 58.0791V50.7507H130.769C131.531 50.7507 132.102 50.9016 132.483 51.2033C132.863 51.5051 133.054 52.0008 133.054 52.6906C133.054 53.1001 132.993 53.427 132.871 53.6713C132.756 53.9084 132.547 54.1203 132.246 54.3071C132.569 54.4436 132.806 54.6412 132.957 54.8999C133.115 55.1585 133.194 55.5178 133.194 55.9776C133.194 56.696 132.986 57.2277 132.569 57.5726C132.159 57.9103 131.574 58.0791 130.812 58.0791H127.892ZM130.737 55.0184H129.379V56.8074H130.737C131.06 56.8074 131.297 56.7427 131.448 56.6134C131.606 56.4841 131.685 56.247 131.685 55.9021C131.685 55.313 131.369 55.0184 130.737 55.0184ZM130.694 52.0224H129.379V53.7683H130.704C131.265 53.7683 131.545 53.4773 131.545 52.8953C131.545 52.3134 131.261 52.0224 130.694 52.0224ZM138.684 55.9991H135.515C135.522 56.3296 135.608 56.5703 135.774 56.7212C135.939 56.8649 136.183 56.9367 136.507 56.9367C137.175 56.9367 137.771 56.9152 138.296 56.8721L138.597 56.8397L138.619 57.9067C137.807 58.1078 137.06 58.2084 136.377 58.2084C135.565 58.2084 134.976 57.9929 134.61 57.5618C134.243 57.1307 134.06 56.4302 134.06 55.4603C134.06 53.5276 134.854 52.5612 136.442 52.5612C138.008 52.5612 138.791 53.3731 138.791 54.9969L138.684 55.9991ZM135.504 54.8999H137.369C137.369 54.4688 137.3 54.1706 137.164 54.0054C137.035 53.8329 136.798 53.7467 136.453 53.7467C136.108 53.7467 135.864 53.8365 135.72 54.0161C135.583 54.1886 135.511 54.4832 135.504 54.8999ZM142.809 52.6906V53.9192H141.483V56.1285C141.483 56.2362 141.483 56.3296 141.483 56.4087C141.49 56.4805 141.497 56.538 141.505 56.5811C141.519 56.6745 141.558 56.7535 141.623 56.8182C141.688 56.8828 141.792 56.9152 141.936 56.9152L142.755 56.8936L142.819 58.0468C142.338 58.1545 141.972 58.2084 141.72 58.2084C141.397 58.2084 141.127 58.1725 140.912 58.1007C140.696 58.036 140.524 57.9246 140.395 57.7666C140.265 57.6085 140.172 57.4001 140.114 57.1415C140.064 56.8757 140.039 56.5488 140.039 56.1608V53.9192H139.403V52.6906H140.039V51.1926H141.483V52.6906H142.809ZM144.363 58.0791L143.339 52.6906H144.762L145.419 56.8505H145.678L146.497 52.7983H147.984L148.803 56.8505H149.062L149.719 52.6906H151.142L150.118 58.0791H147.855L147.241 54.7813L146.626 58.0791H144.363ZM156.428 55.9991H153.259C153.267 56.3296 153.353 56.5703 153.518 56.7212C153.683 56.8649 153.928 56.9367 154.251 56.9367C154.919 56.9367 155.515 56.9152 156.04 56.8721L156.342 56.8397L156.363 57.9067C155.551 58.1078 154.804 58.2084 154.122 58.2084C153.31 58.2084 152.72 57.9929 152.354 57.5618C151.988 57.1307 151.804 56.4302 151.804 55.4603C151.804 53.5276 152.598 52.5612 154.186 52.5612C155.752 52.5612 156.536 53.3731 156.536 54.9969L156.428 55.9991ZM153.249 54.8999H155.113C155.113 54.4688 155.045 54.1706 154.908 54.0054C154.779 53.8329 154.542 53.7467 154.197 53.7467C153.852 53.7467 153.608 53.8365 153.464 54.0161C153.328 54.1886 153.256 54.4832 153.249 54.8999ZM161.922 55.9991H158.753C158.76 56.3296 158.847 56.5703 159.012 56.7212C159.177 56.8649 159.421 56.9367 159.745 56.9367C160.413 56.9367 161.009 56.9152 161.534 56.8721L161.835 56.8397L161.857 57.9067C161.045 58.1078 160.298 58.2084 159.615 58.2084C158.803 58.2084 158.214 57.9929 157.848 57.5618C157.481 57.1307 157.298 56.4302 157.298 55.4603C157.298 53.5276 158.092 52.5612 159.68 52.5612C161.246 52.5612 162.029 53.3731 162.029 54.9969L161.922 55.9991ZM158.742 54.8999H160.607C160.607 54.4688 160.539 54.1706 160.402 54.0054C160.273 53.8329 160.036 53.7467 159.691 53.7467C159.346 53.7467 159.102 53.8365 158.958 54.0161C158.821 54.1886 158.75 54.4832 158.742 54.8999ZM164.506 54.0485V58.0791H163.061V52.6906H164.495V52.9923C164.976 52.7049 165.425 52.5612 165.842 52.5612C166.201 52.5612 166.499 52.6151 166.736 52.7229C166.981 52.8235 167.175 52.9815 167.318 53.1971C167.469 53.4126 167.577 53.6821 167.642 54.0054C167.706 54.3287 167.739 54.7131 167.739 55.1585V58.0791H166.295V55.2016C166.295 54.7418 166.241 54.4041 166.133 54.1886C166.025 53.9659 165.81 53.8545 165.486 53.8545C165.199 53.8545 164.915 53.9048 164.635 54.0054L164.506 54.0485ZM176.233 50.9662H177.591V58.0791H176.104V52.6475L174.563 53.6389L173.884 52.5289L176.233 50.9662ZM182.91 55.8698H179.72V54.555H182.91V55.8698ZM188.829 56.7859V58.0791H184.216V56.8182L185.736 55.2771C186.009 54.9969 186.235 54.7562 186.415 54.555C186.602 54.3538 186.749 54.1706 186.857 54.0054C186.972 53.8329 187.054 53.6749 187.105 53.5312C187.155 53.3803 187.18 53.2222 187.18 53.057C187.18 52.7193 187.09 52.4858 186.911 52.3565C186.738 52.22 186.49 52.1517 186.167 52.1517C185.693 52.1517 185.168 52.1948 184.594 52.281L184.335 52.3134L184.26 51.1602C184.964 50.9447 185.693 50.8369 186.447 50.8369C187.956 50.8369 188.71 51.5159 188.71 52.8738C188.71 53.1396 188.682 53.3839 188.624 53.6066C188.574 53.8222 188.488 54.0377 188.366 54.2532C188.243 54.4688 188.078 54.6879 187.87 54.9106C187.669 55.1334 187.417 55.3848 187.115 55.665L185.876 56.7859H188.829ZM194.199 58.0791H192.712V50.7507H195.245L196.538 56.0961L197.831 50.7507H200.364V58.0791H198.876V52.4104H198.715L197.281 57.7558H195.794L194.361 52.4104H194.199V58.0791ZM203.278 58.0791H201.834V52.6906H203.278V58.0791ZM203.278 52.0008H201.834V50.5351H203.278V52.0008ZM206.056 54.0485V58.0791H204.612V52.6906H206.045V52.9923C206.527 52.7049 206.976 52.5612 207.393 52.5612C207.752 52.5612 208.05 52.6151 208.287 52.7229C208.531 52.8235 208.725 52.9815 208.869 53.1971C209.02 53.4126 209.128 53.6821 209.192 54.0054C209.257 54.3287 209.289 54.7131 209.289 55.1585V58.0791H207.845V55.2016C207.845 54.7418 207.791 54.4041 207.684 54.1886C207.576 53.9659 207.36 53.8545 207.037 53.8545C206.75 53.8545 206.466 53.9048 206.186 54.0054L206.056 54.0485ZM213.748 56.7212V52.6906H215.192V58.0791H213.759V57.7773C213.249 58.0647 212.8 58.2084 212.412 58.2084C212.038 58.2084 211.729 58.1581 211.485 58.0575C211.241 57.957 211.047 57.7989 210.903 57.5834C210.759 57.3678 210.659 57.0912 210.601 56.7535C210.544 56.4087 210.515 55.9955 210.515 55.5142V52.6906H211.959V55.5357C211.959 55.8015 211.966 56.0243 211.981 56.2039C212.002 56.3763 212.038 56.5164 212.089 56.6242C212.146 56.732 212.221 56.8074 212.315 56.8505C212.415 56.8936 212.548 56.9152 212.714 56.9152C213.023 56.9152 213.321 56.8649 213.608 56.7643L213.748 56.7212ZM219.511 52.6906V53.9192H218.185V56.1285C218.185 56.2362 218.185 56.3296 218.185 56.4087C218.193 56.4805 218.2 56.538 218.207 56.5811C218.221 56.6745 218.261 56.7535 218.326 56.8182C218.39 56.8828 218.494 56.9152 218.638 56.9152L219.457 56.8936L219.522 58.0468C219.04 58.1545 218.674 58.2084 218.423 58.2084C218.099 58.2084 217.83 58.1725 217.614 58.1007C217.399 58.036 217.226 57.9246 217.097 57.7666C216.968 57.6085 216.874 57.4001 216.817 57.1415C216.767 56.8757 216.741 56.5488 216.741 56.1608V53.9192H216.106V52.6906H216.741V51.1926H218.185V52.6906H219.511ZM224.805 55.9991H221.637C221.644 56.3296 221.73 56.5703 221.896 56.7212C222.061 56.8649 222.305 56.9367 222.628 56.9367C223.297 56.9367 223.893 56.9152 224.417 56.8721L224.719 56.8397L224.741 57.9067C223.929 58.1078 223.182 58.2084 222.499 58.2084C221.687 58.2084 221.098 57.9929 220.732 57.5618C220.365 57.1307 220.182 56.4302 220.182 55.4603C220.182 53.5276 220.976 52.5612 222.564 52.5612C224.13 52.5612 224.913 53.3731 224.913 54.9969L224.805 55.9991ZM221.626 54.8999H223.491C223.491 54.4688 223.422 54.1706 223.286 54.0054C223.156 53.8329 222.919 53.7467 222.575 53.7467C222.23 53.7467 221.985 53.8365 221.842 54.0161C221.705 54.1886 221.633 54.4832 221.626 54.8999ZM229.836 52.8414L229.814 54.0377C229.362 53.9802 228.981 53.9371 228.672 53.9084C228.37 53.8796 228.129 53.8653 227.95 53.8653C227.591 53.8653 227.361 53.8976 227.26 53.9623C227.152 54.0269 227.098 54.1275 227.098 54.264C227.098 54.4005 227.17 54.4975 227.314 54.555C227.386 54.5837 227.508 54.6197 227.68 54.6628C227.86 54.6987 228.097 54.7418 228.392 54.7921C228.679 54.8424 228.923 54.9106 229.124 54.9969C229.326 55.0759 229.491 55.1801 229.62 55.3094C229.75 55.4387 229.843 55.5968 229.9 55.7836C229.958 55.9704 229.987 56.1967 229.987 56.4625C229.987 57.6265 229.265 58.2084 227.82 58.2084C227.353 58.2084 226.779 58.1438 226.096 58.0144L225.751 57.9498L225.794 56.7427C226.247 56.8002 226.624 56.8433 226.926 56.8721C227.235 56.9008 227.479 56.9152 227.659 56.9152C228.011 56.9152 228.248 56.8793 228.37 56.8074C228.492 56.7427 228.553 56.6422 228.553 56.5056C228.553 56.3691 228.489 56.2686 228.359 56.2039C228.23 56.1464 227.885 56.0674 227.325 55.9668C227.044 55.9237 226.8 55.8662 226.592 55.7944C226.383 55.7153 226.211 55.6147 226.075 55.4926C225.938 55.3633 225.834 55.2052 225.762 55.0184C225.697 54.8244 225.665 54.5837 225.665 54.2963C225.665 54.009 225.715 53.7575 225.816 53.542C225.924 53.3264 226.067 53.1468 226.247 53.0031C226.434 52.8594 226.653 52.7516 226.904 52.6798C227.163 52.6079 227.443 52.572 227.745 52.572C227.953 52.572 228.201 52.59 228.489 52.6259C228.783 52.6546 229.114 52.7049 229.48 52.7768L229.836 52.8414ZM74.1804 75.2084C73.62 75.2084 73.1458 75.133 72.7578 74.9821C72.377 74.8312 72.0645 74.6049 71.8202 74.3032C71.5831 73.9942 71.4107 73.6026 71.3029 73.1285C71.1952 72.6543 71.1413 72.0939 71.1413 71.4472C71.1413 70.8006 71.1952 70.2402 71.3029 69.766C71.4107 69.2846 71.5831 68.8859 71.8202 68.5697C72.0645 68.2464 72.377 68.0093 72.7578 67.8585C73.1458 67.7004 73.62 67.6214 74.1804 67.6214C74.7408 67.6214 75.2114 67.7004 75.5922 67.8585C75.9802 68.0093 76.2927 68.2464 76.5298 68.5697C76.7741 68.8859 76.9501 69.2846 77.0579 69.766C77.1657 70.2402 77.2195 70.8006 77.2195 71.4472C77.2195 72.0005 77.1764 72.5106 77.0902 72.9776C77.0112 73.4374 76.8567 73.8326 76.6268 74.1631C76.4041 74.4935 76.0951 74.7522 75.7 74.939C75.312 75.1186 74.8055 75.2084 74.1804 75.2084ZM72.9949 73.344C73.2033 73.7248 73.5984 73.9152 74.1804 73.9152C74.475 73.9152 74.7157 73.8721 74.9025 73.7859C75.0965 73.6925 75.2509 73.5488 75.3659 73.3548C75.488 73.1536 75.5707 72.8985 75.6138 72.5896C75.6641 72.2735 75.6892 71.8927 75.6892 71.4472C75.6892 71.0018 75.6641 70.621 75.6138 70.3049C75.5635 69.9887 75.4808 69.7265 75.3659 69.5181C75.2509 69.3098 75.0965 69.1589 74.9025 69.0655C74.7085 68.9649 74.4678 68.9146 74.1804 68.9146C73.893 68.9146 73.6523 68.9649 73.4583 69.0655C73.2644 69.1589 73.1099 69.3098 72.9949 69.5181C72.88 69.7265 72.7974 69.9887 72.7471 70.3049C72.6968 70.621 72.6716 71.0018 72.6716 71.4472C72.6716 72.3309 72.7794 72.9632 72.9949 73.344ZM79.8097 71.0485V75.0791H78.3656V69.6906H79.799V69.9923C80.2803 69.7049 80.7294 69.5612 81.1461 69.5612C81.5053 69.5612 81.8035 69.6151 82.0406 69.7229C82.2849 69.8235 82.4789 69.9815 82.6226 70.1971C82.7734 70.4126 82.8812 70.6821 82.9459 71.0054C83.0105 71.3287 83.0429 71.7131 83.0429 72.1585V75.0791H81.5987V72.2016C81.5987 71.7418 81.5449 71.4041 81.4371 71.1886C81.3293 70.9659 81.1138 70.8545 80.7905 70.8545C80.5031 70.8545 80.2193 70.9048 79.9391 71.0054L79.8097 71.0485ZM87.6928 75.0791H86.2055L87.8544 67.7507H90.678L92.3269 75.0791H90.8397L90.5487 73.7535H87.9837L87.6928 75.0791ZM89.5249 68.9793H89.0076L88.2639 72.4603H90.2685L89.5249 68.9793ZM99.389 72.4495H98.7208V71.1562H100.855V74.9606C100.337 75.0396 99.8704 75.1007 99.4537 75.1438C99.0441 75.1869 98.6777 75.2084 98.3544 75.2084C97.7868 75.2084 97.309 75.1366 96.921 74.9929C96.5403 74.842 96.2313 74.6121 95.9942 74.3032C95.7643 73.987 95.5991 73.5883 95.4985 73.1069C95.4051 72.6255 95.3584 72.0507 95.3584 71.3826C95.3584 70.7144 95.4087 70.1432 95.5092 69.669C95.617 69.1948 95.7859 68.8068 96.0158 68.5051C96.2529 68.2033 96.5582 67.9806 96.9318 67.8369C97.3054 67.6932 97.7617 67.6214 98.3005 67.6214C98.9687 67.6214 99.6908 67.6968 100.467 67.8477L100.855 67.9231L100.812 69.0763C100.38 69.026 99.9889 68.9901 99.6369 68.9685C99.2848 68.9469 98.9723 68.9362 98.6993 68.9362C98.4262 68.9362 98.1963 68.9505 98.0095 68.9793C97.8227 69.008 97.6647 69.0583 97.5353 69.1302C97.4132 69.202 97.3126 69.2954 97.2336 69.4104C97.1617 69.5253 97.1007 69.669 97.0504 69.8414C96.9426 70.1935 96.8887 70.7898 96.8887 71.6304C96.8887 72.0543 96.9103 72.4136 96.9534 72.7081C97.0037 72.9955 97.0863 73.229 97.2012 73.4087C97.3234 73.5883 97.4886 73.7176 97.697 73.7966C97.9054 73.8757 98.1712 73.9152 98.4945 73.9152L99.389 73.8721V72.4495ZM104.328 69.5612C105.219 69.5612 105.855 69.8091 106.236 70.3049C106.617 70.7934 106.807 71.4832 106.807 72.3741C106.807 74.2636 105.981 75.2084 104.328 75.2084C102.676 75.2084 101.85 74.2636 101.85 72.3741C101.85 71.943 101.893 71.555 101.979 71.2101C102.065 70.8653 102.205 70.5707 102.399 70.3264C102.593 70.0821 102.848 69.8953 103.165 69.766C103.481 69.6295 103.869 69.5612 104.328 69.5612ZM104.328 73.9798C104.716 73.9798 104.982 73.8541 105.126 73.6026C105.27 73.344 105.341 72.9345 105.341 72.3741C105.341 71.8136 105.27 71.4113 105.126 71.167C104.982 70.9156 104.716 70.7898 104.328 70.7898C103.94 70.7898 103.675 70.9156 103.531 71.167C103.387 71.4113 103.315 71.8136 103.315 72.3741C103.315 72.5609 103.323 72.7513 103.337 72.9452C103.358 73.132 103.402 73.3045 103.466 73.4625C103.538 73.6134 103.639 73.7392 103.768 73.8397C103.905 73.9331 104.091 73.9798 104.328 73.9798ZM110.064 69.5612C110.955 69.5612 111.591 69.8091 111.972 70.3049C112.353 70.7934 112.543 71.4832 112.543 72.3741C112.543 74.2636 111.717 75.2084 110.064 75.2084C108.412 75.2084 107.586 74.2636 107.586 72.3741C107.586 71.943 107.629 71.555 107.715 71.2101C107.801 70.8653 107.941 70.5707 108.135 70.3264C108.329 70.0821 108.584 69.8953 108.9 69.766C109.216 69.6295 109.604 69.5612 110.064 69.5612ZM110.064 73.9798C110.452 73.9798 110.718 73.8541 110.862 73.6026C111.005 73.344 111.077 72.9345 111.077 72.3741C111.077 71.8136 111.005 71.4113 110.862 71.167C110.718 70.9156 110.452 70.7898 110.064 70.7898C109.676 70.7898 109.41 70.9156 109.267 71.167C109.123 71.4113 109.051 71.8136 109.051 72.3741C109.051 72.5609 109.058 72.7513 109.073 72.9452C109.094 73.132 109.137 73.3045 109.202 73.4625C109.274 73.6134 109.375 73.7392 109.504 73.8397C109.64 73.9331 109.827 73.9798 110.064 73.9798ZM116.738 67.5351H118.182V75.0791H116.749V74.8528C116.246 75.0899 115.811 75.2084 115.444 75.2084C115.057 75.2084 114.726 75.1545 114.453 75.0468C114.187 74.9318 113.972 74.7594 113.806 74.5295C113.641 74.2924 113.523 73.9978 113.451 73.6458C113.379 73.2865 113.343 72.8626 113.343 72.3741C113.343 71.3897 113.526 70.6749 113.893 70.2294C114.259 69.784 114.819 69.5612 115.574 69.5612C115.689 69.5612 115.825 69.572 115.983 69.5936C116.141 69.6079 116.325 69.6331 116.533 69.669L116.738 69.7121V67.5351ZM116.587 73.7859L116.738 73.7535V70.9192C116.357 70.8473 116.005 70.8114 115.682 70.8114C115.1 70.8114 114.809 71.3287 114.809 72.3633C114.809 72.9237 114.873 73.3224 115.003 73.5595C115.132 73.7966 115.347 73.9152 115.649 73.9152C115.944 73.9152 116.256 73.8721 116.587 73.7859ZM124.482 75.0791H122.014V67.7507H124.482C125.135 67.7507 125.664 67.8225 126.066 67.9662C126.475 68.1099 126.792 68.3291 127.014 68.6236C127.244 68.911 127.399 69.2774 127.478 69.7229C127.557 70.1683 127.596 70.6928 127.596 71.2963C127.596 71.8927 127.56 72.4279 127.488 72.9021C127.417 73.3691 127.269 73.7643 127.047 74.0876C126.831 74.4109 126.519 74.6588 126.109 74.8312C125.699 74.9965 125.157 75.0791 124.482 75.0791ZM126.044 72.1693C126.052 72.0543 126.055 71.9178 126.055 71.7598C126.062 71.6017 126.066 71.4185 126.066 71.2101C126.066 70.8006 126.052 70.4773 126.023 70.2402C125.994 69.9959 125.926 69.7732 125.818 69.572C125.71 69.3708 125.552 69.2343 125.344 69.1625C125.135 69.0835 124.848 69.0439 124.482 69.0439H123.501V73.7859H124.482C125.02 73.7859 125.401 73.6637 125.624 73.4194C125.854 73.168 125.994 72.7513 126.044 72.1693ZM132.884 71.3718V73.6134C132.899 73.7859 132.928 73.908 132.971 73.9798C133.014 74.0445 133.104 74.0912 133.24 74.1199L133.197 75.2084C132.831 75.2084 132.536 75.1833 132.313 75.133C132.098 75.0827 131.879 74.9821 131.656 74.8312C131.131 75.0827 130.603 75.2084 130.072 75.2084C128.958 75.2084 128.401 74.6193 128.401 73.441C128.401 72.8662 128.556 72.4603 128.865 72.2232C129.174 71.9789 129.648 71.8352 130.287 71.7921L131.44 71.7059V71.3718C131.44 71.1491 131.39 70.9982 131.289 70.9192C131.189 70.8329 131.027 70.7898 130.805 70.7898L128.778 70.876L128.735 69.8738C129.511 69.6654 130.244 69.5612 130.934 69.5612C131.631 69.5612 132.13 69.7049 132.432 69.9923C132.734 70.2797 132.884 70.7395 132.884 71.3718ZM131.44 72.7081L130.46 72.7944C130.057 72.8303 129.856 73.0458 129.856 73.441C129.856 73.8361 130.032 74.0337 130.384 74.0337C130.657 74.0337 130.955 73.9906 131.279 73.9044L131.44 73.8613V72.7081ZM135.091 75.0791L133.765 69.6906H135.188L136.169 73.8505H136.417L137.397 69.6906H138.82L136.923 77.3423H135.511L136.104 75.0791H135.091ZM141.137 75.0791H139.585V73.2901H141.137V75.0791ZM150.606 75.0791H149.118V72.04H146.392V75.0791H144.904V67.7507H146.392V70.7467H149.118V67.7507H150.606V75.0791ZM156.196 71.3718V73.6134C156.211 73.7859 156.239 73.908 156.282 73.9798C156.326 74.0445 156.415 74.0912 156.552 74.1199L156.509 75.2084C156.142 75.2084 155.848 75.1833 155.625 75.133C155.409 75.0827 155.19 74.9821 154.968 74.8312C154.443 75.0827 153.915 75.2084 153.383 75.2084C152.27 75.2084 151.713 74.6193 151.713 73.441C151.713 72.8662 151.867 72.4603 152.176 72.2232C152.485 71.9789 152.96 71.8352 153.599 71.7921L154.752 71.7059V71.3718C154.752 71.1491 154.702 70.9982 154.601 70.9192C154.501 70.8329 154.339 70.7898 154.116 70.7898L152.09 70.876L152.047 69.8738C152.823 69.6654 153.556 69.5612 154.246 69.5612C154.942 69.5612 155.442 69.7049 155.744 69.9923C156.045 70.2797 156.196 70.7395 156.196 71.3718ZM154.752 72.7081L153.771 72.7944C153.369 72.8303 153.168 73.0458 153.168 73.441C153.168 73.8361 153.344 74.0337 153.696 74.0337C153.969 74.0337 154.267 73.9906 154.59 73.9044L154.752 73.8613V72.7081ZM159.017 71.0485V75.0791H157.573V69.6906H159.006V69.9923C159.488 69.7049 159.937 69.5612 160.353 69.5612C160.713 69.5612 161.011 69.6151 161.248 69.7229C161.492 69.8235 161.686 69.9815 161.83 70.1971C161.981 70.4126 162.088 70.6821 162.153 71.0054C162.218 71.3287 162.25 71.7131 162.25 72.1585V75.0791H160.806V72.2016C160.806 71.7418 160.752 71.4041 160.644 71.1886C160.537 70.9659 160.321 70.8545 159.998 70.8545C159.71 70.8545 159.427 70.9048 159.146 71.0054L159.017 71.0485ZM168.412 75.7473C168.412 76.3652 168.175 76.8214 167.7 77.116C167.233 77.4105 166.594 77.5578 165.782 77.5578C164.977 77.5578 164.356 77.4501 163.918 77.2345C163.479 77.019 163.26 76.6274 163.26 76.0598C163.26 75.6072 163.519 75.1797 164.036 74.7773C163.77 74.5977 163.638 74.3247 163.638 73.9583C163.638 73.8146 163.745 73.5775 163.961 73.247L164.058 73.0961C163.569 72.7369 163.325 72.216 163.325 71.5334C163.325 70.8509 163.53 70.3552 163.939 70.0462C164.356 69.7373 164.906 69.5828 165.588 69.5828C165.911 69.5828 166.217 69.6187 166.504 69.6906L166.677 69.7229L168.412 69.669V70.8222L167.603 70.7575C167.762 71.0018 167.841 71.2461 167.841 71.4903C167.841 71.8496 167.794 72.1513 167.7 72.3956C167.614 72.6327 167.478 72.8267 167.291 72.9776C167.104 73.1213 166.867 73.2254 166.58 73.2901C166.292 73.3548 165.955 73.3871 165.567 73.3871C165.387 73.3871 165.24 73.3727 165.125 73.344C165.053 73.5164 165.017 73.6673 165.017 73.7966C165.017 73.9188 165.078 74.0014 165.2 74.0445C165.308 74.0804 165.595 74.1056 166.062 74.1199C166.515 74.1199 166.892 74.1487 167.194 74.2062C167.496 74.2636 167.736 74.357 167.916 74.4864C168.096 74.6085 168.221 74.7738 168.293 74.9821C168.372 75.1833 168.412 75.4383 168.412 75.7473ZM164.769 71.4903C164.769 72.022 165.046 72.2878 165.599 72.2878C166.145 72.2878 166.418 72.022 166.418 71.4903C166.418 70.9659 166.145 70.7036 165.599 70.7036C165.046 70.7036 164.769 70.9659 164.769 71.4903ZM164.683 75.9089C164.683 76.2179 165.064 76.3724 165.825 76.3724C166.58 76.3724 166.957 76.1927 166.957 75.8335C166.957 75.6395 166.892 75.5138 166.763 75.4563C166.655 75.4132 166.382 75.3845 165.944 75.3701L164.974 75.2946C164.78 75.4886 164.683 75.6934 164.683 75.9089ZM173.088 69.0655H171.127V67.7507H176.515V69.0655H174.575V75.0791H173.088V69.0655ZM178.771 75.0791H177.327V69.6906H178.771V75.0791ZM178.771 69.0008H177.327V67.5351H178.771V69.0008ZM184.988 75.7473C184.988 76.3652 184.751 76.8214 184.277 77.116C183.81 77.4105 183.17 77.5578 182.358 77.5578C181.554 77.5578 180.932 77.4501 180.494 77.2345C180.056 77.019 179.836 76.6274 179.836 76.0598C179.836 75.6072 180.095 75.1797 180.612 74.7773C180.347 74.5977 180.214 74.3247 180.214 73.9583C180.214 73.8146 180.321 73.5775 180.537 73.247L180.634 73.0961C180.145 72.7369 179.901 72.216 179.901 71.5334C179.901 70.8509 180.106 70.3552 180.515 70.0462C180.932 69.7373 181.482 69.5828 182.164 69.5828C182.488 69.5828 182.793 69.6187 183.08 69.6906L183.253 69.7229L184.988 69.669V70.8222L184.18 70.7575C184.338 71.0018 184.417 71.2461 184.417 71.4903C184.417 71.8496 184.37 72.1513 184.277 72.3956C184.19 72.6327 184.054 72.8267 183.867 72.9776C183.68 73.1213 183.443 73.2254 183.156 73.2901C182.868 73.3548 182.531 73.3871 182.143 73.3871C181.963 73.3871 181.816 73.3727 181.701 73.344C181.629 73.5164 181.593 73.6673 181.593 73.7966C181.593 73.9188 181.654 74.0014 181.776 74.0445C181.884 74.0804 182.171 74.1056 182.638 74.1199C183.091 74.1199 183.468 74.1487 183.77 74.2062C184.072 74.2636 184.312 74.357 184.492 74.4864C184.672 74.6085 184.797 74.7738 184.869 74.9821C184.948 75.1833 184.988 75.4383 184.988 75.7473ZM181.345 71.4903C181.345 72.022 181.622 72.2878 182.175 72.2878C182.721 72.2878 182.994 72.022 182.994 71.4903C182.994 70.9659 182.721 70.7036 182.175 70.7036C181.622 70.7036 181.345 70.9659 181.345 71.4903ZM181.259 75.9089C181.259 76.2179 181.64 76.3724 182.401 76.3724C183.156 76.3724 183.533 76.1927 183.533 75.8335C183.533 75.6395 183.468 75.5138 183.339 75.4563C183.231 75.4132 182.958 75.3845 182.52 75.3701L181.55 75.2946C181.356 75.4886 181.259 75.6934 181.259 75.9089ZM187.307 71.0269V75.0791H185.863V67.5351H187.307V69.9492C187.803 69.6906 188.248 69.5612 188.643 69.5612C189.002 69.5612 189.301 69.6151 189.538 69.7229C189.782 69.8235 189.976 69.9815 190.12 70.1971C190.271 70.4126 190.378 70.6821 190.443 71.0054C190.508 71.3287 190.54 71.7131 190.54 72.1585V75.0791H189.096V72.1908C189.096 71.7382 189.042 71.4041 188.934 71.1886C188.826 70.9659 188.611 70.8545 188.288 70.8545C188.007 70.8545 187.727 70.8976 187.447 70.9838L187.307 71.0269ZM194.805 69.6906V70.9192H193.479V73.1285C193.479 73.2362 193.479 73.3296 193.479 73.4087C193.486 73.4805 193.494 73.538 193.501 73.5811C193.515 73.6745 193.555 73.7535 193.619 73.8182C193.684 73.8828 193.788 73.9152 193.932 73.9152L194.751 73.8936L194.816 75.0468C194.334 75.1545 193.968 75.2084 193.716 75.2084C193.393 75.2084 193.124 75.1725 192.908 75.1007C192.693 75.036 192.52 74.9246 192.391 74.7666C192.261 74.6085 192.168 74.4001 192.111 74.1415C192.06 73.8757 192.035 73.5488 192.035 73.1608V70.9192H191.399V69.6906H192.035V68.1926H193.479V69.6906H194.805ZM197.362 75.0791H195.81V73.344H197.362V75.0791ZM197.222 72.3848H195.95L195.81 67.7507H197.373L197.222 72.3848Z" fill="#3F3F3F"/>
<defs>
<filter id="filter0_d_154_22338" x="21" y="0" width="225" height="98.8263" filterUnits="userSpaceOnUse" color-interpolation-filters="sRGB">
<feFlood flood-opacity="0" result="BackgroundImageFix"/>
<feColorMatrix in="SourceAlpha" type="matrix" values="0 0 0 0 0 0 0 0 0 0 0 0 0 0 0 0 0 0 127 0" result="hardAlpha"/>
<feOffset dy="2.82626"/>
<feComposite in2="hardAlpha" operator="out"/>
<feColorMatrix type="matrix" values="0 0 0 0 0.719954 0 0 0 0 0.591651 0 0 0 0 0.0548051 0 0 0 1 0"/>
<feBlend mode="normal" in2="BackgroundImageFix" result="effect1_dropShadow_154_22338"/>
<feBlend mode="normal" in="SourceGraphic" in2="effect1_dropShadow_154_22338" result="shape"/>
</filter>
<filter id="filter1_d_154_22338" x="27" y="9" width="212" height="82.8263" filterUnits="userSpaceOnUse" color-interpolation-filters="sRGB">
<feFlood flood-opacity="0" result="BackgroundImageFix"/>
<feColorMatrix in="SourceAlpha" type="matrix" values="0 0 0 0 0 0 0 0 0 0 0 0 0 0 0 0 0 0 127 0" result="hardAlpha"/>
<feOffset dy="2.82626"/>
<feComposite in2="hardAlpha" operator="out"/>
<feColorMatrix type="matrix" values="0 0 0 0 0.906608 0 0 0 0 0.906608 0 0 0 0 0.906608 0 0 0 1 0"/>
<feBlend mode="normal" in2="BackgroundImageFix" result="effect1_dropShadow_154_22338"/>
<feBlend mode="normal" in="SourceGraphic" in2="effect1_dropShadow_154_22338" result="shape"/>
</filter>
</defs>
</svg>
