<svg width="17" height="16" viewBox="0 0 17 16" fill="none" xmlns="http://www.w3.org/2000/svg">
<path d="M5.06539 4.62357V3.24636L5.35423 1.96751L6.60588 0.885417L7.85753 0.393555H9.68686L11.3236 1.47565L11.9013 3.24636L11.3236 5.31218L12.5753 4.91869H13.4418L14.6935 5.31218L16.0414 6.39428V8.16498L15.0786 10.2308L13.0567 11.2145L11.3236 10.9194V13.2803L10.3608 14.8543L8.91662 15.7397L6.22076 14.8543L5.06539 13.2803L5.35423 10.9194L3.91002 11.2145L2.17697 10.9194L1.0216 9.64057L0.636475 7.86986L1.0216 5.80404L2.56209 4.62357H3.91002H5.06539Z" fill="#F8BA00"/>
<ellipse cx="8.3389" cy="8.06651" rx="2.40702" ry="2.36094" fill="white"/>
<path d="M16.3401 7.7875C16.3189 7.40384 16.2457 6.98674 16.0744 6.52636C15.9704 6.24305 15.8279 5.97548 15.6392 5.75119C15.3677 5.43836 15.0287 5.15505 14.6552 4.97011C14.195 4.74779 13.7155 4.55694 13.3227 4.55301L12.9452 4.56481C12.6814 4.58055 12.4388 4.64351 12.1731 4.79304C12.1076 4.83042 12.046 4.86781 11.9843 4.90715L12.0132 4.83632C12.0575 4.71631 12.098 4.59039 12.1095 4.46054C12.123 4.31692 12.1057 4.21067 12.1037 4.13984L12.1191 3.75423L12.1134 3.36074C12.1134 3.12661 12.1153 2.8433 12.0729 2.5777C11.9882 2.0819 11.7591 1.57036 11.3296 1.18277C11.1063 0.982089 10.8656 0.736161 10.571 0.564992C10.2166 0.356443 9.78915 0.12035 9.28272 0.0377175C8.96114 -0.0173711 8.64534 -0.00753388 8.26984 0.0377175C7.94826 0.0770664 7.66327 0.147893 7.40524 0.232493C7.18765 0.301354 6.96235 0.391855 6.75438 0.513837C6.35771 0.744028 6.00532 1.05489 5.66063 1.36575C5.29477 1.69234 5.02325 2.09173 4.88846 2.58163C4.81144 2.85904 4.81143 3.08923 4.81336 3.28794C4.81528 3.50436 4.84031 3.72865 4.88075 3.91556L4.97703 4.42513C4.97703 4.42513 4.98089 4.4389 4.98281 4.44677C4.97319 4.44087 4.96355 4.43496 4.95392 4.42906C4.78062 4.34052 4.5688 4.29528 4.30692 4.26183L3.89484 4.20871C3.60407 4.18313 3.3961 4.18707 3.17466 4.22248C2.99558 4.25593 2.7414 4.31888 2.45641 4.44874C2.29273 4.52153 2.12905 4.61007 1.98463 4.69073C1.42428 5.00159 0.977535 5.38131 0.698321 5.88498C0.555825 6.14468 0.451842 6.42406 0.397925 6.73098C0.357487 6.97101 0.345932 7.16972 0.347857 7.37433L0.351712 8.18689C0.355563 8.40724 0.388297 8.61579 0.457619 8.8027C0.530792 9.00732 0.659807 9.25325 0.781121 9.48344C0.87355 9.66248 0.962135 9.82184 1.06419 9.96547L1.38384 10.4534C1.52441 10.6797 1.66498 10.8213 1.82096 10.9236C1.98463 11.0279 2.14446 11.1282 2.32161 11.203C2.41404 11.2423 2.5084 11.2718 2.60468 11.2915L2.75295 11.3112L2.84346 11.321C2.97247 11.3545 3.02254 11.3919 3.15155 11.4174L3.71383 11.5138C3.93527 11.5394 4.12976 11.506 4.29537 11.4529L4.68242 11.325L4.92698 11.2718L5.02903 11.2463L5.08872 11.2364L5.12531 11.2325C5.00592 11.5414 4.92889 11.8444 4.91734 12.1729L4.88653 13.1291C4.88653 13.4282 4.93082 13.7076 5.08102 13.981C5.20041 14.1994 5.31979 14.4375 5.49695 14.6618C5.63367 14.831 5.79157 14.9451 5.94755 15.0415C6.17477 15.1753 6.44628 15.3523 6.75053 15.5156C6.91035 15.6042 7.07789 15.6888 7.26275 15.7596C7.63439 15.9052 8.02144 15.9563 8.35457 15.9819C8.50284 15.9937 8.66651 16.0114 8.86485 15.9898C9.18643 15.9426 9.50608 15.8009 9.79492 15.6612C10.182 15.4783 10.4881 15.2736 10.698 14.9903C10.8405 14.8015 10.9541 14.585 11.0639 14.3607C11.2507 13.9712 11.4047 13.6702 11.5241 13.3534C11.6127 13.1272 11.6435 12.895 11.6551 12.6589C11.6666 12.4051 11.6743 12.1474 11.632 11.8896C11.5992 11.6988 11.5569 11.5552 11.5107 11.4371L11.4413 11.2837L11.4721 11.2974L11.6397 11.3702L11.7802 11.4155L12.0479 11.4942C12.2135 11.5394 12.3926 11.5689 12.6102 11.567H12.7527L12.822 11.563L12.8894 11.5591L13.0223 11.5532C13.1725 11.5512 13.3438 11.5296 13.5345 11.4725C13.8021 11.386 14.1141 11.2699 14.3817 11.0987C14.7284 10.8941 15.1077 10.658 15.4177 10.3117L15.799 9.85529C15.9704 9.62706 16.1109 9.34178 16.213 8.99354C16.3343 8.56464 16.3613 8.13574 16.342 7.79734L16.3401 7.7875ZM5.41029 2.72328C5.51235 2.33766 5.70877 2.04058 6.00917 1.7671C6.34808 1.46215 6.67735 1.17883 7.01626 0.980121C7.18187 0.883716 7.37443 0.805018 7.56122 0.745994C7.79614 0.673199 8.0484 0.614178 8.33146 0.582699C8.68 0.54335 8.93417 0.537447 9.19221 0.582699C9.58888 0.653527 9.95282 0.85224 10.2879 1.05685C10.4958 1.18277 10.7173 1.40509 10.9464 1.61954C11.2603 1.90876 11.4298 2.29045 11.4952 2.68197C11.528 2.87281 11.5338 3.13252 11.5357 3.36468L11.5511 3.768L11.5665 4.13984L11.578 4.41726L11.5164 4.65138L11.4124 4.91699L11.3874 4.98388L11.3489 5.06062L11.2892 5.17866L11.1756 5.35179L11.1082 5.43443L11.0369 5.54461L10.9715 5.65085L10.8829 5.78267L10.8271 5.84366L10.7481 5.92432C10.7154 5.96367 10.6615 6.0286 10.6191 6.10533L10.5209 6.26666L10.5093 6.28437C10.4342 6.1978 10.3476 6.11123 10.2359 6.04237L10.1781 6.00499L9.94513 5.89088L9.81803 5.8476L9.63318 5.78464C9.32508 5.67446 9.02468 5.65872 8.72814 5.65675L8.25829 5.65085C8.14082 5.64692 8.00602 5.64101 7.86545 5.66069L7.79229 5.66856L7.72682 5.67839L7.67098 5.6902L7.61705 5.702L7.55736 5.71774L7.50729 5.73348L7.46878 5.74725L7.43027 5.76103L7.38598 5.77873L7.35903 5.79054L7.32051 5.80824L7.29355 5.82202L7.26466 5.83579L7.22808 5.85546L7.18957 5.87908L7.13179 5.92039L7.10869 5.94007C7.09714 5.9499 7.08944 5.96367 7.07981 5.97548C7.05478 5.98532 7.03167 5.99515 7.00471 6.00696C6.83333 6.09746 6.66965 6.18993 6.52138 6.30994V6.30601L6.45206 6.186L6.3346 6.00302L6.12085 5.69413L6.02265 5.55444L5.9668 5.47181C5.85511 5.29868 5.8012 5.16292 5.73188 4.97798C5.65486 4.7832 5.5682 4.53137 5.52006 4.29527L5.41415 3.78768C5.38141 3.64405 5.35831 3.44731 5.35446 3.2722C5.34868 3.07939 5.34482 2.92987 5.39874 2.72525L5.41029 2.72328ZM10.3476 9.0388L10.3379 9.06044L10.2667 9.18439L10.2128 9.26702L10.1281 9.39097C10.0703 9.4795 10.0067 9.56017 9.92202 9.64477L9.84692 9.7156L9.75257 9.78643L9.61199 9.88283L9.49646 9.95759L9.327 10.0619L9.15562 10.1425L9.06126 10.174C8.98424 10.1898 8.90337 10.1878 8.79746 10.1799L8.46047 10.1484C8.28524 10.1366 8.10808 10.113 7.95018 10.0697L7.37442 9.91038L7.28393 9.8789L7.14335 9.8002L7.06055 9.75298L6.9893 9.70379L6.89495 9.61526L6.81215 9.53066L6.66194 9.35555L6.5522 9.25325C6.47902 9.18636 6.44243 9.14701 6.40585 9.08208L6.3346 8.93649C6.26143 8.8086 6.21135 8.65711 6.1844 8.50168L6.1767 8.18296C6.1767 7.99802 6.19017 7.86029 6.25757 7.7206L6.40199 7.39007L6.4251 7.33892L6.5079 7.19529L6.75245 6.83328C6.86221 6.68769 7.02589 6.56965 7.26466 6.42209L7.2743 6.41618C7.30126 6.41618 7.32628 6.42012 7.35132 6.41422L7.41294 6.39848L7.44953 6.38471L7.48419 6.37094L7.50729 6.3611L7.52847 6.35323L7.56122 6.34142L7.58047 6.33356L7.60165 6.32568L7.62861 6.31585L7.64016 6.31191L7.68446 6.30011L7.71526 6.29223L7.75185 6.2824L7.79229 6.27256L7.8462 6.26272L7.90975 6.24895L7.95211 6.23715C8.03876 6.21944 8.14082 6.21747 8.25443 6.21354L8.72621 6.21748C9.00542 6.21748 9.23457 6.23518 9.45794 6.31388L9.68132 6.38274L9.76989 6.40831L9.93742 6.47914L9.98171 6.50078C10.0587 6.54013 10.155 6.63064 10.2301 6.71524C10.3071 6.81361 10.3726 6.89428 10.4458 7.08118L10.5132 7.26415L10.5478 7.36253C10.5671 7.42745 10.569 7.53173 10.571 7.66945V7.99211C10.5632 8.19476 10.5363 8.40724 10.5035 8.56661C10.4708 8.71416 10.4342 8.85582 10.3456 9.03683L10.3476 9.0388ZM5.0194 10.7367L4.9366 10.7505L4.81721 10.7721L4.56496 10.8134C4.41669 10.8449 4.29152 10.8961 4.15095 10.9374C4.02963 10.9728 3.91987 10.9866 3.77352 10.9649L3.24398 10.8685C3.2228 10.8646 3.14193 10.8252 2.97247 10.782L2.80687 10.7544L2.69325 10.7426L2.52187 10.6954C2.389 10.6403 2.25615 10.5577 2.09825 10.4573C1.99234 10.3904 1.93842 10.3412 1.82096 10.1543L1.47435 9.64084C1.39347 9.53263 1.31452 9.39687 1.22594 9.22964C1.10655 9.00142 0.983316 8.75942 0.931324 8.61383C0.885109 8.48594 0.862003 8.33839 0.860077 8.16525V7.36253C0.863929 7.17759 0.875478 7.02413 0.915916 6.81164C0.960205 6.56768 1.04108 6.34929 1.16047 6.13484C1.37614 5.74135 1.73238 5.4305 2.23881 5.14718L2.66629 4.92682C2.90892 4.82058 3.12074 4.7714 3.26901 4.74779C3.44617 4.71631 3.58867 4.71238 3.85633 4.73402L4.25493 4.7773C4.48793 4.79894 4.65546 4.83435 4.75559 4.87764C4.88076 4.92879 4.96549 4.98388 5.12916 5.11373L5.19848 5.17079L5.22159 5.19047C5.22159 5.19047 5.22737 5.1944 5.2293 5.19637C5.30632 5.38131 5.39104 5.56625 5.53161 5.77283L5.60286 5.87711L5.71262 6.01876L5.9591 6.31388L6.06694 6.45357L6.14011 6.55587L6.20943 6.65818C6.15166 6.73688 6.09774 6.81558 6.05153 6.88641L5.94177 7.06938L5.90134 7.15005L5.7492 7.4727C5.63367 7.72257 5.62596 7.97047 5.62789 8.18099C5.62789 8.32068 5.6279 8.44856 5.64715 8.57448C5.67604 8.7968 5.73573 9.01519 5.84549 9.22964L5.92059 9.36343C5.99569 9.49328 6.08619 9.59362 6.18247 9.68215L6.19595 9.69396L6.16899 9.70576L6.05731 9.78052L5.92637 9.88677C5.6953 10.1032 5.51236 10.3904 5.36024 10.6836H5.35446C5.34098 10.6836 5.32749 10.6855 5.31401 10.6895L5.27166 10.7013L5.25048 10.7092H5.23314L5.19463 10.717L5.15034 10.721L5.09065 10.7269L5.01555 10.7347L5.0194 10.7367ZM11.0446 12.6196C11.0369 12.8202 11.0177 12.9757 10.9657 13.1134C10.8579 13.3928 10.7057 13.6761 10.5132 14.0715C10.413 14.2781 10.3148 14.4591 10.2128 14.5949C10.0799 14.77 9.87581 14.9116 9.5369 15.0671C9.26539 15.189 8.97461 15.2992 8.7705 15.3228C8.66074 15.3386 8.53942 15.3346 8.395 15.3287C8.09268 15.313 7.76148 15.2717 7.47456 15.1654C7.32244 15.1084 7.17994 15.0395 7.0413 14.9628C6.76401 14.8054 6.50982 14.6283 6.2672 14.4729C6.14203 14.3962 6.06308 14.3391 5.98028 14.2348C5.85126 14.0794 5.73765 13.8787 5.60864 13.6603C5.50466 13.4793 5.48348 13.3652 5.47963 13.1173L5.49502 12.1828C5.50272 11.8778 5.5759 11.6083 5.7184 11.2718C5.87052 10.902 6.07656 10.5085 6.30378 10.2803L6.39814 10.1779L6.46361 10.1091L6.531 10.052L6.63884 10.1465L6.77942 10.2468L6.87954 10.3019L7.05285 10.3983L7.20882 10.4613L7.82117 10.6305C8.02528 10.6777 8.23517 10.6954 8.43159 10.7013L8.7859 10.719C8.89952 10.719 9.03046 10.7131 9.15947 10.6757L9.33855 10.6226C9.44831 10.5754 9.52149 10.5242 9.57733 10.4849L9.76219 10.3452L9.86617 10.2606L9.99904 10.1504L10.0202 10.1347L10.0472 10.176L10.0722 10.2075L10.0876 10.2252L10.0992 10.2389L10.1223 10.2704L10.1396 10.294L10.1646 10.3334L10.2956 10.4967L10.3765 10.5832C10.4265 10.6462 10.4593 10.6974 10.492 10.7623L10.6268 11.0062L10.6961 11.0948L10.7366 11.1617L10.75 11.1892L10.8097 11.3506L10.9387 11.6496C10.9695 11.7362 10.9965 11.8286 11.0215 11.9919C11.0523 12.167 11.0523 12.3835 11.0446 12.6235V12.6196ZM15.6604 8.82238C15.5795 9.11159 15.4736 9.32998 15.3503 9.49918L15.0018 9.92218C14.7649 10.1957 14.4357 10.414 14.1141 10.6108C13.8984 10.7347 13.6192 10.8272 13.365 10.8941C13.2341 10.9315 13.1128 10.9472 13.0203 10.9492L12.8875 10.9433L12.8201 10.9394L12.7373 10.9354H12.614C12.4446 10.9315 12.3464 10.9098 12.2135 10.8705L11.9651 10.7879L11.8342 10.7465L11.709 10.6915L11.6493 10.6698L11.5877 10.6501L11.5338 10.6344L11.4875 10.6226L11.4452 10.6128L11.399 10.601L11.3759 10.5951L11.3566 10.5911L11.3162 10.5793L11.2834 10.5695L11.2642 10.5636L11.2334 10.5557L11.2141 10.5518L11.1891 10.5459L11.1371 10.536L11.0966 10.5321H11.0793C11.0793 10.5321 11.062 10.5321 11.0524 10.5321L11.035 10.5006C10.9907 10.4003 10.933 10.296 10.854 10.1917L10.7423 10.0579L10.6615 9.95366L10.646 9.93202L10.6229 9.89857L10.6018 9.86906L10.5844 9.84348L10.5575 9.80413L10.5151 9.75101L10.4862 9.7215L10.4727 9.70773C10.4843 9.69396 10.4958 9.68215 10.5074 9.66838L10.5998 9.54443L10.6634 9.45196L10.7423 9.33195L10.7847 9.26112C10.8983 9.03879 10.9484 8.84402 10.985 8.68859C11.035 8.49382 11.0716 8.25772 11.0851 8.01179V7.67535C11.0832 7.54156 11.0947 7.38614 11.0408 7.20316L10.9888 7.06938L10.9118 6.89821C10.8848 6.83132 10.8559 6.77229 10.8251 6.7172C10.8251 6.7172 10.829 6.71524 10.829 6.71327L10.8656 6.67786L10.9022 6.63457L10.9291 6.59522L10.9503 6.55981L10.9657 6.53226L11.0485 6.38274L11.1332 6.27847L11.1794 6.23124L11.2988 6.10336L11.4144 5.93219L11.476 5.83579L11.5222 5.76693L11.5877 5.68429L11.6647 5.56231C11.6897 5.54461 11.7167 5.5269 11.7475 5.50919C11.917 5.40295 12.1326 5.27507 12.3598 5.16489C12.5813 5.05668 12.7373 5.02914 12.9568 5.02914L13.2995 5.03897C13.5441 5.05864 13.9985 5.23768 14.4125 5.46197C14.7014 5.61543 14.9825 5.86334 15.2078 6.13681C15.3407 6.29421 15.4562 6.50079 15.5429 6.73098C15.6931 7.13431 15.7509 7.48451 15.7701 7.82095C15.7855 8.09639 15.7624 8.47217 15.6623 8.82041L15.6604 8.82238Z" fill="black"/>
</svg>
