<svg width="44" height="44" viewBox="0 0 44 44" fill="none" xmlns="http://www.w3.org/2000/svg">
<rect width="43.5345" height="43.5345" rx="15.0119" fill="#F3C402"/>
<g clip-path="url(#clip0_142_22254)">
<path d="M22.0041 13.0901C21.5667 12.9068 21.0627 13.0089 20.7261 13.3443L16.5295 17.5406C16.5295 17.5406 16.4057 17.6913 16.131 17.6913C15.7771 17.6913 12.1728 17.6919 12.1728 17.6919C11.5245 17.6919 11 18.2164 11 18.8647V25.9009C11 26.5492 11.5245 27.0737 12.1728 27.0737C12.1728 27.0737 15.8929 27.0737 16.0853 27.0737C16.2776 27.0737 16.4099 27.1051 16.5752 27.2702C16.7403 27.4355 20.7261 31.4213 20.7261 31.4213C20.9507 31.6459 21.2506 31.7649 21.5552 31.7649C21.7065 31.7649 21.8587 31.7362 22.0041 31.6755C22.4428 31.4946 22.728 31.0662 22.728 30.5921V14.1735C22.728 13.6994 22.4428 13.271 22.0041 13.0901ZM12.7592 26.4873H12.1728C11.8491 26.4873 11.5864 26.2246 11.5864 25.9009V18.8641C11.5864 18.5401 11.8491 18.2777 12.1728 18.2777H12.7592V26.4873ZM14.5184 26.4873H13.3456V18.2777H14.5184V26.4873ZM22.1416 30.5921C22.1416 31.1785 21.5001 31.4166 20.9688 30.8853C20.6437 30.5602 16.864 26.7805 16.864 26.7805C16.6441 26.5606 16.4427 26.4873 16.1313 26.4873H15.1048V18.2777H16.1313C16.4427 18.2777 16.5708 18.2777 16.864 17.9845C16.864 17.9845 20.607 14.2415 20.9688 13.8797C21.491 13.3572 22.1416 13.5953 22.1416 14.1729C22.1416 14.4843 22.1416 30.2808 22.1416 30.5921Z" fill="#394240"/>
<path d="M14.5185 18.2778H13.3457V26.4875H14.5185V18.2778Z" fill="#ED2B2B"/>
<path d="M11.5864 18.8637V25.9006C11.5864 26.2243 11.8491 26.487 12.1728 26.487H12.7592V18.2773H12.1728C11.8491 18.2773 11.5864 18.5398 11.5864 18.8637Z" fill="#FFEEA9"/>
<path d="M20.9689 13.8795C20.6071 14.2411 16.8641 17.9844 16.8641 17.9844C16.5709 18.2776 16.4427 18.2776 16.1314 18.2776H15.1049V26.4872H16.1314C16.4427 26.4872 16.6442 26.5605 16.8641 26.7804C16.8641 26.7804 20.6437 30.56 20.9689 30.8852C21.5002 31.4165 22.1417 31.1784 22.1417 30.592C22.1417 30.2806 22.1417 14.4841 22.1417 14.1727C22.1417 13.5954 21.4911 13.3571 20.9689 13.8795Z" fill="#FFEEA9"/>
<path opacity="0.2" d="M11.5864 18.8642V25.9011C11.5864 26.2248 11.8491 26.4875 12.1728 26.4875H12.7592V18.2778H12.1728C11.8491 18.2778 11.5864 18.5402 11.5864 18.8642Z" fill="black"/>
<path d="M31.3032 20L26 25.3033" stroke="#ED2B2B" stroke-width="1.58333" stroke-linecap="round"/>
<path d="M26 20L31.3033 25.3033" stroke="#ED2B2B" stroke-width="1.58333" stroke-linecap="round"/>
</g>
<defs>
<clipPath id="clip0_142_22254">
<rect width="22" height="19" fill="white" transform="translate(11 13)"/>
</clipPath>
</defs>
</svg>
