<svg width="101" height="119" viewBox="0 0 101 119" fill="none" xmlns="http://www.w3.org/2000/svg">
<path d="M48.6617 3.21303C48.6416 1.81335 49.3827 0.654263 50.3169 0.624134C51.2511 0.594005 52.0248 1.70424 52.0449 3.10392L52.0734 5.09025L52.5228 3.24063C52.8424 1.92506 53.8133 1.24674 54.6914 1.72557C55.5695 2.2044 56.0222 3.65905 55.7026 4.97462L54.1595 11.3268C53.8398 12.6423 52.8689 13.3206 51.9908 12.8418C51.7097 12.6885 51.4722 12.4352 51.2896 12.1184C51.0525 12.3217 50.7791 12.4416 50.4868 12.4511C50.2473 12.4588 50.0183 12.3915 49.8099 12.2637C49.654 12.9786 49.2882 13.5828 48.7799 13.86C47.9018 14.3388 46.9308 13.6605 46.6112 12.3449L45.0681 5.99279C44.7485 4.67722 45.2012 3.22257 46.0793 2.74374C46.9574 2.26491 47.9283 2.94322 48.2479 4.2588L48.7037 6.13491L48.6617 3.21303Z" fill="#FAFAFA"/>
<path d="M16.2727 53.5465C16.2727 72.2103 31.4027 87.3403 50.0666 87.3403C68.7304 87.3403 83.8604 72.2103 83.8604 53.5465V44.6198H16.2727V53.5465Z" fill="#A97337"/>
<g style="mix-blend-mode:multiply">
<path fill-rule="evenodd" clip-rule="evenodd" d="M45.9606 74.6767C45.9591 75.0121 45.8698 75.3441 45.6976 75.654C45.5239 75.9666 45.2693 76.2506 44.9484 76.4899C44.6275 76.7292 44.2465 76.919 43.8273 77.0484C43.408 77.1779 42.9586 77.2446 42.5047 77.2446C42.0509 77.2446 41.6015 77.1779 41.1822 77.0484C40.7629 76.919 40.382 76.7292 40.061 76.4899C39.7401 76.2506 39.4856 75.9666 39.3119 75.654C39.1382 75.3414 39.0488 75.0063 39.0488 74.668L42.5047 74.668L45.9606 74.668L45.9606 74.668H49.4165H52.8724C52.8724 75.0063 52.783 75.3414 52.6093 75.654C52.4357 75.9666 52.1811 76.2506 51.8602 76.4899C51.5393 76.7292 51.1583 76.919 50.739 77.0484C50.3197 77.1779 49.8703 77.2446 49.4165 77.2446C48.9627 77.2446 48.5133 77.1779 48.094 77.0484C47.6747 76.919 47.2937 76.7292 46.9728 76.4899C46.6519 76.2506 46.3973 75.9666 46.2237 75.654C46.0515 75.3441 45.9622 75.0121 45.9606 74.6767ZM59.5214 75.654C59.6951 75.3414 59.7845 75.0063 59.7845 74.668H56.3285L52.8726 74.668C52.8726 75.0063 52.962 75.3414 53.1357 75.654C53.3094 75.9666 53.5639 76.2506 53.8849 76.4899C54.2058 76.7292 54.5867 76.919 55.006 77.0484C55.4253 77.1779 55.8747 77.2446 56.3285 77.2446C56.7824 77.2446 57.2318 77.1779 57.6511 77.0484C58.0704 76.919 58.4513 76.7292 58.7722 76.4899C59.0932 76.2506 59.3477 75.9666 59.5214 75.654Z" fill="#4B2807" fill-opacity="0.5"/>
</g>
<g style="mix-blend-mode:multiply">
<path fill-rule="evenodd" clip-rule="evenodd" d="M45.9609 69.0075C45.9593 69.3317 45.87 69.6526 45.6978 69.9522C45.5241 70.2544 45.2696 70.5289 44.9487 70.7602C44.6278 70.9915 44.2468 71.175 43.8275 71.3001C43.4082 71.4253 42.9588 71.4897 42.505 71.4897C42.0511 71.4897 41.6018 71.4253 41.1825 71.3001C40.7632 71.175 40.3822 70.9915 40.0613 70.7602C39.7404 70.5289 39.4858 70.2544 39.3121 69.9522C39.1385 69.65 39.0491 69.3261 39.0491 68.999H42.505H45.9608H45.9609H49.4168H52.8727C52.8727 69.3261 52.7833 69.65 52.6096 69.9522C52.4359 70.2544 52.1814 70.5289 51.8604 70.7602C51.5395 70.9915 51.1586 71.175 50.7393 71.3001C50.32 71.4253 49.8706 71.4897 49.4168 71.4897C48.9629 71.4897 48.5135 71.4253 48.0942 71.3001C47.6749 71.175 47.294 70.9915 46.9731 70.7602C46.6521 70.5289 46.3976 70.2544 46.2239 69.9522C46.0517 69.6526 45.9624 69.3317 45.9609 69.0075ZM59.5216 69.9522C59.6953 69.65 59.7847 69.3261 59.7847 68.999H56.3288H52.8729C52.8729 69.3261 52.9623 69.65 53.136 69.9522C53.3096 70.2544 53.5642 70.5289 53.8851 70.7602C54.206 70.9915 54.587 71.175 55.0063 71.3001C55.4256 71.4253 55.875 71.4897 56.3288 71.4897C56.7826 71.4897 57.232 71.4253 57.6513 71.3001C58.0706 71.175 58.4516 70.9915 58.7725 70.7602C59.0934 70.5289 59.348 70.2544 59.5216 69.9522Z" fill="#4B2807" fill-opacity="0.5"/>
</g>
<g style="mix-blend-mode:multiply">
<path fill-rule="evenodd" clip-rule="evenodd" d="M45.4994 80.3522C45.4966 80.7642 45.3865 81.1718 45.175 81.5525C44.9608 81.9381 44.6468 82.2884 44.251 82.5835C43.8552 82.8786 43.3854 83.1126 42.8682 83.2723C42.3511 83.432 41.7969 83.5142 41.2371 83.5142C40.6774 83.5142 40.1232 83.432 39.606 83.2723C39.0889 83.1126 38.619 82.8786 38.2232 82.5835C37.8275 82.2884 37.5135 81.9381 37.2993 81.5525C37.0851 81.167 36.9749 80.7537 36.9749 80.3364H41.2371H45.4993H45.4994H49.7616H54.0239C54.0239 81.1792 53.5748 81.9875 52.7755 82.5835C51.9762 83.1794 50.892 83.5142 49.7616 83.5142C48.6312 83.5142 47.547 83.1794 46.7477 82.5835C45.9534 81.9912 45.5049 81.1893 45.4994 80.3522ZM62.2242 81.5525C62.4384 81.167 62.5486 80.7537 62.5486 80.3364H58.2863H54.0241C54.0241 80.7537 54.1343 81.167 54.3485 81.5525C54.5627 81.9381 54.8767 82.2884 55.2724 82.5835C55.6682 82.8786 56.1381 83.1126 56.6552 83.2723C57.1724 83.432 57.7266 83.5142 58.2863 83.5142C58.8461 83.5142 59.4003 83.432 59.9174 83.2723C60.4346 83.1126 60.9044 82.8786 61.3002 82.5835C61.696 82.2884 62.01 81.9381 62.2242 81.5525Z" fill="#4B2807" fill-opacity="0.5"/>
</g>
<path fill-rule="evenodd" clip-rule="evenodd" d="M26.571 44.6196H16.2727V53.5463C16.2727 66.8818 23.997 78.4132 35.2154 83.9105C38.5777 79.6025 40.6286 73.8686 40.6286 67.5741C40.6286 56.9128 34.7452 47.8598 26.571 44.6196ZM72.9536 44.6196H83.8604V53.5463C83.8604 67.056 75.933 78.7142 64.4762 84.1228C61.0146 79.7919 58.8955 73.9727 58.8955 67.5743C58.8955 56.9128 64.7791 47.8596 72.9536 44.6196Z" fill="#62401A"/>
<path d="M49.7479 9.51318C30.1966 9.51318 14.283 24.1381 13.7369 42.3731C13.7273 42.5175 13.7224 42.6632 13.7224 42.8099V58.8587C13.7224 62.6679 17.0109 65.7558 21.0674 65.7558C25.124 65.7558 28.4124 62.6679 28.4124 58.8587V52.815L28.4124 59.1871C28.4124 62.8149 31.5443 65.7558 35.4077 65.7558C39.271 65.7558 42.4029 62.8149 42.4029 59.1871L42.4029 52.815V58.8587C42.4029 62.6679 45.6914 65.7558 49.7479 65.7558C53.8045 65.7558 57.0929 62.6679 57.0929 58.8587L57.093 59.1871C57.093 62.8149 60.2248 65.7558 64.0882 65.7558C67.9516 65.7558 71.0834 62.8149 71.0834 59.1871V58.8727C71.0915 62.6754 74.3769 65.7558 78.4284 65.7558C82.485 65.7558 85.7734 62.6679 85.7734 58.8587V42.8099C85.7734 42.6632 85.7686 42.5175 85.759 42.3731C85.2129 24.1381 69.2992 9.51318 49.7479 9.51318Z" fill="#DBDBDB"/>
<path fill-rule="evenodd" clip-rule="evenodd" d="M49.748 6.46533C29.8516 6.46533 13.7224 22.5945 13.7224 42.4909V44.2923C13.7224 44.2991 13.7224 44.3059 13.7224 44.3128V55.3629C13.7224 59.4194 17.0109 62.7079 21.0674 62.7079C25.1074 62.7079 28.3855 59.4463 28.4123 55.4127V55.7126C28.4123 59.576 31.5441 62.7078 35.4075 62.7078C39.2709 62.7078 42.4028 59.576 42.4028 55.7126V49.7671H42.4031V55.3628C42.4031 59.4194 45.6915 62.7078 49.7481 62.7078C53.7895 62.7078 57.0685 59.4439 57.093 55.4082V55.7126C57.093 59.576 60.2248 62.7078 64.0882 62.7078C67.9516 62.7078 71.0834 59.576 71.0834 55.7126V49.7671H71.0835V55.3628C71.0835 59.4194 74.372 62.7078 78.4285 62.7078C82.485 62.7078 85.7735 59.4194 85.7735 55.3629V44.3127C85.7735 44.3065 85.7735 44.3004 85.7735 44.2942V42.4908C85.7735 22.5945 69.6443 6.46533 49.748 6.46533Z" fill="#FAFAFA"/>
<path d="M51.3685 61.8162C51.0935 61.9371 50.7816 62.0007 50.4641 62.0007H49.6397C49.3221 62.0007 49.0102 61.9371 48.7352 61.8162L41.9768 58.8458C40.7104 58.2891 39.1426 59.0486 39.2351 60.1596C39.4874 63.1901 39.4824 65.58 39.2309 68.6111C39.1389 69.721 40.7049 70.4782 41.97 69.9222L48.9993 66.8326C49.2743 66.7118 49.5862 66.6481 49.9038 66.6481H50.2C50.5175 66.6481 50.8294 66.7118 51.1044 66.8326L58.168 69.9373C59.4264 70.4903 60.9856 69.744 60.903 68.6396C60.6747 65.5871 60.6641 63.188 60.8943 60.1372C60.9778 59.0305 59.4151 58.2796 58.1539 58.8339L51.3685 61.8162Z" fill="#FFCEB9"/>
<path d="M45.814 48.791C42.1823 45.7327 42.4875 40.0399 46.4059 37.3588C48.9638 35.6088 52.3679 35.6902 54.8298 37.5729C58.3472 40.2627 58.5967 45.4806 55.3722 48.5155C52.7184 51.0132 48.6016 51.1384 45.814 48.791Z" fill="#FFD500"/>
<ellipse cx="46.5595" cy="43.5765" rx="0.95643" ry="0.869482" fill="#512E0C"/>
<ellipse cx="54.0458" cy="43.5765" rx="0.95643" ry="0.869482" fill="#512E0C"/>
<circle cx="33.4883" cy="33.7799" r="7.65144" fill="#FFD500"/>
<circle cx="33.4884" cy="33.7797" r="5.10096" fill="#606060"/>
<circle cx="35.4016" cy="32.2927" r="1.91286" fill="white"/>
<circle cx="32.2132" cy="35.9056" r="1.27524" fill="white"/>
<circle cx="66.6451" cy="33.7799" r="7.65144" fill="#FFD500"/>
<circle cx="66.6449" cy="33.7797" r="5.10096" fill="#606060"/>
<circle cx="68.5579" cy="32.2927" r="1.91286" fill="white"/>
<circle cx="65.3695" cy="35.9056" r="1.27524" fill="white"/>
<ellipse cx="28.3875" cy="45.1994" rx="3.82572" ry="2.55048" fill="#FFCEB9"/>
<ellipse cx="71.7461" cy="45.1994" rx="3.82572" ry="2.55048" fill="#FFCEB9"/>
<path d="M43.6767 34.9187C43.6767 42.638 37.1227 48.9781 28.9341 48.9781C20.7456 48.9781 14.1916 42.638 14.1916 34.9187C14.1916 27.1993 20.7456 20.8593 28.9341 20.8593C37.1227 20.8593 43.6767 27.1993 43.6767 34.9187Z" stroke="#606060" stroke-width="2.21367"/>
<path d="M85.9418 34.9187C85.9418 42.638 79.3878 48.9781 71.1993 48.9781C63.0107 48.9781 56.4567 42.638 56.4567 34.9187C56.4567 27.1993 63.0107 20.8593 71.1993 20.8593C79.3878 20.8593 85.9418 27.1993 85.9418 34.9187Z" stroke="#606060" stroke-width="2.21367"/>
<path d="M44.0791 33.8043C48.5896 33.0362 51.2366 33.05 56.0542 33.8043V36.6037C51.4537 35.9036 48.8305 35.8937 44.0791 36.6037V33.8043Z" fill="#242424"/>
<g filter="url(#filter0_f_89_14156)">
<ellipse cx="50.5" cy="100.5" rx="11.5" ry="3.5" fill="#836A00"/>
</g>
<defs>
<filter id="filter0_f_89_14156" x="24" y="82" width="53" height="37" filterUnits="userSpaceOnUse" color-interpolation-filters="sRGB">
<feFlood flood-opacity="0" result="BackgroundImageFix"/>
<feBlend mode="normal" in="SourceGraphic" in2="BackgroundImageFix" result="shape"/>
<feGaussianBlur stdDeviation="7.5" result="effect1_foregroundBlur_89_14156"/>
</filter>
</defs>
</svg>
