<svg width="44" height="44" viewBox="0 0 44 44" fill="none" xmlns="http://www.w3.org/2000/svg">
<rect width="43.5345" height="43.5345" rx="15.0119" fill="#F3C402"/>
<g clip-path="url(#clip0_89_13840)">
<path d="M30.6453 21.2632H27.1269C26.6411 21.2632 26.2473 21.6572 26.2473 22.1428C26.2473 22.6283 26.6411 23.0224 27.1269 23.0224H30.6453C31.1312 23.0224 31.5249 22.6283 31.5249 22.1428C31.5249 21.6572 31.1312 21.2632 30.6453 21.2632ZM30.6453 22.436H27.1269C26.9648 22.436 26.8337 22.3049 26.8337 22.1428C26.8337 21.9806 26.9648 21.8496 27.1269 21.8496H30.6453C30.8075 21.8496 30.9385 21.9806 30.9385 22.1428C30.9385 22.3049 30.8075 22.436 30.6453 22.436Z" fill="#394240"/>
<path d="M30.1506 25.8283L26.8447 24.625C26.3876 24.459 25.8833 24.6942 25.7171 25.1507C25.5511 25.6066 25.786 26.1115 26.2428 26.2778L29.5489 27.4814C30.0057 27.6473 30.51 27.4116 30.6763 26.9556C30.8425 26.4994 30.6074 25.9945 30.1506 25.8283ZM30.1256 26.7554C30.0702 26.9078 29.9019 26.9855 29.75 26.9307L26.4436 25.7271C26.2911 25.6717 26.2132 25.5037 26.2683 25.3515C26.3237 25.1991 26.492 25.1208 26.6442 25.1762L29.9503 26.3795C30.1025 26.4349 30.181 26.6032 30.1256 26.7554Z" fill="#394240"/>
<path d="M26.8442 19.6598L30.1504 18.4565C30.6069 18.2905 30.842 17.7854 30.6761 17.3294C30.5101 16.8729 30.0052 16.6372 29.5484 16.8031L26.2426 18.0067C25.7855 18.1727 25.5506 18.6779 25.7166 19.1344C25.8828 19.5906 26.3877 19.826 26.8442 19.6598ZM26.4431 18.5579L29.7493 17.3544C29.9014 17.2992 30.0697 17.3778 30.1248 17.5303C30.1803 17.6827 30.102 17.8505 29.9498 17.9059L26.6434 19.1092C26.4909 19.1646 26.3229 19.0863 26.2678 18.9338C26.2124 18.7814 26.2907 18.6137 26.4431 18.5579Z" fill="#394240"/>
<path d="M23.7641 12.8503C23.3267 12.6671 22.8227 12.7691 22.4861 13.1045L18.2895 17.3008C18.2895 17.3008 18.1658 17.4515 17.891 17.4515C17.5371 17.4515 13.9328 17.4521 13.9328 17.4521C13.2845 17.4521 12.76 17.9767 12.76 18.6249V25.6612C12.76 26.3094 13.2845 26.834 13.9328 26.834C13.9328 26.834 17.6529 26.834 17.8453 26.834C18.0376 26.834 18.1699 26.8653 18.3352 27.0304C18.5003 27.1958 22.4861 31.1816 22.4861 31.1816C22.7107 31.4061 23.0106 31.5252 23.3152 31.5252C23.4665 31.5252 23.6187 31.4965 23.7641 31.4358C24.2028 31.2549 24.488 30.8265 24.488 30.3524V13.9337C24.488 13.4596 24.2028 13.0312 23.7641 12.8503ZM14.5192 26.2476H13.9328C13.6091 26.2476 13.3464 25.9849 13.3464 25.6612V18.6243C13.3464 18.3004 13.6091 18.0379 13.9328 18.0379H14.5192V26.2476ZM16.2784 26.2476H15.1056V18.0379H16.2784V26.2476ZM23.9016 30.3524C23.9016 30.9388 23.2601 31.1769 22.7288 30.6456C22.4037 30.3204 18.624 26.5408 18.624 26.5408C18.4041 26.3209 18.2027 26.2476 17.8913 26.2476H16.8648V18.0379H17.8913C18.2027 18.0379 18.3308 18.0379 18.624 17.7447C18.624 17.7447 22.367 14.0017 22.7288 13.6399C23.251 13.1174 23.9016 13.3555 23.9016 13.9331C23.9016 14.2445 23.9016 30.041 23.9016 30.3524Z" fill="#394240"/>
<path d="M16.2785 18.0381H15.1057V26.2477H16.2785V18.0381Z" fill="#ED2B2B"/>
<path d="M13.3464 18.624V25.6608C13.3464 25.9845 13.6091 26.2472 13.9328 26.2472H14.5192V18.0376H13.9328C13.6091 18.0376 13.3464 18.3 13.3464 18.624Z" fill="#FFEEA9"/>
<path d="M22.7288 13.6398C22.367 14.0013 18.624 17.7446 18.624 17.7446C18.3308 18.0378 18.2026 18.0378 17.8912 18.0378H16.8647V26.2474H17.8912C18.2026 26.2474 18.4041 26.3207 18.624 26.5406C18.624 26.5406 22.4036 30.3203 22.7288 30.6455C23.26 31.1767 23.9016 30.9387 23.9016 30.3523C23.9016 30.0409 23.9016 14.2444 23.9016 13.933C23.9016 13.3557 23.251 13.1173 22.7288 13.6398Z" fill="#FFEEA9"/>
<path d="M26.6436 19.1087L29.9501 17.9054C30.1022 17.85 30.1805 17.682 30.1251 17.5298C30.07 17.3774 29.9014 17.2991 29.7495 17.3539L26.4434 18.5575C26.2909 18.6129 26.2126 18.7809 26.268 18.9331C26.3232 19.0859 26.4912 19.1644 26.6436 19.1087Z" fill="#B4CCB9"/>
<path d="M30.6451 21.8496H27.1267C26.9646 21.8496 26.8335 21.9807 26.8335 22.1428C26.8335 22.305 26.9646 22.436 27.1267 22.436H30.6451C30.8072 22.436 30.9383 22.305 30.9383 22.1428C30.9383 21.9807 30.8072 21.8496 30.6451 21.8496Z" fill="#B4CCB9"/>
<path d="M29.9499 26.3793L26.6438 25.176C26.4913 25.1206 26.3233 25.1989 26.2679 25.3513C26.2128 25.5038 26.2908 25.6715 26.4433 25.7269L29.7497 26.9305C29.9019 26.9856 30.0699 26.9076 30.1253 26.7552C30.1807 26.6027 30.1021 26.435 29.9499 26.3793Z" fill="#B4CCB9"/>
<path opacity="0.2" d="M13.3464 18.6245V25.6613C13.3464 25.985 13.6091 26.2477 13.9328 26.2477H14.5192V18.0381H13.9328C13.6091 18.0381 13.3464 18.3005 13.3464 18.6245Z" fill="black"/>
</g>
<defs>
<clipPath id="clip0_89_13840">
<rect width="18.7649" height="18.7649" fill="white" transform="translate(12.76 12.7603)"/>
</clipPath>
</defs>
</svg>
