<svg width="14" height="14" viewBox="0 0 14 14" fill="none" xmlns="http://www.w3.org/2000/svg">
<circle cx="7" cy="7" r="7" fill="white"/>
<path d="M6.81462 11.6006H6.81493C8.08369 11.5991 9.30005 11.0944 10.1972 10.1972C11.0944 9.30005 11.5991 8.08369 11.6006 6.81492V6.81462C11.6006 5.86804 11.3199 4.94272 10.794 4.15567C10.2681 3.36861 9.52066 2.75518 8.64613 2.39294C7.77161 2.0307 6.80931 1.93592 5.88092 2.12059C4.95253 2.30526 4.09975 2.76108 3.43042 3.43041C2.76108 4.09975 2.30526 4.95253 2.12059 5.88092C1.93593 6.80931 2.0307 7.77161 2.39294 8.64613C2.75518 9.52066 3.36862 10.2681 4.15567 10.794C4.94272 11.3199 5.86804 11.6006 6.81462 11.6006ZM6.48118 8.51159L6.48115 8.51161C6.4333 8.55549 6.37036 8.5792 6.30545 8.57779C6.24054 8.57638 6.17869 8.54997 6.13278 8.50406L6.13277 8.50404L4.62147 6.99274C4.62145 6.99272 4.62143 6.9927 4.6214 6.99268C4.5742 6.94541 4.5477 6.88133 4.54772 6.81453C4.54775 6.74769 4.57432 6.68361 4.62159 6.63636C4.66887 6.58912 4.73297 6.5626 4.79981 6.56262C4.86664 6.56264 4.93073 6.58922 4.97797 6.63649L4.97803 6.63655L6.14833 7.80685L6.31887 7.9774L6.49666 7.81442L9.16364 5.3696C9.21287 5.32451 9.27797 5.30081 9.34466 5.30369C9.41135 5.30657 9.47417 5.3358 9.51932 5.38496C9.54164 5.40932 9.55895 5.43783 9.57027 5.46887C9.5816 5.49995 9.5867 5.53296 9.58527 5.56601C9.58384 5.59906 9.57592 5.63151 9.56195 5.6615C9.54798 5.69149 9.52824 5.71843 9.50386 5.74079L6.48118 8.51159ZM3.87578 2.41633C4.74564 1.83511 5.7683 1.52487 6.81447 1.52484C8.21692 1.52654 9.56145 2.08441 10.5531 3.0761C11.5449 4.06782 12.1027 5.41241 12.1044 6.81491C12.1043 7.86103 11.7941 8.88364 11.2129 9.75346C10.6317 10.6234 9.80551 11.3014 8.83893 11.7017C7.87235 12.1021 6.80875 12.2069 5.78263 12.0027C4.75652 11.7986 3.81397 11.2948 3.07418 10.5551C2.3344 9.81526 1.83059 8.87271 1.62649 7.8466C1.42238 6.82048 1.52714 5.75689 1.92751 4.79031C2.32788 3.82373 3.00588 2.99758 3.87578 2.41633Z" fill="#7E9800" stroke="#7E9800" stroke-width="0.503788"/>
</svg>
