<svg width="24" height="31" viewBox="0 0 24 31" fill="none" xmlns="http://www.w3.org/2000/svg">
<path d="M23.9433 16.0727C23.9433 24.4786 19.1323 30.6841 12.5887 30.6841C6.04515 30.6841 0.863953 26.305 0.863953 17.8991C0.863953 9.49321 6.04515 0.243652 12.5887 0.243652C19.1323 0.243652 23.9433 7.66678 23.9433 16.0727Z" fill="white"/>
<g style="mix-blend-mode:darken" opacity="0.42">
<path d="M23.6445 14.6699L23.6322 14.156L23.5927 13.8127C23.5557 13.5667 23.4866 13.3695 23.4372 13.2258L23.299 12.7558L23.1879 12.4148L23.1089 12.2346L23.0126 12.0106L22.9682 11.9059L22.8991 11.6843L22.8176 11.3555L22.7016 10.9561L22.6251 10.7175L22.4943 10.2231L22.3906 9.79453L22.3363 9.58267C22.2919 9.41951 22.24 9.30748 22.2154 9.25147L22.0969 8.97386L21.9957 8.71816L21.9167 8.5209L21.6773 8.03142C21.6279 7.92184 21.5835 7.79277 21.5514 7.64422L21.4921 7.36173C21.465 7.24241 21.4255 7.11334 21.3613 6.9721L21.2181 6.7164L21.2083 6.70178C21.2083 6.70178 21.2083 6.70179 21.2083 6.69205C21.1885 6.58246 21.1762 6.44365 21.1194 6.2537C21.0453 6.00043 20.9318 5.8251 20.8232 5.66681L20.6529 5.43303L20.5393 5.19925C20.4603 5.00199 20.3715 4.82666 20.29 4.68298L20.1765 4.49303C20.0407 4.28116 19.8926 4.10339 19.7766 3.94754L19.5742 3.66748L19.4286 3.49702L19.3126 3.38256L19.1472 3.24862L19.0731 3.19748L19.0484 3.15121C19.0015 3.07329 18.9374 2.9564 18.7991 2.82489C18.7029 2.73235 18.5967 2.66417 18.5498 2.63495C18.4758 2.59111 18.5276 2.62764 18.5079 2.61303L18.4782 2.59111C18.4289 2.54971 18.4758 2.58137 18.4141 2.49857C18.3474 2.40847 18.4239 2.22339 17.8488 2.03831C17.6267 1.96526 17.3946 1.99204 17.2021 2.09432L17.1552 2.05293L17.0713 1.97987L17.0194 1.9409C16.9947 1.92142 17.0268 1.95064 17.0071 1.9336C16.9701 1.90194 17.0688 1.98474 16.9627 1.88733L16.9133 1.83132L16.7825 1.69007L16.548 1.47577C16.4468 1.39784 16.4616 1.41489 16.4566 1.41246L16.3752 1.35645L16.2542 1.2907L16.1629 1.24443C16.1432 1.23468 16.1506 1.23956 16.158 1.24443L16.079 1.20059L16.0074 1.16893L15.9333 1.13241H15.9284L15.8766 1.10318L15.7877 1.05448L15.573 0.959504L15.5162 0.937588L15.4323 0.901057L15.3656 0.869402C15.3483 0.859661 15.3162 0.81826 15.1385 0.750074L15.0423 0.70137C15.0126 0.686759 15.0546 0.708675 15.0324 0.696498L14.9855 0.669711L14.9065 0.621007L14.7757 0.547949L14.672 0.499245L14.5906 0.455413L14.4795 0.404271L14.403 0.367744L14.3511 0.340956L14.2869 0.309297C14.2228 0.277639 14.2845 0.309297 14.245 0.289815L14.1586 0.243545L14.087 0.207018L14.0154 0.172925C13.8525 0.0487278 13.6427 -0.0194593 13.4205 0.00489299C12.9639 0.0511624 12.6331 0.45541 12.68 0.905929C12.6924 1.02282 12.7121 1.09588 12.7442 1.15919C12.7442 1.16407 12.7467 1.16894 12.7491 1.17381L12.7541 1.18598C12.8578 1.46603 13.1095 1.66329 13.4057 1.70956H13.4107C13.4329 1.72173 13.3983 1.70712 13.4354 1.7266L13.5193 1.768L13.5983 1.80696L13.6501 1.83132L13.7785 1.89463L13.8624 1.9336C13.892 1.94821 13.8352 1.92142 13.8723 1.93847L13.9858 1.99204L14.05 2.02857L14.1561 2.09432L14.2326 2.13816L14.324 2.18443L14.4326 2.238L14.4721 2.25261L14.5535 2.30132L14.7115 2.38168L14.8522 2.445L14.9781 2.4937C15.0126 2.50588 14.983 2.4937 15.0003 2.50101L15.0966 2.55458L15.1879 2.59841L15.2249 2.61546L15.2545 2.63007L15.3237 2.66173L15.4076 2.70557L15.4792 2.7421C15.4792 2.7421 15.4866 2.74696 15.4915 2.74696L15.5285 2.77132L15.5878 2.82733L15.6643 2.91012L15.8247 3.08059C15.8247 3.08059 15.8075 3.06355 15.8124 3.07085L15.9185 3.17313L15.9975 3.23645L16.0395 3.2681C16.0395 3.2681 16.0123 3.25106 16.0568 3.28759L16.1678 3.38013L16.2147 3.43126L16.232 3.45075L16.3061 3.54329L16.39 3.64069L16.4344 3.69671L16.4764 3.75759L16.5578 3.87691L16.5899 3.93049L16.6665 4.04494L16.7232 4.12044C16.7504 4.15453 16.6961 4.08634 16.7454 4.1594L16.7899 4.22272L16.8096 4.25681L16.9256 4.43702L17.0071 4.57095L17.0688 4.65862L17.1774 4.81205L17.2712 4.92893L17.328 4.99712L17.4514 5.14323L17.7525 5.48173C17.9006 5.64977 18.0043 5.76909 18.0981 5.9079L18.3252 6.2951L18.6165 6.92826L18.7325 7.20101L18.9768 7.69536L19.046 7.83904L19.1743 8.20919L19.2311 8.38697L19.4014 8.88862L19.5125 9.19059L19.6038 9.43899L19.6581 9.58753L19.7569 9.91873L19.9074 10.4155L19.9716 10.6249L20.0926 11.1193L20.2135 11.5503L20.2727 11.7305L20.3073 11.8572L20.3517 12.0179L20.3962 12.2346L20.4998 12.7533C20.5443 13.0163 20.5492 13.1892 20.5739 13.4157L20.6257 13.764L20.7294 14.3801L20.7714 14.7502L20.7862 14.9524L20.7911 15.2592V16.4987L20.7763 16.903L20.7393 17.3608L20.7121 17.6433L20.6874 17.8503L20.6381 18.1157L20.564 18.4542L20.5295 18.6515L20.5122 18.7489L20.4529 19.0655L20.3641 19.4941L20.2505 19.9933C20.1814 20.3026 20.1296 20.5437 20.058 20.7555L19.9173 21.1305C19.821 21.3911 19.7346 21.6468 19.6606 21.9123L19.5865 22.2118L19.5001 22.4918L19.3372 22.9156L19.1175 23.3783L19.0015 23.5926L18.9151 23.7289L18.8115 23.897L18.6091 24.2135C18.5079 24.3791 18.4264 24.5472 18.3573 24.7055L18.2684 24.9173L18.1129 25.3727L18.0882 25.4482C18.0759 25.4823 18.0907 25.4409 18.0808 25.4653C18.071 25.4896 18.071 25.4896 18.0734 25.4847L18.0216 25.587L17.9549 25.7258L17.9475 25.738L17.9006 25.8038L17.8414 25.8963C17.8291 25.9182 17.8488 25.8841 17.8167 25.9304L17.713 26.0741L17.6365 26.1983L17.5995 26.2543L17.4958 26.398L17.2959 26.695L17.2021 26.8266L17.1083 26.941L17.0663 26.9921L16.9775 27.0871L16.8911 27.1724L16.5554 27.5255L16.3085 27.7349L16.0987 27.92L15.9259 28.0904L15.8642 28.144L15.7951 28.2C15.7754 28.2146 15.8272 28.1732 15.7359 28.2366C15.7309 28.239 15.7309 28.2414 15.7285 28.2414L15.6347 28.2804L15.4372 28.3973L15.3681 28.446L15.336 28.4655L15.2521 28.5312L15.0126 28.7041L14.9213 28.7699L14.8448 28.8161C14.8448 28.8161 14.8448 28.8161 14.8399 28.8161C14.8226 28.8235 14.8127 28.8283 14.7979 28.8356L14.6374 28.8965C14.5017 28.9525 14.4178 29.0085 14.3684 29.0377L14.1512 29.1692H14.1314C13.9192 29.1814 13.8031 29.2277 13.7464 29.2423L13.6427 29.2691L13.5785 29.2886C13.2724 29.3348 13.149 29.4469 13.0009 29.6514L12.917 29.7927C12.8701 29.8925 12.7565 30.1336 12.9047 30.4721C13.0059 30.7034 13.2033 30.8423 13.3317 30.8983C13.7266 31.0712 13.6748 30.9713 13.6772 30.9713L14.1734 30.9786C14.3561 30.9786 14.5757 31.0005 14.8744 30.9518C15.2496 30.891 15.5211 30.7327 15.7556 30.5914L16.0814 30.3869L16.3406 30.2359C16.4739 30.158 16.6393 30.0605 16.8072 29.9193L17.0219 29.7294L17.212 29.5638L17.486 29.3129L17.7476 29.028L17.8809 28.9038L17.9994 28.8356C18.2635 28.6773 18.4511 28.4923 18.6288 28.3023L18.8855 28.0271L19.2113 27.6886C19.3323 27.5596 19.4681 27.3988 19.6038 27.2065C19.7643 26.9775 19.8901 26.7486 20.0086 26.5684L20.1345 26.4004L20.2653 26.2494C20.3542 26.2129 20.4011 26.1739 20.4381 26.1471C20.527 26.0789 20.5541 26.0424 20.5813 26.0132L20.6776 25.8841L20.8207 25.6235L20.9565 25.3386L21.0947 25.0732C21.1712 24.9392 21.2132 24.8857 21.2798 24.8102L21.5168 24.5253C21.6797 24.3036 21.7982 24.0723 21.9117 23.8458L22.0944 23.4343L22.3314 22.8425L22.4227 22.5868L22.5264 22.2264L22.6152 21.827L22.7461 21.3181L22.8324 20.9503L22.8991 20.6776L23.0669 20.1151L23.1682 19.6134L23.2299 19.1921L23.257 18.9608L23.2866 18.6393L23.3187 18.386L23.3533 18.1815L23.4026 17.843L23.4792 17.4753L23.5532 16.9906C23.5754 16.7885 23.5804 16.6108 23.5804 16.4573L23.5952 15.8875L23.6248 15.493L23.6371 15.0766V14.6553L23.6445 14.6699ZM14.5634 2.28184L14.5733 2.28671H14.5634C14.5634 2.28671 14.5634 2.28427 14.5634 2.28184Z" fill="#3ED2FA" fill-opacity="0.5"/>
</g>
<g style="mix-blend-mode:darken" opacity="0.42">
<path d="M23.6224 18.4687L23.61 18.3055C23.5878 18.14 23.5113 17.8112 23.1657 17.6529C23.1139 17.6212 23.0176 17.5823 22.8473 17.5628C22.4622 17.5214 22.1858 17.7601 22.0895 17.8867C22.0056 17.9987 21.9858 18.0645 21.9686 18.1132L21.9612 18.1473L21.9217 18.1716L21.8698 18.2057L21.8353 18.2301C21.818 18.2398 21.7439 18.2763 21.6427 18.3737L21.586 18.4054L21.5662 18.4176L21.507 18.437C21.391 18.4687 21.2947 18.5247 21.2651 18.5418C21.2083 18.5759 21.2453 18.5539 21.2305 18.5637L21.1071 18.6367L20.9738 18.739L20.9146 18.7829L20.8948 18.7877C20.843 18.8023 20.7492 18.8316 20.6579 18.8827L20.5394 18.9631C20.4999 18.9241 20.4579 18.8851 20.4085 18.8535C20.2086 18.722 20.0408 18.7098 19.9396 18.7049H19.7347L19.7149 18.6976L19.6557 18.6781C19.6261 18.571 19.5668 18.3932 19.4237 18.2057C19.3225 18.0718 19.2188 17.9719 19.1225 17.8891L18.9325 17.7211L18.7769 17.592C18.6585 17.5092 18.5523 17.2901 17.9994 17.4337C17.9007 17.4605 17.7921 17.5165 17.6958 17.5945C17.6958 17.5945 17.6909 17.5945 17.6884 17.5969C17.6785 17.6018 17.6686 17.6115 17.6588 17.6164C17.6366 17.6285 17.6143 17.6432 17.5921 17.6578C17.5724 17.6724 17.5502 17.6846 17.5329 17.7016C17.5082 17.7235 17.4835 17.7479 17.4613 17.7722C17.4514 17.782 17.4391 17.7917 17.4292 17.8039C17.4045 17.8331 17.3848 17.8648 17.3626 17.8989C17.3626 17.8989 17.3601 17.9013 17.3576 17.9062V17.911C17.3576 17.911 17.3453 17.9232 17.3428 17.9281V17.933L17.3379 17.9403L17.2293 18.006C17.0812 18.1156 16.9898 18.2203 16.9183 18.3275L16.859 18.3981L16.7208 18.5247L16.5801 18.6538L16.5357 18.6976H16.5258C16.4517 18.6806 16.3357 18.6367 16.1333 18.6051L15.847 18.5856C15.7976 18.5198 15.7359 18.4468 15.6569 18.364L15.5557 18.2495L15.4372 18.0961C15.341 17.9768 15.2472 17.8867 15.1558 17.799L14.9806 17.6407L14.7288 17.4532L14.5684 17.3534C14.3734 17.1342 14.0747 17.0295 13.7785 17.0904C13.7242 17.0977 13.6551 17.1098 13.5514 17.1561C13.5243 17.1683 13.4897 17.1878 13.4527 17.2097C13.2527 17.2974 13.2873 17.3022 13.3317 17.2974C13.3021 17.3241 13.27 17.3558 13.2404 17.3899L13.0454 17.5117L12.8405 17.6578C12.6727 17.7893 12.5344 17.9378 12.3987 18.1326L12.2333 18.4151L12.1568 18.6026L12.1099 18.7877L12.0951 18.9265C12.0951 18.9704 12.0951 19.0361 12.1074 19.1116L12.0358 19.0434L11.8581 18.9095L11.6557 18.7877C11.5446 18.7268 11.4261 18.6538 11.2064 18.6026L10.9769 18.571L10.6856 18.5612L10.461 18.5491L10.3672 18.5345L10.3006 18.4906L10.0068 18.2544L9.83403 18.1229L9.68346 17.9719L9.63903 17.8964L9.6489 17.9159C9.60941 17.8258 9.5551 17.7406 9.48105 17.6651C9.1577 17.3436 8.63193 17.3388 8.30611 17.6578C8.26661 17.6967 8.23946 17.726 8.21971 17.7527C8.18516 17.7941 8.15554 17.8331 8.13579 17.8721C8.09383 17.933 8.09136 17.95 8.09629 17.9549C8.09136 17.967 8.08889 17.9768 8.08396 17.989L8.01484 18.1083C8.00743 18.1205 7.97535 18.1448 7.93338 18.2106C7.74332 18.2398 7.7063 18.3469 7.65199 18.381L7.46192 18.5077L7.10895 18.7512L6.79546 18.9704L6.66958 19.0556L6.64489 19.0751C6.59306 19.0337 6.53628 18.9923 6.45977 18.9509L6.23268 18.8559C6.17097 18.7463 6.0747 18.5783 5.86982 18.4103L5.70691 18.2861L5.66495 18.2398C5.62299 18.1789 5.56621 18.0986 5.4502 17.9987C5.22311 17.8015 4.93678 17.7722 4.86026 17.7698H4.30734C4.1938 17.7698 3.8581 17.7552 3.59645 18.1448C3.50018 18.2885 3.52487 18.2666 3.51253 18.3031C3.51006 18.308 3.50512 18.3153 3.50265 18.3202C3.42613 18.3616 3.23113 18.4492 3.12499 18.7634L2.96208 18.8803L2.81398 19.0045C2.75227 19.0507 2.70784 19.0946 2.64119 19.1457L2.41903 19.3235L2.33758 19.3868C2.3203 19.3503 2.30549 19.3137 2.28328 19.2796L2.26353 19.248C2.20676 19.153 2.1253 19.0751 2.071 19.0288C2.08334 19.0386 2.09074 19.0434 2.08827 19.041L2.0784 19.0337L1.96239 18.9387L1.85378 18.8705L1.77232 18.8291C1.71308 18.7415 1.64397 18.6806 1.58719 18.6416C1.55264 18.6026 1.50574 18.5612 1.44403 18.5223C1.40207 18.4882 1.31814 18.4444 1.13301 18.403C0.686238 18.3007 0.239461 18.5759 0.135789 19.0166C0.101232 19.1676 0.111108 19.3162 0.158007 19.4525C0.158007 19.4525 0.155539 19.4404 0.158007 19.4477C0.167881 19.4891 0.185159 19.567 0.246869 19.6936L0.345602 19.925L0.429526 20.1149L0.501111 20.3L0.543073 20.4242L0.688706 20.8309C0.747947 20.9819 0.824468 21.1304 0.933076 21.2692C0.933076 21.2814 0.928139 21.296 0.928139 21.3082L0.923201 21.4762C0.933074 21.6954 0.989848 21.7977 1.0096 21.8439L1.17004 22.2117L1.29346 22.4893L1.40947 22.6768L1.46378 22.7547L1.48599 22.8107L1.52302 22.896C1.59954 23.0591 1.67359 23.1517 1.68593 23.1711L1.74517 23.2588C1.77973 23.3246 1.73777 23.2491 1.75751 23.344C1.77973 23.4561 1.81428 23.5924 1.8834 23.7386C1.96239 23.9017 2.03397 23.9821 2.05865 24.0137L2.27093 24.3254L2.39682 24.4789L2.40176 24.4837L2.44372 24.5738C2.46347 24.6128 2.45853 24.6372 2.52271 24.72C2.5079 24.8247 2.51283 24.9464 2.5622 25.0901C2.56714 25.1047 2.57207 25.1193 2.57701 25.1315C2.58442 25.1486 2.58688 25.1656 2.59676 25.1826C2.59923 25.1875 2.60417 25.1924 2.60663 25.1973L2.61651 25.2557L2.67575 25.4797C2.73993 25.66 2.82879 25.7598 2.90778 25.8402L3.00404 25.9278L3.06081 25.9717L3.12499 26.0837C3.23113 26.2542 3.34715 26.3686 3.43601 26.4563L3.60633 26.6243L3.91487 26.8824L4.25304 27.1138L4.49988 27.2575C4.53937 27.2769 4.57393 27.294 4.60849 27.311C4.76893 27.6008 5.02811 27.8103 5.30456 27.9296C5.39589 28.01 5.47488 28.0562 5.51684 28.0806L5.66001 28.1609L5.91425 28.3022C5.99324 28.3411 6.09691 28.3898 6.22774 28.4337L6.23514 28.441L6.28945 28.5043L6.48938 28.7283L6.71154 28.95C6.83742 29.0571 6.99047 29.1472 7.16572 29.2105L7.39774 29.2738C7.42243 29.2787 7.38294 29.269 7.42243 29.2836L7.60262 29.3566C7.75566 29.4297 7.90129 29.476 8.04693 29.5125L8.13085 29.532L8.23206 29.588L8.30364 29.6269L8.39497 29.6708C8.39497 29.6708 8.43693 29.6951 8.48383 29.7146C8.51839 29.7414 8.55295 29.7706 8.5875 29.795L8.76276 29.9143L8.97997 30.0555C9.08611 30.1164 9.21447 30.1773 9.36257 30.226L9.63903 30.3039L9.94264 30.3648L10.2709 30.4354L10.3154 30.4428C10.3154 30.4428 10.2438 30.4427 10.4264 30.4622C10.4388 30.4622 10.4363 30.4622 10.4314 30.4622L10.4956 30.472C10.5425 30.4793 10.503 30.472 10.5276 30.4768C10.6214 30.4963 10.7226 30.5085 10.8387 30.5085C10.888 30.5085 10.9176 30.5158 11.0559 30.489L11.2262 30.4452L11.2608 30.433C11.2731 30.433 11.2854 30.4281 11.3027 30.4257L11.4558 30.3916C11.5298 30.3721 11.5841 30.3502 11.6187 30.3332H12.1197L12.5492 30.3259L12.7344 30.3088L13.0158 30.282L13.2972 30.2577L13.6082 30.2017L13.9241 30.1164L14.1018 30.0531L14.44 29.9387C14.5708 30.0799 14.7486 30.1797 14.9584 30.2017C15.2101 30.2309 15.1287 30.2187 15.104 30.209C15.2027 30.209 15.2768 30.1944 15.3311 30.1773L15.378 30.1676L15.6421 30.1018C15.7581 30.0702 15.9136 30.0263 16.0889 29.9484L16.4394 29.7609L16.6813 29.5953L16.8862 29.4419L17.0738 29.3031L17.2441 29.2738L17.4662 29.2324L17.7476 29.1594L18.0981 29.062L18.2857 29.0084L18.461 28.967L18.7078 28.9353C18.9448 28.8866 19.1842 28.7283 19.3274 28.5895L19.5816 28.3095L19.7297 28.0928C19.8186 27.9418 19.8803 27.7689 19.9025 27.5911L19.9173 27.5692L20.0309 27.4377L20.1963 27.2526L20.3542 27.0821L20.6825 26.7266L20.8134 26.5805C20.9269 26.4587 21.0355 26.3418 21.1441 26.1884L21.3564 25.845L21.4477 25.694L21.623 25.3677L21.6847 25.2411L21.7884 25.0317L21.9315 24.737L22.1784 24.1769L22.2697 23.9675L22.3561 23.6972C22.3981 23.5023 22.3981 23.3611 22.4055 23.2564L22.4178 23.1249L22.4622 22.9812L22.6325 22.4552L22.6967 22.2141L22.751 22.0022C22.7856 21.822 22.7831 21.6857 22.7856 21.615C22.7881 21.5347 22.7806 21.5736 22.7856 21.5517L22.8004 21.5152L22.9115 21.2692C22.9682 21.1572 23.0546 20.9965 23.1312 20.7895L23.2126 20.546L23.3039 20.205L23.3928 19.869L23.5138 19.4184C23.5483 19.2845 23.5903 19.1457 23.6076 18.9509C23.615 18.8754 23.615 18.8072 23.615 18.7512C23.6273 18.7049 23.6372 18.6587 23.6397 18.6197C23.6495 18.4273 23.6372 18.4931 23.6372 18.4833L23.6224 18.4687ZM3.3817 25.6429C3.3817 25.6429 3.39404 25.6405 3.39898 25.6405C3.40885 25.6405 3.41626 25.6405 3.42613 25.6405C3.41379 25.6405 3.39404 25.6429 3.3817 25.6429ZM6.78806 22.913V22.9349C6.76091 22.9374 6.74116 22.9422 6.72141 22.9471L6.81521 22.7693C6.80534 22.818 6.79546 22.8667 6.79053 22.913H6.78806ZM7.72604 18.3372C7.72604 18.3372 7.73591 18.3299 7.73344 18.3323C7.70876 18.3469 7.78775 18.3031 7.78281 18.3055C7.78775 18.3031 7.80009 18.2958 7.79762 18.2982L7.72851 18.3372H7.72604ZM9.68346 18.0328C9.67852 18.0158 9.67359 17.9987 9.66865 17.9817C9.67359 18.0011 9.68099 18.0206 9.68593 18.0304L9.68346 18.0328ZM19.0189 18.2106V18.1667C19.0189 18.1667 19.0189 18.1984 19.0189 18.2106ZM21.4848 20.3584C21.4848 20.3584 21.4774 20.3414 21.4724 20.3317L21.4996 20.3219L21.4823 20.3609L21.4848 20.3584Z" fill="#3ED2FA"/>
</g>
<g style="mix-blend-mode:darken" opacity="0.42">
<path d="M7.02502 25.292H7.0349C7.04724 25.297 7.03737 25.2945 7.02502 25.292Z" fill="#3ED2FA"/>
</g>
<g style="mix-blend-mode:darken" opacity="0.42">
<path d="M7.01265 25.29H7.02253C7.00278 25.29 6.98056 25.2824 7.01265 25.29Z" fill="#3ED2FA"/>
</g>
<g style="mix-blend-mode:darken" opacity="0.42">
<path d="M8.48136 23.4171C8.40978 23.2856 8.34066 23.2223 8.28389 23.1736L8.11851 23.0494C7.97534 22.9568 7.92104 22.9471 7.82724 22.9227L7.61002 22.8838L7.43724 22.8765H7.10154L6.90654 22.913C6.8942 22.9179 6.73128 22.9422 6.53628 23.0883C6.44495 23.1565 6.38077 23.2296 6.34375 23.2807C6.32894 23.3002 6.33634 23.2929 6.34375 23.2807L6.24501 23.4268C6.17343 23.5559 6.15121 23.6509 6.14628 23.6679L6.129 23.7337V23.741L6.10432 23.8116C6.06976 23.9309 6.06482 23.9723 6.06482 24.0941C6.06482 24.1306 6.0352 24.2329 6.11666 24.4667C6.19565 24.6931 6.15862 24.5665 6.16849 24.586L6.18083 24.6128L6.23514 24.7029L6.30179 24.8052L6.42027 24.9513C6.52147 25.0584 6.58318 25.0925 6.59305 25.0998L6.63008 25.1266L6.80287 25.224C6.84483 25.2435 6.76337 25.2094 6.8473 25.2459L7.02255 25.2971L7.14103 25.3166L7.31876 25.3312H7.55819L7.64211 25.319C8.0568 25.2581 8.04199 25.1485 8.04692 25.1437C8.06174 25.1339 8.05927 25.1339 8.05186 25.1388L8.18269 25.0341L8.31351 24.8855L8.41718 24.7272L8.49123 24.5665L8.52826 24.4837C8.60724 24.2913 8.60231 24.1915 8.60725 24.1428V23.909C8.60725 23.853 8.59737 23.8067 8.5875 23.7678C8.58009 23.6947 8.56035 23.5632 8.48383 23.422L8.48136 23.4171Z" fill="#3ED2FA"/>
</g>
<g style="mix-blend-mode:darken" opacity="0.42">
<path d="M17.5946 24.1501V24.021C17.5823 23.8286 17.5502 23.7994 17.5428 23.7702C17.5132 23.6825 17.4712 23.5802 17.3799 23.4609C17.3182 23.3805 17.217 23.2807 17.1355 23.2223C17.0096 23.1346 16.9306 23.1029 16.827 23.0615C16.7455 23.0274 16.6369 22.9885 16.4937 22.9641C16.4394 22.9544 16.3901 22.9519 16.3481 22.9495C16.2296 22.8959 16.1013 22.8643 15.963 22.8691C15.9482 22.8691 15.9778 22.8691 15.9383 22.8691C15.8791 22.8691 15.8174 22.874 15.7557 22.8862C15.731 22.8886 15.7063 22.8935 15.6767 22.9008C15.6693 22.9008 15.6644 22.9057 15.6594 22.9057H15.6545C15.6545 22.9057 15.6495 22.9081 15.6471 22.9105C15.2521 23.0177 15.0818 23.3221 15.0374 23.4049L14.9559 23.5924L14.909 23.7288L14.8967 23.7799L14.8572 23.9796L14.8498 24.1476V24.2938C14.8498 24.3157 14.8498 24.3132 14.8498 24.3059V24.3205C14.8621 24.5056 14.9189 24.6225 14.9337 24.6542C14.9337 24.6542 14.9782 24.7686 15.0719 24.888L15.1731 25.0073L15.2373 25.0755L15.3953 25.2045L15.4323 25.2313C15.4891 25.2703 15.4694 25.2557 15.4792 25.2605L15.5237 25.2873C15.5878 25.3263 15.6545 25.3604 15.768 25.3994L15.8816 25.4334L16.0346 25.47C16.2049 25.4992 16.2987 25.4822 16.3061 25.4822C16.3506 25.4797 16.3111 25.5089 16.5308 25.4627L16.6542 25.4286L16.822 25.3555C16.822 25.3555 16.8072 25.3628 16.8319 25.3555C16.8368 25.3555 16.9257 25.3263 17.059 25.2411C17.1799 25.1631 17.3132 25.0195 17.3626 24.9513L17.4959 24.715L17.5823 24.4447C17.6218 24.2475 17.602 24.1671 17.602 24.1476L17.5946 24.1501Z" fill="#3ED2FA"/>
</g>
<path d="M13.1787 24.5743V24.3892L13.1564 24.2772L13.149 24.2358V24.2188H13.1466C13.1466 24.2188 13.1466 24.2042 13.1466 24.1969L13.1416 24.1701V24.1554L13.1318 24.1287L13.1268 24.1067V24.0921C13.1194 24.0751 13.1145 24.0605 13.1071 24.0434L13.0898 24.0093L13.0552 23.9606L13.0454 23.9485L13.033 23.9363C12.9985 23.9022 12.954 23.8778 12.9071 23.8632C12.7492 23.8169 12.5813 23.9071 12.5319 24.0629V24.0727L12.5171 24.1311V24.1725C12.5171 24.1895 12.5171 24.2066 12.5221 24.2236V24.2334L12.5295 24.2602V24.2723L12.5369 24.2991V24.3113C12.5369 24.3113 12.5443 24.3235 12.5467 24.3308L12.5542 24.3649L12.5714 24.4331V24.7789L12.564 24.8836L12.5591 24.9859V25.0321L12.5344 25.1588L12.5048 25.2416L12.4924 25.2805L12.4628 25.3317L12.4085 25.3974L12.3666 25.4339L12.3073 25.4778L12.2752 25.5021L12.2259 25.5265L12.0827 25.5849L12.016 25.5776L11.9864 25.5703L11.9346 25.5533L11.7741 25.4802L11.7124 25.4559L11.6828 25.4461L11.6112 25.3901L11.5791 25.3585L11.5717 25.3438L11.5446 25.2976L11.4829 25.2099L11.4557 25.1709L11.4187 25.1003L11.3644 25.0126L11.3422 24.9737L11.3224 24.9323L11.3002 24.8738L11.2657 24.7813L11.2829 24.8276L11.278 24.8057L11.2681 24.7155V24.5914L11.2607 24.4063C11.2607 24.3917 11.2854 24.2748 11.2434 24.1165C11.2286 24.0556 11.1793 23.9217 11.0139 23.8924C10.9275 23.8778 10.8411 23.9095 10.7819 23.9728C10.73 24.0313 10.7152 24.1067 10.7276 24.1774L10.7226 24.209L10.6807 24.4379V24.6571L10.6757 24.7375L10.6856 24.8812L10.693 24.9372C10.6979 25.0321 10.7078 25.0175 10.7177 25.0492L10.7399 25.1271L10.7794 25.2294L10.8238 25.3171L10.8781 25.4169L10.8929 25.4437L10.9423 25.5265L10.9941 25.6117L11.0238 25.6677L11.0633 25.7286L11.1373 25.8163L11.2336 25.9039L11.3249 25.9648L11.4928 26.0428L11.5668 26.0647L11.7174 26.1134L11.8457 26.1499L11.9864 26.1645L12.1345 26.1523L12.2012 26.1402L12.2974 26.1109L12.5122 26.0111L12.5714 25.9794L12.6603 25.9137L12.7047 25.8747L12.8084 25.7919L12.9442 25.6385L13.0108 25.5314L13.0577 25.4437L13.0873 25.3706C13.1317 25.2659 13.1441 25.1734 13.154 25.1222L13.1762 25.02V24.774L13.1712 24.5694L13.1787 24.5743ZM12.0975 25.5898C12.0975 25.5898 12.1049 25.5898 12.1 25.5898H12.0975Z" fill="black"/>
<path d="M16.9405 22.9938L16.9306 22.9792L16.9355 22.9962L16.8738 22.8477C16.8195 22.76 16.7479 22.687 16.669 22.631L16.5776 22.575C16.4591 22.5141 16.3234 22.4824 16.1679 22.48L16.0593 22.4849C15.9556 22.497 15.889 22.5336 15.8593 22.5482L15.768 22.5993L15.7038 22.6504L15.6026 22.7552L15.531 22.8696L15.4693 23.0036L15.4126 23.1521L15.4027 23.1862L15.3657 23.3615L15.3607 23.4833C15.3657 23.5466 15.3829 23.6124 15.4175 23.6854L15.4866 23.7853L15.6347 23.9289L15.7211 23.9801L15.8001 24.0117L15.9013 24.0361C15.9729 24.0653 16.0469 24.0848 16.1284 24.0994L16.316 24.114C16.3777 24.114 16.4567 24.1067 16.5184 24.0848L16.6171 24.0458C16.7825 23.9679 16.8788 23.8315 16.9306 23.722L16.9898 23.5612L17.017 23.4614V23.3615L17.0219 23.174C17.0071 23.0912 16.9701 23.0425 16.9504 23.0206L16.9405 23.0036V22.9938Z" fill="black"/>
<path d="M8.14564 22.8282L8.09134 22.7356L8.02469 22.6553L7.95558 22.5871C7.86178 22.514 7.75564 22.4775 7.66431 22.458L7.5631 22.4385L7.43722 22.4239L7.34835 22.4191C7.2743 22.4191 7.17804 22.4142 7.06696 22.4702L6.89911 22.5627L6.78063 22.6553L6.69177 22.7722L6.64734 22.8623C6.60291 22.9694 6.59057 23.0814 6.60291 23.2202C6.61772 23.3177 6.65227 23.3761 6.67202 23.4151C6.67449 23.4199 6.67943 23.4272 6.68189 23.4345V23.4394L6.69917 23.4881C6.71892 23.5636 6.75101 23.6172 6.83246 23.6951L6.96082 23.7803L7.08917 23.8534L7.17557 23.8753C7.24221 23.8924 7.35576 23.9265 7.48412 23.9362C7.59026 23.9459 7.70627 23.9533 7.83462 23.9045C7.91608 23.8753 7.97532 23.8193 8.01235 23.7803L8.1333 23.605L8.17279 23.5247L8.20982 23.3907V23.2081L8.21722 23.0498L8.19254 22.9499L8.14811 22.8282H8.14564Z" fill="black"/>
<path d="M24 14.3607C23.9877 14.0709 23.921 13.8201 23.8791 13.5839C23.8371 13.3111 23.8173 13.1577 23.7704 12.9653C23.6964 12.6195 23.5952 12.2615 23.5557 11.9523L23.5384 11.8232L23.5236 11.7087L23.5063 11.5943L23.4841 11.4823L23.4668 11.397L23.4471 11.3118L23.4224 11.2168L23.3952 11.1243L23.3755 11.0561L23.3459 10.9709L23.3187 10.91C23.3113 10.8929 23.3014 10.8759 23.2891 10.8588L23.2595 10.815L23.2546 10.8028L23.2225 10.7298L23.1928 10.664L23.1632 10.5983L23.1188 10.4765L23.0521 10.2987L22.8596 9.75082L22.7757 9.58279L22.6769 9.27352C22.6226 9.05921 22.5757 8.81326 22.4795 8.60383L22.4301 8.50398L22.3141 8.27019L22.2228 8.07538L22.0327 7.7174L21.8673 7.38133L21.7266 7.09642L21.6847 7.01605L21.5464 6.7433L21.2823 6.25626L21.0108 5.74243L20.7788 5.35035L20.6208 5.15553L20.5838 5.09708C20.5838 5.09708 20.5887 5.1117 20.5936 5.12144C20.5912 5.11413 20.5862 5.10926 20.5838 5.10439C20.5788 5.09708 20.5788 5.08735 20.5764 5.08004L20.5171 4.97532C20.4752 4.9047 20.4036 4.79755 20.2653 4.649L20.1641 4.54673L20.095 4.44931L19.9988 4.31781L19.8408 4.14491L19.6409 3.89652L19.5125 3.73823L19.3619 3.55071L19.2879 3.45331L19.12 3.20734L19.0336 3.06854L18.7917 2.74709C18.6362 2.56444 18.4807 2.44268 18.3252 2.31361L17.8809 1.92641L17.7328 1.81196L17.3453 1.53677L17.2169 1.45885L17.1182 1.40284C16.9158 1.27134 16.706 1.13496 16.5233 1.03999L16.3727 0.962059C16.1061 0.835427 15.8593 0.750197 15.5754 0.664964C15.3459 0.596777 15.141 0.54807 14.9188 0.467707C14.7683 0.414132 14.6424 0.287503 14.4252 0.21201C14.3215 0.175482 14.2302 0.163306 14.1635 0.15113L14.0475 0.126776L13.8599 0.0975541C13.6156 0.0634609 13.3342 0.0342367 13.1071 0.0391072L12.7269 0.0610234L12.29 0.14382L12.0012 0.158435C11.8902 0.158435 11.7544 0.158434 11.6137 0.248537C11.6014 0.250973 11.589 0.253408 11.5742 0.255843C11.0213 0.404392 10.2981 0.772114 9.61678 1.10574L8.75779 1.58304C8.43937 1.76569 8.20981 1.92641 7.99013 2.07983C7.73341 2.26248 7.36316 2.48408 7.01759 2.75926C6.64733 3.05393 6.39556 3.34372 6.17834 3.59942C5.90435 3.92087 5.59333 4.25693 5.26998 4.593L4.71706 5.1604C4.40111 5.49646 4.04319 6.03222 3.63344 6.5631C3.33971 6.943 3.02869 7.34481 2.79173 7.73201C2.62388 8.00719 2.50293 8.2775 2.39185 8.54051C2.2709 8.8303 2.06356 9.22968 1.80191 9.65828C1.47115 10.1989 1.23418 10.6275 1.08855 11.1097L0.819498 11.9985C0.646712 12.6366 0.508485 13.1942 0.412218 13.7568C0.345572 14.1537 0.219684 14.6554 0.145633 15.1595L0.0296193 15.9826L0.00740482 16.2748L0 16.9786C0 17.602 0.0148084 18.0574 0.0444289 18.525C0.0592392 18.7393 0.0641752 18.9438 0.0937957 19.1971L0.22709 20.5608C0.249305 20.8019 0.325825 21.0698 0.412218 21.3084L0.528232 21.6323L0.703484 22.3264C0.782472 22.6527 0.920702 22.9181 1.06634 23.1616L1.38969 23.7802C1.57729 24.1406 1.73773 24.3817 1.8883 24.6057L2.18204 25.0709L2.5128 25.6018L2.71027 25.8599L2.90034 26.1229L3.02376 26.2836L3.27306 26.5539L3.48041 26.8096C3.60382 26.9801 3.70503 27.1116 3.8161 27.2212L3.96914 27.3673L4.32212 27.7058C4.41345 27.8008 4.49244 27.9055 4.60845 28.0078C4.70472 28.0881 4.79605 28.1344 4.87257 28.1758C5.04535 28.2708 5.17865 28.3706 5.33169 28.4899L5.65504 28.7383L5.81055 28.8406L6.01543 28.9672L6.08701 29.0159L6.29682 29.145L6.40543 29.2205L6.51157 29.3252C6.60043 29.408 6.72138 29.5079 6.86208 29.5809L6.95094 29.6248L7.05955 29.6978C7.2348 29.7928 7.39031 29.8025 7.49398 29.8269C7.59519 29.8537 7.72848 29.9219 7.87164 29.99C8.00987 30.0558 8.14563 30.0826 8.27399 30.0996C8.37025 30.1094 8.49367 30.1702 8.6245 30.2506C8.76272 30.3407 8.89602 30.3845 9.01203 30.4162L9.21937 30.4625L9.36748 30.5039C9.78217 30.6378 10.2166 30.6719 10.6436 30.6622L10.9744 30.6573L11.2434 30.65H11.4533L11.6754 30.6354H11.7124L12.3443 30.6792C12.5196 30.6865 12.7269 30.7157 12.9614 30.6914C13.2502 30.6573 13.544 30.5575 13.7834 30.5209L13.971 30.4966C14.2919 30.4357 14.5412 30.3797 14.793 30.3553C15.0176 30.3383 15.2175 30.2823 15.4125 30.2311C15.6742 30.1581 15.963 30.1167 16.2814 30.0412C16.6023 29.9706 16.9577 29.7977 17.2761 29.6345C17.523 29.5103 17.7501 29.4324 17.992 29.3228L18.3499 29.1475C18.6115 29.0062 18.8263 28.8552 19.0164 28.7018L19.3471 28.4339L19.4903 28.3049L19.8309 27.9785L20.0531 27.7228L20.3764 27.3356L20.5418 27.1408L20.6134 27.0605L20.8158 26.8267L20.9664 26.6392L21.112 26.4419L21.1984 26.3226L21.4897 25.9378L21.6773 25.6285C21.8007 25.4313 21.9636 25.1878 22.0895 24.9199L22.2178 24.6082L22.2623 24.5108L22.4597 24.1284L22.5091 24.0213L22.5535 23.9263L22.6029 23.8216L22.6399 23.7388L22.6819 23.6292L22.714 23.5075C22.7214 23.4782 22.7238 23.449 22.7238 23.4173L22.7189 23.3467C22.7856 23.1714 22.8349 22.9887 22.872 22.8231L22.9114 22.6746L22.988 22.4238L23.0793 22.1388C23.2249 21.7127 23.3064 21.2281 23.4199 20.724C23.489 20.422 23.5211 20.142 23.5705 19.8595L23.647 19.3676L23.7507 18.8123C23.8593 18.1865 23.9654 17.5338 23.9679 16.8836V15.554C23.9753 15.2155 23.9975 14.7747 23.9852 14.3485L24 14.3607ZM0.619561 16.2992L0.63437 16.0508L0.745446 15.2471C0.814561 14.7796 0.93798 14.2877 1.01203 13.8566C1.10089 13.3209 1.23418 12.7827 1.4045 12.152L1.66862 11.2777C1.78957 10.8662 1.99198 10.4887 2.31287 9.96268C2.58932 9.51217 2.80901 9.0933 2.94724 8.76698C3.05338 8.51615 3.16199 8.27506 3.30762 8.03398C3.51496 7.68574 3.81364 7.29123 4.09997 6.91377C4.51959 6.36828 4.88491 5.82766 5.14409 5.55248L5.68219 4.9875C6.01542 4.64413 6.33385 4.30076 6.61771 3.97201C6.83493 3.72361 7.05708 3.47522 7.38537 3.21709C7.69392 2.976 8.0543 2.76413 8.34063 2.56931C8.55785 2.41833 8.76766 2.27465 9.06634 2.10418L9.90065 1.62931C10.5597 1.27377 11.2681 0.893874 11.7421 0.735584C11.7618 0.728278 11.7815 0.720974 11.7988 0.713668C11.8161 0.708797 11.8334 0.703925 11.8507 0.696619C11.8605 0.694184 11.8704 0.691751 11.8803 0.68688H11.9914C12.095 0.694186 12.2333 0.708797 12.3937 0.68688L12.7985 0.623562L13.1095 0.618694C13.2823 0.621129 13.5489 0.652786 13.7735 0.689314L13.9463 0.713668L14.0376 0.728279L14.2104 0.767243C14.2425 0.779419 14.4326 0.935273 14.7066 1.03999C14.9608 1.13496 15.183 1.18854 15.3928 1.25185C15.6618 1.33222 15.8667 1.40771 16.0987 1.51973L16.2296 1.58792L16.7751 1.92154L16.9034 1.99703L17.017 2.06522L17.3477 2.2917L17.486 2.39641L17.9179 2.78605C18.0784 2.92242 18.1944 3.01253 18.3055 3.14646L18.5177 3.42165L18.5869 3.52636L18.7646 3.80641L18.8608 3.93061L19.0188 4.14248L19.1447 4.29103L19.3348 4.53455L19.4903 4.72449L19.5767 4.82921L19.6631 4.93636L19.7939 5.07517C19.9074 5.19693 19.9173 5.22372 19.9519 5.2846L20.0037 5.3747C20.0284 5.43559 20.0235 5.41123 20.0383 5.43559L20.1024 5.53056L20.2456 5.72294L20.448 6.06875L20.7245 6.5631L20.9861 7.00874L21.1071 7.29367L21.149 7.3789L21.2996 7.70035L21.4428 7.99989L21.6378 8.35056L21.7192 8.53807L21.8575 8.80838L21.8871 8.86683C21.934 8.96911 21.9907 9.20776 22.045 9.42937L22.1685 9.82144L22.24 10.0016L22.4128 10.5374L22.4869 10.7298L22.5412 10.8467L22.5807 10.9368L22.6078 10.9977L22.635 11.061L22.6695 11.1438L22.7066 11.229L22.751 11.3264L22.7905 11.4092L22.8028 11.4579L22.8201 11.5358L22.8349 11.6113L22.8547 11.7161L22.8769 11.8232L22.8966 11.9157L22.9189 12.0448C22.983 12.4101 23.1015 12.7754 23.1805 13.0871L23.2669 13.6667C23.3015 13.937 23.3484 14.1659 23.3459 14.3778C23.3508 14.7674 23.3237 15.196 23.3089 15.5442L23.2842 16.8885C23.2842 16.8885 23.2842 16.9031 23.2842 16.9104L23.2669 16.9201H23.262L23.2373 16.9372H23.2422L23.2225 16.9445L23.2052 16.9518L23.1879 16.9615L23.1706 16.9713L23.1533 16.981L23.1139 16.9981L22.9904 17.059L22.7485 17.1905L22.0993 17.5484C21.9068 17.6507 21.7192 17.7847 21.465 17.9454L20.7837 18.391L20.4653 18.6102L20.3937 18.5274L20.3394 18.4811L20.1592 18.2766L20.0086 18.128C19.8877 18.033 19.7939 17.9722 19.7124 17.8918L19.5693 17.7457C19.4533 17.6288 19.3348 17.5338 19.2237 17.4486L18.7078 17.0638L18.5548 16.9542C18.5548 16.9542 18.5301 16.9055 18.4313 16.8593C18.4239 16.8568 18.419 16.8568 18.4116 16.8544C18.3943 16.8447 18.377 16.8349 18.3573 16.83C18.2857 16.8057 18.2388 16.8106 18.1944 16.8154C18.1746 16.8179 18.1524 16.8227 18.1327 16.8276L18.0858 16.8447C18.0636 16.8544 18.0438 16.8641 18.0241 16.8787L17.9722 16.9177L17.9426 16.9421C17.9278 16.9542 17.9155 16.9664 17.9031 16.9786C17.8784 17.0054 17.9031 16.9786 17.8908 16.9932L17.8389 17.037L17.7254 17.1418L17.5995 17.2611L17.3897 17.4681C17.2712 17.5704 17.1305 17.7043 16.9799 17.9015L16.6566 18.3375L16.4739 18.5274L16.4418 18.5055L16.3826 18.4787L16.2863 18.4129L16.1679 18.3228L15.9556 18.167C15.8766 18.1012 15.7902 18.0038 15.7137 17.9015C15.6248 17.7822 15.5162 17.6507 15.3681 17.5363L15.0275 17.3073L14.4548 16.925L14.0352 16.6742C14.0352 16.6742 14.008 16.6279 13.8451 16.5963H13.7587L13.6501 16.5914C13.5983 16.5938 13.5168 16.5768 13.4131 16.6815L13.3144 16.7959L13.2552 16.8787L13.2181 16.9299L12.9738 17.1344L12.7566 17.3244L12.6455 17.4121C12.569 17.4729 12.4678 17.5582 12.3641 17.6872L12.2407 17.848L11.984 18.2084L11.6779 18.6078L11.6384 18.5834L11.5841 18.5566L11.5298 18.5274L11.4557 18.4884L11.2854 18.3691C11.1348 18.2766 10.9744 18.184 10.8707 18.0988C10.7596 18.0038 10.6239 17.8967 10.4388 17.7993L10.0487 17.5996L9.60938 17.3658L9.1083 17.1685C9.07621 17.1564 9.04412 17.1491 9.00957 17.1491H8.92317C8.8738 17.1515 8.81209 17.1807 8.75779 17.227L8.69855 17.2416C8.66399 17.2513 8.63437 17.2684 8.60475 17.2879L8.56032 17.322L8.45418 17.4048L8.37025 17.4681L8.13576 17.6337C7.96544 17.7627 7.82474 17.904 7.72354 18.0014C7.60753 18.111 7.46683 18.2303 7.26196 18.3715L6.8374 18.654L6.72385 18.7393L6.71151 18.732L6.63005 18.6686L6.58809 18.6321L6.55847 18.6053L6.48195 18.5152L6.34125 18.3715L6.27461 18.3107L6.14131 18.1816C6.07713 18.1134 5.98087 17.9965 5.82536 17.904L5.55137 17.7408L5.41314 17.641L5.01573 17.3731L4.66769 17.1929L4.60845 17.1734C4.58871 17.1661 4.57143 17.1491 4.47516 17.1466C4.43567 17.1466 4.35668 17.132 4.29497 17.1978L4.20611 17.2757L4.11478 17.3414L3.99136 17.4364L3.73712 17.6191L3.47794 17.8212L3.24838 18.016L3.22616 18.0355L3.15705 18.0915L3.09781 18.1451L3.05091 18.1865L2.95217 18.2839L2.86331 18.3788L2.74236 18.5128L2.51527 18.7807L2.49306 18.8075H2.48565L2.40173 18.7636L2.34989 18.732L2.28325 18.693L2.12527 18.6199L2.06109 18.6029L1.96729 18.5785L1.76489 18.4957L1.5847 18.4081L1.56495 18.391L1.49336 18.3228L1.43659 18.2766L1.40697 18.2498L1.32552 18.1913C1.31317 18.184 1.32551 18.1816 1.28108 18.1621L1.2564 18.1451L1.19716 18.0988L1.12558 18.0428L0.977474 17.9527L0.688675 17.7773L0.629432 17.7457L0.622028 17.7408C0.614622 17.5119 0.612153 17.2635 0.609685 16.9786L0.617094 16.2992H0.619561ZM20.0531 19.1922L20.0358 19.18H20.0308C20.0481 19.1898 20.0654 19.202 20.0852 19.2117H20.0777C20.0777 19.2117 20.0481 19.1898 20.0531 19.1922ZM20.1 19.219L20.0901 19.2141C20.0901 19.2141 20.095 19.2141 20.0975 19.2166H20.1V19.219ZM20.4678 19.3067C20.4678 19.3067 20.4455 19.3164 20.448 19.314H20.4455C20.4455 19.314 20.4604 19.3091 20.4678 19.3067ZM16.5258 18.5639C16.5258 18.5639 16.5381 18.5639 16.543 18.5664C16.5356 18.5664 16.5307 18.5664 16.5258 18.5639ZM16.6714 18.7052C16.6714 18.7052 16.6665 18.6979 16.6665 18.6954L16.6714 18.7052ZM16.1703 19.1094C16.1703 19.1094 16.153 19.0948 16.1456 19.0875L16.1728 19.1119H16.1703V19.1094ZM23.0595 18.7027L22.9633 19.2677L22.8818 19.7621C22.8349 20.0592 22.8078 20.327 22.7535 20.5852C22.6399 21.1087 22.5609 21.5812 22.44 21.9367L22.3437 22.2777L22.2968 22.5748L22.2845 22.7355C22.2647 22.9425 22.2252 23.1714 22.1611 23.3589L22.124 23.4198L22.0845 23.5001L22.0525 23.5708L22.0056 23.6706L21.9611 23.7583L21.9019 23.8703L21.7118 24.2307L21.6501 24.3525L21.5094 24.6666C21.4156 24.8736 21.27 25.105 21.1515 25.3047L20.9713 25.5847L20.6874 25.9524L20.6011 26.0718L20.4529 26.2739L20.3345 26.4322L20.1395 26.6611L20.0753 26.739L19.9099 26.9509L19.5841 27.3551L19.3915 27.6011L19.1077 27.8957L18.9843 28.0175L18.6831 28.2829C18.5153 28.4218 18.3326 28.5508 18.1055 28.6775L17.7896 28.8309C17.5724 28.9234 17.3305 29.0013 17.0441 29.1401C16.7356 29.2887 16.3875 29.4421 16.1851 29.4835C15.8889 29.5395 15.5927 29.5639 15.2743 29.6369C15.0867 29.6832 14.9238 29.7197 14.7806 29.727C14.4745 29.7368 14.1981 29.7782 13.8599 29.8244L13.7044 29.8537C13.3835 29.9072 13.0774 30.0095 12.8898 30.0363C12.7714 30.0558 12.5838 30.0436 12.3641 30.0485L11.515 30.0875L11.4804 30.0923H11.4434L11.2558 30.1045L10.9843 30.1118L10.6658 30.1191C10.2758 30.1191 9.90805 30.0777 9.58223 29.9657L9.38229 29.9024L9.18482 29.8561C9.09349 29.8342 9.05646 29.8244 8.97501 29.7733C8.81703 29.6686 8.6245 29.5517 8.36779 29.5152C8.27646 29.5054 8.21475 29.4908 8.15057 29.4616C8.02221 29.4032 7.8593 29.3155 7.66924 29.2717L7.36809 29.1864L7.23727 29.1085L7.16075 29.0768C7.09164 29.0427 6.99537 28.9697 6.92379 28.9039L6.79543 28.7992L6.63746 28.6872L6.43999 28.5581L6.33878 28.4851L6.14872 28.3682L6.02283 28.2878L5.70935 28.0492C5.55137 27.9274 5.38599 27.8056 5.17865 27.6912L5.01573 27.584L4.76643 27.3186L4.3863 26.9582L4.24807 26.8291L3.97408 26.4906L3.7149 26.1667L3.49769 25.9378L3.38414 25.7966L3.20642 25.5506L3.01635 25.2827L2.71027 24.7981L2.40666 24.2916C2.26103 24.0724 2.12033 23.8581 1.94508 23.5221C1.83153 23.3053 1.7328 23.091 1.60444 22.8792C1.47362 22.6576 1.37241 22.4506 1.31564 22.2022C1.2564 21.9489 1.19963 21.6762 1.13051 21.4594L1.00709 21.1258C0.93551 20.9188 0.873802 20.6728 0.86146 20.517L0.715827 19.1411L0.673865 18.4982C0.671397 18.4543 0.668929 18.4105 0.66646 18.3667L0.710889 18.3983L0.841713 18.486L0.878741 18.5152L0.950322 18.5688L0.98735 18.598C1.02191 18.637 1.0219 18.6272 1.04165 18.6419L1.09595 18.6833L1.10336 18.6906L1.14285 18.732L1.20703 18.7977L1.28602 18.8659L1.55754 19.0218L1.80931 19.124L1.94508 19.1581L1.98457 19.1679L2.03641 19.1898L2.10799 19.2263L2.15489 19.2482L2.29312 19.3091L2.38938 19.3432L2.45109 19.3602C2.47084 19.3651 2.52514 19.387 2.60413 19.3822H2.57698C2.65103 19.3822 2.77198 19.3627 2.87812 19.2677L2.96945 19.1654L3.20395 18.8976L3.31996 18.7661L3.39648 18.6759L3.47053 18.598L3.49275 18.5761L3.54459 18.525L3.59889 18.4811L3.64826 18.4373L3.8556 18.2449L4.08516 18.0647L4.33199 17.8821L4.46775 17.7822L4.50231 17.7554L4.70472 17.8796L5.0651 18.1426L5.2058 18.2473L5.51435 18.4446L5.6896 18.6151L5.85745 18.7807L5.91669 18.8342L6.02777 18.9463L6.11416 19.0461L6.19562 19.1192L6.2672 19.1727L6.37334 19.2458L6.56834 19.3383L6.63252 19.3554C6.69423 19.3724 6.79543 19.387 6.91391 19.3505C7.0867 19.2872 7.14841 19.1995 7.19778 19.1654L7.63715 18.8756C7.86424 18.7149 8.02962 18.5688 8.16291 18.4397C8.26905 18.3375 8.39494 18.2133 8.51589 18.1183L8.72076 17.9892L8.83925 17.9186L8.97501 17.8236L9.01944 17.7871C9.01944 17.7871 9.03672 17.7652 9.04659 17.7554C9.14286 17.8066 9.24653 17.8577 9.35514 17.9186L9.72293 18.1451L10.1351 18.3983C10.2536 18.4641 10.34 18.5347 10.4215 18.6078C10.5869 18.7636 10.767 18.8781 10.9077 18.9779L11.0781 19.0972L11.2138 19.1727L11.2854 19.2093L11.3274 19.2312L11.4187 19.2799L11.4829 19.3115L11.5002 19.3189C11.5002 19.3189 11.4977 19.3188 11.4952 19.314C11.626 19.3846 11.8507 19.3554 11.9296 19.2969C12.0037 19.2409 12.0309 19.1995 12.0555 19.1679L12.174 19.0315L12.5122 18.5761L12.7566 18.223L12.8652 18.0818C12.9343 17.9941 12.9886 17.9454 13.0528 17.8942L13.1589 17.809L13.386 17.6069C13.4995 17.5095 13.5909 17.4413 13.6674 17.3585L13.7464 17.2635L14.0549 17.5022L14.6597 17.9283L14.9361 18.1061C15.0102 18.1645 15.0793 18.2425 15.1533 18.3423C15.257 18.4763 15.378 18.6102 15.5187 18.7198L15.768 18.9049L15.9136 19.0071L16.0741 19.0997L16.2024 19.1484L16.2567 19.1703H16.2616C16.3653 19.219 16.4517 19.2141 16.4937 19.2068C16.5159 19.2093 16.548 19.2117 16.6122 19.1971C16.6911 19.1825 16.7405 19.1557 16.7899 19.1265C16.938 19.0364 17.0392 18.9146 17.1725 18.7563L17.5131 18.2985C17.6316 18.1426 17.7279 18.055 17.8241 17.9746L18.0882 17.7481L18.1968 17.6507L18.303 17.5655L18.3252 17.5484L18.809 17.9941L19.0608 18.2327L19.204 18.3983C19.3372 18.542 19.4681 18.6297 19.5668 18.7125L19.6433 18.7831L19.8531 18.9998L19.9148 19.0485L19.9272 19.0656L19.9815 19.1362C19.9815 19.1362 19.9864 19.1435 19.9889 19.1459L19.9938 19.1533C19.9938 19.1533 19.9988 19.1581 20.0012 19.1606C20.0111 19.1703 20.021 19.1825 20.0308 19.1898H20.0358L20.0876 19.236L20.1913 19.2994C20.2431 19.3286 20.3024 19.3408 20.3616 19.3408C20.3912 19.3456 20.4209 19.3505 20.4529 19.3481C20.6134 19.3432 20.68 19.2848 20.7343 19.2555L21.191 18.9365L21.8229 18.5006L22.4104 18.1207L23.1015 17.7652L23.2323 17.697C23.1879 18.033 23.1287 18.3764 23.062 18.7198L23.0595 18.7027Z" fill="black"/>
</svg>
