<svg width="49" height="60" viewBox="0 0 49 60" fill="none" xmlns="http://www.w3.org/2000/svg">
<path d="M47.6582 30.6041C47.6582 46.7321 38.318 59.1055 25.9317 59.1055C13.5454 59.1055 0.467237 48.1338 0.467237 32.0058C0.467237 15.8778 13.5454 0.467285 25.9317 0.467285C38.318 0.467285 47.6582 14.4761 47.6582 30.6041Z" fill="white"/>
<g style="mix-blend-mode:darken" opacity="0.42">
<path d="M47.3732 30.0267L47.2657 28.868L47.2143 28.3774L47.1489 27.2887V26.4384C47.1489 25.7702 47.0695 25.1862 46.8919 24.6722L46.7377 24.2657L46.5508 23.7985L46.4247 23.3826L46.1584 22.3267L46.0602 21.9202L45.836 21.2053L45.7238 20.7427L45.621 20.2054L45.4248 19.4438L45.2005 18.5934C45.0323 18.0047 44.7893 17.5562 44.6165 17.2291L44.4343 16.86L44.196 16.276L44.0932 15.9816L43.7474 15.0518L43.2942 13.893C43.1213 13.4585 42.9531 13.0754 42.7615 12.7203L42.5326 12.3325L42.2476 11.7297L42.0373 11.2391L41.5841 10.3234L41.1543 9.61315L40.8926 9.19731L40.687 8.87959L40.4721 8.57121L40.3179 8.37497L40.1544 8.16004L40.0095 7.96848L39.874 7.78158L39.5937 7.43115L39.2012 6.95924L38.9863 6.6789L38.7106 6.37053C38.6358 6.29577 38.7386 6.38921 38.6405 6.30044L38.4162 6.10887L38.1966 5.94067L38.0097 5.81451L37.8742 5.68836L37.6593 5.45941L37.2201 5.09029L37.0753 4.99217L36.7435 4.78192L36.5613 4.66978L36.1455 4.39411L35.8418 4.16984L35.5848 4.01565L35.2998 3.86146L34.912 3.67457L34.5615 3.53439C34.4167 3.47833 34.5242 3.52972 34.4634 3.50169L34.3419 3.43628L34.2859 3.3989L34.0429 3.25405L34.0102 3.16528L33.7906 2.77747C33.7626 2.73075 33.6037 2.46909 33.3374 2.23548C32.9589 1.89907 32.5197 1.70283 32.0712 1.57667L31.0853 1.33838C30.7255 1.24493 30.3237 1.07673 29.7817 0.978609L29.2864 0.922539H28.6743C28.6743 0.922539 28.5902 0.899178 28.3566 0.917867L28.2398 0.833764L28.1791 0.791713L27.9922 0.679577L27.88 0.614162L27.6885 0.506698C27.6885 0.506698 27.6558 0.488009 27.6417 0.483337C27.5062 0.301114 27.3801 0.0488067 26.5531 0.00208294C26.1793 -0.0212789 25.6046 0.151599 25.2635 0.534733C24.586 1.29166 24.815 2.11867 25.2074 2.61394C25.3757 2.8242 25.6093 2.97838 25.8616 3.08118L26.1279 3.24938C26.2307 3.30078 26.1186 3.24004 26.1933 3.27741L26.2634 3.31947L26.4082 3.40824C26.469 3.44562 26.4082 3.40824 26.4409 3.42693H26.4503L26.5484 3.50636L26.7493 3.66055L27.0904 3.89417L27.2866 4.01565L27.5016 4.14648L27.7726 4.29599L27.8053 4.31468L27.9735 4.39411L28.109 4.4642L28.3987 4.60437L28.5669 4.6838L28.7631 4.78659L28.9173 4.8707C28.9827 4.90807 29.0481 4.94078 29.1182 4.97816L29.2304 5.04824L29.4079 5.16038L29.6182 5.28186L29.9172 5.44539C30.0667 5.52483 29.9499 5.45941 29.9873 5.4781L30.062 5.52482L30.2349 5.63229L30.4498 5.75377L30.6321 5.86591L30.7909 5.95469L30.833 5.97804L30.8891 6.01542L30.9217 6.03879L31.0853 6.23503L31.3329 6.52471C31.375 6.57143 31.5479 6.75833 31.8095 6.92187L32.0805 7.06204L32.1926 7.11343L32.3468 7.32369L32.4216 7.43115L32.6879 7.71149L32.9682 7.9638L33.2206 8.1507C33.272 8.18808 33.2019 8.13668 33.2626 8.1834L33.328 8.23013L33.5243 8.4217L33.5943 8.50113L33.6084 8.51514C33.6084 8.51514 33.571 8.47776 33.6317 8.58055L33.7112 8.72073L33.8373 8.93098L33.9074 9.04779L34.1504 9.37953L34.398 9.67389C34.5615 9.8421 34.4214 9.68791 34.5101 9.77668L34.9353 10.2346L35.2063 10.4962L35.5007 10.7439L35.6222 10.8467L35.7109 10.9308C35.7904 11.0055 35.7296 10.9308 35.7763 10.9868L35.8745 11.099C35.9726 11.2158 35.8464 11.0663 35.9025 11.1504L36.024 11.3092C36.1221 11.4354 35.9959 11.2718 36.038 11.3466L36.0847 11.4354L36.5286 12.1876C36.6267 12.3605 36.7762 12.7156 36.9071 13.0894C37.0098 13.3884 37.1267 13.7061 37.2855 14.0332L37.5705 14.5518L37.7855 14.9116L37.9443 15.1265L38.1826 15.5564L38.5377 16.589L38.8274 17.3693L39.1358 18.1262L39.304 18.5607L39.5236 19.327V19.3457L39.6077 19.6214L39.7338 20.1026L39.8974 20.9109C40.0376 21.6866 40.1964 22.3547 40.2852 23.0042L40.3179 23.3639L40.402 24.3265L40.444 24.8591L40.4861 25.6067L40.5095 26.0879L40.6076 27.2327L40.645 27.8261L40.6683 28.2839L40.6777 28.7512L40.7431 29.952L40.7758 30.6809L40.7851 30.9939L40.7945 31.3163L40.8038 32.5265V35.0729L40.7851 35.5308L40.6964 36.811L40.5842 37.881L40.4394 38.7688C40.3646 39.2033 40.2899 39.5771 40.2525 39.9882L40.159 41.0956L40.1216 41.432L40.0282 41.988L39.8647 42.6702L39.603 43.3991L39.4208 43.8289C39.1732 44.4176 39.0283 44.9363 38.8741 45.3147L38.7153 45.6792L38.3695 46.4641L38.1079 47.0388C37.9724 47.3005 37.7621 47.5528 37.4724 47.9546C37.1547 48.3938 36.9211 48.763 36.7061 49.0153L36.2436 49.5152L35.7156 50.0759L35.1082 50.688L34.683 51.1132L34.1597 51.571L33.5102 52.1037L33.2252 52.3373C32.8001 52.6784 32.3842 52.9494 31.959 53.1877L31.0666 53.6736L29.9826 54.3184L29.5901 54.5707H29.5855C28.7398 54.5707 28.1137 54.837 27.4595 55.1921L26.7306 55.6267L26.6138 55.6734L26.2961 55.8089L26.1279 55.893L25.7821 56.0659L25.2215 56.3556L25.0252 56.463L24.8056 56.5611L24.4552 56.748C24.4552 56.748 24.4785 56.7293 24.4692 56.734L24.1889 56.8275C24.1141 56.8415 24.03 56.8602 23.9272 56.8835C23.0815 57.0844 22.5582 57.9301 22.7591 58.7758C22.9086 59.4019 23.4133 59.8505 24.0066 59.9579C23.9786 59.9533 23.9459 59.9439 23.9412 59.9439L24.03 59.9626L24.1702 59.9766C24.1795 59.9766 24.1842 59.9766 24.1795 59.9766L24.4318 60C24.8991 60 25.4317 59.9393 26.0204 59.8552C26.8661 59.7383 27.595 59.6542 28.3333 59.3879L29.2584 59.0468L29.6602 58.93C30.1321 58.7758 30.4545 58.5889 30.7021 58.4768L31.8188 58.047C32.1506 57.9021 32.4496 57.7105 32.7253 57.5003L33.2906 57.0237L33.5336 56.8181C33.7532 56.6406 34.0289 56.4677 34.3373 56.2341C34.5569 56.3602 34.8045 56.4397 35.0755 56.4443C35.4493 56.4537 35.5614 56.4116 35.6222 56.3789C35.6876 56.3602 35.7436 56.3369 35.795 56.3135C36.2483 56.1593 36.3838 55.9864 36.4865 55.907L36.7996 55.6687L37.2809 55.2903L37.5892 55.0473L37.8088 54.8557L38.1032 54.6174L38.8414 54.1549C39.3974 53.8091 39.9207 53.3232 40.3413 52.7205L40.6683 52.1971C40.9627 52.0476 41.201 51.8234 41.3084 51.6785L41.472 51.4215L41.799 50.8468L42.2382 49.9965L42.6307 49.2676C42.827 48.8891 43.0185 48.534 43.168 48.1602C43.2288 48.0107 43.3082 47.8331 43.3362 47.5014C43.3503 47.3472 43.3269 47.1183 43.2521 46.8753L43.3362 46.6651L43.682 45.8754L44.0091 45.2727C44.1399 45.0297 44.2707 44.7587 44.3782 44.455L44.6959 43.4925L44.8314 43.086L45.1398 42.2403L45.5276 41.2124L45.6584 40.7592L45.7051 40.7171C46.4294 40.0864 46.3453 39.7453 46.4808 39.3575L46.7985 38.2314L46.9527 37.4979L47.0041 37.2315L47.1396 36.1896L47.2096 35.3953L47.2657 34.4188L47.2984 33.6385L47.3218 32.8769L47.3311 32.3349L47.3545 31.6901V30.0034L47.3732 30.0267ZM24.0534 59.9813C24.0954 59.986 24.1421 59.986 24.1842 59.9907C24.1749 59.9907 24.1702 59.9907 24.1702 59.9907C24.1421 59.9907 24.0861 59.9813 24.0534 59.9766V59.9813Z" fill="#F8BA00" fill-opacity="0.5"/>
</g>
<g style="mix-blend-mode:darken" opacity="0.42">
<path d="M23.9132 59.9532H23.9366C23.9366 59.9532 23.8945 59.9486 23.8992 59.9532H23.9179H23.9132Z" fill="#F8BA00" fill-opacity="0.5"/>
</g>
<g style="mix-blend-mode:darken" opacity="0.42">
<path d="M20.1753 49.6696C21.0444 49.6696 21.7499 50.3751 21.7499 51.2442C21.7499 52.1132 21.0444 52.8188 20.1753 52.8188H19.9277C19.9277 52.8188 20.1379 52.8001 20.0538 52.8094C19.5445 52.8655 19.6567 52.8048 19.5492 52.7814C19.4744 52.7674 20.1986 52.7814 19.9837 52.8001C19.7548 52.8234 20.9649 52.3422 20.736 52.5104C20.5678 52.6365 21.2686 51.7441 21.1752 51.9544C21.1285 52.0572 21.2733 51.6133 21.2593 51.6881C21.2453 51.7535 21.278 51.5432 21.278 51.5619C21.2733 51.6273 21.278 51.5619 21.278 51.5899C21.278 51.6273 21.2499 51.3189 21.264 51.403C21.3013 51.6133 21.2593 51.3797 21.2733 51.4778C21.292 51.5946 20.9743 50.7956 21.0911 50.9825C21.1378 51.0573 20.9836 50.833 20.9976 50.847L21.021 50.8704C21.021 50.8704 20.8528 50.7209 20.9089 50.7676C20.9696 50.8143 20.5771 50.59 20.6706 50.6274C20.7126 50.6461 20.4276 50.5854 20.5117 50.59C20.5771 50.5947 20.3949 50.5854 20.5538 50.5854H20.6752C20.6752 50.5854 20.4883 50.5994 20.5631 50.5947C20.6332 50.5901 20.1753 50.6928 20.2921 50.6555C20.4696 50.5947 19.5726 51.2021 19.7361 51.0246C19.8949 50.8517 19.4137 51.646 19.4511 51.5152C19.4464 51.5432 19.4557 51.4918 19.4511 51.5152C19.4604 51.4825 19.4137 51.7675 19.423 51.6881C19.4324 51.5946 19.4184 51.8609 19.4184 51.8469V51.618C19.4184 51.5526 19.4184 51.6507 19.4184 51.5946C19.4184 51.5619 19.4511 51.8282 19.4371 51.7581C19.423 51.6787 19.5679 52.146 19.5212 52.0385C19.4557 51.8843 19.8202 52.487 19.7454 52.3983C19.6333 52.2674 20.194 52.7393 20.0819 52.6739C19.9744 52.6132 20.5304 52.8234 20.4136 52.8001C20.2501 52.7674 20.9322 52.7954 20.8201 52.8141C20.7079 52.8328 21.3107 52.6225 21.1752 52.6973C20.9369 52.8234 21.7732 52.1273 21.6798 52.2581C21.5957 52.3796 21.806 52.0385 21.8013 52.0478C21.7125 52.2394 21.876 51.3657 21.8901 51.5619C21.8901 51.618 21.8387 51.2862 21.862 51.3657C21.8901 51.4918 21.4882 50.6835 21.6331 50.8751C21.7078 50.9779 21.2032 50.4732 21.3294 50.5714C21.4602 50.6695 20.7173 50.2957 20.8808 50.3424C21.7125 50.5947 22.1797 51.4731 21.9274 52.3048C21.6751 53.1365 20.7967 53.6037 19.965 53.3514C18.9698 53.0477 18.7783 52.174 18.7502 51.7675C18.7269 51.389 18.7783 51.09 18.9371 50.7396C18.9838 50.6321 19.1567 50.1976 19.7081 49.9079C20.1332 49.6836 20.5397 49.6088 21.0631 49.721C21.5957 49.8331 22.105 50.0808 22.4087 50.7956C22.6423 51.333 22.5582 51.6273 22.5582 51.6927V51.9918C22.5255 52.2394 22.4741 52.3796 22.4601 52.4356C22.2732 53.0384 21.4182 53.6738 20.8715 53.7299L20.5538 53.7392H20.2641C19.937 53.7065 19.6754 53.6318 19.4417 53.529C19.082 53.3748 18.8156 53.1365 18.6428 52.9356C18.6287 52.9216 18.5353 52.8375 18.4045 52.6225C18.2596 52.3842 18.1942 52.1413 18.1709 51.9824L18.1522 51.8376C18.1522 51.8376 18.1849 52.0525 18.1662 51.9497C18.1008 51.5759 18.1475 51.2862 18.1475 51.2769C18.1662 51.062 18.3811 50.3377 18.8764 49.9733C19.367 49.6135 19.9557 49.6556 20.1473 49.693C20.222 49.707 20.1379 49.693 20.1893 49.7023C20.222 49.707 19.9604 49.6696 20.0351 49.6789C20.1146 49.6883 19.5912 49.693 19.7221 49.6789L20.0538 49.6696H20.1753Z" fill="#F8BA00"/>
</g>
<g style="mix-blend-mode:darken" opacity="0.42">
<path d="M23.3011 50.8563C22.9741 50.1554 22.4835 50.0012 22.1938 49.9451C22.0629 49.8704 21.9368 49.8096 21.8106 49.7676C21.4695 49.6461 21.2172 49.6461 21.0677 49.6461C21.0584 49.6461 21.0397 49.6461 21.0304 49.6461C20.8762 49.5947 20.7173 49.562 20.5444 49.562H20.0865L19.6006 49.6508C18.6942 49.9218 18.6101 50.4264 18.5119 50.6694C18.4232 50.8936 18.3858 51.0805 18.3624 51.2628C18.3531 51.3328 18.2783 51.6739 18.3951 52.1458C18.6101 53.0336 19.1334 53.398 19.5632 53.6737C19.5726 53.6784 19.5819 53.683 19.5866 53.6877C19.7361 53.7999 19.895 53.884 20.0492 53.94C20.2501 54.0101 20.4229 54.0428 20.5771 54.0568C20.7313 54.0849 20.8949 54.1036 21.0864 54.0942C21.6658 54.0708 22.3199 53.7858 22.7311 53.2345C22.7918 53.1691 22.8526 53.1037 22.9086 53.0242C23.0021 52.9028 23.1142 52.7439 23.203 52.543C23.2824 52.3981 23.3572 52.2066 23.4086 51.9356C23.4273 51.8515 23.3992 51.9963 23.4273 51.8421C23.46 51.6552 23.4974 51.2721 23.2965 50.8469L23.3011 50.8563Z" fill="#F8BA00"/>
</g>
<g style="mix-blend-mode:darken" opacity="0.42">
<path d="M16.9888 46.0294C16.9374 45.7725 16.8346 45.5622 16.7738 45.4501C16.5122 44.9735 16.1757 44.7772 15.8253 44.6511C15.5123 44.5343 15.33 44.5296 15.1945 44.5203H14.8675C14.8675 44.5203 14.8675 44.5203 14.8768 44.5203C14.1293 44.4876 13.1995 44.8146 12.9285 45.9407C12.9098 46.0248 12.9004 46.1042 12.8957 46.1883C12.8957 46.2023 12.8864 46.2117 12.8817 46.2257C12.8116 46.5294 12.8257 46.6976 12.821 46.7817C12.821 46.9219 12.793 47.2629 13.0032 47.6834C13.1901 48.2535 13.5592 48.3516 13.7134 48.445L13.7648 48.4684C13.7648 48.4684 13.7975 48.4918 13.8162 48.4964L13.9096 48.5385L14.1199 48.6413C14.2975 48.7114 14.461 48.7488 14.6152 48.7674C14.6853 48.7815 14.7133 48.7815 14.7273 48.7768C14.8768 48.7861 15.0217 48.7815 15.1619 48.7674C15.3347 48.7441 15.4889 48.7067 15.6244 48.6553H15.6384C15.6384 48.6553 15.6758 48.6366 15.6945 48.6273C15.8674 48.5572 15.9889 48.4778 16.101 48.3936C16.4374 48.1507 16.5916 47.9217 16.7271 47.7021C16.8205 47.5526 16.9233 47.3704 17.0028 47.048C17.0822 46.735 17.0775 46.4313 17.0028 46.1462C16.9981 46.1089 16.9934 46.0762 16.9841 46.0341L16.9888 46.0294Z" fill="#F8BA00"/>
</g>
<g style="mix-blend-mode:darken" opacity="0.42">
<path d="M14.2928 6.56196L14.4003 6.65073L14.6713 6.88435C14.9142 7.07592 15.1665 7.21142 15.2553 7.25814L15.2927 7.27683L15.3581 7.31888L15.4609 7.39364L15.5777 7.49176L15.8113 7.67399L16.0776 7.86555L16.33 8.03376L16.6056 8.18795L16.9467 8.3468L17.3205 8.47763L17.5635 8.55239L17.7457 8.62715L18.026 8.74395L18.1382 8.78601C18.2409 8.82806 18.1615 8.79535 18.1942 8.8047L18.3578 8.87011C18.8624 9.08504 19.4324 9.24857 20.0258 9.37473C20.722 9.51957 21.4228 9.5476 22.1003 9.599L23.5347 9.7345L24.2309 9.80459L25.3243 9.87467H25.9177C26.4316 9.86533 26.8148 9.8186 27.0904 9.79991L28.3566 9.78122C28.9874 9.75319 29.5434 9.63171 30.034 9.50088L30.6461 9.328L30.8003 9.29063L31.1694 9.20185L31.2815 9.16914C31.3703 9.14578 31.2815 9.16914 31.3469 9.15513L31.5105 9.12242C32.0151 9.01495 31.7207 9.057 31.7628 9.04766L32.2067 8.91683L32.6505 8.74863L32.9309 8.62715L33.1692 8.51968L33.2953 8.46361L33.599 8.33279L33.7813 8.24401L33.9308 8.16458L34.127 8.06179L34.8699 7.63193L35.1176 7.48242L35.2063 7.43569L35.4867 7.30487L35.7577 7.16002L36.024 6.98247L36.1782 6.87034L36.4165 6.65541C36.4819 6.59467 36.3931 6.67877 36.4538 6.6227C36.4819 6.59934 36.4305 6.64139 36.4725 6.60868L36.7996 6.33769C36.8604 6.27695 36.9958 6.16481 37.1407 5.87979C37.2995 5.56207 37.3696 5.00606 37.2248 4.59956C37.0005 3.95945 36.4819 3.66509 36.4118 3.62304L36.4258 3.63238L36.2202 3.48287L35.9773 3.32868C35.9773 3.32868 35.9726 3.32401 35.9586 3.31466L35.8137 3.19785L35.2951 2.87546L34.9914 2.73529C34.9914 2.73529 35.0148 2.74463 34.9867 2.73529L34.7251 2.62782L34.4167 2.50167C34.3139 2.45494 34.4961 2.53438 34.356 2.46429C34.0709 2.31477 33.9308 2.28674 33.8373 2.25403L33.3327 2.11386L33.0851 2.06247L32.9122 2.02976L32.7253 1.99705L32.6739 1.98771C32.6225 1.97369 32.716 2.00172 32.6599 1.98303L32.4309 1.90828L32.3001 1.86155H32.2908L32.2207 1.8195L32.0899 1.75876L31.8142 1.62794C31.6553 1.56719 31.5946 1.5485 31.5619 1.54383C31.2722 1.44104 30.9358 1.34292 30.5527 1.28218L30.0387 1.1934L29.6789 1.12332L29.506 1.09061L29.3191 1.03922C29.0061 0.978475 28.8893 0.997165 28.8332 0.992493H28.7865L28.7258 0.978476L28.6089 0.964458L28.2538 0.931751L28.1043 0.913063L27.9922 0.903718L27.8614 0.866338L27.7913 0.842977L27.6371 0.800925C27.5109 0.763546 27.2399 0.674771 26.8848 0.623375L26.3896 0.590668H25.7448C25.2916 0.609358 25.0159 0.702806 24.801 0.754202L24.5393 0.805597L24.4412 0.824287C24.4178 0.81027 24.3898 0.79158 24.3711 0.782235C24.2029 0.679443 24.1001 0.646737 24.0253 0.623375L23.7543 0.562635L23.4974 0.543945H23.1376C22.89 0.562635 22.6049 0.600013 22.3059 0.688788L21.6985 0.871012L21.6518 0.885028L20.9509 1.08594L20.3388 1.27283C19.9791 1.40833 19.5959 1.60457 19.2268 1.86623L19.1147 1.955C18.7082 2.16526 18.3718 2.35683 18.0494 2.6652C17.9092 2.8007 17.7877 2.95489 17.6896 3.1044L17.442 3.30532C17.3579 3.37073 17.3532 3.38475 17.3485 3.39409C17.2691 3.41278 17.1663 3.45016 16.956 3.58566C16.8579 3.65107 16.6757 3.71181 16.5028 3.99215C16.2038 3.65574 15.7693 3.45483 15.302 3.46418C15.316 3.46418 15.3207 3.46418 15.316 3.46418H15.1899C15.1011 3.46418 14.8768 3.40344 14.4143 3.6464C13.8863 3.92674 13.5546 4.72105 13.5639 5.10418C13.5826 5.79102 13.9797 6.22555 14.1152 6.36572L14.3115 6.55729L14.2928 6.56196Z" fill="#F8BA00"/>
</g>
<g style="mix-blend-mode:darken" opacity="0.42">
<path d="M36.6781 45.5481C36.2436 44.8939 35.524 44.7211 35.3512 44.6837L34.7858 44.6089H34.6036C34.5242 44.6043 34.3373 44.5856 34.0709 44.6463C33.7439 44.6697 33.1084 44.8612 32.7814 45.249C32.7393 45.2958 32.5571 45.464 32.3842 45.8518C32.2534 46.1555 32.216 46.3797 32.202 46.6648V46.9778C32.2347 47.6927 32.6832 48.3188 33.2065 48.6365C33.4262 48.7673 33.6271 48.8421 33.814 48.8935H33.8186C33.842 48.9028 33.87 48.9075 33.8934 48.9169C33.9728 48.9355 33.9168 48.9168 33.8654 48.9075L34.0569 48.9496L34.37 48.9776C34.6783 48.9963 35.0942 48.9355 35.4446 48.7533C35.5521 48.6972 35.767 48.5898 36.0146 48.3795L36.1501 48.258C36.2623 48.1553 36.4024 48.0151 36.5473 47.8048C36.6734 47.6179 36.8043 47.3843 36.879 47.104C36.9117 46.9825 36.9491 46.7816 36.9398 46.5339C36.9491 46.3377 36.9304 45.9546 36.6641 45.5574L36.6781 45.5481Z" fill="#F8BA00"/>
</g>
<g style="mix-blend-mode:darken" opacity="0.42">
<path d="M6.62542 14.2524C6.66748 14.6823 6.81699 14.8926 6.91979 15.0421C7.11603 15.3177 7.27489 15.4532 7.55056 15.5981C7.60663 15.6261 7.51318 15.5794 7.59729 15.6261C7.63934 15.6495 7.63934 15.6495 7.63 15.6401L7.72343 15.7055L7.91033 15.8224L7.99444 15.8831L8.10657 15.9625L8.41027 16.1494C8.56913 16.2475 8.78874 16.3877 9.0831 16.5185L9.40549 16.6587L9.53164 16.7148L9.66714 16.7755L9.6905 16.7895L10.1297 17.0185L10.4521 17.154L10.5969 17.2147L10.8633 17.3362L11.2137 17.4951L11.4333 17.5698L11.5875 17.6306L11.723 17.682L11.8818 17.7474L12.0407 17.8175L12.1669 17.8875L12.265 17.9389L12.4706 18.0698L12.6481 18.1679C13.6246 18.6912 14.5685 18.7146 15.5123 18.8033L16.3206 18.8734L17.1523 18.9996L17.6429 19.107C17.97 19.2005 18.3858 19.3079 18.8483 19.378L19.7875 19.5275L20.4276 19.6677L21.1939 19.7752L21.577 19.8686L22.0349 20.0041C22.3573 20.0929 22.6797 20.1396 23.0021 20.1723L23.731 20.2611L24.3991 20.3172L25.413 20.42L26.7213 20.5087L27.4362 20.5415L28.6977 20.5601C28.8659 20.5601 29.0575 20.5601 29.2584 20.5601L30.2116 20.6022H31.0573L31.3189 20.6115C31.7301 20.6349 32.2581 20.733 32.9169 20.747C33.2206 20.7564 33.5897 20.7704 34.0289 20.747C34.5148 20.7143 34.9166 20.6396 35.211 20.6069L36.2903 20.4714L36.7576 20.3733L37.0426 20.2891L37.1734 20.2564L37.3042 20.2237L37.4958 20.1677L38.3134 19.9995L38.9909 19.8126L39.2339 19.7518L39.4535 19.6911C39.617 19.6444 39.4675 19.6817 39.561 19.6537L39.7385 19.607L39.8507 19.5836L40.2431 19.4855L40.2759 19.4762L40.402 19.4434C40.7104 19.3593 40.5889 19.378 40.6076 19.3734C40.6637 19.3547 40.5655 19.3874 40.645 19.364C40.9767 19.2752 40.8739 19.2799 40.944 19.2565L41.1496 19.1958L41.3038 19.1351L41.5234 19.0697L41.7056 19.0136L41.8411 18.9715L42.0186 18.9295L42.07 18.9155L42.2569 18.8687L42.5186 18.794L42.9391 18.6258L43.1447 18.537C43.1447 18.537 43.14 18.537 43.168 18.537C43.5979 18.4109 44.1025 17.9623 44.2847 17.5745L44.3128 17.5138L44.495 17.0979L44.5511 16.9157L44.6445 16.5793L44.7052 16.1354V15.6121L44.6912 15.243C44.6772 15.0841 44.6959 14.9299 44.5464 14.5468C44.481 14.3833 44.3081 14.1964 44.0978 14.0328V13.888C44.0978 13.8039 44.1072 13.9628 44.0978 13.7852C44.0885 13.5703 43.9951 13.1217 43.71 12.7806C43.5185 12.5517 43.3129 12.4115 43.1307 12.3228C43.2148 11.9396 43.2054 11.4864 43.0092 11.1406C42.7102 10.622 42.3364 10.4865 42.0887 10.4071C41.6402 10.2669 41.2991 10.309 40.9066 10.4865C40.645 10.608 40.6076 10.6641 40.5936 10.6734L40.3085 10.8977L40.1917 11.0051L40.1357 11.0472L39.5236 11.4257L38.2994 12.019L38.2761 12.0284C38.2761 12.0284 38.1639 12.0377 37.8742 12.1826H37.8649L37.6733 12.2573C37.5705 12.2947 37.636 12.2386 37.3229 12.3695L37.2201 12.4162L36.9865 12.5003L36.3978 12.7993C36.2856 12.8554 36.3744 12.8274 36.3137 12.8461L36.0847 12.9068L35.8324 12.9816L35.4867 13.103L35.3325 13.1404L35.0007 13.2479L34.7952 13.3086L34.412 13.4254C34.3559 13.4301 34.3046 13.4395 34.2438 13.4441L33.4869 13.5422L32.3328 13.645L30.9825 13.7572L29.777 13.888L28.9267 13.9768L28.2912 14.0375L27.6745 14.0936H25.7635L25.142 13.9394L24.2543 13.8459L23.3806 13.7478L22.7171 13.589L22.5722 13.5376C22.4087 13.4768 22.1704 13.3927 21.8527 13.3273L21.4368 13.2526L21.2126 13.2152L21.0911 13.1825L20.8855 13.1311L19.1941 12.7853L18.3624 12.6218L18.012 12.519L17.8251 12.4489L17.5448 12.3414L17.3252 12.262L17.0495 12.1732C17.0495 12.1732 17.0495 12.1732 17.0261 12.1592L16.9794 12.1312L16.8486 12.0518L16.6991 11.9583L16.4327 11.8322L16.129 11.7107L16.0309 11.6733L15.7786 11.5705L15.4562 11.4397L15.1432 11.3229L14.9142 11.2434L14.6152 11.1453L14.4236 11.0659L13.9938 10.9164L13.7601 10.8416C13.7181 10.8276 13.7882 10.851 13.7181 10.8229L13.6013 10.7809L13.4471 10.7248L13.3396 10.6827L13.3069 10.6734C13.3069 10.6734 13.2929 10.6641 13.2836 10.6594C13.2602 10.6314 13.1995 10.5846 13.0313 10.4772L12.6762 10.2903L12.5547 10.2342L12.4098 10.1781L12.1061 10.08L11.9052 10.038H11.8865L11.7043 9.99124L11.5174 9.93517L11.4193 9.90246L11.3679 9.8791C10.938 9.61745 10.5362 9.60343 10.2792 9.61745C9.98954 9.63147 9.63911 9.78098 9.36344 9.9632C9.0831 9.91648 8.99432 9.97722 8.93358 9.98189C8.91956 9.98189 8.98031 9.98189 9.03171 9.98189C8.18601 10.0099 7.51319 10.7014 7.51319 11.5518C7.51319 11.7621 7.55524 11.9583 7.63 12.1405L7.50851 12.276L7.32162 12.4863L7.26555 12.5517L7.12069 12.762C7.13938 12.7339 7.1534 12.7106 7.1534 12.7106L7.10668 12.7713L6.91045 13.0937C6.84036 13.2292 6.76093 13.3553 6.67683 13.6871C6.67216 13.7151 6.62076 13.7058 6.6301 14.0422C6.62543 14.1123 6.62076 14.1824 6.6301 14.2478L6.62542 14.2524ZM13.1527 10.6314L13.0967 10.6127C13.0967 10.6127 13.134 10.622 13.1481 10.6267L13.1527 10.6314ZM40.9347 10.5566L40.8178 10.6267C40.8459 10.608 40.8692 10.5893 40.8739 10.5893C40.8973 10.5753 40.9393 10.5566 40.93 10.5566H40.9347Z" fill="#F8BA00"/>
</g>
<g style="mix-blend-mode:darken" opacity="0.42">
<path d="M48.1021 27.3352C48.0881 27.2605 48.1021 27.3352 48.0927 27.2885L48.0507 27.0409L48.0273 26.9287C48.0273 26.9287 48.0367 26.9381 48.0133 26.7512L47.9759 26.4989V25.9008L47.9666 25.6065C47.9572 25.4569 48.1348 25.3261 47.6535 24.6393C47.4806 24.3916 47.0648 24.0085 46.4667 23.9618C46.2939 23.9478 45.8827 23.7702 45.294 24.1954L45.1631 24.2468L44.9576 24.3543L44.7894 24.4477C44.7894 24.4477 44.7847 24.4477 44.7847 24.4524L44.6959 24.4804L44.3969 24.6019L44.3034 24.644L44.2894 24.6533L44.1679 24.6953L44.1399 24.7047L43.9717 24.7467L43.6633 24.8402L43.0653 25.0411L42.0046 25.4336L41.8317 25.4663L41.528 25.513L41.0187 25.6065L40.5749 25.6952L39.8226 25.798L38.9209 25.9802L38.505 26.0924L37.7528 26.284L37.4584 26.3167L37.136 26.3634L36.3417 26.4755L35.7249 26.5596L34.6223 26.6764L32.9449 26.7559L32.4449 26.7792C31.8889 26.8213 31.3516 26.8867 31.0012 26.8867H29.9592L28.6276 26.8446L28.1464 26.8259L27.3941 26.7932H25.0533L24.544 26.7325L24.1842 26.6624L23.4086 26.4708C22.7918 26.3167 22.2218 26.312 21.6611 26.3167L20.9603 26.3026L20.8808 26.2933L20.6098 26.2372L20.2127 26.1485L19.9136 26.0971L19.3763 25.9569L18.6007 25.7093C18.3063 25.6018 17.8111 25.2841 16.9887 25.1252C16.5075 25.0318 16.3159 25.0458 16.2225 25.0177L16.0356 24.9523L15.7926 24.8822L15.6244 24.8122L15.4141 24.7281C15.33 24.6953 15.4235 24.7374 15.3674 24.7094L15.1992 24.6253C15.0731 24.5739 15.2086 24.6346 15.1525 24.6066L15.0077 24.5365L14.8628 24.4711L14.4049 24.2842C13.9938 24.1533 13.7368 24.158 13.4845 24.13L12.9425 24.0459C12.578 23.9758 12.251 23.8637 12.1996 23.8356L12.0641 23.7655L11.9846 23.7141L11.9192 23.6721L11.7277 23.5459L11.5174 23.4291L11.2744 23.303L10.938 23.1581C10.8446 23.1254 10.9333 23.1581 10.8773 23.1394L10.7558 23.0834L10.396 22.9152L10.2652 22.8684L10.0409 22.7843L9.93813 22.7423L9.76525 22.6675L9.555 22.5741L9.43352 22.5227L9.25597 22.4386L9.06907 22.3451L8.8962 22.261L8.51306 22.0788L8.36354 22.0134L8.29346 21.9854L8.26542 21.9714L8.17197 21.9246L7.88696 21.7938L7.39169 21.5835L7.14406 21.4621L6.92913 21.3453L6.7469 21.2425L6.58337 21.1397L6.34509 21.0042L6.18155 20.9107L5.89187 20.7799L5.77506 20.7238L5.65825 20.6584L5.45266 20.5556L5.33118 20.4949L5.26109 20.4575L5.13961 20.3968H5.13493C5.06952 20.35 4.95739 20.28 4.79386 20.2192L4.58359 20.0557C4.47613 19.9809 4.43875 19.8548 3.88274 19.752C3.64912 19.7099 3.19122 19.6398 2.6539 20.037C1.95305 20.551 1.80353 21.5368 2.32217 22.2377C2.34553 22.2704 2.37356 22.2937 2.39693 22.3218C2.26143 22.3545 2.12594 22.4012 2.00913 22.4806C1.5232 22.789 1.39237 23.1908 1.35032 23.3077C1.34565 23.3263 1.35032 23.3217 1.35032 23.317L1.27088 23.5226L1.23351 23.6441L1.13072 23.9151C0.995219 24.3543 1.04661 24.429 1.04194 24.5365V24.8776C1.04194 25.1392 1.05595 25.4383 1.16809 25.8074C1.19145 25.8915 1.16809 25.8074 1.18678 25.8588C1.21949 25.9896 1.26621 26.2139 1.47179 26.5222L1.60262 26.6998C1.75213 26.8867 1.89231 26.9988 1.94371 27.0409L2.00913 27.0876C2.04651 27.139 2.08855 27.1904 2.14461 27.2511L2.34086 27.4474L2.58382 27.6483L2.75669 27.7838L2.85482 27.8492L2.8735 27.8632L2.89687 27.8819L3.05573 28.0034L3.08844 28.0221L3.45755 28.265L3.7192 28.4146L3.8547 28.5033L3.97151 28.5734L4.18178 28.6949C4.18178 28.6949 4.20046 28.7089 4.25186 28.7416L4.46212 28.8631L4.51819 28.9192L4.60696 28.9986L5.01812 29.3444L5.26109 29.5032L5.34052 29.5546L5.65825 29.7415L5.7657 29.8022L5.95727 29.9097L6.29836 30.1013C6.39648 30.1527 6.29836 30.1433 6.64411 30.2788C6.66747 30.2882 6.67682 30.2882 6.67214 30.2882H6.67682L6.79831 30.3536L7.10201 30.4938L7.27488 30.5638C7.47112 30.6479 7.72343 30.7414 8.01779 30.8162L8.25141 30.8675L8.63921 30.947H8.66258C8.71865 30.9703 8.79808 30.9984 8.8962 31.0217L9.00833 31.0685L9.11112 31.1199L9.42884 31.2834C9.54098 31.3348 9.49425 31.3068 9.47089 31.2974H9.48024L9.57836 31.3535L9.87272 31.503L10.2886 31.6992L10.4381 31.7693L10.8539 31.9235L11.0922 32.0076L11.5688 32.1618L12.6061 32.4982L12.8303 32.587C12.9284 32.6197 12.807 32.573 12.8724 32.601L12.9892 32.6477L13.2041 32.7365L13.4237 32.8113L13.6807 32.9L14.4189 33.1991L15.6945 33.6523L16.1991 33.8158L16.5215 33.8719L16.8252 33.9186L17.3252 33.97L18.1381 34.1148L19.0492 34.3017L19.2221 34.3765L19.381 34.4326L19.5212 34.484L20.0491 34.6475L21.0537 34.8437L21.806 34.9699L21.8901 34.9933L22.0022 35.026L22.2265 35.082L22.5816 35.1615L23.0768 35.2222L24.1094 35.339L24.3758 35.3577L24.857 35.4091L25.1888 35.4418L25.4037 35.4652L25.7821 35.5025L26.3101 35.5493L26.9362 35.624L27.1138 35.6474L27.5857 35.6848L27.9595 35.6988L28.7444 35.7175L29.7864 35.7268L30.1508 35.7455L30.8844 35.7922L31.4591 35.8436H32.4403L33.2019 35.8343L33.6504 35.8249L34.7017 35.8156H35.1362L36.038 35.8062L36.9725 35.7455L38.0798 35.61L39.7899 35.3343C40.2758 35.2642 40.645 35.1568 41.0094 35.0727L42.2196 34.797C42.9157 34.6054 43.5558 34.3625 44.1492 34.0634L44.2941 33.998L44.5931 33.8485L44.8174 33.7317L45.3781 33.442L45.5323 33.3486L45.9855 33.0168L46.2097 32.8159L46.2191 32.8066L46.2658 32.7785L46.378 32.6898L46.4714 32.6197L46.5462 32.5636H46.5555L46.7751 32.4889C46.9013 32.4468 47.1582 32.3487 47.4105 32.0917C47.4479 32.0543 47.5741 32.0263 47.7797 31.5684C47.9806 31.1199 47.9385 30.7928 47.9245 30.6479C47.9245 30.6106 47.9198 30.6106 47.9198 30.6152V30.5171L47.9385 30.391C47.9385 30.391 47.9432 30.3816 47.9572 30.3442L47.9712 30.2835C48.0039 30.2228 48.0367 30.1246 48.0694 29.891V29.8723L48.0974 29.7322V29.6901C48.1488 29.4985 48.0694 30.2788 48.1488 29.4565V29.0453L48.1581 28.8911V28.779L48.1675 28.3725V28.1529C48.1675 28.0221 48.2002 27.7511 48.1161 27.3493L48.1021 27.3352ZM44.8361 24.6346C44.8361 24.6346 44.8501 24.6253 44.8641 24.6066L44.7753 24.7187C44.7753 24.7187 44.8127 24.6673 44.8361 24.6393V24.6346ZM3.24262 28.1108L3.27066 28.1249L3.25664 28.1155C3.25664 28.1155 3.25665 28.1155 3.2473 28.1062L3.24262 28.1108Z" fill="#F8BA00"/>
</g>
<path d="M31.4871 47.2211C31.4871 47.179 31.4731 47.137 31.4638 47.0949L31.4544 47.0622C31.4357 47.0015 31.4077 46.9454 31.3703 46.894H31.3656L31.3376 46.8473C31.3142 46.8192 31.2909 46.7912 31.2628 46.7632L31.2395 46.7398C31.2395 46.7398 31.2161 46.7211 31.2068 46.7118C30.9264 46.5062 30.5293 46.5623 30.3237 46.8473L30.3097 46.866C30.291 46.894 30.2723 46.922 30.2583 46.9547L30.2443 46.9781C30.2162 47.0342 30.1975 47.0949 30.1882 47.1557V47.179C30.1789 47.2211 30.1742 47.2631 30.1742 47.3052V47.4033C30.1882 47.4547 30.1975 47.5061 30.2162 47.5528V47.6649L30.2303 47.735V48.006L30.1975 48.4546L30.062 48.7396L29.9779 48.8798L29.9312 48.9545L29.8284 49.1181L29.478 49.5292L29.1089 49.8563L29.0108 49.9264L28.9827 49.9638L28.7958 50.0619L28.6276 50.16L28.5762 50.1927L28.4454 50.2768L28.422 50.2908C28.3847 50.3048 28.352 50.3189 28.3193 50.3375L28.2492 50.3749L28.0623 50.459L27.581 50.5758L26.9876 50.674C26.6839 50.7254 26.3428 50.7113 25.9363 50.688L25.0906 50.6599C24.6935 50.6272 24.3477 50.5992 24.0908 50.5431L23.4133 50.3936L23.1983 50.3189L22.8853 50.202L22.5769 50.1039L22.0676 49.875L21.8013 49.7582L21.4602 49.604L21.0958 49.4077L20.9509 49.3143L20.778 49.2115L20.6519 49.1321L20.5117 49.0386L20.3482 48.8704L20.1847 48.6415L20.0164 48.3938L19.9417 48.2817L19.8576 48.1649L19.7875 48.0574L19.7174 47.95L19.5866 47.7023L19.4604 47.3753C19.4277 47.2398 19.4137 47.0762 19.4184 46.8753C19.4277 46.6837 19.3483 46.4969 19.2081 46.3707C19.1567 46.324 19.1848 46.2212 18.8203 46.1885C18.7829 46.1885 18.7456 46.1885 18.7082 46.1885C18.4185 46.2212 18.4605 46.2726 18.4091 46.3053C18.2503 46.4081 18.1428 46.581 18.1195 46.7725C18.0821 47.0622 18.0727 47.3472 18.1195 47.6463C18.1568 47.8799 18.2316 48.0808 18.3437 48.3191L18.5727 48.7162L18.7082 48.8891L18.7829 48.9826L18.8998 49.1134L18.9465 49.1648L19.0025 49.2395L18.853 49.4264L18.6661 49.6647L18.5727 49.8049C18.4419 50.0105 18.3204 50.2067 18.2409 50.4216L18.1382 50.7394C18.0587 51.0805 18.0447 51.4122 18.0587 51.7112C18.0587 51.9168 18.0541 52.1738 18.1288 52.4775L18.2176 52.7672L18.4278 53.1737L18.6848 53.4727L19.0586 53.8044C19.4604 54.1081 19.9464 54.2343 20.4556 54.2857L21.0911 54.2717H21.605L21.9929 54.2016L22.2919 54.0895C22.4694 53.9913 22.5863 53.8885 22.6937 53.7904L22.8386 53.6362L23.0348 53.4166L23.2544 53.0942L23.4506 52.7719L23.6609 52.3513L23.7263 52.1925L23.7917 51.9635H23.8011C24.1842 52.043 24.5767 52.0663 24.9738 52.099L25.9223 52.1224C26.3148 52.1224 26.768 52.1224 27.2493 52.0056L27.8754 51.8701L28.4828 51.6645L28.8426 51.4963L28.9687 51.4122L28.978 51.4028L29.0575 51.3514L29.2397 51.2346L29.3004 51.1973L29.492 51.0431L29.5901 50.945L29.735 50.8095L29.8284 50.7394L30.2256 50.3095L30.7068 49.7442L30.833 49.5526L30.8891 49.4591L31.0059 49.2863L31.1881 48.8798C31.3002 48.6228 31.3516 48.3705 31.3797 48.1742L31.4077 48.0247V48.006L31.417 47.9359L31.431 47.8098V47.7818L31.4404 47.7491L31.4497 47.6369V47.5622L31.4591 47.5295V47.5108C31.4778 47.4594 31.4825 47.408 31.4871 47.3566V47.2304V47.2211ZM22.4508 51.7766L22.4321 51.842L22.2966 52.113L22.1611 52.3373L21.9835 52.5943L21.8901 52.7018L21.834 52.7578L21.6331 52.884H21.6237L21.4696 52.9167H21.1145L20.5304 52.9027C20.222 52.884 19.9557 52.8046 19.8342 52.7205L19.638 52.5616L19.4651 52.3607L19.4324 52.2999L19.3857 52.1458L19.3483 51.7159C19.3483 51.4683 19.3763 51.2673 19.4371 51.0618L19.4744 50.9543L19.7314 50.5525L19.8062 50.4403L19.9417 50.2348L20.0538 50.3095L20.2407 50.4403L20.3762 50.5338L20.7313 50.7347L20.708 50.7954L20.6939 50.8468L20.5911 51.0431L20.4977 51.2206L20.3856 51.4169C20.3108 51.571 20.3201 51.7533 20.4089 51.8981L20.5071 52.0196C20.5491 52.057 20.6005 52.0897 20.6519 52.1084L20.8154 52.1411C20.9883 52.1458 21.1472 52.0663 21.25 51.9261L21.3668 51.7673L21.5443 51.5056L21.6331 51.3421L21.6471 51.3234L21.6798 51.272L22.0349 51.4449L22.4601 51.5897L22.4835 51.5991L22.4648 51.6879L22.4461 51.7813L22.4508 51.7766ZM28.978 51.3982C28.978 51.3982 28.9921 51.3842 29.0014 51.3795C28.9921 51.3888 28.9874 51.3935 28.9921 51.3888L28.978 51.3982Z" fill="black"/>
<path d="M36.6033 44.0909C36.6033 43.904 36.5239 43.6844 36.5099 43.6751C36.4959 43.6424 36.4772 43.619 36.4632 43.591L36.3277 43.1611L36.1922 42.9228C36.1922 42.9228 36.0987 42.7733 35.9679 42.6565L35.6689 42.4416C35.3792 42.2734 35.0194 42.1098 34.5802 42.0818C34.44 42.0771 34.2298 42.0631 33.9121 42.1379L33.599 42.2734L33.286 42.4509L33.0664 42.6051L32.8514 42.8247C32.515 43.1798 32.5104 43.4835 32.5197 43.7218C32.4122 44.0629 32.4076 44.4133 32.487 44.7918L32.6786 45.2356L32.7393 45.3478L32.9542 45.6655C33.1411 45.8711 33.3888 46.0113 33.4074 46.0206L33.9541 46.3056L34.2859 46.4131L34.6596 46.4551L35.0241 46.4458C35.2577 46.4037 35.4212 46.3056 35.5521 46.2075C35.8044 46.114 36.0427 45.9552 36.2109 45.7309L36.3604 45.4833L36.4772 45.2403C36.5426 45.0674 36.5893 44.8665 36.608 44.6049L36.5847 44.2544V44.1003L36.6033 44.0909Z" fill="black"/>
<path d="M17.5214 43.3991C17.4513 43.2122 17.3438 43.0767 17.2691 42.9926L16.9327 42.6749L16.4281 42.4086L16.1991 42.3385L15.8534 42.2684L15.5169 42.2544L15.2179 42.2778C15.1712 42.2778 15.0217 42.2824 14.8488 42.3572C14.6339 42.4413 14.4236 42.5347 14.2367 42.6749C14.0825 42.7917 13.961 42.9366 13.9003 43.0207L13.7975 43.1795L13.7788 43.2029L13.6994 43.3431L13.648 43.4412C13.5452 43.6327 13.4751 43.8757 13.4705 44.0906L13.4377 44.4831C13.4424 44.6186 13.4751 44.7448 13.5218 44.8616V44.9831L13.5919 45.2073L13.7601 45.6045C13.8723 45.8007 13.9657 45.8755 13.961 45.8661C14.0078 45.9222 14.1246 46.0671 14.3862 46.2072C14.732 46.3521 14.9609 46.3334 15.2179 46.338H15.5076C15.5356 46.3334 15.6478 46.3521 15.9188 46.3007C15.9421 46.296 15.9608 46.2866 15.9842 46.282C16.2739 46.2586 16.5542 46.1792 16.7925 45.997C16.9981 45.8334 17.1803 45.6325 17.3158 45.4036C17.5401 45.0625 17.6055 44.7027 17.6335 44.3009C17.6429 44.1467 17.6616 43.9458 17.6102 43.7028C17.5775 43.5206 17.5214 43.4225 17.5167 43.4085L17.5214 43.3991Z" fill="black"/>
<path d="M48.2983 27.0505C48.2562 26.2889 48.0367 25.5554 47.8357 24.8452L47.3311 22.8501L47.1069 21.8128L46.9994 21.3409L46.9386 21.0465C46.9386 21.0465 46.9386 21.0606 46.9386 21.0559L46.9246 20.9811L46.8686 20.7475L46.7564 20.3691L46.0743 18.3412L45.6304 16.79C45.5323 16.3975 45.4341 15.9864 45.2846 15.6032L44.9389 14.9491L44.6258 14.2529L44.4156 13.781L44.224 13.3652L44.0932 13.0755L43.5699 11.8934L43.2942 11.3654L42.9251 10.7113L42.6541 10.2814L42.4999 10.0525L42.3784 9.87023L41.9299 9.37029L41.6355 9.02453L41.2243 8.49188L41.0094 8.25359L40.9393 8.1508L40.6123 7.73028L40.374 7.45462L40.0749 7.07615L39.8133 6.72572L39.5236 6.36128L39.2946 6.08561C39.0564 5.77256 38.8508 5.49222 38.5798 5.2072L38.3929 5.01096C38.2247 4.84276 38.0565 4.69792 37.8415 4.56242L37.2248 4.18863L37.0052 4.02042L36.4398 3.60925L36.2296 3.45039L36.0567 3.31957L35.8605 3.17005L35.6642 2.98316L35.4726 2.79626C35.2484 2.60469 34.9587 2.44116 34.6783 2.30566C34.155 2.05335 33.5243 1.80105 32.8514 1.60013L32.3842 1.45529C32.0992 1.37586 31.945 1.29643 31.6927 1.18429L31.2909 1.03011L31.132 0.941329C30.4358 0.525488 29.5434 0.287198 28.6089 0.21244C27.7539 0.147027 26.9129 0.193749 26.0905 0.189077C25.7401 0.189077 25.3429 0.198423 24.9505 0.235802L24.1421 0.347938H24.1235C24.0534 0.277852 23.9412 0.245146 23.8431 0.29187C23.8011 0.310559 23.6515 0.277853 23.3338 0.217112C22.904 0.19375 22.5909 0.291869 22.3293 0.338593C21.9041 0.427368 21.4462 0.441386 20.9509 0.511472L20.18 0.698366L19.7501 0.847881C19.3623 0.992725 19.0306 1.18897 18.6848 1.3852L18.1101 1.71694L17.2504 2.24959L16.5729 2.74019L16.3113 2.9411L15.8487 3.26817L15.0217 3.87558L14.6853 4.15125L14.4703 4.33347L14.1947 4.56709L13.8022 4.92686L13.6013 5.11376L13.0219 5.57632C12.4986 6.00151 12.0173 6.48276 11.6015 6.95C11.2044 7.39855 10.6624 7.92652 10.2652 8.31433L9.62041 8.91239L9.08309 9.44504L8.88218 9.67866L8.62053 10.0151L8.28878 10.5758C8.03647 11.0009 7.63465 11.5429 7.19545 12.1831L6.5273 13.1643C6.13015 13.7997 5.78906 14.4632 5.47134 15.0612C5.2751 15.4163 4.90132 15.9817 4.49482 16.5657C4.27055 16.8928 4.08833 17.2012 3.94816 17.5096C3.61642 18.2104 3.42018 18.6917 3.09778 19.1916L2.61185 19.9859C2.32684 20.5092 2.12125 21.0886 1.98108 21.7567C1.81755 22.509 1.72878 23.1444 1.47647 23.6631C1.23818 24.163 1.05129 24.6116 0.957845 25.0835C0.831691 25.7329 0.560693 26.4058 0.387815 27.172C0.28035 27.6579 0.116806 28.2981 0.0840993 28.9429L0 30.3259V31.3958L0.03271 31.9659C0.0841061 32.7321 -0.014012 33.5078 0.10747 34.3815C0.182228 34.8955 0.22427 35.4702 0.331734 36.0682L0.429864 36.6663L0.481254 36.9513C0.556012 37.3625 0.644784 37.9932 0.784955 38.5493C0.962505 39.2688 1.15408 39.979 1.37836 40.7079C1.50451 41.1004 1.66337 41.4648 1.84092 41.7872L2.04182 42.1423C2.12593 42.2965 2.20069 42.4974 2.27078 42.7404C2.53243 43.6655 3.01835 44.5392 3.31271 45.3382C3.56035 46.011 3.91078 46.567 4.25654 47.0857L4.79386 47.8052L5.11625 48.2304L5.30782 48.4734L5.50405 48.6976L5.58815 48.8191L6.10679 49.4078L6.41983 49.7396C6.67681 50.0059 7.05528 50.4872 7.35431 50.8843L7.95705 51.6506L8.23739 51.9636L8.35888 52.1038L8.6579 52.4309L9.05506 52.7766L9.60173 53.1551L9.95216 53.4261L10.3259 53.7578L10.7044 54.1223L10.896 54.2951L11.2931 54.6409L11.6622 54.9773C11.9846 55.295 12.2883 55.5427 12.5547 55.7296L12.9425 55.9819L13.4518 56.2856C13.7882 56.4491 14.0358 56.4865 14.1292 56.5239L14.8301 56.9631L15.1525 57.192L15.5683 57.4443L16.1898 57.7761L16.5262 57.9489L16.9327 58.1452L17.4186 58.4349C17.9699 58.7573 18.6474 59.0283 19.381 59.0423L20.2033 59.103L21.6798 59.2198C21.9508 59.2432 22.418 59.3834 22.9741 59.4347L23.6188 59.4768L23.9833 59.5048L24.2823 59.5329L24.544 59.5516L24.8056 59.5609H25.6653L25.7541 59.5516C25.7915 59.5516 25.8289 59.5469 25.8616 59.5375L25.9924 59.5048C25.9924 59.5048 26.0298 59.4861 26.0531 59.4815C26.1933 59.4675 26.3101 59.4441 26.4129 59.4347H27.0811C27.7445 59.4394 28.3333 59.3647 28.9033 59.36C29.2818 59.36 29.6275 59.2899 29.9359 59.2058C30.5106 59.0376 31.0573 58.86 31.5993 58.6218L33.2112 58.019L33.9635 57.734L34.4961 57.5191L34.7858 57.3789C35.2484 57.1359 35.5474 56.9023 35.7016 56.8276L36.8697 56.1641L37.3136 55.8978C37.5986 55.7342 37.7574 55.6455 37.935 55.5053L38.4022 55.0988L38.6592 54.8839L38.8648 54.711L39.1451 54.4867L39.3274 54.3372L39.8834 53.8186L40.2291 53.4541L40.4347 53.2532L40.7945 52.8888L41.1729 52.4869L41.4813 52.1505L41.7336 51.8842L41.9532 51.6085L42.7148 50.604L43.112 50.0293C43.2708 49.7956 43.4671 49.5013 43.668 49.0995L44.2333 47.936L44.6445 47.0389L45.0931 46.0297C45.35 45.441 45.5229 44.871 45.6864 44.329L46.0275 43.1655L46.1864 42.6095L46.392 41.9928L46.7424 40.9462C46.8873 40.5303 47.0274 40.2547 47.0975 39.8342C47.2377 38.9371 47.2751 38.1895 47.3778 37.4232L47.6348 36.1523L47.7937 35.2319L47.8778 34.7833C47.9712 34.2694 47.9759 33.7461 47.9993 33.2555C48.0086 33.2321 48.0273 33.2087 48.0367 33.19C48.1067 33.0125 48.1301 32.849 48.1581 32.62C48.1768 31.6154 48.1581 30.7137 48.2329 29.7792L48.289 28.2513L48.303 27.4897V27.0412L48.2983 27.0505ZM46.962 31.7229L46.948 31.9098L46.92 32.2042L46.9059 32.4238L46.8545 32.7929C46.7891 33.4377 46.7938 34.0871 46.6957 34.559L46.6022 34.9982L46.406 35.9421L46.1771 37.2363C46.0416 38.0727 45.9808 38.7969 45.8266 39.6332C45.7892 39.8575 45.6864 40.0631 45.5229 40.535L45.1678 41.5863L44.9389 42.2544L44.794 42.8151L44.4296 43.9785C44.2707 44.5112 44.1212 45.0298 43.9063 45.5344L43.4998 46.5156L43.0512 47.4081L42.5186 48.5388C42.3504 48.8705 42.2009 49.0948 42.042 49.3331L41.6869 49.847L40.9533 50.7955L40.7291 51.0478L40.5141 51.2768L40.2338 51.5852L39.832 52.0431L39.5283 52.3701L39.29 52.6131L38.9582 52.9588L38.505 53.3794L38.3975 53.4681C38.3695 53.4868 38.4443 53.4401 38.3789 53.4821C38.3742 53.4821 38.3695 53.4915 38.3648 53.4962C38.3602 53.4962 38.3508 53.5008 38.3462 53.5055L38.0518 53.7391L37.8229 53.926L37.5752 54.1409L37.1126 54.5194L36.6641 54.7904L36.1688 55.0848L35.0989 55.7249C34.7811 55.9024 34.5569 56.108 34.2064 56.3043L33.9541 56.4257L33.4822 56.65L32.8001 56.9631L31.2021 57.6452C30.6881 57.8508 30.1882 58.0003 29.6182 58.1545C29.3705 58.2246 29.1276 58.276 28.9033 58.276C28.2492 58.2713 27.6604 58.3414 27.067 58.3274C26.7774 58.3321 26.4737 58.3321 26.1372 58.4255C26.0672 58.4535 26.0064 58.4769 25.955 58.5003C25.9504 58.5003 25.941 58.4956 25.9363 58.4956L25.8149 58.4769C25.7775 58.4722 25.7401 58.4676 25.7074 58.4722H25.6186L25.4971 58.4816H25.0346L24.8337 58.4722L24.5907 58.4582L24.3477 58.4489L24.0861 58.4349L23.7357 58.4022L23.0815 58.3181C22.6844 58.276 22.2545 58.1265 21.7919 58.0751L20.3388 57.9396L19.4231 57.8461C18.9838 57.8274 18.4839 57.6265 18.0727 57.3696L17.5494 57.0518L17.0962 56.8135L16.8018 56.6594L16.2038 56.3276L15.8814 56.1407L15.5543 55.9165C15.2506 55.7109 14.9703 55.4913 14.6105 55.3418L14.0171 55.1502L13.6153 54.9119L13.3116 54.7203C13.092 54.5568 12.8537 54.3559 12.5874 54.0802L12.1108 53.6457L11.779 53.3653L11.5875 53.1831L11.1903 52.8233L10.7838 52.4776L10.354 52.1692L9.8073 51.7721L9.55501 51.5478L9.29335 51.2861L9.14851 51.1319L8.90088 50.8656L8.34019 50.1648C8.02246 49.7443 7.63933 49.249 7.29824 48.9032L7.03193 48.6276L6.56469 48.0996L6.41983 47.908L6.26097 47.7351L6.07408 47.4968L5.7657 47.0903L5.26576 46.4129C4.93402 45.9269 4.63966 45.4597 4.43875 44.9317C4.09767 44.0346 3.62577 43.1749 3.41084 42.432C3.32674 42.1376 3.22861 41.8573 3.08377 41.591L2.88286 41.2312C2.74269 40.9695 2.61185 40.6752 2.50906 40.3528C2.28479 39.6659 2.0979 38.9791 1.92035 38.2783C1.80354 37.8063 1.71943 37.1943 1.64467 36.7551L1.59328 36.4841L1.49049 35.8673C1.39237 35.344 1.34565 34.7833 1.26155 34.2226C1.15408 33.5311 1.22884 32.7789 1.15875 31.8958L1.12137 31.3818V30.3679L1.16342 29.0083C1.18211 28.499 1.31761 27.9009 1.41573 27.4103C1.5559 26.7422 1.81755 26.0553 1.95305 25.2891C2.01379 24.9433 2.15397 24.5742 2.37357 24.1023C2.69129 23.4014 2.76137 22.6865 2.90154 21.9763C3.02769 21.3783 3.1959 20.897 3.42952 20.4532L3.8734 19.7289C4.25186 19.1496 4.47146 18.6169 4.78918 17.9394C4.91533 17.6824 5.06953 17.4255 5.27511 17.1311C5.68628 16.5377 6.06942 15.9677 6.29836 15.5472C6.63944 14.9444 6.98052 14.2996 7.35898 13.7109L8.01311 12.7671C8.44297 12.141 8.84947 11.5943 9.13916 11.1084L9.45687 10.6131L9.66246 10.3562L9.84001 10.1552L10.3119 9.70203L10.9847 9.0806C11.3912 8.68812 11.9379 8.1508 12.3771 7.65553C12.7556 7.221 13.1994 6.77245 13.6667 6.38932L14.2788 5.8847L14.4984 5.66977L14.8535 5.35672L15.1151 5.13245L15.33 4.9549L15.6524 4.69792L16.4327 4.14658L16.9373 3.81016L17.1803 3.62794L17.8438 3.17472L18.6568 2.66076L19.2175 2.3337C19.5632 2.13278 19.8482 1.96458 20.1192 1.86179L20.5024 1.73096L21.1472 1.55341C21.3948 1.49734 21.6751 1.45529 21.9788 1.39922C21.9788 1.42726 21.9648 1.45529 21.9695 1.488C21.9975 1.6235 22.1283 1.71227 22.2638 1.68424C22.7872 1.57677 23.1376 1.5721 23.4413 1.60948L23.8291 1.62349H24.0113L24.1889 1.60481L24.3898 1.5721L25.0533 1.45062L26.0765 1.40389C26.9362 1.40389 27.7492 1.3525 28.5108 1.40389C29.2958 1.45529 30.0387 1.66087 30.5293 1.94589L30.819 2.10475L31.2021 2.25427C31.4404 2.3664 31.6834 2.48321 32.0525 2.59068L32.501 2.72617C33.1178 2.91307 33.6971 3.14202 34.1504 3.36162L34.7017 3.71205L34.8419 3.8382L35.0615 4.03911L35.3512 4.28208L35.5053 4.39888L35.7203 4.56242L36.2576 4.9549L36.5239 5.16983C36.7949 5.36607 37.0379 5.48755 37.2108 5.59501L37.5472 5.86134L37.706 6.01552C37.9256 6.25382 38.0892 6.48276 38.3275 6.80516L38.5798 7.10886L38.8461 7.45462L39.0797 7.77701L39.4161 8.25826L39.6217 8.5059L39.9301 8.88436L40.0422 9.04322L40.2572 9.30955L40.6403 9.80015L40.9674 10.2066L41.3225 10.6365L41.4159 10.7767L41.5888 11.0337L41.7944 11.356L42.1121 11.9681L42.3691 12.4868L42.8597 13.6175L42.9811 13.8838L43.1914 14.3791L43.3643 14.7809L43.7287 15.5565L44.0184 16.1452C44.1165 16.3648 44.224 16.7433 44.3315 17.1264C44.4903 17.7011 44.6539 18.2852 44.8221 18.7571L45.4528 20.7802L45.5416 21.0886L45.593 21.3596L45.6444 21.6166L45.7612 22.1352L45.9902 23.1211C46.1256 23.8266 46.2892 24.4761 46.4667 25.1956C46.6349 25.9198 46.7891 26.5833 46.7938 27.1253V27.5178L46.8078 28.2794L46.8639 29.7605C46.8732 30.3633 46.92 30.9426 46.9713 31.5313L46.9573 31.7323L46.962 31.7229Z" fill="black"/>
<path d="M39.1404 54.4962L39.1498 54.4868H39.1451V54.4962H39.1404Z" fill="black"/>
</svg>
