<svg width="67" height="73" viewBox="0 0 67 73" fill="none" xmlns="http://www.w3.org/2000/svg">
<g filter="url(#filter0_d_89_4887)">
<path d="M40.2611 13.997C35.4999 5.04247 33.1193 0.56522 30.3042 0.586135C29.7855 0.58999 29.271 0.680701 28.7822 0.854506C26.1298 1.79765 25.4241 6.8191 24.0127 16.862C23.6207 19.6508 23.4248 21.0452 22.6043 22.0507C22.4406 22.2513 22.2604 22.4379 22.0657 22.6085C21.0894 23.4635 19.7027 23.7081 16.9293 24.1971C6.94174 25.9582 1.94797 26.8387 1.09797 29.5224C0.941335 30.017 0.86863 30.5343 0.882885 31.0528C0.960228 33.8669 5.51783 36.0898 14.633 40.5356C17.1643 41.7701 18.4298 42.3874 19.1326 43.4784C19.2728 43.6961 19.3946 43.9251 19.4966 44.1631C20.0081 45.3557 19.8122 46.7501 19.4202 49.5389C18.0088 59.5819 17.3031 64.6033 19.5928 66.241C20.0147 66.5428 20.4842 66.7718 20.9818 66.9185C23.682 67.7145 27.2045 64.0669 34.2495 56.7716C36.2058 54.7458 37.1839 53.7329 38.4387 53.4017C38.689 53.3356 38.9445 53.2906 39.2024 53.267C40.4947 53.1491 41.7603 53.7664 44.2915 55.001C53.4067 59.4468 57.9643 61.6696 60.2294 59.9981C60.6469 59.6901 61.0097 59.3143 61.303 58.8864C62.8945 56.5643 60.5139 52.0871 55.7527 43.1326C54.4306 40.646 53.7695 39.4027 53.8422 38.107C53.8568 37.8485 53.8929 37.5916 53.9502 37.3391C54.2374 36.0736 55.2155 35.0606 57.1719 33.0348C64.2168 25.7396 67.7393 22.0919 66.8495 19.4212C66.6855 18.929 66.4403 18.4677 66.1239 18.0566C64.4073 15.8254 59.4136 16.706 49.426 18.467C46.6526 18.9561 45.2659 19.2006 44.0561 18.731C43.8147 18.6373 43.5815 18.5236 43.3591 18.3911C42.2443 17.7268 41.5832 16.4836 40.2611 13.997Z" fill="url(#paint0_linear_89_4887)"/>
</g>
<defs>
<filter id="filter0_d_89_4887" x="0.881104" y="0.585938" width="66.1039" height="71.6292" filterUnits="userSpaceOnUse" color-interpolation-filters="sRGB">
<feFlood flood-opacity="0" result="BackgroundImageFix"/>
<feColorMatrix in="SourceAlpha" type="matrix" values="0 0 0 0 0 0 0 0 0 0 0 0 0 0 0 0 0 0 127 0" result="hardAlpha"/>
<feOffset dy="5.18927"/>
<feComposite in2="hardAlpha" operator="out"/>
<feColorMatrix type="matrix" values="0 0 0 0 1 0 0 0 0 0.720277 0 0 0 0 0.000989556 0 0 0 1 0"/>
<feBlend mode="normal" in2="BackgroundImageFix" result="effect1_dropShadow_89_4887"/>
<feBlend mode="normal" in="SourceGraphic" in2="effect1_dropShadow_89_4887" result="shape"/>
</filter>
<linearGradient id="paint0_linear_89_4887" x1="29.9654" y1="3.11423" x2="38.9146" y2="53.8679" gradientUnits="userSpaceOnUse">
<stop stop-color="#FFF2C2"/>
<stop offset="1" stop-color="#FFCF25"/>
</linearGradient>
</defs>
</svg>
