<svg width="206" height="196" viewBox="0 0 206 196" fill="none" xmlns="http://www.w3.org/2000/svg">
<path d="M100.498 5.84326C100.453 2.68485 102.125 0.069339 104.233 0.00135166C106.341 -0.0666357 108.087 2.43865 108.132 5.59706L108.197 10.0793L109.211 5.90555C109.932 2.93692 112.123 1.40629 114.104 2.48678C116.086 3.56727 117.107 6.84973 116.386 9.81835L112.904 24.1521C112.183 27.1208 109.992 28.6514 108.01 27.5709C107.376 27.225 106.84 26.6533 106.428 25.9385C105.893 26.3972 105.276 26.6679 104.617 26.6891C104.076 26.7066 103.559 26.5548 103.089 26.2663C102.737 27.8795 101.912 29.2429 100.765 29.8684C98.7833 30.9489 96.5924 29.4183 95.8712 26.4497L92.389 12.1159C91.6678 9.14725 92.6895 5.86479 94.6709 4.7843C96.6523 3.70381 98.8433 5.23444 99.5644 8.20307L100.593 12.4366L100.498 5.84326Z" fill="#FAFAFA"/>
<path d="M27.4116 119.421C27.4116 161.536 61.5529 195.678 103.668 195.678C145.784 195.678 179.925 161.536 179.925 119.421V99.2777H27.4116V119.421Z" fill="#A97337"/>
<g style="mix-blend-mode:multiply">
<path fill-rule="evenodd" clip-rule="evenodd" d="M94.4033 167.098C94.4007 167.856 94.1991 168.607 93.8097 169.308C93.4178 170.013 92.8434 170.654 92.1193 171.194C91.3951 171.734 90.5354 172.162 89.5893 172.455C88.6431 172.747 87.6291 172.897 86.605 172.897C85.5809 172.897 84.5668 172.747 83.6207 172.455C82.6746 172.162 81.8149 171.734 81.0907 171.194C80.3666 170.654 79.7922 170.013 79.4003 169.308C79.0084 168.603 78.8066 167.847 78.8066 167.083L86.605 167.083L94.4033 167.083L94.4033 167.083H102.202H110C110 167.847 109.798 168.603 109.406 169.308C109.014 170.013 108.44 170.654 107.716 171.194C106.992 171.734 106.132 172.162 105.186 172.455C104.24 172.747 103.226 172.897 102.202 172.897C101.178 172.897 100.163 172.747 99.2173 172.455C98.2712 172.162 97.4115 171.734 96.6874 171.194C95.9632 170.654 95.3888 170.013 94.9969 169.308C94.6075 168.607 94.4059 167.856 94.4033 167.098ZM125.003 169.308C125.395 168.603 125.597 167.847 125.597 167.083H117.799L110 167.083C110 167.847 110.202 168.603 110.594 169.308C110.986 170.013 111.56 170.654 112.284 171.194C113.009 171.734 113.868 172.162 114.814 172.455C115.761 172.747 116.775 172.897 117.799 172.897C118.823 172.897 119.837 172.747 120.783 172.455C121.729 172.162 122.589 171.734 123.313 171.194C124.037 170.654 124.612 170.013 125.003 169.308Z" fill="#4B2807" fill-opacity="0.5"/>
</g>
<g style="mix-blend-mode:multiply">
<path fill-rule="evenodd" clip-rule="evenodd" d="M94.4033 154.306C94.4007 155.04 94.1991 155.765 93.8097 156.443C93.4178 157.125 92.8434 157.744 92.1193 158.266C91.3951 158.788 90.5354 159.202 89.5893 159.485C88.6431 159.767 87.6291 159.912 86.605 159.912C85.5809 159.912 84.5668 159.767 83.6207 159.485C82.6746 159.202 81.8149 158.788 81.0907 158.266C80.3666 157.744 79.7922 157.125 79.4003 156.443C79.0084 155.761 78.8066 155.03 78.8066 154.292H86.605H94.4033H94.4033H102.202H110C110 155.03 109.798 155.761 109.406 156.443C109.014 157.125 108.44 157.744 107.716 158.266C106.992 158.788 106.132 159.202 105.186 159.485C104.24 159.767 103.226 159.912 102.202 159.912C101.178 159.912 100.163 159.767 99.2173 159.485C98.2712 159.202 97.4115 158.788 96.6874 158.266C95.9632 157.744 95.3888 157.125 94.9969 156.443C94.6075 155.765 94.4059 155.04 94.4033 154.306ZM125.003 156.443C125.395 155.761 125.597 155.03 125.597 154.292H117.799H110C110 155.03 110.202 155.761 110.594 156.443C110.986 157.125 111.56 157.744 112.284 158.266C113.009 158.788 113.868 159.202 114.814 159.485C115.761 159.767 116.775 159.912 117.799 159.912C118.823 159.912 119.837 159.767 120.783 159.485C121.729 159.202 122.589 158.788 123.313 158.266C124.037 157.744 124.612 157.125 125.003 156.443Z" fill="#4B2807" fill-opacity="0.5"/>
</g>
<g style="mix-blend-mode:multiply">
<path fill-rule="evenodd" clip-rule="evenodd" d="M93.3633 179.9C93.3588 180.833 93.1102 181.756 92.6312 182.618C92.1479 183.488 91.4394 184.279 90.5463 184.945C89.6532 185.61 88.5929 186.139 87.426 186.499C86.2591 186.859 85.0085 187.045 83.7454 187.045C82.4824 187.045 81.2317 186.859 80.0648 186.499C78.8979 186.139 77.8376 185.61 76.9445 184.945C76.0514 184.279 75.3429 183.488 74.8596 182.618C74.3762 181.748 74.1274 180.816 74.1274 179.874H83.7454H93.3632H93.3634H102.981H112.599C112.599 181.776 111.586 183.6 109.782 184.945C107.978 186.289 105.532 187.045 102.981 187.045C100.43 187.045 97.984 186.289 96.1803 184.945C94.3846 183.606 93.3723 181.792 93.3633 179.9ZM131.103 182.618C131.587 181.748 131.835 180.816 131.835 179.874H122.217H112.599C112.599 180.816 112.848 181.748 113.332 182.618C113.815 183.488 114.523 184.279 115.417 184.945C116.31 185.61 117.37 186.139 118.537 186.499C119.704 186.859 120.954 187.045 122.217 187.045C123.48 187.045 124.731 186.859 125.898 186.499C127.065 186.139 128.125 185.61 129.018 184.945C129.911 184.279 130.62 183.488 131.103 182.618Z" fill="#4B2807" fill-opacity="0.5"/>
</g>
<path fill-rule="evenodd" clip-rule="evenodd" d="M50.6501 99.2778H27.4116V119.421C27.4116 149.513 44.8416 175.534 70.1563 187.939C77.7435 178.218 82.3713 165.279 82.3713 151.075C82.3713 127.018 69.0953 106.589 50.6501 99.2778ZM136.185 188.418C162.037 176.213 179.925 149.906 179.925 119.421V99.2778H155.313C136.867 106.589 123.592 127.018 123.592 151.075C123.592 165.513 128.373 178.645 136.185 188.418Z" fill="#62401A"/>
<path d="M102.949 20.0601C58.8308 20.0601 22.9212 53.0615 21.6889 94.2094C21.6673 94.5353 21.6562 94.8639 21.6562 95.195V131.41C21.6562 140.005 29.0768 146.973 38.2305 146.973C47.3841 146.973 54.8047 140.005 54.8047 131.41V117.772L54.8047 132.151C54.8047 140.337 61.8719 146.973 70.5897 146.973C79.3075 146.973 86.3746 140.337 86.3746 132.151L86.3746 117.772V131.41C86.3746 140.005 93.7952 146.973 102.949 146.973C112.103 146.973 119.523 140.005 119.523 131.41L119.523 132.151C119.523 140.337 126.59 146.973 135.308 146.973C144.026 146.973 151.093 140.337 151.093 132.151V131.441C151.111 140.022 158.525 146.973 167.667 146.973C176.821 146.973 184.241 140.005 184.241 131.41V95.195C184.241 94.8639 184.23 94.5353 184.209 94.2094C182.976 53.0615 147.067 20.0601 102.949 20.0601Z" fill="#DBDBDB"/>
<path fill-rule="evenodd" clip-rule="evenodd" d="M102.949 13.1826C58.0522 13.1826 21.6562 49.5786 21.6562 94.4752V110.894L21.6563 123.522C21.6563 132.675 29.0768 140.096 38.2305 140.096C47.3842 140.096 54.8047 132.675 54.8047 123.522V110.894H54.8047V124.311C54.8047 133.029 61.8719 140.096 70.5897 140.096C79.3075 140.096 86.3747 133.029 86.3747 124.311V110.894H86.3749V123.522C86.3749 132.676 93.7955 140.096 102.949 140.096C112.103 140.096 119.523 132.676 119.523 123.522V110.894L119.523 124.311C119.523 133.029 126.591 140.096 135.308 140.096C144.026 140.096 151.093 133.029 151.093 124.311V123.594C151.132 132.715 158.538 140.096 167.667 140.096C176.821 140.096 184.242 132.676 184.242 123.522V98.5871C184.242 98.562 184.242 98.5368 184.241 98.5117V94.4752C184.241 49.5786 147.845 13.1826 102.949 13.1826Z" fill="#FAFAFA"/>
<path d="M106.606 138.083C105.986 138.356 105.282 138.499 104.565 138.499H102.705C101.988 138.499 101.284 138.356 100.664 138.083L85.4135 131.38C82.5557 130.124 79.018 131.838 79.2267 134.345C79.796 141.183 79.7847 146.576 79.2172 153.416C79.0095 155.92 82.5433 157.629 85.3981 156.374L101.26 149.403C101.88 149.13 102.584 148.987 103.301 148.987H103.969C104.686 148.987 105.39 149.13 106.01 149.403L121.949 156.408C124.789 157.656 128.307 155.972 128.121 153.48C127.606 146.592 127.582 141.179 128.101 134.294C128.29 131.797 124.763 130.103 121.918 131.353L106.606 138.083Z" fill="#FFCEB9"/>
<path d="M83.5607 99.8382C80.6496 97.3868 80.877 92.8353 84.018 90.6862L101.669 78.6088C103.721 77.2054 106.441 77.2772 108.415 78.787L124.182 90.8441C127.003 93.0012 127.217 97.1731 124.631 99.6068L108.839 114.47C106.711 116.472 103.422 116.563 101.187 114.681L83.5607 99.8382Z" fill="#FFD500"/>
<ellipse cx="95.7544" cy="96.9234" rx="2.15821" ry="1.96201" fill="#512E0C"/>
<ellipse cx="112.648" cy="96.9234" rx="2.15821" ry="1.96201" fill="#512E0C"/>
<circle cx="66.2593" cy="74.8179" r="17.2657" fill="#FFD500"/>
<circle cx="66.259" cy="74.8181" r="11.5105" fill="#323232"/>
<circle cx="70.5757" cy="71.461" r="4.31642" fill="white"/>
<circle cx="63.3815" cy="79.6139" r="2.87761" fill="white"/>
<circle cx="141.077" cy="74.8179" r="17.2657" fill="#FFD500"/>
<circle cx="141.077" cy="74.8181" r="11.5105" fill="#323232"/>
<circle cx="145.394" cy="71.461" r="4.31642" fill="white"/>
<circle cx="138.199" cy="79.6139" r="2.87761" fill="white"/>
<ellipse cx="54.7486" cy="100.586" rx="8.63284" ry="5.75523" fill="#FFCEB9"/>
<ellipse cx="152.587" cy="100.586" rx="8.63284" ry="5.75523" fill="#FFCEB9"/>
<path d="M89.948 77.3871C89.948 95.2208 74.8164 109.812 55.9819 109.812C37.1474 109.812 22.0158 95.2208 22.0158 77.3871C22.0158 59.5534 37.1474 44.9626 55.9819 44.9626C74.8164 44.9626 89.948 59.5534 89.948 77.3871Z" stroke="#323232" stroke-width="3.59702"/>
<path d="M185.321 77.3871C185.321 95.2208 170.189 109.812 151.354 109.812C132.52 109.812 117.388 95.2208 117.388 77.3871C117.388 59.5534 132.52 44.9626 151.354 44.9626C170.189 44.9626 185.321 59.5534 185.321 77.3871Z" stroke="#323232" stroke-width="3.59702"/>
<path d="M90.1572 74.8727C100.335 73.1395 106.308 73.1707 117.179 74.8727V81.1896C106.798 79.6098 100.879 79.5876 90.1572 81.1896V74.8727Z" fill="#242424"/>
</svg>
