<svg width="393" height="408" viewBox="0 0 393 408" fill="none" xmlns="http://www.w3.org/2000/svg">
<g filter="url(#filter0_i_206_36902)">
<path d="M380.068 72.3565C416.052 51.8229 466.767 1.87815 466.767 1.87815L625.017 129.685L225.839 623.946L-215.064 267.862C-215.064 267.862 -129.871 107.655 -45.5202 57.9336C36.7051 9.46509 56.1005 109.271 156.568 43.3273C257.036 -22.6165 281.828 128.415 380.068 72.3565Z" fill="#FFD72E"/>
</g>
<path d="M380.068 72.3565C416.052 51.8229 466.767 1.87815 466.767 1.87815L625.017 129.685L225.839 623.946L-215.064 267.862C-215.064 267.862 -129.871 107.655 -45.5202 57.9336C36.7051 9.46509 56.1005 109.271 156.568 43.3273C257.036 -22.6165 281.828 128.415 380.068 72.3565Z" stroke="#FACD06" stroke-width="2"/>
<defs>
<filter id="filter0_i_206_36902" x="-218.334" y="-11.4604" width="844.757" height="636.812" filterUnits="userSpaceOnUse" color-interpolation-filters="sRGB">
<feFlood flood-opacity="0" result="BackgroundImageFix"/>
<feBlend mode="normal" in="SourceGraphic" in2="BackgroundImageFix" result="shape"/>
<feColorMatrix in="SourceAlpha" type="matrix" values="0 0 0 0 0 0 0 0 0 0 0 0 0 0 0 0 0 0 127 0" result="hardAlpha"/>
<feOffset dx="-2" dy="-12"/>
<feGaussianBlur stdDeviation="45"/>
<feComposite in2="hardAlpha" operator="arithmetic" k2="-1" k3="1"/>
<feColorMatrix type="matrix" values="0 0 0 0 0.168627 0 0 0 0 0.168627 0 0 0 0 0.168627 0 0 0 0.25 0"/>
<feBlend mode="normal" in2="shape" result="effect1_innerShadow_206_36902"/>
</filter>
</defs>
</svg>
