<svg width="49" height="60" viewBox="0 0 49 60" fill="none" xmlns="http://www.w3.org/2000/svg">
<path d="M47.5761 30.4539C47.5761 46.5029 38.2816 58.8157 25.956 58.8157C13.6305 58.8157 0.616425 47.8977 0.616425 31.8488C0.616425 15.7998 13.6305 0.464844 25.956 0.464844C38.2816 0.464844 47.5761 14.405 47.5761 30.4539Z" fill="white"/>
<g style="mix-blend-mode:darken" opacity="0.42">
<path d="M47.3715 27.2623C47.3576 26.8345 47.2925 26.4719 47.2553 26.1511L47.0275 24.7981L46.8415 23.7705L46.5532 22.4687L46.3765 21.7248L46.2092 20.8042L46.1069 20.3346L45.7907 19.307L45.3676 18.0889L45.1863 17.5821C45.0328 17.1729 44.8748 16.8428 44.7306 16.5778L44.1866 15.5968L43.9542 15.076C43.7496 14.6436 43.5078 14.3228 43.3497 14.1136L43.1405 13.8439L42.9173 13.3325L42.7732 12.9745C42.5593 12.4537 42.3408 12.0213 42.1455 11.6215L41.7085 10.7288L41.4434 10.2452C41.4434 10.2452 41.4434 10.2452 41.4434 10.2406L41.3598 9.96161L41.1691 9.44552C41.0715 9.227 40.9599 9.06891 40.8855 8.96197L40.7042 8.7481L40.6158 8.53887L40.5229 8.35289L40.3462 8.05533C40.3462 8.05533 40.3694 8.00883 40.0998 7.69266C39.9835 7.55318 39.7882 7.20447 39.0304 7.13473C38.9839 7.13473 38.942 7.13473 38.8955 7.13473C38.8537 7.06964 38.8072 6.9999 38.7561 6.93015L38.2772 6.36292C37.9889 6.01421 37.6681 5.66084 37.2636 5.29819L36.5569 4.65192C36.2221 4.3311 35.8548 3.99633 35.4224 3.69877L35.0969 3.46629L34.897 3.32681L34.6041 3.13153L34.4135 3.01065C34.3763 2.98276 34.3763 2.9874 34.3809 2.99205L34.2554 2.88511L34.0136 2.71773L33.7579 2.53176L33.2604 2.22953L32.4374 1.77855L32.1864 1.65766L32.1259 1.62976L32.0143 1.56931L31.7819 1.43448L31.5401 1.27174L31.1542 1.02068C30.8752 0.834702 30.5776 0.616178 30.1917 0.411601L29.9035 0.262814C29.7082 0.183773 29.485 0.127977 29.3037 0.10008L28.8341 0.0814782H28.6295C28.6016 0.0814782 28.9038 -0.155635 28.0111 0.179127C27.8066 0.258168 27.2068 0.416245 27.0301 1.35079C26.9697 1.6623 27.0022 1.82503 27.0115 1.92732L27.0998 2.30393C27.1649 2.48525 27.23 2.82932 27.8345 3.15479C28.1274 3.31287 28.5412 3.34541 28.8992 3.28497L29.4199 3.62437L29.8291 3.8894L30.0987 4.07073L30.5311 4.32179L30.652 4.38689L30.8706 4.49384L31.024 4.56358L31.6982 4.93089L32.019 5.1215L32.1724 5.23774L32.3491 5.35863C32.3491 5.35863 32.3491 5.35863 32.3584 5.36793L32.5909 5.54461L32.9349 5.76779L33.1534 5.91657L33.2976 6.01421L33.6556 6.26992C33.8695 6.41871 34.1252 6.64189 34.4042 6.90691L35.1713 7.61363C35.4549 7.874 35.6409 8.07857 35.8734 8.35289L36.25 8.7946L36.4778 9.19445C36.8544 9.87792 37.245 10.5149 37.6076 11.0868L38.1981 11.9702L38.7282 12.8303L38.9467 13.2441L39.3419 13.909L39.765 14.7692C40.0812 15.4805 40.4299 16.0152 40.6763 16.4476C40.8483 16.7545 40.9739 17.0567 41.1319 17.4519L41.4434 18.2749L41.7457 19.1443L41.9688 19.7394L42.0711 20.0324C42.2199 20.4973 42.3176 21.0041 42.3966 21.5946L42.4803 22.199L42.6012 23.3056L42.6663 24.1007L42.6988 24.533L42.7407 25.0863L42.8476 26.2255L42.8987 27.0298L42.9173 27.3878V28.4805L42.7453 29.3964L42.657 30.1078L42.5872 30.847L42.5547 31.5212L42.5175 31.9211L42.4524 32.4139L42.3827 32.8975L42.2664 33.4089L42.1083 33.8971L41.8666 34.7107L41.7596 35.2129L41.6666 35.6313L41.4899 36.4217L41.2249 37.1006L41.0436 37.4911L40.8809 37.8445L40.5693 38.5977L40.1881 39.5415L39.5837 40.9317L39.4023 41.4013L39.1606 41.9174L38.8304 42.5823L38.3144 43.6749L38.1191 44.0562L37.9657 44.2654L37.4403 44.8001C37.152 45.0977 36.8963 45.4278 36.6498 45.7718L36.078 46.5483L35.5851 47.2178L34.8087 48.25L34.2228 49.0823L33.8974 49.4031C33.5858 49.7192 33.3813 49.9982 33.1767 50.226L32.5025 50.9421L31.9492 51.5093L31.6331 51.8255L31.3541 52.1695L31.1635 52.4159L31.0286 52.6019L30.9868 52.6531L30.9217 52.7507L30.8706 52.8018L30.7218 52.9506L30.108 53.569L29.4943 54.2385L29.3641 54.3594L29.2525 54.4431L29.0294 54.6151L28.955 54.6756L28.8248 54.7825C28.4435 55.1033 28.2343 55.4009 28.0809 55.5776L27.8158 55.8844L27.6996 56.0332L27.5741 56.1541C27.5183 56.2053 27.5601 56.1727 27.5369 56.1913C27.4439 56.261 27.5508 56.182 27.4904 56.2192L27.4067 56.2796C27.4067 56.2796 27.3974 56.2796 27.3416 56.3122C27.3091 56.3308 27.3091 56.3308 27.3184 56.3308L27.0859 56.4424L26.7744 56.6283L26.5837 56.7585C26.5837 56.7585 26.4443 56.7725 26.1978 56.9027C26.1141 56.9399 25.9514 57.0189 25.7561 57.2142C25.6817 57.2886 25.7747 57.0747 25.4772 57.5443C25.3423 57.7628 25.1331 58.1115 25.2447 58.7206C25.4214 59.697 25.9933 59.8039 26.1792 59.883L26.4768 59.976L26.6535 59.9992H27.0301C27.9321 60.0178 28.3924 59.7017 28.9085 59.4785L29.7128 59.1158L30.201 58.8973C30.4103 58.809 30.7357 58.716 31.1728 58.516C31.8237 58.2138 32.2979 57.7721 32.7024 57.3165L33.1627 56.7585L33.3301 56.5958C33.4371 56.4982 33.544 56.447 33.823 56.3447L34.4321 56.0983C34.7157 55.9681 35.0737 55.7822 35.4456 55.4985L35.9013 55.1173L36.2593 54.8104L36.6731 54.485L37.3333 53.9828L37.4728 53.8573C37.4728 53.8573 37.5054 53.8619 37.5239 53.8666C37.5751 53.8759 37.6262 53.8852 37.6774 53.8945C37.7239 53.8991 37.7704 53.9038 37.8215 53.9038C37.8727 53.9038 37.9238 53.9038 37.9749 53.9038C37.9842 53.9038 37.9935 53.9038 37.9982 53.9038C38.0075 53.9038 38.0168 53.9038 38.0261 53.9038C38.04 53.9038 38.0493 53.9038 38.0633 53.9038C38.0819 53.9038 38.0958 53.8945 38.1098 53.8945C38.1423 53.8898 38.1795 53.8852 38.2074 53.8805C38.6491 53.7968 38.8584 53.6109 38.9839 53.4528C39.1048 53.3458 39.1931 53.2482 39.2536 53.1552C39.3047 53.1087 39.3744 53.0436 39.4814 52.932L39.8719 52.4903L40.6205 51.5325L40.8762 51.1652C41.1784 50.8677 41.4713 50.5004 41.7503 50.0494L42.2199 49.2171L42.3919 48.8591L42.815 48.2082L43.1777 47.7153C43.3265 47.5061 43.4939 47.255 43.6241 46.911C43.7682 46.5251 43.8054 46.2275 43.8379 46.0415L43.9635 45.5766L44.1215 44.9163L44.2657 44.2747L44.3447 43.8934L44.5354 43.1309L44.7213 42.6056L45.2142 41.3176L45.6373 40.0623L46.0232 38.5745L46.1999 37.7329L46.2882 37.2866L46.3858 36.8123L46.4277 36.5287L46.623 35.7801L46.8647 34.6828L46.9763 33.911L47.0228 33.5298L47.1716 31.9815L47.3064 30.8191L47.3343 30.3495L47.3669 29.1081V28.7269L47.3901 27.5599V27.2855L47.3715 27.2623ZM27.2765 0.918392C27.2579 0.950938 27.2347 0.98348 27.2161 1.01603C27.2347 0.98348 27.2533 0.950933 27.2626 0.927685L27.2765 0.913738V0.918392Z" fill="#F8BA00" fill-opacity="0.5"/>
</g>
<g style="mix-blend-mode:darken" opacity="0.42">
<path d="M17.8055 44.261C17.4615 44.0192 16.9407 43.8007 16.2851 43.9494C16.0387 44.0052 15.8248 44.1215 15.6435 44.2749C15.5319 44.2749 15.4017 44.2889 15.239 44.3261C15.2344 44.3261 15.0391 44.3632 14.8206 44.4702C14.6532 44.5539 14.4765 44.6608 14.2905 44.8468C13.9511 45.1862 13.9232 45.428 13.9186 45.4373C13.8814 45.5395 13.8349 45.4977 13.7651 45.9487C13.7186 46.2649 13.7186 46.767 14.058 47.2413C14.4719 47.8178 14.7229 47.7806 14.8299 47.8178L14.9647 47.8596L15.1972 47.9201L15.3785 47.948L15.7133 47.9898L16.0108 48.0131H16.3409C16.4432 48.0131 16.7268 48.0131 17.0756 47.8875L17.3731 47.762C17.4754 47.7108 17.2987 47.8038 17.494 47.7109L17.6102 47.6504C17.7776 47.5621 18.0519 47.3342 18.1821 47.1483C18.224 47.0925 18.3728 47.046 18.5355 46.488C18.5959 46.2788 18.6145 46.1161 18.6238 45.9766C18.6238 45.9441 18.6889 45.786 18.5773 45.3443C18.4239 44.7585 18.1356 44.4841 17.8009 44.2516L17.8055 44.261Z" fill="#F8BA00" fill-opacity="0.5"/>
</g>
<g style="mix-blend-mode:darken" opacity="0.42">
<path d="M31.0798 45.0094C31.0379 45.0791 30.9635 45.2046 30.9031 45.4092C30.838 45.6277 30.8241 45.8044 30.8194 45.8649V45.9299C30.8008 46.0601 30.7729 46.3902 30.9589 46.8133C31.1914 47.3294 32.0701 47.8037 32.3909 47.8502C32.3444 47.8455 32.284 47.8362 32.3537 47.8502C32.363 47.8502 32.4932 47.9199 32.9024 47.9106H33.2743C33.6277 47.9106 33.8276 47.8316 33.8462 47.8269L33.9253 47.813L34.1949 47.7479C34.339 47.7107 34.4971 47.6596 34.6971 47.5526C34.7389 47.5294 35.0597 47.4038 35.3433 47.0086C35.3526 46.9947 35.5851 46.7668 35.6828 46.2508C35.7757 45.744 35.4968 44.9024 35.0411 44.5537C34.7296 44.3166 34.3669 44.1957 33.995 44.1725H33.73L33.716 44.1631C33.6649 44.1399 33.6044 44.126 33.5486 44.112C33.5068 44.0981 33.4649 44.0841 33.4185 44.0748C33.3627 44.0655 33.3069 44.0609 33.2511 44.0562C33.2046 44.0562 33.1581 44.0423 33.1116 44.0423H33.0604L32.7768 44.0283H32.6327C32.5537 44.0376 32.7117 44.0283 32.5676 44.0283C32.3863 44.0376 31.9818 44.0981 31.6191 44.377C31.3448 44.5909 31.1449 44.9164 31.0891 45.014C31.0937 45.0047 31.0984 45.0001 31.0891 45.014L31.0798 45.0094Z" fill="#F8BA00" fill-opacity="0.5"/>
</g>
<path d="M27.5043 46.33V46.3114L27.4904 46.2184L27.4764 46.1301V46.1069L27.4625 46.0697C27.4485 46.0046 27.4253 45.9441 27.3974 45.8883L27.3741 45.8465C27.3416 45.7907 27.3044 45.7442 27.2579 45.7024L27.2021 45.6559C26.9743 45.4745 26.6535 45.4792 26.4256 45.6559L26.3699 45.7024C26.3234 45.7442 26.2862 45.7953 26.2536 45.8465L26.2304 45.8883C26.1978 45.9441 26.1792 46.0046 26.1653 46.0697V46.0929L26.142 46.1813L26.1327 46.2743V46.2835L26.1141 46.3905L26.1048 46.4556V46.53L26.0676 46.9856C26.0583 47.1716 25.9886 47.4273 25.9003 47.7295L25.8166 47.9806L25.7236 48.1387L25.705 48.1805L25.6166 48.2642L25.4679 48.3758L25.3795 48.4316L25.1052 48.3851L24.9425 48.3293L24.8727 48.2828C24.8727 48.2828 24.8681 48.2828 24.8727 48.2875L24.7797 48.1852L24.7239 48.1154L24.617 47.962L24.4868 47.7667L24.4031 47.6458L24.3659 47.5854L24.3287 47.4552L24.2776 47.2832L24.1707 46.7438L24.1288 46.5671L24.0823 46.3254L23.9986 45.972L23.9521 45.7581C23.9056 45.5675 23.7755 45.4141 23.5941 45.3397C23.2826 45.2095 22.9246 45.3583 22.7944 45.6652C22.7247 45.8279 22.72 45.9255 22.7014 46.1022L22.7154 46.5532L22.7247 46.7671L22.7526 46.9856L22.8316 47.6179L22.9292 47.9806L22.9664 48.0643L23.092 48.3711L23.278 48.6687L23.3523 48.771L23.5523 49.0407L23.7336 49.236L23.9149 49.3801L24.3241 49.6126C24.5519 49.7056 24.7704 49.7288 24.9611 49.7427C25.1331 49.7427 25.3842 49.7567 25.6259 49.6776C25.9282 49.6079 26.0862 49.4591 26.2071 49.3708L26.4721 49.1476L26.5512 49.0593L26.7279 48.8686L26.9371 48.5943L27.1882 48.134C27.2997 47.8597 27.4439 47.5157 27.5043 47.0414V46.423L27.4857 46.3114L27.5043 46.33ZM24.896 48.3014C24.896 48.3014 24.9099 48.3154 24.9053 48.3107L24.896 48.3014Z" fill="black"/>
<path d="M35.4689 45.0698C35.4456 45.0047 35.4084 44.9442 35.3666 44.8884L35.2829 44.8001L35.1852 44.7211L35.083 44.6606L35.0318 44.6374L34.9807 44.6141L34.9342 44.5955L34.8272 44.5537L34.7156 44.4932L34.5715 44.4142L34.5064 44.3677C34.3669 44.2561 34.2182 44.1259 33.9531 44.0143L33.7346 43.9353L33.5998 43.8934L33.4138 43.7865L33.2836 43.7307L33.4324 43.5959L33.6184 43.3913L33.7067 43.303L33.8973 43.0937L33.9671 42.9961L34.2879 42.6567L34.5576 42.3219L34.6366 42.2289C34.6924 42.1731 34.7389 42.1081 34.7761 42.0383C34.8086 41.9686 34.8598 41.857 34.8644 41.7082C34.8644 41.6059 34.8505 41.5083 34.8086 41.4153C34.6599 41.0852 34.2739 40.941 33.9438 41.0898C33.8927 41.1131 33.9717 41.0759 33.9252 41.0945C33.8508 41.1224 33.7811 41.1642 33.7207 41.2153L33.5486 41.3874L33.1534 41.8523L32.9535 42.1406L32.8233 42.3266L32.7303 42.4521L32.6931 42.4986L32.4281 42.8101L32.2933 42.9914L32.2142 43.0844L32.0747 43.2425H32.084L31.9678 43.3588L31.8655 43.475L31.9306 43.4052C31.6935 43.6284 31.6238 44.0422 31.833 44.4235C32.0004 44.6513 32.2282 44.7489 32.3723 44.7954L32.5071 44.828L32.8094 45L32.9349 45.0651L33.3348 45.2464L33.4835 45.2976L33.6928 45.4324L33.888 45.5626L34.2925 45.7253L34.353 45.7346L34.4878 45.7765L34.5157 45.7858L34.5436 45.7951L34.6273 45.8276L34.7156 45.8509L34.7993 45.8695H34.8272C34.897 45.8834 34.9714 45.8834 35.0411 45.8695L35.083 45.8602H35.0969C35.4084 45.7718 35.5897 45.4557 35.5061 45.1441L35.4828 45.0698H35.4689Z" fill="black"/>
<path d="M18.0519 42.4476L17.8985 42.1965C17.7032 41.9176 17.4429 41.7734 17.0942 41.6432C16.9175 41.5921 16.7547 41.5735 16.5037 41.5688L16.2944 41.5967C16.1643 41.6246 15.969 41.6758 15.8016 41.8199C15.5831 41.9873 15.4157 42.164 15.2716 42.3546C15.2158 42.4429 15.0995 42.6243 15.0577 42.9218C15.0577 42.9404 15.0577 42.959 15.0577 42.9776C15.053 43.0102 15.0437 43.0427 15.0391 43.0753L15.0251 43.5309C15.0251 43.5681 15.0158 43.6844 15.067 43.861C15.1646 44.2191 15.4296 44.4097 15.4436 44.4236L15.6575 44.6189L15.9225 44.763C16.141 44.8467 16.3316 44.8421 16.3084 44.8374C16.6803 44.8979 17.0709 44.9025 17.4475 44.6793L17.8009 44.3771L17.9125 44.2283L18.0473 44.0005C18.1821 43.7448 18.2007 43.5077 18.21 43.3357C18.224 43.2473 18.2705 43.0567 18.21 42.7824C18.1542 42.5127 18.024 42.415 18.0473 42.4476H18.0519Z" fill="black"/>
<path d="M48.2131 27.16C48.1712 26.4022 47.9527 25.6722 47.7528 24.9655L47.2506 22.9802L47.0275 21.948L46.9205 21.4784L46.8601 21.1855C46.8601 21.1855 46.8601 21.1994 46.8601 21.1948L46.8461 21.1204L46.7903 20.8879L46.6788 20.5113L45.9999 18.4934L45.5582 16.9498C45.4606 16.5592 45.363 16.1501 45.2142 15.7688L44.8701 15.1179L44.5586 14.4251L44.3494 13.9555L44.1587 13.5417L44.0285 13.2535L43.5078 12.0772L43.2335 11.5518L42.8662 10.9008L42.5965 10.4731L42.4431 10.2453L42.3222 10.0639L41.8759 9.56645L41.5829 9.22238L41.1738 8.69235L40.9599 8.45522L40.8902 8.35293L40.5647 7.93448L40.3276 7.66016L40.03 7.28356L39.7696 6.93485L39.4814 6.57219L39.2535 6.29786C39.0164 5.98634 38.8118 5.70739 38.5422 5.42377L38.3562 5.22848C38.1888 5.0611 38.0214 4.91697 37.8076 4.78214L37.1938 4.41017L36.9753 4.2428L36.4127 3.83364L36.2035 3.67556L36.0315 3.54538L35.8362 3.39659L35.6409 3.21061L35.4503 3.02464C35.2271 2.83401 34.9388 2.67127 34.6599 2.53644C34.1391 2.28536 33.5115 2.0343 32.8419 1.83438L32.377 1.69024C32.0934 1.6112 31.9399 1.53215 31.6889 1.42057L31.289 1.26714L31.1309 1.1788C30.4381 0.764995 29.5501 0.527873 28.6202 0.453481C27.7694 0.388389 26.9324 0.434875 26.1141 0.430226C25.7654 0.430226 25.3702 0.439527 24.9797 0.476723L24.1753 0.588306H24.1567C24.087 0.518564 23.9754 0.48602 23.8777 0.532515C23.8359 0.551112 23.6871 0.518564 23.371 0.458121C22.9432 0.434874 22.6317 0.532517 22.3713 0.579012C21.9482 0.667352 21.4926 0.681298 20.9997 0.75104L20.2326 0.937016L19.8048 1.0858C19.4189 1.22994 19.0888 1.42521 18.7447 1.62049L18.1728 1.95061L17.3173 2.48064L16.6432 2.96885L16.3828 3.16877L15.9225 3.49423L15.0995 4.09867L14.7648 4.37298L14.5509 4.5543L14.2766 4.78678L13.886 5.1448L13.6861 5.33077L13.1096 5.79107C12.5888 6.21417 12.1099 6.69306 11.6961 7.15801C11.3009 7.60436 10.7616 8.12976 10.3664 8.51566L9.72476 9.1108L9.19006 9.64083L8.99014 9.8733L8.72977 10.2081L8.39965 10.766C8.14858 11.1891 7.74873 11.7284 7.31168 12.3654L6.6468 13.3418C6.2516 13.9741 5.91219 14.6344 5.59602 15.2295C5.40075 15.5829 5.02879 16.1454 4.62429 16.7266C4.40111 17.0521 4.21978 17.359 4.0803 17.6658C3.75019 18.3632 3.5549 18.8421 3.23409 19.3396L2.75055 20.13C2.46693 20.6508 2.26235 21.2273 2.12287 21.8922C1.96014 22.6408 1.8718 23.2731 1.62072 23.7892C1.3836 24.2867 1.19762 24.733 1.10463 25.2026C0.979097 25.8489 0.709427 26.5184 0.537396 27.2809C0.430458 27.7645 0.26773 28.4015 0.235183 29.0431L0.151489 30.4193V31.4841L0.184039 32.0513C0.235183 32.8138 0.137546 33.5856 0.258432 34.4551C0.332824 34.9665 0.374667 35.5384 0.481605 36.1335L0.579247 36.7287L0.630391 37.0123C0.700133 37.4214 0.79312 38.0491 0.932604 38.6024C1.10928 39.3184 1.29991 40.0251 1.52309 40.7504C1.64862 41.141 1.8067 41.5037 1.98338 41.8245L2.18331 42.1778C2.267 42.3313 2.34139 42.5312 2.41113 42.773C2.6715 43.6936 3.15505 44.563 3.44797 45.3581C3.69439 46.0276 4.0431 46.5809 4.38716 47.097L4.92185 47.813L5.24267 48.2361L5.43329 48.4779L5.62857 48.701L5.71226 48.8219L6.22835 49.4078L6.53987 49.7379C6.79559 50.0029 7.17219 50.4818 7.46976 50.877L8.06955 51.6395L8.34851 51.951L8.4694 52.0905L8.76697 52.416L9.16217 52.76L9.70615 53.1366L10.0549 53.4063L10.4268 53.7364L10.8034 54.0991L10.9941 54.2711L11.3893 54.6152L11.7566 54.9499C12.0774 55.2661 12.3796 55.5125 12.6446 55.6985L13.0305 55.9496L13.5373 56.2518C13.8721 56.4145 14.1185 56.4517 14.2115 56.4889L14.9089 56.926L15.2297 57.1538L15.6435 57.4049L16.2619 57.735L16.5967 57.907L17.0012 58.1023L17.4847 58.3906C18.0334 58.7114 18.7075 58.981 19.4375 58.995L20.2558 59.0554L21.725 59.1717C21.9947 59.1949 22.4597 59.3344 23.0129 59.3855L23.6546 59.4274L24.0172 59.4553L24.3148 59.4832L24.5752 59.5018L24.8355 59.5111H25.691L25.7794 59.5018C25.8166 59.5018 25.8538 59.4971 25.8863 59.4878L26.0165 59.4553C26.0165 59.4553 26.0537 59.4367 26.0769 59.432C26.2164 59.4181 26.3327 59.3948 26.435 59.3855H27.0998C27.7601 59.3902 28.3459 59.3158 28.9131 59.3111C29.2897 59.3111 29.6338 59.2414 29.9407 59.1577C30.5125 58.9903 31.0565 58.8136 31.5959 58.5765L33.1999 57.9767L33.9485 57.6931L34.4785 57.4792L34.7668 57.3398C35.2271 57.098 35.5247 56.8655 35.6781 56.7911L36.8405 56.1309L37.2822 55.8659C37.5658 55.7031 37.7239 55.6148 37.9005 55.4753L38.3655 55.0708L38.6212 54.8569L38.8258 54.6849L39.1048 54.4664H39.1094L39.2907 54.3176L39.844 53.8015L40.1881 53.4389L40.3927 53.2389L40.7507 52.8763L41.1273 52.4764L41.4342 52.1417L41.6852 51.8766L41.9038 51.6023L42.6616 50.6027L43.0568 50.0308C43.2149 49.7983 43.4102 49.5054 43.6101 49.1055L44.1727 47.9478L44.5818 47.0551L45.0282 46.0508C45.2839 45.465 45.4559 44.8978 45.6187 44.3584L45.9581 43.2007L46.1162 42.6474L46.3207 42.0337L46.6695 40.9922C46.8136 40.5784 46.9531 40.3041 47.0228 39.8857C47.1623 38.993 47.1995 38.249 47.3018 37.4865L47.5575 36.2172L47.7109 35.3013L47.7946 34.8549C47.8876 34.3435 47.8923 33.8227 47.9155 33.3299C47.9248 33.3066 47.9434 33.2834 47.9481 33.2648C48.0178 33.0881 48.041 32.9254 48.0689 32.6976C48.0875 31.6979 48.0689 30.8006 48.1433 29.8707L48.1991 28.3503L48.2131 27.5924V27.1461V27.16ZM46.8694 32.0002L46.8415 32.2931L46.8275 32.5116L46.7764 32.8789C46.7113 33.5205 46.7159 34.1668 46.6183 34.6364L46.5253 35.0734L46.33 36.0126L46.1022 37.3005C45.9674 38.1328 45.9069 38.8535 45.7535 39.6857C45.7163 39.9089 45.614 40.1135 45.4513 40.5831L45.0979 41.6292L44.8701 42.2941L44.726 42.852L44.3633 44.0097C44.2052 44.5398 44.0564 45.0559 43.8426 45.558L43.4381 46.5344L42.9917 47.4224L42.4617 48.5476C42.2943 48.8777 42.1455 49.1009 41.9874 49.338L41.6341 49.8495L40.9041 50.7933L40.6809 51.0444L40.4671 51.2722L40.1881 51.5791L39.7882 52.0347L39.486 52.3602L39.2489 52.602L38.9188 52.946L38.4678 53.3645L38.3608 53.4528C38.3329 53.4714 38.4073 53.4249 38.3423 53.4668C38.3376 53.4668 38.333 53.4761 38.3283 53.4807C38.3237 53.4807 38.3144 53.4853 38.3097 53.49L38.0168 53.7225L37.789 53.9085L37.5425 54.1223L37.0822 54.499L36.6359 54.7686L36.143 55.0615L35.0783 55.6985C34.7622 55.8752 34.539 56.0797 34.1903 56.275L33.9392 56.3959L33.4696 56.6191L32.7908 56.9306L31.2007 57.6094C30.6892 57.814 30.1917 57.9628 29.6245 58.1162C29.3781 58.186 29.1363 58.2371 28.9131 58.2371C28.2622 58.2325 27.6764 58.3022 27.0859 58.2883C26.7976 58.2929 26.4954 58.2929 26.1606 58.3859C26.0909 58.4138 26.0304 58.437 25.9793 58.4603C25.9747 58.4603 25.9654 58.4556 25.9607 58.4556L25.8398 58.437C25.8026 58.4324 25.7654 58.4277 25.7329 58.4324H25.6445L25.5237 58.4417H25.0634L24.8634 58.4324L24.6217 58.4185L24.3799 58.4091L24.1195 58.3952L23.7708 58.3627L23.1199 58.2789C22.7247 58.2371 22.2969 58.0883 21.8366 58.0372L20.3906 57.9023L19.4793 57.8094C19.0423 57.7908 18.5448 57.5908 18.1356 57.3351L17.6149 57.019L17.1639 56.7818L16.871 56.6284L16.2759 56.2983L15.955 56.1123L15.6296 55.8891C15.3274 55.6846 15.0484 55.466 14.6904 55.3172L14.0999 55.1266L13.7001 54.8895L13.3978 54.6989C13.1793 54.5361 12.9422 54.3362 12.6772 54.0619L12.2029 53.6295L11.8728 53.3505L11.6822 53.1692L11.287 52.8112L10.8825 52.4671L10.4547 52.1603L9.91073 51.7651L9.65966 51.5419L9.39929 51.2815L9.25515 51.1281L9.00873 50.8631L8.4508 50.1656C8.13463 49.7472 7.75338 49.2543 7.41397 48.9103L7.14894 48.6359L6.684 48.1106L6.53987 47.9199L6.38178 47.7479L6.1958 47.5108L5.88894 47.1063L5.39145 46.4321C5.06133 45.9486 4.76841 45.4836 4.56849 44.9582C4.22908 44.0655 3.75948 43.21 3.5456 42.4708C3.46191 42.1778 3.36428 41.8989 3.22014 41.6338L3.02022 41.2758C2.88074 41.0155 2.75055 40.7225 2.64826 40.4017C2.42509 39.7183 2.2391 39.0348 2.06242 38.3374C1.94619 37.8678 1.8625 37.2587 1.78811 36.8217L1.73696 36.552L1.63467 35.9382C1.53703 35.4175 1.49054 34.8596 1.40685 34.3016C1.29991 33.6135 1.37431 32.8649 1.30456 31.9862L1.26737 31.4748V30.4658L1.30921 29.1128C1.32781 28.606 1.46265 28.0109 1.56029 27.5227C1.69977 26.8578 1.96014 26.1744 2.09497 25.4118C2.15542 25.0678 2.2949 24.7005 2.51342 24.2309C2.82959 23.5335 2.89933 22.8221 3.03881 22.1154C3.16435 21.5202 3.33173 21.0413 3.56421 20.5996L4.0059 19.879C4.38251 19.3024 4.60103 18.7724 4.9172 18.0982C5.04273 17.8425 5.19617 17.5868 5.40075 17.2939C5.8099 16.7034 6.19116 16.1361 6.41898 15.7177C6.75839 15.1179 7.0978 14.4763 7.47441 13.8905L8.12534 12.9513C8.55309 12.3282 8.95759 11.7842 9.24586 11.3007L9.56202 10.8078L9.7666 10.5521L9.94328 10.3522L10.4129 9.9012L11.0824 9.28282C11.4869 8.89227 12.0309 8.35758 12.4679 7.86474C12.8445 7.43234 13.2862 6.98598 13.7512 6.60472L14.3603 6.10259L14.5788 5.88871L14.9322 5.57719L15.1925 5.35401L15.4064 5.17735L15.7272 4.92162L16.5037 4.37298L17.0058 4.03822L17.2476 3.85688L17.9078 3.4059L18.7168 2.89445L19.2748 2.56899C19.6188 2.36906 19.9024 2.20167 20.1721 2.09938L20.5534 1.9692L21.195 1.79253C21.3252 1.76463 21.4693 1.73673 21.6135 1.71348C21.4926 1.82507 21.3763 1.94596 21.2647 2.06219C21.0276 2.31792 20.7998 2.51319 20.5301 2.74101C20.2698 2.96419 19.9303 3.26176 19.6188 3.58722C19.3213 3.89874 19.1167 4.19166 18.9261 4.43343C18.7447 4.6659 18.3774 4.99601 17.9822 5.31217C17.6521 5.58184 17.415 5.78177 17.243 5.96775C17.1453 6.07004 17.043 6.18627 16.95 6.37225C16.9035 6.47454 16.8059 6.69771 16.8989 6.95343C16.9733 7.19521 17.1035 7.2696 17.1407 7.30214L17.4382 7.59506C17.6149 7.76244 17.9357 8.05071 18.317 8.32503C18.6982 8.59935 19.0841 8.81788 19.4514 8.99921L19.935 9.22238C20.293 9.40371 20.5534 9.65013 20.8835 9.84541C21.0834 9.97094 21.2275 10.0639 21.3949 10.2267L21.8087 10.6033C22.2179 10.9101 22.6549 10.9892 22.9664 11.0682L23.3059 11.1752C23.5616 11.2589 23.8638 11.3704 24.1335 11.5192C24.5008 11.7284 24.803 11.947 25.2121 12.1051L26.0723 12.3608C26.2583 12.4073 26.3559 12.4584 26.4861 12.5375L26.8395 12.7095L27.0254 12.7792L27.2858 12.849L27.6252 13.0582C27.3974 13.3418 27.0301 13.6673 26.6907 14.0578L26.0258 14.8157L25.7143 15.183L25.4679 15.4108L25.1052 15.7223L24.6868 16.1408L24.3101 16.629L23.8545 17.2334L23.3291 17.8751L22.7851 18.512L22.5852 18.7073L22.3248 18.9398L22.0877 19.2094L21.7855 19.5907L21.5949 19.8418L21.4228 20.1114C21.367 20.2137 21.2694 20.3393 21.3019 20.6275C21.3391 20.9483 21.6367 21.1529 21.7343 21.1855C22.2644 21.4272 22.7851 21.3761 23.2454 21.5295C23.4639 21.5993 23.6918 21.7155 23.8824 21.8317L24.2311 22.0968L24.4868 22.2967L24.617 22.385L24.8216 22.5199L25.1517 22.743L25.3284 22.8593C25.6538 23.036 25.9142 23.0453 25.8863 23.0313L26.0165 23.1197L26.0955 23.1754C26.0909 23.3056 26.049 23.4358 25.9933 23.6822L25.9514 23.9054L25.891 24.2309L25.6166 25.0538L25.2307 25.9419L24.6728 26.9834L24.4078 27.6622L24.2404 28.0295L23.9103 28.5688L23.4732 29.3174L23.357 29.5824L23.2919 29.7358L23.2315 30.0567C23.2315 30.3868 23.4779 30.7448 23.6406 30.8657L23.6871 30.9075L23.8591 31.0377C24.2776 31.2888 24.7611 31.4887 25.1703 31.7119C25.3237 31.7909 25.4865 31.935 25.5469 32.0327V32.0652L25.4818 32.1908L25.3702 32.4651C25.2726 32.7673 25.2307 33.0695 25.1749 33.302L25.1052 33.5345L24.896 34.2226C24.8169 34.4597 24.7332 34.7387 24.6775 35.0548L24.6496 35.557V35.8685L24.6077 36.0405C24.5612 36.2126 24.4682 36.4311 24.4078 36.7147L24.338 37.2401L24.3473 37.4726L24.338 37.5609L24.3101 37.6586L24.2776 37.9422L24.259 38.0398L24.2451 38.1328C24.2404 38.1746 24.2404 38.2211 24.2451 38.263L24.2636 38.3932C24.2636 38.4257 24.2729 38.4583 24.2869 38.4862L24.3334 38.6163L24.3427 38.6954V38.7605C24.3334 38.807 24.3427 38.8535 24.352 38.9V38.9093C24.3659 38.9743 24.3938 39.0394 24.4357 39.0952C24.5798 39.2766 24.8402 39.3045 25.0169 39.165L25.0773 39.1138C25.1099 39.0813 25.1424 39.0441 25.161 38.9976L25.2121 38.8767V38.8674L25.2493 38.7605L25.2633 38.6954L25.3284 38.4629C25.3377 38.4304 25.3423 38.3978 25.347 38.3699L25.3563 38.263C25.3609 38.2211 25.3563 38.1746 25.3563 38.1328V38.0724L25.3423 38.1096L25.3656 37.9329L25.426 37.6725V37.5144L25.4493 37.2912L25.4958 36.9518L25.7003 36.3428L25.7608 36.1149L25.8119 35.7569V35.5895L25.8538 35.2176L26.0072 34.5759L26.2629 33.8413L26.3466 33.5717L26.5233 32.8092L26.5465 32.7255L26.6209 32.5767C26.7232 32.4093 26.7418 32.2419 26.7511 32.1954C26.7837 31.9397 26.7604 31.6979 26.6256 31.4283C26.4257 31.047 26.1095 30.782 25.7608 30.5867L24.4636 29.9683H24.4496L24.5101 29.8614L24.9285 29.15L25.2726 28.5642L25.4911 28.0434L25.7143 27.453L26.2118 26.4161L26.6674 25.449C26.793 25.1189 26.9046 24.7795 26.9696 24.4773L27.044 24.0681L27.0673 23.8868C27.1138 23.6264 27.2021 23.3056 27.1324 22.9151C27.0859 22.571 26.8162 22.3943 26.7976 22.3804L26.6302 22.2316L26.421 22.0968C26.1885 21.948 26.0723 21.9294 25.9793 21.8596L25.9142 21.7992L25.5702 21.5202L25.3888 21.3668L25.2865 21.2692L25.0541 21.0553L24.5659 20.7391C24.3008 20.581 23.994 20.4276 23.6453 20.3207C23.3989 20.2463 23.1571 20.1951 22.9432 20.1626L23.0641 20.0138L23.2454 19.8092L23.4872 19.5768L23.7243 19.2978L24.2822 18.5725L24.7565 17.9122L25.2214 17.252L25.5237 16.8289L25.8398 16.4756L26.156 16.2059L26.5093 15.8665L26.8395 15.4341L27.4346 14.6995C27.7972 14.2764 28.318 13.8811 28.6063 13.3465C28.6853 13.2256 28.7597 13.0675 28.7364 12.8722C28.7178 12.6676 28.6202 12.5514 28.5551 12.4631C28.4249 12.3143 28.3087 12.2538 28.2482 12.212C28.1413 12.1283 27.9786 11.9749 27.7415 11.8679L27.4206 11.7285L27.323 11.6773L27.1231 11.5657C26.951 11.4495 26.7186 11.3146 26.3978 11.217L25.612 11.0031C25.3795 10.9287 25.0959 10.7567 24.6775 10.5428C24.3101 10.3568 23.9428 10.2313 23.6313 10.1476L23.2315 10.05C22.8874 9.97559 22.6224 9.92909 22.4132 9.78496L22.0923 9.51995C21.8506 9.29678 21.6274 9.14799 21.4089 9.02245C21.195 8.88762 20.8881 8.59935 20.4092 8.34828L19.8931 8.10651C19.5584 7.95308 19.2143 7.77174 18.8889 7.54857C18.5541 7.31609 18.2565 7.05572 18.0892 6.91159L17.8985 6.73027L17.959 6.66053L18.6378 6.10724C19.0562 5.77248 19.4654 5.42376 19.7537 5.05646C19.9536 4.79608 20.1303 4.54036 20.372 4.27999L21.1996 3.48028C21.4693 3.23386 21.7204 2.99209 21.9808 2.68988C22.1714 2.4667 22.3992 2.23422 22.5852 2.08544L22.8456 1.84832C23.1013 1.82508 23.3152 1.82508 23.5058 1.84832L23.8917 1.86227H24.073L24.2497 1.84367L24.4496 1.81112L25.1099 1.69024L26.1281 1.64375C26.9836 1.64375 27.7926 1.5926 28.5505 1.64375C29.3316 1.69489 30.0708 1.89947 30.559 2.18309L30.8473 2.34117L31.2286 2.48995C31.4657 2.60154 31.7075 2.71778 32.0748 2.82471L32.5211 2.95954C33.1348 3.14552 33.7114 3.37335 34.1624 3.59187L34.711 3.94059L34.8505 4.06612L35.069 4.26604L35.3573 4.50782L35.5107 4.62406L35.7246 4.78678L36.2593 5.17735L36.5243 5.39122C36.794 5.5865 37.0358 5.70738 37.2078 5.81432L37.5425 6.07934L37.7006 6.23277C37.9192 6.46989 38.0819 6.69772 38.319 7.01853L38.5701 7.32075L38.8351 7.6648L39.0676 7.98562L39.4023 8.46451L39.6069 8.71093L39.9138 9.08754L40.0254 9.24563L40.2392 9.51064L40.6205 9.99885L40.946 10.4033L41.2993 10.8311L41.3923 10.9706L41.5643 11.2263L41.7689 11.5471L42.0851 12.1562L42.3408 12.6723L42.829 13.7975L42.9499 14.0625L43.1591 14.5553L43.3311 14.9552L43.6938 15.727L43.9821 16.3128C44.0797 16.5313 44.1866 16.908 44.2936 17.2892C44.4517 17.8611 44.6144 18.4423 44.7818 18.9119L45.4094 20.9251L45.4978 21.232L45.5489 21.5016L45.6001 21.7573L45.7163 22.2734L45.9441 23.2545C46.079 23.9566 46.2417 24.6028 46.4184 25.3188C46.5858 26.0395 46.7392 26.6997 46.7439 27.2391V27.6296L46.7578 28.3875L46.8136 29.8614C46.8229 30.4612 46.8694 31.0377 46.9205 31.6235L46.9066 31.8235L46.8926 32.0094L46.8694 32.0002Z" fill="black"/>
</svg>
