<svg width="81" height="44" viewBox="0 0 81 44" fill="none" xmlns="http://www.w3.org/2000/svg">
<rect width="81" height="43.5345" rx="15.0119" fill="#E4E4E4"/>
<path d="M19.7299 15.632C20.6259 15.632 21.3245 15.8453 21.8259 16.272C22.3272 16.688 22.5779 17.216 22.5779 17.856C22.5779 18.4107 22.3112 18.688 21.7779 18.688C21.6072 18.688 21.4685 18.608 21.3619 18.448C21.2552 18.2773 21.1432 18.096 21.0259 17.904C20.9192 17.7013 20.7859 17.52 20.6259 17.36C20.4659 17.1893 20.2419 17.104 19.9539 17.104C19.5485 17.104 19.2339 17.2427 19.0099 17.52C18.7859 17.7867 18.6739 18.1173 18.6739 18.512C18.6739 18.8 18.7805 19.0507 18.9939 19.264C19.2072 19.4773 19.4739 19.6853 19.7939 19.888C20.1139 20.08 20.4605 20.2827 20.8339 20.496C21.2072 20.6987 21.5539 20.944 21.8739 21.232C22.1939 21.52 22.4605 21.8613 22.6739 22.256C22.8872 22.64 22.9939 23.1093 22.9939 23.664C22.9939 24.0373 22.9032 24.3893 22.7219 24.72C22.5405 25.04 22.2952 25.3227 21.9859 25.568C21.6872 25.8133 21.3405 26.0053 20.9459 26.144C20.5512 26.2827 20.1352 26.352 19.6979 26.352C19.2499 26.352 18.8499 26.2827 18.4979 26.144C18.1459 26.016 17.8472 25.8507 17.6019 25.648C17.3672 25.4453 17.1859 25.2267 17.0579 24.992C16.9299 24.7573 16.8659 24.5387 16.8659 24.336C16.8659 23.9307 16.9245 23.6533 17.0419 23.504C17.1699 23.344 17.3405 23.264 17.5539 23.264C17.6925 23.264 17.8312 23.344 17.9699 23.504C18.1192 23.664 18.2792 23.8453 18.4499 24.048C18.6312 24.24 18.8232 24.416 19.0259 24.576C19.2285 24.736 19.4525 24.816 19.6979 24.816C20.1672 24.816 20.5459 24.7093 20.8339 24.496C21.1219 24.272 21.2659 23.9947 21.2659 23.664C21.2659 23.344 21.1592 23.0667 20.9459 22.832C20.7325 22.5867 20.4659 22.3573 20.1459 22.144C19.8259 21.9307 19.4792 21.7227 19.1059 21.52C18.7325 21.3067 18.3859 21.0667 18.0659 20.8C17.7459 20.5333 17.4792 20.2293 17.2659 19.888C17.0525 19.536 16.9459 19.1147 16.9459 18.624C16.9459 18.1973 17.0045 17.8027 17.1219 17.44C17.2499 17.0667 17.4312 16.7467 17.6659 16.48C17.9005 16.2133 18.1885 16.0053 18.5299 15.856C18.8819 15.7067 19.2819 15.632 19.7299 15.632ZM24.7024 19.312C24.7024 19.0987 24.7024 18.8427 24.7024 18.544C24.7024 18.2347 24.7024 17.92 24.7024 17.6C24.713 17.28 24.7184 16.9653 24.7184 16.656C24.729 16.3467 24.7344 16.0907 24.7344 15.888C24.7344 15.728 24.7344 15.5627 24.7344 15.392C24.7344 15.2107 24.7557 15.0453 24.7984 14.896C24.841 14.736 24.921 14.608 25.0384 14.512C25.1557 14.4053 25.337 14.352 25.5824 14.352C25.8064 14.352 25.9664 14.4 26.0624 14.496C26.169 14.5813 26.2384 14.6933 26.2704 14.832C26.313 14.96 26.329 15.104 26.3184 15.264C26.3184 15.424 26.3184 15.5733 26.3184 15.712V18.464C26.3184 18.944 26.3344 19.328 26.3664 19.616C26.3984 19.8933 26.4677 20.032 26.5744 20.032C26.7237 20.032 26.8997 19.9093 27.1024 19.664C27.3157 19.408 27.5344 19.1307 27.7584 18.832C27.9824 18.5333 28.201 18.2613 28.4144 18.016C28.6384 17.76 28.8357 17.632 29.0064 17.632C29.241 17.632 29.433 17.6907 29.5824 17.808C29.7424 17.9147 29.8224 18.032 29.8224 18.16C29.8224 18.3307 29.7264 18.5707 29.5344 18.88C29.3424 19.1787 29.129 19.4933 28.8944 19.824C28.6704 20.144 28.4624 20.4533 28.2704 20.752C28.0784 21.0507 27.9824 21.28 27.9824 21.44C27.9824 21.5253 28.0357 21.6693 28.1424 21.872C28.249 22.064 28.377 22.288 28.5264 22.544C28.6864 22.8 28.857 23.0773 29.0384 23.376C29.2197 23.664 29.385 23.9413 29.5344 24.208C29.6944 24.4747 29.8277 24.72 29.9344 24.944C30.041 25.168 30.0944 25.344 30.0944 25.472C30.0944 25.7173 30.025 25.8773 29.8864 25.952C29.7477 26.0267 29.6144 26.064 29.4864 26.064C29.273 26.064 29.065 25.984 28.8624 25.824C28.6704 25.6533 28.4837 25.44 28.3024 25.184C28.121 24.928 27.9504 24.656 27.7904 24.368C27.6304 24.08 27.4757 23.808 27.3264 23.552C27.1877 23.296 27.0597 23.088 26.9424 22.928C26.825 22.7573 26.7184 22.672 26.6224 22.672C26.5477 22.672 26.489 22.7147 26.4464 22.8C26.4144 22.8747 26.3877 22.9653 26.3664 23.072C26.3557 23.1787 26.3504 23.28 26.3504 23.376C26.3504 23.4613 26.3504 23.52 26.3504 23.552C26.3504 23.8293 26.3557 24.0693 26.3664 24.272C26.3877 24.4747 26.3984 24.7147 26.3984 24.992C26.3984 25.12 26.393 25.248 26.3824 25.376C26.3717 25.4933 26.3397 25.6 26.2864 25.696C26.233 25.792 26.153 25.8667 26.0464 25.92C25.9397 25.9733 25.785 26 25.5824 26C25.3584 26 25.193 25.9307 25.0864 25.792C24.9797 25.6533 24.905 25.4827 24.8624 25.28C24.8197 25.0773 24.793 24.8693 24.7824 24.656C24.7824 24.4427 24.7824 24.256 24.7824 24.096C24.7717 23.8187 24.761 23.4667 24.7504 23.04C24.7504 22.6027 24.745 22.16 24.7344 21.712C24.7237 21.2533 24.713 20.8107 24.7024 20.384C24.7024 19.9467 24.7024 19.5893 24.7024 19.312ZM31.6471 15.792C31.6471 15.5253 31.7325 15.2853 31.9031 15.072C32.0738 14.8587 32.3031 14.752 32.5911 14.752C32.8685 14.752 33.0925 14.8587 33.2631 15.072C33.4445 15.2853 33.5351 15.5253 33.5351 15.792C33.5351 16.0587 33.4445 16.2987 33.2631 16.512C33.0925 16.7147 32.8685 16.816 32.5911 16.816C32.3138 16.816 32.0845 16.7147 31.9031 16.512C31.7325 16.2987 31.6471 16.0587 31.6471 15.792ZM32.7191 25.984C32.4845 25.984 32.3031 25.9253 32.1751 25.808C32.0471 25.68 31.9511 25.5307 31.8871 25.36C31.8338 25.1787 31.8018 24.992 31.7911 24.8C31.7805 24.608 31.7698 24.4427 31.7591 24.304C31.7485 24.1653 31.7378 23.8987 31.7271 23.504C31.7271 23.0987 31.7218 22.6507 31.7111 22.16C31.7111 21.6693 31.7111 21.1733 31.7111 20.672C31.7111 20.1707 31.7111 19.7547 31.7111 19.424C31.7111 19.2533 31.7165 19.072 31.7271 18.88C31.7378 18.688 31.7698 18.512 31.8231 18.352C31.8871 18.1813 31.9778 18.0427 32.0951 17.936C32.2125 17.8293 32.3778 17.776 32.5911 17.776C32.9005 17.776 33.1085 17.8453 33.2151 17.984C33.3218 18.1227 33.3751 18.3467 33.3751 18.656V20.08L33.3591 23.264V24.688C33.3591 24.8053 33.3538 24.9387 33.3431 25.088C33.3431 25.2373 33.3218 25.3813 33.2791 25.52C33.2471 25.648 33.1831 25.76 33.0871 25.856C33.0018 25.9413 32.8791 25.984 32.7191 25.984ZM35.3099 19.2C35.3099 19.0827 35.3099 18.944 35.3099 18.784C35.3099 18.6133 35.3259 18.4587 35.3579 18.32C35.4005 18.1707 35.4699 18.048 35.5659 17.952C35.6619 17.8453 35.8005 17.792 35.9819 17.792C36.2059 17.792 36.3552 17.8293 36.4299 17.904C36.5152 17.9787 36.5739 18.064 36.6059 18.16C36.6379 18.2453 36.6699 18.3253 36.7019 18.4C36.7339 18.4747 36.8139 18.512 36.9419 18.512C37.0379 18.512 37.1285 18.4693 37.2139 18.384C37.3099 18.2987 37.4219 18.2027 37.5499 18.096C37.6779 17.9893 37.8325 17.8933 38.0139 17.808C38.1952 17.7227 38.4245 17.68 38.7019 17.68C39.1819 17.68 39.5819 17.8027 39.9019 18.048C40.2325 18.2827 40.4939 18.6027 40.6859 19.008C40.8779 19.4027 41.0165 19.856 41.1019 20.368C41.1872 20.8693 41.2299 21.3867 41.2299 21.92C41.2299 22.4533 41.1819 22.9707 41.0859 23.472C41.0005 23.9733 40.8512 24.4213 40.6379 24.816C40.4352 25.2 40.1632 25.5093 39.8219 25.744C39.4805 25.9787 39.0592 26.096 38.5579 26.096C38.3232 26.096 38.1205 26.064 37.9499 26C37.7899 25.9253 37.6459 25.8453 37.5179 25.76C37.4005 25.664 37.2992 25.584 37.2139 25.52C37.1285 25.4453 37.0539 25.408 36.9899 25.408C36.9365 25.408 36.8992 25.44 36.8779 25.504C36.8565 25.5573 36.8459 25.6213 36.8459 25.696C36.8459 25.7707 36.8459 25.8453 36.8459 25.92C36.8565 25.984 36.8619 26.032 36.8619 26.064C36.8619 26.192 36.8619 26.3627 36.8619 26.576C36.8619 26.7893 36.8619 27.008 36.8619 27.232C36.8725 27.456 36.8779 27.6693 36.8779 27.872C36.8779 28.0853 36.8779 28.2613 36.8779 28.4C36.8779 28.5493 36.8725 28.6827 36.8619 28.8C36.8619 28.928 36.8405 29.04 36.7979 29.136C36.7552 29.232 36.6805 29.3067 36.5739 29.36C36.4672 29.4133 36.3072 29.44 36.0939 29.44C35.8805 29.44 35.6992 29.3707 35.5499 29.232C35.4005 29.0933 35.3259 28.832 35.3259 28.448C35.3259 27.7547 35.3259 27.0507 35.3259 26.336C35.3259 25.632 35.3259 24.9493 35.3259 24.288C35.3259 23.616 35.3205 22.9867 35.3099 22.4C35.3099 21.8027 35.3099 21.28 35.3099 20.832C35.3099 20.3733 35.3099 20 35.3099 19.712C35.3099 19.424 35.3099 19.2533 35.3099 19.2ZM36.8459 22.016C36.8459 22.24 36.8725 22.4907 36.9259 22.768C36.9792 23.0347 37.0645 23.2907 37.1819 23.536C37.2992 23.7707 37.4485 23.9733 37.6299 24.144C37.8219 24.304 38.0565 24.384 38.3339 24.384C38.8032 24.384 39.1285 24.1653 39.3099 23.728C39.4912 23.2907 39.5819 22.6773 39.5819 21.888C39.5819 21.7067 39.5659 21.4667 39.5339 21.168C39.5125 20.8693 39.4592 20.5813 39.3739 20.304C39.2992 20.0267 39.1872 19.7867 39.0379 19.584C38.8992 19.3813 38.7179 19.28 38.4939 19.28C38.2059 19.28 37.9605 19.3653 37.7579 19.536C37.5552 19.696 37.3845 19.904 37.2459 20.16C37.1179 20.4053 37.0219 20.672 36.9579 20.96C36.8939 21.2373 36.8619 21.4933 36.8619 21.728L36.8459 22.016Z" fill="black"/>
<path opacity="0.1" d="M62.625 22.5C62.625 26.4351 59.4351 29.625 55.5 29.625C51.565 29.625 48.375 26.4351 48.375 22.5C48.375 18.565 51.565 15.375 55.5 15.375C59.4351 15.375 62.625 18.565 62.625 22.5Z" fill="#323232"/>
<path d="M62.625 22.5C62.625 26.4351 59.4351 29.625 55.5 29.625C51.565 29.625 48.375 26.4351 48.375 22.5C48.375 18.565 51.565 15.375 55.5 15.375C59.4351 15.375 62.625 18.565 62.625 22.5Z" stroke="#ED2B2B" stroke-width="1.58333"/>
<path d="M58.6667 22.5H52.3333" stroke="#0B815E" stroke-width="1.58333" stroke-linecap="round" stroke-linejoin="round"/>
<path d="M56.2917 24.875L58.5978 22.5689C58.6358 22.5309 58.6358 22.4691 58.5978 22.4311L56.2917 20.125" stroke="#0B815E" stroke-width="1.58333" stroke-linecap="round" stroke-linejoin="round"/>
</svg>
