<svg width="67" height="73" viewBox="0 0 67 73" fill="none" xmlns="http://www.w3.org/2000/svg">
<g filter="url(#filter0_d_89_4886)">
<path d="M26.9575 13.997C31.7187 5.04247 34.0993 0.56522 36.9143 0.586135C37.4331 0.58999 37.9475 0.680701 38.4363 0.854506C41.0887 1.79765 41.7945 6.8191 43.2059 16.862C43.5978 19.6508 43.7938 21.0452 44.6142 22.0507C44.7779 22.2513 44.9581 22.4379 45.1529 22.6085C46.1291 23.4635 47.5159 23.7081 50.2893 24.1971C60.2768 25.9582 65.2706 26.8387 66.1206 29.5224C66.2772 30.017 66.3499 30.5343 66.3357 31.0528C66.2583 33.8669 61.7007 36.0898 52.5855 40.5356C50.0543 41.7701 48.7887 42.3874 48.086 43.4784C47.9458 43.6961 47.824 43.9251 47.7219 44.1631C47.2104 45.3557 47.4064 46.7501 47.7983 49.5389C49.2098 59.5819 49.9155 64.6033 47.6258 66.241C47.2039 66.5428 46.7343 66.7718 46.2367 66.9185C43.5365 67.7145 40.014 64.0669 32.9691 56.7716C31.0128 54.7458 30.0346 53.7329 28.7799 53.4017C28.5295 53.3356 28.2741 53.2906 28.0162 53.267C26.7239 53.1491 25.4583 53.7664 22.927 55.001C13.8118 59.4468 9.25423 61.6696 6.98913 59.9981C6.5717 59.6901 6.20882 59.3143 5.91554 58.8864C4.32406 56.5643 6.70466 52.0871 11.4659 43.1326C12.788 40.646 13.4491 39.4027 13.3763 38.107C13.3618 37.8485 13.3257 37.5916 13.2684 37.3391C12.9812 36.0736 12.003 35.0606 10.0467 33.0348C3.00176 25.7396 -0.520713 22.0919 0.369064 19.4212C0.533036 18.929 0.778283 18.4677 1.09463 18.0566C2.81125 15.8254 7.80501 16.706 17.7925 18.467C20.566 18.9561 21.9527 19.2006 23.1625 18.731C23.4039 18.6373 23.637 18.5236 23.8595 18.3911C24.9743 17.7268 25.6354 16.4836 26.9575 13.997Z" fill="url(#paint0_linear_89_4886)"/>
</g>
<defs>
<filter id="filter0_d_89_4886" x="0.233582" y="0.585938" width="66.1038" height="71.6292" filterUnits="userSpaceOnUse" color-interpolation-filters="sRGB">
<feFlood flood-opacity="0" result="BackgroundImageFix"/>
<feColorMatrix in="SourceAlpha" type="matrix" values="0 0 0 0 0 0 0 0 0 0 0 0 0 0 0 0 0 0 127 0" result="hardAlpha"/>
<feOffset dy="5.18927"/>
<feComposite in2="hardAlpha" operator="out"/>
<feColorMatrix type="matrix" values="0 0 0 0 1 0 0 0 0 0.720277 0 0 0 0 0.000989556 0 0 0 1 0"/>
<feBlend mode="normal" in2="BackgroundImageFix" result="effect1_dropShadow_89_4886"/>
<feBlend mode="normal" in="SourceGraphic" in2="effect1_dropShadow_89_4886" result="shape"/>
</filter>
<linearGradient id="paint0_linear_89_4886" x1="37.2532" y1="3.11423" x2="28.304" y2="53.8679" gradientUnits="userSpaceOnUse">
<stop stop-color="#FFF2C2"/>
<stop offset="1" stop-color="#FFCF25"/>
</linearGradient>
</defs>
</svg>
