<svg width="49" height="60" viewBox="0 0 49 60" fill="none" xmlns="http://www.w3.org/2000/svg">
<path d="M47.8346 30.6004C47.8346 46.7264 38.4955 59.0984 26.1107 59.0984C13.7259 59.0984 0.649414 48.128 0.649414 32.0019C0.649414 15.8759 13.7259 0.467285 26.1107 0.467285C38.4955 0.467285 47.8346 14.4744 47.8346 30.6004Z" fill="white"/>
<g style="mix-blend-mode:darken" opacity="0.42">
<path d="M46.9147 32.5438L46.9053 31.9225V28.5915L46.896 27.6011V25.8351C46.896 25.723 46.924 25.4988 46.8913 25.1344C46.8212 24.4009 46.5923 23.9431 46.4942 23.5973C46.4288 23.3684 46.3821 23.1021 46.3727 22.8685L46.3634 22.4808V21.6118C46.354 21.0185 46.2373 20.9064 46.1952 20.7475L46.0737 20.1309L45.9523 19.5422L45.7467 18.7106L45.3963 17.7996L45.102 17.0662C44.8824 16.5663 44.6722 16.1925 44.5134 15.8562L44.3639 15.5291L44.163 15.048L43.8126 14.3238L43.2894 13.3334L43.0137 12.8849L42.4718 12.1374L42.0139 11.6609C41.9766 11.6189 41.729 11.1844 41.4907 10.6658L41.2431 10.1099L41.1216 9.81086C40.9768 9.47449 40.7853 9.17082 40.6124 8.95125L40.1265 8.30654L39.949 7.98886L39.8743 7.83002C39.8416 7.76461 39.8743 7.75994 39.7061 7.49365L39.5192 7.24136C39.3043 7.0031 38.9866 6.80222 38.7157 6.69477L38.6503 6.51257L38.44 6.07342C38.3419 5.90056 38.2345 5.76975 38.1644 5.69968C38.1504 5.68566 38.1504 5.68566 38.1504 5.68566C38.0756 5.59223 37.9869 5.4474 37.6178 5.23717L37.3935 5.12504C37.2861 5.0316 37.0291 4.59245 36.0948 4.65786C36.0574 4.65786 36.02 4.66721 35.9827 4.67655C35.9453 4.64385 35.9079 4.60648 35.8659 4.57845C35.4454 4.23273 35.0436 3.95243 34.6699 3.69081C33.8757 3.14421 33.1095 2.76579 32.5582 2.50417L32.3246 2.38737L32.0163 2.26122L31.764 2.18181L31.6472 2.15378L31.5258 2.1164H31.5071L31.2968 2.03231L31.0913 1.96224L30.8624 1.88281L30.6848 1.80806L30.5307 1.752L30.227 1.63521L30.1523 1.61653L29.956 1.56045C29.7271 1.49972 29.9046 1.56047 29.7925 1.52776L29.6477 1.47637L29.5449 1.42965L29.2599 1.28482L28.5358 0.915758C27.9051 0.612092 27.3398 0.462594 26.9661 0.331784L26.7792 0.257033C26.7418 0.238346 26.4802 0.0981821 26.1065 0.0281051C25.9149 -0.00459749 25.6673 -0.0232858 25.3637 0.0561348C24.9385 0.168258 24.2191 0.453245 24.1443 1.50907V1.84077C24.1443 2.59293 24.6862 3.25633 25.4571 3.38247C25.6626 3.41517 25.8635 3.39181 26.0551 3.33575C26.4989 3.48524 26.8867 3.60671 27.1763 3.74219L27.807 4.06455L28.106 4.21871L28.5405 4.41026L28.9096 4.5364L29.1525 4.59246H29.1712L29.3113 4.63918C29.3113 4.63918 29.2833 4.63451 29.33 4.6532L29.587 4.74663L29.7925 4.83071L30.1242 4.94285L30.3064 5.00358L30.5073 5.07832L30.7035 5.13906L30.7829 5.16242C31.2034 5.28389 30.7596 5.1484 30.8717 5.1811L30.9651 5.20914C30.9651 5.20914 30.9838 5.21381 30.9885 5.21848L31.2174 5.33528C31.7126 5.56887 32.3246 5.87721 32.8899 6.26964L33.885 7.00311C34.2401 7.29276 34.6745 7.72256 35.0156 8.1477L35.5809 8.8765L35.9546 9.3904L36.3003 9.87627L36.6414 10.3762L36.8516 10.7032L36.9684 10.9227L37.1693 11.4366L37.4262 12.044C37.6038 12.4317 37.7906 12.7448 37.9308 13.0017L38.1644 13.4782L38.6456 14.506C38.7811 14.8003 38.9492 15.2395 39.0801 15.66L39.2669 16.2579L39.3884 16.6504L39.6267 17.3839L39.8789 17.9725L40.2667 18.8228L40.6591 19.7478L40.846 20.2897L40.9768 20.7008L41.1216 21.1914L41.2431 21.5838L41.5141 22.3827L41.6355 22.6583L41.8084 23.1115L41.8972 23.4946L41.9953 23.943L42.1261 24.9381L42.1775 25.4614L42.2335 25.9659L42.3176 26.7134L42.3643 27.3441L42.3737 28.6242V30.7031L42.355 31.4927L42.2802 32.2542L42.2148 33.1045L42.028 34.7396L41.9252 35.4123L41.8878 35.8515L41.8364 36.4214L41.6729 37.5894L41.6168 38.1266C41.5795 38.4163 41.4674 38.7106 41.3179 39.1825L41.0983 39.9253L40.8927 40.6494L40.7899 41.0512L40.6171 41.7426C40.505 42.1444 40.2854 42.6863 40.0097 43.2142L39.6407 43.929L39.2856 44.6298L38.9352 45.4427L38.5148 46.6013L38.3606 46.9517L38.0756 47.3815L37.2721 48.3906L36.7815 49.1147L36.3097 49.8529L36.0854 50.2126C35.9593 50.3994 35.6883 50.6985 35.3987 50.9928L34.5064 51.8758L34.0065 52.3196L33.7635 52.4644C33.3197 52.726 32.9366 53.0344 32.5722 53.296L32.2546 53.5202L31.5211 54.0388L31.2922 54.2257L31.1006 54.2677L30.5307 54.4219L29.7458 54.7022L29.1385 54.8657C28.7787 54.9685 28.405 55.1367 28.0593 55.3889C27.8864 55.5151 27.7603 55.6365 27.6902 55.7019H27.6155L27.3725 55.7253L26.8633 55.8421L26.4428 55.9869C26.298 56.0383 26.0504 56.1131 25.7514 56.2579L25.387 56.4401L25.2095 56.5429L25.1628 56.5616L24.9759 56.5756C24.6349 56.6176 24.3779 56.7017 24.0742 56.9026C23.4062 57.3464 23.1539 58.2387 23.4903 58.9582C23.7939 59.6076 24.2658 59.7571 24.49 59.8271L24.8871 59.9066C24.9619 59.9159 24.8124 59.9019 24.9806 59.9253C25.2983 59.9767 25.6206 60 25.9476 60H26.3681C26.896 59.9813 27.223 59.8505 27.5174 59.7431L27.7603 59.6543L28.1714 59.5095L28.377 59.4581L28.6666 59.388C28.6666 59.388 28.6713 59.388 28.6853 59.388L29.0731 59.2992L29.2926 59.2712C29.3954 59.2572 29.2786 59.2712 29.3721 59.2665L29.5729 59.2338C29.6804 59.2152 29.5729 59.2572 29.8673 59.1871L30.0635 59.1357L30.3111 59.0656L30.5353 58.9862C30.5353 58.9862 30.526 58.9909 30.5587 58.9862L30.9044 58.8601L30.9838 58.8367L31.1427 58.7807C31.2174 58.7573 31.0726 58.8087 31.2781 58.748C31.5398 58.6685 31.7173 58.5751 31.8948 58.4677C32.3433 58.206 32.5629 57.9444 32.7965 57.6968L33.0488 57.4305L33.301 57.2857L33.7308 57.0848C33.7776 57.0614 33.8149 57.0334 33.8617 57.0054C34.0392 57.0194 34.0953 57.0054 34.1373 57.0054C34.5017 57.0054 34.9408 56.9119 35.3613 56.697C35.6883 56.5335 36.0808 56.3139 36.5059 56.0243C36.8843 55.772 37.3422 55.4497 37.828 55.0666C37.8794 55.0292 37.9261 54.9825 37.9728 54.9405L38.085 54.8704L38.5615 54.5854L39.0567 54.2537L39.622 53.7678L40.0658 53.3334C40.3461 53.0297 40.6358 52.6933 40.9067 52.3289C41.2197 51.9084 41.486 51.4833 41.7056 51.0862C41.8271 50.8713 41.9392 50.6611 42.042 50.4462C42.1681 50.2453 42.2756 50.0537 42.3737 49.8809L42.7334 49.1941L43.28 48.1803L43.6584 47.4843C43.9574 46.8863 44.1536 46.2696 44.2938 45.6996L44.476 44.7606L44.5461 44.3962L44.7096 43.9898L44.8871 43.5459C45.0506 43.1115 45.2235 42.5648 45.373 41.9575L45.5225 41.1773C45.6953 40.9811 45.7374 40.8643 45.7748 40.7849L45.8962 40.4579L45.999 40.0888L46.1718 39.2619L46.1952 39.103L46.2373 38.9863L46.4288 38.3883L46.6577 37.4305L46.8352 36.5102C46.9147 36.0383 46.952 35.6226 46.9707 35.2581L46.9941 34.7442C47.0128 33.9594 46.9661 33.2072 46.938 32.5251L46.9147 32.5438ZM38.5475 6.64805H38.5381L38.4774 6.61535C38.4774 6.61535 38.5241 6.63404 38.5475 6.64805Z" fill="#F8BA00"/>
</g>
<g style="mix-blend-mode:darken" opacity="0.42">
<path d="M47.4005 29.6892L47.3304 28.4558L47.3024 27.7597V26.9935C47.2744 26.4329 47.195 26.1339 47.1809 26.0872L47.1202 25.7602L47.0828 25.6107V25.5593L46.9987 24.8725L46.8399 23.8961L46.7324 23.3963L46.5923 22.887C46.5456 22.7422 46.4007 22.3031 46.2326 21.948L46.0877 21.1585L45.728 19.7522L45.3449 18.4348L45.1347 17.8508C45.1113 17.7808 45.0413 17.5191 44.7656 16.9912L44.6675 16.8184L44.6441 16.7717L44.6348 16.753C44.6115 16.7062 44.5928 16.6595 44.5694 16.6175L44.5274 16.51L44.2657 15.8186L43.9154 14.8095L43.6911 14.2489L43.4996 13.8191C43.5182 13.8564 43.5416 13.9032 43.5369 13.8985L43.4528 13.7116L43.2566 13.3379C43.28 13.3846 43.322 13.4547 43.2893 13.3939L43.2286 13.2865L42.9997 12.8847C42.9997 12.8847 43.023 12.9174 42.9997 12.88L42.7287 12.4596L42.654 12.3568L42.5372 12.2026C42.5372 12.2026 42.5418 12.2073 42.5185 12.1793L42.2896 11.8289L41.9439 11.1935L41.486 10.4881C41.2431 10.1564 41.131 10.0443 41.0235 9.92279L41.0002 9.89942L40.8974 9.7546L40.6825 9.45561L40.4349 9.14259C40.3461 9.03047 40.4676 9.18931 40.3881 9.08653L40.1405 8.76418L40.0424 8.63805C40.0424 8.63805 40.0611 8.66139 40.0564 8.65672L39.8696 8.41847L39.6079 8.11947C39.6593 8.17553 39.7341 8.25963 39.692 8.21291C39.3744 7.84851 38.9913 7.42337 38.2485 6.96553C38.0569 6.66654 37.8093 6.34885 37.4496 5.98445C36.7815 5.30704 36.0247 4.91462 35.5809 4.72307L35.5108 4.69504L35.436 4.62497L35.1838 4.3867C34.9175 4.12976 34.6979 3.73732 33.5533 3.09728C33.4926 3.06458 33.2683 2.93844 32.9366 2.80763H32.9319C32.9319 2.80763 32.9319 2.7983 32.9133 2.78428C32.8105 2.68617 32.6236 2.50864 32.3153 2.28439C31.6472 1.8032 31.2781 1.70977 31.2688 1.7051C30.9931 1.5883 31.1053 1.63968 31.0632 1.62567L30.8296 1.51821C30.0588 1.19586 30.2317 1.31266 30.1522 1.29397L29.928 1.24258L29.3814 1.15381L28.9656 1.12578C28.9983 1.12578 29.0217 1.12578 28.9703 1.12578H28.8815L28.5825 1.11177C28.3583 1.10242 28.4143 1.11177 28.3816 1.11177H28.1574C28.0966 1.11177 27.7976 1.07906 27.1763 1.16783L26.8913 1.21455L26.5503 1.28462L26.2746 1.34536L26.1205 1.38274C25.9102 1.29865 25.6953 1.22857 25.4758 1.17718C24.3966 0.929575 23.621 0.999646 22.8035 1.18652C22.2569 1.31266 21.9112 1.46682 21.757 1.53223L21.5795 1.60232C21.1497 1.78452 20.7339 2.0508 20.7245 2.06014C20.6545 2.10219 20.9114 1.94803 20.9067 1.9527C20.9254 1.94336 20.9675 1.91999 20.9628 1.91999L20.6264 2.12088L20.561 2.13489L20.1172 2.233L19.7995 2.32176C19.7715 2.33111 19.8743 2.2984 19.7014 2.34979L19.365 2.46193C19.1828 2.52733 18.8838 2.67216 18.6689 2.78428C18.6409 2.7983 18.6129 2.81697 18.5849 2.83099C18.5568 2.84967 18.5241 2.86369 18.5008 2.87771C18.5428 2.85435 18.5989 2.82165 18.5989 2.82165L18.4867 2.88706L18.4681 2.8964L18.454 2.90574L18.3559 2.9618C18.3559 2.9618 18.3139 2.9945 18.2905 3.00852C18.2672 3.02253 18.2438 3.03655 18.2205 3.05056L18.0709 3.16269C18.0709 3.16269 18.0523 3.17203 18.0476 3.18137C18.085 3.15334 18.1083 3.13466 18.1037 3.13933L17.9542 3.24678L17.8794 3.30752L17.8654 3.31686C17.842 3.33555 17.8374 3.34022 17.8467 3.33555L17.5524 3.58315C17.5524 3.58315 17.5851 3.55512 17.557 3.57848L17.4776 3.64389C17.3842 3.69995 17.3001 3.75134 17.2394 3.78871C17.0992 3.87748 17.3094 3.75134 17.1973 3.81674L16.6461 4.19984L16.4078 4.3867C16.2583 4.4708 16.0481 4.59693 15.7911 4.79315L15.4174 5.09681L15.3426 5.16222L15.1558 5.33508L15.1184 5.36778C15.0857 5.38647 15.053 5.40982 15.0203 5.43318C14.9876 5.45654 14.9595 5.47056 14.9268 5.49392C14.8894 5.51728 14.8614 5.54999 14.8241 5.57335C14.8007 5.59203 14.7773 5.60604 14.754 5.62473C14.7727 5.61071 14.782 5.60137 14.7727 5.60604L14.7213 5.64342C14.7213 5.64342 14.6979 5.66211 14.6886 5.67145L14.6419 5.70415L14.4456 5.85364L14.0532 6.19936L13.5253 6.71325L13.3478 6.90947L13.2777 6.9889L13.2543 7.01693L13.2076 7.06831C13.1842 7.09167 13.1842 7.09635 13.1936 7.087L13.0207 7.27855L12.9694 7.34395L12.8339 7.45608L12.6376 7.6009L12.3433 7.82982L12.0911 8.04005C11.9883 8.12882 11.6612 8.42314 11.3155 8.88565L11.1287 9.10989L10.9231 9.40421L10.9371 9.38086L10.8577 9.48364L10.3858 10.0723L9.95136 10.6563L9.71777 10.9506L9.58696 11.1328C9.42812 11.329 9.33001 11.4832 9.26928 11.5813L9.23191 11.614L8.67129 12.2026L8.44238 12.4783L8.33492 12.6137C8.20878 12.7726 8.30222 12.6558 8.26485 12.7025L8.15739 12.8473L7.84905 13.2257L7.66686 13.4687C7.62948 13.5154 7.69022 13.436 7.6108 13.5388L7.47999 13.7116C7.47999 13.7116 7.47998 13.7116 7.49866 13.6883L7.38187 13.8331L7.02682 14.3283C6.68578 14.8469 6.62037 15.0244 6.53627 15.1692L6.26532 15.5943L5.90092 16.1316L5.57856 16.6268L5.26554 17.122C4.83107 17.8368 4.66289 18.5189 4.65822 18.5423L4.6442 18.589L4.6115 18.6731L4.4293 19.1636L4.11629 19.9438L3.89671 20.4951L3.77992 20.78L3.50896 21.4388L3.42019 21.6397L3.0371 22.5413L2.79417 23.1253L2.56525 23.7093L2.26158 24.681L2.16348 25.0314L2.12143 25.1622C2.12143 25.1622 1.89251 25.5873 1.71031 26.4983C1.57483 27.1804 1.56548 27.5542 1.54212 27.7737L1.38796 28.8482L1.2805 30.0396L1.26649 31.2449L1.21043 32.3194L1.18707 33.6602V34.9543C1.20109 35.7392 1.32255 36.2344 1.42066 36.6642L1.52344 37.1127L1.58884 37.4397L1.6963 37.9769L1.88784 38.7945L2.08405 39.3505C2.04668 39.5934 2.07937 39.7429 2.06536 39.8363C2.03266 40.0652 2.05135 39.9298 2.04668 39.9811C1.98128 40.5698 2.01398 41.1631 2.11676 41.7284C2.24757 42.4338 2.40174 42.8917 2.52788 43.2888C2.73811 43.9615 2.9717 44.5221 3.24266 45.036L3.7332 45.8536L4.06957 46.3021L4.08826 46.3255L4.10695 46.3628L4.18168 46.6478L4.35455 47.129C4.56946 47.6709 4.77501 47.9793 4.80304 48.026L4.90582 48.2082L5.20015 48.6707C5.35899 48.8996 5.28891 48.7921 5.32628 48.8435L5.34963 48.8762L5.90558 49.6004C5.9523 49.6564 5.84953 49.535 5.96165 49.6705L6.27933 50.0302L6.39145 50.1423L6.51292 50.2731L6.69979 50.446L6.70913 50.4553L6.86797 50.6188L7.32113 51.0299L7.90511 51.5205L8.0733 51.6934L8.56851 52.1512C8.82079 52.3614 9.00766 52.4922 9.13847 52.5763L9.22724 52.6931C9.57295 53.1323 9.99808 53.6742 10.8343 54.2722C11.409 54.6833 11.9042 54.9029 12.2032 55.0197L12.4414 55.2206C12.661 55.4028 12.918 55.6037 13.2496 55.8139C13.6701 56.0849 14.2915 56.3745 14.8194 56.5474L14.8381 56.5614C15.2352 56.865 15.6556 57.0986 15.9406 57.2341L16.4218 57.4397L16.5713 57.491L16.917 57.6686L17.529 57.9022L17.9355 58.019C18.155 58.075 18.2672 58.0984 18.3326 58.1124L18.9306 58.4161C19.4912 58.6824 20.0705 58.8973 20.9021 59.0514C21.3552 59.1355 21.7196 59.1635 21.9953 59.1822L22.4297 59.2009H23.1352L23.2193 59.2149L23.308 59.229C23.4856 59.257 23.864 59.3317 24.4012 59.3691L25.0366 59.4252L25.6159 59.4766L26.3307 59.4953C26.4475 59.4953 26.2466 59.4952 26.4241 59.4999C26.6344 59.5093 26.9894 59.5139 27.4286 59.4579C29.1291 59.2477 29.5869 58.8038 30.0121 58.617L30.6988 58.3133L31.0305 58.1965L32.1284 57.7994C32.4601 57.6686 32.7731 57.5191 33.0674 57.3602C33.5299 57.4257 33.927 57.4116 34.226 57.3789C34.8661 57.3135 35.2211 57.178 35.4827 57.0752C36.0107 56.8697 36.1975 56.7296 36.3517 56.6268C36.7068 56.3979 36.8095 56.2904 36.9263 56.1923L37.2393 55.9026C37.828 55.5803 37.9401 55.4027 38.099 55.2673L38.6549 54.744L38.8745 54.5011C38.9773 54.4404 39.094 54.375 39.2249 54.2862C40.2013 53.6415 40.6264 53.0388 41.0002 52.5576L41.4486 51.9597C41.6542 51.6747 41.8644 51.3617 42.0653 51.0159C42.2008 50.8431 42.341 50.6609 42.4811 50.46C42.9389 49.8059 43.2753 49.1566 43.5323 48.5819L43.8359 47.8531L44.1349 47.0402L44.5367 45.8209L44.6722 45.4098L44.9151 44.6109L45.102 44.1624L45.3589 43.4943L45.5972 42.845L45.728 42.4525C45.9523 41.7331 45.9569 41.4341 45.9803 41.2986L46.0317 41.0463L46.1672 40.1633L46.2419 39.6728L46.3587 39.0748C46.4101 38.8506 46.3774 38.9487 46.3961 38.8973L46.4475 38.7571C46.6857 38.1358 46.8446 37.5471 46.9754 37.0052C47.0501 36.6875 47.1622 36.2297 47.237 35.6644L47.3258 34.8982L47.3725 34.3516L47.3912 33.3939V29.6705L47.4005 29.6892ZM9.85793 52.9781L9.8299 52.9641H9.83924L9.85326 52.9781H9.85793ZM14.6792 5.69948C14.6792 5.69948 14.6559 5.72284 14.6419 5.73218C14.6278 5.7462 14.6091 5.75554 14.5951 5.76955C14.6372 5.73685 14.6746 5.69948 14.6559 5.71349C14.6372 5.72751 14.6559 5.71349 14.6792 5.6948V5.69948ZM14.5391 5.81627C14.5391 5.81627 14.5344 5.82094 14.5437 5.8116C14.511 5.83963 14.4783 5.87234 14.4456 5.90504C14.4363 5.91438 14.4269 5.91905 14.4223 5.92839C14.4877 5.86766 14.5578 5.80226 14.5391 5.82095V5.81627ZM6.32138 50.0535L6.28399 50.0115L6.33071 50.0629L6.32138 50.0535Z" fill="#F8BA00"/>
</g>
<g style="mix-blend-mode:darken" opacity="0.42">
<path d="M17.1974 44.7513L17.1226 44.5784L16.9544 44.2934C16.8143 44.0972 16.6601 43.957 16.5667 43.8823C16.4639 43.7982 16.2957 43.6721 16.0575 43.5553C15.964 43.5085 15.8332 43.4338 15.5763 43.3684L15.2072 43.303C14.8708 43.275 14.6699 43.303 14.6139 43.303C14.128 43.3217 13.7075 43.5646 13.4319 43.9197C13.1609 43.9804 12.9087 44.1112 12.6984 44.3028C12.5396 44.4055 12.4181 44.5177 12.348 44.5971C12.2453 44.7092 12.1378 44.8634 12.0631 45.0129C11.9136 45.3119 11.8341 45.6249 11.8201 45.9566V46.2135C11.8201 46.3817 11.8341 46.5779 11.8949 46.8022L12.0117 47.1058C12.2546 47.6244 12.5816 47.7973 12.5956 47.8019L12.7078 47.8954C12.9227 48.0542 13.1656 48.171 13.3478 48.2364L13.6608 48.3345L13.9084 48.3953C14.2074 48.4513 14.4223 48.456 14.7073 48.4373L15.1932 48.3579L15.5622 48.2224C15.5856 48.2131 15.5809 48.2131 15.5716 48.2177C15.679 48.1757 15.5436 48.2224 15.6417 48.185L15.7164 48.157C15.922 48.0776 16.1275 47.9701 16.3238 47.8206C16.3938 47.7645 16.6835 47.5356 16.8657 47.2366C17.0199 46.9844 17.16 46.7041 17.2488 46.4004C17.3235 46.1481 17.3329 45.9519 17.3375 45.8304V45.3446C17.3142 45.0362 17.2348 44.8307 17.2021 44.7419L17.1974 44.7513ZM14.2588 47.0311H14.2682L14.2401 47.0404L14.2588 47.0311ZM12.5489 44.4709C12.5489 44.4709 12.5349 44.4896 12.5303 44.499L12.5443 44.4756L12.5489 44.4709Z" fill="#F8BA00"/>
</g>
<g style="mix-blend-mode:darken" opacity="0.42">
<path d="M38.4494 45.6248C38.4587 45.5174 38.5381 45.1623 38.3419 44.6624L38.1177 44.2373C38.0616 44.1532 38.127 44.256 38.0943 44.2046L37.8 43.8028C37.6271 43.5973 37.5664 43.5646 37.4823 43.4992L37.3515 43.401L37.2113 43.3076C37.2113 43.3076 37.1927 43.2983 37.2067 43.3076L37.1226 43.2469C36.8703 43.0974 36.7862 43.0927 36.7161 43.0647C36.4125 42.9526 35.9687 42.8965 35.8005 42.8965C35.4921 42.8965 35.2071 42.9852 34.9642 43.1394C34.5998 43.1441 34.2494 43.2749 33.9738 43.5178L33.7822 43.644C32.9647 44.2887 33.2543 44.3634 33.2497 44.3774L33.1282 44.6671L33.0207 45.0315L32.9694 45.4099V45.5594L32.9787 45.9051C33.0301 46.4097 33.3244 46.8582 33.4459 47.0123C33.4973 47.0777 33.4179 47.003 33.5814 47.1992L33.8103 47.4468C33.9177 47.5496 34.0766 47.6898 34.2821 47.8066C34.4737 47.9187 34.6979 48.0214 34.9782 48.0915C35.2398 48.1523 35.408 48.1523 35.4688 48.1523H35.7865C35.8986 48.1429 35.9546 48.1896 36.3658 48.0635C36.7115 47.956 36.9357 47.8019 36.9497 47.7925L37.1319 47.6757C37.2487 47.5963 37.1833 47.6384 37.2207 47.6103C37.2394 47.5963 37.2487 47.587 37.2627 47.5776L37.3188 47.5449C37.4356 47.4749 37.6271 47.3534 37.8467 47.0964C38.0242 46.8862 38.1551 46.6713 38.2532 46.419C38.2999 46.3069 38.398 46.1387 38.4447 45.7509C38.5195 45.1016 38.4307 45.779 38.4447 45.6295L38.4494 45.6248ZM37.3562 43.4104C37.3562 43.4104 37.3749 43.4291 37.3655 43.4151L37.3562 43.4057V43.4104Z" fill="#F8BA00"/>
</g>
<g style="mix-blend-mode:darken" opacity="0.42">
<path d="M48.1761 29.8201C48.1387 29.6753 48.1574 29.7594 48.148 29.7174C48.0266 29.2315 47.6388 28.8531 47.5267 28.7643C47.3679 28.6335 47.1389 28.4933 46.8913 28.3812C46.6531 28.2784 46.4335 28.2224 46.2746 28.1943C46.0224 28.1476 45.8776 28.157 45.7841 28.157H45.5692C45.5365 28.157 45.5458 28.1616 45.5599 28.1663L45.4618 28.1476L45.2609 28.1103L45.1581 28.0869L44.8217 28.0121L44.5134 27.9608L44.2518 27.914L43.6444 27.7972L42.9997 27.7225L42.4952 27.6945L42.1635 27.6571L41.8878 27.6057C41.8131 27.5683 41.6029 27.4422 41.2478 27.3394L40.8927 27.26L40.1032 27.1712L39.2763 27.1198L37.8654 27.1105L37.4403 27.1245C37.3655 27.1292 37.6131 27.0357 37.0525 27.1806L36.9965 27.1946H36.903L36.6881 27.2086L36.1695 27.2179L34.5298 27.2693L33.4038 27.3628L33.0021 27.4048L31.8388 27.4655L30.9839 27.4468H30.2364L29.2786 27.4842L28.1247 27.601L27.7229 27.6384L27.0689 27.6851H26.4382L25.8682 27.615C25.4571 27.573 25.0787 27.5777 24.8031 27.5777H24.2565C24.2237 27.5777 24.163 27.5403 23.7893 27.5403H23.2987L22.7007 27.5543L22.1822 27.601L21.2478 27.7272L20.8601 27.7692L20.2901 27.8253L19.2716 27.886L18.94 27.9187H17.5384L16.4826 27.872L15.4688 27.8393H14.768C14.5298 27.7785 14.2308 27.7085 13.8383 27.6804L12.8806 27.6664H12.3761L11.5679 27.6571L11.2081 27.6384L10.4653 27.5216C10.0121 27.4655 9.61037 27.4702 9.28334 27.4702H9.04975L7.86778 27.5123L7.67156 27.531H6.23265L5.67203 27.4982L5.22822 27.4468C4.96193 27.4095 4.67228 27.3347 4.25182 27.3067C3.86406 27.2833 3.5417 27.2974 3.27074 27.3394C3.21 27.3488 3.06985 27.3581 2.83158 27.4422C2.68676 27.4936 2.57464 27.5543 2.47186 27.615C1.9346 27.615 1.41135 27.8813 1.11703 28.3765C1.00958 28.5541 0.948847 28.7409 0.916144 28.9325C0.850739 29.0072 0.780665 29.0867 0.71526 29.1754L0.701245 29.1941C0.626496 29.2735 0.528381 29.395 0.430273 29.5865C0.196683 30.0397 0.215372 30.5209 0.257419 30.7685C0.304137 31.0722 0.374222 31.2404 0.514376 31.4693L0.593789 31.5907C0.733943 31.7963 0.91615 31.9785 1.12638 32.1186C1.22449 32.1887 1.39735 32.2962 1.62627 32.3803L1.89255 32.4597L2.30835 32.5204H3.12591L3.49031 32.5017H3.75193L4.22379 32.5111L4.59752 32.5298H7.19504L7.52208 32.4924L7.80237 32.441L8.00327 32.3943L8.33496 32.3569L8.69936 32.3336L10.0215 32.2915L10.9418 32.2354L11.5959 32.2028L12.306 32.1654L13.1563 32.1373L13.6935 32.128L14.441 32.0486L15.1324 31.9505L16.0107 31.829H16.3938L16.8236 31.8384L18.0289 31.8851L18.6082 31.9131L19.9491 32.0486L20.6265 32.1L21.6963 32.17L22.3457 32.2121H24.5041L25.5833 32.2308L27.3165 32.3663L27.6996 32.3943L28.8068 32.4924L29.2693 32.5391L30.3672 32.5952H31.152L31.6052 32.6045L32.7545 32.6232L33.9645 32.6092L34.6793 32.5578L35.679 32.455L35.9453 32.4223L36.3377 32.3709L36.9591 32.2915L37.3188 32.2775L39.0567 32.2448L41.1544 32.142L41.5888 32.128H41.9906L42.5559 32.1607L43.6257 32.2028L44.3592 32.1934L45.4291 32.1467L46.1906 32.1327C46.2186 32.1327 46.3587 32.1467 46.6624 32.0766C46.8213 32.0392 47.1249 31.9692 47.4473 31.6935L47.5454 31.6001C47.6155 31.5534 47.6622 31.516 47.6902 31.4833C47.7603 31.4366 47.8911 31.3244 48.064 30.9787C48.3069 30.4929 48.2321 30.0023 48.1854 29.8155L48.1761 29.8201ZM37.2254 27.1946C37.2254 27.1946 37.2768 27.1946 37.2674 27.1946H37.2207H37.2254Z" fill="#F8BA00"/>
</g>
<g style="mix-blend-mode:darken" opacity="0.42">
<path d="M34.1233 2.29388C33.7682 1.94349 33.4225 1.86875 33.2636 1.83605C33.1328 1.80802 33.3057 1.85473 33.2123 1.8267C32.8946 1.7426 32.5722 1.69122 32.1845 1.6445L31.0586 1.51836L30.1756 1.42025L29.8439 1.37821L29.6523 1.3455C29.5262 1.32214 29.5963 1.3455 29.5496 1.33149L29.4748 1.30813C29.3814 1.2801 29.5122 1.30813 29.344 1.26609L28.9656 1.19134C28.6713 1.14929 28.4564 1.15396 28.2415 1.15396H27.5267C27.3398 1.15396 27.1716 1.17265 27.0221 1.20068C26.8259 1.03249 26.6157 0.901677 26.4054 0.845615C26.1298 0.770867 25.7514 0.728822 25.3263 0.817586C24.7843 0.929709 24.4433 1.14461 24.1677 1.35952C24.0322 1.29411 23.9014 1.2474 23.7986 1.21937C23.4389 1.12126 23.0558 1.10257 22.6306 1.18666C22.6073 1.19133 22.5792 1.20068 22.5559 1.20535C22.397 1.12126 22.2709 1.08855 22.1775 1.07921C22.0513 0.990441 21.7991 0.850294 21.3926 0.794232C20.6825 0.696125 20.1873 1.00446 19.8836 1.26141C19.6033 1.49967 19.4164 1.7613 19.2669 2.03693C19.2576 2.03693 19.2436 2.03225 19.2342 2.02758L18.9072 1.96686C18.7017 1.9435 18.5708 1.9435 18.3606 1.96686C18.0896 1.99956 17.6832 2.13036 17.3702 2.48542C17.0525 2.84515 16.9544 3.317 16.9731 3.62534C17.0011 4.17194 17.1833 4.35881 17.2908 4.49897C17.4823 4.75591 17.6412 4.86337 17.814 4.97082L18.0336 5.08762L18.3606 5.21843L18.6736 5.32121C18.9679 5.39596 19.2155 5.41464 19.4772 5.42399H20.0238C20.1592 5.41932 20.2901 5.40529 20.4209 5.38661H20.4349C20.7993 5.50807 21.0983 5.53143 21.3272 5.55012C21.472 5.55946 21.6496 5.56881 21.8458 5.56414C22.0794 5.67159 22.3036 5.72765 22.4858 5.77437C22.9483 5.8865 23.3968 5.90518 23.8593 5.87715H24.0882C24.3358 5.86781 24.5507 5.82576 24.747 5.77437C24.8778 5.77437 25.0039 5.77437 25.1207 5.77437C25.3449 5.7697 25.5739 5.74167 25.8121 5.69962C25.985 5.7697 26.1251 5.80707 26.2419 5.83977C26.611 5.93788 26.882 5.94255 27.1016 5.95657C27.2651 5.96591 27.4473 5.96591 27.6341 5.95657C27.7883 6.00796 27.9331 6.04534 28.0546 6.0687C28.3676 6.12943 28.6946 6.15278 29.0217 6.1341C29.2039 6.12475 29.5823 6.15278 30.1055 5.97058C30.4606 5.84444 30.7596 5.68561 31.0165 5.52677C31.0726 5.49406 31.124 5.46136 31.18 5.42399C31.437 5.42399 31.6939 5.40997 31.9696 5.37727L32.5255 5.2885H32.4928C32.6096 5.29317 33.3851 5.2231 33.843 4.79797C33.8103 4.83067 33.7775 4.86338 33.7775 4.8587L33.9224 4.73723C33.9644 4.69986 33.9831 4.71855 34.0999 4.57839C34.1793 4.54569 34.455 4.42422 34.5764 3.67206C34.6792 3.04137 34.3195 2.48076 34.1233 2.28921V2.29388ZM32.6096 2.14905H32.5956C32.5956 2.14905 32.6049 2.14905 32.6096 2.14905ZM18.725 1.98554C18.6643 1.98554 18.6082 1.99955 18.5521 2.00423C18.5708 2.00423 18.5849 1.99489 18.5942 1.99489C18.6176 1.99489 18.683 1.99021 18.725 1.98554Z" fill="#F8BA00"/>
</g>
<path d="M1.17305 27.6337C1.2151 27.7879 1.11698 27.9467 0.962814 27.9888C0.869378 28.0121 0.766595 27.9888 0.696518 27.9234L0.645135 27.8766H0.640459C0.640459 27.8766 0.719873 27.9187 0.677827 27.8953C0.504971 27.7972 0.444243 27.5823 0.537679 27.4095C0.631115 27.2366 0.850694 27.1759 1.02355 27.2693C1.19641 27.3627 1.25713 27.5823 1.1637 27.7552C1.08895 27.886 0.94412 27.9607 0.794622 27.9327C0.701186 27.9187 1.05625 27.8766 1.00486 27.9C0.962813 27.9234 1.12632 27.8019 1.10296 27.8252C1.06559 27.8673 1.17772 27.6804 1.16837 27.7131C1.15436 27.7552 1.17771 27.6197 1.17771 27.6337H1.17305Z" fill="black"/>
<path d="M34.0579 48.2831C33.9925 48.2177 33.9084 48.1709 33.8196 48.1429L33.7729 48.1289C33.7402 48.1196 33.7029 48.1149 33.6655 48.1149H33.53L33.4039 48.0962H33.1936L33.0114 48.1055L32.8619 48.1195L32.7405 48.1336L32.647 48.1476L32.5302 48.1616L32.3901 48.1709L31.5118 48.2457L31.0399 48.2831L30.2737 48.3345H29.6991L28.4845 48.3158C27.6856 48.3204 26.8914 48.3438 26.1626 48.241L25.4478 48.1709L24.8591 48.1569L23.9481 48.213L23.3642 48.2644L22.4158 48.3111C21.8412 48.3158 21.2618 48.2831 20.6732 48.3204C20.3649 48.3438 19.9911 48.3671 19.6174 48.4325C19.2343 48.498 18.9073 48.5587 18.5802 48.5587C17.9402 48.5494 17.3048 48.6054 16.875 48.526L16.7068 48.5026C16.6368 48.4933 16.5667 48.498 16.5013 48.5167C16.3938 48.5494 16.1088 48.6101 16.1135 48.9605C16.1135 49.0399 16.1416 49.1146 16.1883 49.1754L16.3051 49.3108C16.3565 49.3576 16.4172 49.395 16.4826 49.4183L16.7302 49.4884C17.3329 49.6052 17.9869 49.5304 18.5616 49.5398C19.0054 49.5491 19.3978 49.4837 19.7669 49.4276L20.748 49.3623C21.2432 49.3342 21.8084 49.3716 22.4251 49.3716C22.8035 49.3716 23.1259 49.3669 23.495 49.3202L24.0089 49.2735L24.9292 49.2128L25.4198 49.1987L25.9991 49.2455C26.8493 49.3809 27.6949 49.3623 28.4938 49.3623L29.6944 49.3482H30.2551L31.1801 49.3155L31.5912 49.2548L32.4975 49.152H32.7825L32.918 49.1613H32.9554L33.1002 49.1754H33.4693L33.4973 49.1847H33.5207C33.558 49.1987 33.5907 49.1987 33.6281 49.1987H33.6561C33.7496 49.1987 33.8383 49.18 33.9224 49.1333L33.9504 49.1193C33.9832 49.1006 34.0159 49.0773 34.0439 49.0539C34.2588 48.8624 34.2775 48.5353 34.0906 48.3204L34.0486 48.2784L34.0579 48.2831Z" fill="black"/>
<path d="M36.8283 43.8311C36.8283 43.7984 36.8329 43.7703 36.8329 43.7376L36.861 43.4807C36.861 43.2564 36.7629 43.0088 36.6881 42.8874C36.6554 42.836 36.5713 42.7005 36.4405 42.5744L36.2256 42.3595C35.9406 42.1165 35.6229 42.0605 35.2866 42.0371L34.7727 42.0745C34.6138 42.1212 34.4457 42.2053 34.3289 42.3221C34.2308 42.4015 34.1233 42.5043 34.0345 42.6444C33.815 42.9761 33.815 43.3172 33.8009 43.4059C33.7729 43.5695 33.7215 43.8311 33.7309 44.1534C33.7682 44.7187 34.156 45.0644 34.6278 45.2793C34.8147 45.3401 34.9923 45.3541 35.1604 45.3541L35.5669 45.3307C36.0154 45.3027 36.3097 45.0224 36.4312 44.8869C36.4685 44.8542 36.5666 44.7982 36.7115 44.6019C36.8283 44.4291 36.9077 44.1581 36.847 43.8918C36.8423 43.8685 36.8329 43.8451 36.8283 43.8217V43.8311Z" fill="black"/>
<path d="M16.6835 44.5598C16.8143 44.3262 16.9077 44.0319 16.9264 43.7095C16.9404 43.5601 16.9638 43.3919 16.9451 43.205C16.9217 42.8593 16.7489 42.621 16.562 42.4201C16.3751 42.2286 16.1135 42.009 15.7304 41.9062L15.352 41.8735C15.2259 41.8735 15.053 41.8876 14.8334 41.9763C14.6606 42.0557 14.5438 42.1492 14.3943 42.2893L14.114 42.621C13.8197 43.0228 13.843 43.4059 13.8897 43.7936C13.9178 44.144 14.086 44.5458 14.399 44.7887C14.4083 44.7981 14.4176 44.8074 14.4317 44.8121C14.4924 44.8541 14.5578 44.8962 14.6279 44.9289C14.7447 44.9756 14.8568 45.0036 14.9689 45.0223H14.9783C15.1745 45.1391 15.3707 45.1812 15.5903 45.1905C15.6744 45.1952 15.7725 45.2139 15.9593 45.1905C16.1789 45.1438 16.3097 45.0223 16.3845 44.9476C16.5293 44.8121 16.6321 44.6766 16.6835 44.5692V44.5598Z" fill="black"/>
<path d="M48.4891 27.4423C48.447 26.6808 48.2275 25.9473 48.0266 25.2372L47.522 23.2423L47.2978 22.2052L47.1903 21.7333L47.1296 21.439C47.1296 21.439 47.1296 21.453 47.1296 21.4484L47.1156 21.3736L47.0595 21.14L46.9474 20.7616L46.2653 18.734L45.8215 17.183C45.7234 16.7906 45.6253 16.3795 45.4758 15.9964L45.1301 15.3423L44.8124 14.6462L44.6021 14.1744L44.4106 13.7586L44.2798 13.4689L43.7565 12.287L43.4809 11.759L43.1118 11.105L42.8409 10.6752L42.6867 10.4463L42.5652 10.2641L42.1167 9.76419L41.8224 9.41847L41.4113 8.88589L41.1964 8.64762L41.1263 8.54484L40.7993 8.12438L40.561 7.84875L40.262 7.47033L40.0004 7.11995L39.7108 6.75555L39.4819 6.4799C39.2436 6.16689 39.038 5.88659 38.7671 5.60161L38.5802 5.40539C38.412 5.23721 38.2438 5.09238 38.0289 4.9569L37.4122 4.58315L37.1927 4.41497L36.6274 4.00385L36.4171 3.84501L36.2443 3.7142L36.0481 3.5647L35.8519 3.37783L35.6603 3.19096C35.4361 2.99942 35.1464 2.8359 34.8661 2.70042C34.3429 2.44814 33.7122 2.19587 33.0394 1.99498L32.5723 1.85016C32.2873 1.77074 32.1331 1.69131 31.8808 1.57919L31.4791 1.42502L31.3202 1.33626C30.6241 0.920468 29.7318 0.682207 28.7974 0.607458C27.9425 0.542053 27.1016 0.588763 26.2793 0.584091C25.929 0.584091 25.5272 0.593437 25.1394 0.630812L24.3312 0.74293H24.3125C24.2424 0.672853 24.1303 0.640153 24.0322 0.686871C23.9902 0.705558 23.8407 0.672854 23.523 0.61212C23.0932 0.588761 22.7802 0.686874 22.5185 0.733592C22.0934 0.822356 21.6356 0.836369 21.1404 0.906446L20.3695 1.09332L19.9397 1.24282C19.552 1.38764 19.2203 1.58385 18.8745 1.78007L18.2999 2.11178L17.4403 2.64436L16.7629 3.1349L16.5013 3.33579L16.0388 3.66281L15.2119 4.27015L14.8755 4.54578L14.6606 4.72797L14.3849 4.96157L13.9925 5.3213L13.7916 5.50817L13.2123 5.97068C12.6891 6.39581 12.2079 6.87701 11.7921 7.34419C11.395 7.79268 10.8531 8.3206 10.456 8.70836L9.81125 9.30635L9.274 9.83893L9.0731 10.0725L8.81148 10.4089L8.47979 10.9695C8.22751 11.3946 7.82574 11.9366 7.38659 12.5766L6.71852 13.5577C6.32142 14.1931 5.98037 14.8564 5.66269 15.4544C5.46648 15.8095 5.09273 16.3748 4.68629 16.9588C4.46204 17.2858 4.27984 17.5941 4.13968 17.9025C3.80798 18.6032 3.61178 19.0844 3.28942 19.5843L2.80355 20.3785C2.51857 20.9017 2.31301 21.4811 2.17286 22.1491C2.00934 22.9013 1.92059 23.5367 1.66831 24.0552C1.43005 24.5551 1.24317 25.0036 1.14973 25.4754C1.04228 26.0267 0.83205 26.5967 0.668537 27.218C0.668537 27.218 0.659199 27.218 0.659199 27.2227C0.579778 27.2834 0.378882 27.4049 0.519036 27.7132C0.523708 27.7226 0.533056 27.7319 0.537728 27.7459C0.434948 28.2038 0.304139 28.7644 0.276108 29.3297L0.192019 30.7125V31.4413C0.182675 31.4927 0.177999 31.5535 0.187343 31.6282V31.7824L0.224725 32.3523C0.276115 33.1185 0.177994 33.894 0.299461 34.7677C0.37421 35.2816 0.416261 35.8562 0.523713 36.4542L0.621817 37.0522L0.673214 37.3371C0.743291 37.7483 0.836724 38.379 0.976878 38.9349C1.15441 39.6544 1.34595 40.3645 1.57019 41.0933C1.69633 41.4857 1.85518 41.8501 2.03271 42.1725L2.23359 42.5275C2.31769 42.6817 2.39243 42.8826 2.46251 43.1255C2.72413 44.0505 3.21 44.9241 3.50432 45.723C3.75193 46.3958 4.10231 46.9517 4.44802 47.4703L4.98528 48.1897L5.30763 48.6149L5.49918 48.8578L5.6954 49.082L5.77949 49.2035L6.29806 49.7922L6.61107 50.1239C6.86802 50.3902 7.24643 50.8713 7.54543 51.2684L8.14809 52.0346L8.4284 52.3476L8.54986 52.4878L8.84886 52.8148L9.24597 53.1605L9.79256 53.539L10.1429 53.8099L10.5167 54.1416L10.8951 54.506L11.0867 54.6789L11.4838 55.0246L11.8528 55.3609C12.1752 55.6786 12.4789 55.9262 12.7451 56.1131L13.1329 56.3654L13.6421 56.669C13.9785 56.8326 14.2261 56.8699 14.3195 56.9073L15.0203 57.3465L15.3427 57.5754L15.7585 57.8277L16.3798 58.1593L16.7162 58.3322L17.1226 58.5284L17.6085 58.8181C18.1598 59.1404 18.8372 59.4114 19.5706 59.4254L20.3929 59.4862L21.8692 59.6029C22.1401 59.6263 22.6073 59.7665 23.1632 59.8179L23.808 59.8599L24.1724 59.8879L24.4714 59.916L24.733 59.9347L24.9946 59.944H25.8542L25.943 59.9347C25.9804 59.9347 26.0177 59.93 26.0504 59.9206L26.1812 59.8879C26.1812 59.8879 26.2186 59.8692 26.242 59.8646C26.3821 59.8506 26.4989 59.8272 26.6017 59.8179H27.2698C27.9332 59.8225 28.5218 59.7478 29.0918 59.7431C29.4702 59.7431 29.8159 59.673 30.1242 59.5889C30.6989 59.4207 31.2455 59.2432 31.7874 59.0049L33.3992 58.4023L34.1513 58.1173L34.6839 57.9024L34.9736 57.7623C35.4361 57.5193 35.7351 57.2857 35.8892 57.211L37.0572 56.5476L37.501 56.2813C37.786 56.1178 37.9448 56.029 38.1224 55.8889L38.5895 55.4824L38.8465 55.2675L39.052 55.0947L39.3324 54.8751H39.337L39.5192 54.7256L40.0752 54.207L40.4209 53.8426L40.6264 53.6417L40.9862 53.2773L41.3646 52.8755L41.6729 52.5392L41.9252 52.2729L42.1448 51.9972L42.9063 50.9928L43.3034 50.4182C43.4622 50.1846 43.6584 49.8903 43.8593 49.4885L44.4246 48.3252L44.8357 47.4282L45.2842 46.4191C45.5412 45.8305 45.714 45.2605 45.8775 44.7186L46.2186 43.5553L46.3774 42.9994L46.583 42.3827L46.9334 41.3362C47.0782 40.9204 47.2184 40.6448 47.2884 40.2243C47.4286 39.3273 47.466 38.5798 47.5687 37.8137L47.8257 36.5383L47.9798 35.6179L48.0639 35.1694C48.1574 34.6555 48.162 34.1323 48.1854 33.6371C48.1948 33.6137 48.2134 33.5904 48.2181 33.5717C48.2882 33.3941 48.3116 33.2306 48.3396 33.0017C48.3583 31.9973 48.3396 31.0956 48.4143 30.1613L48.4704 28.6336L48.4844 27.8721V27.4236L48.4891 27.4423ZM1.31325 31.0302V30.7499L1.35997 29.3904C1.37398 28.9793 1.46742 28.5074 1.55151 28.0823C2.00935 28.1244 2.54193 28.143 3.06517 28.1477C3.822 28.1477 4.55547 28.1103 5.34968 28.0029C5.98037 27.9094 6.45223 27.9562 6.97547 27.9515L8.21349 27.9795H9.18523L10.1897 27.9889C10.6849 27.9842 11.0072 28.0683 11.5538 28.1571C12.32 28.2972 13.4693 28.3252 14.698 28.3159L16.5527 28.2598C17.2674 28.2178 17.7767 28.2271 18.3233 28.2271L20.178 28.2785L22.9297 28.2925L24.5041 28.2084L25.7327 28.1757L26.854 28.1898L27.3912 28.1757L28.8348 28.1384L29.8813 28.1197L31.0679 28.143L31.8154 28.1711L32.8059 28.2084L34.1794 28.2739H34.9315L35.9126 28.3206L37.842 28.3346H38.9866L39.4118 28.3206L40.7059 28.3813L41.5655 28.3907H42.6774L43.2473 28.4L43.9247 28.4374L45.1721 28.4654L45.7934 28.5168L46.1158 28.5635L46.4008 28.6009L46.5456 28.6242H46.6437L46.7185 28.6476L46.8306 28.6756L46.9708 28.6943H47.0081L47.0642 30.1379C47.0735 30.6611 47.1062 31.1657 47.1529 31.6749L47.0735 31.6609L46.9614 31.6516H46.8633L46.7325 31.6375L46.5596 31.6282L46.3868 31.6142L46.242 31.5955L45.9476 31.5348L45.5739 31.46C45.1581 31.3853 44.7003 31.3012 44.1817 31.2498L43.9901 31.2311L43.551 31.2077L43.3174 31.1891H43.1399L42.7241 31.1657L41.8598 31.1423H41.3272L41.0703 31.133H40.6638L40.2901 31.1423L39.5286 31.1657L39.0801 31.2124L38.6082 31.2731L37.7393 31.3199L36.7021 31.3619L35.3753 31.4694L34.3429 31.5535H32.2686L31.5445 31.5441C31.0866 31.5441 30.6288 31.5441 30.2317 31.4834C29.7692 31.4226 29.3581 31.3105 28.8395 31.2545L27.0969 31.105C26.6297 31.0442 26.2279 31.0302 25.658 31.0255L24.5414 31.0162L23.0979 31.0068L22.0747 30.9975L21.0423 30.9461L19.9911 30.8807L19.6174 30.8714L19.0661 30.8807L17.814 30.9788C17.3562 31.0115 16.9965 31.0068 16.4873 31.0068L15.651 30.9928H14.9035L14.5952 31.0022H12.5256C12.2873 31.0022 11.9836 30.9742 11.5258 31.0349L10.8297 31.1517L9.84862 31.2872L9.38144 31.3012H8.47511L7.07825 31.2825C6.69516 31.2685 6.34477 31.3059 5.84956 31.3526C5.52721 31.3899 5.17216 31.3759 4.91988 31.3759C4.72366 31.3759 4.53211 31.3526 4.35926 31.3059L4.07896 31.2404L3.34081 31.161C2.96239 31.105 2.54194 31.0115 2.22425 31.0022H1.86919L1.32726 31.0162L1.31325 31.0302ZM2.1495 25.667C2.16352 25.5829 2.18221 25.4988 2.21024 25.41L2.25695 25.354L2.47186 25.083L2.66807 24.8541L2.73814 24.7653C2.85026 24.6345 2.92969 24.5925 2.9951 24.5831L3.20532 24.5925C3.4249 24.6205 3.50431 24.6579 3.59775 24.798C3.74258 25.0176 3.7893 25.5035 4.00887 25.9706L4.14436 26.2323C4.22378 26.3631 4.32188 26.5032 4.44802 26.62L4.61154 26.7462C4.85914 26.891 5.16281 26.9424 5.48516 26.8817C5.73277 26.8349 5.92432 26.7228 6.07849 26.6341L6.44755 26.3771C6.61106 26.237 6.76057 26.0594 6.89605 25.8819C7.05957 25.667 7.20907 25.396 7.34922 25.1531L7.57813 24.8167L7.67156 24.6859L7.85844 24.4617L7.93319 24.3822L8.4284 24.2935L8.6433 24.2608L8.8255 24.3075L9.08245 24.4897L9.19457 24.5831L9.31137 24.7093L9.54963 24.9849L9.79724 25.1858L9.886 25.2512L10.1289 25.4801L10.4887 25.7978C10.797 26.0267 11.1754 26.1949 11.5679 26.251C11.7641 26.279 11.9556 26.2696 12.1238 26.251L12.4835 26.1669C12.6237 26.1061 12.7124 26.0314 12.7778 25.98L13.0255 25.7511L13.2871 25.4941C13.6281 25.1484 13.9458 24.8588 14.2027 24.7046C14.3149 24.6345 14.455 24.5972 14.6326 24.6112L14.8988 24.6579C15.1511 24.7093 15.2632 24.7326 15.3567 24.7887L15.7351 25.0597L15.9874 25.2278L16.1742 25.4007L16.4125 25.6483L16.7115 25.8866C16.889 26.0034 17.0993 26.0688 17.3422 26.0968H18.2906L18.6643 26.1061C19.3838 26.022 19.7669 25.4521 20.1546 25.0924L20.7106 24.6345L21.1123 24.3636L21.3179 24.2327L21.4627 24.172L22.014 24.1066L22.5326 24.0879H22.7148L22.7848 24.1019L22.9904 24.3215L23.1819 24.5504L23.4576 24.9429C23.6351 25.2045 23.7846 25.5362 24.0322 25.8398C24.2705 26.1201 24.5928 26.251 24.8778 26.3164L25.2235 26.3818C25.4337 26.4238 25.672 26.4939 25.957 26.5079H26.4008L26.6998 26.4378L26.9427 26.3257L27.3165 26.1482C27.6061 26.0034 27.9005 25.9239 28.2041 25.6997C28.5358 25.4521 28.7367 25.1484 28.961 24.9242L29.3581 24.5831L29.5823 24.4103C29.8299 24.2327 30.0728 24.1206 30.2317 24.1066C30.2597 24.1066 30.6615 24.2514 30.9698 24.4663L31.2221 24.6392L31.3856 24.7653L31.8995 25.1531L32.1565 25.3633L32.2966 25.4895C32.5396 25.6857 32.8012 25.7464 33.0207 25.8025L33.5019 25.8819H33.7449C33.9271 25.8632 34.0812 25.7838 34.1186 25.7604L34.5438 25.4427L34.9315 25.027L35.053 24.9055L35.1558 24.7887L35.3146 24.6532L35.4314 24.5738L35.5061 24.5504L35.8145 24.5271H36.0434C36.0434 24.5271 36.0434 24.5271 36.0481 24.5271L36.3237 25.027L36.4826 25.3213L36.604 25.5409L36.8189 25.9473C36.9684 26.1949 37.2627 26.4145 37.5758 26.4518L38.2765 26.55C38.5755 26.606 38.9353 26.606 39.2903 26.4472L39.6827 26.2276C39.963 26.0594 40.2106 25.9006 40.3928 25.6576L40.5984 25.326L40.6919 25.1531C40.7059 25.1251 40.8881 24.9148 41.0843 24.7887C41.2431 24.6859 41.4534 24.6018 41.5935 24.5785C41.743 24.5551 41.9065 24.5878 42.014 24.6252L42.1354 24.6859L42.2289 24.742L42.2896 24.8307L42.4111 24.9942L42.5512 25.1624L43.0137 25.5922L43.1679 25.7371L43.5089 26.0781L43.6865 26.2323C43.9388 26.3958 44.1957 26.3911 44.2751 26.4005C44.3031 26.4005 44.4386 26.4612 44.6582 26.4752C44.8918 26.4892 45.1067 26.4285 45.2749 26.3164L45.5178 26.1248L45.6299 26.0267L45.7794 25.9099C45.9476 25.7744 46.2046 25.6156 46.4101 25.3586C46.4755 25.2792 46.5176 25.2045 46.555 25.1391C46.5877 25.2792 46.6204 25.4147 46.6577 25.5595C46.8259 26.2837 46.9801 26.9471 46.9848 27.489V27.6945H46.9614L46.91 27.6852H46.868L46.6717 27.6291L46.597 27.6151L46.2606 27.5357L45.9196 27.4796L45.2422 27.4142L43.892 27.3862L43.266 27.4236H42.682L41.5655 27.4329L40.7245 27.4236L39.4305 27.3488L38.9726 27.3348H37.8327L35.9406 27.3488L34.9362 27.2928H34.1747L32.8853 27.2414L31.8201 27.1993L31.1006 27.1853L29.886 27.1526H28.7834L27.3959 27.176L26.8306 27.162L25.7374 27.1807L24.4387 27.2461L22.9156 27.2788L20.1733 27.2133L18.3233 27.1853C17.7813 27.1853 17.2394 27.1853 16.4919 27.232L14.6886 27.2975C13.488 27.3068 12.3527 27.2694 11.7314 27.162C11.2175 27.0639 10.8017 26.9424 10.1803 26.9377H9.18056L8.20883 26.9471H6.98481C6.51295 26.9517 5.95234 26.9003 5.20485 27.0031C4.46203 27.1152 3.77995 27.1666 3.0605 27.1713C2.62602 27.1806 2.17754 27.1713 1.77109 27.1573C1.9019 26.6808 2.06073 26.1902 2.15417 25.6576L2.1495 25.667ZM45.9897 22.6957H45.999L46.1859 23.5039C46.2139 23.6488 46.2466 23.7889 46.2793 23.9291L46.2653 23.9431L46.1765 24.0225C46.1438 24.0505 46.1205 24.0879 46.0971 24.1253L46.0457 24.2141L46.0317 24.2514L45.999 24.3168L45.8729 24.5411L45.7327 24.8167C45.6486 24.9195 45.4431 25.0643 45.2282 25.2325L45.0646 25.368L44.9011 25.5128L44.8404 25.5736L44.747 25.5922L44.4246 25.5081L44.2097 25.4614L44.177 25.4241L43.7939 25.0783L43.6024 24.9148L43.2099 24.5785L43.1212 24.4804L43.0044 24.3262C42.967 24.2795 42.911 24.1627 42.7381 24.0459L42.5279 23.9384L42.3176 23.8543C42.084 23.7796 41.7897 23.7235 41.472 23.7796C41.1777 23.8216 40.8927 23.9384 40.6405 24.0973C40.3228 24.2935 40.0939 24.5177 39.9584 24.742L39.8463 24.9335L39.7154 25.1624C39.65 25.2512 39.5052 25.3633 39.2576 25.5081L38.9446 25.6763C38.7857 25.7464 38.6222 25.7511 38.4494 25.7184L37.6832 25.5969C37.5991 25.5876 37.6365 25.6156 37.5711 25.5081L37.3795 25.1671L37.23 24.9008L37.0759 24.6252L36.7629 24.0833L36.6367 23.9244C36.5012 23.7796 36.2817 23.7002 36.0901 23.6908H35.8285L35.3239 23.7329C35.2165 23.7562 35.095 23.7983 34.9922 23.8637L34.8054 23.9945L34.5391 24.2234L34.4503 24.3215L34.2915 24.4804L33.9738 24.8167L33.7122 25.0129C33.6514 25.0456 33.6935 25.0316 33.6701 25.0316H33.558L33.2356 24.9756L32.8479 24.8354L32.7404 24.7326L32.4321 24.471L31.9462 24.0973L31.7594 23.9478L31.4791 23.7469C31.1053 23.4899 30.6802 23.1816 30.1429 23.2423C29.7458 23.2844 29.3908 23.4759 29.0684 23.7002L28.8021 23.9057L28.3396 24.3075C28.0453 24.5971 27.8491 24.8681 27.6715 24.9989C27.5267 25.1064 27.2791 25.1811 26.9194 25.354L26.5223 25.5315L26.3728 25.6016L26.284 25.6156H26.0037L25.4104 25.4988L25.0927 25.4287C24.9105 25.3867 24.8264 25.34 24.7563 25.2559C24.6162 25.0877 24.462 24.77 24.2331 24.4336L23.9248 24.0038L23.7052 23.7422L23.3828 23.4105C23.1913 23.2517 22.9717 23.205 22.8222 23.1909H22.5372L21.9486 23.2143C21.7197 23.233 21.4534 23.2283 21.1684 23.3217L20.8787 23.4432L20.6171 23.6067L20.178 23.9057L19.5239 24.4477C19.0754 24.8728 18.7998 25.2045 18.5522 25.2372H17.9028L17.4496 25.2278L17.2161 25.1624L17.0479 25.027L16.8143 24.784L16.5106 24.5224L16.2583 24.3589L15.8332 24.0646C15.5809 23.9151 15.3333 23.873 15.0764 23.8263L14.7166 23.7749C14.3663 23.7516 14.0299 23.831 13.7589 24.0038C13.3945 24.2374 13.0535 24.5691 12.6937 24.9429L12.4695 25.1765L12.2733 25.3586L12.1658 25.4334L12.0724 25.4614H11.694C11.4744 25.4334 11.1754 25.3119 10.9885 25.1718L10.7036 24.9195L10.3952 24.6345L10.2878 24.5598L10.1429 24.4477L9.94674 24.2327L9.74118 24.0178L9.56365 23.8777L9.23662 23.6534C9.02171 23.532 8.80214 23.4899 8.59658 23.5086L8.30226 23.5553L7.75566 23.6581C7.60617 23.6908 7.45666 23.7936 7.31184 23.9291L7.04554 24.2421L6.94276 24.3869L6.68114 24.7747L6.27937 25.4241L5.943 25.7978L5.68605 25.9753L5.35903 26.1201C5.22822 26.1435 5.07872 26.1061 5.03667 26.0781L5.02266 26.0641L4.85447 25.8445L4.75169 25.6483C4.6162 25.368 4.57416 24.8354 4.26115 24.3822C4.03223 24.0505 3.66316 23.8917 3.31278 23.8497L2.91101 23.859C2.87364 23.8637 2.83626 23.8777 2.80355 23.8917C2.89699 23.5647 2.95772 23.2377 3.01845 22.9106C3.03247 22.8966 3.04649 22.8779 3.05583 22.8639L3.19131 22.8125L3.7566 22.7097L4.39664 22.691H5.24223L6.28404 22.7238C6.60172 22.7658 7.09227 22.7798 7.57813 22.7798L8.4611 22.7985L8.81616 22.8359C9.31604 22.8732 9.95141 22.8592 10.6008 22.8639L11.8388 22.8546L12.946 22.8172H13.3011C13.7309 22.8312 14.2868 22.8546 14.9175 22.8172L15.8612 22.7238L16.8517 22.649C17.3889 22.6443 18.0757 22.6303 18.7577 22.663L20.2808 22.7658L21.402 22.7798H21.9392L22.6026 22.8078L23.0278 22.8592L23.6024 22.9013L24.8638 22.9106L26.242 22.8499L27.7089 22.8219L29.8953 22.8592H31.9603L33.2637 22.8359L34.2868 22.7845L34.8614 22.7565L35.5482 22.7471C35.8986 22.7518 36.5059 22.7565 37.1927 22.7191L39.1875 22.6397H41.9018L43.9434 22.7238H45.5552L46.0037 22.7144L45.9897 22.6957ZM17.3702 4.00853L18.0336 3.55536L18.8465 3.04146L19.4071 2.71443C19.7528 2.51354 20.0378 2.34537 20.3088 2.24259L20.6919 2.11178L21.3366 1.93425C21.5842 1.87819 21.8645 1.83613 22.1682 1.78007C22.1682 1.8081 22.1541 1.83613 22.1588 1.86884C22.1868 2.00432 22.3177 2.09309 22.4531 2.06506C22.9764 1.95761 23.3268 1.95293 23.6304 1.99031L24.0182 2.00432H24.2004L24.3779 1.98563L24.5788 1.95294L25.2422 1.83147L26.2653 1.78475C27.1249 1.78475 27.9378 1.73336 28.6993 1.78475C29.4842 1.83614 30.227 2.0417 30.7176 2.32668L31.0072 2.48552L31.3903 2.63502C31.6286 2.74714 31.8715 2.86394 32.2406 2.97139L32.6891 3.10687C33.217 3.26572 33.7122 3.45725 34.1326 3.64879H34.1233L33.7589 3.73756C33.5066 3.79829 33.2917 3.8964 33.0862 3.98516L32.7404 4.09729L32.5769 4.15803L32.348 4.22343L32.1658 4.28416L31.7267 4.38227L30.9138 4.58783L30.0074 4.74667C29.6384 4.81674 29.2366 4.82609 28.8395 4.84945L28.3349 4.87748L27.6715 4.90084L27.2698 4.91018H25.0927L24.2892 4.91952L23.1773 4.86346L22.6494 4.84011L21.6823 4.75134L20.3508 4.58315L19.8977 4.54578L19.636 4.50841L19.1315 4.46636C18.7484 4.45701 18.3373 4.46637 18.0196 4.41965L17.2114 4.26079C17.1647 4.25145 17.1226 4.2281 17.0759 4.20941L17.1179 4.18138L17.3609 3.99918L17.3702 4.00853ZM15.31 5.50817L15.5249 5.33064L15.8472 5.0737L16.3564 4.71396C16.534 4.83543 16.7489 4.96625 17.0198 5.04567L17.8981 5.26057C18.3139 5.33532 18.7531 5.33065 19.1035 5.35401L19.5379 5.39138L19.7762 5.43342L20.2854 5.49416L21.5842 5.68103L22.6167 5.78848L23.0885 5.80717C23.4436 5.84455 23.8874 5.88659 24.3032 5.89126H25.4524L25.6627 5.90528H27.2838L27.7276 5.89126L28.3957 5.85388L28.9002 5.82585C29.2833 5.80716 29.7318 5.79782 30.199 5.71373L31.096 5.55489L31.9836 5.33064L32.4041 5.24188L32.6423 5.17648L32.8899 5.10173L33.1095 5.0223L33.4786 4.87748L34.0018 4.6579L34.2915 4.5925L34.4223 4.57381L34.5484 4.54578L34.6746 4.49906L34.8007 4.42431L34.8568 4.37759C34.8568 4.37759 34.8614 4.37292 34.8661 4.36825L34.9829 4.33088L35.0577 4.29818L35.109 4.27949L35.2679 4.42431L35.5575 4.66725L35.7117 4.78405L35.9266 4.94755L36.1882 5.1391L36.1041 5.33064L36.006 5.54088L35.95 5.64832L35.7724 5.87257L35.6229 6.05478H35.5155L35.3426 5.98937L35.1231 5.88191C35.0203 5.82585 34.768 5.67168 34.4316 5.68103L34.0719 5.72775L33.4692 5.79782C33.2637 5.83052 33.0301 5.89593 32.8386 6.03141L32.6143 6.21828C32.5069 6.33507 32.4228 6.47523 32.3527 6.6294C32.2079 6.96577 32.1752 7.33018 32.1752 7.67589L32.1378 7.99357C32.1378 7.99357 32.1705 8.00291 32.0397 8.00291L31.7594 7.97488L31.3576 7.85341C31.1614 7.75997 30.9371 7.51238 30.6895 7.20404C30.5634 7.0452 30.4326 6.91905 30.2784 6.83028L30.0168 6.69481C29.9701 6.66678 29.872 6.58268 29.6898 6.55465L29.26 6.564C28.9096 6.61539 28.6246 6.78825 28.3676 6.97512L28.1854 7.11995L27.9846 7.2928C27.9612 7.32083 27.8444 7.42362 27.7463 7.58713C27.6248 7.78802 27.5921 7.95152 27.5501 8.03094L27.4286 8.22716C27.3398 8.32994 27.1763 8.44674 27.0222 8.48878L26.8867 8.50747C26.6718 8.5355 26.3961 8.54017 26.1672 8.48411C25.9757 8.43739 25.9009 8.37198 25.7701 8.17577L25.1861 7.25076L24.9759 6.96577L24.8451 6.82095C24.7797 6.75554 24.7049 6.66677 24.5508 6.59669L24.2798 6.50794C24.0883 6.47991 23.8967 6.48926 23.7145 6.50794C23.3735 6.54532 23.0932 6.71817 22.8783 6.92373L22.6494 7.13863L22.4625 7.33952L22.2803 7.52639L22.1541 7.66654L21.9205 7.95619L21.7897 8.11037L21.6963 8.2038L21.6216 8.21781L21.4954 8.19913L21.1824 8.00291C21.0516 7.91882 20.9441 7.85341 20.7713 7.66654L20.7479 7.62917L20.6265 7.41426L20.5377 7.18067L20.4303 6.90037C20.3322 6.70416 20.2013 6.50327 19.9771 6.37246C19.6828 6.1996 19.3791 6.18092 19.1969 6.15756L19.024 6.14354H18.7951C18.5008 6.14822 18.2018 6.26501 17.9402 6.47524L17.6832 6.70415L17.2628 7.08257L17.1133 7.21805L16.8423 7.43763C16.7068 7.48435 16.4639 7.47967 16.4078 7.45164C16.3378 7.41427 16.221 7.23674 16.221 7.23207L16.1696 7.01717L16.1509 6.75087C16.1275 6.54531 16.0948 6.3491 15.992 6.1669C15.8052 5.81651 15.4501 5.7184 15.1511 5.62497H15.1464L15.3146 5.48014L15.31 5.50817ZM13.8617 6.76489L14.0532 6.60605L14.2401 6.49859L14.5064 6.36778L14.726 6.29303L14.9409 6.35844C15.1978 6.44253 15.2959 6.50793 15.31 6.54064L15.3754 6.86767L15.394 7.1433L15.4828 7.50303C15.5576 7.7226 15.7164 7.99357 16.0574 8.16175C16.4078 8.33928 16.7769 8.29724 17.0852 8.19913C17.3656 8.1057 17.5244 7.91883 17.6412 7.8067L17.786 7.67122L18.1878 7.30682L18.4214 7.09658C18.5849 6.9611 18.669 6.92839 18.7998 6.91905H18.996L19.0988 6.9284C19.2763 6.94709 19.4912 6.98446 19.5893 7.04052L19.7435 7.2601L19.8136 7.44697L19.921 7.74597L20.0752 8.02628L20.206 8.20847C20.4349 8.45608 20.6405 8.58689 20.7573 8.66164C20.8414 8.7177 20.9909 8.82983 21.1918 8.91392C21.3412 8.97465 21.4907 8.99334 21.6309 8.98867C21.7851 8.98867 21.9906 8.95596 22.1728 8.81114L22.3644 8.61959L22.5045 8.44206L22.7194 8.16643L22.8269 8.05431L23.0044 7.8721L23.1679 7.69925L23.4062 7.48435C23.5183 7.3769 23.6725 7.29747 23.7893 7.28345H24.163L24.2331 7.31616L24.3078 7.38623L24.3873 7.475L24.5321 7.68523L25.1254 8.61492C25.317 8.90457 25.6066 9.15685 25.985 9.25029C26.3494 9.33905 26.7045 9.32503 26.9941 9.28766L27.223 9.25029C27.5594 9.16152 27.8257 8.96998 28.0126 8.76909C28.1154 8.65697 28.1948 8.53083 28.2649 8.39068L28.4237 8.00759L28.5592 7.84875L28.6526 7.76464L28.8395 7.61516C29.0451 7.45632 29.1992 7.37222 29.3768 7.34419L29.573 7.33485C29.6243 7.34419 29.5403 7.3255 29.615 7.37222L29.8813 7.51238L30.0775 7.70392C30.3298 8.02628 30.5961 8.38133 31.0119 8.59156C31.2221 8.69434 31.4043 8.72704 31.5585 8.76442L32.0397 8.83449C32.3667 8.83916 32.6984 8.685 32.8526 8.43272C33.0021 8.18512 33.0114 7.93283 33.0161 7.69457C33.0161 7.41893 33.0581 7.14798 33.1282 6.98914L33.259 6.78824L33.2917 6.7462C33.3852 6.68079 33.4506 6.66211 33.6 6.63875L34.1887 6.57334L34.4316 6.54064C34.5391 6.54064 34.5531 6.56868 34.7166 6.66678L34.9642 6.79292C35.0296 6.82562 35.1698 6.90971 35.38 6.95176H35.7771C36.1789 6.87701 36.3611 6.564 36.4545 6.44253L36.6601 6.18091L36.8002 5.93331L36.8984 5.69972C37.1039 5.83053 37.2861 5.92864 37.4216 6.00806L37.758 6.27435L37.9168 6.42852C37.9962 6.51261 38.0663 6.59671 38.1317 6.6808L38.0943 6.70883L38.0569 6.73686L37.9495 6.80226L37.7112 6.91905L37.5758 6.98914L37.4403 7.07323L37.2721 7.17133L36.6694 7.47967L36.1929 7.66654L35.9266 7.75531L35.1277 8.10569L34.6092 8.32059L34.3242 8.43272L34.0345 8.55418L33.8336 8.63361L33.6468 8.69901L33.0721 8.8999C32.8479 8.98867 32.5769 9.07276 32.334 9.11948C31.8154 9.21759 31.2782 9.34371 30.6708 9.51657C30.0261 9.68943 29.3908 9.85295 29.0404 9.90434C28.4985 9.98843 28.0079 10.0772 27.4893 10.0772H24.1957C23.3922 10.0912 22.5933 9.92302 21.7337 9.92769C21.0236 9.93703 20.3975 9.89032 19.6033 9.72213L18.0757 9.39511C17.4777 9.28299 16.8376 9.16152 16.4826 9.0167C15.8379 8.74106 15.2118 8.56353 14.6092 8.30191L13.0255 7.58713C13.2917 7.31149 13.5721 7.04052 13.871 6.79292L13.8617 6.76489ZM3.62579 20.8317L4.06961 20.1075C4.44802 19.5282 4.66759 18.9957 4.98528 18.3183C5.11141 18.0613 5.26559 17.8043 5.47115 17.51C5.88227 16.9167 6.26535 16.3467 6.49427 15.9263C6.83531 15.3236 7.17635 14.6789 7.55477 14.0903L8.20883 13.1466C8.63863 12.5205 9.04508 11.9739 9.33473 11.4881L9.65241 10.9929L9.85797 10.7359L10.0355 10.535L10.5073 10.0819L11.1801 9.46051C11.4978 9.15217 11.9089 8.75039 12.2826 8.34862C12.292 8.35329 12.3013 8.36264 12.3107 8.36731L12.4788 8.46075L14.1794 9.2643C14.8521 9.55863 15.4828 9.73615 16.0434 9.97909C16.5807 10.222 17.2534 10.3388 17.8561 10.465L19.3464 10.7873C20.2154 10.9882 20.9488 11.0676 21.7337 11.0723C22.4298 11.0723 23.252 11.2451 24.2144 11.2218H27.48C28.1247 11.2124 28.6807 11.0956 29.2132 11.0116C29.6711 10.9275 30.3018 10.7406 30.9418 10.5537C31.5351 10.3902 32.035 10.2734 32.5115 10.1893C32.8432 10.1332 33.1703 10.0398 33.4506 9.94171L33.9972 9.76885L34.2027 9.6941L34.413 9.61469L34.754 9.4792L35.0156 9.37642L35.5762 9.15217L36.3517 8.77843L36.5713 8.68499L37.1273 8.42805L37.7673 8.05431L37.9308 7.96087L38.0897 7.88612L38.2392 7.8067L38.4681 7.6572L38.5895 7.57778L38.6643 7.53105L38.753 7.475L38.7811 7.50303L39.0474 7.84875L39.281 8.1711L39.6173 8.6523L39.8229 8.8999L40.1312 9.27832L40.2433 9.43716L40.4583 9.70345L40.8413 10.194L41.1684 10.6004L41.5234 11.0302L41.6169 11.1704L41.7897 11.4273L41.9953 11.7497L42.313 12.3617L42.5699 12.8803L43.0604 14.0109L43.1819 14.2771L43.3922 14.7723L43.565 15.1741L43.9294 15.9496L44.2191 16.5383C44.3172 16.7579 44.4246 17.1363 44.5321 17.5194C44.6909 18.094 44.8544 18.678 45.0226 19.1498L45.6533 21.1727L45.7421 21.4811L45.7701 21.6212H44.6489L43.9761 21.5979C43.5089 21.5745 42.7988 21.5138 41.9159 21.4904L39.1642 21.5044L37.1273 21.6025C36.4826 21.6399 35.8939 21.6352 35.5529 21.6306L34.8147 21.6632L34.2027 21.6913L33.259 21.7193L31.9556 21.6913L29.8953 21.6773L27.7183 21.6539L26.1766 21.6632L24.8544 21.7053L23.6772 21.6773L23.1819 21.6259L22.7428 21.5605L21.9439 21.5044H21.3926L20.3135 21.5184L18.8091 21.4437C18.071 21.4157 17.3562 21.4437 16.819 21.4577L15.7164 21.5605L14.8194 21.6679C14.2635 21.7193 13.7402 21.7146 13.3058 21.724H12.9227L11.7781 21.7894L10.5868 21.8174H8.86288L8.53585 21.7987L7.55944 21.78L6.39149 21.7567C6.06914 21.7193 5.71876 21.71 5.22822 21.7053H4.38262C4.11166 21.71 3.86405 21.7146 3.6071 21.752C3.48564 21.7707 3.35949 21.7941 3.23803 21.8221C3.34548 21.4624 3.47162 21.14 3.63046 20.8363L3.62579 20.8317ZM47.0455 33.1933C46.9801 33.838 46.9848 34.4874 46.8866 34.9592L46.7932 35.3984L46.597 36.3421L46.3681 37.6361C46.2326 38.4724 46.1719 39.1965 46.0177 40.0328C45.9803 40.257 45.8775 40.4626 45.714 40.9344L45.359 41.9856L45.1301 42.6537L44.9852 43.2143L44.6208 44.3775C44.462 44.9101 44.3125 45.4287 44.0976 45.9333L43.6911 46.9143L43.2426 47.8067L42.7101 48.9372C42.5465 49.2689 42.3924 49.4932 42.2335 49.7314L41.8785 50.2453L41.145 51.1937L40.9208 51.446L40.7059 51.6749L40.4256 51.9832L40.0238 52.4411L39.7201 52.7681L39.4819 53.011L39.1502 53.3568L38.697 53.7772L38.5895 53.866C38.5615 53.8847 38.6363 53.8379 38.5709 53.88C38.5662 53.88 38.5615 53.8893 38.5568 53.894C38.5522 53.894 38.5428 53.8987 38.5381 53.9033L38.2438 54.1369L38.0149 54.3238L37.7673 54.5387L37.3048 54.9171L36.8563 55.1881L36.3611 55.4824L35.2913 56.1225C34.9736 56.3 34.7493 56.5055 34.3989 56.7017L34.1467 56.8232L33.6748 57.0475L32.9927 57.3605L31.395 58.0426C30.8811 58.2481 30.3812 58.3976 29.8112 58.5518C29.5636 58.6219 29.3207 58.6733 29.0964 58.6733C28.4424 58.6686 27.8537 58.7387 27.2604 58.7246C26.9708 58.7293 26.6671 58.7293 26.3307 58.8228C26.2607 58.8508 26.1999 58.8741 26.1485 58.8975C26.1439 58.8975 26.1345 58.8928 26.1298 58.8928L26.0084 58.8741C25.971 58.8695 25.9336 58.8648 25.9009 58.8695H25.8122L25.6907 58.8788H25.2282L25.0273 58.8695L24.7844 58.8554L24.5414 58.8461L24.2798 58.8321L23.9294 58.7994L23.2754 58.7153C22.8783 58.6732 22.4485 58.5238 21.986 58.4724L20.533 58.3369L19.6174 58.2434C19.1782 58.2248 18.6783 58.0239 18.2672 57.7669L17.744 57.4493L17.2908 57.211L16.9965 57.0568L16.3985 56.7251L16.0761 56.5382L15.7491 56.314C15.4454 56.1085 15.1651 55.8889 14.8054 55.7394L14.2121 55.5478L13.8103 55.3096L13.5066 55.118C13.2871 54.9545 13.0488 54.7536 12.7825 54.478L12.306 54.0435L11.9743 53.7632L11.7828 53.581L11.3856 53.2213L10.9792 52.8755L10.5494 52.5672L10.0028 52.1701L9.75052 51.9459L9.4889 51.6842L9.34407 51.5301L9.09647 51.2638L8.53585 50.563C8.21816 50.1425 7.83509 49.6473 7.49404 49.3016L7.22775 49.026L6.76057 48.4981L6.61574 48.3065L6.4569 48.1337L6.27002 47.8954L5.96169 47.489L5.46181 46.8116C5.13011 46.3257 4.83578 45.8585 4.63489 45.3306C4.29385 44.4336 3.82201 43.574 3.6071 42.8312C3.52301 42.5369 3.4249 42.2565 3.28007 41.9903L3.07919 41.6305C2.93903 41.3689 2.80823 41.0746 2.70545 40.7522C2.4812 40.0655 2.29433 39.3787 2.1168 38.678C2 38.2061 1.91591 37.5941 1.84116 37.1549L1.78977 36.884L1.68699 36.2673C1.58888 35.7441 1.54217 35.1834 1.45807 34.6228C1.35062 33.9314 1.42537 33.1792 1.35529 32.2963L1.32726 31.9459L1.85985 31.9552H2.16352L3.18197 32.1328L3.9388 32.2262L4.08362 32.2589C4.34524 32.3383 4.61621 32.3757 4.89185 32.3897C5.12544 32.3944 5.52721 32.4177 5.95234 32.3757C6.43821 32.3196 6.73721 32.2869 7.0362 32.2916L8.47511 32.3243L9.39079 32.3103H9.87665C10.2037 32.2916 10.5728 32.2402 11.0026 32.1655L11.6426 32.044C12.0117 31.9879 12.2126 32.0113 12.4975 32.0113H14.5625L14.8942 32.0206H15.609L16.4732 32.0907C16.9591 32.1001 17.3609 32.1234 17.8794 32.0954L19.0988 32.016L19.6174 32.0066L19.9724 31.9973L20.9441 32.0487L22.042 32.1001L23.0932 32.1094L24.5321 32.1001L25.644 32.0907C26.2046 32.0907 26.5503 32.0907 26.9614 32.1328L28.7134 32.2916C29.1478 32.343 29.5449 32.4598 30.0775 32.5392C30.5587 32.6093 31.0586 32.614 31.5304 32.6186H32.8059L34.3475 32.6093L35.4875 32.5392L36.7442 32.4318L37.7253 32.4177L38.7063 32.4084L39.2202 32.3523L39.5846 32.3196H41.0656L41.3085 32.3103H42.682L43.1025 32.3196H43.4716L43.9387 32.3337H44.0836L45.4104 32.4831L45.7561 32.5299L46.0457 32.5813L46.2653 32.6186L46.4849 32.6373L46.6717 32.6467H46.7932L46.8913 32.6607H46.9848L47.0361 32.67H47.0782C47.0782 32.67 47.0969 32.67 47.1062 32.67L47.0969 32.8382L47.0455 33.2073V33.1933Z" fill="black"/>
</svg>
