<svg width="327" height="92" viewBox="0 0 327 92" fill="none" xmlns="http://www.w3.org/2000/svg">
<g filter="url(#filter0_d_128_14886)">
<g filter="url(#filter1_d_128_14886)">
<rect x="5" width="318" height="82" rx="20" transform="rotate(0.220764 5 0)" fill="#F6D02E"/>
</g>
<g filter="url(#filter2_d_128_14886)">
<rect x="8.98438" y="4.01562" width="310" height="68" rx="20" transform="rotate(0.220764 8.98438 4.01562)" fill="#FFCF25"/>
</g>
<path d="M16.9354 16.7355C16.9581 10.8321 21.7622 6.06483 27.6657 6.08757L296.286 7.12259C302.189 7.14533 306.956 11.9493 306.933 17.8525C306.91 23.9932 301.734 28.8562 295.603 28.5137C270.045 27.0856 206.536 23.7862 162.353 23.6067C117.857 23.4258 53.8557 26.2503 28.1786 27.4844C22.045 27.7792 16.9117 22.8762 16.9354 16.7355Z" fill="#FFD84C"/>
<path d="M31.6066 8.36349C33.5128 10.6297 31.8253 15.1861 28.9525 17.6025C26.0796 20.019 21.3015 20.9012 19.3953 18.635C17.4891 16.3688 18.6774 12.2324 22.0495 9.39597C25.4215 6.55957 29.7004 6.09731 31.6066 8.36349Z" fill="#FFE588"/>
<path d="M58.5399 48.0821C58.5407 47.8688 58.6064 47.4424 58.7368 46.8029C58.8674 46.142 59.0304 45.364 59.2258 44.4687C59.4427 43.5522 59.6704 42.5824 59.909 41.5593C60.169 40.5363 60.4181 39.5559 60.6564 38.6182C60.8948 37.6591 61.1113 36.8173 61.3061 36.0927C61.5223 35.3468 61.6738 34.8034 61.7604 34.4624C62.0197 33.6101 62.268 32.8324 62.5054 32.1293C62.7429 31.4048 63.0012 30.7872 63.2805 30.2762C63.5599 29.744 63.8602 29.3398 64.1812 29.0637C64.5024 28.7663 64.8656 28.6183 65.2709 28.6199C65.6549 28.6214 66.0274 28.8468 66.3883 29.2962C66.7707 29.7244 67.1312 30.2804 67.4699 30.9644C67.83 31.6271 68.1578 32.375 68.4533 33.2082C68.7702 34.0201 69.0444 34.8211 69.276 35.6114C69.5291 36.3804 69.7397 37.0852 69.9079 37.7258C70.0762 38.3452 70.1917 38.8043 70.2546 39.1032C70.3595 39.5516 70.5171 40.1709 70.7274 40.961C70.9378 41.7298 71.1373 42.5413 71.3261 43.3953C71.5361 44.2495 71.7142 45.0822 71.8604 45.8934C72.028 46.7047 72.1108 47.3664 72.1088 47.8784C72.1076 48.1771 72.0532 48.4542 71.9456 48.7098C71.8594 48.9441 71.6349 49.0606 71.2722 49.0592C70.5042 49.0562 69.9397 48.8407 69.5787 48.4126C69.2391 47.9633 68.9532 47.4289 68.7209 46.8093C68.5731 46.4034 68.4254 45.9868 68.2777 45.5596C68.1513 45.1325 67.9715 44.7478 67.7381 44.4055C67.5261 44.0634 67.2392 43.7849 66.8774 43.5702C66.5368 43.3556 66.0786 43.2471 65.5026 43.2449C64.7346 43.2419 64.1155 43.3569 63.6453 43.5897C63.1964 43.8227 62.8325 44.12 62.5538 44.4815C62.2965 44.8219 62.103 45.2158 61.9733 45.6633C61.8436 46.0895 61.7246 46.5157 61.6163 46.942C61.4648 47.5174 61.2602 48.0179 61.0025 48.4436C60.745 48.8479 60.2749 49.0488 59.5922 49.0462C59.2509 49.0449 58.9845 48.9798 58.7929 48.8511C58.6229 48.7011 58.5385 48.4448 58.5399 48.0821ZM65.2489 34.3479C65.0142 34.347 64.7999 34.6021 64.6059 35.1134C64.4333 35.6247 64.2817 36.2108 64.1511 36.8716C64.0207 37.5111 63.9223 38.1294 63.856 38.7265C63.7898 39.3023 63.7564 39.6648 63.7558 39.8141C63.7544 40.1768 63.9133 40.4548 64.2326 40.648C64.5519 40.8412 64.8821 40.9385 65.2235 40.9398C65.4155 40.9405 65.6075 40.9413 65.7995 40.942C65.9916 40.9214 66.1624 40.8794 66.312 40.816C66.4829 40.7527 66.6219 40.6572 66.7291 40.5296C66.8363 40.3807 66.8905 40.1676 66.8915 39.8902C66.8923 39.6982 66.8511 39.3034 66.7681 38.7057C66.6851 38.1081 66.5701 37.489 66.4232 36.8484C66.2765 36.1865 66.0974 35.6098 65.8859 35.1183C65.6959 34.6056 65.4835 34.3488 65.2489 34.3479ZM80.7828 32.1997C81.3374 32.2018 81.8702 32.3425 82.3812 32.6219C82.9134 32.9012 83.3813 33.2657 83.785 33.7153C84.1886 34.1435 84.5175 34.6248 84.7714 35.1591C85.0253 35.6934 85.1513 36.2272 85.1492 36.7606C85.1476 37.1872 85.0182 37.5494 84.761 37.8471C84.504 38.1234 84.1514 38.2607 83.7034 38.259C83.4048 38.2578 83.1601 38.0969 82.9693 37.7762C82.7999 37.4555 82.6199 37.1028 82.4294 36.7181C82.2389 36.3333 82.0162 35.9805 81.7614 35.6595C81.528 35.3386 81.198 35.1773 80.7713 35.1757C80.3873 35.1742 80.0241 35.3221 79.6816 35.6195C79.3391 35.9168 79.0388 36.3317 78.7808 36.864C78.5227 37.3964 78.3176 38.0249 78.1655 38.7497C78.0347 39.4745 77.9677 40.2636 77.9644 41.1169C77.9611 41.9702 77.9901 42.749 78.0514 43.4533C78.134 44.1576 78.2703 44.7661 78.4604 45.2788C78.6505 45.7702 78.905 46.1552 79.2239 46.4338C79.5428 46.7124 79.9476 46.8526 80.4383 46.8545C81.0143 46.8567 81.4738 46.6451 81.8168 46.2198C82.1811 45.7945 82.4815 45.3263 82.7182 44.8152C82.9761 44.3042 83.202 43.8358 83.3956 43.4098C83.6106 42.984 83.8567 42.7716 84.1341 42.7727C85.158 42.7766 85.6684 43.2159 85.665 44.0906C85.6625 44.7306 85.5107 45.3807 85.2095 46.0409C84.9083 46.6797 84.5114 47.2648 84.0187 47.7963C83.5474 48.3065 82.9911 48.731 82.3498 49.0699C81.7299 49.3875 81.0893 49.545 80.4279 49.5425C78.38 49.5346 76.9215 48.7929 76.0525 47.3176C75.1835 45.8422 74.7542 43.7499 74.7647 41.0406C74.7699 39.6752 74.9026 38.4491 75.1628 37.3621C75.423 36.2751 75.7999 35.3485 76.2936 34.5824C76.8085 33.8164 77.4401 33.2322 78.1883 32.8297C78.9366 32.4059 79.8014 32.1959 80.7828 32.1997ZM92.6123 28.1812C92.847 28.1821 92.9746 28.2893 92.9951 28.5027C93.037 28.6949 93.0577 28.8763 93.057 29.047L93.0555 29.431L92.9884 30.2307L92.987 30.6147C92.9855 30.9987 92.9842 31.3294 92.9831 31.6067C92.9821 31.884 93.0132 32.1081 93.0766 32.2791C93.1399 32.45 93.2461 32.5784 93.3951 32.6643C93.5655 32.7289 93.8107 32.7619 94.1307 32.7631C94.4294 32.7643 94.7174 32.7547 94.9948 32.7345C95.2936 32.6929 95.5603 32.7046 95.7947 32.7695C96.0292 32.8131 96.2208 32.9205 96.3694 33.0918C96.5181 33.263 96.5917 33.5513 96.5901 33.9566C96.588 34.5113 96.4798 34.8949 96.2657 35.1074C96.0515 35.3199 95.6564 35.425 95.0805 35.4228L93.5445 35.4169C93.2458 35.4157 93.0738 35.7671 93.0284 36.4709C92.983 37.1747 92.9581 38.1133 92.9536 39.2866L92.9503 40.1186L92.9121 41.7505L92.9089 42.5825C92.9078 42.8598 92.9064 43.2225 92.9047 43.6705C92.9243 44.0972 92.976 44.5241 93.0597 44.9511C93.1648 45.3568 93.3235 45.7094 93.5357 46.0089C93.7693 46.2872 94.0994 46.4271 94.526 46.4288C94.8247 46.4299 95.0916 46.3776 95.3267 46.2718C95.5618 46.1447 95.7756 46.0176 95.9681 45.8903C96.1606 45.763 96.3424 45.6464 96.5135 45.5404C96.706 45.4131 96.8876 45.3498 97.0582 45.3505C97.2929 45.3514 97.4204 45.4692 97.4409 45.704C97.4827 45.9175 97.5033 46.1096 97.5026 46.2802C97.5008 46.7495 97.3711 47.1864 97.1136 47.5907C96.8774 47.9952 96.5667 48.346 96.1815 48.6431C95.7965 48.919 95.369 49.1307 94.8991 49.2782C94.4504 49.4471 94.0021 49.5308 93.5541 49.529C92.7861 49.5261 92.1576 49.2996 91.6687 48.8498C91.1798 48.3999 90.798 47.8224 90.5234 47.1173C90.2702 46.391 90.0919 45.5797 89.9887 44.6833C89.8855 43.7869 89.825 42.8906 89.8071 41.9945C89.7892 41.0985 89.7925 40.2451 89.817 39.4346C89.8627 38.6241 89.8867 37.9415 89.8888 37.3868C89.8916 36.6615 89.8722 36.1707 89.8305 35.9146C89.8102 35.6585 89.6507 35.5299 89.352 35.5287C89.2453 35.5283 89.128 35.5172 89.0001 35.4954C88.8935 35.4736 88.7871 35.4092 88.6809 35.3021C88.5959 35.1952 88.5219 35.0455 88.4586 34.8533C88.3954 34.6397 88.3645 34.3516 88.3659 33.9889C88.3672 33.6476 88.4002 33.3917 88.4649 33.2213C88.5296 33.0295 88.6155 32.9019 88.7224 32.8383C88.8507 32.7534 88.9789 32.7113 89.1069 32.7118C89.2349 32.6909 89.363 32.6808 89.491 32.6812C89.8323 32.6826 90.0246 32.6086 90.0678 32.4595C90.1325 32.2891 90.1658 31.9372 90.1679 31.4038C90.1682 31.3185 90.1687 31.2012 90.1693 31.0519C90.1698 30.9025 90.1597 30.7531 90.139 30.6037C90.1396 30.4331 90.1403 30.2731 90.1408 30.1237C90.1415 29.9531 90.142 29.8251 90.1423 29.7397C90.1433 29.4837 90.2188 29.26 90.3689 29.0686C90.5404 28.8559 90.7437 28.686 90.9789 28.559C91.2354 28.4319 91.5024 28.337 91.78 28.274C92.0789 28.2112 92.3563 28.1803 92.6123 28.1812ZM100.761 28.7566C100.763 28.2233 100.935 27.744 101.278 27.3186C101.621 26.8933 102.081 26.6817 102.657 26.6839C103.212 26.6861 103.659 26.9011 103.998 27.3291C104.359 27.7572 104.539 28.2379 104.537 28.7712C104.535 29.3045 104.352 29.7838 103.987 30.2091C103.644 30.6131 103.196 30.814 102.641 30.8119C102.086 30.8098 101.628 30.6053 101.267 30.1986C100.928 29.7706 100.759 29.29 100.761 28.7566ZM102.826 49.1488C102.357 49.1469 101.995 49.0282 101.74 48.7926C101.485 48.5356 101.294 48.2362 101.167 47.8944C101.062 47.5313 100.999 47.1577 100.98 46.7736C100.96 46.3895 100.94 46.0588 100.919 45.7814C100.899 45.504 100.88 44.9706 100.861 44.1811C100.865 43.3705 100.857 42.4745 100.84 41.493C100.844 40.5117 100.847 39.5197 100.851 38.5171C100.855 37.5144 100.858 36.6824 100.861 36.0211C100.862 35.6798 100.874 35.3171 100.897 34.9332C100.92 34.5493 100.985 34.1975 101.093 33.878C101.223 33.5371 101.405 33.2605 101.64 33.0481C101.876 32.8356 102.207 32.7302 102.634 32.7319C103.252 32.7343 103.668 32.8745 103.88 33.1527C104.092 33.4308 104.197 33.8793 104.195 34.4979L104.184 37.3459L104.127 43.7137L104.116 46.5617C104.115 46.7964 104.104 47.063 104.081 47.3616C104.08 47.6602 104.036 47.9481 103.95 48.2251C103.885 48.4808 103.756 48.7043 103.563 48.8956C103.392 49.0656 103.146 49.15 102.826 49.1488ZM112.999 49.4759C112.423 49.4737 112.028 49.3655 111.816 49.1514C111.625 48.9373 111.423 48.6165 111.212 48.1891C111 47.7616 110.757 47.1953 110.482 46.4902C110.208 45.7852 109.923 45.0054 109.627 44.1509C109.353 43.2752 109.069 42.3674 108.774 41.4276C108.5 40.4879 108.258 39.5803 108.048 38.7048C107.838 37.8293 107.66 37.018 107.514 36.2707C107.388 35.5236 107.327 34.9153 107.329 34.446C107.329 34.2753 107.351 34.0941 107.395 33.9022C107.438 33.7104 107.503 33.5293 107.589 33.359C107.696 33.1887 107.825 33.0506 107.974 32.9445C108.124 32.817 108.316 32.7538 108.551 32.7547C108.807 32.7557 109.063 32.8953 109.317 33.1736C109.572 33.4306 109.774 33.8047 109.921 34.296C110.09 34.8726 110.268 35.556 110.457 36.3461C110.668 37.1149 110.867 37.905 111.056 38.7164C111.266 39.5279 111.477 40.3394 111.687 41.1508C111.897 41.941 112.086 42.6457 112.255 43.265C112.423 43.8844 112.57 44.3863 112.697 44.7708C112.823 45.1552 112.919 45.3476 112.983 45.3479C113.047 45.3481 113.143 45.1458 113.273 44.741C113.424 44.3362 113.597 43.8035 113.791 43.143C113.986 42.4824 114.191 41.7365 114.408 40.9053C114.624 40.0741 114.851 39.243 115.089 38.4119C115.327 37.5595 115.554 36.739 115.771 35.9505C116.009 35.1408 116.225 34.4483 116.419 33.873C116.591 33.383 116.785 33.0851 116.998 32.9792C117.233 32.8521 117.5 32.7892 117.799 32.7903C118.119 32.7916 118.364 32.9205 118.534 33.1772C118.725 33.4126 118.82 33.6583 118.819 33.9143C118.817 34.3409 118.751 34.9273 118.62 35.6735C118.489 36.3983 118.305 37.2083 118.067 38.1034C117.85 38.9986 117.601 39.9363 117.32 40.9165C117.06 41.8755 116.779 42.8131 116.477 43.7293C116.196 44.6242 115.926 45.4445 115.667 46.1902C115.409 46.9145 115.182 47.4897 114.989 47.9156C114.709 48.5119 114.387 48.9266 114.024 49.1599C113.66 49.3718 113.319 49.4772 112.999 49.4759ZM121.601 28.8369C121.603 28.3036 121.775 27.8243 122.118 27.3989C122.461 26.9736 122.921 26.762 123.497 26.7642C124.051 26.7664 124.499 26.9814 124.838 27.4094C125.199 27.8375 125.379 28.3182 125.377 28.8515C125.375 29.3848 125.192 29.8641 124.827 30.2894C124.484 30.6934 124.036 30.8943 123.481 30.8922C122.926 30.8901 122.468 30.6856 122.107 30.2789C121.768 29.8509 121.599 29.3703 121.601 28.8369ZM123.666 49.2291C123.197 49.2272 122.835 49.1085 122.58 48.8729C122.325 48.6159 122.134 48.3165 122.007 47.9746C121.902 47.6116 121.839 47.238 121.819 46.8539C121.8 46.4698 121.779 46.1391 121.759 45.8617C121.739 45.5843 121.72 45.0509 121.701 44.2614C121.704 43.4508 121.697 42.5547 121.68 41.5733C121.683 40.592 121.687 39.6 121.691 38.5974C121.695 37.5947 121.698 36.7627 121.701 36.1014C121.702 35.76 121.714 35.3974 121.737 35.0135C121.76 34.6296 121.825 34.2778 121.933 33.9583C122.062 33.6174 122.245 33.3408 122.48 33.1284C122.716 32.9159 123.047 32.8105 123.473 32.8122C124.092 32.8146 124.508 32.9548 124.72 33.233C124.932 33.5111 125.037 33.9596 125.035 34.5782L125.024 37.4262L124.967 43.794L124.956 46.642C124.955 46.8767 124.944 47.1433 124.921 47.4419C124.92 47.7405 124.876 48.0284 124.79 48.3054C124.725 48.5611 124.596 48.7846 124.403 48.9759C124.232 49.1459 123.986 49.2303 123.666 49.2291ZM132.448 28.3347C132.683 28.3356 132.811 28.4428 132.831 28.6562C132.873 28.8484 132.894 29.0298 132.893 29.2005L132.891 29.5844L132.824 30.3842L132.823 30.7682C132.821 31.1522 132.82 31.4829 132.819 31.7602C132.818 32.0375 132.849 32.2616 132.913 32.4326C132.976 32.6035 133.082 32.7319 133.231 32.8178C133.401 32.8824 133.647 32.9154 133.967 32.9166C134.265 32.9178 134.553 32.9082 134.831 32.8879C135.13 32.8464 135.396 32.8581 135.631 32.923C135.865 32.9666 136.057 33.074 136.205 33.2452C136.354 33.4165 136.428 33.7048 136.426 34.1101C136.424 34.6648 136.316 35.0484 136.102 35.2609C135.887 35.4734 135.492 35.5785 134.916 35.5763L133.38 35.5704C133.082 35.5692 132.91 35.9206 132.864 36.6244C132.819 37.3282 132.794 38.2668 132.79 39.4401L132.786 40.2721L132.748 41.904L132.745 42.736C132.744 43.0133 132.742 43.376 132.741 43.824C132.76 44.2507 132.812 44.6776 132.896 45.1046C133.001 45.5103 133.159 45.8629 133.372 46.1624C133.605 46.4407 133.935 46.5806 134.362 46.5822C134.661 46.5834 134.928 46.5311 135.163 46.4253C135.398 46.2982 135.612 46.1711 135.804 46.0438C135.997 45.9165 136.178 45.7999 136.349 45.6939C136.542 45.5666 136.724 45.5033 136.894 45.504C137.129 45.5049 137.256 45.6227 137.277 45.8575C137.319 46.071 137.339 46.263 137.339 46.4337C137.337 46.903 137.207 47.3399 136.95 47.7442C136.713 48.1486 136.403 48.4995 136.017 48.7966C135.632 49.0725 135.205 49.2842 134.735 49.4317C134.286 49.6006 133.838 49.6842 133.39 49.6825C132.622 49.6796 131.994 49.4531 131.505 49.0033C131.016 48.5534 130.634 47.9759 130.359 47.2708C130.106 46.5445 129.928 45.7332 129.825 44.8367C129.721 43.9403 129.661 43.0441 129.643 42.148C129.625 41.252 129.628 40.3986 129.653 39.588C129.699 38.7775 129.723 38.095 129.725 37.5403C129.728 36.815 129.708 36.3242 129.666 36.0681C129.646 35.812 129.487 35.6834 129.188 35.6822C129.081 35.6818 128.964 35.6707 128.836 35.6489C128.729 35.6271 128.623 35.5627 128.517 35.4556C128.432 35.3486 128.358 35.199 128.295 35.0068C128.231 34.7932 128.2 34.5051 128.202 34.1424C128.203 33.8011 128.236 33.5452 128.301 33.3748C128.366 33.183 128.451 33.0554 128.558 32.9918C128.687 32.9069 128.815 32.8648 128.943 32.8653C129.071 32.8444 129.199 32.8342 129.327 32.8347C129.668 32.8361 129.861 32.7621 129.904 32.613C129.968 32.4425 130.002 32.0907 130.004 31.5573C130.004 31.472 130.005 31.3547 130.005 31.2053C130.006 31.056 129.996 30.9066 129.975 30.7572C129.976 30.5866 129.976 30.4266 129.977 30.2772C129.977 30.1066 129.978 29.9786 129.978 29.8932C129.979 29.6372 130.055 29.4135 130.205 29.2221C130.376 29.0094 130.58 28.8395 130.815 28.7124C131.071 28.5854 131.338 28.4905 131.616 28.4275C131.915 28.3647 132.192 28.3337 132.448 28.3347ZM144.549 49.5655C143.909 49.5631 143.355 49.4116 142.887 49.1111C142.44 48.8107 142.058 48.4146 141.74 47.9227C141.422 47.4308 141.168 46.8751 140.978 46.2557C140.81 45.6364 140.674 45.0065 140.569 44.3661C140.486 43.7258 140.425 43.1069 140.384 42.5094C140.365 41.912 140.357 41.3893 140.359 40.9413L140.364 39.6293L140.311 36.6211L140.316 35.3091C140.317 35.0318 140.318 34.7544 140.319 34.4771C140.321 34.1784 140.364 33.9119 140.451 33.6776C140.537 33.4433 140.676 33.2518 140.869 33.1032C141.083 32.9547 141.392 32.8812 141.798 32.8828C142.267 32.8846 142.608 32.9819 142.82 33.1747C143.054 33.3676 143.213 33.6136 143.298 33.9126C143.403 34.2117 143.455 34.5425 143.454 34.9052C143.452 35.2465 143.451 35.5772 143.45 35.8972C143.449 36.1532 143.448 36.4625 143.446 36.8252C143.466 37.1879 143.476 37.5613 143.474 37.9453C143.494 38.308 143.503 38.6707 143.502 39.0334C143.501 39.3961 143.499 39.7054 143.498 39.9614C143.497 40.2387 143.474 40.612 143.43 41.0811C143.407 41.5504 143.394 42.0623 143.392 42.617C143.39 43.0437 143.41 43.4704 143.451 43.8972C143.492 44.3027 143.565 44.6764 143.671 45.0181C143.798 45.3386 143.967 45.6059 144.18 45.8201C144.414 46.013 144.701 46.1101 145.043 46.1114C145.64 46.1137 146.121 45.9022 146.485 45.4769C146.871 45.0304 147.171 44.5089 147.387 43.9124C147.603 43.2946 147.744 42.6658 147.81 42.026C147.898 41.3864 147.943 40.8532 147.945 40.4265C147.946 39.9572 147.938 39.4558 147.918 38.9224C147.92 38.3678 147.912 37.8344 147.893 37.3223C147.895 36.789 147.886 36.3089 147.866 35.8822C147.868 35.4342 147.869 35.0715 147.87 34.7942C147.871 34.5809 147.893 34.3676 147.937 34.1545C147.98 33.92 148.045 33.7175 148.131 33.5472C148.238 33.3556 148.378 33.2068 148.549 33.1008C148.741 32.9735 148.976 32.9105 149.254 32.9115C149.744 32.9134 150.117 32.9895 150.373 33.1398C150.628 33.2688 150.809 33.4508 150.915 33.6859C151.02 33.8997 151.073 34.1559 151.072 34.4545C151.071 34.7319 151.069 35.0305 151.068 35.3505C151.066 35.9905 151.073 36.8119 151.091 37.8146C151.108 38.796 151.126 39.8094 151.143 40.8549C151.16 41.9003 151.178 42.903 151.195 43.8631C151.213 44.8232 151.221 45.6019 151.218 46.1992C151.216 46.7539 151.203 47.4471 151.178 48.279C151.175 49.111 151.129 49.9855 151.04 50.9025C150.973 51.8196 150.831 52.7257 150.614 53.6209C150.418 54.5375 150.127 55.3577 149.74 56.0816C149.375 56.8268 148.892 57.4223 148.293 57.868C147.716 58.3351 146.989 58.567 146.115 58.5636C145.411 58.5609 144.782 58.4091 144.228 58.1083C143.675 57.8075 143.207 57.4111 142.825 56.9189C142.443 56.4268 142.146 55.8603 141.936 55.2195C141.746 54.6001 141.652 53.9597 141.655 53.2984C141.656 53.1064 141.667 52.8931 141.689 52.6585C141.712 52.4453 141.755 52.2428 141.82 52.051C141.906 51.8807 142.024 51.7318 142.173 51.6044C142.323 51.477 142.526 51.4137 142.782 51.4147C143.081 51.4159 143.39 51.4811 143.709 51.6103C144.029 51.7395 144.188 52.0175 144.186 52.4441C144.185 52.7001 144.195 53.0095 144.215 53.3723C144.256 53.7564 144.34 54.1194 144.466 54.4612C144.593 54.8244 144.773 55.1238 145.007 55.3593C145.262 55.6163 145.614 55.7457 146.062 55.7474C146.574 55.7494 146.969 55.4416 147.249 54.824C147.55 54.2278 147.766 53.5246 147.897 52.7144C148.05 51.9044 148.138 51.1047 148.162 50.3154C148.208 49.5263 148.232 48.9504 148.233 48.5877C148.234 48.4384 148.213 48.257 148.171 48.0435C148.151 47.83 148.034 47.7229 147.82 47.7221C147.65 47.7214 147.489 47.8168 147.339 48.0083C147.189 48.1997 146.996 48.4123 146.761 48.646C146.547 48.8799 146.258 49.0921 145.894 49.2827C145.552 49.4734 145.104 49.5677 144.549 49.5655ZM173.297 28.8441C174.193 28.8476 174.96 29.0212 175.599 29.365C176.237 29.7088 176.758 30.1375 177.162 30.651C177.586 31.1433 177.894 31.6885 178.083 32.2866C178.273 32.8633 178.367 33.397 178.365 33.8877C178.364 34.3144 178.288 34.6767 178.137 34.9748C177.987 35.2516 177.762 35.3894 177.463 35.3882C177.015 35.3865 176.674 35.2999 176.44 35.1283C176.228 34.9568 176.069 34.7535 175.963 34.5184C175.857 34.262 175.762 33.9843 175.678 33.6853C175.615 33.3864 175.51 33.1194 175.361 32.8841C175.213 32.6275 175 32.4134 174.724 32.2416C174.447 32.0699 174.031 31.983 173.477 31.9808C172.218 31.976 171.223 32.6122 170.493 33.8894C169.784 35.1666 169.425 37.0746 169.415 39.6133C169.407 41.8106 169.741 43.5612 170.419 44.8652C171.118 46.1479 172.107 46.7917 173.387 46.7966C174.283 46.8001 174.935 46.6212 175.342 46.2601C175.77 45.8778 176.081 45.463 176.274 45.0157C176.489 44.5472 176.662 44.1319 176.791 43.7697C176.942 43.3863 177.199 43.1953 177.561 43.1967C178.052 43.1986 178.403 43.3386 178.616 43.6167C178.849 43.895 178.965 44.2474 178.964 44.6741C178.962 45.1647 178.821 45.7189 178.541 46.3365C178.262 46.9327 177.865 47.4965 177.351 48.0279C176.858 48.5593 176.248 49.005 175.522 49.3649C174.816 49.7248 174.026 49.9031 173.151 49.8997C171.957 49.8951 170.881 49.635 169.922 49.1193C168.986 48.6037 168.189 47.8753 167.531 46.934C166.895 45.9929 166.397 44.871 166.04 43.5683C165.704 42.2656 165.538 40.8143 165.545 39.2143C165.551 37.6143 165.738 36.1751 166.105 34.8965C166.473 33.6179 166.989 32.5319 167.654 31.6384C168.319 30.745 169.132 30.0548 170.094 29.5678C171.056 29.0808 172.123 28.8396 173.297 28.8441ZM181.924 41.4215C181.929 40.1415 182.072 38.9793 182.354 37.9351C182.656 36.8909 183.065 35.9965 183.58 35.2518C184.116 34.5072 184.748 33.9336 185.475 33.5311C186.202 33.1285 187.013 32.929 187.909 32.9325C188.805 32.9359 189.615 33.1417 190.339 33.5498C191.084 33.958 191.721 34.5365 192.252 35.2852C192.804 36.0127 193.227 36.889 193.522 37.9141C193.817 38.9393 193.962 40.0598 193.957 41.2758C193.952 42.5131 193.788 43.6539 193.464 44.6979C193.161 45.7421 192.731 46.6471 192.173 47.413C191.616 48.1575 190.952 48.7416 190.182 49.1653C189.413 49.589 188.58 49.7992 187.684 49.7957C186.831 49.7924 186.042 49.5867 185.318 49.1786C184.616 48.7706 184.01 48.2029 183.501 47.4756C182.992 46.7483 182.6 45.8721 182.327 44.847C182.054 43.8006 181.919 42.6588 181.924 41.4215ZM185.189 41.242C185.183 42.906 185.401 44.2295 185.846 45.2126C186.311 46.1957 186.928 46.6888 187.696 46.6917C188.123 46.6934 188.507 46.5562 188.85 46.2802C189.213 45.9829 189.535 45.5895 189.814 45.0999C190.093 44.589 190.309 43.9925 190.461 43.3104C190.613 42.6283 190.69 41.9032 190.693 41.1352C190.696 40.3673 190.624 39.663 190.478 39.0224C190.331 38.3605 190.12 37.7943 189.844 37.3239C189.59 36.8323 189.282 36.4471 188.921 36.1684C188.58 35.8897 188.207 35.7496 187.802 35.7481C187.013 35.745 186.382 36.2439 185.908 37.2448C185.435 38.2243 185.195 39.5567 185.189 41.242ZM199.019 49.5514C198.613 49.5498 198.294 49.4953 198.059 49.3877C197.825 49.2588 197.645 49.0981 197.517 48.9056C197.411 48.6919 197.338 48.4569 197.296 48.2007C197.276 47.9233 197.266 47.646 197.267 47.3686C197.268 47.0273 197.27 46.526 197.273 45.8646C197.276 45.2033 197.268 44.4779 197.249 43.6885C197.252 42.8992 197.245 42.0778 197.227 41.2244C197.23 40.3711 197.223 39.5817 197.204 38.8563C197.207 38.1097 197.209 37.459 197.212 36.9043C197.214 36.3497 197.215 35.9763 197.216 35.7843C197.217 35.5497 197.218 35.283 197.219 34.9843C197.22 34.6643 197.264 34.3658 197.35 34.0888C197.437 33.7905 197.587 33.5458 197.801 33.3546C198.037 33.1635 198.368 33.0688 198.794 33.0704C199.114 33.0716 199.359 33.1579 199.529 33.3292C199.699 33.4792 199.827 33.6504 199.911 33.8427C200.017 34.0138 200.102 34.1848 200.165 34.3557C200.25 34.5054 200.356 34.5804 200.484 34.5809C200.591 34.5813 200.709 34.4965 200.837 34.3263C200.987 34.1562 201.17 33.9649 201.384 33.7524C201.619 33.54 201.908 33.3491 202.25 33.1797C202.613 33.0104 203.051 32.9268 203.563 32.9288C204.096 32.9308 204.544 33.0286 204.906 33.222C205.268 33.4153 205.566 33.6298 205.799 33.8654C206.054 34.0797 206.267 34.2832 206.437 34.4759C206.628 34.6686 206.82 34.7653 207.012 34.7661C207.204 34.7668 207.407 34.6716 207.621 34.4804C207.835 34.2892 208.092 34.0876 208.391 33.8754C208.712 33.642 209.076 33.43 209.482 33.2396C209.888 33.0491 210.379 32.955 210.955 32.9573C211.957 32.9611 212.724 33.2307 213.256 33.7661C213.808 34.2803 214.211 34.9538 214.464 35.7868C214.717 36.6198 214.862 37.559 214.901 38.6045C214.961 39.6501 214.989 40.6955 214.985 41.7409L214.98 42.9248L215.002 45.5489L214.998 46.7329C214.997 47.0103 214.996 47.3196 214.994 47.6609C214.993 48.0023 214.949 48.3221 214.862 48.6204C214.776 48.8974 214.626 49.1315 214.412 49.3227C214.219 49.514 213.92 49.6088 213.515 49.6072C213.045 49.6054 212.694 49.5081 212.46 49.3152C212.247 49.101 212.088 48.8444 211.983 48.5453C211.899 48.225 211.857 47.8835 211.859 47.5208C211.86 47.1582 211.861 46.8169 211.863 46.4969C211.864 46.1769 211.855 45.8142 211.835 45.4087C211.836 44.9821 211.838 44.5554 211.84 44.1287C211.842 43.6808 211.843 43.2541 211.845 42.8488C211.846 42.4221 211.848 42.0488 211.849 41.7288C211.853 40.7688 211.845 39.9474 211.827 39.2647C211.808 38.5819 211.735 38.027 211.609 37.5998C211.483 37.1727 211.292 36.8626 211.037 36.6696C210.803 36.4767 210.462 36.3794 210.014 36.3777C209.48 36.3756 209.063 36.6087 208.763 37.0768C208.484 37.5238 208.279 38.0563 208.149 38.6745C208.04 39.2714 207.973 39.8898 207.95 40.5297C207.947 41.1484 207.945 41.6391 207.944 42.0017L207.939 43.1857L207.865 45.8094L207.861 46.9934C207.86 47.2708 207.858 47.5694 207.857 47.8894C207.856 48.1881 207.812 48.4653 207.726 48.7209C207.64 48.9766 207.49 49.1894 207.276 49.3592C207.083 49.5078 206.784 49.5813 206.379 49.5797C205.909 49.5779 205.558 49.4593 205.324 49.2237C205.112 48.9882 204.953 48.6996 204.847 48.3578C204.763 47.9948 204.722 47.6214 204.724 47.2374C204.725 46.832 204.727 46.4694 204.728 46.1494C204.729 45.8294 204.731 45.4774 204.732 45.0934C204.733 44.7094 204.735 44.3254 204.736 43.9414C204.759 43.5361 204.772 43.1415 204.773 42.7575C204.796 42.3736 204.808 42.0216 204.809 41.7016C204.81 41.339 204.802 40.8589 204.783 40.2615C204.785 39.6642 204.734 39.0773 204.629 38.5009C204.525 37.9245 204.335 37.4224 204.059 36.9947C203.784 36.567 203.368 36.3521 202.814 36.3499C202.323 36.348 201.917 36.5278 201.596 36.8892C201.296 37.2507 201.059 37.6765 200.887 38.1665C200.714 38.6565 200.595 39.1681 200.529 39.7011C200.484 40.2343 200.461 40.6822 200.46 41.0449L200.434 47.5728C200.432 48.1915 200.366 48.6819 200.237 49.0441C200.107 49.3849 199.701 49.554 199.019 49.5514ZM218.669 36.027C218.67 35.7923 218.671 35.515 218.672 35.195C218.674 34.8537 218.707 34.5445 218.772 34.2674C218.859 33.9691 218.998 33.7243 219.191 33.533C219.384 33.3204 219.661 33.2148 220.024 33.2162C220.472 33.2179 220.77 33.2937 220.919 33.4437C221.089 33.5936 221.206 33.7648 221.269 33.957C221.333 34.1279 221.396 34.2882 221.459 34.4377C221.523 34.5873 221.683 34.6626 221.939 34.6636C222.131 34.6643 222.312 34.5797 222.484 34.4097C222.676 34.2398 222.901 34.0486 223.158 33.8363C223.415 33.6239 223.725 33.4331 224.088 33.2639C224.451 33.0946 224.91 33.011 225.465 33.0132C226.425 33.0169 227.224 33.2653 227.862 33.7584C228.522 34.2303 229.042 34.8723 229.423 35.6844C229.804 36.4752 230.077 37.383 230.244 38.4076C230.411 39.4109 230.492 40.4459 230.488 41.5126C230.484 42.5792 230.384 43.6135 230.188 44.6155C230.014 45.6175 229.712 46.5123 229.282 47.3C228.874 48.0664 228.327 48.683 227.643 49.1497C226.958 49.6164 226.115 49.8478 225.112 49.8439C224.643 49.8421 224.238 49.7766 223.897 49.6472C223.577 49.4967 223.29 49.3356 223.035 49.1639C222.801 48.971 222.599 48.8102 222.429 48.6816C222.258 48.5316 222.109 48.4564 221.981 48.4559C221.875 48.4554 221.8 48.5192 221.757 48.647C221.714 48.7535 221.692 48.8814 221.691 49.0307C221.691 49.1801 221.69 49.3294 221.689 49.4787C221.71 49.6068 221.721 49.7029 221.72 49.7669C221.719 50.0229 221.718 50.3642 221.716 50.7909C221.715 51.2175 221.713 51.6548 221.711 52.1028C221.731 52.5509 221.74 52.9776 221.738 53.383C221.737 53.8096 221.735 54.1616 221.734 54.439C221.733 54.7376 221.722 55.0042 221.699 55.2388C221.698 55.4948 221.655 55.7187 221.569 55.9103C221.483 56.102 221.333 56.2507 221.119 56.3566C220.905 56.4624 220.585 56.5145 220.158 56.5129C219.732 56.5112 219.37 56.3712 219.072 56.0927C218.774 55.8142 218.627 55.291 218.63 54.523C218.635 53.1363 218.641 51.7283 218.646 50.299C218.652 48.891 218.657 47.5257 218.662 46.2031C218.667 44.8591 218.661 43.6004 218.645 42.427C218.649 41.2323 218.653 40.187 218.657 39.291C218.66 38.3737 218.663 37.627 218.665 37.051C218.668 36.475 218.669 36.1337 218.669 36.027ZM221.72 41.6708C221.718 42.1188 221.769 42.6203 221.874 43.1754C221.978 43.7091 222.147 44.2218 222.38 44.7134C222.613 45.1836 222.91 45.5901 223.271 45.9328C223.654 46.2543 224.123 46.4161 224.677 46.4182C225.616 46.4218 226.268 45.987 226.634 45.1138C227 44.2405 227.186 43.0145 227.192 41.4359C227.194 41.0732 227.164 40.5931 227.102 39.9955C227.062 39.398 226.957 38.8216 226.789 38.2663C226.642 37.7111 226.419 37.2302 226.122 36.8237C225.846 36.4173 225.485 36.2133 225.037 36.2115C224.461 36.2093 223.969 36.3781 223.563 36.7179C223.156 37.0363 222.813 37.451 222.534 37.9619C222.276 38.4516 222.082 38.9842 221.952 39.5597C221.822 40.1138 221.756 40.6256 221.754 41.0949L221.72 41.6708ZM233.997 36.3101C234.001 35.1154 233.995 33.942 233.978 32.79C233.983 31.6166 233.998 30.4327 234.024 29.2381C234.025 28.8968 234.037 28.5555 234.06 28.2142C234.083 27.873 234.148 27.5746 234.255 27.319C234.363 27.0421 234.535 26.8187 234.77 26.649C235.005 26.4792 235.358 26.3952 235.827 26.397C236.126 26.3982 236.36 26.4738 236.53 26.6238C236.7 26.7737 236.828 26.9662 236.912 27.2012C236.996 27.4149 237.049 27.6498 237.069 27.9058C237.09 28.1619 237.099 28.4073 237.098 28.642L237.082 32.8019L237.019 41.0577L237.003 45.2177C237 45.815 237.041 46.2205 237.126 46.4342C237.21 46.6479 237.306 46.8189 237.412 46.9473C237.539 47.0545 237.646 47.1829 237.73 47.3325C237.815 47.4609 237.857 47.7384 237.855 48.165C237.854 48.485 237.789 48.8261 237.659 49.1883C237.53 49.5291 237.263 49.6987 236.857 49.6972C235.748 49.6929 234.981 49.3913 234.557 48.7923C234.154 48.1934 233.954 47.3926 233.958 46.39L233.997 36.3101ZM246.459 50.2462C245.414 50.2422 244.519 50.0147 243.774 49.5638C243.029 49.0916 242.424 48.492 241.957 47.7648C241.512 47.0378 241.184 46.2258 240.974 45.329C240.765 44.4109 240.661 43.5038 240.665 42.6078C240.67 41.2211 240.792 39.9416 241.032 38.7692C241.271 37.5968 241.627 36.5741 242.099 35.7013C242.572 34.8284 243.172 34.1481 243.899 33.6602C244.648 33.1724 245.513 32.9304 246.494 32.9342C247.305 32.9373 247.997 33.1533 248.572 33.5822C249.167 34.0112 249.667 34.5571 250.069 35.22C250.472 35.8615 250.768 36.5667 250.957 37.3354C251.146 38.0828 251.24 38.7872 251.237 39.4485C251.237 39.5552 251.236 39.7045 251.235 39.8965C251.235 40.0885 251.223 40.2378 251.202 40.3444C251.179 40.6003 250.986 40.8236 250.623 41.0142C250.26 41.1834 249.811 41.3417 249.277 41.489C248.765 41.6363 248.209 41.7942 247.611 41.9626C247.013 42.1096 246.458 42.2995 245.945 42.5321C245.432 42.7648 245.005 43.0512 244.662 43.3912C244.319 43.7312 244.147 44.1572 244.145 44.6692C244.144 44.9466 244.207 45.2348 244.334 45.534C244.461 45.8118 244.62 46.0684 244.811 46.3038C245.023 46.5393 245.268 46.7322 245.544 46.8826C245.821 47.0117 246.12 47.0769 246.44 47.0781C246.824 47.0796 247.123 47.0061 247.337 46.8575C247.572 46.6878 247.765 46.4859 247.915 46.2518C248.086 46.0178 248.226 45.7623 248.334 45.4854C248.442 45.1871 248.549 44.9209 248.657 44.6866C248.786 44.4524 248.936 44.261 249.107 44.1123C249.3 43.9424 249.545 43.858 249.844 43.8592C250.313 43.861 250.665 44.0437 250.898 44.4072C251.153 44.7709 251.279 45.1661 251.277 45.5927C251.275 46.1474 251.135 46.6908 250.855 47.2231C250.597 47.7554 250.307 48.2343 249.986 48.6598C249.557 49.2128 249.033 49.6161 248.413 49.8697C247.793 50.1233 247.142 50.2488 246.459 50.2462ZM246.482 36.1662C246.247 36.1653 246.012 36.239 245.777 36.3875C245.563 36.536 245.36 36.7272 245.167 36.9611C244.995 37.1738 244.856 37.4186 244.748 37.6955C244.64 37.9724 244.586 38.2389 244.585 38.4949C244.583 38.9215 244.667 39.1885 244.838 39.2959C245.029 39.4033 245.274 39.4575 245.573 39.4587C245.765 39.4594 245.989 39.439 246.245 39.3973C246.523 39.3343 246.779 39.25 247.014 39.1442C247.271 39.0172 247.474 38.8687 247.624 38.6986C247.795 38.5072 247.882 38.2836 247.883 38.0276C247.883 37.8569 247.852 37.6648 247.789 37.4512C247.747 37.2377 247.662 37.0347 247.535 36.8422C247.429 36.6498 247.28 36.4892 247.089 36.3605C246.919 36.2319 246.716 36.1671 246.482 36.1662ZM258.446 28.8202C258.681 28.8211 258.808 28.9283 258.829 29.1417C258.871 29.3339 258.891 29.5153 258.891 29.6859L258.889 30.0699L258.822 30.8697L258.821 31.2537C258.819 31.6377 258.818 31.9683 258.817 32.2457C258.816 32.523 258.847 32.7471 258.91 32.918C258.974 33.0889 259.08 33.2174 259.229 33.3033C259.399 33.3679 259.644 33.4009 259.964 33.4021C260.263 33.4032 260.551 33.3937 260.829 33.3734C261.127 33.3319 261.394 33.3436 261.628 33.4085C261.863 33.4521 262.055 33.5595 262.203 33.7307C262.352 33.902 262.425 34.1903 262.424 34.5956C262.422 35.1502 262.314 35.5338 262.099 35.7463C261.885 35.9588 261.49 36.064 260.914 36.0618L259.378 36.0559C259.08 36.0547 258.908 36.406 258.862 37.1099C258.817 37.8137 258.792 38.7523 258.787 39.9256L258.784 40.7576L258.746 42.3895L258.743 43.2215C258.742 43.4988 258.74 43.8615 258.738 44.3095C258.758 44.7362 258.81 45.1631 258.893 45.5901C258.999 45.9958 259.157 46.3484 259.369 46.6479C259.603 46.9261 259.933 47.0661 260.36 47.0677C260.658 47.0689 260.925 47.0166 261.16 46.9108C261.396 46.7837 261.609 46.6565 261.802 46.5293C261.994 46.402 262.176 46.2854 262.347 46.1794C262.54 46.0521 262.721 45.9888 262.892 45.9895C263.127 45.9904 263.254 46.1082 263.275 46.3429C263.316 46.5564 263.337 46.7485 263.336 46.9192C263.335 47.3885 263.205 47.8254 262.947 48.2297C262.711 48.6341 262.4 48.9849 262.015 49.2821C261.63 49.558 261.203 49.7697 260.733 49.9172C260.284 50.0861 259.836 50.1697 259.388 50.168C258.62 50.165 257.991 49.9386 257.502 49.4887C257.014 49.0388 256.632 48.4614 256.357 47.7563C256.104 47.03 255.926 46.2186 255.822 45.3222C255.719 44.4258 255.659 43.5296 255.641 42.6335C255.623 41.7374 255.626 40.8841 255.651 40.0735C255.697 39.263 255.72 38.5804 255.723 38.0258C255.725 37.3005 255.706 36.8097 255.664 36.5536C255.644 36.2975 255.484 36.1689 255.186 36.1677C255.079 36.1673 254.962 36.1562 254.834 36.1343C254.727 36.1126 254.621 36.0482 254.515 35.9411C254.43 35.8341 254.356 35.6845 254.292 35.4923C254.229 35.2787 254.198 34.9906 254.2 34.6279C254.201 34.2866 254.234 34.0307 254.299 33.8603C254.363 33.6685 254.449 33.5408 254.556 33.4773C254.684 33.3924 254.813 33.3502 254.941 33.3507C255.069 33.3299 255.197 33.3197 255.325 33.3202C255.666 33.3215 255.858 33.2476 255.902 33.0984C255.966 32.928 256 32.5761 256.002 32.0428C256.002 31.9575 256.002 31.8402 256.003 31.6908C256.004 31.5415 255.994 31.3921 255.973 31.2427C255.973 31.072 255.974 30.912 255.975 30.7627C255.975 30.592 255.976 30.464 255.976 30.3787C255.977 30.1227 256.053 29.899 256.203 29.7076C256.374 29.4949 256.577 29.325 256.813 29.1979C257.069 29.0709 257.336 28.9759 257.614 28.913C257.913 28.8502 258.19 28.8192 258.446 28.8202ZM272.018 50.3447C270.973 50.3406 270.078 50.1132 269.333 49.6623C268.588 49.1901 267.982 48.5904 267.516 47.8633C267.07 47.1362 266.743 46.3243 266.533 45.4275C266.323 44.5093 266.22 43.6023 266.223 42.7063C266.229 41.3196 266.351 40.0401 266.59 38.8677C266.829 37.6952 267.185 36.6726 267.658 35.7998C268.131 34.9269 268.731 34.2465 269.458 33.7587C270.206 33.2709 271.071 33.0289 272.053 33.0327C272.863 33.0358 273.556 33.2518 274.13 33.6807C274.726 34.1096 275.225 34.6556 275.628 35.3185C276.031 35.96 276.327 36.6652 276.516 37.4339C276.705 38.1813 276.798 38.8857 276.796 39.547C276.795 39.6537 276.795 39.803 276.794 39.995C276.793 40.187 276.782 40.3363 276.76 40.4429C276.738 40.6988 276.545 40.922 276.182 41.1126C275.818 41.2819 275.37 41.4402 274.836 41.5875C274.323 41.7348 273.768 41.8927 273.17 42.061C272.572 42.2081 272.017 42.3979 271.504 42.6306C270.991 42.8633 270.563 43.1497 270.22 43.4897C269.878 43.8297 269.705 44.2557 269.703 44.7677C269.702 45.045 269.765 45.3333 269.892 45.6324C270.019 45.9103 270.178 46.1669 270.369 46.4023C270.582 46.6378 270.826 46.8307 271.103 46.9811C271.38 47.1102 271.678 47.1753 271.998 47.1766C272.382 47.178 272.681 47.1045 272.895 46.956C273.13 46.7863 273.323 46.5843 273.473 46.3502C273.645 46.1162 273.785 45.8608 273.892 45.5839C274 45.2856 274.108 45.0193 274.215 44.7851C274.344 44.5509 274.494 44.3595 274.666 44.2108C274.858 44.0409 275.104 43.9565 275.403 43.9577C275.872 43.9595 276.223 44.1422 276.457 44.5057C276.711 44.8694 276.838 45.2645 276.836 45.6912C276.834 46.2459 276.693 46.7893 276.414 47.3216C276.156 47.8539 275.866 48.3328 275.544 48.7582C275.115 49.3113 274.591 49.7146 273.971 49.9682C273.352 50.2218 272.701 50.3473 272.018 50.3447ZM272.04 36.2646C271.806 36.2637 271.571 36.3375 271.335 36.4859C271.122 36.6344 270.918 36.8257 270.725 37.0596C270.554 37.2723 270.414 37.5171 270.306 37.794C270.199 38.0709 270.144 38.3374 270.143 38.5934C270.142 39.02 270.226 39.287 270.396 39.3943C270.588 39.5017 270.833 39.556 271.132 39.5572C271.324 39.5579 271.548 39.5374 271.804 39.4958C272.081 39.4328 272.338 39.3485 272.573 39.2427C272.829 39.1157 273.033 38.9672 273.183 38.7971C273.354 38.6057 273.44 38.3821 273.441 38.1261C273.442 37.9554 273.411 37.7633 273.347 37.5497C273.305 37.3362 273.221 37.1332 273.094 36.9407C272.988 36.7483 272.839 36.5877 272.648 36.459C272.477 36.3303 272.275 36.2656 272.04 36.2646ZM292.108 43.67L292.097 46.454C292.096 46.8167 292.094 47.222 292.092 47.67C292.091 48.0967 292.057 48.5019 291.992 48.8856C291.926 49.2694 291.797 49.5889 291.604 49.8441C291.432 50.0995 291.165 50.2264 290.803 50.225C290.419 50.2236 290.131 50.1265 289.94 49.9337C289.748 49.741 289.6 49.5271 289.494 49.292C289.389 49.0356 289.304 48.8113 289.241 48.619C289.199 48.4268 289.125 48.3306 289.018 48.3302C288.911 48.3297 288.772 48.4252 288.601 48.6165C288.451 48.808 288.247 49.0312 287.99 49.2862C287.733 49.5199 287.423 49.732 287.06 49.9226C286.696 50.1132 286.259 50.2075 285.747 50.2056C283.869 50.1983 282.486 49.393 281.596 47.7896C280.727 46.1862 280.299 43.9765 280.309 41.1605C280.319 38.6219 280.753 36.6716 281.612 35.3095C282.471 33.9262 283.732 33.2377 285.396 33.2441C285.865 33.2459 286.27 33.3221 286.611 33.4728C286.973 33.6022 287.271 33.7526 287.505 33.9242C287.761 34.0959 287.973 34.2567 288.144 34.4067C288.314 34.5353 288.452 34.5999 288.559 34.6003C288.772 34.6011 288.882 33.8762 288.887 32.4255C288.888 32.0842 288.879 31.7428 288.859 31.4014C288.861 31.0387 288.862 30.7081 288.863 30.4094C288.864 30.0894 288.855 29.8121 288.834 29.5773C288.835 29.3426 288.836 29.1826 288.836 29.0973C288.837 28.82 288.838 28.532 288.839 28.2333C288.862 27.9347 288.916 27.6683 289.002 27.4339C289.11 27.1997 289.271 27.0083 289.485 26.8598C289.699 26.6899 290.008 26.6058 290.414 26.6074C290.883 26.6092 291.224 26.6852 291.437 26.8353C291.671 26.9642 291.82 27.1461 291.883 27.381C291.967 27.616 292.009 27.8935 292.007 28.2135C292.006 28.5122 292.016 28.8322 292.036 29.1736C292.074 30.2618 292.081 31.3392 292.055 32.4057C292.051 33.4724 292.058 34.5498 292.075 35.6378L292.108 43.67ZM288.852 41.4495C288.854 41.0228 288.813 40.532 288.73 39.977C288.647 39.4007 288.5 38.8561 288.288 38.3433C288.077 37.8304 287.791 37.4027 287.429 37.0599C287.068 36.6959 286.61 36.5128 286.055 36.5106C285.522 36.5086 285.084 36.6989 284.741 37.0816C284.42 37.443 284.162 37.89 283.968 38.4226C283.774 38.9339 283.633 39.4773 283.546 40.053C283.48 40.6074 283.446 41.0766 283.444 41.4606C283.443 41.802 283.473 42.2927 283.535 42.933C283.596 43.5519 283.711 44.171 283.879 44.7903C284.048 45.3883 284.28 45.9225 284.577 46.393C284.896 46.8423 285.3 47.0678 285.791 47.0697C286.345 47.0718 286.805 46.8923 287.169 46.531C287.554 46.1485 287.865 45.7017 288.102 45.1906C288.36 44.6583 288.544 44.1043 288.652 43.5287C288.761 42.9318 288.817 42.42 288.818 41.9933L288.852 41.4495Z" fill="#534100"/>
<circle cx="41.9727" cy="40" r="10" fill="white"/>
<path d="M41.7072 46.5096L41.7076 46.5096C43.5036 46.5074 45.2255 45.7929 46.4956 44.5229C47.7656 43.2529 48.48 41.531 48.4822 39.7349L48.4822 39.7345C48.4822 38.3946 48.0849 37.0847 47.3404 35.9705C46.596 34.8564 45.5379 33.988 44.2999 33.4752C43.0619 32.9624 41.6997 32.8283 40.3855 33.0897C39.0712 33.3511 37.864 33.9964 36.9165 34.9439C35.969 35.8914 35.3238 37.0986 35.0623 38.4128C34.8009 39.727 34.9351 41.0893 35.4479 42.3272C35.9607 43.5652 36.829 44.6233 37.9432 45.3678C39.0573 46.1122 40.3672 46.5096 41.7072 46.5096ZM41.2728 42.2045L41.2728 42.2046C41.1926 42.2781 41.0872 42.3178 40.9785 42.3154C40.8697 42.3131 40.7661 42.2688 40.6892 42.1919L40.6892 42.1919L38.5302 40.0329C38.4511 39.9537 38.4066 39.8463 38.4067 39.7344C38.4067 39.6224 38.4512 39.5151 38.5304 39.436C38.6096 39.3568 38.717 39.3124 38.8289 39.3125C38.9409 39.3125 39.0482 39.357 39.1273 39.4362L39.1274 39.4363L40.7993 41.1081L41.0009 41.3097L41.211 41.1171L45.021 37.6244C45.021 37.6244 45.0211 37.6244 45.0211 37.6244C45.1035 37.5489 45.2126 37.5092 45.3242 37.514C45.4359 37.5189 45.5411 37.5678 45.6167 37.6501C45.6541 37.6909 45.6832 37.7387 45.7022 37.7908C45.7212 37.8428 45.7297 37.8981 45.7273 37.9535C45.7249 38.0089 45.7116 38.0632 45.6882 38.1134C45.6649 38.1637 45.6318 38.2088 45.591 38.2462C45.591 38.2462 45.591 38.2462 45.5909 38.2463L41.2728 42.2045ZM37.4744 33.3996C38.7272 32.5625 40.2002 32.1157 41.707 32.1156C43.727 32.1181 45.6635 32.9216 47.0918 34.3499C48.5202 35.7783 49.3237 37.7149 49.3261 39.7349C49.326 41.2416 48.8792 42.7145 48.0421 43.9674C47.2049 45.2203 46.015 46.1968 44.6228 46.7735C43.2307 47.3501 41.6987 47.501 40.2208 47.207C38.7429 46.9131 37.3853 46.1874 36.3198 45.1219C35.2543 44.0564 34.5287 42.6988 34.2347 41.2209C33.9407 39.743 34.0916 38.2111 34.6682 36.8189C35.2449 35.4267 36.2214 34.2368 37.4744 33.3996Z" fill="#7E9800" stroke="#7E9800" stroke-width="0.595521"/>
</g>
<defs>
<filter id="filter0_d_128_14886" x="0.823242" y="0.13916" width="326.035" height="90.9463" filterUnits="userSpaceOnUse" color-interpolation-filters="sRGB">
<feFlood flood-opacity="0" result="BackgroundImageFix"/>
<feColorMatrix in="SourceAlpha" type="matrix" values="0 0 0 0 0 0 0 0 0 0 0 0 0 0 0 0 0 0 127 0" result="hardAlpha"/>
<feOffset dy="4"/>
<feGaussianBlur stdDeviation="2"/>
<feComposite in2="hardAlpha" operator="out"/>
<feColorMatrix type="matrix" values="0 0 0 0 0 0 0 0 0 0 0 0 0 0 0 0 0 0 0.25 0"/>
<feBlend mode="normal" in2="BackgroundImageFix" result="effect1_dropShadow_128_14886"/>
<feBlend mode="normal" in="SourceGraphic" in2="effect1_dropShadow_128_14886" result="shape"/>
</filter>
<filter id="filter1_d_128_14886" x="4.82324" y="0.13916" width="318.035" height="86.9463" filterUnits="userSpaceOnUse" color-interpolation-filters="sRGB">
<feFlood flood-opacity="0" result="BackgroundImageFix"/>
<feColorMatrix in="SourceAlpha" type="matrix" values="0 0 0 0 0 0 0 0 0 0 0 0 0 0 0 0 0 0 127 0" result="hardAlpha"/>
<feOffset dy="4"/>
<feComposite in2="hardAlpha" operator="out"/>
<feColorMatrix type="matrix" values="0 0 0 0 0.929167 0 0 0 0 0.72458 0 0 0 0 0 0 0 0 1 0"/>
<feBlend mode="normal" in2="BackgroundImageFix" result="effect1_dropShadow_128_14886"/>
<feBlend mode="normal" in="SourceGraphic" in2="effect1_dropShadow_128_14886" result="shape"/>
</filter>
<filter id="filter2_d_128_14886" x="8.84131" y="4.13477" width="310.022" height="72.9561" filterUnits="userSpaceOnUse" color-interpolation-filters="sRGB">
<feFlood flood-opacity="0" result="BackgroundImageFix"/>
<feColorMatrix in="SourceAlpha" type="matrix" values="0 0 0 0 0 0 0 0 0 0 0 0 0 0 0 0 0 0 127 0" result="hardAlpha"/>
<feOffset dy="4"/>
<feComposite in2="hardAlpha" operator="out"/>
<feColorMatrix type="matrix" values="0 0 0 0 0.929167 0 0 0 0 0.72458 0 0 0 0 0 0 0 0 1 0"/>
<feBlend mode="normal" in2="BackgroundImageFix" result="effect1_dropShadow_128_14886"/>
<feBlend mode="normal" in="SourceGraphic" in2="effect1_dropShadow_128_14886" result="shape"/>
</filter>
</defs>
</svg>
