<svg width="246" height="99" viewBox="0 0 246 99" fill="none" xmlns="http://www.w3.org/2000/svg">
<g filter="url(#filter0_d_154_22339)">
<rect x="20.7051" width="225" height="96" rx="14.1313" fill="white"/>
</g>
<path d="M37.079 79.848L0 82.0617C7.3789 79.1101 22.4687 71.5468 21.5833 64.9058L23.2435 72.6536L37.079 79.848Z" fill="white"/>
<g filter="url(#filter1_d_154_22339)">
<rect x="26.7051" y="9" width="212" height="80" rx="14.1313" fill="#F6F6F6"/>
</g>
<path d="M100.978 23.0282C102.013 23.0282 102.819 23.2745 103.398 23.7672C103.977 24.2476 104.266 24.8572 104.266 25.5962C104.266 26.2367 103.959 26.5569 103.343 26.5569C103.146 26.5569 102.986 26.4646 102.862 26.2798C102.739 26.0827 102.61 25.8734 102.474 25.6517C102.351 25.4176 102.197 25.2083 102.013 25.0235C101.828 24.8264 101.569 24.7279 101.237 24.7279C100.769 24.7279 100.405 24.888 100.147 25.2083C99.8879 25.5162 99.7586 25.898 99.7586 26.3537C99.7586 26.6863 99.8818 26.9757 100.128 27.222C100.374 27.4684 100.682 27.7085 101.052 27.9426C101.421 28.1643 101.822 28.3983 102.253 28.6446C102.684 28.8786 103.084 29.1619 103.454 29.4945C103.823 29.827 104.131 30.2211 104.377 30.6769C104.624 31.1203 104.747 31.6622 104.747 32.3027C104.747 32.7337 104.642 33.1402 104.433 33.522C104.223 33.8915 103.94 34.2179 103.583 34.5012C103.238 34.7845 102.838 35.0062 102.382 35.1663C101.926 35.3264 101.446 35.4064 100.941 35.4064C100.424 35.4064 99.9618 35.3264 99.5554 35.1663C99.1489 35.0185 98.8041 34.8276 98.5208 34.5936C98.2498 34.3595 98.0404 34.107 97.8926 33.8361C97.7448 33.5651 97.6709 33.3126 97.6709 33.0786C97.6709 32.6106 97.7387 32.2903 97.8741 32.1179C98.0219 31.9332 98.219 31.8408 98.4653 31.8408C98.6255 31.8408 98.7856 31.9332 98.9457 32.1179C99.1181 32.3027 99.3029 32.512 99.4999 32.7461C99.7093 32.9678 99.931 33.171 100.165 33.3557C100.399 33.5405 100.658 33.6329 100.941 33.6329C101.483 33.6329 101.92 33.5097 102.253 33.2634C102.585 33.0047 102.752 32.6845 102.752 32.3027C102.752 31.9332 102.628 31.6129 102.382 31.342C102.136 31.0587 101.828 30.7939 101.458 30.5475C101.089 30.3012 100.689 30.061 100.257 29.827C99.8263 29.5807 99.426 29.3035 99.0565 28.9956C98.687 28.6877 98.3791 28.3367 98.1328 27.9426C97.8865 27.5361 97.7633 27.0496 97.7633 26.483C97.7633 25.9904 97.831 25.5346 97.9665 25.1159C98.1143 24.6848 98.3237 24.3153 98.5947 24.0074C98.8656 23.6995 99.1982 23.4593 99.5923 23.2869C99.9988 23.1144 100.461 23.0282 100.978 23.0282ZM107.403 33.8915C107.403 34.0639 107.403 34.2179 107.403 34.3534C107.403 34.4889 107.379 34.6059 107.329 34.7044C107.292 34.7906 107.225 34.8584 107.126 34.9076C107.028 34.9569 106.88 34.9815 106.683 34.9815C106.412 34.9815 106.202 34.9323 106.055 34.8337C105.907 34.7352 105.796 34.612 105.722 34.4642C105.66 34.3041 105.623 34.1317 105.611 33.9469C105.599 33.7622 105.586 33.5897 105.574 33.4296C105.574 33.3188 105.568 33.1032 105.556 32.783C105.556 32.4505 105.55 32.0686 105.537 31.6376C105.537 31.1942 105.537 30.7261 105.537 30.2335C105.537 29.7408 105.531 29.2789 105.519 28.8478C105.519 28.4044 105.519 28.0226 105.519 27.7024C105.519 27.3698 105.519 27.1481 105.519 27.0373C105.519 26.9018 105.519 26.7478 105.519 26.5754C105.519 26.3907 105.543 26.2182 105.593 26.0581C105.654 25.8857 105.747 25.744 105.87 25.6332C105.993 25.5223 106.178 25.4669 106.424 25.4669C106.67 25.4669 106.843 25.51 106.941 25.5962C107.04 25.6701 107.108 25.7625 107.145 25.8734C107.194 25.9719 107.231 26.0643 107.255 26.1505C107.28 26.2244 107.335 26.2613 107.422 26.2613C107.508 26.2613 107.606 26.2182 107.717 26.132C107.828 26.0335 107.964 25.9349 108.124 25.8364C108.284 25.7256 108.475 25.627 108.696 25.5408C108.93 25.4423 109.214 25.393 109.546 25.393C110.076 25.393 110.507 25.4977 110.84 25.7071C111.184 25.9165 111.449 26.2121 111.634 26.5939C111.831 26.9757 111.967 27.4376 112.04 27.9795C112.114 28.5091 112.151 29.1003 112.151 29.7531C112.151 30.2458 112.151 30.7631 112.151 31.305C112.151 31.8469 112.145 32.4135 112.133 33.0047C112.133 33.1648 112.133 33.3619 112.133 33.5959C112.133 33.8176 112.108 34.0331 112.059 34.2425C112.01 34.4519 111.923 34.6305 111.8 34.7783C111.689 34.9261 111.517 35 111.283 35C111.012 35 110.809 34.9138 110.673 34.7414C110.55 34.5566 110.458 34.3411 110.396 34.0947C110.347 33.8361 110.322 33.5713 110.322 33.3003C110.322 33.0293 110.322 32.8015 110.322 32.6167C110.31 32.2595 110.298 31.9024 110.285 31.5452C110.285 31.1757 110.285 30.8123 110.285 30.4552C110.285 30.2458 110.279 29.9686 110.267 29.6238C110.267 29.2666 110.23 28.9217 110.156 28.5892C110.094 28.2566 109.984 27.9733 109.823 27.7393C109.663 27.493 109.423 27.3698 109.103 27.3698C108.475 27.3698 108.031 27.6285 107.773 28.1458C107.526 28.6508 107.403 29.3467 107.403 30.2335V33.8915ZM112.784 32.8384C112.784 32.3211 112.883 31.8777 113.08 31.5082C113.289 31.1387 113.542 30.8185 113.838 30.5475C114.133 30.2766 114.46 30.0425 114.817 29.8455C115.174 29.6361 115.5 29.439 115.796 29.2543C116.091 29.0572 116.338 28.8663 116.535 28.6816C116.744 28.4845 116.849 28.2566 116.849 27.998C116.849 27.7516 116.763 27.5238 116.59 27.3144C116.418 27.105 116.209 27.0003 115.962 27.0003C115.704 27.0003 115.494 27.0742 115.334 27.222C115.174 27.3575 115.032 27.5176 114.909 27.7024C114.798 27.8748 114.687 28.0349 114.577 28.1827C114.466 28.3182 114.33 28.386 114.17 28.386C113.924 28.386 113.708 28.3059 113.523 28.1458C113.339 27.9857 113.246 27.7824 113.246 27.5361C113.246 27.2159 113.339 26.9264 113.523 26.6678C113.721 26.4091 113.967 26.1813 114.262 25.9842C114.558 25.7871 114.878 25.6393 115.223 25.5408C115.568 25.43 115.888 25.3745 116.184 25.3745C116.775 25.3745 117.237 25.4915 117.569 25.7256C117.914 25.9473 118.173 26.2429 118.345 26.6124C118.53 26.9819 118.647 27.4006 118.696 27.8687C118.746 28.3244 118.77 28.7924 118.77 29.2728V30.1965L118.733 31.9886V32.9123C118.733 33.134 118.74 33.3742 118.752 33.6329C118.764 33.8915 118.758 34.1317 118.733 34.3534C118.709 34.5628 118.647 34.7414 118.549 34.8892C118.45 35.0369 118.296 35.1108 118.087 35.1108C117.853 35.1108 117.674 35.0677 117.551 34.9815C117.428 34.8953 117.329 34.8029 117.255 34.7044C117.194 34.5936 117.145 34.495 117.108 34.4088C117.083 34.3226 117.034 34.2795 116.96 34.2795C116.886 34.2795 116.787 34.3226 116.664 34.4088C116.553 34.495 116.412 34.5936 116.239 34.7044C116.079 34.8153 115.888 34.9138 115.667 35C115.457 35.0862 115.223 35.1293 114.965 35.1293C114.632 35.1293 114.33 35.0677 114.059 34.9446C113.788 34.8091 113.554 34.6367 113.357 34.4273C113.172 34.2179 113.031 33.9777 112.932 33.7068C112.834 33.4235 112.784 33.134 112.784 32.8384ZM114.558 32.5059C114.558 32.8138 114.65 33.0417 114.835 33.1895C115.032 33.3249 115.272 33.3927 115.556 33.3927C115.839 33.3927 116.067 33.3373 116.239 33.2264C116.424 33.1032 116.566 32.9431 116.664 32.7461C116.775 32.549 116.849 32.3334 116.886 32.0994C116.935 31.8531 116.96 31.6129 116.96 31.3789C116.96 31.2065 116.929 31.0525 116.867 30.917C116.806 30.7815 116.67 30.7138 116.461 30.7138C116.276 30.7138 116.073 30.7692 115.851 30.8801C115.63 30.9909 115.42 31.1387 115.223 31.3235C115.038 31.4959 114.878 31.6868 114.743 31.8962C114.62 32.1056 114.558 32.3088 114.558 32.5059ZM122.968 25.2452C123.288 25.2452 123.596 25.3253 123.892 25.4854C124.2 25.6455 124.471 25.8549 124.705 26.1135C124.939 26.3599 125.13 26.637 125.277 26.9449C125.425 27.2528 125.499 27.5607 125.499 27.8687C125.499 28.115 125.425 28.3244 125.277 28.4968C125.13 28.6569 124.926 28.737 124.668 28.737C124.495 28.737 124.354 28.6446 124.243 28.4599C124.144 28.2751 124.04 28.0719 123.929 27.8502C123.818 27.6285 123.689 27.4253 123.541 27.2405C123.405 27.0558 123.214 26.9634 122.968 26.9634C122.746 26.9634 122.537 27.0496 122.34 27.222C122.143 27.3945 121.97 27.6346 121.823 27.9426C121.675 28.2505 121.558 28.6138 121.472 29.0326C121.398 29.4513 121.361 29.9071 121.361 30.3997C121.361 30.8924 121.379 31.342 121.416 31.7484C121.465 32.1549 121.546 32.5059 121.656 32.8015C121.767 33.0848 121.915 33.3065 122.1 33.4666C122.285 33.6267 122.519 33.7068 122.802 33.7068C123.134 33.7068 123.399 33.5836 123.596 33.3373C123.806 33.0909 123.978 32.82 124.114 32.5244C124.261 32.2288 124.391 31.9578 124.502 31.7115C124.625 31.4651 124.766 31.342 124.926 31.342C125.518 31.342 125.813 31.5944 125.813 32.0994C125.813 32.4689 125.727 32.8446 125.555 33.2264C125.382 33.5959 125.154 33.9346 124.871 34.2425C124.6 34.5381 124.28 34.7845 123.91 34.9815C123.553 35.1663 123.184 35.2586 122.802 35.2586C121.619 35.2586 120.776 34.8337 120.271 33.9839C119.766 33.134 119.513 31.927 119.513 30.3628C119.513 29.5745 119.587 28.8663 119.735 28.2382C119.883 27.61 120.098 27.0742 120.382 26.6308C120.677 26.1874 121.041 25.8487 121.472 25.6147C121.903 25.3684 122.402 25.2452 122.968 25.2452ZM126.648 27.2775C126.648 27.0311 126.648 26.7355 126.648 26.3907C126.648 26.0335 126.648 25.6701 126.648 25.3006C126.66 24.9311 126.667 24.5678 126.667 24.2106C126.679 23.8534 126.685 23.5578 126.685 23.3238C126.685 23.1391 126.685 22.9482 126.685 22.7511C126.685 22.5417 126.71 22.3508 126.759 22.1784C126.808 21.9936 126.901 21.8458 127.036 21.735C127.172 21.6118 127.381 21.5502 127.664 21.5502C127.923 21.5502 128.108 21.6056 128.218 21.7165C128.342 21.815 128.422 21.9443 128.459 22.1045C128.508 22.2523 128.526 22.4185 128.514 22.6033C128.514 22.788 128.514 22.9605 128.514 23.1206V26.2983C128.514 26.8525 128.533 27.2959 128.569 27.6285C128.606 27.9487 128.686 28.1088 128.81 28.1088C128.982 28.1088 129.185 27.9672 129.419 27.6839C129.666 27.3883 129.918 27.0681 130.177 26.7232C130.435 26.3783 130.688 26.0643 130.934 25.781C131.193 25.4854 131.421 25.3376 131.618 25.3376C131.889 25.3376 132.111 25.4053 132.283 25.5408C132.468 25.664 132.56 25.7995 132.56 25.9473C132.56 26.1443 132.449 26.4214 132.228 26.7786C132.006 27.1235 131.759 27.4868 131.489 27.8687C131.23 28.2382 130.99 28.5953 130.768 28.9402C130.546 29.2851 130.435 29.5499 130.435 29.7346C130.435 29.8332 130.497 29.9994 130.62 30.2335C130.743 30.4552 130.891 30.7138 131.064 31.0094C131.248 31.305 131.445 31.6252 131.655 31.9701C131.864 32.3027 132.055 32.6229 132.228 32.9308C132.412 33.2387 132.566 33.522 132.689 33.7807C132.813 34.0393 132.874 34.2425 132.874 34.3903C132.874 34.6736 132.794 34.8584 132.634 34.9446C132.474 35.0308 132.32 35.0739 132.172 35.0739C131.926 35.0739 131.686 34.9815 131.452 34.7968C131.23 34.5997 131.014 34.3534 130.805 34.0578C130.596 33.7622 130.398 33.4481 130.214 33.1156C130.029 32.783 129.85 32.4689 129.678 32.1733C129.518 31.8777 129.37 31.6376 129.235 31.4528C129.099 31.2557 128.976 31.1572 128.865 31.1572C128.779 31.1572 128.711 31.2065 128.662 31.305C128.625 31.3912 128.594 31.4959 128.569 31.6191C128.557 31.7422 128.551 31.8593 128.551 31.9701C128.551 32.0686 128.551 32.1364 128.551 32.1733C128.551 32.4936 128.557 32.7707 128.569 33.0047C128.594 33.2387 128.606 33.5158 128.606 33.8361C128.606 33.9839 128.6 34.1317 128.588 34.2795C128.576 34.415 128.539 34.5381 128.477 34.649C128.416 34.7598 128.323 34.846 128.2 34.9076C128.077 34.9692 127.898 35 127.664 35C127.406 35 127.215 34.9199 127.091 34.7598C126.968 34.5997 126.882 34.4026 126.833 34.1686C126.784 33.9346 126.753 33.6944 126.74 33.4481C126.74 33.2018 126.74 32.9862 126.74 32.8015C126.728 32.4812 126.716 32.0748 126.703 31.5821C126.703 31.0771 126.697 30.566 126.685 30.0487C126.673 29.5191 126.66 29.0079 126.648 28.5153C126.648 28.0103 126.648 27.5977 126.648 27.2775ZM141.951 23.0282C142.986 23.0282 143.793 23.2745 144.371 23.7672C144.95 24.2476 145.24 24.8572 145.24 25.5962C145.24 26.2367 144.932 26.5569 144.316 26.5569C144.119 26.5569 143.959 26.4646 143.836 26.2798C143.713 26.0827 143.583 25.8734 143.448 25.6517C143.325 25.4176 143.171 25.2083 142.986 25.0235C142.801 24.8264 142.542 24.7279 142.21 24.7279C141.742 24.7279 141.379 24.888 141.12 25.2083C140.861 25.5162 140.732 25.898 140.732 26.3537C140.732 26.6863 140.855 26.9757 141.101 27.222C141.348 27.4684 141.656 27.7085 142.025 27.9426C142.395 28.1643 142.795 28.3983 143.226 28.6446C143.657 28.8786 144.057 29.1619 144.427 29.4945C144.796 29.827 145.104 30.2211 145.351 30.6769C145.597 31.1203 145.72 31.6622 145.72 32.3027C145.72 32.7337 145.615 33.1402 145.406 33.522C145.197 33.8915 144.913 34.2179 144.556 34.5012C144.211 34.7845 143.811 35.0062 143.355 35.1663C142.9 35.3264 142.419 35.4064 141.914 35.4064C141.397 35.4064 140.935 35.3264 140.529 35.1663C140.122 35.0185 139.777 34.8276 139.494 34.5936C139.223 34.3595 139.014 34.107 138.866 33.8361C138.718 33.5651 138.644 33.3126 138.644 33.0786C138.644 32.6106 138.712 32.2903 138.847 32.1179C138.995 31.9332 139.192 31.8408 139.439 31.8408C139.599 31.8408 139.759 31.9332 139.919 32.1179C140.091 32.3027 140.276 32.512 140.473 32.7461C140.683 32.9678 140.904 33.171 141.138 33.3557C141.372 33.5405 141.631 33.6329 141.914 33.6329C142.456 33.6329 142.893 33.5097 143.226 33.2634C143.559 33.0047 143.725 32.6845 143.725 32.3027C143.725 31.9332 143.602 31.6129 143.355 31.342C143.109 31.0587 142.801 30.7939 142.432 30.5475C142.062 30.3012 141.662 30.061 141.231 29.827C140.8 29.5807 140.399 29.3035 140.03 28.9956C139.66 28.6877 139.352 28.3367 139.106 27.9426C138.86 27.5361 138.737 27.0496 138.737 26.483C138.737 25.9904 138.804 25.5346 138.94 25.1159C139.088 24.6848 139.297 24.3153 139.568 24.0074C139.839 23.6995 140.172 23.4593 140.566 23.2869C140.972 23.1144 141.434 23.0282 141.951 23.0282ZM149.965 27.3698C149.584 27.3698 149.282 27.493 149.06 27.7393C148.851 27.9857 148.691 28.2874 148.58 28.6446C148.469 28.9895 148.401 29.3528 148.377 29.7346C148.352 30.1164 148.34 30.4428 148.34 30.7138L148.377 32.0994V32.7645C148.377 32.9616 148.383 33.1895 148.395 33.4481C148.407 33.7068 148.389 33.9531 148.34 34.1871C148.29 34.4088 148.198 34.5997 148.062 34.7598C147.927 34.9076 147.711 34.9815 147.416 34.9815C147.169 34.9815 146.985 34.8892 146.862 34.7044C146.738 34.5073 146.652 34.2856 146.603 34.0393C146.566 33.7807 146.548 33.522 146.548 33.2634C146.548 32.9924 146.548 32.7768 146.548 32.6167C146.535 32.2842 146.523 31.8038 146.511 31.1757C146.498 30.5475 146.486 29.8947 146.474 29.2173C146.461 28.5276 146.449 27.8687 146.437 27.2405C146.437 26.6124 146.437 26.132 146.437 25.7995C146.437 25.4423 146.437 25.0851 146.437 24.7279C146.449 24.3707 146.461 24.0135 146.474 23.6564C146.474 23.4593 146.48 23.2438 146.492 23.0097C146.504 22.7634 146.541 22.5355 146.603 22.3262C146.665 22.1045 146.763 21.9197 146.899 21.7719C147.034 21.6241 147.237 21.5502 147.508 21.5502C147.742 21.5502 147.915 21.6118 148.026 21.735C148.136 21.8581 148.21 22.0121 148.247 22.1968C148.296 22.3816 148.321 22.5787 148.321 22.788C148.321 22.9974 148.321 23.1822 148.321 23.3423C148.321 23.4408 148.315 23.644 148.303 23.952C148.29 24.2476 148.284 24.5616 148.284 24.8942C148.284 25.2144 148.303 25.5039 148.34 25.7625C148.377 26.0212 148.444 26.1505 148.543 26.1505C148.629 26.1505 148.721 26.1135 148.82 26.0396C148.931 25.9534 149.06 25.8672 149.208 25.781C149.356 25.6824 149.528 25.5962 149.725 25.5223C149.922 25.4361 150.156 25.393 150.427 25.393C151.006 25.393 151.462 25.5654 151.794 25.9103C152.127 26.2552 152.379 26.6863 152.552 27.2036C152.724 27.7085 152.835 28.2566 152.884 28.8478C152.934 29.439 152.958 29.9748 152.958 30.4552V31.0833L152.995 32.3581V33.0047C152.995 33.1648 152.989 33.3619 152.977 33.5959C152.977 33.8176 152.946 34.0393 152.884 34.261C152.835 34.4704 152.743 34.649 152.607 34.7968C152.484 34.9446 152.306 35.0185 152.072 35.0185C151.801 35.0185 151.603 34.9323 151.48 34.7598C151.357 34.5751 151.271 34.3534 151.222 34.0947C151.185 33.8361 151.166 33.5713 151.166 33.3003C151.179 33.0293 151.185 32.8015 151.185 32.6167C151.172 32.2595 151.16 31.9024 151.148 31.5452C151.148 31.1757 151.148 30.8123 151.148 30.4552C151.148 30.2458 151.142 29.9686 151.129 29.6238C151.129 29.2666 151.092 28.9217 151.018 28.5892C150.957 28.2566 150.846 27.9733 150.686 27.7393C150.526 27.493 150.286 27.3698 149.965 27.3698ZM153.505 32.8384C153.505 32.3211 153.604 31.8777 153.801 31.5082C154.01 31.1387 154.263 30.8185 154.558 30.5475C154.854 30.2766 155.18 30.0425 155.537 29.8455C155.895 29.6361 156.221 29.439 156.517 29.2543C156.812 29.0572 157.059 28.8663 157.256 28.6816C157.465 28.4845 157.57 28.2566 157.57 27.998C157.57 27.7516 157.483 27.5238 157.311 27.3144C157.139 27.105 156.929 27.0003 156.683 27.0003C156.424 27.0003 156.215 27.0742 156.055 27.222C155.895 27.3575 155.753 27.5176 155.63 27.7024C155.519 27.8748 155.408 28.0349 155.297 28.1827C155.186 28.3182 155.051 28.386 154.891 28.386C154.645 28.386 154.429 28.3059 154.244 28.1458C154.059 27.9857 153.967 27.7824 153.967 27.5361C153.967 27.2159 154.059 26.9264 154.244 26.6678C154.441 26.4091 154.688 26.1813 154.983 25.9842C155.279 25.7871 155.599 25.6393 155.944 25.5408C156.289 25.43 156.609 25.3745 156.905 25.3745C157.496 25.3745 157.958 25.4915 158.29 25.7256C158.635 25.9473 158.894 26.2429 159.066 26.6124C159.251 26.9819 159.368 27.4006 159.417 27.8687C159.466 28.3244 159.491 28.7924 159.491 29.2728V30.1965L159.454 31.9886V32.9123C159.454 33.134 159.46 33.3742 159.473 33.6329C159.485 33.8915 159.479 34.1317 159.454 34.3534C159.43 34.5628 159.368 34.7414 159.269 34.8892C159.171 35.0369 159.017 35.1108 158.808 35.1108C158.574 35.1108 158.395 35.0677 158.272 34.9815C158.149 34.8953 158.05 34.8029 157.976 34.7044C157.915 34.5936 157.865 34.495 157.828 34.4088C157.804 34.3226 157.754 34.2795 157.681 34.2795C157.607 34.2795 157.508 34.3226 157.385 34.4088C157.274 34.495 157.132 34.5936 156.96 34.7044C156.8 34.8153 156.609 34.9138 156.387 35C156.178 35.0862 155.944 35.1293 155.685 35.1293C155.353 35.1293 155.051 35.0677 154.78 34.9446C154.509 34.8091 154.275 34.6367 154.078 34.4273C153.893 34.2179 153.752 33.9777 153.653 33.7068C153.554 33.4235 153.505 33.134 153.505 32.8384ZM155.279 32.5059C155.279 32.8138 155.371 33.0417 155.556 33.1895C155.753 33.3249 155.993 33.3927 156.276 33.3927C156.56 33.3927 156.788 33.3373 156.96 33.2264C157.145 33.1032 157.286 32.9431 157.385 32.7461C157.496 32.549 157.57 32.3334 157.607 32.0994C157.656 31.8531 157.681 31.6129 157.681 31.3789C157.681 31.2065 157.65 31.0525 157.588 30.917C157.527 30.7815 157.391 30.7138 157.182 30.7138C156.997 30.7138 156.794 30.7692 156.572 30.8801C156.35 30.9909 156.141 31.1387 155.944 31.3235C155.759 31.4959 155.599 31.6868 155.464 31.8962C155.34 32.1056 155.279 32.3088 155.279 32.5059ZM164.557 26.3907C164.557 26.4892 164.545 26.6185 164.52 26.7786C164.508 26.9387 164.434 27.0188 164.299 27.0188L164.132 27.0003C163.787 27.0003 163.498 27.0804 163.264 27.2405C163.03 27.3883 162.839 27.5854 162.691 27.8317C162.543 28.078 162.439 28.3552 162.377 28.6631C162.316 28.9587 162.285 29.2543 162.285 29.5499V30.4182L162.229 32.4505V33.3373C162.229 33.4851 162.229 33.6575 162.229 33.8546C162.242 34.0516 162.229 34.2425 162.192 34.4273C162.155 34.5997 162.082 34.7537 161.971 34.8892C161.86 35.0123 161.694 35.0739 161.472 35.0739C161.102 35.0739 160.831 34.9815 160.659 34.7968C160.487 34.612 160.4 34.3595 160.4 34.0393V32.2657L160.419 28.6077V26.8341C160.419 26.6986 160.425 26.5508 160.437 26.3907C160.45 26.2305 160.48 26.0827 160.53 25.9473C160.579 25.8118 160.653 25.7009 160.751 25.6147C160.862 25.5285 161.01 25.4854 161.195 25.4854C161.367 25.4854 161.515 25.5162 161.638 25.5778C161.761 25.6393 161.835 25.7625 161.86 25.9473C161.884 26.1197 161.909 26.2429 161.934 26.3168C161.958 26.3783 161.989 26.4091 162.026 26.4091C162.063 26.4091 162.125 26.3537 162.211 26.2429C162.297 26.132 162.408 26.0088 162.543 25.8734C162.691 25.7379 162.857 25.6147 163.042 25.5039C163.239 25.393 163.467 25.3376 163.726 25.3376C164.021 25.3376 164.231 25.4484 164.354 25.6701C164.489 25.8918 164.557 26.132 164.557 26.3907ZM167.732 35.2956C167.129 35.2956 166.612 35.1663 166.18 34.9076C165.749 34.6367 165.398 34.2918 165.127 33.873C164.869 33.4543 164.678 32.9862 164.555 32.4689C164.432 31.9393 164.37 31.4159 164.37 30.8986C164.37 30.098 164.438 29.359 164.573 28.6816C164.709 28.0041 164.912 27.4129 165.183 26.908C165.454 26.403 165.799 26.0088 166.217 25.7256C166.649 25.4423 167.147 25.3006 167.714 25.3006C168.182 25.3006 168.582 25.4238 168.915 25.6701C169.26 25.9165 169.549 26.2305 169.783 26.6124C170.017 26.9819 170.19 27.3883 170.3 27.8317C170.411 28.2628 170.467 28.6692 170.467 29.0511C170.467 29.1126 170.467 29.1989 170.467 29.3097C170.467 29.4206 170.461 29.5068 170.448 29.5684C170.436 29.7162 170.325 29.8455 170.116 29.9563C169.906 30.0549 169.648 30.1472 169.34 30.2335C169.044 30.3197 168.724 30.412 168.379 30.5106C168.034 30.5968 167.714 30.7076 167.418 30.8431C167.123 30.9786 166.876 31.1449 166.679 31.342C166.482 31.539 166.384 31.7854 166.384 32.081C166.384 32.2411 166.421 32.4073 166.495 32.5798C166.568 32.7399 166.661 32.8877 166.772 33.0232C166.895 33.1587 167.037 33.2695 167.197 33.3557C167.357 33.4296 167.529 33.4666 167.714 33.4666C167.936 33.4666 168.108 33.4235 168.231 33.3373C168.367 33.2387 168.478 33.1217 168.564 32.9862C168.662 32.8507 168.742 32.7029 168.804 32.5428C168.866 32.3704 168.927 32.2164 168.989 32.081C169.063 31.9455 169.149 31.8346 169.247 31.7484C169.358 31.6499 169.5 31.6006 169.672 31.6006C169.943 31.6006 170.146 31.7053 170.282 31.9147C170.43 32.1241 170.504 32.3519 170.504 32.5983C170.504 32.9185 170.424 33.2326 170.263 33.5405C170.116 33.8484 169.949 34.1255 169.765 34.3719C169.518 34.6921 169.217 34.9261 168.859 35.0739C168.502 35.2217 168.127 35.2956 167.732 35.2956ZM167.714 27.1666C167.578 27.1666 167.443 27.2097 167.307 27.2959C167.184 27.3821 167.067 27.493 166.956 27.6285C166.858 27.7516 166.778 27.8933 166.716 28.0534C166.655 28.2135 166.624 28.3675 166.624 28.5153C166.624 28.7616 166.673 28.9156 166.772 28.9772C166.883 29.0387 167.024 29.0695 167.197 29.0695C167.307 29.0695 167.437 29.0572 167.585 29.0326C167.745 28.9956 167.893 28.9464 168.028 28.8848C168.176 28.8109 168.293 28.7247 168.379 28.6261C168.478 28.5153 168.527 28.386 168.527 28.2382C168.527 28.1396 168.508 28.0288 168.471 27.9056C168.447 27.7824 168.397 27.6654 168.324 27.5546C168.262 27.4437 168.176 27.3514 168.065 27.2775C167.966 27.2036 167.849 27.1666 167.714 27.1666Z" fill="#282828"/>
<path d="M55.7252 51.9146C54.942 51.9146 54.5505 52.1733 54.5505 52.6906C54.5505 52.9205 54.6474 53.0965 54.8414 53.2186C54.942 53.2761 55.1037 53.3516 55.3264 53.445C55.5491 53.5312 55.8437 53.6318 56.2101 53.7467C56.5694 53.8617 56.8711 53.9802 57.1154 54.1024C57.3597 54.2245 57.5573 54.3682 57.7081 54.5334C57.859 54.6915 57.9668 54.8783 58.0314 55.0939C58.1033 55.3094 58.1392 55.568 58.1392 55.8698C58.1392 56.2578 58.0781 56.5991 57.956 56.8936C57.8339 57.181 57.6614 57.4217 57.4387 57.6157C57.216 57.8097 56.9501 57.957 56.6412 58.0575C56.3323 58.1581 55.9874 58.2084 55.6066 58.2084C55.0462 58.2084 54.3601 58.1222 53.5482 57.9498L53.1602 57.8743L53.3111 56.7212C54.2738 56.8505 55.0103 56.9152 55.5204 56.9152C56.282 56.9152 56.6628 56.5991 56.6628 55.9668C56.6628 55.7369 56.5765 55.5573 56.4041 55.4279C56.2173 55.2986 55.8653 55.1585 55.348 55.0076C54.9312 54.8855 54.5756 54.7598 54.281 54.6304C53.9936 54.4939 53.7601 54.3395 53.5805 54.167C53.4009 53.9874 53.2716 53.7862 53.1925 53.5635C53.1135 53.3408 53.074 53.0857 53.074 52.7983C53.074 52.0583 53.2931 51.5123 53.7314 51.1602C54.1768 50.801 54.7911 50.6214 55.5743 50.6214C55.8401 50.6214 56.1419 50.6393 56.4795 50.6753C56.8172 50.7112 57.1908 50.7651 57.6004 50.8369L57.9883 50.9123L57.8698 52.087C57.3597 52.0296 56.925 51.9865 56.5658 51.9577C56.2137 51.929 55.9335 51.9146 55.7252 51.9146ZM60.6497 54.0269V58.0791H59.2056V50.5351H60.6497V52.9492C61.1454 52.6906 61.5909 52.5612 61.986 52.5612C62.3453 52.5612 62.6434 52.6151 62.8805 52.7229C63.1248 52.8235 63.3188 52.9815 63.4625 53.1971C63.6134 53.4126 63.7212 53.6821 63.7858 54.0054C63.8505 54.3287 63.8828 54.7131 63.8828 55.1585V58.0791H62.4387V55.1908C62.4387 54.7382 62.3848 54.4041 62.277 54.1886C62.1693 53.9659 61.9537 53.8545 61.6304 53.8545C61.3502 53.8545 61.07 53.8976 60.7898 53.9838L60.6497 54.0269ZM69.29 54.3718V56.6134C69.3044 56.7859 69.3331 56.908 69.3763 56.9798C69.4194 57.0445 69.5092 57.0912 69.6457 57.1199L69.6026 58.2084C69.2362 58.2084 68.9416 58.1833 68.7189 58.133C68.5033 58.0827 68.2842 57.9821 68.0614 57.8312C67.537 58.0827 67.0089 58.2084 66.4772 58.2084C65.3636 58.2084 64.8068 57.6193 64.8068 56.441C64.8068 55.8662 64.9612 55.4603 65.2702 55.2232C65.5791 54.9789 66.0533 54.8352 66.6928 54.7921L67.8459 54.7059V54.3718C67.8459 54.1491 67.7956 53.9982 67.695 53.9192C67.5944 53.8329 67.4328 53.7898 67.2101 53.7898L65.184 53.876L65.1409 52.8738C65.9168 52.6654 66.6497 52.5612 67.3394 52.5612C68.0363 52.5612 68.5356 52.7049 68.8374 52.9923C69.1392 53.2797 69.29 53.7395 69.29 54.3718ZM67.8459 55.7081L66.8652 55.7944C66.4629 55.8303 66.2617 56.0458 66.2617 56.441C66.2617 56.8361 66.4377 57.0337 66.7898 57.0337C67.0628 57.0337 67.3609 56.9906 67.6843 56.9044L67.8459 56.8613V55.7081ZM72.1108 58.0791H70.6667V52.6906H72.1001V53.2617C72.718 52.9025 73.2927 52.669 73.8244 52.5612V54.0161C73.5298 54.0736 73.2568 54.1347 73.0053 54.1994C72.7611 54.264 72.5347 54.3287 72.3264 54.3933L72.1108 54.4688V58.0791ZM79.0305 55.9991H75.862C75.8692 56.3296 75.9554 56.5703 76.1207 56.7212C76.2859 56.8649 76.5302 56.9367 76.8535 56.9367C77.5217 56.9367 78.118 56.9152 78.6425 56.8721L78.9443 56.8397L78.9658 57.9067C78.154 58.1078 77.4067 58.2084 76.7242 58.2084C75.9123 58.2084 75.3232 57.9929 74.9568 57.5618C74.5903 57.1307 74.4071 56.4302 74.4071 55.4603C74.4071 53.5276 75.201 52.5612 76.7889 52.5612C78.3551 52.5612 79.1383 53.3731 79.1383 54.9969L79.0305 55.9991ZM75.8513 54.8999H77.7157C77.7157 54.4688 77.6474 54.1706 77.5109 54.0054C77.3816 53.8329 77.1445 53.7467 76.7996 53.7467C76.4548 53.7467 76.2105 53.8365 76.0668 54.0161C75.9303 54.1886 75.8584 54.4832 75.8513 54.8999ZM85.6206 55.1154V58.0791H84.1333V55.1154L81.8702 50.7507H83.5191L84.8662 53.6713L86.2133 50.7507H87.8622L85.6206 55.1154ZM90.7358 52.5612C91.6267 52.5612 92.2626 52.8091 92.6434 53.3049C93.0242 53.7934 93.2146 54.4832 93.2146 55.3741C93.2146 57.2636 92.3883 58.2084 90.7358 58.2084C89.0833 58.2084 88.2571 57.2636 88.2571 55.3741C88.2571 54.943 88.3002 54.555 88.3864 54.2101C88.4726 53.8653 88.6127 53.5707 88.8067 53.3264C89.0007 53.0821 89.2558 52.8953 89.5719 52.766C89.888 52.6295 90.276 52.5612 90.7358 52.5612ZM90.7358 56.9798C91.1238 56.9798 91.3896 56.8541 91.5333 56.6026C91.677 56.344 91.7489 55.9345 91.7489 55.3741C91.7489 54.8136 91.677 54.4113 91.5333 54.167C91.3896 53.9156 91.1238 53.7898 90.7358 53.7898C90.3478 53.7898 90.082 53.9156 89.9383 54.167C89.7946 54.4113 89.7228 54.8136 89.7228 55.3741C89.7228 55.5609 89.73 55.7513 89.7443 55.9452C89.7659 56.132 89.809 56.3045 89.8737 56.4625C89.9455 56.6134 90.0461 56.7392 90.1754 56.8397C90.3119 56.9331 90.4987 56.9798 90.7358 56.9798ZM97.4524 56.7212V52.6906H98.8965V58.0791H97.4632V57.7773C96.953 58.0647 96.504 58.2084 96.116 58.2084C95.7424 58.2084 95.4335 58.1581 95.1892 58.0575C94.9449 57.957 94.7509 57.7989 94.6072 57.5834C94.4635 57.3678 94.363 57.0912 94.3055 56.7535C94.248 56.4087 94.2193 55.9955 94.2193 55.5142V52.6906H95.6634V55.5357C95.6634 55.8015 95.6706 56.0243 95.6849 56.2039C95.7065 56.3763 95.7424 56.5164 95.7927 56.6242C95.8502 56.732 95.9256 56.8074 96.019 56.8505C96.1196 56.8936 96.2525 56.9152 96.4178 56.9152C96.7267 56.9152 97.0249 56.8649 97.3123 56.7643L97.4524 56.7212ZM101.674 58.0791H100.23V52.6906H101.663V53.2617C102.281 52.9025 102.856 52.669 103.388 52.5612V54.0161C103.093 54.0736 102.82 54.1347 102.569 54.1994C102.324 54.264 102.098 54.3287 101.89 54.3933L101.674 54.4688V58.0791ZM108.224 58.0791H106.737V50.7507H111.414V52.0439H108.224V54.1994H110.832V55.4926H108.224V58.0791ZM114.532 52.5612C115.423 52.5612 116.058 52.8091 116.439 53.3049C116.82 53.7934 117.01 54.4832 117.01 55.3741C117.01 57.2636 116.184 58.2084 114.532 58.2084C112.879 58.2084 112.053 57.2636 112.053 55.3741C112.053 54.943 112.096 54.555 112.182 54.2101C112.269 53.8653 112.409 53.5707 112.603 53.3264C112.797 53.0821 113.052 52.8953 113.368 52.766C113.684 52.6295 114.072 52.5612 114.532 52.5612ZM114.532 56.9798C114.92 56.9798 115.185 56.8541 115.329 56.6026C115.473 56.344 115.545 55.9345 115.545 55.3741C115.545 54.8136 115.473 54.4113 115.329 54.167C115.185 53.9156 114.92 53.7898 114.532 53.7898C114.144 53.7898 113.878 53.9156 113.734 54.167C113.59 54.4113 113.519 54.8136 113.519 55.3741C113.519 55.5609 113.526 55.7513 113.54 55.9452C113.562 56.132 113.605 56.3045 113.67 56.4625C113.741 56.6134 113.842 56.7392 113.971 56.8397C114.108 56.9331 114.295 56.9798 114.532 56.9798ZM120.268 52.5612C121.158 52.5612 121.794 52.8091 122.175 53.3049C122.556 53.7934 122.746 54.4832 122.746 55.3741C122.746 57.2636 121.92 58.2084 120.268 58.2084C118.615 58.2084 117.789 57.2636 117.789 55.3741C117.789 54.943 117.832 54.555 117.918 54.2101C118.004 53.8653 118.144 53.5707 118.338 53.3264C118.532 53.0821 118.787 52.8953 119.104 52.766C119.42 52.6295 119.808 52.5612 120.268 52.5612ZM120.268 56.9798C120.656 56.9798 120.921 56.8541 121.065 56.6026C121.209 56.344 121.281 55.9345 121.281 55.3741C121.281 54.8136 121.209 54.4113 121.065 54.167C120.921 53.9156 120.656 53.7898 120.268 53.7898C119.88 53.7898 119.614 53.9156 119.47 54.167C119.326 54.4113 119.254 54.8136 119.254 55.3741C119.254 55.5609 119.262 55.7513 119.276 55.9452C119.298 56.132 119.341 56.3045 119.405 56.4625C119.477 56.6134 119.578 56.7392 119.707 56.8397C119.844 56.9331 120.03 56.9798 120.268 56.9798ZM126.941 50.5351H128.385V58.0791H126.952V57.8528C126.449 58.0899 126.014 58.2084 125.648 58.2084C125.26 58.2084 124.929 58.1545 124.656 58.0468C124.39 57.9318 124.175 57.7594 124.01 57.5295C123.844 57.2924 123.726 56.9978 123.654 56.6458C123.582 56.2865 123.546 55.8626 123.546 55.3741C123.546 54.3897 123.729 53.6749 124.096 53.2294C124.462 52.784 125.023 52.5612 125.777 52.5612C125.892 52.5612 126.029 52.572 126.187 52.5936C126.345 52.6079 126.528 52.6331 126.736 52.669L126.941 52.7121V50.5351ZM126.79 56.7859L126.941 56.7535V53.9192C126.56 53.8473 126.208 53.8114 125.885 53.8114C125.303 53.8114 125.012 54.3287 125.012 55.3633C125.012 55.9237 125.077 56.3224 125.206 56.5595C125.335 56.7966 125.551 56.9152 125.852 56.9152C126.147 56.9152 126.46 56.8721 126.79 56.7859ZM133.025 58.0791L131.624 50.7507H133.187L134.092 56.8074H134.254L135.569 50.7507H137.293L138.608 56.8074H138.769L139.675 50.7507H141.237L139.836 58.0791H137.584L136.431 52.5074L135.278 58.0791H133.025ZM143.551 58.0791H142.107V52.6906H143.551V58.0791ZM143.551 52.0008H142.107V50.5351H143.551V52.0008ZM147.871 52.6906V53.9192H146.545V56.1285C146.545 56.2362 146.545 56.3296 146.545 56.4087C146.552 56.4805 146.559 56.538 146.567 56.5811C146.581 56.6745 146.621 56.7535 146.685 56.8182C146.75 56.8828 146.854 56.9152 146.998 56.9152L147.817 56.8936L147.881 58.0468C147.4 58.1545 147.034 58.2084 146.782 58.2084C146.459 58.2084 146.189 58.1725 145.974 58.1007C145.758 58.036 145.586 57.9246 145.457 57.7666C145.327 57.6085 145.234 57.4001 145.176 57.1415C145.126 56.8757 145.101 56.5488 145.101 56.1608V53.9192H144.465V52.6906H145.101V51.1926H146.545V52.6906H147.871ZM150.255 54.0269V58.0791H148.811V50.5351H150.255V52.9492C150.751 52.6906 151.196 52.5612 151.592 52.5612C151.951 52.5612 152.249 52.6151 152.486 52.7229C152.73 52.8235 152.924 52.9815 153.068 53.1971C153.219 53.4126 153.327 53.6821 153.391 54.0054C153.456 54.3287 153.488 54.7131 153.488 55.1585V58.0791H152.044V55.1908C152.044 54.7382 151.99 54.4041 151.882 54.1886C151.775 53.9659 151.559 53.8545 151.236 53.8545C150.956 53.8545 150.675 53.8976 150.395 53.9838L150.255 54.0269ZM160.218 55.1154V58.0791H158.731V55.1154L156.468 50.7507H158.117L159.464 53.6713L160.811 50.7507H162.46L160.218 55.1154ZM165.333 52.5612C166.224 52.5612 166.86 52.8091 167.241 53.3049C167.622 53.7934 167.812 54.4832 167.812 55.3741C167.812 57.2636 166.986 58.2084 165.333 58.2084C163.681 58.2084 162.855 57.2636 162.855 55.3741C162.855 54.943 162.898 54.555 162.984 54.2101C163.07 53.8653 163.21 53.5707 163.404 53.3264C163.598 53.0821 163.853 52.8953 164.169 52.766C164.486 52.6295 164.874 52.5612 165.333 52.5612ZM165.333 56.9798C165.721 56.9798 165.987 56.8541 166.131 56.6026C166.275 56.344 166.346 55.9345 166.346 55.3741C166.346 54.8136 166.275 54.4113 166.131 54.167C165.987 53.9156 165.721 53.7898 165.333 53.7898C164.945 53.7898 164.68 53.9156 164.536 54.167C164.392 54.4113 164.32 54.8136 164.32 55.3741C164.32 55.5609 164.328 55.7513 164.342 55.9452C164.363 56.132 164.407 56.3045 164.471 56.4625C164.543 56.6134 164.644 56.7392 164.773 56.8397C164.909 56.9331 165.096 56.9798 165.333 56.9798ZM172.05 56.7212V52.6906H173.494V58.0791H172.061V57.7773C171.551 58.0647 171.102 58.2084 170.714 58.2084C170.34 58.2084 170.031 58.1581 169.787 58.0575C169.542 57.957 169.348 57.7989 169.205 57.5834C169.061 57.3678 168.961 57.0912 168.903 56.7535C168.846 56.4087 168.817 55.9955 168.817 55.5142V52.6906H170.261V55.5357C170.261 55.8015 170.268 56.0243 170.282 56.2039C170.304 56.3763 170.34 56.5164 170.39 56.6242C170.448 56.732 170.523 56.8074 170.617 56.8505C170.717 56.8936 170.85 56.9152 171.015 56.9152C171.324 56.9152 171.622 56.8649 171.91 56.7643L172.05 56.7212ZM176.272 58.0791H174.828V52.6906H176.261V53.2617C176.879 52.9025 177.454 52.669 177.985 52.5612V54.0161C177.691 54.0736 177.418 54.1347 177.166 54.1994C176.922 54.264 176.696 54.3287 176.487 54.3933L176.272 54.4688V58.0791ZM182.822 58.0791H181.335V50.7507H186.012V52.0439H182.822V54.1994H185.43V55.4926H182.822V58.0791ZM188.375 58.0791H186.931V52.6906H188.364V53.2617C188.982 52.9025 189.557 52.669 190.088 52.5612V54.0161C189.794 54.0736 189.521 54.1347 189.269 54.1994C189.025 54.264 188.799 54.3287 188.59 54.3933L188.375 54.4688V58.0791ZM192.385 58.0791H190.941V52.6906H192.385V58.0791ZM192.385 52.0008H190.941V50.5351H192.385V52.0008ZM198.073 55.9991H194.904C194.912 56.3296 194.998 56.5703 195.163 56.7212C195.328 56.8649 195.573 56.9367 195.896 56.9367C196.564 56.9367 197.16 56.9152 197.685 56.8721L197.987 56.8397L198.008 57.9067C197.196 58.1078 196.449 58.2084 195.767 58.2084C194.955 58.2084 194.366 57.9929 193.999 57.5618C193.633 57.1307 193.45 56.4302 193.45 55.4603C193.45 53.5276 194.244 52.5612 195.831 52.5612C197.398 52.5612 198.181 53.3731 198.181 54.9969L198.073 55.9991ZM194.894 54.8999H196.758C196.758 54.4688 196.69 54.1706 196.553 54.0054C196.424 53.8329 196.187 53.7467 195.842 53.7467C195.497 53.7467 195.253 53.8365 195.109 54.0161C194.973 54.1886 194.901 54.4832 194.894 54.8999ZM200.657 54.0485V58.0791H199.213V52.6906H200.646V52.9923C201.128 52.7049 201.577 52.5612 201.993 52.5612C202.353 52.5612 202.651 52.6151 202.888 52.7229C203.132 52.8235 203.326 52.9815 203.47 53.1971C203.621 53.4126 203.728 53.6821 203.793 54.0054C203.858 54.3287 203.89 54.7131 203.89 55.1585V58.0791H202.446V55.2016C202.446 54.7418 202.392 54.4041 202.284 54.1886C202.176 53.9659 201.961 53.8545 201.638 53.8545C201.35 53.8545 201.066 53.9048 200.786 54.0054L200.657 54.0485ZM208.306 50.5351H209.75V58.0791H208.317V57.8528C207.814 58.0899 207.379 58.2084 207.013 58.2084C206.625 58.2084 206.294 58.1545 206.021 58.0468C205.755 57.9318 205.54 57.7594 205.374 57.5295C205.209 57.2924 205.091 56.9978 205.019 56.6458C204.947 56.2865 204.911 55.8626 204.911 55.3741C204.911 54.3897 205.094 53.6749 205.461 53.2294C205.827 52.784 206.387 52.5612 207.142 52.5612C207.257 52.5612 207.393 52.572 207.551 52.5936C207.709 52.6079 207.893 52.6331 208.101 52.669L208.306 52.7121V50.5351ZM208.155 56.7859L208.306 56.7535V53.9192C207.925 53.8473 207.573 53.8114 207.25 53.8114C206.668 53.8114 206.377 54.3287 206.377 55.3633C206.377 55.9237 206.441 56.3224 206.571 56.5595C206.7 56.7966 206.916 56.9152 207.217 56.9152C207.512 56.9152 207.824 56.8721 208.155 56.7859ZM214.975 52.8414L214.953 54.0377C214.501 53.9802 214.12 53.9371 213.811 53.9084C213.509 53.8796 213.269 53.8653 213.089 53.8653C212.73 53.8653 212.5 53.8976 212.399 53.9623C212.291 54.0269 212.238 54.1275 212.238 54.264C212.238 54.4005 212.309 54.4975 212.453 54.555C212.525 54.5837 212.647 54.6197 212.82 54.6628C212.999 54.6987 213.236 54.7418 213.531 54.7921C213.818 54.8424 214.062 54.9106 214.264 54.9969C214.465 55.0759 214.63 55.1801 214.759 55.3094C214.889 55.4387 214.982 55.5968 215.04 55.7836C215.097 55.9704 215.126 56.1967 215.126 56.4625C215.126 57.6265 214.404 58.2084 212.96 58.2084C212.493 58.2084 211.918 58.1438 211.235 58.0144L210.89 57.9498L210.934 56.7427C211.386 56.8002 211.763 56.8433 212.065 56.8721C212.374 56.9008 212.618 56.9152 212.798 56.9152C213.15 56.9152 213.387 56.8793 213.509 56.8074C213.631 56.7427 213.692 56.6422 213.692 56.5056C213.692 56.3691 213.628 56.2686 213.498 56.2039C213.369 56.1464 213.024 56.0674 212.464 55.9668C212.184 55.9237 211.939 55.8662 211.731 55.7944C211.523 55.7153 211.35 55.6147 211.214 55.4926C211.077 55.3633 210.973 55.2052 210.901 55.0184C210.837 54.8244 210.804 54.5837 210.804 54.2963C210.804 54.009 210.854 53.7575 210.955 53.542C211.063 53.3264 211.207 53.1468 211.386 53.0031C211.573 52.8594 211.792 52.7516 212.044 52.6798C212.302 52.6079 212.582 52.572 212.884 52.572C213.093 52.572 213.34 52.59 213.628 52.6259C213.922 52.6546 214.253 52.7049 214.619 52.7768L214.975 52.8414ZM109.726 75.0791H108.238L109.887 67.7507H112.711L114.36 75.0791H112.872L112.581 73.7535H110.017L109.726 75.0791ZM111.558 68.9793H111.04L110.297 72.4603H112.301L111.558 68.9793ZM116.65 71.0485V75.0791H115.206V69.6906H116.64V69.9923C117.121 69.7049 117.57 69.5612 117.987 69.5612C118.346 69.5612 118.644 69.6151 118.881 69.7229C119.126 69.8235 119.32 69.9815 119.463 70.1971C119.614 70.4126 119.722 70.6821 119.787 71.0054C119.851 71.3287 119.884 71.7131 119.884 72.1585V75.0791H118.439V72.2016C118.439 71.7418 118.386 71.4041 118.278 71.1886C118.17 70.9659 117.955 70.8545 117.631 70.8545C117.344 70.8545 117.06 70.9048 116.78 71.0054L116.65 71.0485ZM124.299 67.5351H125.743V75.0791H124.31V74.8528C123.807 75.0899 123.373 75.2084 123.006 75.2084C122.618 75.2084 122.288 75.1545 122.015 75.0468C121.749 74.9318 121.533 74.7594 121.368 74.5295C121.203 74.2924 121.084 73.9978 121.012 73.6458C120.94 73.2865 120.905 72.8626 120.905 72.3741C120.905 71.3897 121.088 70.6749 121.454 70.2294C121.821 69.784 122.381 69.5612 123.135 69.5612C123.25 69.5612 123.387 69.572 123.545 69.5936C123.703 69.6079 123.886 69.6331 124.095 69.669L124.299 69.7121V67.5351ZM124.148 73.7859L124.299 73.7535V70.9192C123.919 70.8473 123.566 70.8114 123.243 70.8114C122.661 70.8114 122.37 71.3287 122.37 72.3633C122.37 72.9237 122.435 73.3224 122.564 73.5595C122.694 73.7966 122.909 73.9152 123.211 73.9152C123.505 73.9152 123.818 73.8721 124.148 73.7859ZM131.063 75.0791H129.575V67.7507H134.253V69.0439H131.063V71.1994H133.671V72.4926H131.063V75.0791ZM139.299 71.3718V73.6134C139.313 73.7859 139.342 73.908 139.385 73.9798C139.428 74.0445 139.518 74.0912 139.655 74.1199L139.611 75.2084C139.245 75.2084 138.95 75.1833 138.728 75.133C138.512 75.0827 138.293 74.9821 138.07 74.8312C137.546 75.0827 137.018 75.2084 136.486 75.2084C135.372 75.2084 134.816 74.6193 134.816 73.441C134.816 72.8662 134.97 72.4603 135.279 72.2232C135.588 71.9789 136.062 71.8352 136.702 71.7921L137.855 71.7059V71.3718C137.855 71.1491 137.804 70.9982 137.704 70.9192C137.603 70.8329 137.442 70.7898 137.219 70.7898L135.193 70.876L135.15 69.8738C135.926 69.6654 136.659 69.5612 137.348 69.5612C138.045 69.5612 138.545 69.7049 138.846 69.9923C139.148 70.2797 139.299 70.7395 139.299 71.3718ZM137.855 72.7081L136.874 72.7944C136.472 72.8303 136.271 73.0458 136.271 73.441C136.271 73.8361 136.447 74.0337 136.799 74.0337C137.072 74.0337 137.37 73.9906 137.693 73.9044L137.855 73.8613V72.7081ZM142.12 71.0485V75.0791H140.676V69.6906H142.109V69.9923C142.598 69.7049 143.021 69.5612 143.381 69.5612C143.963 69.5612 144.412 69.7301 144.728 70.0678C145.389 69.7301 145.992 69.5612 146.538 69.5612C146.898 69.5612 147.196 69.6115 147.433 69.7121C147.677 69.8127 147.871 69.9708 148.015 70.1863C148.166 70.3947 148.273 70.6641 148.338 70.9946C148.403 71.3179 148.435 71.7059 148.435 72.1585V75.0791H146.991V72.2016C146.991 71.7418 146.941 71.4041 146.84 71.1886C146.74 70.9659 146.538 70.8545 146.237 70.8545C146.021 70.8545 145.741 70.9048 145.396 71.0054L145.234 71.0593C145.249 71.3323 145.259 71.5694 145.267 71.7705C145.274 71.9717 145.277 72.1441 145.277 72.2878V75.0791H143.833V72.3094C143.833 72.0436 143.823 71.8172 143.801 71.6304C143.787 71.4436 143.751 71.2928 143.693 71.1778C143.643 71.0628 143.567 70.9802 143.467 70.9299C143.366 70.8796 143.237 70.8545 143.079 70.8545C142.806 70.8545 142.529 70.9048 142.249 71.0054L142.12 71.0485ZM151.16 75.0791H149.716V69.6906H151.16V75.0791ZM151.16 69.0008H149.716V67.5351H151.16V69.0008ZM154.003 75.0791H152.559V67.5351H154.003V75.0791ZM156.229 75.0791L154.904 69.6906H156.326L157.307 73.8505H157.555L158.535 69.6906H159.958L158.061 77.3423H156.65L157.242 75.0791H156.229Z" fill="#2E2E2E" fill-opacity="0.9"/>
<defs>
<filter id="filter0_d_154_22339" x="20.7051" y="0" width="225" height="98.8263" filterUnits="userSpaceOnUse" color-interpolation-filters="sRGB">
<feFlood flood-opacity="0" result="BackgroundImageFix"/>
<feColorMatrix in="SourceAlpha" type="matrix" values="0 0 0 0 0 0 0 0 0 0 0 0 0 0 0 0 0 0 127 0" result="hardAlpha"/>
<feOffset dy="2.82626"/>
<feComposite in2="hardAlpha" operator="out"/>
<feColorMatrix type="matrix" values="0 0 0 0 0.719954 0 0 0 0 0.591651 0 0 0 0 0.0548051 0 0 0 1 0"/>
<feBlend mode="normal" in2="BackgroundImageFix" result="effect1_dropShadow_154_22339"/>
<feBlend mode="normal" in="SourceGraphic" in2="effect1_dropShadow_154_22339" result="shape"/>
</filter>
<filter id="filter1_d_154_22339" x="26.7051" y="9" width="212" height="82.8263" filterUnits="userSpaceOnUse" color-interpolation-filters="sRGB">
<feFlood flood-opacity="0" result="BackgroundImageFix"/>
<feColorMatrix in="SourceAlpha" type="matrix" values="0 0 0 0 0 0 0 0 0 0 0 0 0 0 0 0 0 0 127 0" result="hardAlpha"/>
<feOffset dy="2.82626"/>
<feComposite in2="hardAlpha" operator="out"/>
<feColorMatrix type="matrix" values="0 0 0 0 0.906608 0 0 0 0 0.906608 0 0 0 0 0.906608 0 0 0 1 0"/>
<feBlend mode="normal" in2="BackgroundImageFix" result="effect1_dropShadow_154_22339"/>
<feBlend mode="normal" in="SourceGraphic" in2="effect1_dropShadow_154_22339" result="shape"/>
</filter>
</defs>
</svg>
