<svg width="43" height="41" viewBox="0 0 43 41" fill="none" xmlns="http://www.w3.org/2000/svg">
<rect x="42.9999" y="40.2603" width="43" height="40.2601" rx="13.8828" transform="rotate(-180 42.9999 40.2603)" fill="#F3C402"/>
<path opacity="0.1" d="M10.9837 19.6307C10.9837 13.8227 15.6919 9.1144 21.4999 9.1144C27.3079 9.1144 32.0162 13.8227 32.0162 19.6307C32.0162 25.4387 27.3079 30.147 21.4999 30.147C15.6919 30.147 10.9837 25.4387 10.9837 19.6307Z" fill="#323232"/>
<path d="M10.9837 19.6307C10.9837 13.8227 15.6919 9.11439 21.4999 9.1144C27.3079 9.1144 32.0162 13.8227 32.0162 19.6307C32.0162 25.4387 27.3079 30.147 21.4999 30.147C15.6919 30.147 10.9837 25.4387 10.9837 19.6307Z" stroke="#D0AC1A" stroke-width="2.33695"/>
<path d="M16.826 19.6309L26.1738 19.6309" stroke="#FFEEA9" stroke-width="2.33695" stroke-linecap="round" stroke-linejoin="round"/>
<path d="M20.3315 16.1254L16.9278 19.5291C16.8717 19.5852 16.8717 19.6764 16.9278 19.7325L20.3315 23.1362" stroke="#FFEEA9" stroke-width="2.33695" stroke-linecap="round" stroke-linejoin="round"/>
</svg>
