<svg width="27" height="27" viewBox="0 0 27 27" fill="none" xmlns="http://www.w3.org/2000/svg">
<g clip-path="url(#clip0_89_5073)">
<path fill-rule="evenodd" clip-rule="evenodd" d="M5.80904 13.4999C5.80904 12.6425 5.95144 11.8205 6.2056 11.0495L1.75689 7.65234C0.88986 9.41274 0.401367 11.3963 0.401367 13.4999C0.401367 15.6017 0.889259 17.5841 1.75509 19.3433L6.20139 15.9395C5.94964 15.1721 5.80904 14.3531 5.80904 13.4999Z" fill="#FBBC05"/>
<path fill-rule="evenodd" clip-rule="evenodd" d="M13.6202 5.6998C15.4828 5.6998 17.1652 6.3598 18.4871 7.4398L22.3325 3.5998C19.9892 1.5598 16.985 0.299805 13.6202 0.299805C8.39637 0.299805 3.90681 3.2872 1.75696 7.6522L6.20567 11.0494C7.23072 7.93781 10.1527 5.6998 13.6202 5.6998Z" fill="#EB4335"/>
<path fill-rule="evenodd" clip-rule="evenodd" d="M13.6202 21.2998C10.1527 21.2998 7.23072 19.0618 6.20567 15.9502L1.75696 19.3468C3.90681 23.7124 8.39638 26.6998 13.6202 26.6998C16.8444 26.6998 19.9225 25.555 22.2328 23.41L18.01 20.1454C16.8185 20.896 15.3182 21.2998 13.6202 21.2998Z" fill="#34A853"/>
<path fill-rule="evenodd" clip-rule="evenodd" d="M26.2381 13.4996C26.2381 12.7196 26.118 11.8796 25.9377 11.0996H13.6202V16.1996H20.7103C20.3558 17.9384 19.3908 19.2752 18.0101 20.1452L22.2329 23.4098C24.6597 21.1574 26.2381 17.8022 26.2381 13.4996Z" fill="#4285F4"/>
</g>
<defs>
<clipPath id="clip0_89_5073">
<rect width="27" height="27" fill="white"/>
</clipPath>
</defs>
</svg>
