<svg width="68" height="79" viewBox="0 0 68 79" fill="none" xmlns="http://www.w3.org/2000/svg">
<path d="M32.965 2.33955C32.9468 1.07497 33.6163 0.0277622 34.4604 0.000541183C35.3045 -0.0266799 36.0034 0.976396 36.0216 2.24097L36.0474 4.03557L36.4534 2.36449C36.7421 1.1759 37.6193 0.563056 38.4126 0.995667C39.206 1.42828 39.615 2.74252 39.3263 3.93111L37.9321 9.67013C37.6433 10.8587 36.7661 11.4716 35.9728 11.0389C35.7188 10.9004 35.5042 10.6716 35.3392 10.3854C35.125 10.569 34.878 10.6774 34.6139 10.6859C34.3975 10.6929 34.1906 10.6321 34.0023 10.5166C33.8615 11.1625 33.531 11.7084 33.0717 11.9588C32.2784 12.3914 31.4012 11.7786 31.1124 10.59L29.7182 4.851C29.4295 3.66241 29.8385 2.34817 30.6318 1.91556C31.4252 1.48294 32.3024 2.09579 32.5911 3.28438L33.0029 4.97941L32.965 2.33955Z" fill="#FAFAFA"/>
<path d="M3.70239 47.8142C3.70239 64.6766 17.372 78.3462 34.2344 78.3462C51.0967 78.3462 64.7663 64.6766 64.7663 47.8142V39.7492H3.70239L3.70239 47.8142Z" fill="#A97337"/>
<g style="mix-blend-mode:multiply">
<path fill-rule="evenodd" clip-rule="evenodd" d="M30.5246 66.9032C30.5236 67.207 30.4428 67.5077 30.2869 67.7883C30.13 68.0707 29.9 68.3274 29.6101 68.5435C29.3201 68.7597 28.9759 68.9312 28.5971 69.0482C28.2183 69.1652 27.8123 69.2254 27.4022 69.2254C26.9922 69.2254 26.5862 69.1652 26.2074 69.0482C25.8286 68.9312 25.4844 68.7597 25.1944 68.5435C24.9045 68.3274 24.6745 68.0707 24.5176 67.7883C24.3607 67.5059 24.2799 67.2032 24.2799 66.8975L27.4022 66.8975L30.5246 66.8975L30.5246 66.8975H33.6469H36.7692C36.7692 67.2032 36.6885 67.5059 36.5315 67.7883C36.3746 68.0707 36.1446 68.3274 35.8547 68.5435C35.5648 68.7597 35.2206 68.9312 34.8418 69.0482C34.4629 69.1652 34.0569 69.2254 33.6469 69.2254C33.2369 69.2254 32.8308 69.1652 32.452 69.0482C32.0732 68.9312 31.729 68.7597 31.4391 68.5435C31.1491 68.3274 30.9191 68.0707 30.7622 67.7883C30.6063 67.5077 30.5256 67.207 30.5246 66.9032ZM42.7764 67.7883C42.9333 67.5059 43.014 67.2032 43.014 66.8975H39.8917L36.7694 66.8975C36.7694 67.2032 36.8501 67.5059 37.007 67.7883C37.1639 68.0707 37.3939 68.3274 37.6839 68.5435C37.9738 68.7597 38.318 68.9312 38.6968 69.0482C39.0757 69.1652 39.4817 69.2254 39.8917 69.2254C40.3017 69.2254 40.7077 69.1652 41.0866 69.0482C41.4654 68.9312 41.8096 68.7597 42.0995 68.5435C42.3895 68.3274 42.6194 68.0707 42.7764 67.7883Z" fill="#4B2807" fill-opacity="0.5"/>
</g>
<g style="mix-blend-mode:multiply">
<path fill-rule="evenodd" clip-rule="evenodd" d="M30.5246 61.7814C30.5236 62.0751 30.4428 62.3657 30.2869 62.637C30.13 62.9101 29.9 63.1581 29.6101 63.3671C29.3201 63.576 28.9759 63.7418 28.5971 63.8549C28.2183 63.968 27.8123 64.0262 27.4022 64.0262C26.9922 64.0262 26.5862 63.968 26.2074 63.8549C25.8286 63.7418 25.4844 63.576 25.1944 63.3671C24.9045 63.1581 24.6745 62.9101 24.5176 62.637C24.3607 62.364 24.2799 62.0714 24.2799 61.7759L27.4022 61.7759L30.5246 61.7759L30.5246 61.7759H33.6469H36.7692C36.7692 62.0714 36.6885 62.364 36.5315 62.637C36.3746 62.9101 36.1446 63.1581 35.8547 63.3671C35.5648 63.576 35.2206 63.7418 34.8418 63.8549C34.4629 63.968 34.0569 64.0262 33.6469 64.0262C33.2369 64.0262 32.8308 63.968 32.452 63.8549C32.0732 63.7418 31.729 63.576 31.4391 63.3671C31.1491 63.1581 30.9191 62.9101 30.7622 62.637C30.6063 62.3657 30.5256 62.0751 30.5246 61.7814ZM42.7764 62.637C42.9333 62.364 43.014 62.0714 43.014 61.7759H39.8917L36.7694 61.7759C36.7694 62.0714 36.8501 62.364 37.007 62.637C37.1639 62.9101 37.3939 63.1581 37.6839 63.3671C37.9738 63.576 38.318 63.7418 38.6968 63.8549C39.0757 63.968 39.4817 64.0262 39.8917 64.0262C40.3017 64.0262 40.7077 63.968 41.0866 63.8549C41.4654 63.7418 41.8096 63.576 42.0995 63.3671C42.3895 63.1581 42.6194 62.9101 42.7764 62.637Z" fill="#4B2807" fill-opacity="0.5"/>
</g>
<g style="mix-blend-mode:multiply">
<path fill-rule="evenodd" clip-rule="evenodd" d="M26.2572 72.0186H30.1081H33.959H37.8098C37.8098 72.78 37.4041 73.5103 36.6819 74.0487C35.9598 74.5871 34.9803 74.8896 33.959 74.8896C32.9376 74.8896 31.9582 74.5871 31.236 74.0487C30.517 73.5127 30.1117 72.7865 30.1081 72.0288C30.1063 72.4023 30.0068 72.7721 29.815 73.1173C29.6215 73.4656 29.3378 73.7821 28.9802 74.0487C28.6226 74.3153 28.1981 74.5268 27.7309 74.6711C27.2637 74.8154 26.763 74.8896 26.2572 74.8896C25.7515 74.8896 25.2508 74.8154 24.7836 74.6711C24.3164 74.5268 23.8919 74.3153 23.5343 74.0487C23.1767 73.7821 22.893 73.4656 22.6995 73.1173C22.506 72.7689 22.4064 72.3956 22.4064 72.0186L26.2572 72.0186ZM45.2186 73.1173C45.4121 72.7689 45.5117 72.3956 45.5117 72.0186H41.6608L37.81 72.0186C37.81 72.3956 37.9096 72.7689 38.1031 73.1173C38.2966 73.4656 38.5803 73.7821 38.9378 74.0487C39.2954 74.3153 39.72 74.5268 40.1872 74.6711C40.6544 74.8154 41.1551 74.8896 41.6608 74.8896C42.1665 74.8896 42.6673 74.8154 43.1345 74.6711C43.6017 74.5268 44.0262 74.3153 44.3838 74.0487C44.7414 73.7821 45.0251 73.4656 45.2186 73.1173Z" fill="#4B2807" fill-opacity="0.5"/>
</g>
<path fill-rule="evenodd" clip-rule="evenodd" d="M13.0069 39.749H3.70227V47.8141C3.70227 59.8624 10.6809 70.2807 20.8165 75.2474C23.8543 71.3552 25.7072 66.1747 25.7072 60.4878C25.7072 50.8557 20.3919 42.6766 13.0069 39.749ZM54.9114 39.749H64.7662V47.8141C64.7662 60.0197 57.6041 70.5526 47.2532 75.4392C44.1256 71.5262 42.211 66.2687 42.211 60.4878C42.211 50.8557 47.5263 42.6765 54.9114 39.749Z" fill="#62401A"/>
<path d="M33.9462 8.03125C16.282 8.03125 1.9044 21.2445 1.41104 37.7195C1.40236 37.8499 1.39795 37.9815 1.39795 38.1141V52.6138C1.39795 56.0553 4.36901 58.8452 8.034 58.8452C11.699 58.8452 14.67 56.0553 14.67 52.6138V47.1535L14.67 52.9105C14.67 56.1881 17.4996 58.8452 20.9901 58.8452C24.4806 58.8452 27.3101 56.1881 27.3101 52.9105L27.3101 47.1535V52.6138C27.3101 56.0553 30.2812 58.8452 33.9462 58.8452C37.6112 58.8452 40.5822 56.0553 40.5822 52.6138L40.5822 52.9105C40.5822 56.1881 43.4118 58.8452 46.9023 58.8452C50.3928 58.8452 53.2223 56.1881 53.2223 52.9105V52.6265C53.2296 56.0621 56.1979 58.8452 59.8584 58.8452C63.5234 58.8452 66.4944 56.0553 66.4944 52.6138V38.1141C66.4944 37.9815 66.49 37.8499 66.4813 37.7195C65.988 21.2445 51.6103 8.03125 33.9462 8.03125Z" fill="#DBDBDB"/>
<path fill-rule="evenodd" clip-rule="evenodd" d="M33.9462 5.27783C15.9703 5.27783 1.39799 19.8502 1.39799 37.8261V39.448C1.39796 39.4561 1.39795 39.4641 1.39795 39.4722V49.4557C1.39795 53.1207 4.36901 56.0917 8.034 56.0917C11.6934 56.0917 14.6609 53.1298 14.67 49.4726V49.7719C14.67 53.2623 17.4996 56.0919 20.9901 56.0919C24.4805 56.0919 27.3101 53.2623 27.3101 49.7719V44.4H27.3102V49.4559C27.3102 53.1209 30.2813 56.0919 33.9463 56.0919C37.6113 56.0919 40.5823 53.1208 40.5823 49.4559V44.4L40.5823 49.7719C40.5823 53.2623 43.4119 56.0919 46.9024 56.0919C50.3928 56.0919 53.2224 53.2623 53.2224 49.7719V49.4855C53.2384 53.1369 56.2033 56.0919 59.8584 56.0919C63.5234 56.0919 66.4945 53.1208 66.4945 49.4559L66.4945 44.4V37.8261C66.4945 19.8502 51.9221 5.27783 33.9462 5.27783Z" fill="#FAFAFA"/>
<path d="M35.4104 55.2862C35.162 55.3954 34.8802 55.4529 34.5933 55.4529H33.8485C33.5616 55.4529 33.2798 55.3954 33.0313 55.2862L26.9253 52.6024C25.7811 52.0995 24.3647 52.7857 24.4482 53.7895C24.6761 56.5275 24.6716 58.6867 24.4444 61.4252C24.3612 62.4279 25.7761 63.1121 26.9191 62.6097L33.2699 59.8184C33.5184 59.7092 33.8002 59.6517 34.0871 59.6517H34.3547C34.6416 59.6517 34.9234 59.7092 35.1718 59.8184L41.5537 62.6234C42.6906 63.1231 44.0993 62.4488 44.0246 61.451C43.8183 58.6931 43.8088 56.5256 44.0168 53.7693C44.0922 52.7693 42.6803 52.0909 41.5409 52.5917L35.4104 55.2862Z" fill="#FFCEB9"/>
<path d="M30.3921 43.5182C27.1109 40.7551 27.3866 35.6118 30.9269 33.1895C33.2378 31.6084 36.3133 31.682 38.5376 33.3829C41.7155 35.8131 41.9409 40.5274 39.0277 43.2693C36.63 45.5259 32.9106 45.6391 30.3921 43.5182Z" fill="#FFD500"/>
<ellipse cx="31.0657" cy="38.807" rx="0.864113" ry="0.785557" fill="#512E0C"/>
<ellipse cx="37.8293" cy="38.807" rx="0.864113" ry="0.785557" fill="#512E0C"/>
<circle cx="19.2563" cy="29.9559" r="6.9129" fill="#FFD500"/>
<circle cx="19.2563" cy="29.9558" r="4.6086" fill="#323232"/>
<circle cx="20.9846" cy="28.612" r="1.72823" fill="white"/>
<circle cx="18.1042" cy="31.8763" r="1.15215" fill="white"/>
<circle cx="49.2122" cy="29.9559" r="6.9129" fill="#FFD500"/>
<circle cx="49.2122" cy="29.9558" r="4.6086" fill="#323232"/>
<circle cx="50.9404" cy="28.612" r="1.72823" fill="white"/>
<circle cx="48.0599" cy="31.8763" r="1.15215" fill="white"/>
<ellipse cx="14.6475" cy="40.273" rx="3.45645" ry="2.3043" fill="#FFCEB9"/>
<ellipse cx="53.8208" cy="40.273" rx="3.45645" ry="2.3043" fill="#FFCEB9"/>
<path d="M28.4609 30.9846C28.4609 37.9588 22.5395 43.6869 15.1414 43.6869C7.74318 43.6869 1.82178 37.9588 1.82178 30.9846C1.82178 24.0103 7.74318 18.2822 15.1414 18.2822C22.5395 18.2822 28.4609 24.0103 28.4609 30.9846Z" stroke="#323232" stroke-width="2"/>
<path d="M66.6465 30.9846C66.6465 37.9588 60.7251 43.6869 53.3269 43.6869C45.9287 43.6869 40.0073 37.9588 40.0073 30.9846C40.0073 24.0103 45.9287 18.2822 53.3269 18.2822C60.7251 18.2822 66.6465 24.0103 66.6465 30.9846Z" stroke="#323232" stroke-width="2"/>
<path d="M28.8246 29.9777C32.8997 29.2837 35.2912 29.2962 39.6438 29.9777V32.5069C35.4874 31.8744 33.1173 31.8655 28.8246 32.5069V29.9777Z" fill="#242424"/>
</svg>
