<svg width="91" height="91" viewBox="0 0 91 91" fill="none" xmlns="http://www.w3.org/2000/svg">
<path d="M43.965 2.33955C43.9468 1.07497 44.6163 0.0277622 45.4604 0.000541183C46.3045 -0.0266799 47.0034 0.976396 47.0216 2.24097L47.0474 4.03557L47.4534 2.36449C47.7421 1.1759 48.6193 0.563056 49.4126 0.995667C50.206 1.42828 50.615 2.74252 50.3263 3.93111L48.9321 9.67013C48.6433 10.8587 47.7661 11.4716 46.9728 11.0389C46.7188 10.9004 46.5042 10.6716 46.3392 10.3854C46.125 10.569 45.878 10.6774 45.6139 10.6859C45.3975 10.6929 45.1906 10.6321 45.0023 10.5166C44.8615 11.1625 44.531 11.7084 44.0717 11.9588C43.2784 12.3914 42.4012 11.7786 42.1124 10.59L40.7182 4.851C40.4295 3.66241 40.8385 2.34817 41.6318 1.91556C42.4252 1.48294 43.3024 2.09579 43.5911 3.28438L44.0029 4.97941L43.965 2.33955Z" fill="#FAFAFA"/>
<path d="M14.7024 47.8142C14.7024 64.6766 28.372 78.3462 45.2344 78.3462C62.0967 78.3462 75.7663 64.6766 75.7663 47.8142V39.7492H14.7024V47.8142Z" fill="#A97337"/>
<g style="mix-blend-mode:multiply">
<path fill-rule="evenodd" clip-rule="evenodd" d="M41.5246 66.9032C41.5236 67.207 41.4428 67.5077 41.2869 67.7883C41.13 68.0707 40.9 68.3274 40.6101 68.5435C40.3201 68.7597 39.9759 68.9312 39.5971 69.0482C39.2183 69.1652 38.8123 69.2254 38.4022 69.2254C37.9922 69.2254 37.5862 69.1652 37.2074 69.0482C36.8286 68.9312 36.4844 68.7597 36.1944 68.5435C35.9045 68.3274 35.6745 68.0707 35.5176 67.7883C35.3607 67.5059 35.2799 67.2032 35.2799 66.8975L38.4022 66.8975L41.5246 66.8975L41.5246 66.8975H44.6469H47.7692C47.7692 67.2032 47.6885 67.5059 47.5315 67.7883C47.3746 68.0707 47.1446 68.3274 46.8547 68.5435C46.5648 68.7597 46.2206 68.9312 45.8418 69.0482C45.4629 69.1652 45.0569 69.2254 44.6469 69.2254C44.2369 69.2254 43.8308 69.1652 43.452 69.0482C43.0732 68.9312 42.729 68.7597 42.4391 68.5435C42.1491 68.3274 41.9191 68.0707 41.7622 67.7883C41.6063 67.5077 41.5256 67.207 41.5246 66.9032ZM53.7764 67.7883C53.9333 67.5059 54.014 67.2032 54.014 66.8975H50.8917L47.7694 66.8975C47.7694 67.2032 47.8501 67.5059 48.007 67.7883C48.1639 68.0707 48.3939 68.3274 48.6839 68.5435C48.9738 68.7597 49.318 68.9312 49.6968 69.0482C50.0757 69.1652 50.4817 69.2254 50.8917 69.2254C51.3017 69.2254 51.7077 69.1652 52.0866 69.0482C52.4654 68.9312 52.8096 68.7597 53.0995 68.5435C53.3895 68.3274 53.6194 68.0707 53.7764 67.7883Z" fill="#4B2807" fill-opacity="0.5"/>
</g>
<g style="mix-blend-mode:multiply">
<path fill-rule="evenodd" clip-rule="evenodd" d="M41.5246 61.7814C41.5236 62.0751 41.4428 62.3657 41.2869 62.637C41.13 62.9101 40.9 63.1581 40.6101 63.3671C40.3201 63.576 39.9759 63.7418 39.5971 63.8549C39.2183 63.968 38.8123 64.0262 38.4022 64.0262C37.9922 64.0262 37.5862 63.968 37.2074 63.8549C36.8286 63.7418 36.4844 63.576 36.1944 63.3671C35.9045 63.1581 35.6745 62.9101 35.5176 62.637C35.3607 62.364 35.2799 62.0714 35.2799 61.7759L38.4022 61.7759L41.5246 61.7759L41.5246 61.7759H44.6469H47.7692C47.7692 62.0714 47.6885 62.364 47.5315 62.637C47.3746 62.9101 47.1446 63.1581 46.8547 63.3671C46.5648 63.576 46.2206 63.7418 45.8418 63.8549C45.4629 63.968 45.0569 64.0262 44.6469 64.0262C44.2369 64.0262 43.8308 63.968 43.452 63.8549C43.0732 63.7418 42.729 63.576 42.4391 63.3671C42.1491 63.1581 41.9191 62.9101 41.7622 62.637C41.6063 62.3657 41.5256 62.0751 41.5246 61.7814ZM53.7764 62.637C53.9333 62.364 54.014 62.0714 54.014 61.7759H50.8917L47.7694 61.7759C47.7694 62.0714 47.8501 62.364 48.007 62.637C48.1639 62.9101 48.3939 63.1581 48.6839 63.3671C48.9738 63.576 49.318 63.7418 49.6968 63.8549C50.0757 63.968 50.4817 64.0262 50.8917 64.0262C51.3017 64.0262 51.7077 63.968 52.0866 63.8549C52.4654 63.7418 52.8096 63.576 53.0995 63.3671C53.3895 63.1581 53.6194 62.9101 53.7764 62.637Z" fill="#4B2807" fill-opacity="0.5"/>
</g>
<g style="mix-blend-mode:multiply">
<path fill-rule="evenodd" clip-rule="evenodd" d="M37.2572 72.0186H41.1081H44.959H48.8098C48.8098 72.78 48.4041 73.5103 47.6819 74.0487C46.9598 74.5871 45.9803 74.8896 44.959 74.8896C43.9376 74.8896 42.9582 74.5871 42.236 74.0487C41.517 73.5127 41.1117 72.7865 41.1081 72.0288C41.1063 72.4023 41.0068 72.7721 40.815 73.1173C40.6215 73.4656 40.3378 73.7821 39.9802 74.0487C39.6226 74.3153 39.1981 74.5268 38.7309 74.6711C38.2637 74.8154 37.763 74.8896 37.2572 74.8896C36.7515 74.8896 36.2508 74.8154 35.7836 74.6711C35.3164 74.5268 34.8919 74.3153 34.5343 74.0487C34.1767 73.7821 33.893 73.4656 33.6995 73.1173C33.506 72.7689 33.4064 72.3956 33.4064 72.0186L37.2572 72.0186ZM56.2186 73.1173C56.4121 72.7689 56.5117 72.3956 56.5117 72.0186H52.6608L48.81 72.0186C48.81 72.3956 48.9096 72.7689 49.1031 73.1173C49.2966 73.4656 49.5803 73.7821 49.9378 74.0487C50.2954 74.3153 50.72 74.5268 51.1872 74.6711C51.6544 74.8154 52.1551 74.8896 52.6608 74.8896C53.1665 74.8896 53.6673 74.8154 54.1345 74.6711C54.6017 74.5268 55.0262 74.3153 55.3838 74.0487C55.7414 73.7821 56.0251 73.4656 56.2186 73.1173Z" fill="#4B2807" fill-opacity="0.5"/>
</g>
<path fill-rule="evenodd" clip-rule="evenodd" d="M24.0069 39.749H14.7023V47.8141C14.7023 59.8624 21.6809 70.2807 31.8165 75.2474C34.8543 71.3552 36.7072 66.1747 36.7072 60.4878C36.7072 50.8557 31.3919 42.6766 24.0069 39.749ZM65.9114 39.749H75.7662V47.8141C75.7662 60.0197 68.6041 70.5526 58.2532 75.4392C55.1256 71.5262 53.211 66.2687 53.211 60.4878C53.211 50.8557 58.5263 42.6765 65.9114 39.749Z" fill="#62401A"/>
<path d="M44.9462 8.03125C27.282 8.03125 12.9044 21.2445 12.411 37.7195C12.4024 37.8499 12.3979 37.9815 12.3979 38.1141V52.6138C12.3979 56.0553 15.369 58.8452 19.034 58.8452C22.699 58.8452 25.67 56.0553 25.67 52.6138V47.1535L25.67 52.9105C25.67 56.1881 28.4996 58.8452 31.9901 58.8452C35.4806 58.8452 38.3101 56.1881 38.3101 52.9105L38.3101 47.1535V52.6138C38.3101 56.0553 41.2812 58.8452 44.9462 58.8452C48.6112 58.8452 51.5822 56.0553 51.5822 52.6138L51.5822 52.9105C51.5822 56.1881 54.4118 58.8452 57.9023 58.8452C61.3928 58.8452 64.2223 56.1881 64.2223 52.9105V52.6265C64.2296 56.0621 67.1979 58.8452 70.8584 58.8452C74.5234 58.8452 77.4944 56.0553 77.4944 52.6138V38.1141C77.4944 37.9815 77.49 37.8499 77.4813 37.7195C76.988 21.2445 62.6103 8.03125 44.9462 8.03125Z" fill="#DBDBDB"/>
<path fill-rule="evenodd" clip-rule="evenodd" d="M44.9462 5.27783C26.9703 5.27783 12.398 19.8502 12.398 37.8261V39.448C12.398 39.4561 12.3979 39.4641 12.3979 39.4722V49.4557C12.3979 53.1207 15.369 56.0917 19.034 56.0917C22.6934 56.0917 25.6609 53.1298 25.67 49.4726V49.7719C25.67 53.2623 28.4996 56.0919 31.9901 56.0919C35.4805 56.0919 38.3101 53.2623 38.3101 49.7719V44.4H38.3102V49.4559C38.3102 53.1209 41.2813 56.0919 44.9463 56.0919C48.6113 56.0919 51.5823 53.1208 51.5823 49.4559V44.4L51.5823 49.7719C51.5823 53.2623 54.4119 56.0919 57.9024 56.0919C61.3928 56.0919 64.2224 53.2623 64.2224 49.7719V49.4855C64.2384 53.1369 67.2033 56.0919 70.8584 56.0919C74.5234 56.0919 77.4945 53.1208 77.4945 49.4559L77.4945 44.4V37.8261C77.4945 19.8502 62.9221 5.27783 44.9462 5.27783Z" fill="#FAFAFA"/>
<path d="M46.4104 55.2862C46.162 55.3954 45.8802 55.4529 45.5933 55.4529H44.8485C44.5616 55.4529 44.2798 55.3954 44.0313 55.2862L37.9253 52.6024C36.7811 52.0995 35.3647 52.7857 35.4482 53.7895C35.6761 56.5275 35.6716 58.6867 35.4444 61.4252C35.3612 62.4279 36.7761 63.1121 37.9191 62.6097L44.2699 59.8184C44.5184 59.7092 44.8002 59.6517 45.0871 59.6517H45.3547C45.6416 59.6517 45.9234 59.7092 46.1718 59.8184L52.5537 62.6234C53.6906 63.1231 55.0993 62.4488 55.0246 61.451C54.8183 58.6931 54.8088 56.5256 55.0168 53.7693C55.0922 52.7693 53.6803 52.0909 52.5409 52.5917L46.4104 55.2862Z" fill="#FFCEB9"/>
<path d="M41.3921 43.5182C38.1109 40.7551 38.3866 35.6118 41.9269 33.1895C44.2378 31.6084 47.3133 31.682 49.5376 33.3829C52.7155 35.8131 52.9409 40.5274 50.0277 43.2693C47.63 45.5259 43.9106 45.6391 41.3921 43.5182Z" fill="#FFD500"/>
<ellipse cx="42.0657" cy="38.807" rx="0.864113" ry="0.785557" fill="#512E0C"/>
<ellipse cx="48.8293" cy="38.807" rx="0.864113" ry="0.785557" fill="#512E0C"/>
<circle cx="30.2563" cy="29.9559" r="6.9129" fill="#FFD500"/>
<circle cx="30.2563" cy="29.9558" r="4.6086" fill="#323232"/>
<circle cx="31.9846" cy="28.612" r="1.72823" fill="white"/>
<circle cx="29.1042" cy="31.8763" r="1.15215" fill="white"/>
<circle cx="60.2122" cy="29.9559" r="6.9129" fill="#FFD500"/>
<circle cx="60.2122" cy="29.9558" r="4.6086" fill="#323232"/>
<circle cx="61.9404" cy="28.612" r="1.72823" fill="white"/>
<circle cx="59.0599" cy="31.8763" r="1.15215" fill="white"/>
<ellipse cx="25.6475" cy="40.273" rx="3.45645" ry="2.3043" fill="#FFCEB9"/>
<ellipse cx="64.8208" cy="40.273" rx="3.45645" ry="2.3043" fill="#FFCEB9"/>
<path d="M39.4609 30.9846C39.4609 37.9588 33.5395 43.6869 26.1414 43.6869C18.7432 43.6869 12.8218 37.9588 12.8218 30.9846C12.8218 24.0103 18.7432 18.2822 26.1414 18.2822C33.5395 18.2822 39.4609 24.0103 39.4609 30.9846Z" stroke="#323232" stroke-width="2"/>
<path d="M77.6465 30.9846C77.6465 37.9588 71.7251 43.6869 64.3269 43.6869C56.9287 43.6869 51.0073 37.9588 51.0073 30.9846C51.0073 24.0103 56.9287 18.2822 64.3269 18.2822C71.7251 18.2822 77.6465 24.0103 77.6465 30.9846Z" stroke="#323232" stroke-width="2"/>
<path d="M39.8246 29.9777C43.8997 29.2837 46.2912 29.2962 50.6438 29.9777V32.5069C46.4874 31.8744 44.1173 31.8655 39.8246 32.5069V29.9777Z" fill="#242424"/>
</svg>
