<svg width="28" height="28" viewBox="0 0 28 28" fill="none" xmlns="http://www.w3.org/2000/svg">
<path opacity="0.1" fill-rule="evenodd" clip-rule="evenodd" d="M14 3.5C5.35325 3.5 3.5 5.35325 3.5 14C3.5 22.6467 5.35325 24.5 14 24.5C22.6467 24.5 24.5 22.6467 24.5 14C24.5 5.35325 22.6467 3.5 14 3.5ZM17.7613 15.1866C18.6795 14.662 18.6795 13.338 17.7613 12.8134L12.5786 9.85187C11.7824 9.39687 10.7917 9.97181 10.7917 10.8889V17.1111C10.7917 18.0281 11.7824 18.6031 12.5786 18.1481L17.7613 15.1866Z" fill="white"/>
<path d="M3.5 14C3.5 5.35325 5.35325 3.5 14 3.5C22.6467 3.5 24.5 5.35325 24.5 14C24.5 22.6467 22.6467 24.5 14 24.5C5.35325 24.5 3.5 22.6467 3.5 14Z" stroke="white" stroke-width="2.33333"/>
<path d="M12.7166 10.2667L12.4339 10.1051C11.832 9.76125 11.0833 10.1958 11.0833 10.8889V17.1112C11.0833 17.8043 11.832 18.2388 12.4339 17.8949L12.7166 17.7334L17.6166 14.9334C18.3388 14.5207 18.3388 13.4793 17.6166 13.0667L12.7166 10.2667Z" stroke="white" stroke-width="2.33333" stroke-linecap="round" stroke-linejoin="round"/>
</svg>
