<svg width="44" height="44" viewBox="0 0 44 44" fill="none" xmlns="http://www.w3.org/2000/svg">
<rect width="43.5345" height="43.5345" rx="15.0119" fill="#F3C402"/>
<g clip-path="url(#clip0_89_5019)">
<path d="M30.6455 21.2632H27.127C26.6412 21.2632 26.2474 21.6572 26.2474 22.1428C26.2474 22.6283 26.6412 23.0224 27.127 23.0224H30.6455C31.1313 23.0224 31.5251 22.6283 31.5251 22.1428C31.5251 21.6572 31.1313 21.2632 30.6455 21.2632ZM30.6455 22.436H27.127C26.9649 22.436 26.8338 22.3049 26.8338 22.1428C26.8338 21.9806 26.9649 21.8496 27.127 21.8496H30.6455C30.8076 21.8496 30.9387 21.9806 30.9387 22.1428C30.9387 22.3049 30.8076 22.436 30.6455 22.436Z" fill="#394240"/>
<path d="M30.1506 25.8283L26.8447 24.625C26.3876 24.459 25.8833 24.6942 25.7171 25.1507C25.5511 25.6066 25.786 26.1115 26.2428 26.2778L29.5489 27.4814C30.0057 27.6473 30.51 27.4116 30.6763 26.9556C30.8425 26.4994 30.6074 25.9945 30.1506 25.8283ZM30.1256 26.7554C30.0702 26.9078 29.9019 26.9855 29.75 26.9307L26.4436 25.7271C26.2911 25.6717 26.2132 25.5037 26.2683 25.3515C26.3237 25.1991 26.492 25.1208 26.6442 25.1762L29.9503 26.3795C30.1025 26.4349 30.181 26.6032 30.1256 26.7554Z" fill="#394240"/>
<path d="M26.8443 19.6598L30.1505 18.4565C30.607 18.2905 30.8421 17.7854 30.6762 17.3294C30.5102 16.8729 30.0053 16.6372 29.5485 16.8031L26.2427 18.0067C25.7856 18.1727 25.5507 18.6779 25.7167 19.1344C25.8829 19.5906 26.3878 19.826 26.8443 19.6598ZM26.4432 18.5579L29.7494 17.3544C29.9015 17.2992 30.0698 17.3778 30.125 17.5303C30.1804 17.6827 30.1021 17.8505 29.9499 17.9059L26.6435 19.1092C26.491 19.1646 26.323 19.0863 26.2679 18.9338C26.2125 18.7814 26.2908 18.6137 26.4432 18.5579Z" fill="#394240"/>
<path d="M23.7643 12.8503C23.3268 12.6671 22.8228 12.7691 22.4862 13.1045L18.2896 17.3008C18.2896 17.3008 18.1659 17.4515 17.8911 17.4515C17.5373 17.4515 13.9329 17.4521 13.9329 17.4521C13.2847 17.4521 12.7601 17.9767 12.7601 18.6249V25.6612C12.7601 26.3094 13.2847 26.834 13.9329 26.834C13.9329 26.834 17.6531 26.834 17.8454 26.834C18.0377 26.834 18.17 26.8653 18.3353 27.0304C18.5004 27.1958 22.4862 31.1816 22.4862 31.1816C22.7108 31.4061 23.0107 31.5252 23.3154 31.5252C23.4667 31.5252 23.6188 31.4965 23.7643 31.4358C24.2029 31.2549 24.4882 30.8265 24.4882 30.3524V13.9337C24.4882 13.4596 24.2029 13.0312 23.7643 12.8503ZM14.5193 26.2476H13.9329C13.6092 26.2476 13.3465 25.9849 13.3465 25.6612V18.6243C13.3465 18.3004 13.6092 18.0379 13.9329 18.0379H14.5193V26.2476ZM16.2785 26.2476H15.1057V18.0379H16.2785V26.2476ZM23.9018 30.3524C23.9018 30.9388 23.2602 31.1769 22.729 30.6456C22.4038 30.3204 18.6242 26.5408 18.6242 26.5408C18.4043 26.3209 18.2028 26.2476 17.8914 26.2476H16.8649V18.0379H17.8914C18.2028 18.0379 18.331 18.0379 18.6242 17.7447C18.6242 17.7447 22.3672 14.0017 22.729 13.6399C23.2512 13.1174 23.9018 13.3555 23.9018 13.9331C23.9018 14.2445 23.9018 30.041 23.9018 30.3524Z" fill="#394240"/>
<path d="M16.2786 18.0381H15.1058V26.2477H16.2786V18.0381Z" fill="#ED2B2B"/>
<path d="M13.3466 18.624V25.6608C13.3466 25.9845 13.6093 26.2472 13.933 26.2472H14.5194V18.0376H13.933C13.6093 18.0376 13.3466 18.3 13.3466 18.624Z" fill="#FFEEA9"/>
<path d="M22.729 13.6398C22.3672 14.0013 18.6242 17.7446 18.6242 17.7446C18.331 18.0378 18.2029 18.0378 17.8915 18.0378H16.865V26.2474H17.8915C18.2029 26.2474 18.4043 26.3207 18.6242 26.5406C18.6242 26.5406 22.4039 30.3203 22.729 30.6455C23.2603 31.1767 23.9018 30.9387 23.9018 30.3523C23.9018 30.0409 23.9018 14.2444 23.9018 13.933C23.9018 13.3557 23.2512 13.1173 22.729 13.6398Z" fill="#FFEEA9"/>
<path d="M26.6439 19.1087L29.9503 17.9054C30.1025 17.85 30.1808 17.682 30.1253 17.5298C30.0702 17.3774 29.9016 17.2991 29.7498 17.3539L26.4436 18.5575C26.2912 18.6129 26.2129 18.7809 26.2683 18.9331C26.3234 19.0859 26.4914 19.1644 26.6439 19.1087Z" fill="#B4CCB9"/>
<path d="M30.6455 21.8496H27.1271C26.9649 21.8496 26.8339 21.9807 26.8339 22.1428C26.8339 22.305 26.9649 22.436 27.1271 22.436H30.6455C30.8076 22.436 30.9387 22.305 30.9387 22.1428C30.9387 21.9807 30.8076 21.8496 30.6455 21.8496Z" fill="#B4CCB9"/>
<path d="M29.9502 26.3793L26.6441 25.176C26.4916 25.1206 26.3236 25.1989 26.2682 25.3513C26.213 25.5038 26.291 25.6715 26.4435 25.7269L29.7499 26.9305C29.9021 26.9856 30.0701 26.9076 30.1255 26.7552C30.1809 26.6027 30.1024 26.435 29.9502 26.3793Z" fill="#B4CCB9"/>
<path opacity="0.2" d="M13.3466 18.6245V25.6613C13.3466 25.985 13.6093 26.2477 13.933 26.2477H14.5194V18.0381H13.933C13.6093 18.0381 13.3466 18.3005 13.3466 18.6245Z" fill="black"/>
</g>
<defs>
<clipPath id="clip0_89_5019">
<rect width="18.7649" height="18.7649" fill="white" transform="translate(12.7601 12.7603)"/>
</clipPath>
</defs>
</svg>
