<svg width="44" height="48" viewBox="0 0 44 48" fill="none" xmlns="http://www.w3.org/2000/svg">
<g filter="url(#filter0_d_128_14993)">
<path d="M8.76401 31.3794C7.55541 35.3325 6.95111 37.3091 7.11523 38.3627C7.52137 40.9701 10.0149 42.7161 12.6039 42.206C13.6502 41.9998 15.3009 40.756 18.6022 38.2682C19.5278 37.5707 19.9906 37.222 20.4711 37.0073C21.6256 36.4915 22.9404 36.4686 24.1121 36.9437C24.5999 37.1415 25.0745 37.4739 26.0239 38.1386C29.4101 40.5097 31.1032 41.6952 32.156 41.8647C34.7612 42.2842 37.1923 40.4522 37.5072 37.8323C37.6344 36.7735 36.9615 34.8192 35.6157 30.9107C35.2384 29.8149 35.0497 29.267 34.9941 28.7436C34.8603 27.4863 35.2448 26.2288 36.0587 25.2612C36.3976 24.8584 36.8604 24.5097 37.7859 23.8123C41.0873 21.3245 42.738 20.0806 43.2245 19.1317C44.4285 16.7836 43.4375 13.9054 41.0431 12.7963C40.0755 12.3481 38.0089 12.3842 33.8757 12.4563C32.717 12.4765 32.1376 12.4867 31.6227 12.3779C30.3855 12.1166 29.3084 11.3623 28.6397 10.2892C28.3613 9.84247 28.1727 9.29458 27.7954 8.1988C26.4496 4.29023 25.7766 2.33594 25.0245 1.58C23.1634 -0.290668 20.1198 -0.237542 18.3251 1.69694C17.5998 2.47867 16.9955 4.45525 15.7869 8.40841C15.4481 9.51669 15.2787 10.0708 15.0161 10.527C14.3853 11.6228 13.3351 12.4142 12.1078 12.7185C11.597 12.8452 11.0176 12.8553 9.85886 12.8755C5.72571 12.9477 3.65913 12.9838 2.70777 13.4654C0.353545 14.6574 -0.536458 17.5685 0.748744 19.8731C1.2681 20.8045 2.9612 21.99 6.3474 24.361C7.29673 25.0257 7.7714 25.3581 8.12408 25.7488C8.97134 26.6874 9.39947 27.9307 9.30965 29.1919C9.27227 29.7169 9.10285 30.2711 8.76401 31.3794Z" fill="url(#paint0_linear_128_14993)"/>
</g>
<defs>
<filter id="filter0_d_128_14993" x="0.159668" y="0.210938" width="43.5776" height="47.2728" filterUnits="userSpaceOnUse" color-interpolation-filters="sRGB">
<feFlood flood-opacity="0" result="BackgroundImageFix"/>
<feColorMatrix in="SourceAlpha" type="matrix" values="0 0 0 0 0 0 0 0 0 0 0 0 0 0 0 0 0 0 127 0" result="hardAlpha"/>
<feOffset dy="5.18927"/>
<feComposite in2="hardAlpha" operator="out"/>
<feColorMatrix type="matrix" values="0 0 0 0 1 0 0 0 0 0.720277 0 0 0 0 0.000989556 0 0 0 1 0"/>
<feBlend mode="normal" in2="BackgroundImageFix" result="effect1_dropShadow_128_14993"/>
<feBlend mode="normal" in="SourceGraphic" in2="effect1_dropShadow_128_14993" result="shape"/>
</filter>
<linearGradient id="paint0_linear_128_14993" x1="8.46184" y1="42.2805" x2="29.9798" y2="11.5497" gradientUnits="userSpaceOnUse">
<stop stop-color="#FFF2C2"/>
<stop offset="1" stop-color="#FFCF25"/>
</linearGradient>
</defs>
</svg>
