<svg width="55" height="56" viewBox="0 0 55 56" fill="none" xmlns="http://www.w3.org/2000/svg">
<path d="M42.7974 1.08406C45.0627 0.674647 47.4153 1.33994 49.2803 2.64194C49.9064 3.07845 51.1482 4.07339 51.2942 4.84405C51.3138 4.9449 51.3063 5.05478 51.234 5.13455C51.1226 5.25949 50.951 5.27153 50.796 5.26551C50.8577 5.24443 50.945 5.22336 50.9977 5.18724C51.0775 5.13305 51.073 5.04123 51.088 4.95393L51.0489 4.79588C50.9074 4.48581 50.7117 4.24348 50.4709 4.00716C50.4077 3.93039 50.3384 3.86718 50.2647 3.80095C50.0238 3.56011 49.7694 3.33584 49.5 3.12662C48.0942 2.04287 46.2955 1.31285 44.5133 1.27673C44.0015 1.26619 43.5048 1.3264 42.9991 1.39263L42.9464 1.355C43.0457 1.30081 43.0668 1.28877 43.1285 1.19394C43.0683 1.12019 42.8952 1.10965 42.7974 1.08557V1.08406Z" fill="url(#paint0_linear_218_39131)"/>
<path d="M42.0537 36.1026C41.1521 35.3711 40.544 34.5583 40.1511 33.464C40.0533 33.1901 39.9359 32.877 39.9073 32.585C39.8998 32.5082 39.8967 32.463 39.9479 32.4028L40.0397 32.4871C41.411 35.2627 43.3918 36.6324 46.2547 37.6018C47.0344 37.8652 47.8472 38.0804 48.5938 38.4297C50.5807 39.3584 51.7457 41.2429 52.6834 43.1394C52.9468 43.6662 53.1877 44.2021 53.4074 44.7485C53.4526 44.9125 53.4872 45.0902 53.5594 45.2437C53.582 45.3415 53.6001 45.4619 53.6949 45.5176C53.7672 45.5598 53.8439 45.5643 53.9222 45.5297C53.9975 45.4966 54.0441 45.4198 54.0848 45.3536L54.1359 45.3611C54.0261 45.7133 53.7672 45.4875 53.5941 45.6471L53.6061 45.6998C53.6949 45.7359 53.853 45.7479 53.9463 45.7193C54.1149 45.6666 54.3181 45.2919 54.4129 45.1459L54.446 45.1594C54.4295 45.2091 54.4144 45.2572 54.3933 45.3054C54.3045 45.5116 54.1555 45.763 53.9327 45.8458C53.561 45.9842 53.2885 45.4905 53.1606 45.2196C52.9784 44.8328 52.8264 44.4324 52.6443 44.0456C51.9218 42.5072 50.9871 40.8094 49.6399 39.7362C49.1176 39.3207 48.5486 39.0107 47.9511 38.7217C47.4303 39.5059 46.7921 40.266 46.1794 40.981C43.1706 44.4866 39.7944 46.7579 35.6084 48.6605C34.3727 49.2219 33.1324 49.7412 31.8334 50.1416C29.1376 50.9725 26.359 51.4286 23.6918 52.3768C22.1911 52.9097 20.7837 53.5584 19.3929 54.3321C18.839 54.6391 18.3302 55.0757 17.7462 55.321C17.4813 55.4324 17.0945 55.5257 16.819 55.3993C16.6655 55.33 16.5722 55.1901 16.518 55.0365C16.3298 54.5022 16.6008 53.8459 16.807 53.3537C18.1421 50.1506 21.1856 47.8793 23.7384 45.6727C25.1684 44.4354 26.5652 43.174 27.4247 41.4566C28.1095 40.0839 28.3052 38.9851 27.8145 37.528C27.8431 37.4949 27.8672 37.4618 27.8913 37.4257C27.8988 37.4136 27.9078 37.4001 27.9154 37.3881L27.9816 37.3745L28.0418 37.4167L28.1637 37.3384C28.388 37.4934 28.5882 37.6996 28.7643 37.9073L28.6378 37.8622C28.5957 37.8923 28.5656 37.8968 28.5536 37.951C28.5189 38.1015 28.6499 38.3815 28.5686 38.4868C28.814 40.2148 27.9771 41.9669 26.9656 43.317C25.6997 45.0059 23.9868 46.2341 22.3777 47.5677C20.9673 48.7358 19.4546 50.1792 18.3889 51.6679C18.0307 52.1676 17.6228 52.7592 17.403 53.3326C17.3187 53.4801 17.1727 53.718 17.1727 53.8896L17.2089 53.9197C17.2676 53.8896 17.3218 53.8579 17.3759 53.8218C17.3684 53.8369 17.3594 53.8534 17.3519 53.8685C17.3157 53.9317 17.2676 53.9723 17.2149 54.019C17.0267 54.1891 17.0102 54.3246 17.0011 54.5759C17.0011 54.5925 17.0011 54.6105 17.0011 54.6271C17.0313 54.737 17.0478 54.7987 17.1336 54.877C17.4783 54.9146 18.8947 53.9016 19.2725 53.6773C19.9438 53.2784 20.6663 52.9443 21.3828 52.6342C21.8057 52.4521 22.2468 52.285 22.6562 52.0743C23.1514 51.9087 23.6346 51.6995 24.1313 51.5324C25.1142 51.2088 26.1076 50.9258 27.1131 50.682L29.991 49.97C30.6202 49.8165 31.3171 49.684 31.9132 49.4327C31.9749 49.1617 32.6221 49.0308 32.8509 48.9134C34.3034 48.1698 35.8086 47.515 37.2295 46.7082C37.642 46.4704 38.0499 46.2251 38.4533 45.9707C38.8567 45.7163 39.254 45.4544 39.6454 45.185C40.0367 44.9141 40.4236 44.6371 40.8044 44.3511C41.1852 44.0651 41.56 43.7716 41.9288 43.4691C42.2975 43.168 42.6603 42.8595 43.0155 42.5419C43.3707 42.2258 43.7215 41.9021 44.0631 41.571C44.4063 41.2399 44.742 40.9027 45.0701 40.558C45.3983 40.2133 45.7204 39.8626 46.035 39.5044C46.3541 39.1401 46.7168 38.7894 47.0043 38.4026C46.7499 38.3589 46.4925 38.2626 46.2487 38.1783C45.8438 38.0549 45.4419 37.9224 45.0445 37.7809C44.0345 37.4618 42.9056 36.7318 42.0552 36.0981L42.0537 36.1026Z" fill="url(#paint1_linear_218_39131)"/>
<path d="M28.0415 37.4132L28.1635 37.335C28.3877 37.49 28.5879 37.6962 28.764 37.9039L28.6376 37.8588C28.5955 37.8889 28.5654 37.8934 28.5533 37.9476C28.5187 38.0981 28.6496 38.3781 28.5684 38.4834C28.46 38.077 28.2869 37.7534 28.04 37.4132H28.0415Z" fill="#AFB6CC"/>
<path d="M47.0032 38.4054C47.1086 38.4355 47.2305 38.4565 47.3178 38.5273C47.098 39.0571 46.2145 40.0656 45.8246 40.5247C42.7525 44.1357 38.994 46.6237 34.6305 48.427C33.7469 48.7912 32.8363 49.1826 31.9136 49.4324C31.9753 49.1615 32.6225 49.0306 32.8513 48.9132C34.3038 48.1696 35.809 47.5148 37.2299 46.708C37.6424 46.4702 38.0503 46.2249 38.4537 45.9705C38.8571 45.7161 39.2544 45.4542 39.6458 45.1848C40.0371 44.9138 40.424 44.6369 40.8048 44.3509C41.1856 44.0649 41.5604 43.7714 41.9292 43.4688C42.2979 43.1678 42.6607 42.8592 43.0159 42.5416C43.3712 42.2256 43.7219 41.9019 44.0635 41.5708C44.4067 41.2396 44.7424 40.9025 45.0705 40.5578C45.3987 40.2131 45.7208 39.8624 46.0354 39.5042C46.3545 39.1399 46.7172 38.7892 47.0047 38.4023L47.0032 38.4054Z" fill="#80D1E9"/>
<path d="M39.2707 31.3552C39.2707 31.3552 39.2707 31.3477 39.2707 31.3447C39.2768 31.3251 39.2843 31.3071 39.2903 31.2875C39.4258 30.8992 39.7298 30.5153 39.9375 30.1541C40.1573 29.7703 40.3439 29.3609 40.5246 28.9575C40.6179 28.7482 40.7549 28.0844 40.8888 27.958L40.8994 28.0784C40.7789 28.3253 40.7112 28.6022 40.6119 28.8596C40.4433 29.3006 40.2476 29.7281 40.0248 30.1451C40.0309 30.1526 40.0369 30.1601 40.0429 30.1676C40.2928 30.4867 40.4162 30.9473 40.5968 31.3131C41.0604 32.2569 41.8506 33.1479 42.6544 33.8177C43.41 34.4469 44.2665 35.0294 45.1425 35.4765C48.329 37.1081 51.0384 37.513 52.8491 41.0608C53.2254 41.7968 53.6048 42.7616 53.689 43.5895C53.7192 43.8815 53.6981 44.1675 53.689 44.4595C53.6936 44.7199 53.6228 44.9924 53.5581 45.2422C53.4858 45.0887 53.4497 44.9111 53.4061 44.747C53.1863 44.2006 52.9455 43.6648 52.6821 43.1379C51.7428 41.2414 50.5793 39.3569 48.5924 38.4282C47.8459 38.079 47.0331 37.8652 46.2534 37.6003C43.389 36.631 41.4096 35.2597 40.0384 32.4856L39.9466 32.4014C39.8954 32.4616 39.8984 32.5067 39.9059 32.5835C39.9345 32.8755 40.0504 33.1871 40.1498 33.4625C40.5426 34.5568 41.1507 35.3696 42.0523 36.1011C42.9028 36.7348 44.0317 37.4649 45.0417 37.784C45.4405 37.9254 45.8424 38.0579 46.2458 38.1813C46.4897 38.2656 46.7471 38.3619 47.0014 38.4056C46.714 38.7924 46.3512 39.1431 46.0321 39.5074C45.7175 39.8656 45.3954 40.2164 45.0673 40.561C44.7391 40.9057 44.402 41.2429 44.0603 41.574C43.7171 41.9052 43.3679 42.2288 43.0127 42.5449C42.6574 42.861 42.2947 43.1696 41.9259 43.4721C41.5571 43.7731 41.1823 44.0667 40.8015 44.3542C40.4207 44.6401 40.0339 44.9186 39.6425 45.188C39.2512 45.459 38.8523 45.7209 38.4504 45.9737C38.047 46.2281 37.6391 46.4735 37.2267 46.7113C35.8058 47.5181 34.3006 48.1713 32.848 48.9164C32.6193 49.0338 31.9735 49.1633 31.9103 49.4357C31.3142 49.6871 30.6158 49.818 29.9882 49.9731L27.1102 50.685C26.1048 50.9289 25.1113 51.2118 24.1284 51.5355C23.6317 51.701 23.1485 51.9118 22.6533 52.0773C22.2439 52.2881 21.8029 52.4536 21.3799 52.6373C20.6635 52.9458 19.941 53.28 19.2696 53.6804C18.8918 53.9046 17.4754 54.9176 17.1307 54.88C17.0465 54.8032 17.0284 54.74 16.9983 54.6302C16.9983 54.6136 16.9983 54.5955 16.9983 54.579C17.0088 54.3276 17.0254 54.1906 17.212 54.022C17.2647 53.9739 17.3144 53.9332 17.349 53.8715C17.358 53.8565 17.3656 53.8399 17.3731 53.8249C17.3189 53.8625 17.2647 53.8926 17.206 53.9227L17.1699 53.8926C17.1699 53.721 17.3159 53.4832 17.4002 53.3357C17.6199 52.7637 18.0278 52.1722 18.3861 51.6709C19.4518 50.1823 20.9645 48.7388 22.3749 47.5708C23.9839 46.2387 25.6968 45.0089 26.9627 43.3201C27.9757 41.9684 28.8111 40.2179 28.5658 38.4899C28.647 38.3845 28.5161 38.1046 28.5507 37.954C28.5627 37.8999 28.5928 37.8938 28.635 37.8652L28.7614 37.9104C28.5853 37.7027 28.3851 37.4965 28.1609 37.3414C29.2612 36.923 31.7191 37.4016 32.8616 37.6891C33.6232 37.8818 34.3713 38.1301 35.1209 38.365C33.9739 37.6455 32.681 37.1999 31.3534 36.9591C31.9585 36.9245 32.5636 36.8808 33.1687 36.8567C33.6864 36.8357 34.1967 36.8417 34.7145 36.7785C32.8631 36.5527 31.2751 36.6445 29.4282 36.7514C30.2696 36.5 31.102 36.1583 31.9284 35.8558C34.5113 34.909 37.6888 33.7711 39.2692 31.3613L39.2707 31.3552Z" fill="#255CA9"/>
<path d="M40.0413 32.4883C40.2219 32.565 40.4221 32.9097 40.5395 33.0723C41.2213 34.0161 41.9047 34.725 42.859 35.3978C44.3281 36.4334 46.0199 36.9843 47.7057 37.5473C50.6815 38.5392 52.0227 40.9039 53.1184 43.6388C53.2479 43.9609 53.4556 44.3989 53.4104 44.7496C53.1907 44.2033 52.9499 43.6674 52.6864 43.1406C51.7472 41.244 50.5837 39.3595 48.5968 38.4308C47.8502 38.0816 47.0374 37.8679 46.2577 37.603C43.3933 36.6336 41.414 35.2624 40.0428 32.4883H40.0413Z" fill="#738DB3"/>
<path d="M39.2705 31.3552C39.2705 31.3552 39.2705 31.3477 39.2705 31.3447C39.2765 31.3251 39.2841 31.3071 39.2901 31.2875C39.4256 30.8992 39.7296 30.5153 39.9373 30.1541C40.1571 29.7703 40.3437 29.3609 40.5244 28.9575C40.6177 28.7482 40.7547 28.0844 40.8886 27.958L40.8992 28.0784C40.7787 28.3253 40.711 28.6022 40.6117 28.8596C40.4431 29.3006 40.2474 29.7281 40.0246 30.1451L39.4241 31.1234C39.3714 32.311 39.3142 33.5002 39.0794 34.6682C39.0417 34.8563 39.0146 35.0686 38.9544 35.2492C38.8385 35.8182 38.533 37.0088 38.256 37.4904C38.1356 38.0263 37.7578 38.6208 37.4854 39.0965C37.1151 39.7437 36.7298 40.3849 36.2812 40.9825C34.8061 42.9468 32.4535 45.1007 30.3808 46.4042C29.4551 46.9852 28.5068 47.5256 27.533 48.0223C25.5988 49.0022 23.5939 49.8632 21.735 50.9846C20.6437 51.6423 19.6292 52.407 18.6568 53.2258C18.1104 53.6864 17.5731 54.2057 16.9966 54.6241C16.9966 54.6076 16.9966 54.5895 16.9966 54.573C17.0071 54.3216 17.0237 54.1846 17.2103 54.016C17.263 53.9679 17.3127 53.9272 17.3473 53.8655C17.3563 53.8505 17.3639 53.8339 17.3714 53.8188C17.5008 53.6111 18.4596 52.9082 18.7155 52.6839C21.4279 50.3102 24.4548 49.1091 27.5917 47.4835C30.7376 45.8533 34.2191 43.1214 36.3113 40.2495C36.5145 39.971 36.7087 39.6865 36.8953 39.396C37.0805 39.1055 37.2581 38.809 37.4252 38.508C37.5922 38.2069 37.7503 37.8999 37.8993 37.5883C38.0483 37.2767 38.1868 36.9621 38.3147 36.6415C38.3448 36.3615 38.5224 36.0063 38.6173 35.7369C38.6624 35.4012 38.8084 35.037 38.8852 34.7013C39.0131 34.1353 39.4286 31.7963 39.266 31.3537L39.2705 31.3552Z" fill="#22235C"/>
<path d="M46.2469 38.1826C46.4908 38.2669 46.7481 38.3632 47.0025 38.4069C46.715 38.7937 46.3523 39.1444 46.0332 39.5087C45.7186 39.8669 45.3965 40.2176 45.0683 40.5623C44.7402 40.907 44.403 41.2442 44.0614 41.5753C43.7182 41.9065 43.369 42.2301 43.0137 42.5462C42.6585 42.8623 42.2958 43.1709 41.927 43.4734C41.5582 43.7744 41.1834 44.0679 40.8026 44.3554C40.4218 44.6414 40.035 44.9199 39.6436 45.1893C39.2523 45.4603 38.8534 45.7222 38.4515 45.975C38.0481 46.2294 37.6402 46.4748 37.2278 46.7126C35.8068 47.5194 34.3016 48.1726 32.8491 48.9177C32.6203 49.0351 31.9746 49.1646 31.9114 49.437C31.3153 49.6884 30.6169 49.8193 29.9893 49.9744L27.1113 50.6863C26.1058 50.9302 25.1124 51.2131 24.1295 51.5368C23.6328 51.7023 23.1496 51.913 22.6544 52.0786C22.3504 52.0455 22.0012 52.3315 21.7031 52.4098C21.816 52.2743 22.1532 52.1765 22.3203 52.0892C22.8546 51.8107 23.3905 51.5322 23.9459 51.2929C25.4947 50.6276 27.1249 50.1505 28.7279 49.6402C30.2527 49.154 31.8045 48.6076 33.2676 47.9559C34.1075 47.5736 34.9323 47.1626 35.7451 46.7261C36.5564 46.2881 37.3542 45.823 38.1339 45.3323C39.0099 44.7889 39.8844 44.2395 40.7018 43.6119C42.0113 42.6064 43.2471 41.4489 44.391 40.2613C44.8079 39.8278 46.0136 38.6417 46.2469 38.1901V38.1826Z" fill="#258ECD"/>
<path d="M42.0539 36.1025C42.9043 36.7362 44.0332 37.4662 45.0432 37.7854C42.1322 41.9427 38.6522 44.3721 34.1531 46.5772C32.955 47.1643 31.5431 47.8416 30.2817 48.251C30.7002 47.8657 31.2285 47.5315 31.6831 47.1823C32.3198 46.6916 32.9354 46.1603 33.5465 45.6365C34.9554 44.4263 36.2619 43.0867 37.5534 41.7546C38.8584 40.4074 41.4578 37.8305 42.0554 36.104L42.0539 36.1025Z" fill="url(#paint2_linear_218_39131)"/>
<path d="M39.2707 31.355C39.4333 31.796 39.0178 34.1351 38.8899 34.7025C38.8146 35.0382 38.6671 35.4025 38.622 35.7381C38.5271 36.0076 38.3495 36.3628 38.3194 36.6427C38.19 36.9619 38.0515 37.2779 37.904 37.5895C37.755 37.9011 37.5984 38.2066 37.4298 38.5092C37.2628 38.8102 37.0866 39.1068 36.9 39.3973C36.7149 39.6878 36.5192 39.9722 36.316 40.2507C34.2238 43.1211 30.7422 45.8546 27.5964 47.4847C24.4595 49.1103 21.4326 50.3115 18.7202 52.6852C18.4643 52.9094 17.504 53.6109 17.3761 53.8201C17.3219 53.8577 17.2677 53.8878 17.209 53.9179L17.1729 53.8878C17.1729 53.7162 17.3189 53.4784 17.4031 53.3309C17.6229 52.7589 18.0308 52.1674 18.3891 51.6661C19.4547 50.1775 20.9675 48.734 22.3778 47.566C23.9869 46.2339 25.6998 45.0041 26.9657 43.3153C27.9787 41.9636 28.8141 40.2131 28.5687 38.4851C28.65 38.3797 28.519 38.0998 28.5537 37.9493C28.5657 37.8951 28.5958 37.8891 28.638 37.8605L28.7644 37.9056C28.5883 37.6979 28.3881 37.4917 28.1638 37.3366C29.2641 36.9182 31.7221 37.3969 32.8646 37.6843C33.6262 37.877 34.3743 38.1254 35.1239 38.3602C33.9769 37.6407 32.6839 37.1952 31.3564 36.9543C31.9614 36.9197 32.5665 36.8761 33.1716 36.852C33.6894 36.8309 34.1997 36.8369 34.7175 36.7737C32.8661 36.5479 31.2781 36.6397 29.4312 36.7466C30.2726 36.4952 31.105 36.1536 31.9313 35.851C34.5143 34.9042 37.6917 33.7663 39.2722 31.3565L39.2707 31.355Z" fill="#738DB3"/>
<path d="M28.5704 38.4835C28.6517 38.3782 28.5207 38.0982 28.5553 37.9477C28.5674 37.8935 28.5975 37.8875 28.6396 37.8589L28.7661 37.904C28.9046 38.0139 29.025 38.1915 29.1078 38.3481C29.1288 38.3511 29.1484 38.3541 29.1695 38.3571C29.4464 38.4083 29.8634 38.8975 30.0154 39.1353C30.4278 39.778 30.4203 40.5682 30.2562 41.2907C29.7023 43.7397 27.6312 45.7371 25.5735 47.0195C23.4798 48.323 21.1016 49.2216 19.3872 51.064C18.9055 51.5818 18.5006 52.1643 18.0897 52.7378C17.9873 52.8823 17.6697 53.3895 17.4966 53.3941C17.4921 53.3444 17.4906 53.3022 17.4921 53.2541L17.4425 53.3429L17.4033 53.3293C17.6231 52.7574 18.031 52.1658 18.3892 51.6646C19.4549 50.1759 20.9676 48.7324 22.378 47.5644C23.9871 46.2323 25.7 45.0026 26.9659 43.3137C27.9789 41.9621 28.8142 40.2115 28.5689 38.4835H28.5704Z" fill="url(#paint3_linear_218_39131)"/>
<path d="M12.5097 29.8844C9.53094 29.7234 6.01479 29.0897 3.30995 27.8088C1.91463 27.148 0.713482 26.1786 0.186662 24.684C-0.0135296 24.1165 -0.102336 23.4587 0.176126 22.9003C0.710471 21.8271 2.04859 21.7142 3.07966 21.5215C3.53272 21.4388 3.97525 21.3229 4.41025 21.1708C6.10812 20.5748 7.82856 19.6927 9.19829 18.5157C9.47675 18.2763 9.79435 18.0009 9.97497 17.6743C10.3663 16.9713 10.7246 14.3568 10.9293 13.4085C11.2258 12.0403 11.6668 10.6615 12.2749 9.39867C14.1745 5.45203 17.5491 2.6042 21.6613 1.16372C27.646 -0.933024 33.0813 -0.0524822 38.7002 2.64484C39.7659 1.90127 41.4969 1.19533 42.7974 1.08394C42.8952 1.10803 43.0683 1.11856 43.1285 1.19232C43.0668 1.28564 43.0457 1.29919 42.9464 1.35337L42.9991 1.391C43.5048 1.32478 44.003 1.26457 44.5133 1.2751C46.2954 1.31123 48.0942 2.04125 49.5 3.12499C49.7679 3.33422 50.0223 3.55849 50.2647 3.79932C50.3384 3.86555 50.4076 3.93028 50.4709 4.00554C50.7132 4.24185 50.9074 4.48419 51.0489 4.79426L51.088 4.95231C51.0729 5.0381 51.0775 5.13143 50.9977 5.18561C50.945 5.22174 50.8562 5.24281 50.796 5.26388C49.4022 5.14497 48.201 5.21421 47.0872 6.15948C46.3662 6.77209 45.8604 7.59092 45.4089 8.41126C49.2501 13.4236 51.2385 19.9802 51.4176 26.2539C51.4673 27.9849 51.3499 29.7294 51.1633 31.4483C51.7036 31.9932 52.1567 32.6224 52.5706 33.2666C52.6715 33.4232 52.7678 33.5812 52.8626 33.7408C52.9575 33.9003 53.0493 34.0614 53.1366 34.2254C53.2254 34.388 53.3112 34.5536 53.394 34.7191C53.4768 34.8847 53.5565 35.0533 53.6333 35.2219C53.7101 35.3905 53.7838 35.5605 53.8531 35.7321C53.9238 35.9037 53.99 36.0768 54.0547 36.2514C54.1195 36.426 54.1797 36.6006 54.2384 36.7767C54.2956 36.9529 54.3513 37.1305 54.4025 37.3081C54.4536 37.4857 54.5018 37.6648 54.547 37.8454C54.5921 38.0261 54.6327 38.2067 54.6719 38.3873C54.7095 38.5694 54.7456 38.7516 54.7772 38.9337C54.8089 39.1158 54.8375 39.2995 54.863 39.4831C54.8886 39.6667 54.9097 39.8519 54.9278 40.0355C54.9458 40.2206 54.9609 40.4043 54.9729 40.5909C54.985 40.7761 54.9925 40.9612 54.9985 41.1463C55.003 41.3315 55.0045 41.5166 55.003 41.7033C55 42.5597 54.8781 44.4909 54.4506 45.1562L54.4175 45.1427C54.3227 45.2887 54.1195 45.665 53.9509 45.7161C53.8576 45.7447 53.6995 45.7327 53.6107 45.6966L53.5987 45.6439C53.7718 45.4843 54.0322 45.7101 54.1405 45.3579L54.0894 45.3504C54.0487 45.4166 54.0021 45.4934 53.9268 45.5265C53.85 45.5611 53.7733 45.5566 53.6995 45.5144C53.6032 45.4587 53.5866 45.3383 53.5641 45.2405C53.6288 44.9906 53.698 44.7167 53.695 44.4578C53.704 44.1658 53.7236 43.8783 53.695 43.5878C53.6107 42.7599 53.2299 41.7951 52.8551 41.059C51.0443 37.5113 48.335 37.1064 45.1485 35.4748C44.2725 35.0262 43.416 34.4437 42.6604 33.816C41.8566 33.1477 41.0664 32.2551 40.6028 31.3114C40.4222 30.9441 40.2987 30.485 40.0489 30.1659C40.0428 30.1584 40.0368 30.1509 40.0308 30.1433C40.2521 29.7264 40.4477 29.2989 40.6178 28.8579C40.7157 28.6005 40.7849 28.3235 40.9053 28.0767L40.8948 27.9563C40.7608 28.0827 40.6239 28.7465 40.5305 28.9557C40.3499 29.3591 40.1633 29.77 39.9435 30.1524C39.7358 30.5136 39.4317 30.8959 39.2963 31.2858C39.2902 31.3053 39.2812 31.3234 39.2767 31.343C39.2767 31.346 39.2767 31.3505 39.2767 31.3535C37.6962 33.7618 34.5203 34.9013 31.9358 35.848C31.1095 36.1506 30.2771 36.4923 29.4357 36.7436C31.2826 36.6368 32.8706 36.5434 34.722 36.7707C34.2057 36.8339 33.6954 36.8294 33.1761 36.849C32.571 36.8731 31.9659 36.9167 31.3609 36.9514C32.6884 37.1922 33.9814 37.6362 35.1284 38.3572C34.3788 38.1224 33.6307 37.8725 32.8691 37.6814C31.7281 37.3939 29.2701 36.9152 28.1683 37.3337L28.0464 37.4119L27.9862 37.3698L27.92 37.3833C27.9124 37.3954 27.9049 37.4089 27.8959 37.421C27.8718 37.4586 27.8477 37.4902 27.8191 37.5233C27.8026 37.5053 27.792 37.4782 27.7694 37.4706C27.7047 37.4496 26.3726 38.0697 26.2326 38.1344C25.3416 38.5469 24.446 38.9758 23.579 39.4379C20.8937 40.8679 16.8312 43.3138 13.7064 42.6877C13.0697 42.5597 12.448 42.2722 12.0792 41.7168C10.5996 39.4816 13.3572 36.408 13.8117 34.1878C14.1384 32.5908 13.3587 31.1744 12.5127 29.8829L12.5097 29.8844Z" fill="url(#paint4_linear_218_39131)"/>
<path d="M27.9365 20.2875C28.0494 20.277 28.1051 20.2845 28.2135 20.3251C28.5461 20.447 28.9405 20.3387 29.2882 20.3342C29.0805 20.4967 28.784 20.6126 28.5476 20.736C28.3354 20.5961 28.1367 20.444 27.9365 20.2875Z" fill="#1A77BC"/>
<path d="M28.0311 20.7402L28.311 20.9209C27.9934 21.1 27.6307 21.2972 27.3627 21.547L27.2318 21.6208C27.1189 21.6148 27.0828 21.5771 26.991 21.5154C27.3402 21.3212 27.7646 21.0398 28.0311 20.7402Z" fill="#1A77BC"/>
<path d="M8.68799 19.5721C9.06881 19.256 9.4737 18.9685 9.8184 18.6133C9.63627 18.958 9.42704 19.414 9.1546 19.6925C8.7783 19.9394 8.37942 20.4436 7.95947 20.5685C8.1988 20.3382 8.73616 20.0628 8.81894 19.7316C8.78733 19.6383 8.76626 19.6323 8.68648 19.5721H8.68799Z" fill="#62CAEB"/>
<path d="M11.9873 29.4013C12.6376 29.3637 13.3269 29.4555 13.9817 29.46C14.9405 29.4675 15.8933 29.3847 16.8476 29.2944L16.8416 29.3456C16.5405 29.4088 16.238 29.4164 15.9354 29.4886L16.0243 29.4841C15.0218 29.7129 13.5708 29.5789 12.5367 29.4826C12.3666 29.466 12.1724 29.4826 12.0099 29.4299L11.9888 29.4013H11.9873Z" fill="#1C132C"/>
<path d="M17.8938 38.8536C17.8848 38.8641 17.8758 38.8747 17.8652 38.8822C17.4649 39.2013 15.901 39.7778 15.3711 39.7101C15.2191 39.6905 15.0626 39.6393 14.9737 39.5069C14.7721 39.2058 14.8744 38.7106 14.9361 38.3765C14.9421 38.5074 14.9451 38.6369 14.9692 38.7663C14.9722 38.9424 14.9436 39.2164 15.1002 39.3398C15.1694 39.3955 15.2612 39.4301 15.3425 39.4662C16.3344 39.5264 17.1337 39.0869 17.9796 38.6293C17.8953 38.8265 17.4197 38.9981 17.2225 39.114C17.3971 39.0372 17.7117 38.8416 17.8923 38.8506L17.8938 38.8536Z" fill="#DF4C4A"/>
<path d="M27.4517 19.3691C27.682 19.7274 27.8957 19.9216 28.3277 20.0149C28.9012 20.1383 29.2112 19.9757 29.732 19.9592C29.9593 19.9216 30.1881 19.8478 30.4124 19.7906L30.292 19.9622C29.9593 20.0886 29.6267 20.2241 29.288 20.334C28.9403 20.337 28.5444 20.4469 28.2133 20.3249C28.1064 20.2858 28.0507 20.2768 27.9363 20.2873C27.852 20.209 27.7813 20.1353 27.7121 20.0435C27.6443 19.7936 27.4742 19.6491 27.4517 19.3706V19.3691Z" fill="#62CAEB"/>
<path d="M1.21143 22.4727C1.62987 22.247 1.99563 22.1446 2.46676 22.0874C2.26356 22.3042 2.03477 22.557 2.04681 22.8746C2.04982 22.9499 2.07089 23.0266 2.08896 23.0989C2.04982 23.2434 1.99262 23.3789 1.91736 23.5083C1.84813 23.4677 1.78039 23.4285 1.71416 23.3834C1.377 23.1561 1.28819 22.846 1.21143 22.4712V22.4727Z" fill="white"/>
<path d="M12.9598 29.9028L13.4249 29.9375C13.9848 30.952 14.3401 31.2816 14.4755 32.5038C14.4891 32.6438 14.5056 32.7838 14.5086 32.9253C14.3792 32.7582 14.4198 32.4421 14.4033 32.2299C14.3958 32.135 14.3762 32.0583 14.3024 31.9951L14.1474 32.0357C14.2091 32.2765 14.2738 32.5144 14.31 32.7612L14.2648 32.8064C14.176 32.5399 14.1474 32.2524 14.0631 31.983C13.8298 31.241 13.3993 30.5365 12.9568 29.9028H12.9598Z" fill="#AFB6CC"/>
<path d="M21.3393 30.9125C21.5335 30.8974 21.7291 30.9095 21.9233 30.917C21.0021 31.7388 20.1577 32.7323 19.4743 33.7603C19.1929 34.1833 18.9505 34.6333 18.6661 35.0518C18.6465 34.7839 18.7955 34.5265 18.9084 34.2886C19.0303 34.0328 19.1643 33.7829 19.3103 33.5406C19.4563 33.2982 19.6143 33.0634 19.7844 32.8361C20.0463 32.4869 21.3047 31.1774 21.3378 30.9125H21.3393Z" fill="url(#paint5_linear_218_39131)"/>
<path d="M45.0234 7.89607C45.3079 7.04865 45.9657 6.14252 46.6837 5.60968C48.0113 4.62377 49.4803 4.55453 51.0473 4.79536L51.0864 4.95341C51.0758 4.95341 51.0668 4.95491 51.0563 4.95642C50.6454 4.99104 50.2119 4.87363 49.7979 4.86009C48.4463 4.81794 47.212 5.42755 46.3345 6.43302C46.065 6.74159 45.7866 7.09079 45.5773 7.44451C45.484 7.60256 45.4148 7.78168 45.3109 7.9337C45.2718 7.99241 45.2327 8.03305 45.1664 8.06014C45.0927 8.01499 45.0686 7.96983 45.0234 7.89758V7.89607Z" fill="#31ACDE"/>
<path d="M10.5964 17.486C10.6581 17.0676 10.8312 16.6446 10.9125 16.2247C11.3084 14.1987 11.7434 11.2093 12.8 9.44824C12.782 9.55963 12.7594 9.66499 12.7278 9.77337C12.7323 9.87722 12.7308 9.97958 12.7564 10.0804C12.806 10.2746 12.6856 10.6238 12.6013 10.8044L12.6344 10.8466C12.2581 11.8189 11.9406 12.7868 11.6952 13.7998C11.5206 14.5178 11.3656 15.2418 11.2 15.9627C11.1082 16.3646 11.0239 16.7996 10.8839 17.1865C10.774 17.489 10.61 17.8006 10.47 18.0911C10.485 17.8819 10.5964 17.7058 10.5964 17.483V17.486Z" fill="#62CAEB"/>
<path d="M8.68763 19.5728C8.76741 19.633 8.78848 19.639 8.82009 19.7323C8.7373 20.0634 8.19995 20.3389 7.96062 20.5692C6.7971 21.4121 5.55681 21.966 4.16752 22.3047C3.62715 22.4371 3.08227 22.5365 2.54491 22.684L2.49072 22.6674C2.60813 22.4236 2.88358 22.2279 3.1199 22.109C3.63317 21.8516 4.26836 21.7433 4.81475 21.5491C5.15794 21.4287 5.49661 21.2962 5.83076 21.1532C6.16492 21.0102 6.49455 20.8552 6.81817 20.6911C7.14179 20.5255 7.46089 20.3494 7.77247 20.1628C8.08405 19.9761 8.3896 19.779 8.68914 19.5728H8.68763Z" fill="white"/>
<path d="M21.4399 31.891C21.6085 31.6924 21.8057 31.5042 21.9954 31.3266C23.0008 30.3828 23.9943 29.9373 25.3775 29.9809C25.6274 30.0156 25.8773 30.0381 26.1271 30.0637C24.217 33.0651 22.1444 36.2531 19.0738 38.1903C18.7065 38.4221 18.2971 38.6946 17.8937 38.8556C17.7116 38.8466 17.3985 39.0423 17.2239 39.119C17.4211 39.0016 17.8967 38.8315 17.981 38.6343C18.0999 38.5064 18.562 38.2656 18.7396 38.1467C19.0467 37.9435 19.3432 37.7237 19.6277 37.4889C21.017 36.3525 22.3671 34.8653 23.3591 33.3737C23.6481 32.9402 23.8889 32.4705 24.1659 32.028C24.3239 31.7751 24.7649 31.2167 24.7529 30.9368C24.7499 30.8615 24.7198 30.8118 24.6656 30.7621C24.5166 30.6252 24.1945 30.6387 24.0018 30.6462C23.1077 30.6824 22.2347 31.2905 21.6341 31.9302L21.443 31.891H21.4399Z" fill="url(#paint6_linear_218_39131)"/>
<path d="M46.1058 29.2119C49.0891 30.0142 50.9751 31.4441 52.524 34.1294C53.5972 35.9898 54.3302 38.219 54.5274 40.3594C54.5876 41.0082 54.5756 41.6569 54.568 42.3072L54.5018 42.3568C54.4295 42.1581 54.4792 41.8887 54.4461 41.672C54.4446 41.6599 54.4416 41.6494 54.4401 41.6373C54.4401 41.6133 54.4401 41.5877 54.4401 41.5636C54.3468 38.9024 53.388 36.2231 51.9159 34.0195C51.6013 33.5484 51.2807 33.0622 50.8622 32.6769C50.808 32.5083 50.4814 32.2599 50.3429 32.1335C49.7198 31.5645 48.9988 31.0392 48.2582 30.6298C47.7976 30.3754 46.1525 29.7478 45.9297 29.5069L45.9508 29.4783L46.1058 29.4904L46.1359 29.4527L46.1073 29.2119H46.1058Z" fill="#80D1E9"/>
<path d="M14.1488 32.0348L14.3038 31.9941C14.3776 32.0574 14.3972 32.1341 14.4047 32.229C14.4212 32.4397 14.3806 32.7558 14.51 32.9244C14.5973 33.7974 14.4438 34.6689 14.1533 35.4922C13.762 36.6016 12.7249 38.191 12.7068 39.3034C12.7008 39.6375 12.8092 39.9672 13.0696 40.1869C13.5196 40.5663 14.2075 40.5437 14.7584 40.482C16.3991 40.2968 17.8681 39.4885 19.2258 38.6035C19.1837 38.9512 18.6223 39.5803 18.8676 39.8799C18.9414 39.9687 19.0362 39.9898 19.1446 40.0063C19.1912 40.0123 19.1686 40.0078 19.2153 40.0259C18.9414 40.202 18.6358 40.3209 18.3588 40.491C18.121 40.637 17.8335 40.7288 17.5731 40.8312C16.3735 41.3023 14.8457 41.7463 13.5542 41.4227C13.05 41.2963 12.609 41.0073 12.3441 40.5512C12.2447 40.3796 12.1198 40.1659 12.1138 39.9657C12.1123 39.913 12.1077 39.8603 12.1047 39.8076C12.1198 39.344 12.2763 38.8609 12.4359 38.4289C13.1629 36.4661 14.4875 35.0331 14.2677 32.8069L14.3129 32.7618C14.2767 32.5149 14.212 32.2771 14.1503 32.0363L14.1488 32.0348Z" fill="white"/>
<path d="M17.0059 29.7547C17.1338 29.7397 17.2618 29.7276 17.3882 29.7065C17.76 30.6112 17.8172 31.5083 17.7901 32.4731C17.6576 32.6266 17.5116 32.7787 17.3957 32.9457C17.3882 32.9518 17.3792 32.9563 17.3716 32.9638C17.1067 33.2227 16.8749 33.5749 16.6612 33.8775C15.7204 35.202 14.5118 37.2672 14.4862 38.9033C14.4786 39.3774 14.6126 39.7327 14.9422 40.0698C14.5584 40.118 14.1385 40.1662 13.7622 40.0563C13.5168 39.9856 13.294 39.8471 13.1796 39.6108C12.7883 38.7964 14.1114 36.3099 14.4199 35.3781C14.7074 34.5126 14.9076 33.3612 14.4771 32.5032C14.3402 31.281 13.9864 30.9513 13.4265 29.9368C14.6201 29.9414 15.8258 29.9594 17.0059 29.7547Z" fill="#6C6F8C"/>
<path d="M27.4321 26.1392C27.4427 26.1316 27.4517 26.1256 27.4622 26.1181C27.7723 25.8998 28.8425 24.7995 29.1195 24.8206C29.1631 24.9772 28.9735 25.2421 28.8937 25.3851C28.4948 26.0955 28.0568 26.7804 27.6474 27.4848C27.4156 27.8822 26.3559 29.845 26.1271 30.0617C25.8773 30.0361 25.6259 30.0136 25.3775 29.9789C25.5281 29.9594 25.8035 29.997 25.9224 29.9157C24.929 29.7185 23.9265 29.7261 23.0234 30.2363C22.8097 30.3567 22.5447 30.5991 22.3205 30.6713C22.1684 30.7195 21.8162 30.6141 21.6461 30.5976C20.8198 30.5178 19.855 30.861 19.1791 31.3156C18.9262 31.4856 18.6779 31.6828 18.4551 31.892C18.2022 32.1284 17.6634 32.8388 17.3955 32.9442C17.5114 32.7771 17.6559 32.6251 17.7898 32.4715C17.8184 31.5067 17.7612 30.6096 17.3879 29.705C17.2615 29.7261 17.1336 29.7381 17.0056 29.7532C17.0553 29.7215 17.111 29.6839 17.1682 29.6674C17.2645 29.6403 17.3879 29.6403 17.4752 29.6899L17.4722 29.7005C17.698 29.5409 19.1927 29.3528 19.6141 29.2549C20.8258 28.9735 22.0495 28.6363 23.2281 28.2389C23.6556 28.0944 24.071 27.8897 24.497 27.7558C25.2285 27.527 26.7473 26.5832 27.3855 26.1151L27.4321 26.1377V26.1392Z" fill="#631216"/>
<path d="M17.0055 29.7543C17.0551 29.7227 17.1108 29.685 17.168 29.6685C17.2643 29.6414 17.3878 29.6414 17.4751 29.6911L17.4721 29.7016C17.6978 29.542 19.1925 29.3539 19.614 29.2561C20.8256 28.9746 22.0494 28.6374 23.2279 28.24C23.6554 28.0955 24.0709 27.8908 24.4968 27.7569C25.2284 27.5281 26.7471 26.5843 27.3853 26.1162L27.432 26.1388C27.2423 26.3977 26.7787 26.6205 26.5063 26.786C25.0237 27.6952 23.4914 28.2431 21.8311 28.7322C20.5306 29.1161 19.2226 29.4322 17.8815 29.6369C17.7641 29.6549 17.6452 29.6715 17.5263 29.6865C17.9312 30.6815 18.0516 31.3076 17.9101 32.3703C18.6386 31.4627 19.8096 30.7026 20.9822 30.5716C21.4112 30.5234 21.8672 30.534 22.2902 30.6168C23.395 29.8943 24.3584 29.53 25.6995 29.822C25.7898 29.8416 25.847 29.8551 25.9192 29.9153C24.9258 29.7182 23.9234 29.7257 23.0202 30.2359C22.8065 30.3564 22.5416 30.5987 22.3173 30.6709C22.1653 30.7191 21.8131 30.6137 21.643 30.5972C20.8166 30.5174 19.8518 30.8606 19.176 31.3152C18.9231 31.4853 18.6747 31.6824 18.4519 31.8917C18.1991 32.128 17.6602 32.8384 17.3923 32.9438C17.5082 32.7767 17.6527 32.6247 17.7867 32.4712C17.8152 31.5063 17.7581 30.6092 17.3848 29.7046C17.2583 29.7257 17.1304 29.7377 17.0024 29.7528L17.0055 29.7543Z" fill="#1C132C"/>
<path d="M28.9826 24.1152C28.3324 24.5547 26.5668 25.2501 25.7705 25.5301C25.5628 25.6039 25.3536 25.6761 25.1443 25.7454C24.9351 25.8146 24.7244 25.8838 24.5137 25.9486C24.3029 26.0148 24.0922 26.078 23.88 26.1397C23.6677 26.2014 23.4555 26.2616 23.2418 26.3188C23.028 26.376 22.8143 26.4317 22.6006 26.4859C22.3868 26.5386 22.1716 26.5913 21.9563 26.6394C21.7411 26.6891 21.5258 26.7358 21.3091 26.7809C21.0923 26.8261 20.8771 26.8682 20.6588 26.9104C20.4421 26.951 20.2238 26.9902 20.0071 27.0263C19.7888 27.0624 19.5706 27.097 19.3523 27.1301C19.1341 27.1618 18.9158 27.1934 18.6961 27.2205C18.4763 27.2491 18.2581 27.2746 18.0383 27.2987C17.8185 27.3228 17.5988 27.3439 17.379 27.3634C17.1593 27.383 16.9395 27.4011 16.7182 27.4161C16.4985 27.4312 16.2772 27.4447 16.0575 27.4553C15.8377 27.4658 15.6164 27.4748 15.3952 27.4824C15.1739 27.4884 14.9541 27.4929 14.7329 27.4959C14.5116 27.4989 14.2919 27.4989 14.0706 27.4959C13.8493 27.4944 13.6296 27.4899 13.4083 27.4839C13.187 27.4778 12.9673 27.4688 12.746 27.4583C12.5247 27.4477 12.305 27.4357 12.0852 27.4206C11.8655 27.4056 11.6442 27.389 11.4244 27.3695C11.2047 27.3499 10.9849 27.3288 10.7652 27.3062C10.5454 27.2837 10.3256 27.2581 10.1074 27.2295C9.88764 27.2024 9.66938 27.1723 9.45113 27.1407C9.23287 27.1091 9.01462 27.0744 8.79636 27.0383C8.57811 27.0022 8.36136 26.9646 8.14461 26.9239C7.92787 26.8833 7.71112 26.8411 7.49437 26.796C7.27762 26.7508 7.06238 26.7042 6.84713 26.656C6.63189 26.6078 6.41664 26.5567 6.20291 26.504C5.98917 26.4513 5.77543 26.3956 5.56169 26.3384C5.34795 26.2812 5.13572 26.2225 4.92349 26.1608C3.7404 25.8221 2.48506 25.5105 1.37573 24.9702C1.00395 24.7896 0.720968 24.5848 0.587005 24.1724C0.456053 23.769 0.477125 23.3611 0.669791 22.9833L0.731504 23.2603C0.842889 23.76 1.41637 24.2477 1.83482 24.5096C2.39626 24.8618 3.0465 25.065 3.66965 25.2787C3.80061 25.3239 3.93156 25.3916 4.06251 25.4278C4.21905 25.4714 4.38763 25.4744 4.54267 25.5241C6.18936 26.0539 7.97001 26.373 9.68895 26.5672C9.94032 26.5958 10.2007 26.5822 10.4551 26.5973C12.8499 26.7463 15.5668 26.6455 17.9389 26.2993C19.5179 26.069 21.1059 25.7047 22.6593 25.339C23.901 25.0469 25.0977 24.6571 26.3049 24.2507C26.0971 24.0249 26.0053 23.7991 26.0189 23.4861C26.0264 23.3039 26.0535 23.1188 26.1634 22.9683C26.1649 23.1745 26.195 23.3551 26.3244 23.5222C26.8257 24.1754 28.1864 24.0038 28.9224 24.1017L28.9781 24.1092L28.9826 24.1152Z" fill="url(#paint7_linear_218_39131)"/>
<path d="M1.15263 25.4861C2.03618 25.9166 2.9694 26.1966 3.91166 26.463C9.0474 27.9155 13.7963 28.3882 19.0931 27.6295C21.7784 27.2457 24.3628 26.5548 26.8404 25.435C27.5915 25.0948 28.3019 24.6929 29.0199 24.291C28.3546 24.872 27.6968 25.453 26.9668 25.9528C23.9805 27.9938 20.356 28.7298 16.8458 29.2958C15.8915 29.3846 14.9388 29.4674 13.9799 29.4614C13.3252 29.4569 12.6358 29.365 11.9856 29.4027C11.4617 29.3109 10.9123 29.2943 10.384 29.2251C9.21448 29.0806 8.05849 28.8623 6.91604 28.5718C5.00895 28.0856 2.20476 27.2623 1.15112 25.4876L1.15263 25.4861Z" fill="#AFB6CC"/>
<path d="M42.9991 1.39103C43.5048 1.3248 44.0031 1.26459 44.5133 1.27513C46.2955 1.31126 48.0942 2.04128 49.5 3.12502C49.768 3.33424 50.0223 3.55852 50.2647 3.79935C50.3384 3.86558 50.4077 3.9303 50.4709 4.00556C50.7132 4.24188 50.9074 4.48422 51.0489 4.79429C49.4835 4.55346 48.0129 4.6242 46.6853 5.6086C45.9673 6.14144 45.3096 7.04607 45.0251 7.895C44.8204 7.64062 44.6081 7.39076 44.3914 7.14541C44.1746 6.90157 43.9504 6.66224 43.7216 6.42743C43.4928 6.19412 43.258 5.96533 43.0187 5.74256C42.7793 5.51979 42.534 5.30305 42.2826 5.09382C42.0327 4.88309 41.7769 4.67839 41.5165 4.48121C41.2561 4.28252 40.9912 4.09136 40.7217 3.90622C40.4523 3.72108 40.1783 3.54196 39.8999 3.37037C39.6214 3.19878 39.3399 3.0332 39.054 2.87365C39.2918 2.73066 39.5371 2.60121 39.7825 2.47176C40.7624 1.88775 41.9123 1.67852 42.9991 1.38953V1.39103Z" fill="url(#paint8_linear_218_39131)"/>
<path d="M49.2971 3.25635C49.7758 3.39182 49.8405 3.65071 50.1431 3.79972C50.1957 3.82531 50.2123 3.82381 50.2635 3.80123C50.3372 3.86746 50.4065 3.93218 50.4697 4.00744C50.2891 4.10679 49.1451 3.78618 48.8411 3.76661L48.7899 3.7636L48.823 3.74855L48.686 3.75908L48.6921 3.75005C49.0202 3.71393 49.6343 3.83735 49.9489 3.93369L50.0076 3.95175C50.0166 3.88703 50.0226 3.9096 50.0001 3.8509C49.9188 3.63566 49.5771 3.42342 49.3739 3.33161C49.3092 3.30301 49.3393 3.3286 49.2956 3.25635H49.2971Z" fill="#1D9FDA"/>
<path d="M42.9988 1.39103C43.5046 1.3248 44.0028 1.26459 44.5131 1.27513C46.2952 1.31126 48.0939 2.04128 49.4998 3.12502C49.7677 3.33424 50.0221 3.55852 50.2644 3.79935C50.2133 3.82193 50.1967 3.82343 50.144 3.79785C49.8415 3.64883 49.7768 3.39144 49.2981 3.25447C47.823 2.64336 46.3675 3.11449 44.8803 3.35381C44.0841 3.48326 43.2457 3.54648 42.4434 3.43359C41.8082 3.34478 40.1811 3.0016 39.7822 2.47026C40.7621 1.88624 41.9121 1.67702 42.9988 1.38802V1.39103Z" fill="#62CAEB"/>
<path d="M44.0754 1.52505C44.0875 1.52505 44.098 1.52204 44.11 1.52053C45.4873 1.40915 47.1912 1.8291 48.2764 2.70362C47.3056 2.47784 46.3949 2.29119 45.397 2.22798C44.4487 2.21292 43.523 2.32431 42.5792 2.37699C41.9892 2.40408 41.3977 2.40408 40.8076 2.37699C41.8402 1.94951 42.9585 1.60482 44.0739 1.52505H44.0754Z" fill="white"/>
<path d="M21.6327 31.9304C22.2332 31.2907 23.1063 30.6826 24.0003 30.6464C24.193 30.6389 24.5166 30.6254 24.6641 30.7623C24.7183 30.812 24.7469 30.8617 24.7514 30.9369C24.7635 31.2184 24.3225 31.7753 24.1644 32.0282C23.889 32.4707 23.6466 32.9404 23.3576 33.3739C22.3657 34.8655 21.0155 36.3526 19.6262 37.4891C19.3418 37.7239 19.0467 37.9436 18.7382 38.1468C18.5606 38.2657 18.0985 38.5066 17.9795 38.6345C17.1336 39.0936 16.3344 39.5316 15.3424 39.4714C15.2612 39.4353 15.1693 39.4007 15.1001 39.345C14.9436 39.2216 14.9722 38.9476 14.9691 38.7715C14.9451 38.642 14.9421 38.5126 14.936 38.3817C15.216 37.1384 15.7624 35.9899 16.4352 34.9122C16.6821 34.5163 16.947 34.1325 17.23 33.7622C17.5129 33.3919 17.814 33.0352 18.1316 32.6935C19.0046 31.7512 20.0086 30.964 21.3376 30.9159C21.303 31.1808 20.0462 32.4903 19.7843 32.8395C19.6142 33.0668 19.4561 33.3016 19.3101 33.5439C19.1641 33.7863 19.0302 34.0361 18.9083 34.292C18.7939 34.5298 18.6464 34.7872 18.6659 35.0552C18.392 35.5308 18.109 35.9989 17.817 36.4625C18.2987 36.014 18.69 35.3728 19.0738 34.8354C19.4923 34.2514 19.9167 33.6794 20.3668 33.1195C20.7055 32.6935 21.0742 32.2946 21.4415 31.8927L21.6327 31.9319V31.9304Z" fill="#ED7D80"/>
<path d="M21.4399 31.8906L21.6311 31.9298C21.3993 32.2067 20.6934 33.0782 20.3652 33.1174C20.7039 32.6914 21.0727 32.2925 21.4399 31.8906Z" fill="#DF4C4A"/>
<path d="M18.8676 32.2773C18.7472 32.5543 18.5169 32.744 18.3649 32.9998C18.1978 33.2813 18.0669 33.5839 17.8953 33.8638C17.23 34.9551 15.9837 36.7342 15.7669 37.9685C15.7519 38.402 15.5803 38.8114 15.5622 39.2524H15.6104L15.6375 39.2765L15.645 39.2374L15.9039 39.0989L15.9084 39.0221L15.9385 39.0884C15.7699 39.2118 15.5411 39.4225 15.3424 39.4677C15.2612 39.4316 15.1693 39.3969 15.1001 39.3412C14.9436 39.2178 14.9722 38.9439 14.9691 38.7678C14.9451 38.6383 14.9421 38.5089 14.936 38.3779C15.216 37.1346 15.7624 35.9862 16.4352 34.9084L16.5827 34.8347C16.8175 34.5442 17.0177 34.2281 17.2555 33.9406C17.7462 33.349 18.3092 32.8057 18.8661 32.2773H18.8676Z" fill="#F5D8D5"/>
<path d="M16.4369 34.9087L16.5844 34.835C16.4249 35.127 16.2382 35.4024 16.0787 35.6944C15.9703 35.8946 15.8695 36.0978 15.7776 36.304C15.6858 36.5102 15.6 36.721 15.5233 36.9347C15.4465 37.1485 15.3788 37.3652 15.3186 37.5835C15.2584 37.8017 15.2072 38.023 15.1635 38.2457C15.159 38.2954 15.156 38.3451 15.153 38.3948C15.1379 38.6943 15.1741 39.0721 15.3818 39.3069H15.4119C15.5112 39.2091 15.6783 38.2292 15.7686 37.9688C15.7536 38.4023 15.582 38.8117 15.5639 39.2527H15.6121L15.6392 39.2768L15.6467 39.2377L15.9056 39.0992L15.9101 39.0224L15.9402 39.0887C15.7716 39.2121 15.5428 39.4228 15.3441 39.468C15.2629 39.4318 15.1711 39.3972 15.1018 39.3415C14.9453 39.2181 14.9739 38.9442 14.9709 38.768C14.9468 38.6386 14.9438 38.5092 14.9377 38.3782C15.2177 37.1349 15.7641 35.9864 16.4369 34.9087Z" fill="#F59080"/>
<path d="M26.0938 15.5426C26.6673 14.6139 27.3717 13.9275 28.4645 13.6716C29.324 13.4699 30.2452 13.5979 30.9933 14.0735C31.8286 14.6034 32.4473 15.5125 32.658 16.4758C32.8838 17.5054 32.7829 18.5349 32.2305 19.4456C31.5818 19.5795 30.9135 19.7256 30.2933 19.9604L30.4138 19.7888C30.191 19.846 29.9607 19.9197 29.7334 19.9574C29.2141 19.9739 28.9025 20.1365 28.3291 20.013C27.8971 19.9197 27.6833 19.7256 27.453 19.3673C27.4756 19.6458 27.6457 19.7903 27.7134 20.0401C27.5418 19.8791 27.4335 19.6563 27.3221 19.4531C27.2453 19.5374 27.1896 19.5976 27.155 19.7075C27.3281 20.0447 27.5388 20.3472 27.8278 20.5986L28.034 20.7386C27.7676 21.0381 27.3431 21.3196 26.9939 21.5137C26.0231 20.6979 25.6107 19.4561 25.4948 18.2324C25.4887 17.2329 25.6874 16.4487 26.0953 15.5426H26.0938Z" fill="#0E0D10"/>
<path d="M27.3207 19.4547C27.2334 19.2576 27.1536 19.0453 27.1054 18.8346C27.0663 18.66 27.0302 18.3951 27.1506 18.2415C27.2529 18.1121 27.3643 18.1151 27.5178 18.1016L27.2544 18.359C27.2439 18.7307 27.3011 19.0288 27.4531 19.3689C27.4757 19.6474 27.6458 19.7919 27.7135 20.0418C27.5419 19.8807 27.4336 19.6579 27.3222 19.4547H27.3207Z" fill="#31ACDE"/>
<path d="M27.2532 18.359L27.5166 18.1016C27.78 18.7729 28.081 19.399 28.787 19.6986C29.1226 19.8401 29.4387 19.8431 29.7939 19.8295L29.7322 19.9605C29.2129 19.977 28.9014 20.1396 28.3279 20.0162C27.8959 19.9229 27.6822 19.7287 27.4519 19.3704C27.2998 19.0303 27.2426 18.7307 27.2532 18.3605V18.359Z" fill="#C5E1F2"/>
<path d="M30.4787 15.4146C30.6127 15.4251 30.7602 15.4296 30.8851 15.4883C31.0416 15.5636 31.1681 15.7096 31.2208 15.8736C31.281 16.0618 31.2569 16.271 31.1636 16.4456C31.0311 16.694 30.8279 16.8159 30.5675 16.8942C30.4049 16.9092 30.2559 16.9077 30.1099 16.8249C29.9549 16.7376 29.845 16.5901 29.8014 16.4185C29.7938 16.3899 29.7893 16.3628 29.7848 16.3342C29.7803 16.3056 29.7788 16.277 29.7773 16.2484C29.7758 16.2198 29.7773 16.1912 29.7773 16.1626C29.7788 16.134 29.7833 16.1054 29.7878 16.0768C29.7923 16.0482 29.7999 16.0196 29.8074 15.9925C29.8149 15.9655 29.8239 15.9369 29.8345 15.9113C29.845 15.8842 29.8571 15.8586 29.8706 15.833C29.8841 15.8074 29.8992 15.7833 29.9143 15.7592C30.0557 15.547 30.2364 15.4657 30.4787 15.4161V15.4146Z" fill="white"/>
<path d="M30.128 14.8865C30.2605 14.8202 30.3673 14.8609 30.5013 14.9045C30.7767 14.9963 31.3517 15.4283 31.433 15.4419C31.3698 15.3139 31.1862 15.2357 31.1591 15.0972L31.2148 15.0882C31.3502 15.2598 31.5023 15.5096 31.6769 15.6346C32.0878 16.3826 32.2248 17.2541 31.9839 18.0835C31.7882 18.7593 31.278 19.3584 30.6578 19.6881C30.5781 19.7302 30.5013 19.7708 30.414 19.7919C30.1912 19.8491 29.9609 19.9229 29.7336 19.9605L29.7954 19.8295C29.9233 19.8009 30.0543 19.7754 30.1777 19.7332C30.7602 19.53 31.1952 19.0935 31.4646 18.5456C31.4842 18.5065 31.5023 18.4673 31.5203 18.4267C31.5384 18.3861 31.5549 18.3469 31.57 18.3063C31.585 18.2656 31.6001 18.225 31.6136 18.1829C31.6272 18.1407 31.6392 18.1001 31.6513 18.0579C31.6633 18.0158 31.6738 17.9736 31.6829 17.9315C31.6919 17.8893 31.7009 17.8457 31.7085 17.8035C31.716 17.7599 31.722 17.7177 31.7265 17.6741C31.731 17.6304 31.7356 17.5868 31.7386 17.5431C31.7416 17.4995 31.7431 17.4558 31.7446 17.4122C31.7446 17.3685 31.7446 17.3249 31.7446 17.2812C31.7446 17.2376 31.7401 17.1939 31.7371 17.1503C31.7341 17.1066 31.7295 17.063 31.7235 17.0208C31.7175 16.9772 31.7115 16.935 31.704 16.8914C31.6964 16.8477 31.6874 16.8056 31.6769 16.7635C31.6663 16.7213 31.6558 16.6792 31.6437 16.637C31.6317 16.5949 31.6182 16.5542 31.6046 16.5121C31.3367 15.7234 30.8731 15.2462 30.1325 14.888L30.128 14.8865Z" fill="#80D1E9"/>
<path d="M26.1919 16.8194C26.5215 16.4792 26.806 16.0924 27.247 15.8877C26.7127 16.8977 26.5742 18.0176 26.9189 19.1179C26.9821 19.318 27.0574 19.5228 27.1522 19.7109C27.3253 20.0481 27.536 20.3506 27.825 20.602L28.0312 20.742C27.7648 21.0415 27.3403 21.323 26.9911 21.5171C26.0203 20.7013 25.6078 19.4595 25.4919 18.2358L25.5446 18.1997L25.5898 18.3803C25.6003 18.3261 25.6063 18.287 25.6395 18.2403C25.6455 18.2313 25.6545 18.2223 25.662 18.2132C25.7569 17.6879 25.9104 17.274 26.1919 16.8194Z" fill="#C5E1F2"/>
<path d="M25.4934 18.2344L25.5461 18.1982L25.5912 18.3789C25.6018 18.3247 25.6078 18.2855 25.6409 18.2389C25.6469 18.2299 25.656 18.2208 25.6635 18.2118C25.6725 18.9809 25.9555 20.0256 26.5139 20.5855C26.6825 20.7541 26.8978 20.87 27.1416 20.8655C27.3147 20.8624 27.6564 20.7917 27.7798 20.6638C27.8009 20.6412 27.8099 20.6261 27.828 20.599L28.0342 20.739C27.7678 21.0386 27.3433 21.32 26.9941 21.5142C26.0232 20.6984 25.6108 19.4566 25.4949 18.2329L25.4934 18.2344Z" fill="#1D9FDA"/>
<path d="M26.0941 15.5426C26.6676 14.6139 27.372 13.9275 28.4648 13.6716C29.3243 13.4699 30.2455 13.5979 30.9935 14.0735C31.8289 14.6034 32.4476 15.5125 32.6583 16.4758C32.8841 17.5054 32.7832 18.5349 32.2308 19.4456C31.5821 19.5795 30.9138 19.7256 30.2936 19.9604L30.414 19.7888C30.5013 19.7677 30.5781 19.7271 30.6579 19.6849C31.278 19.3553 31.7883 18.7562 31.984 18.0804C32.2248 17.251 32.0878 16.3795 31.6769 15.6314C31.5023 15.5065 31.3503 15.2566 31.2148 15.085L31.1591 15.0941C31.1862 15.2325 31.3698 15.3108 31.4331 15.4387C31.3503 15.4252 30.7768 14.9947 30.5013 14.9014C30.3674 14.8562 30.2605 14.8171 30.1281 14.8833C29.4838 14.6861 28.8185 14.6636 28.2089 14.9902C27.7769 15.222 27.5828 15.5501 27.2486 15.8843C26.8061 16.0905 26.5231 16.4758 26.1935 16.816C25.912 17.2721 25.757 17.686 25.6636 18.2098C25.6561 18.2188 25.6486 18.2264 25.6411 18.2369C25.6079 18.2821 25.6019 18.3227 25.5914 18.3769L25.5462 18.1963L25.4935 18.2324C25.4875 17.2329 25.6862 16.4487 26.0941 15.5426Z" fill="#258ECD"/>
<path d="M26.1917 16.8198C26.2323 16.4089 26.9443 16.0567 27.2031 15.7677C27.4365 15.5088 27.593 15.1942 27.8579 14.9564C28.0325 14.7998 28.314 14.7231 28.4555 14.5605C28.4224 14.5484 28.4148 14.5439 28.3757 14.5409C28.0777 14.5198 27.6652 14.6568 27.4395 14.842C27.3943 14.8781 27.3853 14.8736 27.3311 14.8826L27.3386 14.8405C27.4967 14.711 27.6698 14.6177 27.8534 14.5304C28.618 14.1706 29.6024 14.1104 30.3972 14.407C30.9481 14.6132 31.4343 15.0978 31.6751 15.6337C31.5005 15.5088 31.3485 15.2589 31.213 15.0873L31.1573 15.0963C31.1844 15.2348 31.368 15.3131 31.4313 15.441C31.3485 15.4275 30.775 14.997 30.4995 14.9037C30.3656 14.8585 30.2587 14.8194 30.1262 14.8856C29.482 14.6884 28.8167 14.6659 28.2071 14.9925C27.7751 15.2243 27.581 15.5524 27.2468 15.8866C26.8043 16.0928 26.5213 16.4781 26.1917 16.8183V16.8198Z" fill="#62CAEB"/>
<path d="M34.0869 24.1398C33.661 23.8523 33.244 23.5919 32.7428 23.4565C31.1804 23.0305 27.5017 23.9562 26.6542 23.3571C26.5986 23.318 26.5459 23.2563 26.5353 23.187C26.5097 23.02 26.6256 22.8664 26.728 22.746C27.8072 21.4726 29.6135 20.5228 31.212 20.0908C31.93 19.8967 32.6675 19.7943 33.4066 19.7386C35.2941 19.5971 37.3652 19.9614 38.8328 21.2363C39.6125 21.9136 40.5879 23.3285 40.6737 24.3807C40.5909 24.5297 40.5758 24.781 40.5367 24.9511C40.3546 25.7564 40.1228 26.4383 39.596 27.09C37.8334 29.2695 34.4437 30.713 31.7012 30.984C30.9185 31.0607 29.9476 31.0367 29.3169 30.4993C29.0054 30.2344 28.8729 29.8656 28.8533 29.4652C28.8037 28.4628 29.4569 26.8311 30.0199 26.0108C30.4609 25.3666 31.075 24.7208 31.784 24.3731C32.1016 24.2181 32.4809 24.1172 32.8271 24.0495C32.9038 24.0345 33.1778 24.0209 33.2305 23.9848C33.2621 23.9622 33.2816 23.9276 33.3072 23.899C33.5721 23.9637 33.828 24.0525 34.0854 24.1413L34.0869 24.1398Z" fill="#C5E1F2"/>
<path d="M33.0268 20.4911C34.1437 20.3917 35.4261 20.6657 36.3593 21.2993C37.3317 21.9586 37.8149 23.1372 38.0301 24.251C37.261 23.4638 36.4481 22.9852 35.4351 22.5712C33.9841 21.9947 32.2501 21.9074 30.7028 22.0083C30.0872 22.0474 29.4746 22.1423 28.8574 22.1362C28.8981 22.079 28.9417 22.0233 28.9869 21.9707C29.8298 20.9908 31.8046 20.5934 33.0283 20.4926L33.0268 20.4911Z" fill="white"/>
<path d="M19.2261 38.604C19.4053 38.4068 19.8418 38.1464 20.0676 37.9763C20.5688 37.6076 21.0474 37.2102 21.502 36.7857C23.3835 35.0352 24.8842 32.8316 26.2494 30.6671C26.6588 30.0063 27.0592 29.341 27.4521 28.6697C27.9834 27.753 29.5262 24.8299 30.2818 24.3558C31.1398 23.8169 32.3334 23.6709 33.3088 23.8967C33.2832 23.9253 33.2636 23.9614 33.232 23.9825C33.1793 24.0186 32.9054 24.0322 32.8286 24.0472C32.4824 24.1149 32.1031 24.2158 31.7855 24.3708C31.0766 24.7185 30.4625 25.3643 30.0214 26.0085C29.46 26.8288 28.8052 28.4605 28.8549 29.4629C28.8745 29.8633 29.0069 30.2321 29.3185 30.497C29.9507 31.0343 30.9216 31.0599 31.7027 30.9817C34.4452 30.7107 37.8349 29.2672 39.5975 27.0877C40.1258 26.4345 40.3576 25.7526 40.5383 24.9488C40.5774 24.7787 40.591 24.5274 40.6752 24.3784C41.1178 26.3577 40.5819 28.5583 39.5087 30.2471C38.8073 31.3504 37.8575 32.3168 36.7316 32.9881C36.119 33.3539 35.4597 33.6368 34.808 33.9228C33.7077 34.3985 32.5968 34.847 31.474 35.267C29.8754 35.8766 28.2935 36.5238 26.7281 37.2117C25.709 37.6678 24.7096 38.1645 23.7312 38.7033C21.3906 39.9752 18.8408 41.5256 16.2173 42.093C15.2238 42.3068 13.8631 42.4814 12.9555 41.8974C12.513 41.6129 12.242 41.1809 12.1336 40.6721C12.0749 40.3937 12.0569 40.0866 12.105 39.8051C12.1081 39.8578 12.1126 39.9105 12.1141 39.9632C12.1201 40.1634 12.245 40.3771 12.3444 40.5487C12.6093 41.0048 13.0503 41.2938 13.5546 41.4202C14.846 41.7438 16.3738 41.2998 17.5734 40.8287C17.8338 40.7263 18.1213 40.6345 18.3592 40.4885C18.6361 40.3184 18.9402 40.198 19.2156 40.0234C19.169 40.0053 19.19 40.0098 19.1449 40.0038C19.0365 39.9888 18.9402 39.9662 18.8679 39.8774C18.6226 39.5794 19.184 38.9487 19.2261 38.601V38.604Z" fill="url(#paint9_linear_218_39131)"/>
<path d="M23.5307 9.43482C24.0906 8.8508 24.6024 8.22313 25.1638 7.64212C26.4071 6.35668 28.1516 5.25638 29.991 5.2323C31.4992 5.21273 32.6732 5.98038 33.7118 6.9979C34.5427 8.12228 35.0966 9.24968 35.3179 10.6405L35.205 10.7489L35.1809 10.9144C35.2065 11.1598 35.1583 11.4262 35.1087 11.667C34.922 11.2983 34.7775 10.9114 34.5894 10.5426C33.9451 9.27376 33.024 8.21561 31.6407 7.75652C30.5118 7.38173 29.4205 7.51268 28.3669 8.04853C28.2133 8.1283 28.0628 8.2126 27.9153 8.30291C27.7678 8.39322 27.6233 8.48654 27.4818 8.58589C27.3403 8.68523 27.2018 8.78909 27.0679 8.89746C26.9324 9.00584 26.8015 9.11873 26.675 9.23463C26.0489 9.8051 24.6234 11.5617 24.3209 12.3218L24.3495 12.3022C24.6189 12.1096 24.7574 11.8732 24.9651 11.6264C25.3249 11.2004 25.6846 10.788 26.0368 10.3545C27.247 8.86736 29.121 7.89048 31.0687 8.20356C31.7792 8.31796 32.2789 8.68673 32.6943 9.26473C33.6667 10.6134 34.7504 14.0422 34.4388 15.6543C34.4298 15.698 34.4178 15.7386 34.4057 15.7807C34.4012 15.7958 34.3982 15.8093 34.3937 15.8244C34.35 16.9081 34.2417 18.3185 33.7901 19.3119C33.6998 19.3119 33.6125 19.3119 33.5222 19.2969L33.4966 19.3345C33.2437 19.4007 32.9517 19.3992 32.6913 19.4218C32.9351 18.7339 33.0586 18.1424 33.1037 17.4154C33.0375 16.8916 32.9652 16.4099 32.8147 15.9012C32.5077 15.1079 32.02 14.42 31.3186 13.9278C30.718 13.5064 29.8826 13.2159 29.142 13.249C28.8892 13.261 28.6303 13.3197 28.3804 13.3619C27.6579 13.6208 27.101 13.9263 26.523 14.4411C26.4161 14.5691 26.3062 14.6925 26.2189 14.834C26.2189 15.0748 26.0684 15.1516 26.0955 15.5384C25.6876 16.4445 25.4889 17.2302 25.4949 18.2282C25.6093 19.4519 26.0233 20.6937 26.9941 21.5095C27.0859 21.5712 27.1221 21.6089 27.235 21.6149L27.3659 21.5411C27.3328 21.6977 27.1446 21.8828 27.0152 21.9716C26.9324 22.0288 26.9008 22.0198 26.8015 22.0183C26.5561 22.3208 26.3333 22.6098 26.1723 22.9666C26.0624 23.1171 26.0368 23.3022 26.0278 23.4844C26.0142 23.7974 26.1061 24.0232 26.3138 24.249C25.1066 24.6554 23.9085 25.0437 22.6682 25.3373C21.1148 25.703 19.5268 26.0673 17.9479 26.2976C15.5757 26.6438 12.8588 26.7446 10.464 26.5956C10.2111 26.5806 9.94924 26.5941 9.69787 26.5655C7.97893 26.3713 6.19828 26.0537 4.55159 25.5224C4.39655 25.4727 4.22797 25.4697 4.07143 25.4261C3.93897 25.3899 3.80953 25.3222 3.67857 25.277C3.05542 25.0633 2.40668 24.8601 1.84374 24.5079C1.4268 24.246 0.851809 23.7583 0.740424 23.2586L0.678711 22.9816C0.824715 22.7348 0.97674 22.6113 1.21607 22.4668C1.29283 22.8416 1.38314 23.1517 1.7188 23.379C1.78503 23.4241 1.85277 23.4633 1.92201 23.5039C1.99727 23.3745 2.05446 23.2375 2.0936 23.0945C2.24863 23.2796 2.40819 23.4287 2.60687 23.5671C3.49795 24.0774 4.92789 24.7442 5.92584 24.9444C6.04625 24.8571 6.42255 25.0392 6.60769 25.0197L6.61973 24.973C6.43911 24.9444 6.27504 24.8797 6.10044 24.827L6.10496 24.7848C5.7693 24.6117 5.34333 24.5184 4.9881 24.3769C4.44171 24.1617 2.6445 23.4467 2.47291 22.9139C2.43979 22.81 2.45936 22.7558 2.49699 22.661L2.55118 22.6776C3.08854 22.5286 3.63191 22.4292 4.17378 22.2983C5.56459 21.9596 6.80337 21.4057 7.96689 20.5628C8.38684 20.4393 8.78722 19.9336 9.16202 19.6867C8.83087 20.2602 8.35824 20.7795 7.9413 21.2958C8.57348 20.7991 9.19664 20.2948 9.88903 19.8839C11.4424 18.9612 13.1237 18.5443 14.9028 18.9989C14.8216 18.9085 14.7343 18.883 14.6169 18.8513C12.6466 18.3155 11.1865 18.889 9.47359 19.8282C9.65873 19.473 9.88301 19.1388 10.0697 18.7836C10.2879 18.3652 10.446 17.9257 10.604 17.4831C10.604 17.7074 10.4926 17.882 10.4776 18.0912C10.6175 17.8007 10.7816 17.4891 10.8915 17.1866C11.0315 16.7983 11.1143 16.3648 11.2076 15.9629C11.3732 15.2419 11.5282 14.5179 11.7028 13.7999C11.9481 12.7854 12.2657 11.8191 12.642 10.8467L12.6089 10.8045C12.6932 10.6239 12.8136 10.2762 12.764 10.0805C12.7384 9.9797 12.7399 9.87735 12.7354 9.77349L12.8016 9.86079C13.0801 9.67415 14.0283 8.0696 14.2917 7.68728C14.808 6.9407 15.5922 6.38528 16.1747 5.69289L16.2124 5.68988L16.2018 5.68085L16.1778 5.75912L16.1175 5.7245L16.0799 5.7531L16.1431 5.81481C14.957 7.3742 13.7724 9.03594 14.0434 11.1086C14.0795 11.3795 14.1397 11.6821 14.2391 11.9365C13.9907 12.7914 13.5421 14.1627 13.6565 15.0372C13.7183 14.7978 13.7318 14.548 13.7815 14.3056C13.8929 13.7397 14.0449 13.1843 14.2345 12.6379C14.2887 12.8019 14.2887 12.9796 14.3113 13.1497C14.3821 13.675 14.5326 14.1295 14.8441 14.563C15.0684 14.8761 15.3725 15.0658 15.7608 15.0883C17.0568 15.1636 19.3417 13.4748 20.4104 12.7583C20.6557 12.5942 21.0742 12.239 21.3602 12.2044C21.3978 12.1999 21.4685 12.2224 21.5077 12.23C21.9848 11.2606 22.7901 10.2145 23.5352 9.43482H23.5307Z" fill="url(#paint10_linear_218_39131)"/>
<path d="M2.08903 23.1001C2.24407 23.2852 2.40362 23.4343 2.60231 23.5727C2.58123 23.6224 2.57672 23.6841 2.51952 23.6992C2.3404 23.7443 2.0785 23.5848 1.91895 23.5095C1.99421 23.3801 2.0514 23.2431 2.09054 23.1001H2.08903Z" fill="#C5E1F2"/>
<path d="M6.09778 24.7896C7.24324 25.0831 8.36612 25.3073 9.53867 25.4609C8.37214 25.5226 7.03552 25.2833 5.92017 24.9506C6.04058 24.8633 6.41688 25.0454 6.60202 25.0259L6.61406 24.9792C6.43344 24.9506 6.26937 24.8859 6.09477 24.8332L6.09928 24.7911L6.09778 24.7896Z" fill="#0E0D10"/>
<path d="M13.9214 24.2551C14.1411 23.5326 14.5355 22.8673 15.2189 22.5C15.5605 22.3164 16.0272 22.1704 16.408 22.2833C16.5856 22.3359 16.7406 22.4473 16.8219 22.6159C16.9032 22.786 16.8957 22.9757 16.8294 23.1488C16.6097 23.7328 15.9504 24.1121 15.4145 24.3544L15.3649 24.3228C15.3844 24.1362 16.2108 23.6786 16.2289 23.087C16.2319 22.9862 16.2078 22.8733 16.1235 22.8071C16.0302 22.7348 15.8902 22.7333 15.7788 22.7469C14.835 22.8567 14.4919 23.5567 13.965 24.2024L13.9214 24.2551Z" fill="#1C132C"/>
<path d="M17.928 22.2559C18.0168 22.438 18.0454 22.6728 18.0756 22.8715C18.1478 23.3411 17.9913 23.8077 17.7038 24.1765C17.0264 25.045 15.7124 25.2964 14.6858 25.4348L14.5474 25.4002C14.5519 25.3897 15.5483 24.9848 15.6522 24.9321C16.4123 24.5408 17.3756 23.8649 17.7143 23.0446C17.8121 22.8068 17.8287 22.5569 17.9085 22.3176C17.916 22.298 17.922 22.2769 17.9295 22.2574L17.928 22.2559Z" fill="#258ECD"/>
<path d="M13.9216 24.2546L13.9652 24.2019C14.4906 23.5547 14.8337 22.8548 15.779 22.7464C15.8904 22.7328 16.0304 22.7343 16.1237 22.8066C16.208 22.8713 16.2321 22.9857 16.2291 23.0866C16.211 23.6781 15.3846 24.1357 15.3651 24.3223L15.4148 24.3539C14.9692 24.5933 14.4364 24.7212 13.9547 24.8717C13.896 24.6565 13.8448 24.4728 13.9216 24.2546Z" fill="url(#paint11_linear_218_39131)"/>
<path d="M23.5306 9.43482C24.0905 8.8508 24.6023 8.22313 25.1637 7.64212C26.407 6.35668 28.1515 5.25638 29.9909 5.2323C31.4991 5.21273 32.6732 5.98038 33.7117 6.9979C34.5426 8.12228 35.0965 9.24968 35.3178 10.6405L35.2049 10.7489C35.1838 10.493 35.104 10.2235 35.0288 9.9797C34.5652 8.49256 33.6034 6.9994 32.1915 6.26035C31.2914 5.67182 30.2483 5.50474 29.2007 5.72601C27.7722 6.02705 26.6177 6.83835 25.543 7.78361C25.3037 7.99434 24.9951 8.22614 24.8055 8.48203C24.3118 8.91251 23.8738 9.44385 23.4613 9.95411C21.4504 12.4392 20.2763 15.3186 19.5312 18.4088C19.7224 16.2398 20.4855 14.1401 21.5061 12.2315C21.9832 11.2621 22.7885 10.216 23.5336 9.43632L23.5306 9.43482Z" fill="#0E0D10"/>
<path d="M12.6344 10.8479C12.797 10.5228 12.9881 10.2413 13.1702 9.92977C13.381 9.57153 13.5766 9.2133 13.8175 8.87312C13.8867 8.77528 14.0764 8.58262 14.0764 8.46973L14.0824 8.50284L14.1095 8.52843C13.9575 8.79937 13.9153 9.06428 13.8069 9.34876C13.0558 11.3146 12.4854 13.3887 12.0474 15.4478C11.8968 16.1568 11.7222 16.8492 11.5461 17.5521C11.4784 17.8245 11.4438 18.1301 11.3324 18.3875L11.3474 18.4281C11.5341 18.4357 11.7042 18.3785 11.8878 18.3559C12.2762 18.3092 12.7232 18.3649 13.0348 18.0759C13.3298 17.802 13.3373 17.242 13.4713 17.1683C13.6007 17.2465 13.6519 17.4949 13.6865 17.6379C13.7211 17.7869 13.7392 17.9419 13.7573 18.0925C14.9855 18.1271 16.0467 18.6238 16.8881 19.5104C17.0702 19.703 17.2463 19.9138 17.3788 20.1441C17.004 19.9559 16.6262 19.7572 16.2408 19.5932C15.7983 19.405 15.3227 19.2244 14.8997 19.0016C14.8184 18.9113 14.7311 18.8857 14.6137 18.8541C12.6434 18.3182 11.1834 18.8917 9.47046 19.831C9.6556 19.4757 9.87987 19.1416 10.0665 18.7864C10.2848 18.3679 10.4428 17.9284 10.6009 17.4859C10.6009 17.7101 10.4895 17.8848 10.4744 18.094C10.6144 17.8035 10.7785 17.4919 10.8884 17.1893C11.0283 16.801 11.1111 16.3675 11.2045 15.9656C11.37 15.2446 11.5251 14.5206 11.6997 13.8026C11.945 12.7881 12.2626 11.8218 12.6389 10.8494L12.6344 10.8479Z" fill="#258ECD"/>
<path d="M12.8499 19.4409C13.8358 19.3521 14.8323 19.5614 15.6375 20.1589C16.0168 20.4404 16.4413 20.898 16.5 21.3872C16.509 21.4564 16.5136 21.5874 16.4503 21.6325C16.2502 21.774 15.8212 21.8252 15.5773 21.9004C15.2928 21.9877 15.0264 22.1082 14.7781 22.2707C14.194 22.653 13.8599 23.3379 13.5784 23.955C13.4761 24.1793 13.3948 24.4051 13.2398 24.6008C13.1314 24.7392 12.9146 24.9816 12.74 24.9996C12.9056 24.8627 13.0907 24.7242 13.2247 24.5526C13.4219 24.2997 13.8298 23.3725 13.9788 23.0414C13.9653 23.0308 13.9517 23.0218 13.9382 23.0113C13.8193 22.9285 12.9402 22.1353 12.9131 22.0765C12.9327 21.9953 12.9447 21.9275 12.9477 21.8447C12.9131 21.8041 12.8905 21.7906 12.8409 21.768C12.6888 21.7018 12.594 21.6476 12.4661 21.5392C12.1801 21.5347 11.9152 21.5226 11.6337 21.4684C11.4576 21.4052 11.1611 21.2893 11.0738 21.1072C11.0151 20.9853 11.0497 20.8348 11.0843 20.7098C11.3146 19.9061 12.3577 19.59 13.1088 19.5839C13.2924 19.5839 14.0601 19.6878 14.1369 19.6426L14.1549 19.5704C14.1113 19.5448 14.0751 19.5328 14.0255 19.5222C11.8836 19.1158 10.0096 20.463 8.32678 21.5738L8.32227 21.5603C8.64137 21.2833 8.99509 21.0906 9.3458 20.8588C10.4672 20.1168 11.4922 19.6035 12.8484 19.4379L12.8499 19.4409Z" fill="#C5E1F2"/>
<path d="M12.7506 19.6781C13.1887 19.6224 13.8585 19.6239 14.2574 19.8437C14.4154 19.931 14.5448 20.0665 14.584 20.2456C14.6186 20.4051 14.5765 20.5662 14.4892 20.7017C14.1971 21.1607 13.5484 21.3353 13.0487 21.4437C12.5474 21.5069 11.852 21.5672 11.4005 21.2932C11.271 21.2149 11.1581 21.093 11.1311 20.941C11.0964 20.7543 11.1657 20.5812 11.274 20.4322C11.6097 19.9686 12.2103 19.7609 12.7522 19.6781H12.7506Z" fill="white"/>
<path d="M24.804 8.48215C24.9936 8.22626 25.3022 7.99446 25.5415 7.78373C26.6162 6.83847 27.7707 6.02716 29.1992 5.72612C30.2468 5.50486 31.2899 5.67194 32.19 6.26047C33.6019 7.00103 34.5637 8.49268 35.0273 9.97982C35.1041 10.2252 35.1823 10.4931 35.2034 10.749L35.1793 10.9145C35.2049 11.1599 35.1567 11.4263 35.1071 11.6671C34.9204 11.2984 34.7759 10.9115 34.5878 10.5428C33.9436 9.27388 33.0224 8.21572 31.6391 7.75664C30.5102 7.38184 29.4189 7.5128 28.3653 8.04865C28.2118 8.12842 28.0612 8.21271 27.9137 8.30303C27.7662 8.39334 27.6217 8.48666 27.4802 8.586C27.3387 8.68535 27.2003 8.78921 27.0663 8.89758C26.9308 9.00595 26.7999 9.11884 26.6734 9.23475C26.0473 9.80522 24.6219 11.5618 24.3193 12.3219C24.0755 12.6711 23.8542 13.0354 23.657 13.4132L23.6359 13.3891C23.6615 13.213 24.7573 11.4414 24.9048 11.2713C24.9665 11.2005 25.0072 11.1433 25.0493 11.0606C24.7859 11.2005 24.2802 11.9908 24.1056 12.2707C23.9776 12.4754 23.9054 12.7148 23.7097 12.8683L23.6766 12.8502L23.6992 12.7268C23.4869 13.1227 23.213 13.4869 23.0128 13.8903C22.1458 15.6394 21.5844 17.5088 20.9507 19.3482C20.8137 19.7471 20.7324 20.155 20.615 20.5584C20.5849 20.6637 20.5262 20.7555 20.4961 20.8594C20.4479 21.022 20.466 21.174 20.3907 21.3335L20.332 21.3019L20.3667 21.3606C20.3049 21.0581 20.5969 19.5529 20.6722 19.1661C20.8513 18.2464 21.0395 17.2906 21.2893 16.3875C21.4534 15.7929 21.6867 15.2179 21.8959 14.6384C22.2963 13.5321 22.6801 12.4348 23.222 11.3872C23.4508 10.9447 23.7458 10.5428 23.9912 10.1108C24.1868 9.76608 24.5586 8.9623 24.8687 8.75308C24.7393 9.00897 24.5556 9.23625 24.4081 9.4816C24.2907 9.67577 24.2064 9.88951 24.0905 10.0852C23.8211 10.5352 23.5125 10.9477 23.2627 11.4128C23.0504 11.8101 21.9306 14.3238 22.0179 14.6143L22.06 14.6339C22.4604 14.3163 22.5085 13.6269 22.6546 13.1693C22.793 12.7389 23.0294 12.3054 23.2326 11.9005C24.363 9.63964 26.2174 7.15757 28.5459 6.04824C28.9297 5.86611 30.167 5.59066 30.5659 5.73215C30.6246 5.75322 30.593 5.75171 30.6532 5.73967C30.6156 5.72161 30.5824 5.71107 30.5418 5.70505C28.7898 5.49884 27.0874 6.52087 25.811 7.61515C25.4753 7.90415 25.1773 8.26088 24.8281 8.5273L24.801 8.47462L24.804 8.48215Z" fill="#62CAEB"/>
<path d="M22.489 14.039C22.5131 13.9412 22.5372 13.8434 22.5643 13.7455C23.2491 11.2168 25.7628 7.69613 28.0643 6.38209C29.0321 5.82968 30.0797 5.61293 31.1695 5.91246C31.4946 6.00127 31.8002 6.15932 32.1253 6.24361L32.1915 6.26017C33.6034 7.00072 34.5652 8.49238 35.0288 9.97951C35.1056 10.2249 35.1839 10.4928 35.2049 10.7487L35.1809 10.9142C35.0047 10.7532 34.8091 9.9464 34.6932 9.68299C34.3199 8.83857 33.8081 8.03028 33.1037 7.42368C32.4038 6.8201 31.5037 6.34596 30.5569 6.42273C28.3698 6.60185 26.2204 8.62182 24.9094 10.279C24.4548 10.8525 24.0349 11.4907 23.639 12.1064C23.3018 12.6302 22.8683 13.6116 22.5131 14.0134C22.5056 14.021 22.498 14.03 22.4905 14.0375L22.489 14.039Z" fill="white"/>
<path d="M24.3195 12.3261L24.3481 12.3065C24.6176 12.1139 24.756 11.8776 24.9637 11.6307C25.3235 11.2047 25.6832 10.7923 26.0355 10.3588C27.2456 8.87167 29.1196 7.8948 31.0673 8.20788C31.7778 8.32228 32.2775 8.69105 32.6929 9.26905C33.6653 10.6177 34.7491 14.0466 34.4375 15.6586C34.4284 15.7023 34.4164 15.7429 34.4044 15.7851C34.3998 15.8001 34.3968 15.8137 34.3923 15.8287C34.3487 16.9125 34.2403 18.3228 33.7887 19.3163C33.6984 19.3163 33.6111 19.3163 33.5208 19.3012L33.4952 19.3388C33.2423 19.4051 32.9503 19.4036 32.6899 19.4261C32.9338 18.7383 33.0572 18.1467 33.1024 17.4197C33.0361 16.8959 32.9639 16.4142 32.8134 15.9055C32.5063 15.1122 32.0186 14.4244 31.3172 13.9322C30.7166 13.5107 29.8812 13.2202 29.1407 13.2533C28.8878 13.2654 28.6289 13.3241 28.379 13.3662C27.6565 13.6251 27.0996 13.9307 26.5216 14.4454C26.4148 14.5734 26.3049 14.6968 26.2176 14.8383C26.2176 15.0791 26.0671 15.1559 26.0942 15.5427C25.6862 16.4489 25.4876 17.2346 25.4936 18.2325C25.608 19.4562 26.0219 20.698 26.9928 21.5138C27.0846 21.5756 27.1207 21.6132 27.2336 21.6192L27.3645 21.5455C27.3314 21.702 27.1433 21.8871 27.0138 21.9759C26.931 22.0331 26.8994 22.0241 26.8001 22.0226C26.2447 22.1505 25.6772 22.4185 25.1444 22.6217C23.4676 23.2614 21.7787 23.9207 20.2148 24.8102C21.0999 24.0862 21.6884 23.716 22.6984 23.1635L22.6819 23.1485C22.5885 23.1395 22.4651 23.2298 22.3778 23.2749L22.3688 23.2207L22.3567 23.2358C22.277 23.0627 22.0346 23.007 21.866 22.9317C21.6508 22.8354 21.4657 22.706 21.3859 22.4727C21.2534 22.0903 21.3166 21.5861 21.3377 21.1887C21.4852 18.4372 22.4802 15.8799 23.6602 13.4189C23.8574 13.0411 24.0787 12.6768 24.3225 12.3276L24.3195 12.3261Z" fill="url(#paint12_linear_218_39131)"/>
<path d="M29.2581 10.1103C29.8797 10.023 30.5706 10.2036 31.1035 10.5212C32.2971 11.2317 33.1054 12.627 33.438 13.9411C33.0768 13.1538 32.6884 12.4057 32.0879 11.769C31.3097 10.9457 30.4321 10.598 29.3123 10.5709C29.1407 10.5679 28.9691 10.5769 28.7975 10.598C27.4263 10.756 26.3561 11.7119 25.5282 12.7474C25.2723 13.0665 25.048 13.4082 24.7952 13.7288C25.036 13.1478 25.3837 12.5939 25.7781 12.1047C26.6691 10.9984 27.8357 10.2699 29.2566 10.1118L29.2581 10.1103Z" fill="#255CA9"/>
<path d="M24.3194 12.3261L24.348 12.3065C24.6174 12.1139 24.7559 11.8776 24.9636 11.6307C25.3234 11.2047 25.6831 10.7923 26.0353 10.3588C27.2455 8.87167 29.1195 7.8948 31.0672 8.20788C31.7777 8.32228 32.2774 8.69105 32.6928 9.26905C33.6652 10.6177 34.749 14.0466 34.4374 15.6586C34.4283 15.7023 34.4163 15.7429 34.4043 15.7851C34.3997 15.8001 34.3967 15.8137 34.3922 15.8287C34.1484 13.6582 33.5644 11.4501 31.7777 10.0262C30.9965 9.40451 30.2318 9.15616 29.2339 9.27507C27.7407 9.45419 26.4207 10.4551 25.5236 11.6202C23.9627 13.6462 22.2889 18.0835 22.6426 20.6363C22.7585 21.4762 23.0701 22.2258 23.758 22.7481C23.4012 22.8806 23.0475 23.019 22.6968 23.1651L22.6803 23.15C22.5869 23.141 22.4635 23.2313 22.3762 23.2764L22.3672 23.2222L22.3551 23.2373C22.2754 23.0642 22.033 23.0085 21.8644 22.9333C21.6492 22.8369 21.4641 22.7075 21.3843 22.4742C21.2518 22.0918 21.315 21.5876 21.3361 21.1902C21.4836 18.4387 22.4786 15.8814 23.6586 13.4204C23.8558 13.0426 24.0771 12.6783 24.3209 12.3291L24.3194 12.3261Z" fill="#258ECD"/>
<path d="M23.9298 22.4543C23.838 22.4091 23.7507 22.3188 23.683 22.2435C23.126 21.6264 22.9529 20.5562 22.9845 19.7539C23.0508 18.1012 23.829 15.735 24.6674 14.2931C25.0647 13.6082 25.5735 12.9369 26.159 12.404C27.0456 11.5973 28.197 11.081 29.4087 11.1427C29.4644 11.1457 29.5201 11.1487 29.5758 11.1547C29.6315 11.1607 29.6872 11.1668 29.7429 11.1743C29.7986 11.1818 29.8528 11.1924 29.9085 11.2029C29.9626 11.2134 30.0183 11.2255 30.0725 11.239C30.1267 11.2526 30.1809 11.2676 30.2336 11.2842C30.2878 11.3007 30.3405 11.3173 30.3931 11.3369C30.4458 11.3564 30.4985 11.376 30.5497 11.3971C30.6009 11.4181 30.652 11.4407 30.7032 11.4648C30.7544 11.4889 30.8041 11.5145 30.8522 11.5401C30.9019 11.5671 30.9501 11.5942 30.9982 11.6228C31.0464 11.6514 31.0931 11.6815 31.1397 11.7132C31.1864 11.7448 31.2315 11.7764 31.2767 11.811C31.3218 11.8441 31.3655 11.8787 31.4076 11.9149C31.4513 11.951 31.4934 11.9871 31.5341 12.0247C31.5747 12.0624 31.6154 12.1015 31.6545 12.1406C31.6936 12.1798 31.7313 12.2219 31.7689 12.2626C32.8737 13.4863 33.6594 15.9894 33.5751 17.6617C33.5917 18.2006 33.6293 18.7665 33.5255 19.2979L33.4999 19.3355C33.247 19.4017 32.955 19.4002 32.6946 19.4228C32.9384 18.7349 33.0619 18.1434 33.107 17.4164C33.0408 16.8925 32.9685 16.4109 32.818 15.9021C32.511 15.1089 32.0233 14.421 31.3218 13.9288C30.7213 13.5074 29.8859 13.2168 29.1453 13.25C28.8925 13.262 28.6336 13.3207 28.3837 13.3629C27.6612 13.6217 27.1043 13.9273 26.5263 14.4421C26.4194 14.57 26.3095 14.6934 26.2222 14.8349C25.4561 15.723 25.1626 17.0837 25.2438 18.2292C25.3086 19.1488 25.584 20.1167 26.0567 20.9114C26.1801 21.1191 26.3186 21.3239 26.4841 21.5015C26.5157 21.5346 26.7129 21.7167 26.7174 21.7423C26.7204 21.7589 26.6994 21.7724 26.6888 21.786C26.6873 21.789 26.6843 21.789 26.6813 21.792C26.2493 21.9621 24.3723 22.6529 23.999 22.4844C23.9765 22.4738 23.9554 22.4633 23.9328 22.4513L23.9298 22.4543Z" fill="#AFB6CC"/>
<path d="M33.1023 17.4199L33.14 17.4651C33.2137 18.0807 32.9232 18.4916 32.9352 18.9402C32.9383 19.0516 32.9819 19.1494 33.0677 19.2216C33.1445 19.2879 33.2258 19.3195 33.3236 19.3391C33.4019 19.3029 33.4214 19.2939 33.4621 19.2111C33.6653 18.7987 33.4395 18.1033 33.5719 17.6653C33.5885 18.2041 33.6261 18.7701 33.5223 19.3014L33.4967 19.3391C33.2438 19.4053 32.9518 19.4038 32.6914 19.4264C32.9352 18.7385 33.0587 18.1469 33.1038 17.4199H33.1023Z" fill="white"/>
<path d="M28.3792 13.3686L28.4047 13.3144C29.2913 13.0826 30.3103 13.2557 31.096 13.7163C31.5461 13.9797 32.1211 14.4448 32.3559 14.9099C32.386 14.9686 32.4071 14.9897 32.4643 15.0213L32.4387 15.0122L32.5455 15.0047C32.6088 14.7022 32.2415 14.0911 32.0759 13.8292C32.0458 13.781 32.0037 13.7434 31.9645 13.7027C31.8155 13.5477 31.671 13.3881 31.525 13.2301C31.6394 13.2376 31.7674 13.4002 31.8411 13.486C32.3062 14.0233 32.5802 14.6901 32.7608 15.3705C32.7954 15.5014 32.8541 15.6745 32.8481 15.81C32.8466 15.8582 32.836 15.8642 32.8135 15.9093C32.5064 15.1161 32.0187 14.4282 31.3173 13.936C30.7167 13.5146 29.8813 13.2241 29.1408 13.2572C28.8879 13.2692 28.629 13.3279 28.3792 13.3701V13.3686Z" fill="white"/>
<path d="M24.5076 22.2838C24.5 22.2341 24.3766 22.1032 24.3435 22.055C24.217 21.8714 24.1162 21.6667 24.0319 21.4605C23.612 20.4354 23.9476 18.143 24.354 17.1405C24.7559 16.1501 25.4724 14.8316 26.5004 14.3936L26.5215 14.4447C26.4146 14.5727 26.3048 14.6961 26.2175 14.8376C25.4513 15.7257 25.1578 17.0864 25.2391 18.2318C25.3038 19.1515 25.5793 20.1193 26.0519 20.9141C26.1753 21.1218 26.3138 21.3265 26.4794 21.5041C26.511 21.5372 26.7082 21.7194 26.7127 21.745C26.7157 21.7615 26.6946 21.7751 26.6841 21.7886C26.6826 21.7916 26.6796 21.7916 26.6765 21.7946L26.5787 21.766V21.745C25.8863 21.5508 25.1698 22.1875 24.5076 22.2823V22.2838Z" fill="white"/>
<path d="M12.8 9.45039C13.0016 8.92357 13.3283 8.40729 13.6338 7.93315C15.3046 5.34721 17.8514 3.36035 20.6496 2.11555C25.6709 -0.121178 31.0716 0.13019 36.1336 2.07641C41.909 4.29809 45.7382 8.6436 48.2113 14.2189C50.2614 18.8398 51.038 23.7769 50.8168 28.8043C50.7837 29.5433 50.7521 30.2869 50.6723 31.0229C50.4149 30.7866 50.15 30.5653 49.8775 30.3486C49.7044 30.2191 49.5238 30.0987 49.3462 29.9738C48.4325 29.4108 47.4798 29.0285 46.4562 28.7275L46.2741 28.3196C45.8511 27.5625 45.3273 26.8565 44.6861 26.271C44.8562 26.5856 45.0504 26.8851 45.2129 27.2042C45.532 27.8334 45.7909 28.5032 46.0423 29.161L46.1085 29.2122L46.1371 29.453L46.107 29.4906L45.952 29.4786L45.9309 29.5072C46.1537 29.748 47.7989 30.3757 48.2594 30.6301C48.9985 31.038 49.721 31.5633 50.3442 32.1338C50.4826 32.2617 50.8093 32.5085 50.8634 32.6771C51.2804 33.0625 51.6025 33.5486 51.9171 34.0198C53.3892 36.2249 54.348 38.9026 54.4413 41.5638C54.4413 41.5879 54.4413 41.6135 54.4413 41.6376C54.4428 41.6496 54.4458 41.6602 54.4473 41.6722C54.4804 41.889 54.4308 42.1584 54.503 42.3571L54.5693 42.3074C54.5482 42.8538 54.5512 43.4694 54.4247 44.0007C54.3977 44.4628 54.2426 44.9219 54.0861 45.3539C54.0454 45.4202 53.9988 45.4969 53.9235 45.53C53.8467 45.5647 53.77 45.5601 53.6962 45.518C53.5999 45.4623 53.5833 45.3419 53.5608 45.244C53.6255 44.9942 53.6947 44.7202 53.6917 44.4613C53.7007 44.1693 53.7203 43.8818 53.6917 43.5913C53.6074 42.7635 53.2266 41.7986 52.8518 41.0626C51.0411 37.5148 48.3317 37.1099 45.1452 35.4783C44.2692 35.0298 43.4127 34.4472 42.6571 33.8196C41.8533 33.1513 41.0631 32.2587 40.5995 31.3149C40.4189 30.9477 40.2954 30.4886 40.0456 30.1695C40.0396 30.1619 40.0335 30.1544 40.0275 30.1469C40.2488 29.7299 40.4445 29.3025 40.6145 28.8614C40.7124 28.6041 40.7816 28.3271 40.902 28.0802L40.8915 27.9598L40.9427 27.8951C41.0586 27.3066 41.176 26.715 41.2076 26.1145C41.2964 24.403 40.753 22.7052 39.5895 21.4333C38.444 20.1795 36.8485 19.5578 35.1823 19.3832C34.7172 19.335 34.2566 19.3365 33.79 19.317C34.2415 18.3235 34.3514 16.9132 34.3935 15.8294C34.3981 15.8144 34.4011 15.7993 34.4056 15.7858C34.4176 15.7436 34.4312 15.703 34.4387 15.6593C34.7503 14.0473 33.6665 10.6184 32.6942 9.26976C32.2772 8.69177 31.779 8.32299 31.0686 8.2086C29.1208 7.89552 27.2484 8.87239 26.0367 10.3595C25.6845 10.793 25.3247 11.2055 24.965 11.6314C24.7558 11.8783 24.6188 12.1146 24.3494 12.3073L24.3208 12.3268C24.6233 11.5667 26.0487 9.81013 26.6749 9.23966C26.8028 9.12226 26.9338 9.01087 27.0677 8.9025C27.2032 8.79412 27.3402 8.69026 27.4817 8.59092C27.6232 8.49158 27.7677 8.39675 27.9152 8.30794C28.0627 8.21763 28.2132 8.13334 28.3667 8.05356C29.4204 7.51771 30.5116 7.38676 31.6405 7.76155C33.0238 8.22064 33.945 9.2788 34.5892 10.5477C34.7759 10.9149 34.9219 11.3033 35.1085 11.6721C35.1582 11.4312 35.2049 11.1648 35.1808 10.9195L35.2049 10.7539L35.3177 10.6455C35.098 9.25321 34.5441 8.12581 33.7117 7.00293C32.6731 5.98542 31.5006 5.21626 29.9908 5.23733C28.1515 5.26142 26.4055 6.36172 25.1637 7.64716C24.6022 8.22817 24.0905 8.85583 23.5305 9.43985C22.7854 10.2195 21.9802 11.2657 21.503 12.235C21.4639 12.229 21.3916 12.2049 21.3555 12.2094C21.068 12.244 20.6511 12.5993 20.4057 12.7633C19.337 13.4813 17.0521 15.1686 15.7562 15.0934C15.3678 15.0708 15.0638 14.8812 14.8395 14.5681C14.5279 14.1346 14.3774 13.68 14.3067 13.1547C14.2841 12.9846 14.2826 12.807 14.2299 12.6429C14.0402 13.1878 13.8897 13.7432 13.7768 14.3107C13.7272 14.553 13.7151 14.8029 13.6519 15.0422C13.5375 14.1677 13.986 12.7964 14.2344 11.9415C14.1351 11.6871 14.0734 11.3861 14.0387 11.1136C13.7663 9.03947 14.9509 7.37773 16.1385 5.81985L16.0753 5.75813L16.1129 5.72953L16.1731 5.76415L16.1972 5.68588L16.2077 5.69491L16.1701 5.69793C15.5876 6.39032 14.8049 6.94574 14.2871 7.69231C14.0222 8.07464 13.0754 9.67918 12.7969 9.86582L12.7307 9.77852C12.7623 9.67015 12.7849 9.56478 12.803 9.4534L12.8 9.45039Z" fill="#31ACDE"/>
<path d="M54.4403 41.6367C54.4418 41.6488 54.4448 41.6593 54.4463 41.6713C54.4794 41.8881 54.4298 42.1575 54.502 42.3562L54.5683 42.3065C54.5472 42.8529 54.5502 43.4685 54.4238 43.9999C54.3214 43.8193 54.4478 42.0341 54.4388 41.6367H54.4403Z" fill="#62CAEB"/>
<path d="M45.8047 11.4574C45.8047 11.4393 45.8047 11.4212 45.8047 11.4032C45.8017 11.3129 45.7536 11.2391 45.7114 11.1608L45.7174 11.0991C45.889 11.2737 45.9794 11.5898 46.2051 11.6952C46.3376 11.9119 46.4655 12.1317 46.589 12.353C46.5047 12.3469 46.4219 12.3183 46.3406 12.2943C46.181 12.0053 45.9523 11.7539 45.8047 11.4574Z" fill="#1D9FDA"/>
<path d="M41.1792 5.51221C41.5646 5.79067 41.9123 6.12181 42.263 6.44242C42.8711 6.99784 43.4566 7.55326 44.0165 8.15835C44.2197 8.35252 44.593 8.66711 44.6668 8.94406C44.7767 9.26919 45.2463 9.82009 45.4615 10.1226L45.4374 10.1708C45.5007 10.2671 45.6241 10.4116 45.6211 10.5275C45.5639 10.5652 45.5895 10.5576 45.5518 10.5652C45.3848 10.2295 45.1259 9.98867 44.9167 9.68613C44.7436 9.43626 44.6051 9.16232 44.4275 8.91546C44.1972 8.59787 43.9052 8.32242 43.6402 8.03342C43.4175 7.78957 43.2098 7.53369 42.9704 7.3049C42.546 6.8985 42.0507 6.55531 41.6609 6.12181L41.6805 6.10375C41.9996 6.3792 42.3699 6.77507 42.7356 6.97526C42.4316 6.63659 41.3237 5.78013 41.1777 5.51221H41.1792Z" fill="#62CAEB"/>
<path d="M44.6664 8.94386C44.4181 8.87462 43.6595 7.95193 43.4307 7.70508C43.6489 7.75625 43.7739 8.08439 43.9816 8.15212C43.9936 8.15513 44.0056 8.15664 44.0177 8.15814C44.2209 8.35231 44.5942 8.6669 44.6679 8.94386H44.6664Z" fill="#80D1E9"/>
<path d="M44.2786 26.0035C44.417 26.0772 44.5796 26.1495 44.6865 26.2684C44.8566 26.583 45.0507 26.8825 45.2133 27.2016C45.5324 27.8308 45.7913 28.5006 46.0427 29.1584L45.7657 29.1538L45.698 29.1252C45.6092 29.0063 45.561 28.8362 45.5053 28.6978C45.3337 28.2688 45.1651 27.8368 44.9634 27.4199C44.7361 26.9502 44.4637 26.4911 44.2786 26.002V26.0035Z" fill="#1A77BC"/>
<path d="M40.9414 27.8946C41.0242 27.9804 41.0904 27.9879 41.2048 27.9954C41.4005 28.009 41.6022 28.0887 41.7948 28.1324C42.0658 28.1926 42.3352 28.2242 42.6122 28.2498C42.6016 28.6758 42.5851 29.1032 42.6438 29.5262C42.8349 30.8959 43.6763 32.2597 44.6171 33.2531C44.8564 33.5045 45.1334 33.7107 45.3742 33.9545C45.3667 33.9545 45.3592 33.9515 45.3516 33.95C45.2162 33.9274 45.1093 33.8792 44.9874 33.8175C43.2534 32.9355 42.3969 31.6169 41.84 29.7791C41.6714 29.2222 41.5525 28.6532 41.3734 28.0978C41.2123 28.0797 41.0588 28.0857 40.8977 28.0782L40.8872 27.9578L40.9384 27.8931L40.9414 27.8946Z" fill="#258ECD"/>
<path d="M40.0273 30.1457C40.2486 29.7288 40.4443 29.3013 40.6144 28.8603C40.7122 28.6029 40.7814 28.326 40.9019 28.0791C41.0629 28.0866 41.2165 28.0791 41.3775 28.0987C41.5566 28.6526 41.6755 29.2231 41.8441 29.78C42.3995 31.6163 43.256 32.9349 44.9915 33.8184C45.1119 33.8801 45.2203 33.9283 45.3558 33.9509C45.3633 33.9509 45.3708 33.9539 45.3783 33.9554C45.854 34.3197 46.4094 34.5816 46.9287 34.8781C47.5774 35.2484 48.2141 35.6457 48.8523 36.0341C51.2185 37.4746 52.5341 39.0987 53.4342 41.6891C53.6735 42.3785 53.8812 43.0257 53.9821 43.7543C54.0016 43.8988 54.0152 44.0417 53.9851 44.1847L53.955 44.2179C53.8586 43.971 53.8496 43.6308 53.7984 43.3659C53.7713 43.7196 53.8285 44.1336 53.6946 44.4617C53.7036 44.1697 53.7232 43.8822 53.6946 43.5917C53.6103 42.7638 53.2295 41.799 52.8547 41.063C51.0439 37.5152 48.3345 37.1103 45.148 35.4787C44.272 35.0301 43.4156 34.4476 42.6599 33.8199C41.8562 33.1516 41.0659 32.259 40.6023 31.3153C40.4217 30.948 40.2983 30.4889 40.0484 30.1698C40.0424 30.1623 40.0364 30.1548 40.0304 30.1472L40.0273 30.1457Z" fill="#1A77BC"/>
<path d="M45.764 29.1558L46.041 29.1603L46.1072 29.2115L46.1358 29.4523L46.1057 29.4899L45.9506 29.4779L45.9296 29.5065C46.1523 29.7473 47.7975 30.375 48.2581 30.6294C48.9972 31.0373 49.7197 31.5626 50.3428 32.133C50.4813 32.261 50.8079 32.5078 50.8621 32.6764C50.9479 32.8977 51.124 33.1069 51.252 33.3086C51.5139 33.7195 51.7517 34.2117 51.8586 34.6889C51.9173 34.9523 51.9594 35.3722 51.7968 35.6055C51.7231 35.7109 51.5801 35.7771 51.4567 35.7967C50.7281 35.9186 47.8984 34.0492 47.1879 33.5058C46.2592 32.7938 44.9241 31.6032 44.7706 30.369C44.7344 30.0784 44.736 29.6766 44.9316 29.4418C45.1303 29.2039 45.4765 29.1829 45.764 29.1573V29.1558Z" fill="#62CAEB"/>
<path d="M46.2727 28.3178C46.4278 27.9836 46.5286 27.5998 46.646 27.2491C47.0705 25.9937 47.4558 24.7234 47.6259 23.4063C47.7825 22.1856 47.784 20.992 47.7268 19.7667C47.5401 15.7915 46.4925 12.9662 44.2347 9.70147C43.8268 9.11293 43.3752 8.53945 42.9162 7.99005C42.6919 7.72213 42.451 7.46775 42.2373 7.19079L42.2509 7.17725C42.883 7.71009 43.3662 8.33324 43.896 8.96241C44.2693 9.40645 44.6787 9.8264 45.031 10.287C45.3124 10.6558 45.5548 11.0697 45.8061 11.4595C45.9536 11.7561 46.1824 12.0074 46.342 12.2964C46.4218 12.319 46.5061 12.3491 46.5903 12.3551C46.8357 12.7344 47.063 13.1138 47.2571 13.5217C47.4588 14.0364 47.8969 14.6957 47.9119 15.2436L48.0639 15.7102C48.0669 15.7253 48.07 15.7418 48.073 15.7569C48.1407 16.0805 48.3063 16.4207 48.4177 16.7353C48.5787 17.1898 48.7202 17.6504 48.8421 18.1155C48.9881 18.671 49.1161 19.2309 49.226 19.7953C49.3358 20.3598 49.4261 20.9272 49.4984 21.4977C49.5706 22.0682 49.6233 22.6402 49.6579 23.2136C49.6926 23.7871 49.7076 24.3621 49.7046 24.9371C49.7046 25.8357 49.6564 26.7328 49.5601 27.6269C49.4909 28.2651 49.2877 29.3699 49.3479 29.972C48.4342 29.409 47.4814 29.0267 46.4579 28.7257L46.2758 28.3178H46.2727Z" fill="url(#paint13_linear_218_39131)"/>
<path d="M46.3406 12.2969C46.4204 12.3195 46.5046 12.3496 46.5889 12.3556C46.8343 12.7349 47.0616 13.1142 47.2557 13.5221C47.4574 14.0369 47.8954 14.6962 47.9105 15.2441C47.5613 14.9054 47.1278 13.7238 46.8809 13.2316C46.7199 12.911 46.5242 12.6039 46.3406 12.2969Z" fill="url(#paint14_linear_218_39131)"/>
<path d="M24.3195 1.74624C25.027 1.64539 25.7194 1.42112 26.4298 1.31275C26.6511 1.27963 26.8739 1.25103 27.0966 1.22695C27.3194 1.20287 27.5437 1.1833 27.7664 1.16825C27.9907 1.15319 28.2135 1.14266 28.4378 1.13513C28.662 1.12911 28.8863 1.1261 29.1106 1.12911C29.3349 1.13212 29.5591 1.13814 29.7834 1.15018C30.0077 1.16223 30.2304 1.17728 30.4547 1.19835C30.6775 1.21942 30.9003 1.24351 31.123 1.27361C31.3458 1.30371 31.5671 1.33683 31.7883 1.37446C32.1737 1.43768 32.5981 1.49337 32.9669 1.62131C32.6704 1.66948 31.2826 1.34586 30.8581 1.2992C28.8035 1.07041 26.8422 1.20889 24.8373 1.69657C25.0059 1.69507 25.1715 1.69055 25.3401 1.70861C25.6772 1.74323 26.0309 1.69657 26.3726 1.71313C27.36 1.76129 28.3339 1.82903 29.3198 1.91482C29.6103 1.94041 29.9008 1.94493 30.1913 1.98105C31.4482 2.1406 32.6493 2.48229 33.849 2.88116C37.9386 4.24186 40.4402 6.0466 43.1737 9.36556C43.6869 9.98872 44.2047 10.6375 44.6488 11.3118C46.011 13.3799 47.4319 16.5424 47.1775 19.0621C47.0992 19.8402 46.8162 20.6621 46.1901 21.1678C45.6076 21.639 44.9031 21.7338 44.1746 21.651C42.0914 21.4147 40.0624 19.5904 38.8056 17.9964C37.5638 16.4204 36.4274 14.6428 35.8268 12.7146C35.7079 12.3308 35.6161 11.9485 35.5348 11.5556C35.4746 11.2636 35.4369 10.9174 35.3225 10.6435C35.1028 9.25117 34.5489 8.12377 33.7165 7.00089C34.1771 7.0882 35.4023 7.78209 35.8629 8.02142C39.3083 9.81863 41.5496 11.0965 44.1024 14.1325C43.3136 12.2269 42.9358 10.5923 41.7196 8.86283C39.2737 5.3813 35.2985 3.3839 31.245 2.40853C30.4713 2.22189 29.675 2.02621 28.8833 1.94041C27.8206 1.82451 26.7474 1.78086 25.6802 1.7628C25.2317 1.75527 24.747 1.84258 24.3075 1.76129C24.297 1.75979 24.2864 1.75678 24.2759 1.75527L24.324 1.75076L24.3195 1.74624Z" fill="#62CAEB"/>
<path d="M12.8004 9.45039C13.0021 8.92357 13.3287 8.40728 13.6342 7.93315C15.305 5.34721 17.8518 3.36035 20.65 2.11555C25.6713 -0.121178 31.072 0.13019 36.134 2.07641C41.9094 4.29809 45.7386 8.6436 48.2117 14.2189C50.2618 18.8398 51.0384 23.7769 50.8172 28.8042C50.7841 29.5433 50.7525 30.2869 50.6727 31.0229C50.4153 30.7866 50.1504 30.5653 49.8779 30.3486C49.7048 30.2191 49.5242 30.0987 49.3466 29.9738C49.2849 29.3702 49.4896 28.2654 49.5588 27.6287C49.6567 26.7346 49.7048 25.8375 49.7033 24.9389C49.7063 24.3639 49.6913 23.7904 49.6567 23.2154C49.6221 22.642 49.5694 22.07 49.4971 21.4995C49.4249 20.929 49.3346 20.3616 49.2247 19.7971C49.1148 19.2327 48.9869 18.6727 48.8409 18.1173C48.7189 17.6507 48.5774 17.1901 48.4164 16.7371C48.305 16.424 48.1394 16.0823 48.0717 15.7587C48.0687 15.7436 48.0657 15.7286 48.0627 15.712L47.9106 15.2454C47.8956 14.6975 47.4561 14.0382 47.2559 13.5235C47.0617 13.1155 46.8344 12.7347 46.5891 12.3569C46.4657 12.1357 46.3377 11.9159 46.2053 11.6992C46.0909 11.3003 45.5972 10.8743 45.5535 10.5703C45.5911 10.5627 45.5655 10.5703 45.6227 10.5326C45.6273 10.4167 45.5023 10.2722 45.4391 10.1759L45.4632 10.1277C45.2479 9.82518 44.7783 9.27428 44.6684 8.94916C44.5962 8.6722 44.2229 8.35761 44.0182 8.16344C43.4583 7.55835 42.8727 7.00444 42.2646 6.44751C41.9139 6.12691 41.5662 5.79576 41.1809 5.5173C39.0255 3.73364 35.7185 2.16372 32.97 1.62636C32.6013 1.49691 32.1768 1.44272 31.7915 1.37951C31.5702 1.34188 31.3489 1.30726 31.1262 1.27866C30.9034 1.24855 30.6806 1.22447 30.4579 1.2034C30.2351 1.18233 30.0108 1.16727 29.7865 1.15523C29.5623 1.14319 29.338 1.13717 29.1137 1.13416C28.8894 1.13115 28.6652 1.13416 28.4409 1.14018C28.2166 1.1462 27.9923 1.15674 27.7696 1.17329C27.5453 1.18835 27.3225 1.20791 27.0998 1.232C26.877 1.25608 26.6542 1.28468 26.433 1.31779C25.7225 1.42617 25.0301 1.65044 24.3227 1.75129L24.2745 1.75581C24.285 1.75731 24.2956 1.76032 24.3061 1.76183C24.7456 1.84461 25.2303 1.75581 25.6788 1.76333C26.746 1.78139 27.8192 1.82505 28.8819 1.94095C29.6752 2.02825 30.4699 2.22392 31.2436 2.40906C35.2971 3.38443 39.2723 5.38183 41.7183 8.86336C42.9345 10.5928 43.3123 12.2275 44.101 14.1331C41.5482 11.0971 39.3069 9.81916 35.8615 8.02195C35.4024 7.78263 34.1772 7.08873 33.7151 7.00143C32.6765 5.98391 31.504 5.21475 29.9943 5.23583C28.1549 5.25991 26.4089 6.36021 25.1671 7.64565C24.6056 8.22666 24.0939 8.85433 23.5339 9.43834C22.7889 10.218 21.9836 11.2642 21.5064 12.2335C21.4673 12.2275 21.395 12.2034 21.3589 12.2079C21.0714 12.2425 20.6545 12.5978 20.4091 12.7618C19.3405 13.4798 17.0556 15.1671 15.7596 15.0919C15.3712 15.0693 15.0672 14.8796 14.8429 14.5666C14.5313 14.1331 14.3808 13.6785 14.3101 13.1532C14.2875 12.9831 14.286 12.8055 14.2333 12.6414C14.0437 13.1863 13.8931 13.7417 13.7802 14.3092C13.7306 14.5515 13.7185 14.8014 13.6553 15.0407C13.5409 14.1662 13.9895 12.7949 14.2378 11.94C14.1385 11.6856 14.0768 11.3846 14.0421 11.1121C13.7697 9.03796 14.9543 7.37622 16.1419 5.81834L16.0787 5.75663L16.1163 5.72803L16.1765 5.76265L16.2006 5.68438L16.2111 5.69341L16.1735 5.69642C15.591 6.38881 14.8083 6.94423 14.2905 7.69081C14.0256 8.07313 13.0788 9.67767 12.8004 9.86432L12.7341 9.77701C12.7657 9.66864 12.7883 9.56328 12.8064 9.45189L12.8004 9.45039Z" fill="url(#paint15_linear_218_39131)"/>
<path d="M46.3588 11.5161C46.9835 12.5412 48.0401 14.5521 48.2945 15.7201C48.0702 15.4853 47.9889 14.9585 47.8745 14.6469L47.8399 14.6529C47.8128 14.9705 48.0702 15.3378 48.0642 15.6644C48.0642 15.6795 48.0642 15.6945 48.0612 15.7096L47.9092 15.243C47.8941 14.6951 47.4546 14.0358 47.2544 13.521C47.4486 13.2215 46.3438 11.9376 46.3573 11.5161H46.3588Z" fill="#31ACDE"/>
<path d="M45.5519 10.567C45.5895 10.5595 45.5639 10.567 45.6211 10.5294C45.6257 10.4135 45.5007 10.269 45.4375 10.1727L45.4616 10.1245C45.7596 10.552 46.1645 11.0367 46.3587 11.5183C46.3451 11.9398 47.4484 13.2237 47.2558 13.5233C47.0616 13.1153 46.8343 12.7345 46.589 12.3567C46.4656 12.1355 46.3376 11.9157 46.2052 11.699C46.0908 11.3001 45.5971 10.8741 45.5534 10.5701L45.5519 10.567Z" fill="#62CAEB"/>
<path d="M24.157 2.59979C24.2759 2.59377 24.4114 2.59226 24.5243 2.63591C24.6206 2.67204 24.7079 2.75031 24.7425 2.84965C24.7787 2.952 24.7546 3.0679 24.7019 3.15972C24.601 3.33583 24.4204 3.41561 24.2353 3.4713C24.1194 3.47882 23.9809 3.49087 23.8695 3.44872C23.7732 3.4126 23.6934 3.33583 23.6588 3.23649C23.6227 3.13112 23.6452 3.02124 23.6964 2.92491C23.7958 2.73827 23.9628 2.65548 24.157 2.59979Z" fill="white"/>
<path d="M14.2332 11.9382C14.8894 10.263 15.7655 8.72314 16.8025 7.25406C17.072 6.87174 17.3489 6.4548 17.6771 6.11914C17.5762 6.37804 17.2661 6.70015 17.1021 6.93044C16.923 7.18031 16.7574 7.44221 16.5888 7.6996C15.5592 9.18072 14.7976 10.9343 14.2287 12.6397C14.039 13.1845 13.8885 13.74 13.7756 14.3074C13.7259 14.5498 13.7139 14.7996 13.6507 15.039C13.5363 14.1644 13.9848 12.7932 14.2332 11.9382Z" fill="#0E0D10"/>
<path d="M15.6313 8.37504C15.9489 7.34398 16.5977 5.89146 17.2284 5.02296C17.57 4.55033 17.99 4.12586 18.4205 3.7315C18.7411 3.43799 19.0632 3.15802 19.4485 2.95331C20.7566 2.25641 22.1474 1.75969 23.6375 1.68142C23.8272 1.67088 24.1101 1.62723 24.2938 1.66787C24.3269 1.6754 24.3359 1.68443 24.3615 1.70249L24.3209 1.74765L24.2727 1.75216C23.8166 1.80334 23.3515 1.97945 22.9195 2.13298C20.9507 2.83139 19.3733 3.95879 17.9208 5.4399C17.543 5.82523 17.1636 6.20605 16.8265 6.62901C16.3809 7.18744 16.0317 7.78802 15.6329 8.37805L15.6313 8.37504Z" fill="white"/>
<path d="M48.0626 15.7101C48.0626 15.6951 48.0641 15.68 48.0656 15.665C48.0716 15.3383 47.8143 14.9711 47.8414 14.6535L47.876 14.6475C47.9904 14.9575 48.0716 15.4859 48.2959 15.7207C49.3842 18.6107 50.1699 21.761 50.2677 24.8602C50.3024 25.953 50.2391 27.0413 50.1398 28.128C50.0736 28.8611 50.0194 29.6257 49.8779 30.3467C49.7048 30.2172 49.5242 30.0968 49.3466 29.9719C49.2848 29.3683 49.4895 28.2635 49.5588 27.6268C49.6566 26.7327 49.7048 25.8356 49.7033 24.937C49.7063 24.362 49.6912 23.7885 49.6566 23.2136C49.622 22.6401 49.5693 22.0681 49.4971 21.4976C49.4248 20.9272 49.3345 20.3597 49.2246 19.7952C49.1148 19.2308 48.9868 18.6709 48.8408 18.1154C48.7189 17.6488 48.5774 17.1882 48.4163 16.7352C48.305 16.4221 48.1394 16.0804 48.0716 15.7568C48.0686 15.7417 48.0656 15.7267 48.0626 15.7101Z" fill="#1A77BC"/>
<path d="M21.8631 3.0741C22.14 3.05152 22.4275 3.05152 22.6683 3.21258C22.7557 3.27128 22.8309 3.35859 22.8414 3.46696C22.867 3.72284 22.581 3.98174 22.3989 4.12473C21.9564 4.47243 21.416 4.66359 20.9374 4.95109C20.6243 5.13623 20.3202 5.33491 20.0222 5.54414C19.7257 5.75336 19.4367 5.97462 19.1567 6.20642C18.8767 6.43822 18.6058 6.68056 18.3439 6.93343C18.082 7.18631 17.8306 7.44821 17.5898 7.72065C17.4167 7.93439 17.2361 8.13458 17.0449 8.33327C17.1428 7.61529 17.5145 6.91838 17.9104 6.31931C18.7353 5.0715 20.3518 3.38718 21.8631 3.0741Z" fill="white"/>
<path d="M16.5886 7.69926C16.5886 7.7098 16.5901 7.72033 16.5916 7.73087C16.6142 8.1177 16.1927 8.8387 16.0287 9.215C15.5876 10.2295 14.5204 12.7763 15.5515 13.6764C15.7547 13.854 16.0136 13.9504 16.283 13.9248C17.9086 13.7758 21.5753 9.56571 22.8171 8.32392C22.8442 8.70323 22.8924 9.05093 23.0037 9.41368C23.1784 9.4197 23.3575 9.4197 23.5321 9.43475C22.787 10.2144 21.9817 11.2606 21.5046 12.2299C21.4654 12.2239 21.3932 12.1998 21.3571 12.2043C21.0696 12.2389 20.6526 12.5942 20.4073 12.7582C19.3386 13.4762 17.0537 15.1635 15.7577 15.0883C15.3694 15.0657 15.0653 14.8761 14.8411 14.563C14.5295 14.1295 14.379 13.6749 14.3082 13.1496C14.2856 12.9795 14.2841 12.8019 14.2314 12.6378C14.8004 10.9324 15.562 9.17887 16.5916 7.69775L16.5886 7.69926Z" fill="#62CAEB"/>
<defs>
<linearGradient id="paint0_linear_218_39131" x1="47.4713" y1="1.61058" x2="46.8632" y2="3.75278" gradientUnits="userSpaceOnUse">
<stop/>
<stop offset="1" stop-color="#110E1A"/>
</linearGradient>
<linearGradient id="paint1_linear_218_39131" x1="44.0502" y1="56.6046" x2="25.3424" y2="40.3677" gradientUnits="userSpaceOnUse">
<stop stop-color="#0C0C16"/>
<stop offset="1" stop-color="#151B45"/>
</linearGradient>
<linearGradient id="paint2_linear_218_39131" x1="35.8958" y1="41.5803" x2="39.5733" y2="44.5485" gradientUnits="userSpaceOnUse">
<stop stop-color="#336BB3"/>
<stop offset="1" stop-color="#3B83C4"/>
</linearGradient>
<linearGradient id="paint3_linear_218_39131" x1="25.952" y1="47.8055" x2="22.8115" y2="45.396" gradientUnits="userSpaceOnUse">
<stop stop-color="#8EA5C5"/>
<stop offset="1" stop-color="#BECEE1"/>
</linearGradient>
<linearGradient id="paint4_linear_218_39131" x1="35.927" y1="-0.673829" x2="24.5682" y2="45.3022" gradientUnits="userSpaceOnUse">
<stop stop-color="#0F101E"/>
<stop offset="1" stop-color="#172149"/>
</linearGradient>
<linearGradient id="paint5_linear_218_39131" x1="19.8106" y1="32.4514" x2="20.4031" y2="33.0872" gradientUnits="userSpaceOnUse">
<stop stop-color="#CF242C"/>
<stop offset="1" stop-color="#E8434D"/>
</linearGradient>
<linearGradient id="paint6_linear_218_39131" x1="21.8683" y1="29.8976" x2="21.5095" y2="39.2683" gradientUnits="userSpaceOnUse">
<stop stop-color="#C32C38"/>
<stop offset="1" stop-color="#E2474C"/>
</linearGradient>
<linearGradient id="paint7_linear_218_39131" x1="14.045" y1="20.5473" x2="15.5731" y2="27.8915" gradientUnits="userSpaceOnUse">
<stop stop-color="#0D68A7"/>
<stop offset="1" stop-color="#309DCC"/>
</linearGradient>
<linearGradient id="paint8_linear_218_39131" x1="45.2762" y1="7.71076" x2="44.9872" y2="2.27037" gradientUnits="userSpaceOnUse">
<stop stop-color="#0A52A3"/>
<stop offset="1" stop-color="#30AED9"/>
</linearGradient>
<linearGradient id="paint9_linear_218_39131" x1="29.4344" y1="37.4667" x2="23.8014" y2="28.4583" gradientUnits="userSpaceOnUse">
<stop stop-color="#96B3D6"/>
<stop offset="1" stop-color="#D0EBF5"/>
</linearGradient>
<linearGradient id="paint10_linear_218_39131" x1="31.7822" y1="13.9676" x2="0.0814483" y2="18.3242" gradientUnits="userSpaceOnUse">
<stop stop-color="#209BD3"/>
<stop offset="1" stop-color="#7AD0ED"/>
</linearGradient>
<linearGradient id="paint11_linear_218_39131" x1="16.2739" y1="23.3066" x2="13.7873" y2="24.1869" gradientUnits="userSpaceOnUse">
<stop stop-color="#203C72"/>
<stop offset="1" stop-color="#155897"/>
</linearGradient>
<linearGradient id="paint12_linear_218_39131" x1="33.326" y1="11.6951" x2="20.2392" y2="23.5862" gradientUnits="userSpaceOnUse">
<stop stop-color="#12131D"/>
<stop offset="1" stop-color="#161543"/>
</linearGradient>
<linearGradient id="paint13_linear_218_39131" x1="49.281" y1="18.3281" x2="44.7799" y2="18.6411" gradientUnits="userSpaceOnUse">
<stop stop-color="#2261AD"/>
<stop offset="1" stop-color="#218ECD"/>
</linearGradient>
<linearGradient id="paint14_linear_218_39131" x1="46.915" y1="14.0008" x2="47.5375" y2="13.3614" gradientUnits="userSpaceOnUse">
<stop stop-color="#2E7BBE"/>
<stop offset="1" stop-color="#23ACDA"/>
</linearGradient>
<linearGradient id="paint15_linear_218_39131" x1="39.0242" y1="35.3648" x2="25.3968" y2="0.290045" gradientUnits="userSpaceOnUse">
<stop stop-color="#60CAE9"/>
<stop offset="1" stop-color="#A4DCED"/>
</linearGradient>
</defs>
</svg>
