<svg width="69" height="54" viewBox="0 0 69 54" fill="none" xmlns="http://www.w3.org/2000/svg">
<path d="M34.9667 12.3156C35.7489 4.53112 31.611 0.834462 31.144 0.475586C34.5207 0.627174 39.9602 6.94889 38.2567 14.617C39.6546 10.7849 39.3722 7.62296 40.2155 8.07467C41.5141 8.76992 43.8251 15.2089 40.3348 19.873C43.0081 17.1302 42.7932 13.4493 43.6658 14.1994C45.1085 15.4392 46.0783 21.8493 39.7215 25.9741C43.0245 24.8608 44.7737 21.9961 45.1808 22.4293C46.3999 23.7252 42.9334 32.7141 33.5 31.119C29.4432 25.4794 33.1442 20.3907 34.9667 12.3156Z" fill="#BBF9FF"/>
<path d="M30.1723 22.4115C33.8229 16.6474 34.4611 11.8014 36.2142 11.7057C37.9671 11.61 37.2996 17.7712 34.4537 20.8453C37.2819 18.1904 38.6326 14.8438 40.2274 15.6302C41.8227 16.4163 38.9113 22.0076 34.2387 24.7858C37.9055 23.3739 41.3079 19.198 42.0632 20.365C42.8188 21.5325 40.7791 25.772 33.9788 27.5971C36.8468 27.7066 41.6432 25.5061 42.1157 27.0465C42.5881 28.5868 38.4332 30.3937 33.3646 30.0988C35.8772 31.2829 39.6699 30.3159 39.5129 31.7053C39.3558 33.0945 32.0451 36.545 30.5006 32.3097C28.9559 28.0742 30.1725 22.4115 30.1725 22.4115H30.1723Z" fill="#80EEFF"/>
<path d="M30.1645 27.0393C29.5612 32.6939 34.127 37.1874 28.961 38.8182C30.5325 38.2726 30.8305 35.4756 28.0453 32.2518C24.7003 28.38 25.725 24.0401 29.4891 18.9468C35.0348 11.4427 35.2709 3.70035 30.1025 0.428749C29.4365 -0.100281 30.6629 -0.569463 32.8337 1.80506C41.1418 10.8927 30.8772 20.3611 30.1647 27.0393H30.1645Z" fill="#7BDAFF"/>
<path d="M29.1688 25.1044C30.3161 21.7915 33.3743 19.9204 34.3712 21.0187C35.3684 22.1161 32.1101 25.0279 30.7277 25.5731C33.6212 24.1241 35.6121 23.9417 35.902 25.0262C36.1923 26.1111 33.7173 27.4638 32.1389 27.6521C33.9864 27.5001 36.6114 27.6121 36.9334 28.8203C37.2556 30.0284 33.6566 30.8765 31.8478 30.5836C34.5558 30.633 36.8054 32.0145 36.1519 33.1006C35.4983 34.1868 32.9971 33.7561 31.7117 32.9321C32.8423 33.5075 34.5501 35.7562 33.3968 36.3781C32.2431 36.9999 30.9815 35.017 29.7048 32.5458C28.4281 30.0745 29.1688 25.1044 29.1688 25.1044Z" fill="#7BDAFF"/>
<path d="M32.1344 14.9616C31.2863 15.2648 31.7622 16.7488 32.4164 15.9944C33.0704 15.2399 32.7515 14.7413 32.1344 14.9616Z" fill="#62FFFF"/>
<path d="M35.5656 4.7274C35.0132 4.96985 35.6691 6.33349 36.3331 5.87261C36.9974 5.41195 36.68 4.23812 35.5656 4.7274Z" fill="#D9FFFF"/>
<path d="M37.546 14.2436C37.0389 14.0433 36.5096 14.9001 37.1946 15.0467C37.8791 15.1935 38.053 14.4443 37.546 14.2436Z" fill="#D9FFFF"/>
<path d="M38.4583 9.35202C37.9511 9.1515 37.4219 10.0084 38.1071 10.155C38.7921 10.3013 38.9655 9.55231 38.4583 9.35202Z" fill="#D9FFFF"/>
<path d="M39.2538 20.969C39.5041 20.0297 40.6469 20.1352 40.4215 20.9452C40.1958 21.7553 39.0176 21.8543 39.2538 20.969Z" fill="#D9FFFF"/>
<path d="M43.9761 23.2962C43.4938 23.0994 43.122 23.977 43.7483 24.1168C44.3743 24.2568 44.5532 23.5312 43.9761 23.2962Z" fill="#D9FFFF"/>
<path d="M42.2262 7.54756C41.0255 7.9523 41.7345 9.96292 43.0184 9.16807C44.3023 8.37277 43.3272 7.17667 42.2262 7.54756Z" fill="#D9FFFF"/>
<path d="M44.8784 10.8126C43.2345 11.3665 44.2049 14.1189 45.9626 13.0303C47.7203 11.9421 46.3853 10.3045 44.8784 10.8126Z" fill="#D9FFFF"/>
<path d="M41.496 1.49339C40.1016 1.54451 40.4061 3.14143 41.4831 2.94943C42.5602 2.75765 42.482 1.45779 41.496 1.49339Z" fill="#D9FFFF"/>
<path d="M46.8423 4.90161C47.4692 4.08098 48.3844 5.20479 47.8868 5.78362C47.3892 6.36245 46.3659 5.52457 46.8423 4.90161Z" fill="#D9FFFF"/>
<path d="M46.7934 15.1605C46.1631 15.6847 46.6172 16.7205 47.3749 16.3498C48.1326 15.9793 47.5129 14.5611 46.7934 15.1605Z" fill="#D9FFFF"/>
<path d="M55.8772 3.91867C55.2473 4.44311 55.701 5.47889 56.4587 5.10822C57.2164 4.73777 56.5967 3.31952 55.8772 3.91867Z" fill="#D9FFFF"/>
<path d="M35.7063 8.45292C35.0764 8.97737 35.5301 10.0127 36.288 9.64226C37.0457 9.27203 36.426 7.85356 35.7063 8.45292Z" fill="#D9FFFF"/>
<path d="M8.41871 16.7983C6.59855 14.8646 6.29691 11.8005 7.81476 10.1134C8.5668 9.53214 12.8713 13.4872 11.3229 17.0456" fill="#FCC86B"/>
<path d="M7.74824 10.9615C6.74347 11.7428 6.58337 16.4877 9.02189 17.2133C11.4602 17.939 11.0941 15.3541 10.8307 14.651C10.567 13.9476 9.22743 10.7381 7.74824 10.9613V10.9615Z" fill="#FFE2A1"/>
<path d="M9.10135 16.7273C7.89257 16.9658 6.69821 13.9069 7.89804 12.1748C9.25403 12.9723 11.0849 16.3356 9.10135 16.7273Z" fill="#FCA181"/>
<path d="M60.1013 49.3277C62.0868 47.7435 64.7016 49.9658 62.8223 50.891C64.1202 50.8832 64.0363 49.589 63.5758 49.3778C64.3224 49.5833 64.4131 51.2307 63.1991 51.2243C65.6692 51.5948 66.1299 47.4504 63.9948 46.6968" fill="#D6214C"/>
<path d="M47.751 37.1103C51.3513 32.0865 57.2124 33.6773 60.2267 38.1151C63.241 42.5529 62.4874 47.5767 58.7195 49.335C54.9516 51.0934 47.4996 48.8888 50.8489 46.2651C54.1981 43.6413 55.2867 42.2178 53.8632 39.7061C52.44 37.1942 50.0117 37.5291 48.4207 39.2037" fill="#F44D6D"/>
<path d="M49.8789 37.2952C52.3908 36.8765 56.3328 40.9063 53.1686 44.2711C53.7724 44.2962 53.9818 44.5064 53.9818 44.5064C56.6309 43.0706 55.9077 36.0812 49.8791 37.2952H49.8789Z" fill="#D6214C"/>
<path d="M53.1778 44.2964C48.002 44.9809 47.7971 51.7233 54.2818 52.1294C59.808 52.4754 60.3938 49.9209 61.3149 48.8325C62.236 47.744 63.9107 46.7415 65.0828 47.6615C63.9107 45.3158 60.2782 44.8837 59.0802 46.9418C57.8821 48.9998 55.6391 49.102 54.9185 48.1298" fill="#F44D6D"/>
<path d="M2.55817 47.5776C1.53222 47.9675 0.663318 50.2778 0.97414 51.0397C1.4763 52.2705 5.82322 52.6943 6.83498 51.8748C7.59292 51.2608 7.67243 50.078 7.67243 50.078" fill="#C46531"/>
<path d="M17.3458 41.1567C15.0962 41.2129 12.1933 43.2779 11.0213 44.171C9.84917 45.0642 9.17926 45.1098 7.22543 45.3385C5.27181 45.567 2.08977 46.6113 2.2016 48.0986C2.31322 49.5858 7.28134 50.9045 8.34203 50.0777C9.40249 49.251 10.6307 47.632 12.5843 47.2412C14.5379 46.8505 19.9818 48.0879 22.0324 46.6598" fill="#FCC86B"/>
<path d="M16.6571 42.3188C16.2608 43.4492 16.5972 45.305 16.9524 45.7586C17.3075 46.2123 16.7632 46.6937 14.1048 46.6518C11.4463 46.6099 11.2187 47.2214 9.26025 49.2635C10.5734 48.1554 11.7479 47.318 12.8497 47.2376C13.9514 47.1574 21.2845 48.1589 22.5197 46.7776" fill="#E8A842"/>
<path d="M22.1042 21.6581C25.1441 25.8066 26.5674 33.9284 30.8378 35.2683C35.1081 36.6081 36.6154 34.2635 39.211 33.0912C41.8066 31.9191 46.9977 32.5051 49.4262 36.9427C51.8545 41.3805 49.2587 48.1627 44.7372 48.9999C40.2158 49.8371 32.0101 50.507 26.1489 49.4186C20.2878 48.3302 15.0128 45.232 16.6872 40.0407C18.3619 34.8495 17.6485 32.5047 16.205 31.249C12.2877 27.1224 13.1219 23.1062 16.5916 20.8422C20.0611 18.5782 22.1042 21.6578 22.1042 21.6578" fill="#FCC86B"/>
<path d="M46.2364 45.1305C45.4409 45.7521 45.2733 47.2499 46.2364 47.8198C47.1992 48.3899 47.0478 48.0603 48.1492 46.9271C49.2507 45.7941 50.5468 42.9143 50.3454 40.3491C50.1845 42.5764 48.5679 46.464 46.9554 46.7429C46.3203 46.7152 45.9572 45.6672 46.2364 45.1305Z" fill="#E8A842"/>
<path d="M38.1717 40.1924C34.7935 41.2445 34.3726 46.3267 35.7024 47.8865C34.7376 49.1151 31.4282 48.7916 30.2622 48.2547C29.0963 47.7181 30.4112 46.5235 28.7228 45.6703C28.5415 46.3243 27.9198 48.8122 26.6995 49.3386C29.937 50.0642 38.8532 50.4563 41.2052 49.5066C43.5572 48.5571 39.3606 45.4414 39.3606 45.4414" fill="#E8A842"/>
<path d="M19.5179 26.7495C20.2794 28.5764 19.7772 31.4566 18.1445 32.7853C18.6468 33.7792 18.3065 35.8337 17.409 37.2971C18.0189 35.2856 17.7024 32.8017 16.4163 31.4481" fill="#E8A842"/>
<path d="M21.5157 40.041C19.1154 43.2231 21.6269 49.5727 28.6046 49.3283L21.5157 40.041Z" fill="#FCC86B"/>
<path d="M22.5482 23.3782C22.5482 23.3782 21.8783 17.852 16.4358 15.5077C11.68 13.459 5.90563 14.6228 4.64902 20.4836C3.59292 25.41 6.82695 26.5775 4.98539 31.1258C4.41923 32.5242 5.63456 35.0165 8.39766 35.0165C11.1608 35.0165 10.8257 33.5936 12.7516 33.3427C14.6774 33.0915 19.1473 32.2824 19.4496 27.6256C19.61 26.0754 19.2749 23.8655 19.2749 23.8655" fill="#FCC86B"/>
<path d="M25.0033 44.6877C21.8073 44.506 20.2217 45.445 19.5184 45.7447C18.6473 45.8353 17.5279 45.5422 16.9246 44.3491C18.1414 46.7361 19.2224 47.3813 21.7193 48.2306C24.2161 49.0796 26.6994 47.0078 26.6994 47.0078" fill="#E8A842"/>
<path d="M5.31914 24.6074C5.37571 25.9501 6.04126 27.5405 5.83419 29.1313C5.6269 30.7221 4.98669 31.1574 5.15161 32.2823C5.31652 33.407 8.51692 34.0955 9.71521 33.1969C10.9349 32.2819 10.0105 31.8452 10.8598 31.3922C11.4877 31.0574 12.1301 31.2797 14.4605 30.9414C17.3457 30.5224 19.5387 27.2307 18.1895 21.7067C16.9694 16.7115 12.7251 16.279 11.4036 17.8692C9.58459 20.0585 10.8272 24.306 5.31914 24.6074Z" fill="#FFE2A1"/>
<path d="M6.91544 29.8847C5.37137 29.717 4.33341 32.7029 6.95934 32.93C10.1045 33.2022 9.83821 30.2023 6.91544 29.8847Z" fill="#FFEFAE"/>
<path d="M11.3342 18.7441C15.2713 19.0794 14.5859 27.2831 10.0311 27.8932C5.75294 28.4663 5.45217 25.84 5.39429 24.7557C11.021 24.5196 10.1064 19.3304 11.3342 18.7441Z" fill="#FFEFAE"/>
<path d="M15.8561 23.9812C13.7489 21.8467 10.5682 22.6671 10.295 25.4267C10.2465 22.4336 13.6094 21.2072 16.2165 23.7446" fill="#E8A842"/>
<path d="M39.8805 39.5376C35.9451 39.7051 33.5168 48.5621 39.8805 49.66C46.2439 50.7578 47.8861 49.4913 46.7719 48.1567" fill="#FCC86B"/>
<path d="M43.3233 48.1352C41.921 47.3689 37.8262 47.3678 36.9221 48.268C37.2305 48.3525 37.1683 48.6836 37.1683 48.6836C38.2879 48.4001 43.3233 48.1349 43.3233 48.1349V48.1352Z" fill="#E8A842"/>
<path d="M45.63 46.0137C45.4068 46.9068 47.1929 47.2974 47.528 48.1905C47.863 49.0837 47.6761 50.8697 46.5695 51.4278C45.4627 51.9863 42.3927 51.2603 39.8249 52.5444C37.8154 53.1584 35.0977 50.7507 36.0223 49.4185C36.9465 48.0863 42.2252 48.023 43.4534 48.1905" fill="#FCC86B"/>
<path d="M39.4223 51.6054C40.822 50.7618 42.3012 51.0394 43.5012 51.2635C44.7015 51.4874 46.2294 51.623 46.8469 51.2482C46.0691 52.1294 41.5112 51.1768 39.4221 52.8393" fill="#E8A842"/>
<path d="M3.87099 19.916C2.48944 20.7952 2.8221 22.3674 3.9979 22.7018C5.17369 23.0365 5.15163 22.2401 5.15163 22.2401C3.61761 21.9301 3.32667 20.2509 3.87099 19.916Z" fill="#D6214C"/>
<path d="M35.8196 49.4599C33.0054 49.987 33.0838 54.4791 37.3685 53.7487C41.9784 52.9628 39.7509 48.7242 35.8196 49.4599Z" fill="#C46531"/>
<path d="M35.7565 49.584C37.5281 48.9617 39.9584 50.3951 39.2271 50.9916C38.4958 51.5886 35.2462 49.7629 35.7565 49.584Z" fill="#E58251"/>
<path d="M35.1684 49.6675C32.4014 50.1856 32.4787 54.6011 36.6913 53.8831C41.2241 53.1105 39.0339 48.944 35.1684 49.6675Z" fill="#C46531"/>
<path d="M35.0602 50.0425C32.533 50.5156 32.6036 54.5482 36.451 53.8925C40.5906 53.187 38.5904 49.3818 35.0602 50.0425Z" fill="#A0481C"/>
<path d="M47.8626 35.5457C44.6323 32.3587 40.2639 32.2018 36.8589 35.0167C33.4538 37.8318 28.2625 36.1652 26.3646 31.5701C26.3646 31.5701 23.7904 29.9553 22.3455 27.1435C22.2157 28.3815 21.9069 29.2926 21.3794 30.0392C21.6291 29.1703 21.8654 28.2055 22.0327 27.1435C22.5484 23.8739 20.2803 20.2517 18.9326 19.3306C18.9326 19.3306 23.4984 26.9299 19.108 32.2826C19.3312 32.7538 19.5544 34.6021 18.546 36.3884C17.5866 38.0876 15.7586 41.1571 17.1784 43.626C17.722 44.8081 19.7322 44.6788 20.0011 43.9613C20.2313 43.3466 19.8893 39.7935 22.0327 38.7885C21.0502 39.9608 20.28 42.1379 21.8073 44.5065C22.9997 44.1959 26.3646 44.4822 28.8839 45.466C31.4034 46.45 33.5093 45.7661 34.57 44.6869C35.5191 39.7933 40.0405 37.5603 42.6081 39.0674C40.0405 38.3418 36.7208 40.2223 37.7798 42.6409C38.7845 44.9361 41.7136 45.8522 45.677 44.4359C49.6401 43.0196 51.0929 38.7326 47.8624 35.5457H47.8626Z" fill="#FFE2A1"/>
<path d="M11.0254 27.8867C9.49951 23.6259 13.0431 21.9988 16.2046 23.9304C16.3649 25.5177 14.9113 28.5108 11.0254 27.8867Z" fill="#AF4E46"/>
<path d="M11.1758 27.7218C13.3199 28.1405 15.3475 27.0606 15.515 24.7457C13.2202 22.8935 9.92528 24 11.1758 27.7218Z" fill="#EAA4B0"/>
<path d="M11.7992 24.8856C11.0424 25.5669 11.1839 27.299 11.4464 27.5638C11.709 27.8285 13.7528 27.6195 14.5444 26.7102C15.336 25.8011 15.4618 24.8302 14.6671 24.6421C13.8725 24.454 12.7631 24.0178 11.7992 24.8856Z" fill="#FFF3F6"/>
<path d="M12.5851 24.0266C11.309 24.3787 11.3831 27.0737 13.2401 27.1416C15.0974 27.21 15.8261 25.2786 14.9255 24.4032C13.7438 23.7022 12.5851 24.0266 12.5851 24.0266Z" fill="#28B1B5"/>
<path d="M11.7314 25.2363C11.8125 24.3818 12.2967 24.0072 12.4785 23.92C13.1233 23.6931 14.2827 23.7623 15.012 24.4368C15.1911 24.655 15.2879 25.0982 15.2879 25.0982C14.8187 24.4768 12.4592 24.1168 11.7314 25.2363Z" fill="#04425E"/>
<path d="M8.25637 18.2737C7.99863 17.1464 0.281374 13.3289 0.0105247 13.7057C-0.260107 14.0825 4.76699 20.5314 6.0413 20.4833C7.3156 20.435 8.51936 19.4228 8.25637 18.2737Z" fill="#F9A02B"/>
<path d="M8.71798 32.114C8.0544 32.0935 8.58911 30.8906 9.1367 30.8585C9.68408 30.8262 9.74852 32.1466 8.71798 32.114Z" fill="#FCC86B"/>
<path d="M15.0122 13.8101C11.989 10.2687 7.404 11.7079 6.58839 15.7842C6.11003 18.176 6.84875 18.8437 6.07661 20.3948C5.38376 21.7868 4.28769 22.2158 3.03174 21.7386C3.78531 23.9405 7.51277 23.4119 8.46031 21.9579C9.79031 19.9173 8.95395 19.1716 10.3877 17.3366C11.8215 15.5016 14.3266 16.521 14.3266 16.521" fill="#F44D6D"/>
<path d="M5.65625 33.8594C6.92204 34.8531 9.02942 34.6681 9.93436 34.2255C10.6248 33.8878 11.0033 33.304 10.8699 32.4947C11.2923 32.3999 11.5863 32.0725 11.215 31.9102C11.1014 31.8606 10.6218 32.0467 10.75 32.4493C10.9151 32.9674 10.6903 33.608 9.88981 34.082C9.12007 34.5376 7.13478 34.6224 5.65647 33.8594H5.65625Z" fill="#CC7C25"/>
<path d="M48.4031 17.0099C53.4621 10.5126 51.8796 4.88523 51.6681 4.30225C54.5669 6.34083 55.8272 15.0419 50.0192 20.9156C53.4048 18.2886 54.9292 15.311 55.4214 16.1891C56.1789 17.5407 54.6082 24.5826 48.9068 26.7716C52.8083 25.8341 54.6835 22.4326 55.0341 23.5933C55.6134 25.5117 52.8738 31.7714 44.9417 31.8638C48.4852 32.7338 51.6382 31.1668 51.7553 31.7824C52.1056 33.6246 43.9985 39.6818 36.5569 32.9418C36.136 25.6282 42.2618 23.1794 48.4031 17.0099Z" fill="#AEECFF"/>
<path d="M38.5018 23.3048C44.962 20.2257 48.2452 16.2662 49.848 17.1694C51.4508 18.0724 47.404 23.1871 43.1641 24.3227C47.1533 23.5512 50.2243 21.3298 51.1929 22.9298C52.1614 24.5298 46.4519 27.8717 40.7634 27.7133C44.796 28.5224 50.1457 26.7188 50.1586 28.1851C50.1713 29.6512 45.9899 32.28 38.9561 30.073C41.4294 31.7874 46.9027 32.5301 46.4558 34.1694C46.0091 35.8089 41.3237 35.0763 37.0097 31.9561C38.566 34.428 42.4601 35.7043 41.5419 36.8541C40.6236 38.0041 32.227 36.9576 33.2381 32.3119C34.2495 27.6662 38.502 23.3048 38.502 23.3048H38.5018Z" fill="#73E1FF"/>
<path d="M35.8983 27.4248C32.1922 32.1247 33.7059 38.7037 28.2256 37.2446C29.9206 37.6441 31.753 35.3194 31.1005 30.8759C30.317 25.5391 33.6572 22.2492 39.8418 19.8314C48.953 16.2697 53.5055 9.50241 50.7738 3.6728C50.4822 2.82596 51.8293 3.09922 52.4155 6.43897C54.6585 19.2222 40.2751 21.8743 35.8987 27.4246L35.8983 27.4248Z" fill="#64CBFF"/>
<path d="M36.1041 25.1387C38.9771 22.8327 42.729 22.8895 42.994 24.4303C43.2591 25.9709 38.7462 26.7288 37.2187 26.4357C40.5884 26.7751 42.4503 27.7351 42.0982 28.8652C41.7461 29.9956 38.7997 29.8062 37.2993 29.0839C39.0171 29.9897 41.2741 31.5696 40.8809 32.8279C40.4877 34.0863 36.8313 32.8131 35.3975 31.5325C37.7628 33.1034 38.9753 35.6028 37.7886 36.2022C36.6017 36.8016 34.633 35.0079 33.9594 33.549C34.6356 34.699 34.8833 37.6661 33.5151 37.5698C32.1467 37.4737 32.1445 34.9952 32.4029 32.0731C32.661 29.1509 36.1043 25.1384 36.1043 25.1384L36.1041 25.1387Z" fill="#64CBFF"/>
<path d="M51.6609 7.11328C51.4115 10.8265 48.3148 16.7149 39.3377 20.0951C30.3601 23.4748 30.4069 28.598 31.4885 32.3458C31.9529 33.1212 31.6986 27.0308 36.5377 23.781C41.3767 20.5313 52.6303 17.0771 51.6607 7.11328H51.6609Z" fill="#7BDAFF"/>
<path d="M35.7459 25.0994C36.24 23.9164 42.1555 22.4693 41.0651 24.697C40.4118 26.0321 35.1149 26.6102 35.7459 25.0994Z" fill="#4DB7FF"/>
<path d="M34.8177 26.8207C35.2816 25.6401 41.2198 27.3541 40.028 28.6367C38.8365 29.9196 34.4505 27.7547 34.8177 26.8207Z" fill="#4DB7FF"/>
<path d="M34.1639 28.4378C34.7711 28.0403 39.9584 30.36 38.4567 31.5985C37.1819 32.6502 33.3678 28.9594 34.1639 28.4378Z" fill="#4DB7FF"/>
<path d="M33.6606 30.7418C34.2204 30.0092 37.3371 33.084 36.4007 34.2952C35.6766 35.2318 32.8707 31.7763 33.6606 30.7418Z" fill="#4DB7FF"/>
<path d="M44.4155 17.7713C43.4959 17.5633 43.0839 19.1541 44.0852 18.8505C45.0865 18.5469 45.0847 17.9226 44.4155 17.7713Z" fill="#55FFFA"/>
<path d="M53.1896 10.5842C52.5651 10.4888 52.3797 12.0743 53.2255 12.0379C54.0708 12.0018 54.4491 10.7762 53.1896 10.5842Z" fill="#CCFFFF"/>
<path d="M49.6006 20.1822C49.2649 19.7176 48.3165 20.1829 48.8399 20.6999C49.3628 21.2167 49.9366 20.6468 49.6006 20.1822Z" fill="#CCFFFF"/>
<path d="M53.1513 16.337C52.8156 15.8724 51.8671 16.3377 52.3903 16.8547C52.9134 17.3715 53.487 16.8016 53.1513 16.337Z" fill="#CCFFFF"/>
<path d="M47.3365 27.139C48.0851 26.4431 49.0357 27.1814 48.3817 27.7764C47.7277 28.3712 46.631 27.7952 47.3365 27.139Z" fill="#CCFFFF"/>
<path d="M50.204 31.8755C49.8882 31.4283 49.0673 32.0011 49.5422 32.4785C50.0168 32.956 50.5821 32.4104 50.204 31.8755Z" fill="#CCFFFF"/>
<path d="M57.4932 16.853C56.205 16.5367 55.7035 18.7284 57.2842 18.7437C58.8652 18.759 58.6745 17.1428 57.4932 16.853Z" fill="#CCFFFF"/>
<path d="M64.6566 8.08373C62.893 7.65081 62.2065 10.6509 64.3707 10.6719C66.5348 10.6926 66.274 8.48061 64.6566 8.08373Z" fill="#CCFFFF"/>
<path d="M59.2253 11.0454C57.9645 10.3047 57.3374 11.8999 58.397 12.3361C59.4564 12.7721 60.1169 11.5694 59.2253 11.0454Z" fill="#CCFFFF"/>
<path d="M63.0581 17.0963C64.0727 16.7184 64.2509 18.236 63.4864 18.4713C62.7217 18.7067 62.2877 17.3831 63.0581 17.0963Z" fill="#CCFFFF"/>
<path d="M57.2587 26.2123C56.4077 26.3246 56.2277 27.5037 57.1054 27.6004C57.9828 27.6974 58.2309 26.0841 57.2587 26.2123Z" fill="#CCFFFF"/>
<path d="M68.2835 21.2348C67.4325 21.3473 67.2528 22.5261 68.1302 22.6229C69.0076 22.7199 69.2558 21.1066 68.2835 21.2348Z" fill="#CCFFFF"/>
<path d="M51.2242 13.9834C50.3732 14.0956 50.193 15.2743 51.0706 15.3712C51.9483 15.4682 52.1964 13.8549 51.2242 13.9834Z" fill="#CCFFFF"/>
<path d="M24.8381 26.8873C23.3814 29.683 23.2943 34.7413 26.141 37.0018C28.988 39.2625 32.4925 36.4678 31.1028 33.5273C29.7134 30.5866 27.8157 32.0617 27.8157 32.0617C29.4065 31.8941 29.8962 34.5349 28.8559 35.1823C27.8157 35.8295 26.0751 32.9382 27.6301 30.4577C29.1848 27.9773 29.3707 22.2401 25.4748 19.916" fill="#F44D6D"/>
<path d="M25.3036 21.0098C27.3553 22.5602 27.3131 26.2802 26.1828 28.1456C25.0524 30.0109 23.7545 34.8659 26.5595 37.1273C24.0057 35.5371 23.3583 32.6061 24.0944 29.2067C24.7224 26.3071 24.282 24.7003 24.282 24.7003" fill="#D6214C"/>
<path d="M17.6777 16.4635C20.531 17.8347 23.7131 23.7858 21.8709 27.5056C20.0289 31.2252 21.3202 33.7419 24.0995 33.6471C23.9363 32.8247 23.8891 32.2824 23.8891 32.2824C22.5482 31.8567 23.202 30.0723 24.7747 27.4381C27.6299 22.6563 25.6385 14.7147 18.0113 14.3135" fill="#F44D6D"/>
<path d="M17.7217 16.1695C20.5309 17.828 23.0035 22.216 22.1649 26.7624C24.617 19.8013 19.7688 15.514 17.7217 15.2266" fill="#D6214C"/>
<path d="M14.002 17.1525C13.5894 14.5292 14.6498 12.2403 17.2733 11.2914C18.2224 11.2355 19.5463 16.9295 16.2607 18.9947" fill="#FCC86B"/>
<path d="M16.9519 12.0501C15.9309 11.5964 13.5536 14.2549 14.2233 17.6322C14.8932 21.0095 14.9273 19.7499 16.4311 18.4677C17.9352 17.1855 18.1453 12.5806 16.9516 12.0501H16.9519Z" fill="#FFE2A1"/>
<path d="M14.9037 17.8938C13.7712 17.4091 14.5101 14.2096 16.4777 13.4561C17.1477 14.8795 16.7628 18.6894 14.9037 17.8938Z" fill="#FCA181"/>
<path d="M15.914 15.1432C15.1262 14.8844 13.8394 17.7021 15.2002 17.9107C16.5608 18.1193 16.8788 15.4602 15.914 15.1432Z" fill="#F97062"/>
<path d="M10.997 27.0705C10.0527 23.732 13.1006 22.8813 15.2454 23.9813C16.0466 24.1042 16.5181 23.4848 16.4908 22.98C16.6335 23.6696 16.2032 24.4413 15.5147 24.7455C13.9154 23.2901 10.388 23.26 10.997 27.0705Z" fill="#2D1111"/>
<path d="M13.1086 24.1481C11.6908 24.4978 12.0213 27.1366 13.7635 26.7009C15.5057 26.2651 14.7464 23.7444 13.1086 24.1481Z" fill="#04425E"/>
<path d="M12.9229 26.3862C12.6154 26.2827 12.0879 27.2394 12.4083 27.3668C12.7288 27.4941 13.4511 26.5643 12.9229 26.3862Z" fill="white"/>
<path d="M14.5132 24.6918C14.7391 24.5931 15.0462 25.026 14.6976 25.0902C14.349 25.1544 14.2308 24.8152 14.5132 24.6918Z" fill="#FCD6DE"/>
<path d="M29.2948 45.941C29.9088 48.0619 27.4325 49.5854 25.4786 49.697C23.525 49.8089 21.4176 49.509 20.6293 50.0775C19.8408 50.6463 16.7708 50.1996 17.4405 48.5809C18.1102 46.9619 22.5762 44.5618 24.6973 44.5059C25.9037 44.3281 28.9267 45.3464 29.2948 45.9407V45.941Z" fill="#FCC86B"/>
<path d="M26.5177 49.0176C24.7874 48.8221 22.3927 49.0545 21.8117 48.6131C21.5776 48.4351 20.8249 48.3649 20.6294 48.7107C20.4339 49.0565 21.8984 49.4431 24.8011 49.335" fill="#E8A842"/>
<path d="M27.6919 49.0466C28.0608 48.5765 28.8681 48.0757 29.6652 48.1346C31.1725 48.2462 32.8629 50.6206 32.4084 52.2522C31.9536 53.8839 28.8836 54.4981 28.3256 53.2144" fill="#C46531"/>
<path d="M20.6295 48.8974C21.2505 49.3813 26.707 48.9158 27.9394 48.8974C29.172 48.8791 29.9443 50.4786 29.9443 51.7064C29.9443 52.9342 29.386 53.8833 26.6509 53.9949C23.9157 54.1065 20.9956 52.1808 18.9813 51.6859C17.1137 51.227 16.7151 48.9156 17.9704 47.8188" fill="#FCC86B"/>
<path d="M28.6809 45.1431C29.602 46.8086 27.8622 47.9844 24.7177 48.1106C21.7191 48.2308 18.446 47.6034 19.3678 48.9727C20.2898 50.3421 17.3847 49.9057 17.6776 48.8627C17.9705 47.8197 19.0098 47.0591 20.2166 46.4119C22.5524 45.1592 25.2382 44.5518 27.2296 44.5063" fill="#FFE2A1"/>
<path d="M18.0749 48.5293C18.7859 48.2855 19.219 49.4113 21.2288 49.8774C23.2383 50.3435 26.1133 49.3274 27.3413 49.7096C28.5693 50.0919 28.8482 51.9896 28.0946 52.855C27.341 53.7204 24.993 53.8641 22.8755 52.8104C20.691 51.7233 19.2481 51.2598 18.4659 51.0171C17.5535 50.7341 17.0983 48.8641 18.0751 48.5293H18.0749Z" fill="#FFE2A1"/>
<path d="M9.14372 45.5411C8.33816 45.1676 3.5616 45.8261 2.72437 47.8195C2.77067 48.9461 5.73866 49.7619 6.883 49.3349C8.02734 48.9081 9.86934 45.8777 9.14372 45.5411Z" fill="#FFE2A1"/>
<path d="M15.298 42.0893C14.5687 41.9451 12.7721 43.1148 11.7673 44.0916C10.7626 45.0684 15.2679 45.4629 15.8939 44.8629C16.5197 44.2628 16.0273 42.2334 15.298 42.0893Z" fill="#FFE2A1"/>
<path d="M0.365882 14.0318C0.264313 14.0944 0.519436 15.1064 0.910202 14.9529C1.30097 14.7993 0.659011 13.8502 0.365882 14.0318Z" fill="#FFE35A"/>
<path d="M1.52424 14.7439C1.14637 14.8948 1.28703 16.6556 2.19416 16.6838C3.10129 16.7117 2.30294 14.4335 1.52424 14.7439Z" fill="#FFE35A"/>
<path d="M3.19887 15.6989C2.69474 15.724 2.52896 18.0649 3.57566 18.344C4.62236 18.6232 4.18966 15.6495 3.19887 15.6989Z" fill="#FFE35A"/>
<path d="M5.01291 16.7554C4.18027 16.7554 4.14641 19.7697 5.35453 19.9638C6.39862 20.1318 5.78178 16.7554 5.01291 16.7554Z" fill="#FFE35A"/>
<path d="M28.7576 48.8498C28.5012 48.6679 29.7152 48.3444 30.1267 48.3866C30.5383 48.4287 32.2651 49.5838 32.259 51.7726C32.1544 52.178 30.9135 52.785 30.0343 52.5131C30.4111 51.4456 29.9094 49.6663 28.7576 48.8498Z" fill="#E58251"/>
<path d="M1.31509 50.9461C1.03529 50.3998 1.59905 48.942 2.06867 48.8081C2.67568 49.7919 4.83177 50.3991 5.71094 50.4408C5.48072 51.3408 5.06571 51.7595 4.45499 51.969C3.84426 52.1784 1.69188 51.6817 1.31509 50.9463V50.9461Z" fill="#E58251"/>
<path d="M49.8786 35.9975C52.9504 32.0359 62.526 34.9979 61.6427 44.9661C61.2242 44.8309 60.4287 45.2915 60.4287 45.2915C61.0566 43.7844 60.4287 39.2645 58.0424 37.338C59.4239 38.8442 61.4254 42.7512 58.8381 46.0857C59.8843 42.0261 58.7204 39.9602 56.4483 37.5452C54.2022 35.1576 51.1381 35.5648 49.8784 35.9975H49.8786Z" fill="#FF7898"/>
<path d="M58.1681 39.7865C57.114 36.8076 54.0654 36.7925 54.0654 36.7925C57.289 38.6347 57.2505 43.6102 55.1814 44.6742C56.8139 45.0093 57.5517 46.0269 57.5517 46.0269C58.6286 44.7887 59.0052 42.1525 58.1681 39.7865Z" fill="#FF7898"/>
<path d="M57.2169 47.385C56.8423 45.6706 53.7723 43.6914 51.4277 45.1031C47.8433 47.2612 49.9625 51.5535 54.0233 51.2485C58.0843 50.9434 58.9215 48.7666 59.4239 47.1338C58.1679 49.6457 54.6932 50.0225 52.4325 48.6827C50.1718 47.3431 51.8462 45.6267 53.0185 45.5847C51.0929 46.2127 52.7162 49.3043 55.4048 48.973C53.3534 48.4317 53.5766 46.6976 54.3164 46.3623C55.9319 48.359 57.2169 47.385 57.2169 47.385Z" fill="#FF7898"/>
<path d="M58.1096 50.5385C59.5772 49.0873 59.1111 47.3427 60.2192 46.2831C61.4465 45.1097 63.5126 45.7938 64.0709 46.8823C61.8939 46.324 60.0811 50.2314 58.1096 50.5383V50.5385Z" fill="#FF7898"/>
<path d="M54.3166 46.8648C53.4372 47.4406 54.8541 49.5646 56.647 48.9726C58.4398 48.3809 58.6506 47.2623 59.2443 46.6973C57.6238 47.9432 55.4469 48.7175 54.3166 46.8648Z" fill="#D6214C"/>
<path d="M18.7727 14.8913C21.4194 15.5909 25.2257 18.6932 24.7602 22.7844C24.3629 26.2755 22.2383 27.5406 21.3217 29.0895C20.4054 30.6386 21.0358 33.1802 23.3581 33.3955C21.7171 32.758 22.2507 30.3131 23.4634 29.0392C25.4712 26.9297 26.3936 25.4645 26.3084 22.3283C26.1953 18.1596 22.1074 14.4577 18.7727 14.8911V14.8913Z" fill="#FF7898"/>
<path d="M22.5065 17.9531C23.8429 19.801 23.671 23.1458 22.5483 24.7938C21.8991 25.7464 21.1669 27.8564 21.505 28.3684C22.0328 27.1434 27.1879 23.146 22.5068 17.9533L22.5065 17.9531Z" fill="#FF7898"/>
<path d="M26.5177 21.5957C28.3852 23.9973 28.0667 26.4522 26.2247 29.0688C24.3828 31.6853 24.5081 36.1759 27.397 37.1543C30.2857 38.1326 31.498 33.792 29.2172 33.0107C30.9137 34.2391 29.6873 36.8668 27.439 35.9975C25.1905 35.1281 25.8676 32.2252 27.3134 30.3457C29.3708 27.6708 29.9926 23.8147 26.5179 21.5957H26.5177Z" fill="#FF7898"/>
<path d="M13.9154 13.5508C12.8296 11.0002 8.8239 11.4277 7.06513 13.4968C5.75041 15.0433 6.00379 17.6188 6.46424 18.0373C6.58808 15.7842 8.38028 13.5556 10.6925 13.6908C8.39819 13.8594 7.28312 15.6787 6.92708 18.8035C6.65645 21.1806 6.17635 23.3739 4.05957 22.9036C5.99767 24.0239 7.39998 22.2938 7.97619 19.3306C8.76864 15.2562 11.3845 14.4894 13.2877 15.1034C12.6036 14.0092 10.6925 13.8616 9.60413 14.7827C11.1532 13.5267 13.0302 14.1462 13.3917 13.8081C13.2189 13.1165 10.6117 12.2688 8.68717 13.181C10.7701 11.8106 13.6645 13.0451 13.9152 13.5508H13.9154Z" fill="#FF7898"/>
<path d="M8.98986 31.3856C8.6727 31.3675 8.34659 32.0926 8.82167 32.009C9.29675 31.9253 9.41252 31.4096 8.98986 31.3856Z" fill="#E8A842"/>
</svg>
