<svg width="393" height="852" viewBox="0 0 393 852" fill="none" xmlns="http://www.w3.org/2000/svg">
<g filter="url(#filter0_i_89_13285)">
<path d="M-103.046 501.092C-143.143 615.382 -157.523 821.991 -157.523 821.991L-771.324 851.816L-861 -993.662L849.12 -1076.76C849.12 -1076.76 978.014 -564.277 887.208 -292.928C798.69 -28.4145 554.697 -207.153 460.023 130.617C365.349 468.387 6.42407 189.071 -103.046 501.092Z" fill="#FFD72E"/>
</g>
<path d="M-103.046 501.092C-143.143 615.382 -157.523 821.991 -157.523 821.991L-771.324 851.816L-861 -993.662L849.12 -1076.76C849.12 -1076.76 978.014 -564.277 887.208 -292.928C798.69 -28.4145 554.697 -207.153 460.023 130.617C365.349 468.387 6.42407 189.071 -103.046 501.092Z" stroke="#FACD06" stroke-width="2.00732"/>
<defs>
<filter id="filter0_i_89_13285" x="-864.058" y="-1089.85" width="1784.67" height="1942.71" filterUnits="userSpaceOnUse" color-interpolation-filters="sRGB">
<feFlood flood-opacity="0" result="BackgroundImageFix"/>
<feBlend mode="normal" in="SourceGraphic" in2="BackgroundImageFix" result="shape"/>
<feColorMatrix in="SourceAlpha" type="matrix" values="0 0 0 0 0 0 0 0 0 0 0 0 0 0 0 0 0 0 127 0" result="hardAlpha"/>
<feOffset dx="-2.00732" dy="-12.0439"/>
<feGaussianBlur stdDeviation="45.1648"/>
<feComposite in2="hardAlpha" operator="arithmetic" k2="-1" k3="1"/>
<feColorMatrix type="matrix" values="0 0 0 0 0.168627 0 0 0 0 0.168627 0 0 0 0 0.168627 0 0 0 0.25 0"/>
<feBlend mode="normal" in2="shape" result="effect1_innerShadow_89_13285"/>
</filter>
</defs>
</svg>
