<svg width="206" height="57" viewBox="0 0 206 57" fill="none" xmlns="http://www.w3.org/2000/svg">
<g filter="url(#filter0_d_89_13687)">
<rect x="1" width="204.848" height="52.8225" rx="12.8835" transform="rotate(0.220764 1 0)" fill="#0E4DA9"/>
</g>
<g filter="url(#filter1_d_89_13687)">
<rect x="3" y="2.58691" width="199.695" height="43.804" rx="12.8835" transform="rotate(0.220764 3 2.58691)" fill="#145DC8"/>
</g>
<path d="M9.97347 10.7807C9.98812 6.97784 13.0828 3.9069 16.8857 3.92155L189.925 4.58828C193.727 4.60293 196.798 7.69751 196.783 11.5002C196.768 15.4559 193.434 18.5886 189.485 18.3679C173.021 17.448 132.11 15.3226 103.648 15.2069C74.9849 15.0905 33.7567 16.9099 17.2161 17.7049C13.2649 17.8948 9.95823 14.7364 9.97347 10.7807Z" fill="#1F6CDE"/>
<path d="M85.6378 28.9376C85.6402 28.3192 85.6497 27.6321 85.6664 26.8763C85.6968 26.1206 85.7202 25.3786 85.7368 24.6503C85.7671 23.9083 85.7904 23.2144 85.8067 22.5685C85.8229 21.9227 85.8317 21.4074 85.8332 21.0226C85.8343 20.734 85.8699 20.4249 85.9399 20.0954C86.0099 19.7658 86.1141 19.457 86.2526 19.169C86.405 18.8672 86.5984 18.6137 86.8328 18.4085C87.0672 18.1895 87.3563 18.0601 87.7 18.0202C87.92 17.9935 88.1744 17.967 88.4631 17.9407C88.7518 17.9006 89.0542 17.8811 89.3703 17.8823C90.1948 17.8855 90.895 18.06 91.4709 18.4058C92.0467 18.7515 92.5122 19.2068 92.8674 19.7717C93.2363 20.3228 93.5018 20.956 93.664 21.6712C93.8262 22.3727 93.9059 23.0807 93.9032 23.7953C93.9006 24.455 93.8499 25.1282 93.7511 25.8149C93.6523 26.4879 93.4849 27.14 93.2488 27.7713C93.0128 28.4025 92.7013 28.9854 92.3145 29.5199C91.9276 30.0543 91.4449 30.506 90.8663 30.8748C90.7147 30.9704 90.5288 31.0659 90.3086 31.1612C90.1021 31.2566 89.8819 31.3314 89.6481 31.3854C89.4142 31.4533 89.1804 31.5073 88.9466 31.5476C88.7128 31.588 88.4997 31.6078 88.3073 31.607C88.0875 31.6062 87.847 31.5984 87.5859 31.5836C87.3249 31.5689 87.0708 31.5335 86.8236 31.4776C86.5764 31.4354 86.3568 31.359 86.1649 31.2483C85.9729 31.1377 85.8224 30.979 85.7132 30.7725C85.6456 30.4974 85.6124 30.1949 85.6136 29.8651C85.6287 29.5216 85.6368 29.2124 85.6378 28.9376ZM89.1968 20.1079C89.0182 20.1073 88.8739 20.1067 88.7639 20.1063C88.6677 20.1059 88.5784 20.1124 88.4959 20.1259C88.3584 20.1391 88.2477 20.3242 88.1639 20.6812C88.0801 21.0244 88.0097 21.4639 87.9527 21.9996C87.9094 22.5354 87.8796 23.1331 87.8633 23.7927C87.8608 24.4386 87.8584 25.0707 87.856 25.6891C87.8537 26.2938 87.8584 26.8504 87.8702 27.3589C87.882 27.8537 87.8875 28.2179 87.8866 28.4515C87.8863 28.5202 87.8791 28.6164 87.8649 28.74C87.8644 28.8637 87.8845 28.9874 87.9253 29.1113C87.966 29.2351 88.0412 29.3454 88.1508 29.442C88.2604 29.5248 88.432 29.5667 88.6656 29.5676C89.1191 29.5694 89.539 29.3855 89.9252 29.0159C90.3114 28.6464 90.6361 28.1941 90.8993 27.6592C91.1762 27.1105 91.3915 26.5204 91.5451 25.8889C91.6987 25.2573 91.7765 24.6804 91.7785 24.1582C91.7831 22.9626 91.567 21.9929 91.1301 21.2492C90.6933 20.4916 90.0488 20.1112 89.1968 20.1079ZM95.978 26.0709C95.9812 25.2463 96.0734 24.4977 96.2546 23.825C96.4496 23.1524 96.713 22.5762 97.0446 22.0965C97.39 21.6168 97.7969 21.2474 98.2651 20.9881C98.7334 20.7287 99.2561 20.6002 99.8332 20.6024C100.41 20.6047 100.932 20.7372 101.398 21.0001C101.878 21.2631 102.289 21.6357 102.631 22.118C102.986 22.5866 103.259 23.1511 103.449 23.8115C103.639 24.4719 103.732 25.1937 103.729 25.977C103.726 26.7741 103.62 27.5089 103.411 28.1815C103.216 28.8541 102.939 29.4371 102.58 29.9305C102.221 30.4101 101.794 30.7863 101.298 31.0593C100.802 31.3322 100.265 31.4676 99.6883 31.4654C99.1386 31.4632 98.6307 31.3307 98.1644 31.0678C97.7119 30.805 97.3217 30.4393 96.9937 29.9708C96.6656 29.5023 96.4136 28.9378 96.2375 28.2775C96.0614 27.6035 95.9749 26.8679 95.978 26.0709ZM98.0811 25.9553C98.0769 27.0272 98.2179 27.8798 98.5041 28.513C98.804 29.1463 99.2013 29.4639 99.696 29.4658C99.9709 29.4669 100.219 29.3785 100.439 29.2007C100.674 29.0092 100.881 28.7558 101.06 28.4404C101.24 28.1113 101.379 27.727 101.477 27.2876C101.575 26.8483 101.625 26.3812 101.627 25.8865C101.629 25.3918 101.582 24.9381 101.488 24.5254C101.393 24.099 101.257 23.7343 101.08 23.4313C100.916 23.1146 100.718 22.8665 100.485 22.6869C100.266 22.5074 100.026 22.4172 99.7644 22.4162C99.2559 22.4142 98.8493 22.7356 98.5445 23.3803C98.2397 24.0113 98.0852 24.8696 98.0811 25.9553ZM107.881 30.0746C107.88 30.267 107.88 30.4387 107.879 30.5899C107.878 30.7411 107.851 30.8715 107.795 30.9812C107.754 31.0773 107.678 31.1526 107.567 31.2071C107.457 31.2617 107.292 31.2885 107.072 31.2877C106.77 31.2865 106.537 31.2306 106.372 31.1201C106.208 31.0095 106.085 30.8716 106.003 30.7064C105.935 30.5274 105.894 30.3349 105.881 30.1287C105.868 29.9225 105.855 29.7301 105.842 29.5514C105.843 29.4277 105.837 29.1872 105.824 28.8298C105.826 28.4588 105.821 28.0327 105.809 27.5517C105.811 27.057 105.813 26.5348 105.815 25.9851C105.817 25.4354 105.812 24.92 105.8 24.439C105.802 23.9443 105.804 23.5182 105.805 23.1609C105.807 22.7899 105.807 22.5425 105.808 22.4189C105.809 22.2677 105.809 22.0959 105.81 21.9035C105.811 21.6974 105.839 21.5051 105.895 21.3267C105.964 21.1345 106.068 20.9769 106.206 20.8537C106.344 20.7306 106.55 20.6695 106.825 20.6706C107.1 20.6717 107.292 20.7205 107.401 20.8171C107.511 20.9 107.586 21.0034 107.627 21.1272C107.681 21.2373 107.722 21.3406 107.749 21.4369C107.777 21.5194 107.838 21.5609 107.934 21.5613C108.031 21.5616 108.141 21.514 108.265 21.4182C108.389 21.3088 108.541 21.1994 108.72 21.0902C108.899 20.9672 109.112 20.8581 109.36 20.7628C109.621 20.6539 109.938 20.6001 110.309 20.6016C110.9 20.6038 111.38 20.7225 111.75 20.9576C112.134 21.1927 112.428 21.5236 112.633 21.9504C112.851 22.3773 113 22.8932 113.08 23.4982C113.161 24.0894 113.199 24.7492 113.197 25.4776C113.194 26.0272 113.192 26.6044 113.19 27.2091C113.188 27.8138 113.178 28.4459 113.162 29.1055C113.161 29.2841 113.16 29.504 113.159 29.7651C113.158 30.0124 113.13 30.2528 113.074 30.4862C113.018 30.7196 112.921 30.9185 112.783 31.0829C112.659 31.2474 112.466 31.3291 112.205 31.3281C111.903 31.3269 111.676 31.2298 111.526 31.0368C111.389 30.8302 111.287 30.5893 111.22 30.3142C111.166 30.0254 111.139 29.7298 111.141 29.4275C111.142 29.1252 111.143 28.8709 111.143 28.6648C111.131 28.2662 111.119 27.8676 111.107 27.469C111.108 27.0568 111.11 26.6514 111.112 26.2528C111.112 26.0192 111.107 25.71 111.095 25.3252C111.096 24.9266 111.056 24.5417 110.975 24.1703C110.908 23.799 110.786 23.4825 110.608 23.2207C110.43 22.9451 110.163 22.8067 109.806 22.8053C109.105 22.8026 108.609 23.0893 108.318 23.6654C108.041 24.2277 107.901 25.0036 107.897 25.9931L107.881 30.0746ZM119.033 31.6842C118.359 31.6816 117.783 31.5351 117.303 31.2446C116.823 30.9404 116.433 30.5541 116.132 30.0857C115.845 29.6174 115.634 29.0944 115.499 28.5167C115.364 27.9252 115.298 27.3409 115.3 26.7637C115.303 25.8705 115.382 25.0462 115.536 24.291C115.69 23.5357 115.919 22.877 116.224 22.3147C116.528 21.7524 116.915 21.3141 117.383 20.9999C117.866 20.6857 118.423 20.5298 119.055 20.5322C119.577 20.5342 120.023 20.6734 120.393 20.9496C120.777 21.226 121.099 21.5776 121.358 22.0047C121.618 22.4179 121.808 22.8722 121.93 23.3674C122.052 23.8488 122.112 24.3026 122.11 24.7286C122.11 24.7973 122.11 24.8935 122.109 25.0172C122.109 25.1408 122.101 25.237 122.087 25.3057C122.073 25.4705 121.949 25.6143 121.715 25.7371C121.481 25.8462 121.192 25.9481 120.848 26.043C120.518 26.1379 120.16 26.2396 119.775 26.3481C119.389 26.4428 119.032 26.5651 118.701 26.715C118.371 26.8649 118.095 27.0493 117.875 27.2684C117.654 27.4874 117.543 27.7618 117.542 28.0916C117.541 28.2703 117.581 28.456 117.663 28.6487C117.745 28.8276 117.847 28.993 117.97 29.1446C118.107 29.2963 118.265 29.4206 118.443 29.5175C118.621 29.6006 118.814 29.6426 119.02 29.6434C119.267 29.6443 119.46 29.597 119.598 29.5013C119.749 29.3919 119.873 29.2619 119.97 29.1111C120.081 28.9603 120.171 28.7958 120.24 28.6174C120.309 28.4253 120.379 28.2537 120.448 28.1028C120.531 27.952 120.628 27.8287 120.738 27.7329C120.862 27.6234 121.02 27.5691 121.213 27.5698C121.515 27.571 121.742 27.6887 121.892 27.9229C122.056 28.1571 122.137 28.4117 122.136 28.6865C122.135 29.0438 122.044 29.3939 121.864 29.7368C121.698 30.0797 121.511 30.3882 121.304 30.6622C121.028 31.0185 120.69 31.2783 120.291 31.4417C119.892 31.605 119.472 31.6859 119.033 31.6842ZM119.047 22.6142C118.896 22.6136 118.744 22.6611 118.593 22.7567C118.455 22.8524 118.324 22.9756 118.2 23.1262C118.089 23.2632 117.999 23.4209 117.93 23.5993C117.861 23.7777 117.826 23.9494 117.825 24.1143C117.824 24.3891 117.878 24.5611 117.988 24.6302C118.111 24.6994 118.269 24.7344 118.462 24.7351C118.585 24.7356 118.73 24.7224 118.895 24.6956C119.073 24.655 119.239 24.6007 119.39 24.5326C119.555 24.4507 119.686 24.3551 119.783 24.2455C119.893 24.1222 119.949 23.9781 119.949 23.8132C119.95 23.7033 119.93 23.5795 119.889 23.442C119.862 23.3044 119.807 23.1737 119.725 23.0497C119.657 22.9257 119.561 22.8223 119.438 22.7394C119.328 22.6565 119.198 22.6147 119.047 22.6142Z" fill="white"/>
<path d="M107.09 5.3874C108.318 6.84722 107.23 9.78234 105.38 11.339C103.529 12.8956 100.451 13.4639 99.2234 12.0041C97.9954 10.5443 98.7609 7.87965 100.933 6.0525C103.105 4.22535 105.862 3.92758 107.09 5.3874Z" fill="#88B5F6"/>
<defs>
<filter id="filter0_d_89_13687" x="0.88623" y="0.0898438" width="204.871" height="56.0088" filterUnits="userSpaceOnUse" color-interpolation-filters="sRGB">
<feFlood flood-opacity="0" result="BackgroundImageFix"/>
<feColorMatrix in="SourceAlpha" type="matrix" values="0 0 0 0 0 0 0 0 0 0 0 0 0 0 0 0 0 0 127 0" result="hardAlpha"/>
<feOffset dy="2.57671"/>
<feComposite in2="hardAlpha" operator="out"/>
<feColorMatrix type="matrix" values="0 0 0 0 0.0360638 0 0 0 0 0.225575 0 0 0 0 0.503353 0 0 0 1 0"/>
<feBlend mode="normal" in2="BackgroundImageFix" result="effect1_dropShadow_89_13687"/>
<feBlend mode="normal" in="SourceGraphic" in2="effect1_dropShadow_89_13687" result="shape"/>
</filter>
<filter id="filter1_d_89_13687" x="2.90796" y="2.66357" width="199.709" height="46.9966" filterUnits="userSpaceOnUse" color-interpolation-filters="sRGB">
<feFlood flood-opacity="0" result="BackgroundImageFix"/>
<feColorMatrix in="SourceAlpha" type="matrix" values="0 0 0 0 0 0 0 0 0 0 0 0 0 0 0 0 0 0 127 0" result="hardAlpha"/>
<feOffset dy="2.57671"/>
<feComposite in2="hardAlpha" operator="out"/>
<feColorMatrix type="matrix" values="0 0 0 0 0.121569 0 0 0 0 0.423529 0 0 0 0 0.870588 0 0 0 1 0"/>
<feBlend mode="normal" in2="BackgroundImageFix" result="effect1_dropShadow_89_13687"/>
<feBlend mode="normal" in="SourceGraphic" in2="effect1_dropShadow_89_13687" result="shape"/>
</filter>
</defs>
</svg>
