<svg width="206" height="57" viewBox="0 0 206 57" fill="none" xmlns="http://www.w3.org/2000/svg">
<g filter="url(#filter0_d_192_23653)">
<rect x="1" width="204.848" height="52.8225" rx="12.8835" transform="rotate(0.220764 1 0)" fill="#0E4DA9"/>
</g>
<g filter="url(#filter1_d_192_23653)">
<rect x="3" y="2.58691" width="199.695" height="43.804" rx="12.8835" transform="rotate(0.220764 3 2.58691)" fill="#145DC8"/>
</g>
<path d="M9.97347 10.7807C9.98812 6.97784 13.0828 3.9069 16.8857 3.92155L189.925 4.58828C193.727 4.60293 196.798 7.69751 196.783 11.5002C196.768 15.4559 193.434 18.5886 189.485 18.3679C173.021 17.448 132.11 15.3226 103.648 15.2069C74.9849 15.0905 33.7567 16.9099 17.2161 17.7049C13.2649 17.8948 9.95823 14.7364 9.97347 10.7807Z" fill="#1F6CDE"/>
<path d="M28.6363 29.0477C28.6415 27.6873 28.64 26.3061 28.6316 24.9044C28.637 23.5026 28.6698 22.1216 28.73 20.7614C28.7447 20.5278 28.7526 20.2461 28.7539 19.9163C28.769 19.5728 28.8115 19.2431 28.8814 18.9273C28.9514 18.5978 29.0692 18.3234 29.235 18.1041C29.4146 17.8712 29.6692 17.7554 29.9991 17.7566C30.2464 17.7576 30.4386 17.8133 30.5756 17.9238C30.7126 18.0342 30.8151 18.1789 30.8831 18.3578C30.9512 18.5368 30.9916 18.7293 31.0046 18.9355C31.0176 19.1279 31.0237 19.3204 31.023 19.5127C31.0217 19.8563 31.0066 20.1998 30.9778 20.5433C30.9627 20.8868 30.9545 21.2372 30.9531 21.5945C30.9521 21.8556 30.9648 22.1373 30.9911 22.4398C31.0311 22.7423 31.1056 23.0243 31.2146 23.2858C31.3235 23.5473 31.4739 23.7609 31.6656 23.9266C31.8711 24.0923 32.1456 24.1758 32.4892 24.1771C32.929 24.1788 33.2663 24.0083 33.5012 23.6657C33.7499 23.3231 33.9301 22.9184 34.0419 22.4515C34.1537 21.971 34.2174 21.4765 34.2331 20.9681C34.2626 20.446 34.278 20.0132 34.2794 19.6696C34.2802 19.4497 34.2879 19.2367 34.3024 19.0307C34.317 18.8108 34.359 18.6186 34.4283 18.454C34.5115 18.2756 34.6357 18.1387 34.801 18.0431C34.9663 17.9338 35.1933 17.8797 35.4818 17.8808C35.7704 17.8819 35.9762 17.9789 36.0991 18.1718C36.2359 18.351 36.3312 18.5712 36.3852 18.8325C36.4392 19.0939 36.4587 19.3619 36.4439 19.6367C36.4429 19.9116 36.442 20.1314 36.4414 20.2963L36.4321 28.0471C36.4314 28.2395 36.4372 28.5075 36.4497 28.8511C36.4621 29.1947 36.447 29.5313 36.4045 29.861C36.362 30.1907 36.2716 30.4789 36.1332 30.7257C36.0086 30.9589 35.7952 31.0749 35.4929 31.0737C35.163 31.0724 34.916 30.9822 34.7518 30.8029C34.6013 30.6236 34.4923 30.3965 34.4246 30.1214C34.3707 29.8326 34.3376 29.5163 34.3252 29.1727C34.3266 28.8154 34.321 28.465 34.3086 28.1214C34.2959 27.8602 34.2625 27.6127 34.2084 27.3789C34.1681 27.1314 34.0865 26.918 33.9635 26.7389C33.8406 26.546 33.6694 26.3942 33.4499 26.2834C33.2305 26.1726 32.949 26.1166 32.6054 26.1153C32.2344 26.1138 31.9318 26.1676 31.6978 26.2767C31.4637 26.3857 31.2776 26.5362 31.1395 26.728C31.015 26.9199 30.9249 27.1395 30.869 27.3866C30.8268 27.6201 30.8121 27.8743 30.8248 28.1492C30.8372 28.5065 30.8427 28.857 30.8414 29.2005C30.8401 29.5304 30.8046 29.8326 30.7348 30.1071C30.6788 30.368 30.5612 30.5806 30.3819 30.7448C30.2164 30.9091 29.9618 30.9906 29.6182 30.9892C29.3571 30.9882 29.1581 30.9256 29.0212 30.8014C28.8843 30.6635 28.7887 30.4982 28.7345 30.3056C28.6803 30.113 28.6467 29.9067 28.6338 29.6868C28.6347 29.4531 28.6355 29.2401 28.6363 29.0477ZM42.4876 31.3893C41.8142 31.3867 41.2376 31.2401 40.7577 30.9497C40.2779 30.6455 39.8878 30.2592 39.5872 29.7908C39.3004 29.3225 39.0894 28.7994 38.9542 28.2217C38.8191 27.6303 38.7526 27.046 38.7549 26.4688C38.7583 25.5755 38.8371 24.7513 38.9911 23.996C39.1452 23.2408 39.3745 22.582 39.679 22.0198C39.9835 21.4575 40.37 21.0192 40.8384 20.7049C41.3206 20.3907 41.8778 20.2348 42.51 20.2373C43.0322 20.2393 43.4783 20.3784 43.8483 20.6547C44.232 20.931 44.5536 21.2827 44.813 21.7097C45.0726 22.123 45.2632 22.5772 45.385 23.0724C45.5068 23.5539 45.5669 24.0076 45.5653 24.4336C45.565 24.5024 45.5646 24.5985 45.5641 24.7222C45.5637 24.8459 45.5564 24.9421 45.5424 25.0107C45.528 25.1756 45.4038 25.3194 45.1697 25.4422C44.9357 25.5512 44.6467 25.6532 44.3028 25.7481C43.9726 25.843 43.6149 25.9447 43.2297 26.0531C42.8445 26.1478 42.4867 26.2702 42.1563 26.42C41.8259 26.5699 41.5504 26.7544 41.3296 26.9734C41.1089 27.1925 40.9979 27.4669 40.9966 27.7967C40.996 27.9754 41.0365 28.161 41.1182 28.3537C41.1999 28.5327 41.3024 28.698 41.4255 28.8497C41.5623 29.0014 41.7199 29.1256 41.8982 29.2225C42.0765 29.3057 42.2687 29.3476 42.4749 29.3484C42.7222 29.3494 42.9148 29.302 43.0526 29.2064C43.2042 29.097 43.3284 28.9669 43.4251 28.8161C43.5357 28.6654 43.6256 28.5008 43.695 28.3224C43.7645 28.1303 43.8339 27.9588 43.9032 27.8079C43.9862 27.6571 44.0829 27.5337 44.1932 27.438C44.3173 27.3285 44.4755 27.2741 44.6679 27.2749C44.9702 27.2761 45.1965 27.3937 45.3468 27.6279C45.5108 27.8622 45.5923 28.1167 45.5912 28.3916C45.5899 28.7489 45.4992 29.099 45.3192 29.4418C45.153 29.7848 44.9663 30.0933 44.7591 30.3673C44.4828 30.7236 44.1452 30.9834 43.746 31.1467C43.3468 31.3101 42.9274 31.3909 42.4876 31.3893ZM42.5019 22.3192C42.3508 22.3186 42.1994 22.3662 42.0479 22.4618C41.9101 22.5574 41.7791 22.6806 41.6548 22.8313C41.5443 22.9683 41.4544 23.126 41.385 23.3044C41.3156 23.4828 41.2806 23.6544 41.28 23.8193C41.2789 24.0942 41.3332 24.2662 41.4429 24.3353C41.5663 24.4045 41.7242 24.4395 41.9166 24.4402C42.0403 24.4407 42.1846 24.4275 42.3496 24.4006C42.5284 24.3601 42.6936 24.3058 42.845 24.2376C43.0102 24.1558 43.1411 24.0601 43.2378 23.9506C43.3482 23.8273 43.4037 23.6832 43.4043 23.5183C43.4048 23.4084 43.3846 23.2846 43.3439 23.147C43.317 23.0095 43.2625 22.8787 43.1805 22.7547C43.1123 22.6308 43.0165 22.5273 42.8931 22.4444C42.7835 22.3615 42.6531 22.3198 42.5019 22.3192ZM47.9847 22.464C47.9876 21.6945 47.9837 20.9386 47.9728 20.1965C47.9757 19.4406 47.9855 18.678 48.0022 17.9085C48.0031 17.6886 48.0108 17.4687 48.0254 17.2489C48.04 17.0291 48.0819 16.8368 48.1513 16.6722C48.2207 16.4938 48.3312 16.3499 48.4828 16.2406C48.6343 16.1312 48.8613 16.0771 49.1636 16.0783C49.356 16.079 49.507 16.1277 49.6166 16.2243C49.7262 16.321 49.8081 16.445 49.8625 16.5963C49.917 16.734 49.9507 16.8853 49.9638 17.0502C49.9769 17.2152 49.9832 17.3733 49.9826 17.5244L49.9723 20.2042L49.9312 25.5224L49.9209 28.2021C49.9194 28.5869 49.9459 28.8481 50.0003 28.9858C50.0547 29.1234 50.1162 29.2336 50.1846 29.3163C50.2667 29.3853 50.3351 29.468 50.3897 29.5645C50.4444 29.6471 50.4712 29.8259 50.4701 30.1007C50.4693 30.3069 50.4273 30.5266 50.3439 30.7599C50.2606 30.9794 50.0884 31.0887 49.8273 31.0877C49.1127 31.085 48.6187 30.8907 48.3453 30.5048C48.0857 30.119 47.9572 29.6032 47.9596 28.9573L47.9847 22.464ZM52.4817 22.3371C52.4823 22.1859 52.483 22.0073 52.4838 21.8011C52.4846 21.5812 52.506 21.3821 52.5479 21.2036C52.6036 21.0114 52.6936 20.8537 52.8177 20.7305C52.9419 20.5935 53.1208 20.5255 53.3545 20.5264C53.643 20.5275 53.8353 20.5764 53.9311 20.6729C54.0406 20.7696 54.1158 20.8798 54.1566 21.0036C54.1974 21.1137 54.2382 21.2169 54.279 21.3133C54.3199 21.4097 54.4228 21.4582 54.5877 21.4588C54.7114 21.4593 54.8284 21.4047 54.9388 21.2952C55.0629 21.1858 55.2076 21.0626 55.3731 20.9259C55.5385 20.7891 55.7383 20.6662 55.9723 20.5571C56.2063 20.4481 56.502 20.3942 56.8593 20.3956C57.4777 20.398 57.9924 20.558 58.4035 20.8757C58.8283 21.1797 59.1634 21.5932 59.4088 22.1164C59.6542 22.6258 59.8306 23.2105 59.938 23.8706C60.0454 24.5169 60.0978 25.1836 60.0952 25.8708C60.0926 26.5579 60.0281 27.2241 59.902 27.8695C59.7895 28.515 59.5949 29.0914 59.3181 29.5989C59.0551 30.0926 58.7031 30.4898 58.2622 30.7904C57.8213 31.091 57.2779 31.2401 56.632 31.2376C56.3297 31.2364 56.0687 31.1942 55.8492 31.1109C55.6434 31.0139 55.4583 30.9101 55.2938 30.7996C55.1431 30.6753 55.013 30.5717 54.9033 30.4889C54.7938 30.3922 54.6978 30.3438 54.6153 30.3434C54.5466 30.3432 54.4983 30.3842 54.4705 30.4666C54.4428 30.5352 54.4287 30.6176 54.4284 30.7138C54.428 30.81 54.4276 30.9062 54.4272 31.0024C54.4407 31.0849 54.4473 31.1467 54.4471 31.188C54.4465 31.3529 54.4457 31.5728 54.4446 31.8476C54.4435 32.1224 54.4425 32.4042 54.4413 32.6928C54.454 32.9814 54.4598 33.2563 54.4588 33.5174C54.4577 33.7922 54.4568 34.019 54.4562 34.1976C54.4554 34.39 54.4479 34.5618 54.4336 34.7129C54.4329 34.8778 54.4049 35.022 54.3494 35.1454C54.294 35.2689 54.1974 35.3647 54.0597 35.4329C53.922 35.5011 53.7158 35.5347 53.4409 35.5336C53.1661 35.5325 52.9328 35.4423 52.7411 35.2629C52.5494 35.0835 52.4545 34.7465 52.4564 34.2518C52.4598 33.3585 52.4633 32.4515 52.4669 31.5308C52.4704 30.6238 52.4738 29.7443 52.4771 28.8922C52.4804 28.0265 52.4766 27.2157 52.4658 26.4598C52.4688 25.6902 52.4714 25.0168 52.4736 24.4396C52.4759 23.8487 52.4777 23.3677 52.4792 22.9967C52.4806 22.6257 52.4814 22.4058 52.4817 22.3371ZM54.4466 25.9727C54.4455 26.2613 54.4786 26.5843 54.546 26.9419C54.6133 27.2857 54.722 27.616 54.872 27.9326C55.022 28.2355 55.2133 28.4974 55.4461 28.7182C55.6927 28.9252 55.9946 29.0295 56.3519 29.0309C56.9566 29.0332 57.3768 28.7531 57.6126 28.1905C57.8484 27.628 57.9682 26.8383 57.9722 25.8213C57.9731 25.5877 57.9536 25.2784 57.9139 24.8935C57.8879 24.5086 57.8206 24.1373 57.7121 23.7796C57.6172 23.4219 57.4741 23.1121 57.2827 22.8503C57.1051 22.5885 56.872 22.4571 56.5834 22.4559C56.2123 22.4545 55.8959 22.5632 55.6339 22.7821C55.372 22.9872 55.1511 23.2544 54.9712 23.5835C54.805 23.8989 54.68 24.242 54.5962 24.6127C54.5123 24.9697 54.4698 25.2994 54.4687 25.6017L54.4466 25.9727ZM70.3877 31.1669C70.1266 31.1659 69.9205 31.1308 69.7696 31.0615C69.6188 30.9784 69.5024 30.8749 69.4204 30.7509C69.3522 30.6132 69.3047 30.4619 69.2779 30.2969C69.2648 30.1182 69.2586 29.9395 69.2593 29.7608C69.2602 29.541 69.2614 29.218 69.263 28.792C69.2647 28.366 69.2596 27.8987 69.2478 27.3902C69.2498 26.8817 69.245 26.3526 69.2333 25.8029C69.2355 25.2532 69.2305 24.7447 69.2186 24.2774C69.2205 23.7964 69.2221 23.3773 69.2234 23.02C69.2248 22.6627 69.2257 22.4222 69.2262 22.2985C69.2268 22.1474 69.2275 21.9756 69.2282 21.7832C69.229 21.577 69.2572 21.3848 69.3129 21.2063C69.3686 21.0141 69.4654 20.8565 69.6033 20.7333C69.7549 20.6102 69.9682 20.5492 70.243 20.5503C70.4492 20.5511 70.607 20.6066 70.7165 20.717C70.8261 20.8136 70.9081 20.9239 70.9626 21.0478C71.0309 21.158 71.0854 21.2681 71.1262 21.3782C71.1808 21.4746 71.2494 21.523 71.3318 21.5233C71.4005 21.5236 71.4763 21.4689 71.5592 21.3593C71.6558 21.2497 71.7731 21.1265 71.9111 20.9896C72.0628 20.8527 72.2488 20.7298 72.4691 20.6207C72.7031 20.5116 72.985 20.4578 73.3148 20.459C73.6584 20.4603 73.9468 20.5233 74.1799 20.6479C74.413 20.7725 74.6049 20.9106 74.7555 21.0624C74.9199 21.2004 75.0568 21.3315 75.1663 21.4556C75.2895 21.5798 75.4129 21.6421 75.5366 21.6426C75.6603 21.6431 75.7911 21.5817 75.929 21.4586C76.0669 21.3354 76.2323 21.2055 76.4252 21.0688C76.6319 20.9184 76.8661 20.7819 77.1276 20.6592C77.3892 20.5366 77.7055 20.4759 78.0766 20.4774C78.7225 20.4799 79.2165 20.6535 79.5588 20.9984C79.9148 21.3296 80.1742 21.7635 80.3371 22.3001C80.4999 22.8367 80.5938 23.4417 80.6187 24.1152C80.6573 24.7887 80.6753 25.4622 80.6727 26.1356L80.6698 26.8983L80.6839 28.5886L80.6809 29.3513C80.6803 29.53 80.6795 29.7293 80.6786 29.9491C80.6778 30.169 80.6495 30.375 80.5938 30.5672C80.5381 30.7457 80.4414 30.8965 80.3035 31.0196C80.1793 31.1428 79.9867 31.2039 79.7256 31.2029C79.4232 31.2017 79.1967 31.139 79.046 31.0148C78.9092 30.8768 78.8067 30.7115 78.7387 30.5189C78.6846 30.3125 78.6579 30.0925 78.6588 29.8589C78.6597 29.6253 78.6606 29.4054 78.6614 29.1993C78.6622 28.9931 78.6562 28.7595 78.6435 28.4983C78.6445 28.2235 78.6456 27.9486 78.6466 27.6738C78.6478 27.3852 78.6488 27.1104 78.6498 26.8493C78.6509 26.5744 78.6518 26.3339 78.6526 26.1278C78.655 25.5094 78.6501 24.9803 78.6381 24.5405C78.6261 24.1007 78.5793 23.7432 78.4979 23.468C78.4165 23.1928 78.2936 22.9931 78.1292 22.8688C77.9785 22.7445 77.7589 22.6818 77.4703 22.6807C77.1267 22.6794 76.8582 22.8295 76.6646 23.1311C76.4848 23.419 76.353 23.7621 76.269 24.1603C76.1988 24.5448 76.156 24.9432 76.1407 25.3554C76.1392 25.7539 76.1379 26.07 76.137 26.3036L76.1341 27.0663L76.0864 28.7565L76.0834 29.5192C76.0827 29.6978 76.082 29.8902 76.0812 30.0963C76.0805 30.2887 76.0523 30.4673 75.9967 30.632C75.9411 30.7967 75.8443 30.9337 75.7065 31.0431C75.5824 31.1388 75.3899 31.1862 75.1288 31.1852C74.8264 31.184 74.6 31.1076 74.4494 30.9558C74.3126 30.8041 74.2102 30.6182 74.1423 30.3981C74.0883 30.1642 74.0617 29.9236 74.0627 29.6763C74.0637 29.4152 74.0646 29.1816 74.0654 28.9754C74.0662 28.7693 74.067 28.5425 74.068 28.2952C74.0689 28.0478 74.0699 27.8005 74.0708 27.5531C74.0856 27.292 74.0934 27.0378 74.0944 26.7905C74.1091 26.5432 74.1168 26.3164 74.1176 26.1103C74.1185 25.8767 74.1128 25.5675 74.1006 25.1826C74.1021 24.7978 74.0692 24.4198 74.0019 24.0485C73.9346 23.6772 73.8122 23.3537 73.6346 23.0782C73.457 22.8027 73.1895 22.6642 72.8322 22.6628C72.5162 22.6616 72.2546 22.7774 72.0476 23.0103C71.8543 23.2431 71.7021 23.5174 71.5909 23.833C71.4797 24.1487 71.4029 24.4782 71.3603 24.8216C71.3315 25.1651 71.3167 25.4536 71.3158 25.6872L71.2996 29.8924C71.298 30.2909 71.2556 30.6068 71.1722 30.8401C71.0889 31.0597 70.8274 31.1686 70.3877 31.1669ZM86.5772 31.5591C85.9038 31.5565 85.3272 31.41 84.8473 31.1196C84.3675 30.8154 83.9773 30.4291 83.6768 29.9607C83.39 29.4923 83.179 28.9693 83.0438 28.3916C82.9086 27.8002 82.8422 27.2158 82.8444 26.6387C82.8479 25.7454 82.9266 24.9212 83.0807 24.1659C83.2348 23.4107 83.4641 22.7519 83.7686 22.1896C84.0731 21.6274 84.4595 21.1891 84.928 20.8748C85.4102 20.5606 85.9674 20.4047 86.5995 20.4071C87.1217 20.4092 87.5678 20.5483 87.9378 20.8246C88.3215 21.1009 88.6431 21.4526 88.9026 21.8796C89.1621 22.2929 89.3528 22.7471 89.4745 23.2423C89.5964 23.7238 89.6565 24.1775 89.6548 24.6035C89.6545 24.6722 89.6542 24.7684 89.6537 24.8921C89.6532 25.0158 89.646 25.112 89.632 25.1806C89.6176 25.3455 89.4934 25.4893 89.2593 25.6121C89.0252 25.7211 88.7362 25.8231 88.3923 25.9179C88.0621 26.0129 87.7044 26.1146 87.3192 26.223C86.9341 26.3177 86.5763 26.44 86.2459 26.5899C85.9155 26.7398 85.6399 26.9243 85.4192 27.1433C85.1985 27.3623 85.0875 27.6368 85.0862 27.9666C85.0855 28.1452 85.126 28.3309 85.2077 28.5236C85.2895 28.7026 85.3919 28.8679 85.515 29.0195C85.6519 29.1712 85.8094 29.2955 85.9877 29.3924C86.166 29.4756 86.3583 29.5175 86.5644 29.5183C86.8118 29.5193 87.0044 29.4719 87.1422 29.3762C87.2937 29.2669 87.4179 29.1368 87.5147 28.986C87.6252 28.8353 87.7152 28.6707 87.7846 28.4923C87.854 28.3002 87.9234 28.1287 87.9927 27.9778C88.0757 27.8269 88.1724 27.7036 88.2827 27.6079C88.4068 27.4984 88.5651 27.444 88.7575 27.4448C89.0598 27.4459 89.2861 27.5636 89.4364 27.7978C89.6004 28.0321 89.6818 28.2866 89.6808 28.5615C89.6794 28.9188 89.5887 29.2689 89.4088 29.6117C89.2425 29.9547 89.0558 30.2631 88.8486 30.5372C88.5724 30.8934 88.2347 31.1532 87.8355 31.3166C87.4364 31.48 87.0169 31.5608 86.5772 31.5591ZM86.5915 22.4891C86.4403 22.4885 86.289 22.536 86.1374 22.6317C85.9997 22.7273 85.8686 22.8505 85.7444 23.0012C85.6339 23.1382 85.544 23.2959 85.4746 23.4743C85.4052 23.6527 85.3701 23.8243 85.3695 23.9892C85.3684 24.2641 85.4228 24.436 85.5324 24.5052C85.6558 24.5744 85.8137 24.6093 86.0061 24.6101C86.1298 24.6106 86.2742 24.5974 86.4392 24.5705C86.618 24.53 86.7831 24.4756 86.9345 24.4075C87.0998 24.3257 87.2307 24.23 87.3273 24.1204C87.4377 23.9972 87.4933 23.8531 87.4939 23.6882C87.4943 23.5782 87.4742 23.4545 87.4335 23.3169C87.4065 23.1794 87.3521 23.0486 87.2701 22.9246C87.2018 22.8007 87.106 22.6972 86.9827 22.6143C86.8731 22.5314 86.7427 22.4897 86.5915 22.4891ZM101.776 31.2879C101.474 31.2867 101.193 31.0864 100.933 30.6868C100.674 30.2873 100.435 29.7779 100.218 29.1586C100 28.5394 99.8036 27.8584 99.6279 27.1156C99.4521 26.3591 99.3038 25.6233 99.1829 24.9082C99.0619 24.1931 98.9682 23.54 98.9018 22.9488C98.8491 22.3577 98.8233 21.9178 98.8244 21.6292C98.8252 21.4368 98.8741 21.2309 98.9711 21.0114C99.0819 20.7919 99.261 20.6827 99.5083 20.6836C99.687 20.6843 99.8724 20.7194 100.065 20.7888C100.27 20.8446 100.414 21.0238 100.495 21.3265C100.577 21.6016 100.651 21.9455 100.718 22.358C100.799 22.7569 100.873 23.1832 100.94 23.6369C101.021 24.077 101.095 24.5239 101.162 24.9777C101.242 25.4315 101.323 25.8372 101.404 26.1948C101.499 26.5525 101.587 26.8414 101.669 27.0616C101.764 27.2819 101.86 27.3922 101.956 27.3926C102.011 27.3928 102.066 27.3243 102.122 27.1871C102.191 27.0362 102.254 26.8577 102.309 26.6518C102.365 26.4322 102.421 26.1987 102.477 25.9516C102.533 25.6907 102.582 25.4504 102.624 25.2307C102.666 24.9972 102.695 24.7981 102.709 24.6332C102.737 24.4547 102.758 24.3448 102.772 24.3036C102.8 24.1113 102.843 23.8229 102.899 23.4383C102.956 23.04 103.039 22.6487 103.151 22.2643C103.262 21.8662 103.408 21.5232 103.588 21.2353C103.781 20.9475 104.022 20.8041 104.311 20.8052C104.599 20.8063 104.846 20.9791 105.051 21.3234C105.256 21.6678 105.433 22.0945 105.582 22.6035C105.731 23.1126 105.86 23.6696 105.967 24.2747C106.089 24.8799 106.196 25.4368 106.291 25.9457C106.385 26.4545 106.479 26.8809 106.574 27.2248C106.669 27.5688 106.778 27.741 106.902 27.7414C107.04 27.742 107.171 27.5295 107.296 27.1039C107.435 26.6784 107.575 26.1568 107.715 25.5389C107.854 24.9073 107.988 24.2413 108.114 23.5409C108.254 22.8406 108.394 22.2158 108.533 21.6666C108.617 21.3371 108.755 21.0972 108.948 20.9468C109.155 20.7964 109.341 20.7215 109.506 20.7222C109.643 20.7227 109.753 20.7575 109.835 20.8265C109.918 20.8955 109.979 20.9851 110.02 21.0952C110.074 21.1916 110.108 21.3017 110.122 21.4254C110.135 21.5491 110.141 21.6591 110.141 21.7553C110.14 22.1126 110.111 22.4904 110.054 22.8887C110.011 23.2733 109.948 23.6716 109.864 24.0836C109.78 24.4818 109.689 24.8731 109.591 25.2575C109.494 25.6419 109.403 25.9989 109.319 26.3284C109.277 26.5069 109.215 26.7609 109.131 27.0904C109.061 27.4062 108.977 27.7563 108.88 28.1407C108.782 28.5251 108.664 28.9163 108.525 29.3143C108.399 29.7124 108.247 30.076 108.067 30.4051C107.901 30.7205 107.707 30.9809 107.487 31.1862C107.28 31.3915 107.046 31.4937 106.785 31.4927C106.455 31.4914 106.174 31.3392 105.941 31.0359C105.722 30.7328 105.532 30.3541 105.368 29.9C105.205 29.4458 105.07 28.9575 104.962 28.4348C104.854 27.9122 104.753 27.4239 104.658 26.9701C104.577 26.5163 104.496 26.138 104.415 25.8354C104.348 25.5328 104.273 25.3813 104.19 25.381C104.108 25.3807 104.018 25.5315 103.92 25.8335C103.837 26.1217 103.746 26.4856 103.648 26.925C103.55 27.3506 103.439 27.8243 103.313 28.346C103.201 28.8541 103.069 29.3277 102.916 29.7668C102.777 30.1923 102.61 30.5559 102.417 30.8575C102.223 31.1453 102.01 31.2888 101.776 31.2879ZM112.239 18.1766C112.24 17.833 112.351 17.5242 112.572 17.2502C112.793 16.9762 113.089 16.84 113.46 16.8414C113.817 16.8428 114.106 16.9813 114.324 17.257C114.557 17.5327 114.673 17.8424 114.671 18.1859C114.67 18.5295 114.552 18.8383 114.317 19.1122C114.096 19.3725 113.807 19.5019 113.45 19.5005C113.093 19.4991 112.798 19.3675 112.565 19.1055C112.346 18.8298 112.237 18.5201 112.239 18.1766ZM113.569 31.3127C113.267 31.3115 113.034 31.2351 112.869 31.0833C112.705 30.9177 112.582 30.7248 112.501 30.5046C112.433 30.2708 112.392 30.0301 112.38 29.7827C112.367 29.5353 112.354 29.3222 112.341 29.1435C112.328 28.9648 112.315 28.6212 112.304 28.1127C112.306 27.5905 112.301 27.0133 112.29 26.3811C112.292 25.7489 112.295 25.1099 112.297 24.464C112.3 23.8181 112.302 23.2822 112.303 22.8562C112.304 22.6363 112.312 22.4027 112.327 22.1554C112.341 21.9081 112.383 21.6815 112.453 21.4756C112.536 21.256 112.654 21.0778 112.805 20.941C112.957 20.8042 113.17 20.7363 113.445 20.7373C113.844 20.7389 114.111 20.8292 114.248 21.0084C114.385 21.1876 114.452 21.4764 114.451 21.875L114.444 23.7096L114.407 27.8116L114.4 29.6462C114.4 29.7973 114.392 29.9691 114.378 30.1614C114.377 30.3538 114.349 30.5392 114.293 30.7177C114.251 30.8824 114.168 31.0264 114.044 31.1496C113.934 31.2591 113.775 31.3135 113.569 31.3127ZM119.227 17.8531C119.378 17.8536 119.46 17.9227 119.473 18.0602C119.5 18.1839 119.513 18.3008 119.513 18.4107L119.512 18.6581L119.469 19.1733L119.468 19.4206C119.467 19.668 119.466 19.881 119.465 20.0597C119.465 20.2383 119.485 20.3827 119.526 20.4928C119.566 20.6029 119.635 20.6856 119.731 20.7409C119.841 20.7826 119.998 20.8038 120.205 20.8046C120.397 20.8053 120.583 20.7992 120.761 20.7861C120.954 20.7594 121.126 20.7669 121.277 20.8087C121.428 20.8368 121.551 20.906 121.647 21.0163C121.743 21.1266 121.79 21.3123 121.789 21.5734C121.788 21.9307 121.718 22.1778 121.58 22.3147C121.442 22.4516 121.187 22.5193 120.816 22.5179L119.827 22.5141C119.635 22.5134 119.524 22.7397 119.495 23.1931C119.465 23.6465 119.449 24.2511 119.446 25.0069L119.444 25.5429L119.42 26.5941L119.418 27.13C119.417 27.3087 119.416 27.5423 119.415 27.8309C119.428 28.1058 119.461 28.3808 119.515 28.6558C119.582 28.9172 119.685 29.1443 119.821 29.3372C119.972 29.5165 120.184 29.6066 120.459 29.6077C120.652 29.6084 120.824 29.5747 120.975 29.5066C121.127 29.4247 121.264 29.3428 121.388 29.2608C121.512 29.1789 121.629 29.1037 121.74 29.0354C121.864 28.9535 121.981 28.9127 122.09 28.9131C122.242 28.9137 122.324 28.9896 122.337 29.1408C122.364 29.2783 122.377 29.4021 122.377 29.512C122.376 29.8143 122.292 30.0957 122.126 30.3562C121.974 30.6167 121.774 30.8427 121.526 31.0341C121.278 31.2118 121.002 31.3482 120.7 31.4432C120.411 31.5521 120.122 31.6059 119.833 31.6048C119.338 31.6029 118.934 31.4571 118.619 31.1672C118.304 30.8774 118.058 30.5054 117.881 30.0513C117.718 29.5834 117.603 29.0607 117.536 28.4833C117.47 27.9058 117.431 27.3285 117.419 26.7513C117.408 26.174 117.41 25.6243 117.426 25.1022C117.455 24.5801 117.471 24.1404 117.472 23.7831C117.474 23.3158 117.461 22.9997 117.435 22.8347C117.421 22.6697 117.319 22.5869 117.126 22.5861C117.058 22.5859 116.982 22.5787 116.9 22.5647C116.831 22.5507 116.762 22.5092 116.694 22.4402C116.639 22.3713 116.592 22.2749 116.551 22.151C116.51 22.0135 116.49 21.8279 116.491 21.5942C116.492 21.3744 116.513 21.2095 116.555 21.0998C116.597 20.9762 116.652 20.894 116.721 20.853C116.803 20.7984 116.886 20.7712 116.968 20.7715C117.051 20.7581 117.133 20.7515 117.216 20.7519C117.436 20.7527 117.56 20.7051 117.587 20.609C117.629 20.4992 117.651 20.2725 117.652 19.929C117.652 19.874 117.652 19.7984 117.653 19.7022C117.653 19.606 117.647 19.5098 117.633 19.4136C117.634 19.3036 117.634 19.2006 117.634 19.1044C117.635 18.9944 117.635 18.912 117.635 18.857C117.636 18.6921 117.685 18.548 117.781 18.4247C117.892 18.2877 118.023 18.1782 118.174 18.0964C118.34 18.0146 118.512 17.9534 118.69 17.9128C118.883 17.8724 119.062 17.8524 119.227 17.8531ZM128.209 22.8762C127.783 22.8746 127.446 23.0107 127.198 23.2846C126.963 23.5585 126.783 23.8945 126.658 24.2926C126.533 24.6769 126.456 25.082 126.427 25.5079C126.397 25.9338 126.382 26.2979 126.381 26.6003L126.416 28.1464L126.414 28.8885C126.413 29.1084 126.419 29.3627 126.431 29.6513C126.444 29.94 126.422 30.2147 126.366 30.4756C126.31 30.7228 126.206 30.9354 126.055 31.1134C125.903 31.2778 125.662 31.3593 125.332 31.358C125.057 31.357 124.851 31.2531 124.715 31.0464C124.578 30.826 124.483 30.5783 124.429 30.3032C124.389 30.0145 124.37 29.7258 124.371 29.4372C124.372 29.1349 124.373 28.8944 124.373 28.7158C124.361 28.3447 124.349 27.8087 124.338 27.1077C124.327 26.4068 124.316 25.6784 124.306 24.9226C124.295 24.1529 124.284 23.4177 124.273 22.7168C124.276 22.0159 124.278 21.4799 124.279 21.1089C124.281 20.7104 124.282 20.3118 124.284 19.9133C124.299 19.5148 124.314 19.1164 124.329 18.7179C124.33 18.498 124.338 18.2575 124.353 17.9965C124.368 17.7217 124.41 17.4676 124.479 17.2343C124.549 16.9872 124.66 16.7815 124.812 16.6171C124.963 16.4528 125.191 16.3712 125.493 16.3724C125.754 16.3734 125.946 16.4429 126.069 16.5808C126.192 16.7187 126.274 16.8908 126.315 17.097C126.369 17.3034 126.395 17.5234 126.395 17.757C126.394 17.9906 126.393 18.1968 126.392 18.3754C126.392 18.4853 126.384 18.7121 126.369 19.0556C126.354 19.3853 126.346 19.7357 126.344 20.1068C126.343 20.4641 126.362 20.7871 126.402 21.0759C126.442 21.3646 126.518 21.5092 126.627 21.5096C126.724 21.51 126.827 21.4692 126.937 21.3871C127.061 21.2914 127.206 21.1958 127.371 21.1002C127.536 20.9909 127.729 20.8954 127.949 20.8138C128.17 20.7185 128.431 20.6714 128.733 20.6726C129.379 20.675 129.887 20.8694 130.256 21.2556C130.626 21.6418 130.906 22.1239 131.096 22.7018C131.286 23.266 131.408 23.878 131.46 24.5378C131.512 25.1977 131.538 25.7956 131.536 26.3315L131.533 27.0324L131.569 28.4549L131.566 29.1764C131.565 29.355 131.557 29.5749 131.543 29.8359C131.542 30.0833 131.506 30.3305 131.437 30.5776C131.381 30.811 131.277 31.0099 131.125 31.1742C130.987 31.3386 130.788 31.4203 130.527 31.4193C130.224 31.4181 130.005 31.3211 129.868 31.1281C129.731 30.9215 129.636 30.6737 129.582 30.3849C129.542 30.0962 129.523 29.8006 129.524 29.4983C129.539 29.196 129.547 28.9418 129.547 28.7357C129.535 28.3371 129.523 27.9385 129.511 27.54C129.512 27.1277 129.514 26.7223 129.515 26.3238C129.516 26.0901 129.511 25.7809 129.498 25.3961C129.5 24.9975 129.46 24.6126 129.379 24.2412C129.312 23.8699 129.189 23.5534 129.012 23.2916C128.834 23.0161 128.567 22.8776 128.209 22.8762ZM140.799 18.2866C140.8 17.9431 140.911 17.6343 141.132 17.3603C141.353 17.0863 141.649 16.95 142.02 16.9514C142.378 16.9528 142.666 17.0913 142.885 17.367C143.117 17.6428 143.233 17.9524 143.231 18.296C143.23 18.6395 143.112 18.9483 142.877 19.2222C142.657 19.4825 142.367 19.6119 142.01 19.6106C141.653 19.6092 141.358 19.4775 141.125 19.2155C140.906 18.9398 140.798 18.6302 140.799 18.2866ZM142.13 31.4227C141.827 31.4216 141.594 31.3451 141.43 31.1933C141.265 31.0278 141.142 30.8349 141.061 30.6147C140.993 30.3808 140.953 30.1402 140.94 29.8927C140.927 29.6453 140.914 29.4323 140.901 29.2536C140.888 29.0749 140.876 28.7312 140.864 28.2227C140.866 27.7005 140.861 27.1233 140.85 26.4911C140.852 25.859 140.855 25.2199 140.857 24.5741C140.86 23.9282 140.862 23.3922 140.863 22.9662C140.864 22.7463 140.872 22.5127 140.887 22.2654C140.901 22.0181 140.944 21.7915 141.013 21.5857C141.096 21.3661 141.214 21.1879 141.366 21.0511C141.517 20.9142 141.73 20.8463 142.005 20.8474C142.404 20.8489 142.672 20.9393 142.808 21.1185C142.945 21.2976 143.013 21.5865 143.011 21.985L143.004 23.8196L142.968 27.9216L142.96 29.7562C142.96 29.9074 142.952 30.0791 142.938 30.2715C142.937 30.4639 142.909 30.6493 142.853 30.8277C142.811 30.9925 142.728 31.1365 142.604 31.2597C142.494 31.3692 142.336 31.4235 142.13 31.4227ZM153.007 27.4656L153 29.2589C152.999 29.4926 152.998 29.7537 152.997 30.0423C152.996 30.3171 152.974 30.5781 152.932 30.8253C152.89 31.0725 152.806 31.2784 152.682 31.4428C152.572 31.6073 152.399 31.6891 152.166 31.6882C151.918 31.6872 151.733 31.6247 151.61 31.5005C151.487 31.3763 151.391 31.2385 151.323 31.0871C151.255 30.9219 151.2 30.7774 151.16 30.6536C151.133 30.5298 151.085 30.4678 151.016 30.4675C150.947 30.4673 150.858 30.5288 150.747 30.652C150.651 30.7753 150.52 30.9191 150.354 31.0834C150.189 31.2339 149.989 31.3706 149.755 31.4934C149.521 31.6161 149.239 31.6769 148.909 31.6756C147.7 31.671 146.808 31.1522 146.235 30.1193C145.676 29.0864 145.399 27.663 145.406 25.849C145.413 24.2137 145.692 22.9573 146.245 22.0799C146.799 21.1888 147.611 20.7453 148.683 20.7494C148.985 20.7506 149.246 20.7997 149.466 20.8967C149.699 20.9801 149.891 21.077 150.042 21.1876C150.206 21.2981 150.343 21.4017 150.453 21.4983C150.563 21.5812 150.652 21.6228 150.72 21.6231C150.858 21.6236 150.928 21.1566 150.932 20.2221C150.933 20.0023 150.927 19.7824 150.914 19.5624C150.915 19.3288 150.916 19.1158 150.916 18.9234C150.917 18.7173 150.911 18.5386 150.898 18.3874C150.898 18.2362 150.899 18.1331 150.899 18.0782C150.9 17.8995 150.9 17.714 150.901 17.5216C150.916 17.3293 150.951 17.1576 151.006 17.0067C151.075 16.8558 151.179 16.7325 151.317 16.6368C151.455 16.5274 151.654 16.4732 151.915 16.4742C152.218 16.4754 152.437 16.5243 152.574 16.621C152.725 16.7041 152.821 16.8213 152.862 16.9726C152.916 17.124 152.943 17.3027 152.942 17.5089C152.941 17.7012 152.947 17.9074 152.96 18.1273C152.985 18.8283 152.989 19.5223 152.973 20.2094C152.97 20.8965 152.974 21.5905 152.985 22.2914L153.007 27.4656ZM150.91 26.0351C150.911 25.7603 150.884 25.4441 150.831 25.0866C150.777 24.7153 150.682 24.3645 150.546 24.0342C150.41 23.7039 150.226 23.4283 149.993 23.2075C149.76 22.973 149.465 22.855 149.108 22.8537C148.764 22.8523 148.482 22.9749 148.261 23.2215C148.054 23.4543 147.888 23.7422 147.763 24.0853C147.638 24.4147 147.547 24.7647 147.491 25.1356C147.448 25.4927 147.427 25.795 147.426 26.0423C147.425 26.2622 147.444 26.5784 147.484 26.9908C147.524 27.3895 147.598 27.7883 147.706 28.1872C147.815 28.5725 147.964 28.9166 148.156 29.2197C148.361 29.5091 148.621 29.6544 148.937 29.6556C149.295 29.6569 149.59 29.5413 149.825 29.3086C150.073 29.0621 150.274 28.7743 150.426 28.4451C150.592 28.1022 150.711 27.7453 150.781 27.3745C150.851 26.99 150.887 26.6603 150.888 26.3855L150.91 26.0351ZM158.945 31.838C158.272 31.8354 157.695 31.6889 157.215 31.3984C156.735 31.0942 156.345 30.7079 156.045 30.2395C155.758 29.7712 155.547 29.2482 155.412 28.6704C155.277 28.079 155.21 27.4947 155.212 26.9175C155.216 26.0242 155.295 25.2 155.449 24.4448C155.603 23.6895 155.832 23.0307 156.136 22.4685C156.441 21.9062 156.827 21.4679 157.296 21.1537C157.778 20.8394 158.335 20.6835 158.967 20.686C159.49 20.688 159.936 20.8271 160.306 21.1034C160.689 21.3797 161.011 21.7314 161.271 22.1584C161.53 22.5717 161.721 23.026 161.842 23.5212C161.964 24.0026 162.024 24.4563 162.023 24.8824C162.022 24.9511 162.022 25.0473 162.022 25.1709C162.021 25.2946 162.014 25.3908 162 25.4595C161.986 25.6243 161.861 25.7681 161.627 25.8909C161.393 26 161.104 26.1019 160.76 26.1968C160.43 26.2917 160.072 26.3934 159.687 26.5019C159.302 26.5966 158.944 26.7189 158.614 26.8688C158.283 27.0187 158.008 27.2031 157.787 27.4222C157.566 27.6412 157.455 27.9156 157.454 28.2454C157.453 28.4241 157.494 28.6098 157.576 28.8025C157.657 28.9814 157.76 29.1467 157.883 29.2984C158.02 29.4501 158.177 29.5744 158.356 29.6712C158.534 29.7544 158.726 29.7964 158.932 29.7972C159.18 29.7981 159.372 29.7507 159.51 29.6551C159.662 29.5457 159.786 29.4157 159.883 29.2649C159.993 29.1141 160.083 28.9495 160.152 28.7712C160.222 28.579 160.291 28.4075 160.361 28.2566C160.444 28.1058 160.54 27.9825 160.651 27.8867C160.775 27.7772 160.933 27.7229 161.125 27.7236C161.428 27.7248 161.654 27.8425 161.804 28.0767C161.968 28.3109 162.05 28.5655 162.049 28.8403C162.047 29.1976 161.957 29.5477 161.777 29.8906C161.61 30.2335 161.424 30.542 161.217 30.816C160.94 31.1723 160.603 31.4321 160.203 31.5955C159.804 31.7588 159.385 31.8397 158.945 31.838ZM158.959 22.7679C158.808 22.7674 158.657 22.8149 158.505 22.9105C158.368 23.0062 158.237 23.1293 158.112 23.28C158.002 23.417 157.912 23.5747 157.842 23.7531C157.773 23.9315 157.738 24.1031 157.737 24.268C157.736 24.5429 157.791 24.7149 157.9 24.784C158.024 24.8532 158.182 24.8882 158.374 24.8889C158.498 24.8894 158.642 24.8762 158.807 24.8494C158.986 24.8088 159.151 24.7545 159.302 24.6864C159.468 24.6045 159.599 24.5088 159.695 24.3993C159.806 24.276 159.861 24.1319 159.862 23.967C159.862 23.8571 159.842 23.7333 159.801 23.5957C159.774 23.4582 159.72 23.3275 159.638 23.2035C159.57 23.0795 159.474 22.9761 159.351 22.8931C159.241 22.8103 159.111 22.7685 158.959 22.7679ZM164.006 29.1158C164.008 28.5387 164.12 28.0444 164.341 27.6329C164.577 27.2216 164.86 26.8653 165.191 26.5643C165.522 26.2632 165.887 26.0035 166.286 25.7852C166.686 25.5531 167.051 25.3346 167.381 25.1298C167.712 24.9112 167.988 24.6992 168.208 24.4939C168.443 24.2749 168.561 24.0212 168.562 23.7326C168.563 23.4577 168.468 23.2031 168.276 22.9688C168.085 22.7344 167.851 22.6167 167.577 22.6156C167.288 22.6145 167.054 22.6961 166.875 22.8603C166.696 23.0108 166.537 23.1888 166.399 23.3944C166.274 23.5863 166.15 23.7645 166.025 23.9289C165.901 24.0796 165.75 24.1546 165.571 24.1539C165.296 24.1529 165.056 24.0626 164.851 23.8832C164.645 23.7037 164.543 23.4766 164.544 23.2017C164.545 22.8444 164.65 22.5219 164.857 22.2341C165.078 21.9464 165.354 21.6932 165.684 21.4746C166.015 21.256 166.373 21.0924 166.758 20.984C167.144 20.8618 167.501 20.8013 167.831 20.8026C168.491 20.8051 169.005 20.9377 169.375 21.2002C169.759 21.449 170.047 21.78 170.237 22.193C170.442 22.6061 170.571 23.0738 170.624 23.5962C170.677 24.1049 170.702 24.6272 170.7 25.1632L170.696 26.1938L170.647 28.1932L170.643 29.2239C170.642 29.4712 170.648 29.7392 170.661 30.0279C170.673 30.3165 170.665 30.5845 170.637 30.8317C170.609 31.0652 170.539 31.2642 170.429 31.4287C170.318 31.5932 170.146 31.675 169.912 31.6741C169.651 31.6731 169.452 31.6242 169.315 31.5275C169.178 31.4308 169.068 31.3273 168.986 31.217C168.918 31.0931 168.864 30.9829 168.823 30.8866C168.796 30.7903 168.741 30.742 168.658 30.7416C168.576 30.7413 168.466 30.789 168.328 30.8847C168.204 30.9804 168.046 31.0897 167.853 31.2126C167.674 31.3356 167.46 31.4448 167.212 31.54C166.978 31.6353 166.717 31.6824 166.428 31.6813C166.057 31.6799 165.721 31.6098 165.419 31.4713C165.117 31.3189 164.857 31.1255 164.638 30.8911C164.433 30.6566 164.276 30.3881 164.167 30.0853C164.058 29.7688 164.005 29.4456 164.006 29.1158ZM165.986 28.7524C165.985 29.096 166.087 29.3506 166.293 29.5163C166.512 29.6683 166.78 29.7449 167.096 29.7462C167.412 29.7474 167.666 29.6865 167.859 29.5636C168.066 29.4269 168.224 29.2489 168.335 29.0294C168.46 28.81 168.543 28.5699 168.585 28.3089C168.641 28.0343 168.67 27.7664 168.671 27.5053C168.672 27.3129 168.638 27.141 168.57 26.9896C168.502 26.8382 168.351 26.762 168.117 26.7611C167.911 26.7603 167.684 26.8213 167.436 26.944C167.188 27.0667 166.954 27.2307 166.733 27.436C166.527 27.6276 166.347 27.8399 166.195 28.073C166.057 28.3061 165.987 28.5325 165.986 28.7524ZM176.246 20.6907C176.631 20.6922 176.988 20.7485 177.317 20.8598C177.661 20.9573 177.956 21.0958 178.202 21.2754C178.463 21.4551 178.661 21.662 178.798 21.8961C178.948 22.1304 179.022 22.378 179.021 22.6391C179.021 22.8178 178.945 22.9961 178.793 23.1742C178.641 23.3385 178.469 23.4203 178.276 23.4196C178.166 23.4191 178.064 23.3775 177.968 23.2947C177.886 23.1982 177.783 23.1016 177.66 23.0049C177.536 22.8945 177.386 22.7977 177.207 22.7146C177.029 22.6314 176.782 22.5893 176.466 22.588C175.957 22.5861 175.613 22.6947 175.434 22.9139C175.268 23.1331 175.185 23.3389 175.184 23.5313C175.183 23.7924 175.285 24.0196 175.49 24.2128C175.71 24.3923 175.977 24.5719 176.292 24.7518C176.608 24.9317 176.951 25.1254 177.321 25.333C177.691 25.5268 178.034 25.7686 178.349 26.0584C178.664 26.3345 178.923 26.6722 179.128 27.0715C179.346 27.4571 179.455 27.9385 179.452 28.5157C179.451 28.9555 179.373 29.3812 179.221 29.7929C179.082 30.2046 178.867 30.5748 178.577 30.9035C178.288 31.2185 177.929 31.4714 177.503 31.6621C177.076 31.8529 176.581 31.9471 176.017 31.945C175.591 31.9433 175.179 31.8662 174.781 31.7135C174.383 31.5608 174.034 31.367 173.732 31.1322C173.431 30.8975 173.191 30.6354 173.014 30.3461C172.836 30.0431 172.748 29.7473 172.749 29.4587C172.75 29.2526 172.826 29.0399 172.978 28.8206C173.144 28.6013 173.344 28.4922 173.578 28.4931C173.701 28.4935 173.838 28.5697 173.989 28.7214C174.14 28.8594 174.311 29.0181 174.502 29.1975C174.708 29.3769 174.934 29.5427 175.181 29.6948C175.441 29.8333 175.73 29.9031 176.046 29.9043C176.431 29.9058 176.747 29.7833 176.995 29.5369C177.257 29.2768 177.389 28.9819 177.39 28.6521C177.392 28.336 177.283 28.0813 177.064 27.8881C176.844 27.6811 176.57 27.4945 176.241 27.3283C175.912 27.1484 175.555 26.9684 175.171 26.7883C174.787 26.6081 174.431 26.3937 174.102 26.1451C173.773 25.8965 173.499 25.5931 173.281 25.2349C173.062 24.8631 172.954 24.4091 172.956 23.8732C172.958 23.4334 173.035 23.0214 173.188 22.6372C173.354 22.2394 173.575 21.8966 173.851 21.6091C174.141 21.3216 174.486 21.0962 174.885 20.9328C175.298 20.7695 175.751 20.6888 176.246 20.6907Z" fill="white"/>
<path d="M107.09 5.3874C108.318 6.84722 107.23 9.78234 105.38 11.339C103.529 12.8956 100.451 13.4639 99.2234 12.0041C97.9954 10.5443 98.7609 7.87965 100.933 6.0525C103.105 4.22535 105.862 3.92758 107.09 5.3874Z" fill="#88B5F6"/>
<defs>
<filter id="filter0_d_192_23653" x="0.88623" y="0.0898438" width="204.871" height="56.0088" filterUnits="userSpaceOnUse" color-interpolation-filters="sRGB">
<feFlood flood-opacity="0" result="BackgroundImageFix"/>
<feColorMatrix in="SourceAlpha" type="matrix" values="0 0 0 0 0 0 0 0 0 0 0 0 0 0 0 0 0 0 127 0" result="hardAlpha"/>
<feOffset dy="2.57671"/>
<feComposite in2="hardAlpha" operator="out"/>
<feColorMatrix type="matrix" values="0 0 0 0 0.0360638 0 0 0 0 0.225575 0 0 0 0 0.503353 0 0 0 1 0"/>
<feBlend mode="normal" in2="BackgroundImageFix" result="effect1_dropShadow_192_23653"/>
<feBlend mode="normal" in="SourceGraphic" in2="effect1_dropShadow_192_23653" result="shape"/>
</filter>
<filter id="filter1_d_192_23653" x="2.90796" y="2.66357" width="199.709" height="46.9966" filterUnits="userSpaceOnUse" color-interpolation-filters="sRGB">
<feFlood flood-opacity="0" result="BackgroundImageFix"/>
<feColorMatrix in="SourceAlpha" type="matrix" values="0 0 0 0 0 0 0 0 0 0 0 0 0 0 0 0 0 0 127 0" result="hardAlpha"/>
<feOffset dy="2.57671"/>
<feComposite in2="hardAlpha" operator="out"/>
<feColorMatrix type="matrix" values="0 0 0 0 0.121569 0 0 0 0 0.423529 0 0 0 0 0.870588 0 0 0 1 0"/>
<feBlend mode="normal" in2="BackgroundImageFix" result="effect1_dropShadow_192_23653"/>
<feBlend mode="normal" in="SourceGraphic" in2="effect1_dropShadow_192_23653" result="shape"/>
</filter>
</defs>
</svg>
