<svg width="14" height="14" viewBox="0 0 14 14" fill="none" xmlns="http://www.w3.org/2000/svg">
<path d="M7.05513 12.7126L7.05549 12.7126C8.55529 12.7108 9.99313 12.1142 11.0536 11.0536C12.1142 9.99312 12.7108 8.55528 12.7126 7.05549V7.05513C12.7126 5.93619 12.3808 4.84238 11.7591 3.91202C11.1375 2.98165 10.2539 2.25652 9.22014 1.82832C8.18638 1.40013 7.04886 1.28809 5.95142 1.50638C4.85398 1.72468 3.84592 2.2635 3.05471 3.05471C2.2635 3.84591 1.72468 4.85398 1.50639 5.95142C1.28809 7.04885 1.40013 8.18638 1.82833 9.22014C2.25653 10.2539 2.98166 11.1375 3.91202 11.7591C4.84238 12.3808 5.93619 12.7126 7.05513 12.7126ZM6.66098 9.0611L6.66094 9.06113C6.60438 9.11299 6.52998 9.14102 6.45325 9.13935C6.37652 9.13769 6.3034 9.10647 6.24914 9.05219L6.24913 9.05218L4.46264 7.26569C4.40679 7.20981 4.37543 7.13403 4.37546 7.05502C4.37549 6.97602 4.4069 6.90026 4.46278 6.84442C4.51867 6.78858 4.59445 6.75722 4.67345 6.75725C4.75245 6.75728 4.82821 6.78869 4.88405 6.84457L4.88413 6.84464L6.26752 8.22804L6.46912 8.42964L6.67928 8.23698L9.83189 5.34699C9.83191 5.34697 9.83194 5.34694 9.83197 5.34692C9.89014 5.29367 9.96707 5.26567 10.0459 5.26908C10.1246 5.27248 10.1989 5.30699 10.2522 5.36504C10.2787 5.39386 10.2992 5.4276 10.3125 5.46434C10.3259 5.50108 10.332 5.5401 10.3303 5.57917C10.3286 5.61824 10.3192 5.65659 10.3027 5.69204C10.2862 5.72748 10.2629 5.75931 10.2341 5.78573C10.2341 5.78575 10.2341 5.78576 10.2341 5.78578L6.66098 9.0611ZM3.58117 1.85597C4.60941 1.16892 5.8183 0.80219 7.05496 0.802155C8.71278 0.804158 10.3021 1.46361 11.4744 2.63587C12.6467 3.80817 13.3061 5.3976 13.3081 7.05548C13.308 8.29208 12.9413 9.5009 12.2543 10.5291C11.5672 11.5574 10.5906 12.3589 9.44804 12.8321C8.30546 13.3054 7.04819 13.4292 5.83524 13.188C4.62228 12.9467 3.50811 12.3511 2.63361 11.4767C1.75912 10.6022 1.16358 9.48798 0.922307 8.27502C0.681035 7.06207 0.804865 5.8048 1.27814 4.66222C1.75141 3.51964 2.55287 2.54306 3.58117 1.85597Z" fill="#9B01DC" stroke="#9B01DC" stroke-width="0.595521"/>
</svg>
