<svg width="327" height="92" viewBox="0 0 327 92" fill="none" xmlns="http://www.w3.org/2000/svg">
<g filter="url(#filter0_d_128_15824)">
<g filter="url(#filter1_d_128_15824)">
<rect x="5" width="318" height="82" rx="20" transform="rotate(0.220764 5 0)" fill="#FFDF6D"/>
</g>
<g filter="url(#filter2_d_128_15824)">
<rect x="8.98462" y="4.01562" width="310" height="68" rx="20" transform="rotate(0.220764 8.98462 4.01562)" fill="#FFCF25"/>
</g>
<path d="M16.9356 16.7355C16.9584 10.8321 21.7625 6.06483 27.6659 6.08757L296.286 7.12259C302.189 7.14533 306.956 11.9493 306.933 17.8525C306.91 23.9932 301.735 28.8562 295.603 28.5137C270.045 27.0856 206.537 23.7862 162.354 23.6067C117.857 23.4258 53.8559 26.2503 28.1788 27.4844C22.0452 27.7792 16.912 22.8762 16.9356 16.7355Z" fill="#FFD84C"/>
<path d="M110.53 38.4814C110.533 37.6707 110.536 36.8707 110.539 36.0814C110.564 35.2708 110.588 34.4602 110.613 33.6497C110.614 33.3083 110.616 32.871 110.618 32.3377C110.641 31.7831 110.707 31.25 110.816 30.7384C110.946 30.2056 111.14 29.7583 111.397 29.3966C111.655 29.0136 112.039 28.8231 112.551 28.8251C113.042 28.827 113.394 28.967 113.606 29.2452C113.818 29.502 114.062 29.8549 114.338 30.304C114.55 30.6461 114.814 31.1698 115.132 31.8751C115.449 32.5589 115.787 33.3176 116.147 34.151C116.506 34.9844 116.866 35.8498 117.225 36.7472C117.605 37.6446 117.954 38.4566 118.272 39.1832C118.61 39.9098 118.896 40.5083 119.129 40.9785C119.361 41.4488 119.531 41.6841 119.638 41.6845C119.745 41.6849 119.82 41.4719 119.864 41.0454C119.909 40.6189 119.943 40.139 119.966 39.6057C119.989 39.0725 120.002 38.5712 120.004 38.1019C120.006 37.6112 120.007 37.3125 120.007 37.2059C120.008 36.9925 119.998 36.6938 119.979 36.3098C119.98 35.9044 119.971 35.4564 119.952 34.9656C119.932 34.4536 119.924 33.9202 119.926 33.3655C119.928 32.7895 119.93 32.2242 119.932 31.6695C119.957 30.9443 120.076 30.3261 120.292 29.8149C120.528 29.3038 120.935 29.0494 121.511 29.0516C121.937 29.0533 122.257 29.1612 122.469 29.3753C122.682 29.5681 122.83 29.814 122.915 30.113C122.999 30.412 123.04 30.7428 123.039 31.1055C123.059 31.4469 123.068 31.7776 123.067 32.0976L123.061 33.7296L122.952 36.9932L122.946 38.6252C122.941 39.7345 122.948 40.8439 122.965 41.9533C122.982 43.0414 122.988 44.1507 122.984 45.2814C122.983 45.5801 122.981 45.9534 122.98 46.4014C122.978 46.8494 122.934 47.2866 122.847 47.7129C122.781 48.1393 122.63 48.5121 122.394 48.8312C122.18 49.129 121.849 49.2771 121.401 49.2753C120.825 49.2731 120.26 49.0043 119.708 48.4688C119.176 47.9334 118.656 47.2594 118.148 46.4468C117.66 45.6342 117.194 44.7684 116.75 43.8494C116.305 42.909 115.893 42.0327 115.512 41.2206C115.152 40.4085 114.835 39.7353 114.559 39.2009C114.284 38.6665 114.061 38.399 113.891 38.3983C113.784 38.3979 113.709 38.5576 113.665 38.8775C113.621 39.176 113.588 39.5278 113.565 39.9331C113.563 40.3384 113.561 40.7437 113.56 41.1491C113.58 41.5545 113.589 41.8425 113.589 42.0132L113.572 46.3011C113.571 46.7065 113.548 47.0904 113.504 47.4529C113.481 47.7941 113.416 48.1032 113.308 48.3801C113.2 48.6357 113.05 48.8485 112.858 49.0184C112.686 49.1671 112.451 49.2409 112.153 49.2397C111.769 49.2382 111.47 49.1731 111.257 49.0443C111.045 48.8941 110.886 48.6801 110.78 48.4024C110.696 48.1247 110.644 47.7832 110.624 47.3778C110.626 46.9511 110.617 46.4711 110.597 45.9377C110.599 45.575 110.59 45.0523 110.571 44.3696C110.574 43.6869 110.566 42.9722 110.548 42.2255C110.551 41.4575 110.543 40.7321 110.524 40.0494C110.527 39.3454 110.529 38.8227 110.53 38.4814ZM132.167 49.8288C131.122 49.8248 130.227 49.5973 129.482 49.1465C128.737 48.6743 128.131 48.0746 127.665 47.3475C127.22 46.6204 126.892 45.8085 126.682 44.9117C126.472 43.9935 126.369 43.0864 126.373 42.1904C126.378 40.8038 126.5 39.5242 126.74 38.3518C126.979 37.1794 127.335 36.1568 127.807 35.2839C128.28 34.4111 128.88 33.7307 129.607 33.2428C130.356 32.7551 131.221 32.513 132.202 32.5168C133.013 32.52 133.705 32.736 134.28 33.1648C134.875 33.5938 135.375 34.1397 135.777 34.8026C136.18 35.4442 136.476 36.1493 136.665 36.9181C136.854 37.6655 136.948 38.3698 136.945 39.0312C136.945 39.1378 136.944 39.2872 136.943 39.4791C136.943 39.6711 136.931 39.8204 136.91 39.927C136.887 40.1829 136.694 40.4062 136.331 40.5968C135.968 40.7661 135.519 40.9243 134.985 41.0716C134.473 41.219 133.917 41.3768 133.319 41.5452C132.721 41.6922 132.166 41.8821 131.653 42.1148C131.14 42.3475 130.712 42.6338 130.37 42.9738C130.027 43.3139 129.855 43.7399 129.853 44.2519C129.852 44.5292 129.915 44.8174 130.042 45.1166C130.168 45.3944 130.327 45.651 130.519 45.8864C130.731 46.1219 130.976 46.3149 131.252 46.4653C131.529 46.5943 131.828 46.6595 132.148 46.6607C132.532 46.6622 132.831 46.5887 133.044 46.4402C133.28 46.2704 133.473 46.0685 133.623 45.8344C133.794 45.6004 133.934 45.3449 134.042 45.068C134.15 44.7698 134.257 44.5035 134.365 44.2692C134.494 44.0351 134.644 43.8437 134.815 43.695C135.008 43.5251 135.253 43.4407 135.552 43.4418C136.021 43.4436 136.373 43.6263 136.606 43.9899C136.86 44.3535 136.987 44.7487 136.985 45.1754C136.983 45.73 136.842 46.2735 136.563 46.8057C136.305 47.3381 136.015 47.817 135.694 48.2424C135.265 48.7954 134.74 49.1987 134.121 49.4523C133.501 49.706 132.85 49.8315 132.167 49.8288ZM132.19 35.7488C131.955 35.7479 131.72 35.8217 131.485 35.9701C131.271 36.1186 131.067 36.3098 130.875 36.5437C130.703 36.7564 130.563 37.0012 130.456 37.2781C130.348 37.5551 130.294 37.8215 130.293 38.0775C130.291 38.5042 130.375 38.7712 130.546 38.8785C130.737 38.9859 130.982 39.0402 131.281 39.0413C131.473 39.0421 131.697 39.0216 131.953 38.9799C132.231 38.917 132.487 38.8326 132.722 38.7269C132.979 38.5999 133.182 38.4513 133.332 38.2812C133.503 38.0899 133.589 37.8662 133.59 37.6102C133.591 37.4396 133.56 37.2474 133.497 37.0339C133.455 36.8204 133.37 36.6174 133.243 36.4249C133.137 36.2325 132.988 36.0719 132.797 35.9431C132.627 35.8145 132.424 35.7497 132.19 35.7488ZM144.304 43.7635C144.24 43.7633 144.111 43.9335 143.918 44.2741C143.746 44.5934 143.531 45.0086 143.273 45.5196C143.037 46.0093 142.779 46.5524 142.499 47.1486C142.219 47.7235 141.951 48.2558 141.693 48.7455C141.521 49.0435 141.307 49.224 141.051 49.287C140.795 49.3287 140.549 49.3491 140.315 49.3482C140.037 49.3471 139.803 49.3036 139.611 49.2175C139.419 49.1101 139.324 48.8964 139.325 48.5764C139.327 48.2564 139.392 47.8833 139.522 47.4571C139.652 47.0096 139.813 46.5516 140.007 46.083C140.201 45.5931 140.416 45.1032 140.653 44.6135C140.889 44.1024 141.105 43.6445 141.298 43.24C141.492 42.814 141.653 42.452 141.782 42.1538C141.933 41.8557 142.008 41.6533 142.009 41.5467C142.009 41.3973 141.872 40.9808 141.597 40.2971C141.344 39.6134 141.048 38.8656 140.71 38.0537C140.372 37.2417 140.065 36.4725 139.791 35.7461C139.516 34.9984 139.38 34.4858 139.381 34.2085C139.382 33.9312 139.425 33.7073 139.511 33.537C139.619 33.3454 139.747 33.1966 139.897 33.0905C140.047 32.9631 140.197 32.8783 140.346 32.8362C140.496 32.7941 140.634 32.7733 140.762 32.7738C141.061 32.775 141.37 32.8402 141.69 32.9694C142.031 33.0774 142.275 33.281 142.423 33.5802C142.698 34.136 142.952 34.7449 143.184 35.4072C143.416 36.0481 143.617 36.6462 143.785 37.2015C143.975 37.7569 144.133 38.2268 144.26 38.6113C144.408 38.9746 144.524 39.1564 144.61 39.1567C144.695 39.157 144.824 38.9762 144.996 38.6142C145.189 38.2522 145.404 37.8157 145.641 37.3046C145.878 36.7722 146.125 36.1972 146.384 35.5795C146.642 34.9618 146.89 34.3974 147.126 33.8863C147.255 33.5882 147.48 33.3544 147.801 33.1849C148.122 33.0155 148.421 32.9313 148.698 32.9324C149.402 32.9351 149.752 33.2885 149.75 33.9925C149.749 34.2485 149.683 34.6002 149.554 35.0477C149.424 35.4952 149.262 35.9853 149.068 36.5178C148.874 37.0291 148.659 37.5616 148.422 38.1154C148.185 38.6691 147.97 39.1803 147.776 39.6489C147.582 40.1175 147.421 40.5222 147.291 40.863C147.162 41.2039 147.097 41.4276 147.097 41.5343C147.096 41.6836 147.18 41.9826 147.349 42.4313C147.518 42.8586 147.719 43.35 147.952 43.9056C148.184 44.4398 148.427 44.9848 148.681 45.5404C148.935 46.0961 149.147 46.5556 149.316 46.9189C149.464 47.2394 149.58 47.5172 149.665 47.7522C149.771 47.9873 149.823 48.2328 149.822 48.4888C149.821 48.7875 149.67 49.0429 149.371 49.2551C149.093 49.446 148.826 49.541 148.57 49.54C147.909 49.5375 147.345 49.1833 146.878 48.4775C146.539 47.9215 146.232 47.3657 145.956 46.8099C145.681 46.2542 145.438 45.7519 145.226 45.3031C145.036 44.8544 144.856 44.491 144.686 44.213C144.538 43.9138 144.411 43.764 144.304 43.7635ZM156.824 28.4517C157.059 28.4526 157.186 28.5597 157.207 28.7731C157.249 28.9653 157.269 29.1467 157.269 29.3174L157.267 29.7014L157.2 30.5011L157.199 30.8851C157.197 31.2691 157.196 31.5998 157.195 31.8771C157.194 32.1545 157.225 32.3786 157.288 32.5495C157.351 32.7204 157.458 32.8488 157.607 32.9347C157.777 32.9994 158.022 33.0323 158.342 33.0336C158.641 33.0347 158.929 33.0251 159.206 33.0049C159.505 32.9634 159.772 32.9751 160.006 33.04C160.241 33.0835 160.432 33.1909 160.581 33.3622C160.73 33.5334 160.803 33.8217 160.802 34.227C160.8 34.7817 160.691 35.1653 160.477 35.3778C160.263 35.5903 159.868 35.6955 159.292 35.6932L157.756 35.6873C157.457 35.6862 157.285 36.0375 157.24 36.7413C157.195 37.4452 157.17 38.3837 157.165 39.5571L157.162 40.3891L157.124 42.0209L157.12 42.8529C157.119 43.1302 157.118 43.4929 157.116 43.9409C157.136 44.3677 157.188 44.7945 157.271 45.2215C157.376 45.6273 157.535 45.9799 157.747 46.2794C157.981 46.5576 158.311 46.6975 158.738 46.6992C159.036 46.7003 159.303 46.648 159.538 46.5423C159.773 46.4152 159.987 46.288 160.18 46.1607C160.372 46.0335 160.554 45.9168 160.725 45.8108C160.918 45.6836 161.099 45.6203 161.27 45.6209C161.504 45.6218 161.632 45.7397 161.652 45.9744C161.694 46.1879 161.715 46.38 161.714 46.5506C161.712 47.02 161.583 47.4568 161.325 47.8612C161.089 48.2656 160.778 48.6164 160.393 48.9136C160.008 49.1894 159.581 49.4011 159.111 49.5486C158.662 49.7176 158.214 49.8012 157.766 49.7995C156.998 49.7965 156.369 49.5701 155.88 49.1202C155.391 48.6703 155.01 48.0928 154.735 47.3878C154.482 46.6614 154.304 45.8501 154.2 44.9537C154.097 44.0573 154.037 43.161 154.019 42.265C154.001 41.3689 154.004 40.5156 154.029 39.705C154.074 38.8945 154.098 38.2119 154.1 37.6572C154.103 36.9319 154.084 36.4412 154.042 36.185C154.022 35.9289 153.862 35.8003 153.564 35.7992C153.457 35.7987 153.34 35.7876 153.212 35.7658C153.105 35.7441 152.999 35.6796 152.892 35.5726C152.808 35.4656 152.733 35.316 152.67 35.1237C152.607 34.9101 152.576 34.622 152.578 34.2593C152.579 33.918 152.612 33.6621 152.676 33.4917C152.741 33.3 152.827 33.1723 152.934 33.1087C153.062 33.0239 153.19 32.9817 153.318 32.9822C153.447 32.9614 153.575 32.9512 153.703 32.9517C154.044 32.953 154.236 32.8791 154.279 32.7299C154.344 32.5595 154.377 32.2076 154.379 31.6743C154.38 31.5889 154.38 31.4716 154.381 31.3223C154.381 31.1729 154.371 31.0236 154.351 30.8742C154.351 30.7035 154.352 30.5435 154.352 30.3942C154.353 30.2235 154.354 30.0955 154.354 30.0102C154.355 29.7542 154.43 29.5305 154.58 29.339C154.752 29.1264 154.955 28.9565 155.19 28.8294C155.447 28.7024 155.714 28.6074 155.992 28.5445C156.29 28.4816 156.568 28.4507 156.824 28.4517ZM181.43 28.7705C183.222 28.7774 184.618 29.2094 185.617 30.0666C186.617 30.9025 187.114 31.9604 187.109 33.2404C187.105 34.3497 186.569 34.9023 185.503 34.8982C185.161 34.8969 184.885 34.7358 184.673 34.415C184.461 34.0729 184.238 33.7093 184.005 33.3244C183.793 32.9183 183.528 32.5546 183.209 32.2334C182.89 31.8908 182.443 31.7184 181.867 31.7162C181.056 31.7131 180.426 31.988 179.976 32.5409C179.526 33.0725 179.299 33.733 179.296 34.5223C179.294 35.0983 179.505 35.6004 179.93 36.0288C180.355 36.4571 180.887 36.8751 181.526 37.2829C182.164 37.6694 182.856 38.0774 183.601 38.5069C184.346 38.9151 185.037 39.4085 185.675 39.9869C186.313 40.5654 186.844 41.2501 187.267 42.0411C187.691 42.8107 187.901 43.7502 187.896 44.8595C187.894 45.6062 187.71 46.3095 187.344 46.9694C186.979 47.608 186.486 48.1714 185.866 48.6597C185.267 49.1481 184.572 49.5294 183.781 49.8037C182.991 50.078 182.158 50.2134 181.284 50.2101C180.388 50.2066 179.588 50.0649 178.885 49.7848C178.182 49.5261 177.586 49.1932 177.097 48.7859C176.629 48.3788 176.268 47.9401 176.014 47.4698C175.76 46.9994 175.634 46.5616 175.635 46.1563C175.638 45.3456 175.758 44.7914 175.994 44.4936C176.251 44.1746 176.593 44.016 177.02 44.0176C177.297 44.0187 177.574 44.1797 177.85 44.5008C178.147 44.8219 178.466 45.1858 178.806 45.5925C179.167 45.9779 179.549 46.3314 179.953 46.6529C180.358 46.9745 180.805 47.1362 181.296 47.1381C182.234 47.1417 182.992 46.9313 183.57 46.5069C184.148 46.0611 184.438 45.5075 184.44 44.8462C184.443 44.2062 184.232 43.6507 183.807 43.1797C183.382 42.6874 182.851 42.2267 182.212 41.7976C181.574 41.3685 180.882 40.9498 180.137 40.5416C179.392 40.112 178.701 39.6294 178.063 39.0936C177.425 38.5578 176.894 37.9477 176.47 37.2634C176.046 36.5578 175.836 35.7143 175.839 34.733C175.843 33.8797 175.963 33.0908 176.2 32.3664C176.459 31.6207 176.824 30.9821 177.296 30.4506C177.767 29.919 178.345 29.5053 179.029 29.2092C179.734 28.9133 180.534 28.767 181.43 28.7705ZM194.896 28.5984C195.131 28.5993 195.258 28.7064 195.279 28.9198C195.321 29.112 195.341 29.2934 195.341 29.4641L195.339 29.8481L195.272 30.6478L195.271 31.0318C195.269 31.4158 195.268 31.7465 195.267 32.0238C195.266 32.3011 195.297 32.5253 195.36 32.6962C195.424 32.8671 195.53 32.9955 195.679 33.0814C195.849 33.1461 196.094 33.179 196.414 33.1802C196.713 33.1814 197.001 33.1718 197.279 33.1516C197.577 33.1101 197.844 33.1218 198.078 33.1867C198.313 33.2302 198.505 33.3376 198.653 33.5089C198.802 33.6801 198.875 33.9684 198.874 34.3737C198.872 34.9284 198.764 35.312 198.549 35.5245C198.335 35.737 197.94 35.8421 197.364 35.8399L195.828 35.834C195.53 35.8329 195.358 36.1842 195.312 36.888C195.267 37.5919 195.242 38.5304 195.237 39.7038L195.234 40.5358L195.196 42.1676L195.193 42.9996C195.192 43.2769 195.19 43.6396 195.188 44.0876C195.208 44.5144 195.26 44.9412 195.344 45.3682C195.449 45.774 195.607 46.1266 195.819 46.4261C196.053 46.7043 196.383 46.8442 196.81 46.8459C197.108 46.847 197.375 46.7947 197.61 46.689C197.846 46.5619 198.059 46.4347 198.252 46.3074C198.444 46.1802 198.626 46.0635 198.797 45.9575C198.99 45.8303 199.171 45.767 199.342 45.7676C199.577 45.7685 199.704 45.8864 199.725 46.1211C199.766 46.3346 199.787 46.5267 199.786 46.6973C199.785 47.1667 199.655 47.6035 199.397 48.0079C199.161 48.4123 198.85 48.7631 198.465 49.0603C198.08 49.3361 197.653 49.5478 197.183 49.6953C196.734 49.8643 196.286 49.9479 195.838 49.9462C195.07 49.9432 194.441 49.7168 193.952 49.2669C193.464 48.817 193.082 48.2395 192.807 47.5345C192.554 46.8081 192.376 45.9968 192.273 45.1004C192.169 44.204 192.109 43.3077 192.091 42.4117C192.073 41.5156 192.076 40.6623 192.101 39.8517C192.147 39.0412 192.17 38.3586 192.173 37.8039C192.175 37.0786 192.156 36.5879 192.114 36.3317C192.094 36.0756 191.934 35.947 191.636 35.9459C191.529 35.9454 191.412 35.9343 191.284 35.9125C191.177 35.8908 191.071 35.8263 190.965 35.7193C190.88 35.6123 190.806 35.4627 190.742 35.2704C190.679 35.0568 190.648 34.7687 190.65 34.406C190.651 34.0647 190.684 33.8088 190.749 33.6384C190.813 33.4467 190.899 33.319 191.006 33.2554C191.134 33.1706 191.263 33.1284 191.391 33.1289C191.519 33.1081 191.647 33.0979 191.775 33.0984C192.116 33.0997 192.308 33.0258 192.352 32.8766C192.416 32.7062 192.45 32.3543 192.452 31.821C192.452 31.7356 192.452 31.6183 192.453 31.469C192.454 31.3196 192.444 31.1703 192.423 31.0209C192.423 30.8502 192.424 30.6902 192.425 30.5409C192.425 30.3702 192.426 30.2422 192.426 30.1569C192.427 29.9009 192.503 29.6771 192.653 29.4857C192.824 29.2731 193.028 29.1032 193.263 28.9761C193.519 28.8491 193.786 28.7541 194.064 28.6912C194.363 28.6283 194.64 28.5974 194.896 28.5984ZM208.468 50.1228C207.423 50.1188 206.528 49.8913 205.783 49.4405C205.038 48.9683 204.432 48.3686 203.966 47.6414C203.52 46.9144 203.193 46.1025 202.983 45.2056C202.773 44.2875 202.67 43.3804 202.673 42.4844C202.679 41.0978 202.801 39.8182 203.04 38.6458C203.279 37.4734 203.635 36.4508 204.108 35.5779C204.581 34.7051 205.181 34.0247 205.908 33.5368C206.656 33.049 207.521 32.807 208.503 32.8108C209.313 32.8139 210.006 33.0299 210.58 33.4588C211.176 33.8878 211.675 34.4337 212.078 35.0966C212.481 35.7382 212.777 36.4433 212.966 37.2121C213.155 37.9595 213.248 38.6638 213.246 39.3251C213.245 39.4318 213.245 39.5811 213.244 39.7731C213.243 39.9651 213.232 40.1144 213.21 40.221C213.188 40.4769 212.995 40.7002 212.632 40.8908C212.268 41.0601 211.82 41.2183 211.286 41.3656C210.773 41.513 210.218 41.6708 209.62 41.8392C209.022 41.9862 208.467 42.1761 207.954 42.4088C207.441 42.6415 207.013 42.9278 206.67 43.2678C206.328 43.6079 206.155 44.0339 206.154 44.5459C206.152 44.8232 206.215 45.1114 206.342 45.4106C206.469 45.6884 206.628 45.945 206.819 46.1804C207.032 46.4159 207.276 46.6089 207.553 46.7593C207.83 46.8883 208.128 46.9535 208.448 46.9547C208.832 46.9562 209.131 46.8827 209.345 46.7342C209.58 46.5644 209.773 46.3625 209.923 46.1284C210.095 45.8944 210.235 45.6389 210.342 45.362C210.45 45.0637 210.558 44.7975 210.665 44.5632C210.794 44.3291 210.944 44.1376 211.116 43.989C211.308 43.819 211.554 43.7347 211.853 43.7358C212.322 43.7376 212.673 43.9203 212.907 44.2839C213.161 44.6475 213.288 45.0427 213.286 45.4693C213.284 46.024 213.143 46.5675 212.864 47.0997C212.606 47.6321 212.316 48.111 211.994 48.5364C211.565 49.0894 211.041 49.4927 210.422 49.7463C209.802 50 209.151 50.1254 208.468 50.1228ZM208.49 36.0428C208.256 36.0419 208.021 36.1157 207.785 36.2641C207.572 36.4126 207.368 36.6038 207.175 36.8377C207.004 37.0504 206.864 37.2952 206.756 37.5721C206.649 37.849 206.594 38.1155 206.593 38.3715C206.592 38.7982 206.676 39.0652 206.846 39.1725C207.038 39.2799 207.283 39.3342 207.582 39.3353C207.774 39.3361 207.998 39.3156 208.254 39.2739C208.531 39.211 208.788 39.1266 209.023 39.0209C209.279 38.8939 209.483 38.7453 209.633 38.5752C209.804 38.3839 209.89 38.1602 209.891 37.9042C209.892 37.7335 209.861 37.5414 209.797 37.3278C209.756 37.1143 209.671 36.9114 209.544 36.7189C209.438 36.5265 209.289 36.3659 209.098 36.2371C208.927 36.1085 208.725 36.0437 208.49 36.0428ZM216.906 36.0432C216.907 35.8086 216.908 35.5312 216.91 35.2112C216.911 34.8699 216.944 34.5607 217.009 34.2836C217.096 33.9853 217.235 33.7405 217.428 33.5492C217.621 33.3366 217.899 33.231 218.261 33.2324C218.709 33.2342 219.008 33.31 219.156 33.4599C219.326 33.6099 219.443 33.781 219.506 33.9732C219.57 34.1441 219.633 34.3044 219.697 34.454C219.76 34.6035 219.92 34.6788 220.176 34.6798C220.368 34.6806 220.549 34.5959 220.721 34.4259C220.913 34.256 221.138 34.0648 221.395 33.8525C221.652 33.6402 221.962 33.4494 222.325 33.2801C222.688 33.1108 223.147 33.0272 223.702 33.0294C224.662 33.0331 225.461 33.2815 226.099 33.7746C226.759 34.2465 227.279 34.8885 227.66 35.7007C228.041 36.4915 228.315 37.3992 228.481 38.4238C228.648 39.4272 228.729 40.4621 228.725 41.5288C228.721 42.5955 228.621 43.6298 228.425 44.6317C228.251 45.6337 227.949 46.5285 227.519 47.3162C227.111 48.0826 226.564 48.6992 225.88 49.1659C225.195 49.6326 224.352 49.864 223.349 49.8602C222.88 49.8583 222.475 49.7928 222.134 49.6635C221.815 49.5129 221.527 49.3518 221.272 49.1801C221.038 48.9872 220.836 48.8265 220.666 48.6978C220.496 48.5478 220.347 48.4726 220.219 48.4721C220.112 48.4717 220.037 48.5354 219.994 48.6632C219.951 48.7697 219.929 48.8976 219.928 49.047C219.928 49.1963 219.927 49.3456 219.927 49.495C219.947 49.623 219.958 49.7191 219.957 49.7831C219.956 50.0391 219.955 50.3804 219.954 50.8071C219.952 51.2337 219.95 51.6711 219.948 52.1191C219.968 52.5671 219.977 52.9938 219.976 53.3992C219.974 53.8258 219.973 54.1778 219.971 54.4552C219.97 54.7538 219.959 55.0205 219.936 55.255C219.935 55.511 219.892 55.7349 219.806 55.9265C219.72 56.1182 219.57 56.267 219.356 56.3728C219.142 56.4787 218.822 56.5308 218.395 56.5291C217.969 56.5275 217.607 56.3874 217.309 56.1089C217.011 55.8304 216.864 55.3072 216.867 54.5392C216.872 53.1526 216.878 51.7446 216.883 50.3152C216.889 48.9073 216.894 47.5419 216.899 46.2193C216.904 44.8753 216.899 43.6166 216.882 42.4432C216.886 41.2485 216.89 40.2032 216.894 39.3072C216.897 38.3899 216.9 37.6432 216.902 37.0672C216.905 36.4912 216.906 36.1499 216.906 36.0432ZM219.957 41.687C219.955 42.135 220.006 42.6366 220.111 43.1916C220.215 43.7254 220.384 44.238 220.617 44.7296C220.85 45.1998 221.147 45.6063 221.508 45.949C221.891 46.2705 222.36 46.4323 222.914 46.4345C223.853 46.4381 224.505 46.0032 224.871 45.13C225.237 44.2567 225.424 43.0308 225.43 41.4521C225.431 41.0894 225.401 40.6093 225.339 40.0117C225.299 39.4143 225.194 38.8378 225.026 38.2825C224.879 37.7273 224.656 37.2464 224.359 36.8399C224.084 36.4335 223.722 36.2295 223.274 36.2278C222.698 36.2255 222.206 36.3943 221.8 36.7341C221.393 37.0525 221.05 37.4672 220.771 37.9781C220.513 38.4678 220.319 39.0004 220.189 39.5759C220.059 40.1301 219.993 40.6418 219.991 41.1111L219.957 41.687Z" fill="#534100"/>
<path d="M31.6068 8.36349C33.513 10.6297 31.8255 15.1861 28.9527 17.6025C26.0799 20.019 21.3018 20.9012 19.3956 18.635C17.4894 16.3688 18.6777 12.2324 22.0497 9.39597C25.4218 6.55957 29.7006 6.09731 31.6068 8.36349Z" fill="#FFE588"/>
</g>
<defs>
<filter id="filter0_d_128_15824" x="0.823242" y="0.13916" width="326.035" height="90.9463" filterUnits="userSpaceOnUse" color-interpolation-filters="sRGB">
<feFlood flood-opacity="0" result="BackgroundImageFix"/>
<feColorMatrix in="SourceAlpha" type="matrix" values="0 0 0 0 0 0 0 0 0 0 0 0 0 0 0 0 0 0 127 0" result="hardAlpha"/>
<feOffset dy="4"/>
<feGaussianBlur stdDeviation="2"/>
<feComposite in2="hardAlpha" operator="out"/>
<feColorMatrix type="matrix" values="0 0 0 0 0 0 0 0 0 0 0 0 0 0 0 0 0 0 0.25 0"/>
<feBlend mode="normal" in2="BackgroundImageFix" result="effect1_dropShadow_128_15824"/>
<feBlend mode="normal" in="SourceGraphic" in2="effect1_dropShadow_128_15824" result="shape"/>
</filter>
<filter id="filter1_d_128_15824" x="4.82324" y="0.13916" width="318.035" height="86.9463" filterUnits="userSpaceOnUse" color-interpolation-filters="sRGB">
<feFlood flood-opacity="0" result="BackgroundImageFix"/>
<feColorMatrix in="SourceAlpha" type="matrix" values="0 0 0 0 0 0 0 0 0 0 0 0 0 0 0 0 0 0 127 0" result="hardAlpha"/>
<feOffset dy="4"/>
<feComposite in2="hardAlpha" operator="out"/>
<feColorMatrix type="matrix" values="0 0 0 0 1 0 0 0 0 0.835982 0 0 0 0 0.251667 0 0 0 1 0"/>
<feBlend mode="normal" in2="BackgroundImageFix" result="effect1_dropShadow_128_15824"/>
<feBlend mode="normal" in="SourceGraphic" in2="effect1_dropShadow_128_15824" result="shape"/>
</filter>
<filter id="filter2_d_128_15824" x="8.84155" y="4.13477" width="310.022" height="72.9561" filterUnits="userSpaceOnUse" color-interpolation-filters="sRGB">
<feFlood flood-opacity="0" result="BackgroundImageFix"/>
<feColorMatrix in="SourceAlpha" type="matrix" values="0 0 0 0 0 0 0 0 0 0 0 0 0 0 0 0 0 0 127 0" result="hardAlpha"/>
<feOffset dy="4"/>
<feComposite in2="hardAlpha" operator="out"/>
<feColorMatrix type="matrix" values="0 0 0 0 0.929167 0 0 0 0 0.72458 0 0 0 0 0 0 0 0 1 0"/>
<feBlend mode="normal" in2="BackgroundImageFix" result="effect1_dropShadow_128_15824"/>
<feBlend mode="normal" in="SourceGraphic" in2="effect1_dropShadow_128_15824" result="shape"/>
</filter>
</defs>
</svg>
