<svg width="393" height="852" viewBox="0 0 393 852" fill="none" xmlns="http://www.w3.org/2000/svg">
<g clip-path="url(#clip0_154_23106)">
<rect width="393" height="852" fill="#E8F3FF"/>
<path d="M378.537 811.836C389.869 786.571 386.668 761.254 374.652 739.554C362.63 717.843 341.786 699.761 317.869 689.033C305.92 683.674 297.792 683.401 291.92 686.598C286.024 689.808 282.235 696.6 279.189 705.803C276.948 712.573 275.135 720.561 273.163 729.248C272.457 732.358 271.731 735.557 270.957 738.822C268.028 751.187 264.429 764.454 258.707 777.213C253.096 789.722 247.857 799.777 243.399 808.334L243.165 808.785C238.652 817.447 234.97 824.55 232.518 831.139C230.07 837.718 228.858 843.764 229.28 850.301C229.703 856.842 231.764 863.912 235.916 872.531C242.436 886.067 253.117 892.206 265.859 893.046C278.64 893.89 293.521 889.4 308.346 881.585C338 865.951 367.186 837.141 378.537 811.836Z" stroke="#2BCB9A" stroke-opacity="0.2"/>
<path d="M367.878 808.872C388.023 763.958 359.132 719.947 319.166 702.02C309.199 697.55 302.373 697.483 297.377 700.4C292.346 703.338 289.01 709.386 286.25 717.555C284.221 723.562 282.528 730.632 280.687 738.323C280.027 741.077 279.349 743.91 278.629 746.802C275.904 757.753 272.596 769.513 267.502 780.868C262.533 791.948 257.93 800.881 254.011 808.486L253.749 808.995C249.77 816.718 246.526 823.049 244.329 828.903C242.136 834.747 240.994 840.093 241.214 845.835C241.433 851.579 243.016 857.754 246.319 865.249C248.92 871.15 252.435 875.379 256.619 878.194C260.804 881.009 265.687 882.43 271.053 882.673C281.802 883.158 294.452 878.91 307.139 871.725C332.513 857.354 357.78 831.384 367.878 808.872Z" stroke="#2BCB9A" stroke-opacity="0.2"/>
<path d="M357.437 806.798C374.53 768.688 351.671 732.106 319.417 717.639C311.379 714.034 305.856 714.091 301.773 716.604C297.648 719.142 294.841 724.27 292.467 731.194C290.722 736.283 289.235 742.261 287.616 748.767C287.036 751.097 286.44 753.495 285.809 755.944C283.42 765.211 280.542 775.172 276.215 784.819C271.994 794.23 268.105 801.826 264.794 808.293L264.572 808.726C261.211 815.293 258.471 820.673 256.592 825.635C254.716 830.587 253.706 835.1 253.797 839.923C253.888 844.748 255.081 849.916 257.656 856.172C259.681 861.091 262.47 864.581 265.817 866.874C269.164 869.167 273.101 870.285 277.455 870.407C286.181 870.65 296.54 866.889 306.988 860.645C327.882 848.159 348.867 825.904 357.437 806.798Z" stroke="#2BCB9A" stroke-opacity="0.2"/>
<path d="M346.996 804.723C361.042 773.406 344.198 744.26 319.667 733.257C313.565 730.52 309.345 730.699 306.174 732.804C302.951 734.944 300.673 739.155 298.683 744.834C297.222 749.005 295.94 753.892 294.545 759.213C294.045 761.12 293.53 763.082 292.988 765.087C290.935 772.671 288.488 780.831 284.927 788.77C281.455 796.512 278.28 802.771 275.577 808.099L275.396 808.456C272.651 813.868 270.416 818.297 268.854 822.367C267.296 826.428 266.417 830.111 266.38 834.017C266.343 837.923 267.147 842.085 268.995 847.102C270.445 851.038 272.51 853.787 275.018 855.556C277.524 857.324 280.511 858.139 283.851 858.141C290.553 858.145 298.622 854.873 306.833 849.569C323.247 838.966 339.952 820.427 346.996 804.723Z" stroke="#2BCB9A" stroke-opacity="0.2"/>
<path d="M265.117 331.773C294.765 356.862 330.132 362.381 364.036 354.62C397.952 346.855 430.397 325.8 454.128 297.756C465.986 283.743 469.552 272.85 467.509 263.621C465.46 254.363 457.733 246.594 446.527 238.924C438.28 233.278 428.225 227.734 417.3 221.711C413.392 219.556 409.373 217.34 405.285 215.036C389.79 206.303 373.351 196.324 358.421 183.691C343.773 171.296 332.281 160.352 322.498 151.037L321.984 150.547C312.083 141.12 303.947 133.402 296.02 127.54C288.104 121.684 280.415 117.694 271.423 115.72C262.426 113.744 252.089 113.778 238.867 116.024C218.054 119.559 205.598 131.6 199.503 148.479C193.394 165.395 193.669 187.197 198.438 210.189C207.978 256.177 235.435 306.656 265.117 331.773Z" stroke="#2BCB9A" stroke-opacity="0.2"/>
<path d="M273.238 318.584C325.962 363.199 396.497 341.329 436.154 294.465C446.051 282.769 448.835 273.547 446.824 265.603C444.804 257.62 437.905 250.751 427.981 243.867C420.679 238.802 411.812 233.776 402.177 228.315C398.73 226.361 395.185 224.351 391.577 222.264C377.905 214.354 363.381 205.349 350.093 194.106C337.12 183.127 326.891 173.475 318.179 165.254L317.596 164.704C308.752 156.359 301.484 149.531 294.45 144.297C287.424 139.069 280.651 135.446 272.809 133.506C264.964 131.566 256.018 131.302 244.637 132.841C235.657 134.056 228.57 137.158 223.127 141.723C217.683 146.289 213.859 152.34 211.443 159.493C206.605 173.816 207.423 192.524 212.172 212.395C221.672 252.135 246.83 296.237 273.238 318.584Z" stroke="#2BCB9A" stroke-opacity="0.2"/>
<path d="M280.077 305.342C324.825 343.208 383.026 326.584 415.045 288.746C423.032 279.308 425.142 271.788 423.32 265.23C421.484 258.623 415.62 252.824 407.223 246.942C401.046 242.615 393.569 238.29 385.442 233.588C382.533 231.906 379.542 230.175 376.497 228.379C364.959 221.573 352.687 213.846 341.399 204.294C330.38 194.97 321.672 186.796 314.256 179.834L313.761 179.369C306.232 172.301 300.048 166.521 294.091 162.061C288.143 157.607 282.44 154.484 275.885 152.728C269.328 150.97 261.888 150.572 252.456 151.612C245.022 152.432 239.206 154.844 234.789 158.486C230.371 162.128 227.322 167.025 225.46 172.865C221.732 184.562 222.784 200 227.137 216.493C235.841 249.474 257.66 286.373 280.077 305.342Z" stroke="#2BCB9A" stroke-opacity="0.2"/>
<path d="M286.916 292.1C323.697 323.225 369.563 311.83 393.937 283.026C400.008 275.851 401.448 270.035 399.816 264.861C398.166 259.627 393.335 254.896 386.464 250.016C381.412 246.427 375.324 242.802 368.704 238.86C366.335 237.449 363.897 235.997 361.414 234.492C352.01 228.791 341.992 222.341 332.704 214.482C323.64 206.812 316.454 200.116 310.334 194.414L309.925 194.033C303.711 188.244 298.611 183.511 293.732 179.825C288.86 176.144 284.226 173.52 278.956 171.947C273.686 170.373 267.751 169.842 260.268 170.383C254.378 170.809 249.838 172.532 246.448 175.25C243.059 177.967 240.785 181.707 239.479 186.231C236.859 195.301 238.144 207.469 242.099 220.585C250.006 246.809 268.487 276.506 286.916 292.1Z" stroke="#2BCB9A" stroke-opacity="0.2"/>
<path d="M-20.857 477.513C-8.1798 428.186 25.4615 395.453 67.6046 378.036C109.759 360.614 160.415 358.522 207.049 370.508C230.355 376.497 242.478 385.451 247.318 396.927C252.169 408.429 249.781 422.635 243.62 439.327C239.084 451.616 232.538 465.17 225.429 479.886C222.887 485.149 220.273 490.56 217.654 496.115C207.719 517.187 197.723 540.295 191.35 565.092C185.095 589.431 181.11 609.828 177.718 627.194L177.54 628.106C174.106 645.679 171.261 660.101 167.231 672.382C163.206 684.652 158.006 694.763 149.876 703.707C141.744 712.655 130.656 720.463 114.816 728.089C89.8479 740.11 67.3556 736.678 48.0084 723.234C28.6289 709.767 12.3868 686.236 0.052823 658.045C-24.6172 601.658 -33.5452 526.883 -20.857 477.513Z" stroke="#2BCB9A" stroke-opacity="0.2"/>
<path d="M-2.18476 485.45C20.3632 397.716 112.406 367.616 190.339 387.645C209.797 392.646 219.819 400.409 223.718 410.488C227.631 420.605 225.447 433.22 220.059 448.1C216.094 459.052 210.425 471.151 204.268 484.29C202.067 488.988 199.803 493.82 197.532 498.78C188.921 517.59 180.231 538.207 174.56 560.276C169.019 581.833 165.407 599.894 162.329 615.28L162.123 616.307C158.999 631.923 156.406 644.736 152.854 655.669C149.306 666.592 144.806 675.616 137.881 683.651C130.954 691.688 121.578 698.761 108.24 705.747C97.7041 711.265 87.7519 713.331 78.4443 712.576C69.1356 711.821 60.4377 708.241 52.416 702.415C36.3592 690.755 23.0408 670.117 13.0525 645.276C-6.92414 595.594 -13.4738 529.376 -2.18476 485.45Z" stroke="#2BCB9A" stroke-opacity="0.2"/>
<path d="M15.1569 494.415C34.2967 419.942 109.18 393.576 172.122 409.752C187.829 413.789 195.842 420.246 198.89 428.704C201.955 437.208 200.067 447.893 195.552 460.545C192.229 469.855 187.514 480.152 182.393 491.337C180.562 495.337 178.678 499.451 176.787 503.674C169.619 519.687 162.368 537.233 157.55 555.979C152.844 574.288 149.736 589.617 147.089 602.675L146.912 603.547C144.225 616.801 141.996 627.672 139.009 636.961C136.026 646.24 132.291 653.918 126.603 660.781C120.914 667.647 113.249 673.722 102.372 679.765C93.7866 684.535 85.7161 686.375 78.2019 685.829C70.6872 685.283 63.6901 682.348 57.2566 677.505C44.3744 667.807 33.7859 650.484 25.9332 629.553C10.2293 587.696 5.57285 531.706 15.1569 494.415Z" stroke="#2BCB9A" stroke-opacity="0.2"/>
<path d="M32.4984 503.38C48.2331 442.156 105.967 419.54 153.904 431.86C165.856 434.932 171.861 440.079 174.061 446.914C176.28 453.809 174.687 462.568 171.044 472.992C168.364 480.661 164.603 489.156 160.517 498.387C159.055 501.689 157.552 505.086 156.041 508.572C150.315 521.787 144.503 536.261 140.54 551.683C136.669 566.743 134.066 579.341 131.849 590.07L131.701 590.787C129.45 601.679 127.586 610.609 125.164 618.254C122.745 625.891 119.774 632.224 115.322 637.917C110.869 643.61 104.916 648.688 96.4987 653.787C89.8623 657.808 83.6746 659.42 77.9569 659.083C72.2396 658.746 66.9457 656.458 62.101 652.599C52.3936 644.866 44.5333 630.859 38.8154 613.837C27.3831 579.804 24.6187 534.04 32.4984 503.38Z" stroke="#2BCB9A" stroke-opacity="0.2"/>
</g>
<defs>
<clipPath id="clip0_154_23106">
<rect width="393" height="852" fill="white"/>
</clipPath>
</defs>
</svg>
